# MagicaVoxel @ Ephtracy

# group
o 

# material
mtllib center_city_wall.mtl
usemtl palette

# normals
vn -1 0 0
vn 1 0 0
vn 0 0 1
vn 0 0 -1
vn 0 -1 0
vn 0 1 0

# texcoords
vt 0.0371094 0.5
vt 0.373047 0.5
vt 0.849609 0.5

# verts
v -1 0 -0.5
v -1 0 -0.6
v -1 0 -0.9
v -1 0 -1
v -1 0.2 -0.6
v -1 0.2 -0.9
v -1 0.3 -0.6
v -1 0.3 -0.9
v -1 0.4 -0.5
v -1 0.4 -0.6
v -1 0.4 -0.9
v -1 0.4 -1
v -0.9 0 1
v -0.9 0 0.6
v -0.9 0 -0.1
v -0.9 0 -0.4
v -0.9 0 -0.6
v -0.9 0 -0.9
v -0.9 0.1 1
v -0.9 0.1 0.6
v -0.9 0.1 -0.1
v -0.9 0.1 -0.4
v -0.9 0.1 -0.6
v -0.9 0.1 -0.9
v -0.9 0.2 1
v -0.9 0.2 0.6
v -0.9 0.2 -0.1
v -0.9 0.2 -0.4
v -0.8 0 0.5
v -0.8 0 -1.19209e-07
v -0.8 0.1 0.5
v -0.8 0.1 -1.19209e-07
v -0.8 0.2 1
v -0.8 0.2 0.6
v -0.8 0.2 0.5
v -0.8 0.2 0.4
v -0.8 0.2 0.3
v -0.8 0.2 -1.19209e-07
v -0.8 0.2 -0.1
v -0.8 0.2 -0.4
v -0.8 0.3 1
v -0.8 0.3 0.6
v -0.8 0.3 0.4
v -0.8 0.3 0.3
v -0.8 0.3 -0.1
v -0.8 0.3 -0.4
v -0.7 0.2 0.5
v -0.7 0.2 0.4
v -0.7 0.2 0.3
v -0.7 0.2 -1.19209e-07
v -0.7 0.3 0.5
v -0.7 0.3 0.4
v -0.7 0.3 0.3
v -0.7 0.3 -1.19209e-07
v -0.6 0 -0.5
v -0.6 0 -0.6
v -0.6 0 -0.9
v -0.6 0 -1
v -0.6 0.1 -0.6
v -0.6 0.1 -0.9
v -0.6 0.2 -0.5
v -0.6 0.2 -0.6
v -0.6 0.2 -0.9
v -0.6 0.2 -1
v -0.6 0.3 -0.5
v -0.6 0.3 -0.6
v -0.6 0.3 -0.9
v -0.6 0.3 -1
v -0.6 0.4 -0.5
v -0.6 0.4 -0.6
v -0.6 0.4 -0.9
v -0.6 0.4 -1
v -0.2 0 1
v -0.2 0 0.7
v -0.2 0.1 1
v -0.2 0.1 0.7
v -0.2 0.2 1
v -0.2 0.2 0.9
v -0.2 0.2 0.8
v -0.2 0.2 0.7
v -0.2 0.3 0.9
v -0.2 0.3 0.8
v 1.19209e-07 0 0.4
v 1.19209e-07 0 0.0999999
v 1.19209e-07 0.1 0.4
v 1.19209e-07 0.1 0.0999999
v 1.19209e-07 0.2 0.4
v 1.19209e-07 0.2 0.0999999
v 0.1 0 0.7
v 0.1 0 0.5
v 0.1 0.1 0.7
v 0.1 0.2 1
v 0.1 0.2 0.9
v 0.1 0.2 0.8
v 0.1 0.2 0.7
v 0.1 0.2 0.5
v 0.1 0.2 0.4
v 0.1 0.2 0.0999999
v 0.1 0.3 1
v 0.1 0.3 0.9
v 0.1 0.3 0.8
v 0.1 0.3 0.5
v 0.1 0.3 0.4
v 0.1 0.3 0.0999999
v 0.2 0.3 1
v 0.2 0.3 0.5
v 0.2 0.4 1
v 0.2 0.4 0.5
v 0.4 0 -1.19209e-07
v 0.4 0 -0.3
v 0.4 0.1 -1.19209e-07
v 0.4 0.1 -0.3
v 0.4 0.2 -1.19209e-07
v 0.4 0.2 -0.1
v 0.4 0.2 -0.2
v 0.4 0.2 -0.3
v 0.4 0.3 -0.1
v 0.4 0.3 -0.2
v 0.5 0.1 -0.5
v 0.5 0.1 -0.6
v 0.5 0.1 -0.9
v 0.5 0.1 -1
v 0.5 0.2 -0.6
v 0.5 0.2 -0.9
v 0.5 0.3 -0.6
v 0.5 0.3 -0.9
v 0.5 0.4 -0.5
v 0.5 0.4 -0.6
v 0.5 0.4 -0.9
v 0.5 0.4 -1
v 0.6 0 0.9
v 0.6 0 0.5
v 0.6 0 0.3
v 0.6 0 -1.19209e-07
v 0.6 0.1 0.9
v 0.6 0.1 0.5
v 0.6 0.1 0.3
v 0.6 0.1 -1.19209e-07
v 0.6 0.2 0.9
v 0.6 0.2 0.8
v 0.6 0.2 0.7
v 0.6 0.2 0.5
v 0.6 0.2 0.3
v 0.6 0.2 -1.19209e-07
v 0.6 0.3 0.8
v 0.6 0.3 0.7
v 0.7 0.2 0.9
v 0.7 0.2 0.8
v 0.7 0.2 0.7
v 0.7 0.2 0.5
v 0.7 0.2 0.3
v 0.7 0.2 -0.1
v 0.7 0.2 -0.2
v 0.7 0.2 -0.3
v 0.7 0.3 0.9
v 0.7 0.3 0.8
v 0.7 0.3 0.7
v 0.7 0.3 0.5
v 0.7 0.3 0.3
v 0.7 0.3 -0.1
v 0.7 0.3 -0.2
v 0.7 0.3 -0.3
v 0.9 0 -0.5
v 0.9 0 -0.6
v 0.9 0 -0.9
v 0.9 0 -1
v 0.9 0.1 -0.6
v 0.9 0.1 -0.9
v 0.9 0.2 -0.5
v 0.9 0.2 -0.6
v 0.9 0.2 -0.9
v 0.9 0.2 -1
v 0.9 0.3 -0.5
v 0.9 0.3 -0.6
v 0.9 0.3 -0.9
v 0.9 0.3 -1
v 0.9 0.4 -0.5
v 0.9 0.4 -0.6
v 0.9 0.4 -0.9
v 0.9 0.4 -1
v -0.9 0 -0.5
v -0.9 0 -0.6
v -0.9 0 -0.9
v -0.9 0 -1
v -0.9 0.1 -0.6
v -0.9 0.1 -0.9
v -0.9 0.2 -0.5
v -0.9 0.2 -0.6
v -0.9 0.2 -0.9
v -0.9 0.2 -1
v -0.9 0.3 -0.5
v -0.9 0.3 -0.6
v -0.9 0.3 -0.9
v -0.9 0.3 -1
v -0.9 0.4 -0.5
v -0.9 0.4 -0.6
v -0.9 0.4 -0.9
v -0.9 0.4 -1
v -0.7 0.2 1
v -0.7 0.2 0.8
v -0.7 0.2 0.7
v -0.7 0.2 0.6
v -0.7 0.2 -0.1
v -0.7 0.2 -0.4
v -0.7 0.3 1
v -0.7 0.3 0.8
v -0.7 0.3 0.7
v -0.7 0.3 0.6
v -0.7 0.3 -0.1
v -0.7 0.3 -0.4
v -0.6 0 1
v -0.6 0 0.9
v -0.6 0 -0.1
v -0.6 0 -0.4
v -0.6 0.1 1
v -0.6 0.1 0.9
v -0.6 0.1 -0.1
v -0.6 0.1 -0.4
v -0.6 0.2 1
v -0.6 0.2 0.9
v -0.6 0.2 0.5
v -0.6 0.2 0.4
v -0.6 0.2 0.3
v -0.6 0.2 -1.19209e-07
v -0.6 0.2 -0.1
v -0.6 0.2 -0.4
v -0.6 0.3 0.5
v -0.6 0.3 0.4
v -0.6 0.3 0.3
v -0.6 0.3 -1.19209e-07
v -0.5 0 0.2
v -0.5 0 -1.19209e-07
v -0.5 0.1 0.2
v -0.5 0.1 -1.19209e-07
v -0.5 0.1 -0.5
v -0.5 0.1 -0.6
v -0.5 0.1 -0.9
v -0.5 0.1 -1
v -0.5 0.2 0.2
v -0.5 0.2 -1.19209e-07
v -0.5 0.2 -0.6
v -0.5 0.2 -0.9
v -0.5 0.3 -0.6
v -0.5 0.3 -0.9
v -0.5 0.4 -0.5
v -0.5 0.4 -0.6
v -0.5 0.4 -0.9
v -0.5 0.4 -1
v -0.4 0.2 0.8
v -0.4 0.2 0.7
v -0.4 0.3 0.8
v -0.4 0.3 0.7
v -0.3 0 0.9
v -0.3 0 0.6
v -0.3 0.1 0.9
v -0.3 0.1 0.6
v -0.3 0.2 0.9
v -0.3 0.2 0.6
v -0.2 0 0.5
v -0.2 0 0.2
v -0.2 0.1 0.5
v -0.2 0.1 0.2
v -0.2 0.2 0.5
v -0.2 0.2 0.4
v -0.2 0.2 0.3
v -0.2 0.2 0.2
v -0.2 0.3 0.4
v -0.2 0.3 0.3
v 0.2 0.2 0.4
v 0.2 0.2 0.0999999
v 0.2 0.3 0.4
v 0.2 0.3 0.0999999
v 0.3 0 0.4
v 0.3 0 0.0999999
v 0.3 0.1 0.4
v 0.3 0.1 0.0999999
v 0.3 0.2 0.4
v 0.3 0.2 0.0999999
v 0.3 0.3 1
v 0.3 0.3 0.5
v 0.3 0.4 1
v 0.3 0.4 0.5
v 0.4 0 1
v 0.4 0 0.5
v 0.4 0.2 1
v 0.4 0.2 0.5
v 0.4 0.3 1
v 0.4 0.3 0.5
v 0.6 0 -0.5
v 0.6 0 -0.6
v 0.6 0 -0.9
v 0.6 0 -1
v 0.6 0.1 -0.6
v 0.6 0.1 -0.9
v 0.6 0.2 -0.5
v 0.6 0.2 -0.6
v 0.6 0.2 -0.9
v 0.6 0.2 -1
v 0.6 0.3 -0.5
v 0.6 0.3 -0.6
v 0.6 0.3 -0.9
v 0.6 0.3 -1
v 0.6 0.4 -0.5
v 0.6 0.4 -0.6
v 0.6 0.4 -0.9
v 0.6 0.4 -1
v 0.8 0.2 0.9
v 0.8 0.2 0.7
v 0.8 0.2 0.6
v 0.8 0.2 0.5
v 0.8 0.2 0.3
v 0.8 0.2 -0.3
v 0.8 0.3 0.9
v 0.8 0.3 0.7
v 0.8 0.3 0.6
v 0.8 0.3 0.5
v 0.8 0.3 0.3
v 0.8 0.3 -0.3
v 0.9 0 0.9
v 0.9 0 0.5
v 0.9 0 0.3
v 0.9 0 -0.3
v 0.9 0 -0.6
v 0.9 0 -0.9
v 0.9 0.1 0.9
v 0.9 0.1 0.5
v 0.9 0.1 0.3
v 0.9 0.1 -0.3
v 0.9 0.1 -0.6
v 0.9 0.1 -0.9
v 0.9 0.2 0.9
v 0.9 0.2 0.7
v 0.9 0.2 0.6
v 0.9 0.2 0.5
v 0.9 0.2 0.3
v 0.9 0.2 -0.3
v 0.9 0.3 0.7
v 0.9 0.3 0.6
v 1 0 -0.5
v 1 0 -0.6
v 1 0 -0.9
v 1 0 -1
v 1 0.2 -0.6
v 1 0.2 -0.9
v 1 0.3 -0.6
v 1 0.3 -0.9
v 1 0.4 -0.5
v 1 0.4 -0.6
v 1 0.4 -0.9
v 1 0.4 -1
v -0.9 0 1
v -0.9 0.1 1
v -0.9 0.2 1
v -0.8 0.2 1
v -0.8 0.3 1
v -0.7 0.2 1
v -0.7 0.3 1
v -0.6 0 1
v -0.6 0.1 1
v -0.6 0.2 1
v -0.2 0 1
v -0.2 0.1 1
v -0.2 0.2 1
v 0.1 0.1 1
v 0.1 0.2 1
v 0.1 0.3 1
v 0.2 0.3 1
v 0.2 0.4 1
v 0.3 0.3 1
v 0.3 0.4 1
v 0.4 0 1
v 0.4 0.2 1
v 0.4 0.3 1
v -0.6 0 0.9
v -0.6 0.1 0.9
v -0.6 0.2 0.9
v -0.3 0 0.9
v -0.3 0.1 0.9
v -0.3 0.2 0.9
v -0.2 0.2 0.9
v -0.2 0.3 0.9
v 0.1 0.2 0.9
v 0.1 0.3 0.9
v 0.6 0 0.9
v 0.6 0.1 0.9
v 0.6 0.2 0.9
v 0.7 0.2 0.9
v 0.7 0.3 0.9
v 0.8 0.2 0.9
v 0.8 0.3 0.9
v 0.9 0 0.9
v 0.9 0.1 0.9
v 0.9 0.2 0.9
v -0.7 0.2 0.8
v -0.7 0.3 0.8
v -0.4 0.2 0.8
v -0.4 0.3 0.8
v 0.6 0.2 0.8
v 0.6 0.3 0.8
v 0.7 0.2 0.8
v 0.7 0.3 0.8
v 0.8 0.2 0.7
v 0.8 0.3 0.7
v 0.9 0.2 0.7
v 0.9 0.3 0.7
v -0.8 0 0.5
v -0.8 0.1 0.5
v -0.8 0.2 0.5
v -0.7 0.2 0.5
v -0.7 0.3 0.5
v -0.6 0.2 0.5
v -0.6 0.3 0.5
v -0.2 0 0.5
v -0.2 0.1 0.5
v -0.2 0.2 0.5
v -0.8 0.2 0.4
v -0.8 0.3 0.4
v -0.7 0.2 0.4
v -0.7 0.3 0.4
v -0.6 0.2 0.4
v -0.6 0.3 0.4
v -0.2 0.2 0.4
v -0.2 0.3 0.4
v 1.19209e-07 0 0.4
v 1.19209e-07 0.1 0.4
v 1.19209e-07 0.2 0.4
v 0.1 0.2 0.4
v 0.1 0.3 0.4
v 0.2 0.2 0.4
v 0.2 0.3 0.4
v 0.3 0 0.4
v 0.3 0.1 0.4
v 0.3 0.2 0.4
v 0.6 0 0.3
v 0.6 0.1 0.3
v 0.6 0.2 0.3
v 0.7 0.2 0.3
v 0.7 0.3 0.3
v 0.8 0.2 0.3
v 0.8 0.3 0.3
v 0.9 0 0.3
v 0.9 0.1 0.3
v 0.9 0.2 0.3
v 0.4 0 -1.19209e-07
v 0.4 0.1 -1.19209e-07
v 0.4 0.2 -1.19209e-07
v 0.6 0 -1.19209e-07
v 0.6 0.1 -1.19209e-07
v 0.6 0.2 -1.19209e-07
v -0.9 0 -0.1
v -0.9 0.1 -0.1
v -0.9 0.2 -0.1
v -0.8 0.2 -0.1
v -0.8 0.3 -0.1
v -0.7 0.2 -0.1
v -0.7 0.3 -0.1
v -0.6 0 -0.1
v -0.6 0.1 -0.1
v -0.6 0.2 -0.1
v 0.4 0.2 -0.1
v 0.4 0.3 -0.1
v 0.7 0.2 -0.1
v 0.7 0.3 -0.1
v -1 0 -0.5
v -1 0.4 -0.5
v -0.9 0 -0.5
v -0.9 0.2 -0.5
v -0.9 0.3 -0.5
v -0.9 0.4 -0.5
v -0.6 0 -0.5
v -0.6 0.2 -0.5
v -0.6 0.3 -0.5
v -0.6 0.4 -0.5
v -0.5 0.1 -0.5
v -0.5 0.4 -0.5
v 0.5 0.1 -0.5
v 0.5 0.4 -0.5
v 0.6 0 -0.5
v 0.6 0.2 -0.5
v 0.6 0.3 -0.5
v 0.6 0.4 -0.5
v 0.9 0 -0.5
v 0.9 0.2 -0.5
v 0.9 0.3 -0.5
v 0.9 0.4 -0.5
v 1 0 -0.5
v 1 0.4 -0.5
v -0.9 0 -0.6
v -0.9 0.1 -0.6
v -0.6 0 -0.6
v -0.6 0.1 -0.6
v 0.6 0 -0.6
v 0.6 0.1 -0.6
v 0.9 0 -0.6
v 0.9 0.1 -0.6
v -1 0 -0.9
v -1 0.2 -0.9
v -1 0.3 -0.9
v -1 0.4 -0.9
v -0.9 0 -0.9
v -0.9 0.1 -0.9
v -0.9 0.2 -0.9
v -0.9 0.3 -0.9
v -0.9 0.4 -0.9
v -0.6 0.1 -0.9
v -0.6 0.2 -0.9
v -0.6 0.3 -0.9
v -0.6 0.4 -0.9
v -0.5 0.1 -0.9
v -0.5 0.2 -0.9
v -0.5 0.3 -0.9
v -0.5 0.4 -0.9
v 0.5 0.1 -0.9
v 0.5 0.2 -0.9
v 0.5 0.3 -0.9
v 0.5 0.4 -0.9
v 0.6 0.1 -0.9
v 0.6 0.2 -0.9
v 0.6 0.3 -0.9
v 0.6 0.4 -0.9
v 0.9 0 -0.9
v 0.9 0.1 -0.9
v 0.9 0.2 -0.9
v 0.9 0.3 -0.9
v 0.9 0.4 -0.9
v 1 0 -0.9
v 1 0.2 -0.9
v 1 0.3 -0.9
v 1 0.4 -0.9
v -0.2 0.2 0.8
v -0.2 0.3 0.8
v 0.1 0.2 0.8
v 0.1 0.3 0.8
v -0.7 0.2 0.7
v -0.7 0.3 0.7
v -0.4 0.2 0.7
v -0.4 0.3 0.7
v -0.2 0 0.7
v -0.2 0.1 0.7
v -0.2 0.2 0.7
v 0.1 0 0.7
v 0.1 0.1 0.7
v 0.1 0.2 0.7
v 0.6 0.2 0.7
v 0.6 0.3 0.7
v 0.7 0.2 0.7
v 0.7 0.3 0.7
v -0.9 0 0.6
v -0.9 0.1 0.6
v -0.9 0.2 0.6
v -0.8 0.2 0.6
v -0.8 0.3 0.6
v -0.7 0.2 0.6
v -0.7 0.3 0.6
v -0.3 0 0.6
v -0.3 0.1 0.6
v -0.3 0.2 0.6
v 0.8 0.2 0.6
v 0.8 0.3 0.6
v 0.9 0.2 0.6
v 0.9 0.3 0.6
v 0.1 0 0.5
v 0.1 0.2 0.5
v 0.1 0.3 0.5
v 0.2 0.3 0.5
v 0.2 0.4 0.5
v 0.3 0.3 0.5
v 0.3 0.4 0.5
v 0.4 0 0.5
v 0.4 0.2 0.5
v 0.4 0.3 0.5
v 0.6 0 0.5
v 0.6 0.1 0.5
v 0.6 0.2 0.5
v 0.7 0.2 0.5
v 0.7 0.3 0.5
v 0.8 0.2 0.5
v 0.8 0.3 0.5
v 0.9 0 0.5
v 0.9 0.1 0.5
v 0.9 0.2 0.5
v -0.8 0.2 0.3
v -0.8 0.3 0.3
v -0.7 0.2 0.3
v -0.7 0.3 0.3
v -0.6 0.2 0.3
v -0.6 0.3 0.3
v -0.2 0.2 0.3
v -0.2 0.3 0.3
v -0.5 0 0.2
v -0.5 0.1 0.2
v -0.5 0.2 0.2
v -0.2 0 0.2
v -0.2 0.1 0.2
v -0.2 0.2 0.2
v 1.19209e-07 0 0.0999999
v 1.19209e-07 0.1 0.0999999
v 1.19209e-07 0.2 0.0999999
v 0.1 0.2 0.0999999
v 0.1 0.3 0.0999999
v 0.2 0.2 0.0999999
v 0.2 0.3 0.0999999
v 0.3 0 0.0999999
v 0.3 0.1 0.0999999
v 0.3 0.2 0.0999999
v -0.8 0 -1.19209e-07
v -0.8 0.1 -1.19209e-07
v -0.8 0.2 -1.19209e-07
v -0.7 0.2 -1.19209e-07
v -0.7 0.3 -1.19209e-07
v -0.6 0.2 -1.19209e-07
v -0.6 0.3 -1.19209e-07
v -0.5 0 -1.19209e-07
v -0.5 0.1 -1.19209e-07
v -0.5 0.2 -1.19209e-07
v 0.4 0.2 -0.2
v 0.4 0.3 -0.2
v 0.7 0.2 -0.2
v 0.7 0.3 -0.2
v 0.4 0 -0.3
v 0.4 0.1 -0.3
v 0.4 0.2 -0.3
v 0.7 0.2 -0.3
v 0.7 0.3 -0.3
v 0.8 0.2 -0.3
v 0.8 0.3 -0.3
v 0.9 0 -0.3
v 0.9 0.1 -0.3
v 0.9 0.2 -0.3
v -0.9 0 -0.4
v -0.9 0.1 -0.4
v -0.9 0.2 -0.4
v -0.8 0.2 -0.4
v -0.8 0.3 -0.4
v -0.7 0.2 -0.4
v -0.7 0.3 -0.4
v -0.6 0 -0.4
v -0.6 0.1 -0.4
v -0.6 0.2 -0.4
v -1 0 -0.6
v -1 0.2 -0.6
v -1 0.3 -0.6
v -1 0.4 -0.6
v -0.9 0 -0.6
v -0.9 0.1 -0.6
v -0.9 0.2 -0.6
v -0.9 0.3 -0.6
v -0.9 0.4 -0.6
v -0.6 0.1 -0.6
v -0.6 0.2 -0.6
v -0.6 0.3 -0.6
v -0.6 0.4 -0.6
v -0.5 0.1 -0.6
v -0.5 0.2 -0.6
v -0.5 0.3 -0.6
v -0.5 0.4 -0.6
v 0.5 0.1 -0.6
v 0.5 0.2 -0.6
v 0.5 0.3 -0.6
v 0.5 0.4 -0.6
v 0.6 0.1 -0.6
v 0.6 0.2 -0.6
v 0.6 0.3 -0.6
v 0.6 0.4 -0.6
v 0.9 0 -0.6
v 0.9 0.1 -0.6
v 0.9 0.2 -0.6
v 0.9 0.3 -0.6
v 0.9 0.4 -0.6
v 1 0 -0.6
v 1 0.2 -0.6
v 1 0.3 -0.6
v 1 0.4 -0.6
v -0.9 0 -0.9
v -0.9 0.1 -0.9
v -0.6 0 -0.9
v -0.6 0.1 -0.9
v 0.6 0 -0.9
v 0.6 0.1 -0.9
v 0.9 0 -0.9
v 0.9 0.1 -0.9
v -1 0 -1
v -1 0.4 -1
v -0.9 0 -1
v -0.9 0.2 -1
v -0.9 0.3 -1
v -0.9 0.4 -1
v -0.6 0 -1
v -0.6 0.2 -1
v -0.6 0.3 -1
v -0.6 0.4 -1
v -0.5 0.1 -1
v -0.5 0.4 -1
v 0.5 0.1 -1
v 0.5 0.4 -1
v 0.6 0 -1
v 0.6 0.2 -1
v 0.6 0.3 -1
v 0.6 0.4 -1
v 0.9 0 -1
v 0.9 0.2 -1
v 0.9 0.3 -1
v 0.9 0.4 -1
v 1 0 -1
v 1 0.4 -1
v -0.9 0 1
v -0.6 0 1
v -0.2 0 1
v 0.4 0 1
v -0.6 0 0.9
v -0.3 0 0.9
v 0.6 0 0.9
v 0.9 0 0.9
v -0.2 0 0.7
v 0.1 0 0.7
v -0.9 0 0.6
v -0.3 0 0.6
v -0.8 0 0.5
v -0.2 0 0.5
v 0.1 0 0.5
v 0.4 0 0.5
v 0.6 0 0.5
v 0.9 0 0.5
v 1.19209e-07 0 0.4
v 0.3 0 0.4
v 0.6 0 0.3
v 0.9 0 0.3
v -0.5 0 0.2
v -0.2 0 0.2
v 1.19209e-07 0 0.0999999
v 0.3 0 0.0999999
v -0.8 0 -1.19209e-07
v -0.5 0 -1.19209e-07
v 0.4 0 -1.19209e-07
v 0.6 0 -1.19209e-07
v -0.9 0 -0.1
v -0.6 0 -0.1
v 0.4 0 -0.3
v 0.9 0 -0.3
v -0.9 0 -0.4
v -0.6 0 -0.4
v -1 0 -0.5
v -0.9 0 -0.5
v -0.6 0 -0.5
v 0.6 0 -0.5
v 0.9 0 -0.5
v 1 0 -0.5
v -1 0 -0.6
v -0.9 0 -0.6
v -0.6 0 -0.6
v 0.6 0 -0.6
v 0.9 0 -0.6
v 1 0 -0.6
v -1 0 -0.9
v -0.9 0 -0.9
v -0.6 0 -0.9
v 0.6 0 -0.9
v 0.9 0 -0.9
v 1 0 -0.9
v -1 0 -1
v -0.9 0 -1
v -0.6 0 -1
v 0.6 0 -1
v 0.9 0 -1
v 1 0 -1
v -0.9 0.2 -0.5
v -0.6 0.2 -0.5
v 0.6 0.2 -0.5
v 0.9 0.2 -0.5
v -1 0.2 -0.6
v -0.9 0.2 -0.6
v -0.6 0.2 -0.6
v -0.5 0.2 -0.6
v 0.5 0.2 -0.6
v 0.6 0.2 -0.6
v 0.9 0.2 -0.6
v 1 0.2 -0.6
v -1 0.2 -0.9
v -0.9 0.2 -0.9
v -0.6 0.2 -0.9
v -0.5 0.2 -0.9
v 0.5 0.2 -0.9
v 0.6 0.2 -0.9
v 0.9 0.2 -0.9
v 1 0.2 -0.9
v -0.9 0.2 -1
v -0.6 0.2 -1
v 0.6 0.2 -1
v 0.9 0.2 -1
v -0.5 0.1 -0.5
v 0.5 0.1 -0.5
v -0.9 0.1 -0.6
v -0.6 0.1 -0.6
v -0.5 0.1 -0.6
v 0.5 0.1 -0.6
v 0.6 0.1 -0.6
v 0.9 0.1 -0.6
v -0.9 0.1 -0.9
v -0.6 0.1 -0.9
v -0.5 0.1 -0.9
v 0.5 0.1 -0.9
v 0.6 0.1 -0.9
v 0.9 0.1 -0.9
v -0.5 0.1 -1
v 0.5 0.1 -1
v -0.9 0.2 1
v -0.8 0.2 1
v -0.7 0.2 1
v -0.6 0.2 1
v -0.2 0.2 1
v 0.1 0.2 1
v -0.6 0.2 0.9
v -0.3 0.2 0.9
v -0.2 0.2 0.9
v 0.1 0.2 0.9
v 0.6 0.2 0.9
v 0.7 0.2 0.9
v 0.8 0.2 0.9
v 0.9 0.2 0.9
v -0.7 0.2 0.8
v -0.4 0.2 0.8
v -0.2 0.2 0.8
v 0.1 0.2 0.8
v 0.6 0.2 0.8
v 0.7 0.2 0.8
v -0.7 0.2 0.7
v -0.4 0.2 0.7
v -0.2 0.2 0.7
v 0.1 0.2 0.7
v 0.6 0.2 0.7
v 0.7 0.2 0.7
v 0.8 0.2 0.7
v 0.9 0.2 0.7
v -0.9 0.2 0.6
v -0.8 0.2 0.6
v -0.7 0.2 0.6
v -0.3 0.2 0.6
v 0.8 0.2 0.6
v 0.9 0.2 0.6
v -0.8 0.2 0.5
v -0.7 0.2 0.5
v -0.6 0.2 0.5
v -0.2 0.2 0.5
v 0.6 0.2 0.5
v 0.7 0.2 0.5
v 0.8 0.2 0.5
v 0.9 0.2 0.5
v -0.8 0.2 0.4
v -0.7 0.2 0.4
v -0.6 0.2 0.4
v -0.2 0.2 0.4
v 1.19209e-07 0.2 0.4
v 0.1 0.2 0.4
v 0.2 0.2 0.4
v 0.3 0.2 0.4
v -0.8 0.2 0.3
v -0.7 0.2 0.3
v -0.6 0.2 0.3
v -0.2 0.2 0.3
v 0.6 0.2 0.3
v 0.7 0.2 0.3
v 0.8 0.2 0.3
v 0.9 0.2 0.3
v -0.5 0.2 0.2
v -0.2 0.2 0.2
v 1.19209e-07 0.2 0.0999999
v 0.1 0.2 0.0999999
v 0.2 0.2 0.0999999
v 0.3 0.2 0.0999999
v -0.8 0.2 -1.19209e-07
v -0.7 0.2 -1.19209e-07
v -0.6 0.2 -1.19209e-07
v -0.5 0.2 -1.19209e-07
v 0.4 0.2 -1.19209e-07
v 0.6 0.2 -1.19209e-07
v -0.9 0.2 -0.1
v -0.8 0.2 -0.1
v -0.7 0.2 -0.1
v -0.6 0.2 -0.1
v 0.4 0.2 -0.1
v 0.7 0.2 -0.1
v 0.4 0.2 -0.2
v 0.7 0.2 -0.2
v 0.4 0.2 -0.3
v 0.7 0.2 -0.3
v 0.8 0.2 -0.3
v 0.9 0.2 -0.3
v -0.9 0.2 -0.4
v -0.8 0.2 -0.4
v -0.7 0.2 -0.4
v -0.6 0.2 -0.4
v -0.8 0.3 1
v -0.7 0.3 1
v 0.1 0.3 1
v 0.2 0.3 1
v 0.3 0.3 1
v 0.4 0.3 1
v -0.2 0.3 0.9
v 0.1 0.3 0.9
v 0.7 0.3 0.9
v 0.8 0.3 0.9
v -0.7 0.3 0.8
v -0.4 0.3 0.8
v -0.2 0.3 0.8
v 0.1 0.3 0.8
v 0.6 0.3 0.8
v 0.7 0.3 0.8
v -0.7 0.3 0.7
v -0.4 0.3 0.7
v 0.6 0.3 0.7
v 0.7 0.3 0.7
v 0.8 0.3 0.7
v 0.9 0.3 0.7
v -0.8 0.3 0.6
v -0.7 0.3 0.6
v 0.8 0.3 0.6
v 0.9 0.3 0.6
v -0.7 0.3 0.5
v -0.6 0.3 0.5
v 0.1 0.3 0.5
v 0.2 0.3 0.5
v 0.3 0.3 0.5
v 0.4 0.3 0.5
v 0.7 0.3 0.5
v 0.8 0.3 0.5
v -0.8 0.3 0.4
v -0.7 0.3 0.4
v -0.6 0.3 0.4
v -0.2 0.3 0.4
v 0.1 0.3 0.4
v 0.2 0.3 0.4
v -0.8 0.3 0.3
v -0.7 0.3 0.3
v -0.6 0.3 0.3
v -0.2 0.3 0.3
v 0.7 0.3 0.3
v 0.8 0.3 0.3
v 0.1 0.3 0.0999999
v 0.2 0.3 0.0999999
v -0.7 0.3 -1.19209e-07
v -0.6 0.3 -1.19209e-07
v -0.8 0.3 -0.1
v -0.7 0.3 -0.1
v 0.4 0.3 -0.1
v 0.7 0.3 -0.1
v 0.4 0.3 -0.2
v 0.7 0.3 -0.2
v 0.7 0.3 -0.3
v 0.8 0.3 -0.3
v -0.8 0.3 -0.4
v -0.7 0.3 -0.4
v -0.9 0.3 -0.5
v -0.6 0.3 -0.5
v 0.6 0.3 -0.5
v 0.9 0.3 -0.5
v -1 0.3 -0.6
v -0.9 0.3 -0.6
v -0.6 0.3 -0.6
v -0.5 0.3 -0.6
v 0.5 0.3 -0.6
v 0.6 0.3 -0.6
v 0.9 0.3 -0.6
v 1 0.3 -0.6
v -1 0.3 -0.9
v -0.9 0.3 -0.9
v -0.6 0.3 -0.9
v -0.5 0.3 -0.9
v 0.5 0.3 -0.9
v 0.6 0.3 -0.9
v 0.9 0.3 -0.9
v 1 0.3 -0.9
v -0.9 0.3 -1
v -0.6 0.3 -1
v 0.6 0.3 -1
v 0.9 0.3 -1
v 0.2 0.4 1
v 0.3 0.4 1
v 0.2 0.4 0.5
v 0.3 0.4 0.5
v -1 0.4 -0.5
v -0.9 0.4 -0.5
v -0.6 0.4 -0.5
v -0.5 0.4 -0.5
v 0.5 0.4 -0.5
v 0.6 0.4 -0.5
v 0.9 0.4 -0.5
v 1 0.4 -0.5
v -1 0.4 -0.6
v -0.9 0.4 -0.6
v -0.6 0.4 -0.6
v -0.5 0.4 -0.6
v 0.5 0.4 -0.6
v 0.6 0.4 -0.6
v 0.9 0.4 -0.6
v 1 0.4 -0.6
v -1 0.4 -0.9
v -0.9 0.4 -0.9
v -0.6 0.4 -0.9
v -0.5 0.4 -0.9
v 0.5 0.4 -0.9
v 0.6 0.4 -0.9
v 0.9 0.4 -0.9
v 1 0.4 -0.9
v -1 0.4 -1
v -0.9 0.4 -1
v -0.6 0.4 -1
v -0.5 0.4 -1
v 0.5 0.4 -1
v 0.6 0.4 -1
v 0.9 0.4 -1
v 1 0.4 -1

# faces
f 5/2/1 2/2/1 1/2/1
f 6/2/1 4/2/1 3/2/1
f 7/2/1 5/2/1 1/2/1
f 7/2/1 6/2/1 5/2/1
f 8/2/1 4/2/1 6/2/1
f 8/2/1 6/2/1 7/2/1
f 9/2/1 7/2/1 1/2/1
f 10/2/1 7/2/1 9/2/1
f 11/2/1 4/2/1 8/2/1
f 12/2/1 4/2/1 11/2/1
f 19/2/1 14/2/1 13/2/1
f 20/2/1 14/2/1 19/2/1
f 21/2/1 16/2/1 15/2/1
f 22/2/1 16/2/1 21/2/1
f 23/1/1 18/1/1 17/1/1
f 24/1/1 18/1/1 23/1/1
f 25/3/1 20/3/1 19/3/1
f 26/3/1 20/3/1 25/3/1
f 27/3/1 22/3/1 21/3/1
f 28/3/1 22/3/1 27/3/1
f 31/2/1 30/2/1 29/2/1
f 32/2/1 30/2/1 31/2/1
f 35/3/1 32/3/1 31/3/1
f 36/3/1 32/3/1 35/3/1
f 37/3/1 32/3/1 36/3/1
f 38/3/1 32/3/1 37/3/1
f 41/3/1 34/3/1 33/3/1
f 42/3/1 34/3/1 41/3/1
f 43/3/1 37/3/1 36/3/1
f 44/3/1 37/3/1 43/3/1
f 45/3/1 40/3/1 39/3/1
f 46/3/1 40/3/1 45/3/1
f 51/3/1 48/3/1 47/3/1
f 52/3/1 48/3/1 51/3/1
f 53/3/1 50/3/1 49/3/1
f 54/3/1 50/3/1 53/3/1
f 59/2/1 56/2/1 55/2/1
f 60/2/1 58/2/1 57/2/1
f 61/2/1 59/2/1 55/2/1
f 62/2/1 59/2/1 61/2/1
f 63/2/1 58/2/1 60/2/1
f 64/2/1 58/2/1 63/2/1
f 66/2/1 63/2/1 62/2/1
f 67/2/1 63/2/1 66/2/1
f 69/2/1 66/2/1 65/2/1
f 70/2/1 66/2/1 69/2/1
f 71/2/1 68/2/1 67/2/1
f 72/2/1 68/2/1 71/2/1
f 75/2/1 74/2/1 73/2/1
f 76/2/1 74/2/1 75/2/1
f 77/3/1 76/3/1 75/3/1
f 78/3/1 76/3/1 77/3/1
f 79/3/1 76/3/1 78/3/1
f 80/3/1 76/3/1 79/3/1
f 81/3/1 79/3/1 78/3/1
f 82/3/1 79/3/1 81/3/1
f 85/2/1 84/2/1 83/2/1
f 86/2/1 84/2/1 85/2/1
f 87/3/1 86/3/1 85/3/1
f 88/3/1 86/3/1 87/3/1
f 91/2/1 90/2/1 89/2/1
f 95/2/1 90/2/1 91/2/1
f 96/2/1 90/2/1 95/2/1
f 99/3/1 93/3/1 92/3/1
f 100/3/1 93/3/1 99/3/1
f 101/3/1 95/3/1 94/3/1
f 101/3/1 96/3/1 95/3/1
f 102/3/1 96/3/1 101/3/1
f 103/3/1 98/3/1 97/3/1
f 104/3/1 98/3/1 103/3/1
f 107/3/1 106/3/1 105/3/1
f 108/3/1 106/3/1 107/3/1
f 111/2/1 110/2/1 109/2/1
f 112/2/1 110/2/1 111/2/1
f 113/3/1 112/3/1 111/3/1
f 114/3/1 112/3/1 113/3/1
f 115/3/1 112/3/1 114/3/1
f 116/3/1 112/3/1 115/3/1
f 117/3/1 115/3/1 114/3/1
f 118/3/1 115/3/1 117/3/1
f 123/2/1 120/2/1 119/2/1
f 124/2/1 122/2/1 121/2/1
f 125/2/1 123/2/1 119/2/1
f 125/2/1 124/2/1 123/2/1
f 126/2/1 122/2/1 124/2/1
f 126/2/1 124/2/1 125/2/1
f 127/2/1 125/2/1 119/2/1
f 128/2/1 125/2/1 127/2/1
f 129/2/1 122/2/1 126/2/1
f 130/2/1 122/2/1 129/2/1
f 135/2/1 132/2/1 131/2/1
f 136/2/1 132/2/1 135/2/1
f 137/2/1 134/2/1 133/2/1
f 138/2/1 134/2/1 137/2/1
f 139/3/1 136/3/1 135/3/1
f 140/3/1 136/3/1 139/3/1
f 141/3/1 136/3/1 140/3/1
f 142/3/1 136/3/1 141/3/1
f 143/3/1 138/3/1 137/3/1
f 144/3/1 138/3/1 143/3/1
f 145/3/1 141/3/1 140/3/1
f 146/3/1 141/3/1 145/3/1
f 155/3/1 148/3/1 147/3/1
f 156/3/1 148/3/1 155/3/1
f 157/3/1 150/3/1 149/3/1
f 158/3/1 150/3/1 157/3/1
f 159/3/1 152/3/1 151/3/1
f 160/3/1 152/3/1 159/3/1
f 161/3/1 154/3/1 153/3/1
f 162/3/1 154/3/1 161/3/1
f 167/2/1 164/2/1 163/2/1
f 168/2/1 166/2/1 165/2/1
f 169/2/1 167/2/1 163/2/1
f 170/2/1 167/2/1 169/2/1
f 171/2/1 166/2/1 168/2/1
f 172/2/1 166/2/1 171/2/1
f 174/2/1 171/2/1 170/2/1
f 175/2/1 171/2/1 174/2/1
f 177/2/1 174/2/1 173/2/1
f 178/2/1 174/2/1 177/2/1
f 179/2/1 176/2/1 175/2/1
f 180/2/1 176/2/1 179/2/1
f 181/2/2 182/2/2 185/2/2
f 183/2/2 184/2/2 186/2/2
f 181/2/2 185/2/2 187/2/2
f 187/2/2 185/2/2 188/2/2
f 186/2/2 184/2/2 189/2/2
f 189/2/2 184/2/2 190/2/2
f 188/2/2 189/2/2 192/2/2
f 192/2/2 189/2/2 193/2/2
f 191/2/2 192/2/2 195/2/2
f 195/2/2 192/2/2 196/2/2
f 193/2/2 194/2/2 197/2/2
f 197/2/2 194/2/2 198/2/2
f 199/3/2 200/3/2 205/3/2
f 205/3/2 200/3/2 206/3/2
f 201/3/2 202/3/2 207/3/2
f 207/3/2 202/3/2 208/3/2
f 203/3/2 204/3/2 209/3/2
f 209/3/2 204/3/2 210/3/2
f 211/2/2 212/2/2 215/2/2
f 215/2/2 212/2/2 216/2/2
f 213/2/2 214/2/2 217/2/2
f 217/2/2 214/2/2 218/2/2
f 215/3/2 216/3/2 219/3/2
f 219/3/2 216/3/2 220/3/2
f 217/3/2 218/3/2 225/3/2
f 225/3/2 218/3/2 226/3/2
f 221/3/2 222/3/2 227/3/2
f 227/3/2 222/3/2 228/3/2
f 223/3/2 224/3/2 229/3/2
f 229/3/2 224/3/2 230/3/2
f 231/2/2 232/2/2 233/2/2
f 233/2/2 232/2/2 234/2/2
f 233/3/2 234/3/2 239/3/2
f 239/3/2 234/3/2 240/3/2
f 235/2/2 236/2/2 241/2/2
f 237/2/2 238/2/2 242/2/2
f 235/2/2 241/2/2 243/2/2
f 241/2/2 242/2/2 243/2/2
f 242/2/2 238/2/2 244/2/2
f 243/2/2 242/2/2 244/2/2
f 235/2/2 243/2/2 245/2/2
f 245/2/2 243/2/2 246/2/2
f 244/2/2 238/2/2 247/2/2
f 247/2/2 238/2/2 248/2/2
f 249/3/2 250/3/2 251/3/2
f 251/3/2 250/3/2 252/3/2
f 253/2/2 254/2/2 255/2/2
f 255/2/2 254/2/2 256/2/2
f 255/3/2 256/3/2 257/3/2
f 257/3/2 256/3/2 258/3/2
f 259/2/2 260/2/2 261/2/2
f 261/2/2 260/2/2 262/2/2
f 261/3/2 262/3/2 263/3/2
f 263/3/2 262/3/2 264/3/2
f 264/3/2 262/3/2 265/3/2
f 265/3/2 262/3/2 266/3/2
f 264/3/2 265/3/2 267/3/2
f 267/3/2 265/3/2 268/3/2
f 269/3/2 270/3/2 271/3/2
f 271/3/2 270/3/2 272/3/2
f 273/2/2 274/2/2 275/2/2
f 275/2/2 274/2/2 276/2/2
f 275/3/2 276/3/2 277/3/2
f 277/3/2 276/3/2 278/3/2
f 279/3/2 280/3/2 281/3/2
f 281/3/2 280/3/2 282/3/2
f 283/2/2 284/2/2 285/2/2
f 285/2/2 284/2/2 286/2/2
f 285/3/2 286/3/2 287/3/2
f 287/3/2 286/3/2 288/3/2
f 289/2/2 290/2/2 293/2/2
f 291/2/2 292/2/2 294/2/2
f 289/2/2 293/2/2 295/2/2
f 295/2/2 293/2/2 296/2/2
f 294/2/2 292/2/2 297/2/2
f 297/2/2 292/2/2 298/2/2
f 296/2/2 297/2/2 300/2/2
f 300/2/2 297/2/2 301/2/2
f 299/2/2 300/2/2 303/2/2
f 303/2/2 300/2/2 304/2/2
f 301/2/2 302/2/2 305/2/2
f 305/2/2 302/2/2 306/2/2
f 307/3/2 308/3/2 313/3/2
f 313/3/2 308/3/2 314/3/2
f 309/3/2 310/3/2 315/3/2
f 315/3/2 310/3/2 316/3/2
f 311/3/2 312/3/2 317/3/2
f 317/3/2 312/3/2 318/3/2
f 319/2/2 320/2/2 325/2/2
f 325/2/2 320/2/2 326/2/2
f 321/2/2 322/2/2 327/2/2
f 327/2/2 322/2/2 328/2/2
f 323/1/2 324/1/2 329/1/2
f 329/1/2 324/1/2 330/1/2
f 325/3/2 326/3/2 331/3/2
f 331/3/2 326/3/2 332/3/2
f 332/3/2 326/3/2 333/3/2
f 333/3/2 326/3/2 334/3/2
f 327/3/2 328/3/2 335/3/2
f 335/3/2 328/3/2 336/3/2
f 332/3/2 333/3/2 337/3/2
f 337/3/2 333/3/2 338/3/2
f 339/2/2 340/2/2 343/2/2
f 341/2/2 342/2/2 344/2/2
f 339/2/2 343/2/2 345/2/2
f 343/2/2 344/2/2 345/2/2
f 344/2/2 342/2/2 346/2/2
f 345/2/2 344/2/2 346/2/2
f 339/2/2 345/2/2 347/2/2
f 347/2/2 345/2/2 348/2/2
f 346/2/2 342/2/2 349/2/2
f 349/2/2 342/2/2 350/2/2
f 354/3/3 353/3/3 352/3/3
f 356/3/3 354/3/3 352/3/3
f 356/3/3 355/3/3 354/3/3
f 357/3/3 355/3/3 356/3/3
f 358/2/3 352/2/3 351/2/3
f 359/3/3 356/3/3 352/3/3
f 359/2/3 352/2/3 358/2/3
f 360/3/3 356/3/3 359/3/3
f 364/2/3 362/2/3 361/2/3
f 364/3/3 363/3/3 362/3/3
f 365/3/3 363/3/3 364/3/3
f 367/3/3 366/3/3 365/3/3
f 369/3/3 367/3/3 365/3/3
f 369/3/3 368/3/3 367/3/3
f 370/3/3 368/3/3 369/3/3
f 371/2/3 364/2/3 361/2/3
f 371/2/3 365/2/3 364/2/3
f 372/3/3 369/3/3 365/3/3
f 372/2/3 365/2/3 371/2/3
f 373/3/3 369/3/3 372/3/3
f 377/2/3 375/2/3 374/2/3
f 378/3/3 376/3/3 375/3/3
f 378/2/3 375/2/3 377/2/3
f 379/3/3 376/3/3 378/3/3
f 382/3/3 381/3/3 380/3/3
f 383/3/3 381/3/3 382/3/3
f 387/3/3 386/3/3 385/3/3
f 389/3/3 387/3/3 385/3/3
f 389/3/3 388/3/3 387/3/3
f 390/3/3 388/3/3 389/3/3
f 391/2/3 385/2/3 384/2/3
f 392/3/3 389/3/3 385/3/3
f 392/2/3 385/2/3 391/2/3
f 393/3/3 389/3/3 392/3/3
f 396/3/3 395/3/3 394/3/3
f 397/3/3 395/3/3 396/3/3
f 400/3/3 399/3/3 398/3/3
f 401/3/3 399/3/3 400/3/3
f 404/3/3 403/3/3 402/3/3
f 405/3/3 403/3/3 404/3/3
f 409/3/3 408/3/3 407/3/3
f 411/3/3 409/3/3 407/3/3
f 411/3/3 410/3/3 409/3/3
f 412/3/3 410/3/3 411/3/3
f 413/2/3 407/2/3 406/2/3
f 414/3/3 411/3/3 407/3/3
f 414/2/3 407/2/3 413/2/3
f 415/3/3 411/3/3 414/3/3
f 418/3/3 417/3/3 416/3/3
f 419/3/3 417/3/3 418/3/3
f 422/3/3 421/3/3 420/3/3
f 423/3/3 421/3/3 422/3/3
f 427/3/3 426/3/3 425/3/3
f 429/3/3 427/3/3 425/3/3
f 429/3/3 428/3/3 427/3/3
f 430/3/3 428/3/3 429/3/3
f 431/2/3 425/2/3 424/2/3
f 432/3/3 429/3/3 425/3/3
f 432/2/3 425/2/3 431/2/3
f 433/3/3 429/3/3 432/3/3
f 437/3/3 436/3/3 435/3/3
f 439/3/3 437/3/3 435/3/3
f 439/3/3 438/3/3 437/3/3
f 440/3/3 438/3/3 439/3/3
f 441/2/3 435/2/3 434/2/3
f 442/3/3 439/3/3 435/3/3
f 442/2/3 435/2/3 441/2/3
f 443/3/3 439/3/3 442/3/3
f 447/2/3 445/2/3 444/2/3
f 448/3/3 446/3/3 445/3/3
f 448/2/3 445/2/3 447/2/3
f 449/3/3 446/3/3 448/3/3
f 453/3/3 452/3/3 451/3/3
f 455/3/3 453/3/3 451/3/3
f 455/3/3 454/3/3 453/3/3
f 456/3/3 454/3/3 455/3/3
f 457/2/3 451/2/3 450/2/3
f 458/3/3 455/3/3 451/3/3
f 458/2/3 451/2/3 457/2/3
f 459/3/3 455/3/3 458/3/3
f 462/3/3 461/3/3 460/3/3
f 463/3/3 461/3/3 462/3/3
f 466/2/3 465/2/3 464/2/3
f 467/2/3 465/2/3 466/2/3
f 468/2/3 465/2/3 467/2/3
f 469/2/3 465/2/3 468/2/3
f 471/2/3 468/2/3 467/2/3
f 472/2/3 468/2/3 471/2/3
f 474/2/3 471/2/3 470/2/3
f 474/2/3 473/2/3 472/2/3
f 474/2/3 472/2/3 471/2/3
f 475/2/3 473/2/3 474/2/3
f 476/2/3 474/2/3 470/2/3
f 478/2/3 476/2/3 470/2/3
f 478/2/3 477/2/3 476/2/3
f 479/2/3 477/2/3 478/2/3
f 480/2/3 477/2/3 479/2/3
f 481/2/3 477/2/3 480/2/3
f 483/2/3 480/2/3 479/2/3
f 484/2/3 480/2/3 483/2/3
f 486/2/3 483/2/3 482/2/3
f 486/2/3 485/2/3 484/2/3
f 486/2/3 484/2/3 483/2/3
f 487/2/3 485/2/3 486/2/3
f 490/1/3 489/1/3 488/1/3
f 491/1/3 489/1/3 490/1/3
f 494/1/3 493/1/3 492/1/3
f 495/1/3 493/1/3 494/1/3
f 500/2/3 497/2/3 496/2/3
f 501/2/3 497/2/3 500/2/3
f 502/2/3 497/2/3 501/2/3
f 503/2/3 499/2/3 498/2/3
f 504/2/3 499/2/3 503/2/3
f 506/2/3 503/2/3 502/2/3
f 507/2/3 503/2/3 506/2/3
f 509/2/3 506/2/3 505/2/3
f 510/2/3 506/2/3 509/2/3
f 511/2/3 508/2/3 507/2/3
f 512/2/3 508/2/3 511/2/3
f 517/2/3 514/2/3 513/2/3
f 518/2/3 514/2/3 517/2/3
f 519/2/3 516/2/3 515/2/3
f 520/2/3 516/2/3 519/2/3
f 523/2/3 519/2/3 518/2/3
f 524/2/3 519/2/3 523/2/3
f 526/2/3 522/2/3 521/2/3
f 526/2/3 523/2/3 522/2/3
f 527/2/3 523/2/3 526/2/3
f 528/2/3 525/2/3 524/2/3
f 529/2/3 525/2/3 528/2/3
f 530/3/4 531/3/4 532/3/4
f 532/3/4 531/3/4 533/3/4
f 534/3/4 535/3/4 536/3/4
f 536/3/4 535/3/4 537/3/4
f 538/2/4 539/2/4 541/2/4
f 539/3/4 540/3/4 542/3/4
f 541/2/4 539/2/4 542/2/4
f 542/3/4 540/3/4 543/3/4
f 544/3/4 545/3/4 546/3/4
f 546/3/4 545/3/4 547/3/4
f 549/3/4 550/3/4 551/3/4
f 549/3/4 551/3/4 553/3/4
f 551/3/4 552/3/4 553/3/4
f 553/3/4 552/3/4 554/3/4
f 548/2/4 549/2/4 555/2/4
f 549/3/4 553/3/4 556/3/4
f 555/2/4 549/2/4 556/2/4
f 556/3/4 553/3/4 557/3/4
f 558/3/4 559/3/4 560/3/4
f 560/3/4 559/3/4 561/3/4
f 563/3/4 564/3/4 565/3/4
f 563/3/4 565/3/4 567/3/4
f 565/3/4 566/3/4 567/3/4
f 567/3/4 566/3/4 568/3/4
f 562/2/4 563/2/4 569/2/4
f 563/3/4 567/3/4 570/3/4
f 569/2/4 563/2/4 570/2/4
f 570/3/4 567/3/4 571/3/4
f 573/3/4 574/3/4 575/3/4
f 573/3/4 575/3/4 577/3/4
f 575/3/4 576/3/4 577/3/4
f 577/3/4 576/3/4 578/3/4
f 572/2/4 573/2/4 579/2/4
f 573/3/4 577/3/4 580/3/4
f 579/2/4 573/2/4 580/2/4
f 580/3/4 577/3/4 581/3/4
f 582/3/4 583/3/4 584/3/4
f 584/3/4 583/3/4 585/3/4
f 586/3/4 587/3/4 588/3/4
f 588/3/4 587/3/4 589/3/4
f 590/2/4 591/2/4 593/2/4
f 591/3/4 592/3/4 594/3/4
f 593/2/4 591/2/4 594/2/4
f 594/3/4 592/3/4 595/3/4
f 597/3/4 598/3/4 599/3/4
f 597/3/4 599/3/4 601/3/4
f 599/3/4 600/3/4 601/3/4
f 601/3/4 600/3/4 602/3/4
f 596/2/4 597/2/4 603/2/4
f 597/3/4 601/3/4 604/3/4
f 603/2/4 597/2/4 604/2/4
f 604/3/4 601/3/4 605/3/4
f 607/3/4 608/3/4 609/3/4
f 607/3/4 609/3/4 611/3/4
f 609/3/4 610/3/4 611/3/4
f 611/3/4 610/3/4 612/3/4
f 606/2/4 607/2/4 613/2/4
f 607/3/4 611/3/4 614/3/4
f 613/2/4 607/2/4 614/2/4
f 614/3/4 611/3/4 615/3/4
f 616/3/4 617/3/4 618/3/4
f 618/3/4 617/3/4 619/3/4
f 621/3/4 622/3/4 623/3/4
f 621/3/4 623/3/4 625/3/4
f 623/3/4 624/3/4 625/3/4
f 625/3/4 624/3/4 626/3/4
f 620/2/4 621/2/4 627/2/4
f 621/3/4 625/3/4 628/3/4
f 627/2/4 621/2/4 628/2/4
f 628/3/4 625/3/4 629/3/4
f 631/3/4 632/3/4 633/3/4
f 631/3/4 633/3/4 635/3/4
f 633/3/4 634/3/4 635/3/4
f 635/3/4 634/3/4 636/3/4
f 630/2/4 631/2/4 637/2/4
f 631/3/4 635/3/4 638/3/4
f 637/2/4 631/2/4 638/2/4
f 638/3/4 635/3/4 639/3/4
f 640/2/4 641/2/4 644/2/4
f 644/2/4 641/2/4 645/2/4
f 645/2/4 641/2/4 646/2/4
f 642/2/4 643/2/4 647/2/4
f 647/2/4 643/2/4 648/2/4
f 646/2/4 647/2/4 650/2/4
f 650/2/4 647/2/4 651/2/4
f 649/2/4 650/2/4 653/2/4
f 653/2/4 650/2/4 654/2/4
f 651/2/4 652/2/4 655/2/4
f 655/2/4 652/2/4 656/2/4
f 657/2/4 658/2/4 661/2/4
f 661/2/4 658/2/4 662/2/4
f 659/2/4 660/2/4 663/2/4
f 663/2/4 660/2/4 664/2/4
f 662/2/4 663/2/4 667/2/4
f 667/2/4 663/2/4 668/2/4
f 665/2/4 666/2/4 670/2/4
f 666/2/4 667/2/4 670/2/4
f 670/2/4 667/2/4 671/2/4
f 668/2/4 669/2/4 672/2/4
f 672/2/4 669/2/4 673/2/4
f 674/1/4 675/1/4 676/1/4
f 676/1/4 675/1/4 677/1/4
f 678/1/4 679/1/4 680/1/4
f 680/1/4 679/1/4 681/1/4
f 682/2/4 683/2/4 684/2/4
f 684/2/4 683/2/4 685/2/4
f 685/2/4 683/2/4 686/2/4
f 686/2/4 683/2/4 687/2/4
f 685/2/4 686/2/4 689/2/4
f 689/2/4 686/2/4 690/2/4
f 688/2/4 689/2/4 692/2/4
f 690/2/4 691/2/4 692/2/4
f 689/2/4 690/2/4 692/2/4
f 692/2/4 691/2/4 693/2/4
f 688/2/4 692/2/4 694/2/4
f 688/2/4 694/2/4 696/2/4
f 694/2/4 695/2/4 696/2/4
f 696/2/4 695/2/4 697/2/4
f 697/2/4 695/2/4 698/2/4
f 698/2/4 695/2/4 699/2/4
f 697/2/4 698/2/4 701/2/4
f 701/2/4 698/2/4 702/2/4
f 700/2/4 701/2/4 704/2/4
f 702/2/4 703/2/4 704/2/4
f 701/2/4 702/2/4 704/2/4
f 704/2/4 703/2/4 705/2/4
f 710/2/5 707/2/5 706/2/5
f 714/2/5 709/2/5 708/2/5
f 715/2/5 709/2/5 714/2/5
f 716/2/5 710/2/5 706/2/5
f 716/2/5 711/2/5 710/2/5
f 717/2/5 711/2/5 716/2/5
f 720/2/5 709/2/5 715/2/5
f 721/2/5 709/2/5 720/2/5
f 722/2/5 713/2/5 712/2/5
f 723/2/5 713/2/5 722/2/5
f 728/2/5 719/2/5 718/2/5
f 729/2/5 719/2/5 728/2/5
f 730/2/5 725/2/5 724/2/5
f 731/2/5 725/2/5 730/2/5
f 732/2/5 728/2/5 718/2/5
f 733/2/5 728/2/5 732/2/5
f 735/2/5 727/2/5 726/2/5
f 738/2/5 735/2/5 734/2/5
f 739/2/5 727/2/5 735/2/5
f 739/2/5 735/2/5 738/2/5
f 740/2/5 737/2/5 736/2/5
f 741/2/5 737/2/5 740/2/5
f 748/2/5 743/2/5 742/2/5
f 749/2/5 743/2/5 748/2/5
f 750/2/5 745/2/5 744/2/5
f 751/2/5 745/2/5 750/2/5
f 752/2/5 747/2/5 746/2/5
f 753/2/5 747/2/5 752/2/5
f 755/1/5 751/1/5 750/1/5
f 755/1/5 752/1/5 751/1/5
f 755/1/5 750/1/5 749/1/5
f 756/1/5 752/1/5 755/1/5
f 757/1/5 752/1/5 756/1/5
f 758/1/5 752/1/5 757/1/5
f 760/2/5 755/2/5 754/2/5
f 761/2/5 755/2/5 760/2/5
f 762/2/5 757/2/5 756/2/5
f 763/2/5 757/2/5 762/2/5
f 764/2/5 759/2/5 758/2/5
f 765/2/5 759/2/5 764/2/5
f 771/2/5 767/2/5 766/2/5
f 772/2/5 767/2/5 771/2/5
f 775/2/5 769/2/5 768/2/5
f 776/2/5 769/2/5 775/2/5
f 778/2/5 771/2/5 770/2/5
f 779/2/5 771/2/5 778/2/5
f 780/2/5 773/2/5 772/2/5
f 781/2/5 773/2/5 780/2/5
f 782/2/5 775/2/5 774/2/5
f 783/2/5 775/2/5 782/2/5
f 784/2/5 777/2/5 776/2/5
f 785/2/5 777/2/5 784/2/5
f 786/2/5 780/2/5 779/2/5
f 787/2/5 780/2/5 786/2/5
f 788/2/5 784/2/5 783/2/5
f 789/2/5 784/2/5 788/2/5
f 790/2/6 791/2/6 794/2/6
f 794/2/6 791/2/6 795/2/6
f 792/1/6 793/1/6 798/1/6
f 796/1/6 797/1/6 798/1/6
f 795/1/6 796/1/6 798/1/6
f 794/1/6 795/1/6 798/1/6
f 793/1/6 794/1/6 798/1/6
f 798/1/6 797/1/6 799/1/6
f 799/1/6 797/1/6 800/1/6
f 800/1/6 797/1/6 801/1/6
f 801/1/6 797/1/6 802/1/6
f 802/1/6 797/1/6 803/1/6
f 800/2/6 801/2/6 804/2/6
f 804/2/6 801/2/6 805/2/6
f 808/3/6 809/3/6 812/3/6
f 810/3/6 811/3/6 814/3/6
f 814/3/6 811/3/6 815/3/6
f 812/3/6 813/3/6 820/3/6
f 808/3/6 812/3/6 820/3/6
f 820/3/6 813/3/6 821/3/6
f 816/3/6 817/3/6 824/3/6
f 824/3/6 817/3/6 825/3/6
f 821/3/6 813/3/6 827/3/6
f 822/3/6 823/3/6 828/3/6
f 828/3/6 823/3/6 829/3/6
f 818/3/6 819/3/6 832/3/6
f 832/3/6 819/3/6 833/3/6
f 806/3/6 807/3/6 834/3/6
f 834/3/6 807/3/6 835/3/6
f 826/3/6 827/3/6 836/3/6
f 827/3/6 813/3/6 837/3/6
f 836/3/6 827/3/6 837/3/6
f 830/3/6 831/3/6 844/3/6
f 844/3/6 831/3/6 845/3/6
f 838/3/6 839/3/6 846/3/6
f 846/3/6 839/3/6 847/3/6
f 840/3/6 841/3/6 848/3/6
f 848/3/6 841/3/6 849/3/6
f 842/3/6 843/3/6 850/3/6
f 850/3/6 843/3/6 851/3/6
f 858/3/6 859/3/6 864/3/6
f 864/3/6 859/3/6 865/3/6
f 852/3/6 853/3/6 866/3/6
f 866/3/6 853/3/6 867/3/6
f 854/3/6 855/3/6 868/3/6
f 868/3/6 855/3/6 869/3/6
f 856/3/6 857/3/6 870/3/6
f 870/3/6 857/3/6 871/3/6
f 858/3/6 864/3/6 872/3/6
f 872/3/6 864/3/6 873/3/6
f 860/3/6 861/3/6 875/3/6
f 874/3/6 875/3/6 880/3/6
f 875/3/6 861/3/6 881/3/6
f 880/3/6 875/3/6 881/3/6
f 882/3/6 883/3/6 884/3/6
f 884/3/6 883/3/6 885/3/6
f 862/3/6 863/3/6 886/3/6
f 886/3/6 863/3/6 887/3/6
f 876/3/6 877/3/6 888/3/6
f 888/3/6 877/3/6 889/3/6
f 878/3/6 879/3/6 890/3/6
f 890/3/6 879/3/6 891/3/6
f 894/3/6 895/3/6 899/3/6
f 892/3/6 893/3/6 902/3/6
f 898/3/6 899/3/6 904/3/6
f 899/3/6 895/3/6 905/3/6
f 904/3/6 899/3/6 905/3/6
f 900/3/6 901/3/6 907/3/6
f 902/3/6 903/3/6 908/3/6
f 892/3/6 902/3/6 908/3/6
f 908/3/6 903/3/6 909/3/6
f 906/3/6 907/3/6 910/3/6
f 907/3/6 901/3/6 911/3/6
f 910/3/6 907/3/6 911/3/6
f 911/3/6 901/3/6 912/3/6
f 892/3/6 908/3/6 914/3/6
f 914/3/6 908/3/6 915/3/6
f 912/3/6 913/3/6 916/3/6
f 911/3/6 912/3/6 916/3/6
f 916/3/6 913/3/6 917/3/6
f 905/3/6 895/3/6 920/3/6
f 920/3/6 895/3/6 921/3/6
f 896/3/6 897/3/6 922/3/6
f 922/3/6 897/3/6 923/3/6
f 911/3/6 916/3/6 924/3/6
f 924/3/6 916/3/6 925/3/6
f 918/3/6 919/3/6 927/3/6
f 927/3/6 919/3/6 928/3/6
f 926/3/6 927/3/6 932/3/6
f 927/3/6 928/3/6 932/3/6
f 928/3/6 929/3/6 932/3/6
f 932/3/6 929/3/6 933/3/6
f 933/3/6 929/3/6 934/3/6
f 934/3/6 929/3/6 935/3/6
f 930/3/6 931/3/6 938/3/6
f 938/3/6 931/3/6 939/3/6
f 933/3/6 934/3/6 940/3/6
f 940/3/6 934/3/6 941/3/6
f 936/3/6 937/3/6 945/3/6
f 944/3/6 945/3/6 946/3/6
f 945/3/6 937/3/6 947/3/6
f 946/3/6 945/3/6 947/3/6
f 947/3/6 937/3/6 948/3/6
f 948/3/6 937/3/6 949/3/6
f 942/3/6 943/3/6 950/3/6
f 950/3/6 943/3/6 951/3/6
f 952/2/6 953/2/6 957/2/6
f 957/2/6 953/2/6 958/2/6
f 954/2/6 955/2/6 961/2/6
f 961/2/6 955/2/6 962/2/6
f 956/2/6 957/2/6 964/2/6
f 964/2/6 957/2/6 965/2/6
f 958/2/6 959/2/6 966/2/6
f 966/2/6 959/2/6 967/2/6
f 960/2/6 961/2/6 968/2/6
f 968/2/6 961/2/6 969/2/6
f 962/2/6 963/2/6 970/2/6
f 970/2/6 963/2/6 971/2/6
f 965/2/6 966/2/6 972/2/6
f 972/2/6 966/2/6 973/2/6
f 969/2/6 970/2/6 974/2/6
f 974/2/6 970/2/6 975/2/6
f 976/3/6 977/3/6 978/3/6
f 978/3/6 977/3/6 979/3/6
f 980/2/6 981/2/6 988/2/6
f 988/2/6 981/2/6 989/2/6
f 982/2/6 983/2/6 990/2/6
f 990/2/6 983/2/6 991/2/6
f 984/2/6 985/2/6 992/2/6
f 992/2/6 985/2/6 993/2/6
f 986/2/6 987/2/6 994/2/6
f 994/2/6 987/2/6 995/2/6
f 996/2/6 997/2/6 1004/2/6
f 1004/2/6 997/2/6 1005/2/6
f 998/2/6 999/2/6 1006/2/6
f 1006/2/6 999/2/6 1007/2/6
f 1000/2/6 1001/2/6 1008/2/6
f 1008/2/6 1001/2/6 1009/2/6
f 1002/2/6 1003/2/6 1010/2/6
f 1010/2/6 1003/2/6 1011/2/6
