# MagicaVoxel @ Ephtracy

# group
o 

# material
mtllib center_city_walls.mtl
usemtl palette

# normals
vn -1 0 0
vn 1 0 0
vn 0 0 1
vn 0 0 -1
vn 0 -1 0
vn 0 1 0

# texcoords
vt 0.0371094 0.5
vt 0.373047 0.5
vt 0.849609 0.5

# verts
v -1 0 1
v -1 0 0.9
v -1 0 0.6
v -1 0 0.5
v -1 0 -0.5
v -1 0 -0.6
v -1 0 -0.9
v -1 0 -1
v -1 0.2 0.9
v -1 0.2 0.6
v -1 0.2 -0.6
v -1 0.2 -0.9
v -1 0.3 0.9
v -1 0.3 0.6
v -1 0.3 -0.6
v -1 0.3 -0.9
v -1 0.4 1
v -1 0.4 0.9
v -1 0.4 0.6
v -1 0.4 0.5
v -1 0.4 -0.5
v -1 0.4 -0.6
v -1 0.4 -0.9
v -1 0.4 -1
v -0.9 0 0.9
v -0.9 0 0.6
v -0.9 0 -0.1
v -0.9 0 -0.4
v -0.9 0 -0.6
v -0.9 0 -0.9
v -0.9 0.1 0.9
v -0.9 0.1 0.6
v -0.9 0.1 -0.1
v -0.9 0.1 -0.4
v -0.9 0.1 -0.6
v -0.9 0.1 -0.9
v -0.9 0.2 -0.1
v -0.9 0.2 -0.4
v -0.8 0 0.4
v -0.8 0 -1.19209e-07
v -0.8 0.1 0.4
v -0.8 0.1 -1.19209e-07
v -0.8 0.2 0.4
v -0.8 0.2 0.3
v -0.8 0.2 0.2
v -0.8 0.2 -1.19209e-07
v -0.8 0.2 -0.1
v -0.8 0.2 -0.4
v -0.8 0.3 0.3
v -0.8 0.3 0.2
v -0.8 0.3 -0.1
v -0.8 0.3 -0.4
v -0.7 0.2 0.4
v -0.7 0.2 0.3
v -0.7 0.2 0.2
v -0.7 0.2 -1.19209e-07
v -0.7 0.3 0.4
v -0.7 0.3 0.3
v -0.7 0.3 0.2
v -0.7 0.3 -1.19209e-07
v -0.6 0 1
v -0.6 0 0.9
v -0.6 0 0.6
v -0.6 0 0.5
v -0.6 0 -0.5
v -0.6 0 -0.6
v -0.6 0 -0.9
v -0.6 0 -1
v -0.6 0.1 0.9
v -0.6 0.1 0.6
v -0.6 0.1 -0.6
v -0.6 0.1 -0.9
v -0.6 0.2 1
v -0.6 0.2 0.9
v -0.6 0.2 0.6
v -0.6 0.2 0.5
v -0.6 0.2 -0.5
v -0.6 0.2 -0.6
v -0.6 0.2 -0.9
v -0.6 0.2 -1
v -0.6 0.3 1
v -0.6 0.3 0.9
v -0.6 0.3 0.6
v -0.6 0.3 0.5
v -0.6 0.3 -0.5
v -0.6 0.3 -0.6
v -0.6 0.3 -0.9
v -0.6 0.3 -1
v -0.6 0.4 1
v -0.6 0.4 0.9
v -0.6 0.4 0.6
v -0.6 0.4 0.5
v -0.6 0.4 -0.5
v -0.6 0.4 -0.6
v -0.6 0.4 -0.9
v -0.6 0.4 -1
v 1.19209e-07 0 0.4
v 1.19209e-07 0 0.0999999
v 1.19209e-07 0.1 0.4
v 1.19209e-07 0.1 0.0999999
v 1.19209e-07 0.2 0.4
v 1.19209e-07 0.2 0.0999999
v 0.1 0.2 0.4
v 0.1 0.2 0.0999999
v 0.1 0.3 0.4
v 0.1 0.3 0.0999999
v 0.4 0 -1.19209e-07
v 0.4 0 -0.3
v 0.4 0.1 -1.19209e-07
v 0.4 0.1 -0.3
v 0.4 0.2 -1.19209e-07
v 0.4 0.2 -0.1
v 0.4 0.2 -0.2
v 0.4 0.2 -0.3
v 0.4 0.3 -0.1
v 0.4 0.3 -0.2
v 0.5 0.1 1
v 0.5 0.1 0.9
v 0.5 0.1 0.6
v 0.5 0.1 0.5
v 0.5 0.1 -0.5
v 0.5 0.1 -0.6
v 0.5 0.1 -0.9
v 0.5 0.1 -1
v 0.5 0.2 0.9
v 0.5 0.2 0.6
v 0.5 0.2 -0.6
v 0.5 0.2 -0.9
v 0.5 0.3 0.9
v 0.5 0.3 0.6
v 0.5 0.3 -0.6
v 0.5 0.3 -0.9
v 0.5 0.4 1
v 0.5 0.4 0.9
v 0.5 0.4 0.6
v 0.5 0.4 0.5
v 0.5 0.4 -0.5
v 0.5 0.4 -0.6
v 0.5 0.4 -0.9
v 0.5 0.4 -1
v 0.6 0 0.3
v 0.6 0 -1.19209e-07
v 0.6 0.1 0.3
v 0.6 0.1 -1.19209e-07
v 0.6 0.2 0.3
v 0.6 0.2 -1.19209e-07
v 0.7 0.2 0.3
v 0.7 0.2 -0.1
v 0.7 0.2 -0.2
v 0.7 0.2 -0.3
v 0.7 0.3 0.3
v 0.7 0.3 -0.1
v 0.7 0.3 -0.2
v 0.7 0.3 -0.3
v 0.9 0 1
v 0.9 0 0.9
v 0.9 0 0.6
v 0.9 0 0.5
v 0.9 0 -0.5
v 0.9 0 -0.6
v 0.9 0 -0.9
v 0.9 0 -1
v 0.9 0.1 0.9
v 0.9 0.1 0.6
v 0.9 0.1 -0.6
v 0.9 0.1 -0.9
v 0.9 0.2 1
v 0.9 0.2 0.9
v 0.9 0.2 0.6
v 0.9 0.2 0.5
v 0.9 0.2 -0.5
v 0.9 0.2 -0.6
v 0.9 0.2 -0.9
v 0.9 0.2 -1
v 0.9 0.3 1
v 0.9 0.3 0.9
v 0.9 0.3 0.6
v 0.9 0.3 0.5
v 0.9 0.3 -0.5
v 0.9 0.3 -0.6
v 0.9 0.3 -0.9
v 0.9 0.3 -1
v 0.9 0.4 1
v 0.9 0.4 0.9
v 0.9 0.4 0.6
v 0.9 0.4 0.5
v 0.9 0.4 -0.5
v 0.9 0.4 -0.6
v 0.9 0.4 -0.9
v 0.9 0.4 -1
v -0.9 0 1
v -0.9 0 0.9
v -0.9 0 0.6
v -0.9 0 0.5
v -0.9 0 -0.5
v -0.9 0 -0.6
v -0.9 0 -0.9
v -0.9 0 -1
v -0.9 0.1 0.9
v -0.9 0.1 0.6
v -0.9 0.1 -0.6
v -0.9 0.1 -0.9
v -0.9 0.2 1
v -0.9 0.2 0.9
v -0.9 0.2 0.6
v -0.9 0.2 0.5
v -0.9 0.2 -0.5
v -0.9 0.2 -0.6
v -0.9 0.2 -0.9
v -0.9 0.2 -1
v -0.9 0.3 1
v -0.9 0.3 0.9
v -0.9 0.3 0.6
v -0.9 0.3 0.5
v -0.9 0.3 -0.5
v -0.9 0.3 -0.6
v -0.9 0.3 -0.9
v -0.9 0.3 -1
v -0.9 0.4 1
v -0.9 0.4 0.9
v -0.9 0.4 0.6
v -0.9 0.4 0.5
v -0.9 0.4 -0.5
v -0.9 0.4 -0.6
v -0.9 0.4 -0.9
v -0.9 0.4 -1
v -0.7 0.2 -0.1
v -0.7 0.2 -0.4
v -0.7 0.3 -0.1
v -0.7 0.3 -0.4
v -0.6 0 -0.1
v -0.6 0 -0.4
v -0.6 0.1 -0.1
v -0.6 0.1 -0.4
v -0.6 0.2 0.4
v -0.6 0.2 0.3
v -0.6 0.2 0.2
v -0.6 0.2 -1.19209e-07
v -0.6 0.2 -0.1
v -0.6 0.2 -0.4
v -0.6 0.3 0.4
v -0.6 0.3 0.3
v -0.6 0.3 0.2
v -0.6 0.3 -1.19209e-07
v -0.5 0 0.0999999
v -0.5 0 -1.19209e-07
v -0.5 0.1 1
v -0.5 0.1 0.9
v -0.5 0.1 0.6
v -0.5 0.1 0.5
v -0.5 0.1 0.0999999
v -0.5 0.1 -1.19209e-07
v -0.5 0.1 -0.5
v -0.5 0.1 -0.6
v -0.5 0.1 -0.9
v -0.5 0.1 -1
v -0.5 0.2 0.9
v -0.5 0.2 0.6
v -0.5 0.2 0.0999999
v -0.5 0.2 -1.19209e-07
v -0.5 0.2 -0.6
v -0.5 0.2 -0.9
v -0.5 0.3 0.9
v -0.5 0.3 0.6
v -0.5 0.3 -0.6
v -0.5 0.3 -0.9
v -0.5 0.4 1
v -0.5 0.4 0.9
v -0.5 0.4 0.6
v -0.5 0.4 0.5
v -0.5 0.4 -0.5
v -0.5 0.4 -0.6
v -0.5 0.4 -0.9
v -0.5 0.4 -1
v -0.2 0 0.4
v -0.2 0 0.0999999
v -0.2 0.1 0.4
v -0.2 0.1 0.0999999
v -0.2 0.2 0.4
v -0.2 0.2 0.3
v -0.2 0.2 0.2
v -0.2 0.2 0.0999999
v -0.2 0.3 0.3
v -0.2 0.3 0.2
v 0.2 0.2 0.4
v 0.2 0.2 0.0999999
v 0.2 0.3 0.4
v 0.2 0.3 0.0999999
v 0.3 0 0.4
v 0.3 0 0.0999999
v 0.3 0.1 0.4
v 0.3 0.1 0.0999999
v 0.3 0.2 0.4
v 0.3 0.2 0.0999999
v 0.6 0 1
v 0.6 0 0.9
v 0.6 0 0.6
v 0.6 0 0.5
v 0.6 0 -0.5
v 0.6 0 -0.6
v 0.6 0 -0.9
v 0.6 0 -1
v 0.6 0.1 0.9
v 0.6 0.1 0.6
v 0.6 0.1 -0.6
v 0.6 0.1 -0.9
v 0.6 0.2 1
v 0.6 0.2 0.9
v 0.6 0.2 0.6
v 0.6 0.2 0.5
v 0.6 0.2 -0.5
v 0.6 0.2 -0.6
v 0.6 0.2 -0.9
v 0.6 0.2 -1
v 0.6 0.3 1
v 0.6 0.3 0.9
v 0.6 0.3 0.6
v 0.6 0.3 0.5
v 0.6 0.3 -0.5
v 0.6 0.3 -0.6
v 0.6 0.3 -0.9
v 0.6 0.3 -1
v 0.6 0.4 1
v 0.6 0.4 0.9
v 0.6 0.4 0.6
v 0.6 0.4 0.5
v 0.6 0.4 -0.5
v 0.6 0.4 -0.6
v 0.6 0.4 -0.9
v 0.6 0.4 -1
v 0.8 0.2 0.3
v 0.8 0.2 -0.3
v 0.8 0.3 0.3
v 0.8 0.3 -0.3
v 0.9 0 0.9
v 0.9 0 0.6
v 0.9 0 0.3
v 0.9 0 -0.3
v 0.9 0 -0.6
v 0.9 0 -0.9
v 0.9 0.1 0.9
v 0.9 0.1 0.6
v 0.9 0.1 0.3
v 0.9 0.1 -0.3
v 0.9 0.1 -0.6
v 0.9 0.1 -0.9
v 0.9 0.2 0.3
v 0.9 0.2 -0.3
v 1 0 1
v 1 0 0.9
v 1 0 0.6
v 1 0 0.5
v 1 0 -0.5
v 1 0 -0.6
v 1 0 -0.9
v 1 0 -1
v 1 0.2 0.9
v 1 0.2 0.6
v 1 0.2 -0.6
v 1 0.2 -0.9
v 1 0.3 0.9
v 1 0.3 0.6
v 1 0.3 -0.6
v 1 0.3 -0.9
v 1 0.4 1
v 1 0.4 0.9
v 1 0.4 0.6
v 1 0.4 0.5
v 1 0.4 -0.5
v 1 0.4 -0.6
v 1 0.4 -0.9
v 1 0.4 -1
v -1 0 1
v -1 0.4 1
v -0.9 0 1
v -0.9 0.2 1
v -0.9 0.3 1
v -0.9 0.4 1
v -0.6 0 1
v -0.6 0.2 1
v -0.6 0.3 1
v -0.6 0.4 1
v -0.5 0.1 1
v -0.5 0.4 1
v 0.5 0.1 1
v 0.5 0.4 1
v 0.6 0 1
v 0.6 0.2 1
v 0.6 0.3 1
v 0.6 0.4 1
v 0.9 0 1
v 0.9 0.2 1
v 0.9 0.3 1
v 0.9 0.4 1
v 1 0 1
v 1 0.4 1
v -0.9 0 0.9
v -0.9 0.1 0.9
v -0.6 0 0.9
v -0.6 0.1 0.9
v 0.6 0 0.9
v 0.6 0.1 0.9
v 0.9 0 0.9
v 0.9 0.1 0.9
v -1 0 0.6
v -1 0.2 0.6
v -1 0.3 0.6
v -1 0.4 0.6
v -0.9 0 0.6
v -0.9 0.1 0.6
v -0.9 0.2 0.6
v -0.9 0.3 0.6
v -0.9 0.4 0.6
v -0.6 0.1 0.6
v -0.6 0.2 0.6
v -0.6 0.3 0.6
v -0.6 0.4 0.6
v -0.5 0.1 0.6
v -0.5 0.2 0.6
v -0.5 0.3 0.6
v -0.5 0.4 0.6
v 0.5 0.1 0.6
v 0.5 0.2 0.6
v 0.5 0.3 0.6
v 0.5 0.4 0.6
v 0.6 0.1 0.6
v 0.6 0.2 0.6
v 0.6 0.3 0.6
v 0.6 0.4 0.6
v 0.9 0 0.6
v 0.9 0.1 0.6
v 0.9 0.2 0.6
v 0.9 0.3 0.6
v 0.9 0.4 0.6
v 1 0 0.6
v 1 0.2 0.6
v 1 0.3 0.6
v 1 0.4 0.6
v -0.8 0 0.4
v -0.8 0.1 0.4
v -0.8 0.2 0.4
v -0.7 0.2 0.4
v -0.7 0.3 0.4
v -0.6 0.2 0.4
v -0.6 0.3 0.4
v -0.2 0 0.4
v -0.2 0.1 0.4
v -0.2 0.2 0.4
v 1.19209e-07 0 0.4
v 1.19209e-07 0.1 0.4
v 1.19209e-07 0.2 0.4
v 0.1 0.2 0.4
v 0.1 0.3 0.4
v 0.2 0.2 0.4
v 0.2 0.3 0.4
v 0.3 0 0.4
v 0.3 0.1 0.4
v 0.3 0.2 0.4
v -0.8 0.2 0.3
v -0.8 0.3 0.3
v -0.7 0.2 0.3
v -0.7 0.3 0.3
v -0.6 0.2 0.3
v -0.6 0.3 0.3
v -0.2 0.2 0.3
v -0.2 0.3 0.3
v 0.6 0 0.3
v 0.6 0.1 0.3
v 0.6 0.2 0.3
v 0.7 0.2 0.3
v 0.7 0.3 0.3
v 0.8 0.2 0.3
v 0.8 0.3 0.3
v 0.9 0 0.3
v 0.9 0.1 0.3
v 0.9 0.2 0.3
v 0.4 0 -1.19209e-07
v 0.4 0.1 -1.19209e-07
v 0.4 0.2 -1.19209e-07
v 0.6 0 -1.19209e-07
v 0.6 0.1 -1.19209e-07
v 0.6 0.2 -1.19209e-07
v -0.9 0 -0.1
v -0.9 0.1 -0.1
v -0.9 0.2 -0.1
v -0.8 0.2 -0.1
v -0.8 0.3 -0.1
v -0.7 0.2 -0.1
v -0.7 0.3 -0.1
v -0.6 0 -0.1
v -0.6 0.1 -0.1
v -0.6 0.2 -0.1
v 0.4 0.2 -0.1
v 0.4 0.3 -0.1
v 0.7 0.2 -0.1
v 0.7 0.3 -0.1
v -1 0 -0.5
v -1 0.4 -0.5
v -0.9 0 -0.5
v -0.9 0.2 -0.5
v -0.9 0.3 -0.5
v -0.9 0.4 -0.5
v -0.6 0 -0.5
v -0.6 0.2 -0.5
v -0.6 0.3 -0.5
v -0.6 0.4 -0.5
v -0.5 0.1 -0.5
v -0.5 0.4 -0.5
v 0.5 0.1 -0.5
v 0.5 0.4 -0.5
v 0.6 0 -0.5
v 0.6 0.2 -0.5
v 0.6 0.3 -0.5
v 0.6 0.4 -0.5
v 0.9 0 -0.5
v 0.9 0.2 -0.5
v 0.9 0.3 -0.5
v 0.9 0.4 -0.5
v 1 0 -0.5
v 1 0.4 -0.5
v -0.9 0 -0.6
v -0.9 0.1 -0.6
v -0.6 0 -0.6
v -0.6 0.1 -0.6
v 0.6 0 -0.6
v 0.6 0.1 -0.6
v 0.9 0 -0.6
v 0.9 0.1 -0.6
v -1 0 -0.9
v -1 0.2 -0.9
v -1 0.3 -0.9
v -1 0.4 -0.9
v -0.9 0 -0.9
v -0.9 0.1 -0.9
v -0.9 0.2 -0.9
v -0.9 0.3 -0.9
v -0.9 0.4 -0.9
v -0.6 0.1 -0.9
v -0.6 0.2 -0.9
v -0.6 0.3 -0.9
v -0.6 0.4 -0.9
v -0.5 0.1 -0.9
v -0.5 0.2 -0.9
v -0.5 0.3 -0.9
v -0.5 0.4 -0.9
v 0.5 0.1 -0.9
v 0.5 0.2 -0.9
v 0.5 0.3 -0.9
v 0.5 0.4 -0.9
v 0.6 0.1 -0.9
v 0.6 0.2 -0.9
v 0.6 0.3 -0.9
v 0.6 0.4 -0.9
v 0.9 0 -0.9
v 0.9 0.1 -0.9
v 0.9 0.2 -0.9
v 0.9 0.3 -0.9
v 0.9 0.4 -0.9
v 1 0 -0.9
v 1 0.2 -0.9
v 1 0.3 -0.9
v 1 0.4 -0.9
v -1 0 0.9
v -1 0.2 0.9
v -1 0.3 0.9
v -1 0.4 0.9
v -0.9 0 0.9
v -0.9 0.1 0.9
v -0.9 0.2 0.9
v -0.9 0.3 0.9
v -0.9 0.4 0.9
v -0.6 0.1 0.9
v -0.6 0.2 0.9
v -0.6 0.3 0.9
v -0.6 0.4 0.9
v -0.5 0.1 0.9
v -0.5 0.2 0.9
v -0.5 0.3 0.9
v -0.5 0.4 0.9
v 0.5 0.1 0.9
v 0.5 0.2 0.9
v 0.5 0.3 0.9
v 0.5 0.4 0.9
v 0.6 0.1 0.9
v 0.6 0.2 0.9
v 0.6 0.3 0.9
v 0.6 0.4 0.9
v 0.9 0 0.9
v 0.9 0.1 0.9
v 0.9 0.2 0.9
v 0.9 0.3 0.9
v 0.9 0.4 0.9
v 1 0 0.9
v 1 0.2 0.9
v 1 0.3 0.9
v 1 0.4 0.9
v -0.9 0 0.6
v -0.9 0.1 0.6
v -0.6 0 0.6
v -0.6 0.1 0.6
v 0.6 0 0.6
v 0.6 0.1 0.6
v 0.9 0 0.6
v 0.9 0.1 0.6
v -1 0 0.5
v -1 0.4 0.5
v -0.9 0 0.5
v -0.9 0.2 0.5
v -0.9 0.3 0.5
v -0.9 0.4 0.5
v -0.6 0 0.5
v -0.6 0.2 0.5
v -0.6 0.3 0.5
v -0.6 0.4 0.5
v -0.5 0.1 0.5
v -0.5 0.4 0.5
v 0.5 0.1 0.5
v 0.5 0.4 0.5
v 0.6 0 0.5
v 0.6 0.2 0.5
v 0.6 0.3 0.5
v 0.6 0.4 0.5
v 0.9 0 0.5
v 0.9 0.2 0.5
v 0.9 0.3 0.5
v 0.9 0.4 0.5
v 1 0 0.5
v 1 0.4 0.5
v -0.8 0.2 0.2
v -0.8 0.3 0.2
v -0.7 0.2 0.2
v -0.7 0.3 0.2
v -0.6 0.2 0.2
v -0.6 0.3 0.2
v -0.2 0.2 0.2
v -0.2 0.3 0.2
v -0.5 0 0.0999999
v -0.5 0.1 0.0999999
v -0.5 0.2 0.0999999
v -0.2 0 0.0999999
v -0.2 0.1 0.0999999
v -0.2 0.2 0.0999999
v 1.19209e-07 0 0.0999999
v 1.19209e-07 0.1 0.0999999
v 1.19209e-07 0.2 0.0999999
v 0.1 0.2 0.0999999
v 0.1 0.3 0.0999999
v 0.2 0.2 0.0999999
v 0.2 0.3 0.0999999
v 0.3 0 0.0999999
v 0.3 0.1 0.0999999
v 0.3 0.2 0.0999999
v -0.8 0 -1.19209e-07
v -0.8 0.1 -1.19209e-07
v -0.8 0.2 -1.19209e-07
v -0.7 0.2 -1.19209e-07
v -0.7 0.3 -1.19209e-07
v -0.6 0.2 -1.19209e-07
v -0.6 0.3 -1.19209e-07
v -0.5 0 -1.19209e-07
v -0.5 0.1 -1.19209e-07
v -0.5 0.2 -1.19209e-07
v 0.4 0.2 -0.2
v 0.4 0.3 -0.2
v 0.7 0.2 -0.2
v 0.7 0.3 -0.2
v 0.4 0 -0.3
v 0.4 0.1 -0.3
v 0.4 0.2 -0.3
v 0.7 0.2 -0.3
v 0.7 0.3 -0.3
v 0.8 0.2 -0.3
v 0.8 0.3 -0.3
v 0.9 0 -0.3
v 0.9 0.1 -0.3
v 0.9 0.2 -0.3
v -0.9 0 -0.4
v -0.9 0.1 -0.4
v -0.9 0.2 -0.4
v -0.8 0.2 -0.4
v -0.8 0.3 -0.4
v -0.7 0.2 -0.4
v -0.7 0.3 -0.4
v -0.6 0 -0.4
v -0.6 0.1 -0.4
v -0.6 0.2 -0.4
v -1 0 -0.6
v -1 0.2 -0.6
v -1 0.3 -0.6
v -1 0.4 -0.6
v -0.9 0 -0.6
v -0.9 0.1 -0.6
v -0.9 0.2 -0.6
v -0.9 0.3 -0.6
v -0.9 0.4 -0.6
v -0.6 0.1 -0.6
v -0.6 0.2 -0.6
v -0.6 0.3 -0.6
v -0.6 0.4 -0.6
v -0.5 0.1 -0.6
v -0.5 0.2 -0.6
v -0.5 0.3 -0.6
v -0.5 0.4 -0.6
v 0.5 0.1 -0.6
v 0.5 0.2 -0.6
v 0.5 0.3 -0.6
v 0.5 0.4 -0.6
v 0.6 0.1 -0.6
v 0.6 0.2 -0.6
v 0.6 0.3 -0.6
v 0.6 0.4 -0.6
v 0.9 0 -0.6
v 0.9 0.1 -0.6
v 0.9 0.2 -0.6
v 0.9 0.3 -0.6
v 0.9 0.4 -0.6
v 1 0 -0.6
v 1 0.2 -0.6
v 1 0.3 -0.6
v 1 0.4 -0.6
v -0.9 0 -0.9
v -0.9 0.1 -0.9
v -0.6 0 -0.9
v -0.6 0.1 -0.9
v 0.6 0 -0.9
v 0.6 0.1 -0.9
v 0.9 0 -0.9
v 0.9 0.1 -0.9
v -1 0 -1
v -1 0.4 -1
v -0.9 0 -1
v -0.9 0.2 -1
v -0.9 0.3 -1
v -0.9 0.4 -1
v -0.6 0 -1
v -0.6 0.2 -1
v -0.6 0.3 -1
v -0.6 0.4 -1
v -0.5 0.1 -1
v -0.5 0.4 -1
v 0.5 0.1 -1
v 0.5 0.4 -1
v 0.6 0 -1
v 0.6 0.2 -1
v 0.6 0.3 -1
v 0.6 0.4 -1
v 0.9 0 -1
v 0.9 0.2 -1
v 0.9 0.3 -1
v 0.9 0.4 -1
v 1 0 -1
v 1 0.4 -1
v -1 0 1
v -0.9 0 1
v -0.6 0 1
v 0.6 0 1
v 0.9 0 1
v 1 0 1
v -1 0 0.9
v -0.9 0 0.9
v -0.6 0 0.9
v 0.6 0 0.9
v 0.9 0 0.9
v 1 0 0.9
v -1 0 0.6
v -0.9 0 0.6
v -0.6 0 0.6
v 0.6 0 0.6
v 0.9 0 0.6
v 1 0 0.6
v -1 0 0.5
v -0.9 0 0.5
v -0.6 0 0.5
v 0.6 0 0.5
v 0.9 0 0.5
v 1 0 0.5
v -0.8 0 0.4
v -0.2 0 0.4
v 1.19209e-07 0 0.4
v 0.3 0 0.4
v 0.6 0 0.3
v 0.9 0 0.3
v -0.5 0 0.0999999
v -0.2 0 0.0999999
v 1.19209e-07 0 0.0999999
v 0.3 0 0.0999999
v -0.8 0 -1.19209e-07
v -0.5 0 -1.19209e-07
v 0.4 0 -1.19209e-07
v 0.6 0 -1.19209e-07
v -0.9 0 -0.1
v -0.6 0 -0.1
v 0.4 0 -0.3
v 0.9 0 -0.3
v -0.9 0 -0.4
v -0.6 0 -0.4
v -1 0 -0.5
v -0.9 0 -0.5
v -0.6 0 -0.5
v 0.6 0 -0.5
v 0.9 0 -0.5
v 1 0 -0.5
v -1 0 -0.6
v -0.9 0 -0.6
v -0.6 0 -0.6
v 0.6 0 -0.6
v 0.9 0 -0.6
v 1 0 -0.6
v -1 0 -0.9
v -0.9 0 -0.9
v -0.6 0 -0.9
v 0.6 0 -0.9
v 0.9 0 -0.9
v 1 0 -0.9
v -1 0 -1
v -0.9 0 -1
v -0.6 0 -1
v 0.6 0 -1
v 0.9 0 -1
v 1 0 -1
v -0.9 0.2 1
v -0.6 0.2 1
v 0.6 0.2 1
v 0.9 0.2 1
v -1 0.2 0.9
v -0.9 0.2 0.9
v -0.6 0.2 0.9
v -0.5 0.2 0.9
v 0.5 0.2 0.9
v 0.6 0.2 0.9
v 0.9 0.2 0.9
v 1 0.2 0.9
v -1 0.2 0.6
v -0.9 0.2 0.6
v -0.6 0.2 0.6
v -0.5 0.2 0.6
v 0.5 0.2 0.6
v 0.6 0.2 0.6
v 0.9 0.2 0.6
v 1 0.2 0.6
v -0.9 0.2 0.5
v -0.6 0.2 0.5
v 0.6 0.2 0.5
v 0.9 0.2 0.5
v -0.9 0.2 -0.5
v -0.6 0.2 -0.5
v 0.6 0.2 -0.5
v 0.9 0.2 -0.5
v -1 0.2 -0.6
v -0.9 0.2 -0.6
v -0.6 0.2 -0.6
v -0.5 0.2 -0.6
v 0.5 0.2 -0.6
v 0.6 0.2 -0.6
v 0.9 0.2 -0.6
v 1 0.2 -0.6
v -1 0.2 -0.9
v -0.9 0.2 -0.9
v -0.6 0.2 -0.9
v -0.5 0.2 -0.9
v 0.5 0.2 -0.9
v 0.6 0.2 -0.9
v 0.9 0.2 -0.9
v 1 0.2 -0.9
v -0.9 0.2 -1
v -0.6 0.2 -1
v 0.6 0.2 -1
v 0.9 0.2 -1
v -0.5 0.1 1
v 0.5 0.1 1
v -0.9 0.1 0.9
v -0.6 0.1 0.9
v -0.5 0.1 0.9
v 0.5 0.1 0.9
v 0.6 0.1 0.9
v 0.9 0.1 0.9
v -0.9 0.1 0.6
v -0.6 0.1 0.6
v -0.5 0.1 0.6
v 0.5 0.1 0.6
v 0.6 0.1 0.6
v 0.9 0.1 0.6
v -0.5 0.1 0.5
v 0.5 0.1 0.5
v -0.5 0.1 -0.5
v 0.5 0.1 -0.5
v -0.9 0.1 -0.6
v -0.6 0.1 -0.6
v -0.5 0.1 -0.6
v 0.5 0.1 -0.6
v 0.6 0.1 -0.6
v 0.9 0.1 -0.6
v -0.9 0.1 -0.9
v -0.6 0.1 -0.9
v -0.5 0.1 -0.9
v 0.5 0.1 -0.9
v 0.6 0.1 -0.9
v 0.9 0.1 -0.9
v -0.5 0.1 -1
v 0.5 0.1 -1
v -0.8 0.2 0.4
v -0.7 0.2 0.4
v -0.6 0.2 0.4
v -0.2 0.2 0.4
v 1.19209e-07 0.2 0.4
v 0.1 0.2 0.4
v 0.2 0.2 0.4
v 0.3 0.2 0.4
v -0.8 0.2 0.3
v -0.7 0.2 0.3
v -0.6 0.2 0.3
v -0.2 0.2 0.3
v 0.6 0.2 0.3
v 0.7 0.2 0.3
v 0.8 0.2 0.3
v 0.9 0.2 0.3
v -0.8 0.2 0.2
v -0.7 0.2 0.2
v -0.6 0.2 0.2
v -0.2 0.2 0.2
v -0.5 0.2 0.0999999
v -0.2 0.2 0.0999999
v 1.19209e-07 0.2 0.0999999
v 0.1 0.2 0.0999999
v 0.2 0.2 0.0999999
v 0.3 0.2 0.0999999
v -0.8 0.2 -1.19209e-07
v -0.7 0.2 -1.19209e-07
v -0.6 0.2 -1.19209e-07
v -0.5 0.2 -1.19209e-07
v 0.4 0.2 -1.19209e-07
v 0.6 0.2 -1.19209e-07
v -0.9 0.2 -0.1
v -0.8 0.2 -0.1
v -0.7 0.2 -0.1
v -0.6 0.2 -0.1
v 0.4 0.2 -0.1
v 0.7 0.2 -0.1
v 0.4 0.2 -0.2
v 0.7 0.2 -0.2
v 0.4 0.2 -0.3
v 0.7 0.2 -0.3
v 0.8 0.2 -0.3
v 0.9 0.2 -0.3
v -0.9 0.2 -0.4
v -0.8 0.2 -0.4
v -0.7 0.2 -0.4
v -0.6 0.2 -0.4
v -0.9 0.3 1
v -0.6 0.3 1
v 0.6 0.3 1
v 0.9 0.3 1
v -1 0.3 0.9
v -0.9 0.3 0.9
v -0.6 0.3 0.9
v -0.5 0.3 0.9
v 0.5 0.3 0.9
v 0.6 0.3 0.9
v 0.9 0.3 0.9
v 1 0.3 0.9
v -1 0.3 0.6
v -0.9 0.3 0.6
v -0.6 0.3 0.6
v -0.5 0.3 0.6
v 0.5 0.3 0.6
v 0.6 0.3 0.6
v 0.9 0.3 0.6
v 1 0.3 0.6
v -0.9 0.3 0.5
v -0.6 0.3 0.5
v 0.6 0.3 0.5
v 0.9 0.3 0.5
v -0.7 0.3 0.4
v -0.6 0.3 0.4
v 0.1 0.3 0.4
v 0.2 0.3 0.4
v -0.8 0.3 0.3
v -0.7 0.3 0.3
v -0.6 0.3 0.3
v -0.2 0.3 0.3
v 0.7 0.3 0.3
v 0.8 0.3 0.3
v -0.8 0.3 0.2
v -0.7 0.3 0.2
v -0.6 0.3 0.2
v -0.2 0.3 0.2
v 0.1 0.3 0.0999999
v 0.2 0.3 0.0999999
v -0.7 0.3 -1.19209e-07
v -0.6 0.3 -1.19209e-07
v -0.8 0.3 -0.1
v -0.7 0.3 -0.1
v 0.4 0.3 -0.1
v 0.7 0.3 -0.1
v 0.4 0.3 -0.2
v 0.7 0.3 -0.2
v 0.7 0.3 -0.3
v 0.8 0.3 -0.3
v -0.8 0.3 -0.4
v -0.7 0.3 -0.4
v -0.9 0.3 -0.5
v -0.6 0.3 -0.5
v 0.6 0.3 -0.5
v 0.9 0.3 -0.5
v -1 0.3 -0.6
v -0.9 0.3 -0.6
v -0.6 0.3 -0.6
v -0.5 0.3 -0.6
v 0.5 0.3 -0.6
v 0.6 0.3 -0.6
v 0.9 0.3 -0.6
v 1 0.3 -0.6
v -1 0.3 -0.9
v -0.9 0.3 -0.9
v -0.6 0.3 -0.9
v -0.5 0.3 -0.9
v 0.5 0.3 -0.9
v 0.6 0.3 -0.9
v 0.9 0.3 -0.9
v 1 0.3 -0.9
v -0.9 0.3 -1
v -0.6 0.3 -1
v 0.6 0.3 -1
v 0.9 0.3 -1
v -1 0.4 1
v -0.9 0.4 1
v -0.6 0.4 1
v -0.5 0.4 1
v 0.5 0.4 1
v 0.6 0.4 1
v 0.9 0.4 1
v 1 0.4 1
v -1 0.4 0.9
v -0.9 0.4 0.9
v -0.6 0.4 0.9
v -0.5 0.4 0.9
v 0.5 0.4 0.9
v 0.6 0.4 0.9
v 0.9 0.4 0.9
v 1 0.4 0.9
v -1 0.4 0.6
v -0.9 0.4 0.6
v -0.6 0.4 0.6
v -0.5 0.4 0.6
v 0.5 0.4 0.6
v 0.6 0.4 0.6
v 0.9 0.4 0.6
v 1 0.4 0.6
v -1 0.4 0.5
v -0.9 0.4 0.5
v -0.6 0.4 0.5
v -0.5 0.4 0.5
v 0.5 0.4 0.5
v 0.6 0.4 0.5
v 0.9 0.4 0.5
v 1 0.4 0.5
v -1 0.4 -0.5
v -0.9 0.4 -0.5
v -0.6 0.4 -0.5
v -0.5 0.4 -0.5
v 0.5 0.4 -0.5
v 0.6 0.4 -0.5
v 0.9 0.4 -0.5
v 1 0.4 -0.5
v -1 0.4 -0.6
v -0.9 0.4 -0.6
v -0.6 0.4 -0.6
v -0.5 0.4 -0.6
v 0.5 0.4 -0.6
v 0.6 0.4 -0.6
v 0.9 0.4 -0.6
v 1 0.4 -0.6
v -1 0.4 -0.9
v -0.9 0.4 -0.9
v -0.6 0.4 -0.9
v -0.5 0.4 -0.9
v 0.5 0.4 -0.9
v 0.6 0.4 -0.9
v 0.9 0.4 -0.9
v 1 0.4 -0.9
v -1 0.4 -1
v -0.9 0.4 -1
v -0.6 0.4 -1
v -0.5 0.4 -1
v 0.5 0.4 -1
v 0.6 0.4 -1
v 0.9 0.4 -1
v 1 0.4 -1

# faces
f 9/2/1 2/2/1 1/2/1
f 10/2/1 4/2/1 3/2/1
f 11/2/1 6/2/1 5/2/1
f 12/2/1 8/2/1 7/2/1
f 13/2/1 9/2/1 1/2/1
f 13/2/1 10/2/1 9/2/1
f 14/2/1 4/2/1 10/2/1
f 14/2/1 10/2/1 13/2/1
f 15/2/1 11/2/1 5/2/1
f 15/2/1 12/2/1 11/2/1
f 16/2/1 8/2/1 12/2/1
f 16/2/1 12/2/1 15/2/1
f 17/2/1 13/2/1 1/2/1
f 18/2/1 13/2/1 17/2/1
f 19/2/1 4/2/1 14/2/1
f 20/2/1 4/2/1 19/2/1
f 21/2/1 15/2/1 5/2/1
f 22/2/1 15/2/1 21/2/1
f 23/2/1 8/2/1 16/2/1
f 24/2/1 8/2/1 23/2/1
f 31/1/1 26/1/1 25/1/1
f 32/1/1 26/1/1 31/1/1
f 33/2/1 28/2/1 27/2/1
f 34/2/1 28/2/1 33/2/1
f 35/1/1 30/1/1 29/1/1
f 36/1/1 30/1/1 35/1/1
f 37/3/1 34/3/1 33/3/1
f 38/3/1 34/3/1 37/3/1
f 41/2/1 40/2/1 39/2/1
f 42/2/1 40/2/1 41/2/1
f 43/3/1 42/3/1 41/3/1
f 44/3/1 42/3/1 43/3/1
f 45/3/1 42/3/1 44/3/1
f 46/3/1 42/3/1 45/3/1
f 49/3/1 45/3/1 44/3/1
f 50/3/1 45/3/1 49/3/1
f 51/3/1 48/3/1 47/3/1
f 52/3/1 48/3/1 51/3/1
f 57/3/1 54/3/1 53/3/1
f 58/3/1 54/3/1 57/3/1
f 59/3/1 56/3/1 55/3/1
f 60/3/1 56/3/1 59/3/1
f 69/2/1 62/2/1 61/2/1
f 70/2/1 64/2/1 63/2/1
f 71/2/1 66/2/1 65/2/1
f 72/2/1 68/2/1 67/2/1
f 73/2/1 69/2/1 61/2/1
f 74/2/1 69/2/1 73/2/1
f 75/2/1 64/2/1 70/2/1
f 76/2/1 64/2/1 75/2/1
f 77/2/1 71/2/1 65/2/1
f 78/2/1 71/2/1 77/2/1
f 79/2/1 68/2/1 72/2/1
f 80/2/1 68/2/1 79/2/1
f 82/2/1 75/2/1 74/2/1
f 83/2/1 75/2/1 82/2/1
f 86/2/1 79/2/1 78/2/1
f 87/2/1 79/2/1 86/2/1
f 89/2/1 82/2/1 81/2/1
f 90/2/1 82/2/1 89/2/1
f 91/2/1 84/2/1 83/2/1
f 92/2/1 84/2/1 91/2/1
f 93/2/1 86/2/1 85/2/1
f 94/2/1 86/2/1 93/2/1
f 95/2/1 88/2/1 87/2/1
f 96/2/1 88/2/1 95/2/1
f 99/2/1 98/2/1 97/2/1
f 100/2/1 98/2/1 99/2/1
f 101/3/1 100/3/1 99/3/1
f 102/3/1 100/3/1 101/3/1
f 105/3/1 104/3/1 103/3/1
f 106/3/1 104/3/1 105/3/1
f 109/2/1 108/2/1 107/2/1
f 110/2/1 108/2/1 109/2/1
f 111/3/1 110/3/1 109/3/1
f 112/3/1 110/3/1 111/3/1
f 113/3/1 110/3/1 112/3/1
f 114/3/1 110/3/1 113/3/1
f 115/3/1 113/3/1 112/3/1
f 116/3/1 113/3/1 115/3/1
f 125/2/1 118/2/1 117/2/1
f 126/2/1 120/2/1 119/2/1
f 127/2/1 122/2/1 121/2/1
f 128/2/1 124/2/1 123/2/1
f 129/2/1 125/2/1 117/2/1
f 129/2/1 126/2/1 125/2/1
f 130/2/1 120/2/1 126/2/1
f 130/2/1 126/2/1 129/2/1
f 131/2/1 127/2/1 121/2/1
f 131/2/1 128/2/1 127/2/1
f 132/2/1 124/2/1 128/2/1
f 132/2/1 128/2/1 131/2/1
f 133/2/1 129/2/1 117/2/1
f 134/2/1 129/2/1 133/2/1
f 135/2/1 120/2/1 130/2/1
f 136/2/1 120/2/1 135/2/1
f 137/2/1 131/2/1 121/2/1
f 138/2/1 131/2/1 137/2/1
f 139/2/1 124/2/1 132/2/1
f 140/2/1 124/2/1 139/2/1
f 143/2/1 142/2/1 141/2/1
f 144/2/1 142/2/1 143/2/1
f 145/3/1 144/3/1 143/3/1
f 146/3/1 144/3/1 145/3/1
f 151/3/1 148/3/1 147/3/1
f 152/3/1 148/3/1 151/3/1
f 153/3/1 150/3/1 149/3/1
f 154/3/1 150/3/1 153/3/1
f 163/2/1 156/2/1 155/2/1
f 164/2/1 158/2/1 157/2/1
f 165/2/1 160/2/1 159/2/1
f 166/2/1 162/2/1 161/2/1
f 167/2/1 163/2/1 155/2/1
f 168/2/1 163/2/1 167/2/1
f 169/2/1 158/2/1 164/2/1
f 170/2/1 158/2/1 169/2/1
f 171/2/1 165/2/1 159/2/1
f 172/2/1 165/2/1 171/2/1
f 173/2/1 162/2/1 166/2/1
f 174/2/1 162/2/1 173/2/1
f 176/2/1 169/2/1 168/2/1
f 177/2/1 169/2/1 176/2/1
f 180/2/1 173/2/1 172/2/1
f 181/2/1 173/2/1 180/2/1
f 183/2/1 176/2/1 175/2/1
f 184/2/1 176/2/1 183/2/1
f 185/2/1 178/2/1 177/2/1
f 186/2/1 178/2/1 185/2/1
f 187/2/1 180/2/1 179/2/1
f 188/2/1 180/2/1 187/2/1
f 189/2/1 182/2/1 181/2/1
f 190/2/1 182/2/1 189/2/1
f 191/2/2 192/2/2 199/2/2
f 193/2/2 194/2/2 200/2/2
f 195/2/2 196/2/2 201/2/2
f 197/2/2 198/2/2 202/2/2
f 191/2/2 199/2/2 203/2/2
f 203/2/2 199/2/2 204/2/2
f 200/2/2 194/2/2 205/2/2
f 205/2/2 194/2/2 206/2/2
f 195/2/2 201/2/2 207/2/2
f 207/2/2 201/2/2 208/2/2
f 202/2/2 198/2/2 209/2/2
f 209/2/2 198/2/2 210/2/2
f 204/2/2 205/2/2 212/2/2
f 212/2/2 205/2/2 213/2/2
f 208/2/2 209/2/2 216/2/2
f 216/2/2 209/2/2 217/2/2
f 211/2/2 212/2/2 219/2/2
f 219/2/2 212/2/2 220/2/2
f 213/2/2 214/2/2 221/2/2
f 221/2/2 214/2/2 222/2/2
f 215/2/2 216/2/2 223/2/2
f 223/2/2 216/2/2 224/2/2
f 217/2/2 218/2/2 225/2/2
f 225/2/2 218/2/2 226/2/2
f 227/3/2 228/3/2 229/3/2
f 229/3/2 228/3/2 230/3/2
f 231/2/2 232/2/2 233/2/2
f 233/2/2 232/2/2 234/2/2
f 233/3/2 234/3/2 239/3/2
f 239/3/2 234/3/2 240/3/2
f 235/3/2 236/3/2 241/3/2
f 241/3/2 236/3/2 242/3/2
f 237/3/2 238/3/2 243/3/2
f 243/3/2 238/3/2 244/3/2
f 245/2/2 246/2/2 251/2/2
f 251/2/2 246/2/2 252/2/2
f 247/2/2 248/2/2 257/2/2
f 249/2/2 250/2/2 258/2/2
f 251/3/2 252/3/2 259/3/2
f 259/3/2 252/3/2 260/3/2
f 253/2/2 254/2/2 261/2/2
f 255/2/2 256/2/2 262/2/2
f 247/2/2 257/2/2 263/2/2
f 257/2/2 258/2/2 263/2/2
f 258/2/2 250/2/2 264/2/2
f 263/2/2 258/2/2 264/2/2
f 261/2/2 262/2/2 265/2/2
f 253/2/2 261/2/2 265/2/2
f 262/2/2 256/2/2 266/2/2
f 265/2/2 262/2/2 266/2/2
f 247/2/2 263/2/2 267/2/2
f 267/2/2 263/2/2 268/2/2
f 264/2/2 250/2/2 269/2/2
f 269/2/2 250/2/2 270/2/2
f 253/2/2 265/2/2 271/2/2
f 271/2/2 265/2/2 272/2/2
f 266/2/2 256/2/2 273/2/2
f 273/2/2 256/2/2 274/2/2
f 275/2/2 276/2/2 277/2/2
f 277/2/2 276/2/2 278/2/2
f 277/3/2 278/3/2 279/3/2
f 279/3/2 278/3/2 280/3/2
f 280/3/2 278/3/2 281/3/2
f 281/3/2 278/3/2 282/3/2
f 280/3/2 281/3/2 283/3/2
f 283/3/2 281/3/2 284/3/2
f 285/3/2 286/3/2 287/3/2
f 287/3/2 286/3/2 288/3/2
f 289/2/2 290/2/2 291/2/2
f 291/2/2 290/2/2 292/2/2
f 291/3/2 292/3/2 293/3/2
f 293/3/2 292/3/2 294/3/2
f 295/2/2 296/2/2 303/2/2
f 297/2/2 298/2/2 304/2/2
f 299/2/2 300/2/2 305/2/2
f 301/2/2 302/2/2 306/2/2
f 295/2/2 303/2/2 307/2/2
f 307/2/2 303/2/2 308/2/2
f 304/2/2 298/2/2 309/2/2
f 309/2/2 298/2/2 310/2/2
f 299/2/2 305/2/2 311/2/2
f 311/2/2 305/2/2 312/2/2
f 306/2/2 302/2/2 313/2/2
f 313/2/2 302/2/2 314/2/2
f 308/2/2 309/2/2 316/2/2
f 316/2/2 309/2/2 317/2/2
f 312/2/2 313/2/2 320/2/2
f 320/2/2 313/2/2 321/2/2
f 315/2/2 316/2/2 323/2/2
f 323/2/2 316/2/2 324/2/2
f 317/2/2 318/2/2 325/2/2
f 325/2/2 318/2/2 326/2/2
f 319/2/2 320/2/2 327/2/2
f 327/2/2 320/2/2 328/2/2
f 321/2/2 322/2/2 329/2/2
f 329/2/2 322/2/2 330/2/2
f 331/3/2 332/3/2 333/3/2
f 333/3/2 332/3/2 334/3/2
f 335/1/2 336/1/2 341/1/2
f 341/1/2 336/1/2 342/1/2
f 337/2/2 338/2/2 343/2/2
f 343/2/2 338/2/2 344/2/2
f 339/1/2 340/1/2 345/1/2
f 345/1/2 340/1/2 346/1/2
f 343/3/2 344/3/2 347/3/2
f 347/3/2 344/3/2 348/3/2
f 349/2/2 350/2/2 357/2/2
f 351/2/2 352/2/2 358/2/2
f 353/2/2 354/2/2 359/2/2
f 355/2/2 356/2/2 360/2/2
f 349/2/2 357/2/2 361/2/2
f 357/2/2 358/2/2 361/2/2
f 358/2/2 352/2/2 362/2/2
f 361/2/2 358/2/2 362/2/2
f 353/2/2 359/2/2 363/2/2
f 359/2/2 360/2/2 363/2/2
f 360/2/2 356/2/2 364/2/2
f 363/2/2 360/2/2 364/2/2
f 349/2/2 361/2/2 365/2/2
f 365/2/2 361/2/2 366/2/2
f 362/2/2 352/2/2 367/2/2
f 367/2/2 352/2/2 368/2/2
f 353/2/2 363/2/2 369/2/2
f 369/2/2 363/2/2 370/2/2
f 364/2/2 356/2/2 371/2/2
f 371/2/2 356/2/2 372/2/2
f 375/2/3 374/2/3 373/2/3
f 376/2/3 374/2/3 375/2/3
f 377/2/3 374/2/3 376/2/3
f 378/2/3 374/2/3 377/2/3
f 380/2/3 377/2/3 376/2/3
f 381/2/3 377/2/3 380/2/3
f 383/2/3 380/2/3 379/2/3
f 383/2/3 382/2/3 381/2/3
f 383/2/3 381/2/3 380/2/3
f 384/2/3 382/2/3 383/2/3
f 385/2/3 383/2/3 379/2/3
f 387/2/3 385/2/3 379/2/3
f 387/2/3 386/2/3 385/2/3
f 388/2/3 386/2/3 387/2/3
f 389/2/3 386/2/3 388/2/3
f 390/2/3 386/2/3 389/2/3
f 392/2/3 389/2/3 388/2/3
f 393/2/3 389/2/3 392/2/3
f 395/2/3 392/2/3 391/2/3
f 395/2/3 394/2/3 393/2/3
f 395/2/3 393/2/3 392/2/3
f 396/2/3 394/2/3 395/2/3
f 399/1/3 398/1/3 397/1/3
f 400/1/3 398/1/3 399/1/3
f 403/1/3 402/1/3 401/1/3
f 404/1/3 402/1/3 403/1/3
f 409/2/3 406/2/3 405/2/3
f 410/2/3 406/2/3 409/2/3
f 411/2/3 406/2/3 410/2/3
f 412/2/3 408/2/3 407/2/3
f 413/2/3 408/2/3 412/2/3
f 415/2/3 412/2/3 411/2/3
f 416/2/3 412/2/3 415/2/3
f 418/2/3 415/2/3 414/2/3
f 419/2/3 415/2/3 418/2/3
f 420/2/3 417/2/3 416/2/3
f 421/2/3 417/2/3 420/2/3
f 426/2/3 423/2/3 422/2/3
f 427/2/3 423/2/3 426/2/3
f 428/2/3 425/2/3 424/2/3
f 429/2/3 425/2/3 428/2/3
f 432/2/3 428/2/3 427/2/3
f 433/2/3 428/2/3 432/2/3
f 435/2/3 431/2/3 430/2/3
f 435/2/3 432/2/3 431/2/3
f 436/2/3 432/2/3 435/2/3
f 437/2/3 434/2/3 433/2/3
f 438/2/3 434/2/3 437/2/3
f 442/3/3 441/3/3 440/3/3
f 444/3/3 442/3/3 440/3/3
f 444/3/3 443/3/3 442/3/3
f 445/3/3 443/3/3 444/3/3
f 446/2/3 440/2/3 439/2/3
f 447/3/3 444/3/3 440/3/3
f 447/2/3 440/2/3 446/2/3
f 448/3/3 444/3/3 447/3/3
f 452/3/3 451/3/3 450/3/3
f 454/3/3 452/3/3 450/3/3
f 454/3/3 453/3/3 452/3/3
f 455/3/3 453/3/3 454/3/3
f 456/2/3 450/2/3 449/2/3
f 457/3/3 454/3/3 450/3/3
f 457/2/3 450/2/3 456/2/3
f 458/3/3 454/3/3 457/3/3
f 461/3/3 460/3/3 459/3/3
f 462/3/3 460/3/3 461/3/3
f 465/3/3 464/3/3 463/3/3
f 466/3/3 464/3/3 465/3/3
f 470/3/3 469/3/3 468/3/3
f 472/3/3 470/3/3 468/3/3
f 472/3/3 471/3/3 470/3/3
f 473/3/3 471/3/3 472/3/3
f 474/2/3 468/2/3 467/2/3
f 475/3/3 472/3/3 468/3/3
f 475/2/3 468/2/3 474/2/3
f 476/3/3 472/3/3 475/3/3
f 480/2/3 478/2/3 477/2/3
f 481/3/3 479/3/3 478/3/3
f 481/2/3 478/2/3 480/2/3
f 482/3/3 479/3/3 481/3/3
f 486/3/3 485/3/3 484/3/3
f 488/3/3 486/3/3 484/3/3
f 488/3/3 487/3/3 486/3/3
f 489/3/3 487/3/3 488/3/3
f 490/2/3 484/2/3 483/2/3
f 491/3/3 488/3/3 484/3/3
f 491/2/3 484/2/3 490/2/3
f 492/3/3 488/3/3 491/3/3
f 495/3/3 494/3/3 493/3/3
f 496/3/3 494/3/3 495/3/3
f 499/2/3 498/2/3 497/2/3
f 500/2/3 498/2/3 499/2/3
f 501/2/3 498/2/3 500/2/3
f 502/2/3 498/2/3 501/2/3
f 504/2/3 501/2/3 500/2/3
f 505/2/3 501/2/3 504/2/3
f 507/2/3 504/2/3 503/2/3
f 507/2/3 506/2/3 505/2/3
f 507/2/3 505/2/3 504/2/3
f 508/2/3 506/2/3 507/2/3
f 509/2/3 507/2/3 503/2/3
f 511/2/3 509/2/3 503/2/3
f 511/2/3 510/2/3 509/2/3
f 512/2/3 510/2/3 511/2/3
f 513/2/3 510/2/3 512/2/3
f 514/2/3 510/2/3 513/2/3
f 516/2/3 513/2/3 512/2/3
f 517/2/3 513/2/3 516/2/3
f 519/2/3 516/2/3 515/2/3
f 519/2/3 518/2/3 517/2/3
f 519/2/3 517/2/3 516/2/3
f 520/2/3 518/2/3 519/2/3
f 523/1/3 522/1/3 521/1/3
f 524/1/3 522/1/3 523/1/3
f 527/1/3 526/1/3 525/1/3
f 528/1/3 526/1/3 527/1/3
f 533/2/3 530/2/3 529/2/3
f 534/2/3 530/2/3 533/2/3
f 535/2/3 530/2/3 534/2/3
f 536/2/3 532/2/3 531/2/3
f 537/2/3 532/2/3 536/2/3
f 539/2/3 536/2/3 535/2/3
f 540/2/3 536/2/3 539/2/3
f 542/2/3 539/2/3 538/2/3
f 543/2/3 539/2/3 542/2/3
f 544/2/3 541/2/3 540/2/3
f 545/2/3 541/2/3 544/2/3
f 550/2/3 547/2/3 546/2/3
f 551/2/3 547/2/3 550/2/3
f 552/2/3 549/2/3 548/2/3
f 553/2/3 549/2/3 552/2/3
f 556/2/3 552/2/3 551/2/3
f 557/2/3 552/2/3 556/2/3
f 559/2/3 555/2/3 554/2/3
f 559/2/3 556/2/3 555/2/3
f 560/2/3 556/2/3 559/2/3
f 561/2/3 558/2/3 557/2/3
f 562/2/3 558/2/3 561/2/3
f 563/2/4 564/2/4 567/2/4
f 567/2/4 564/2/4 568/2/4
f 568/2/4 564/2/4 569/2/4
f 565/2/4 566/2/4 570/2/4
f 570/2/4 566/2/4 571/2/4
f 569/2/4 570/2/4 573/2/4
f 573/2/4 570/2/4 574/2/4
f 572/2/4 573/2/4 576/2/4
f 576/2/4 573/2/4 577/2/4
f 574/2/4 575/2/4 578/2/4
f 578/2/4 575/2/4 579/2/4
f 580/2/4 581/2/4 584/2/4
f 584/2/4 581/2/4 585/2/4
f 582/2/4 583/2/4 586/2/4
f 586/2/4 583/2/4 587/2/4
f 585/2/4 586/2/4 590/2/4
f 590/2/4 586/2/4 591/2/4
f 588/2/4 589/2/4 593/2/4
f 589/2/4 590/2/4 593/2/4
f 593/2/4 590/2/4 594/2/4
f 591/2/4 592/2/4 595/2/4
f 595/2/4 592/2/4 596/2/4
f 597/1/4 598/1/4 599/1/4
f 599/1/4 598/1/4 600/1/4
f 601/1/4 602/1/4 603/1/4
f 603/1/4 602/1/4 604/1/4
f 605/2/4 606/2/4 607/2/4
f 607/2/4 606/2/4 608/2/4
f 608/2/4 606/2/4 609/2/4
f 609/2/4 606/2/4 610/2/4
f 608/2/4 609/2/4 612/2/4
f 612/2/4 609/2/4 613/2/4
f 611/2/4 612/2/4 615/2/4
f 613/2/4 614/2/4 615/2/4
f 612/2/4 613/2/4 615/2/4
f 615/2/4 614/2/4 616/2/4
f 611/2/4 615/2/4 617/2/4
f 611/2/4 617/2/4 619/2/4
f 617/2/4 618/2/4 619/2/4
f 619/2/4 618/2/4 620/2/4
f 620/2/4 618/2/4 621/2/4
f 621/2/4 618/2/4 622/2/4
f 620/2/4 621/2/4 624/2/4
f 624/2/4 621/2/4 625/2/4
f 623/2/4 624/2/4 627/2/4
f 625/2/4 626/2/4 627/2/4
f 624/2/4 625/2/4 627/2/4
f 627/2/4 626/2/4 628/2/4
f 629/3/4 630/3/4 631/3/4
f 631/3/4 630/3/4 632/3/4
f 633/3/4 634/3/4 635/3/4
f 635/3/4 634/3/4 636/3/4
f 637/2/4 638/2/4 640/2/4
f 638/3/4 639/3/4 641/3/4
f 640/2/4 638/2/4 641/2/4
f 641/3/4 639/3/4 642/3/4
f 644/3/4 645/3/4 646/3/4
f 644/3/4 646/3/4 648/3/4
f 646/3/4 647/3/4 648/3/4
f 648/3/4 647/3/4 649/3/4
f 643/2/4 644/2/4 650/2/4
f 644/3/4 648/3/4 651/3/4
f 650/2/4 644/2/4 651/2/4
f 651/3/4 648/3/4 652/3/4
f 654/3/4 655/3/4 656/3/4
f 654/3/4 656/3/4 658/3/4
f 656/3/4 657/3/4 658/3/4
f 658/3/4 657/3/4 659/3/4
f 653/2/4 654/2/4 660/2/4
f 654/3/4 658/3/4 661/3/4
f 660/2/4 654/2/4 661/2/4
f 661/3/4 658/3/4 662/3/4
f 663/3/4 664/3/4 665/3/4
f 665/3/4 664/3/4 666/3/4
f 668/3/4 669/3/4 670/3/4
f 668/3/4 670/3/4 672/3/4
f 670/3/4 671/3/4 672/3/4
f 672/3/4 671/3/4 673/3/4
f 667/2/4 668/2/4 674/2/4
f 668/3/4 672/3/4 675/3/4
f 674/2/4 668/2/4 675/2/4
f 675/3/4 672/3/4 676/3/4
f 678/3/4 679/3/4 680/3/4
f 678/3/4 680/3/4 682/3/4
f 680/3/4 681/3/4 682/3/4
f 682/3/4 681/3/4 683/3/4
f 677/2/4 678/2/4 684/2/4
f 678/3/4 682/3/4 685/3/4
f 684/2/4 678/2/4 685/2/4
f 685/3/4 682/3/4 686/3/4
f 687/2/4 688/2/4 691/2/4
f 691/2/4 688/2/4 692/2/4
f 692/2/4 688/2/4 693/2/4
f 689/2/4 690/2/4 694/2/4
f 694/2/4 690/2/4 695/2/4
f 693/2/4 694/2/4 697/2/4
f 697/2/4 694/2/4 698/2/4
f 696/2/4 697/2/4 700/2/4
f 700/2/4 697/2/4 701/2/4
f 698/2/4 699/2/4 702/2/4
f 702/2/4 699/2/4 703/2/4
f 704/2/4 705/2/4 708/2/4
f 708/2/4 705/2/4 709/2/4
f 706/2/4 707/2/4 710/2/4
f 710/2/4 707/2/4 711/2/4
f 709/2/4 710/2/4 714/2/4
f 714/2/4 710/2/4 715/2/4
f 712/2/4 713/2/4 717/2/4
f 713/2/4 714/2/4 717/2/4
f 717/2/4 714/2/4 718/2/4
f 715/2/4 716/2/4 719/2/4
f 719/2/4 716/2/4 720/2/4
f 721/1/4 722/1/4 723/1/4
f 723/1/4 722/1/4 724/1/4
f 725/1/4 726/1/4 727/1/4
f 727/1/4 726/1/4 728/1/4
f 729/2/4 730/2/4 731/2/4
f 731/2/4 730/2/4 732/2/4
f 732/2/4 730/2/4 733/2/4
f 733/2/4 730/2/4 734/2/4
f 732/2/4 733/2/4 736/2/4
f 736/2/4 733/2/4 737/2/4
f 735/2/4 736/2/4 739/2/4
f 737/2/4 738/2/4 739/2/4
f 736/2/4 737/2/4 739/2/4
f 739/2/4 738/2/4 740/2/4
f 735/2/4 739/2/4 741/2/4
f 735/2/4 741/2/4 743/2/4
f 741/2/4 742/2/4 743/2/4
f 743/2/4 742/2/4 744/2/4
f 744/2/4 742/2/4 745/2/4
f 745/2/4 742/2/4 746/2/4
f 744/2/4 745/2/4 748/2/4
f 748/2/4 745/2/4 749/2/4
f 747/2/4 748/2/4 751/2/4
f 749/2/4 750/2/4 751/2/4
f 748/2/4 749/2/4 751/2/4
f 751/2/4 750/2/4 752/2/4
f 759/2/5 754/2/5 753/2/5
f 760/2/5 754/2/5 759/2/5
f 761/2/5 756/2/5 755/2/5
f 762/2/5 756/2/5 761/2/5
f 763/2/5 758/2/5 757/2/5
f 764/2/5 758/2/5 763/2/5
f 766/1/5 762/1/5 761/1/5
f 766/1/5 763/1/5 762/1/5
f 766/1/5 761/1/5 760/1/5
f 767/1/5 763/1/5 766/1/5
f 768/1/5 763/1/5 767/1/5
f 769/1/5 763/1/5 768/1/5
f 771/2/5 766/2/5 765/2/5
f 772/2/5 766/2/5 771/2/5
f 773/2/5 768/2/5 767/2/5
f 774/2/5 768/2/5 773/2/5
f 775/2/5 770/2/5 769/2/5
f 776/2/5 770/2/5 775/2/5
f 783/2/5 778/2/5 777/2/5
f 784/2/5 778/2/5 783/2/5
f 785/2/5 780/2/5 779/2/5
f 786/2/5 780/2/5 785/2/5
f 787/2/5 783/2/5 777/2/5
f 788/2/5 783/2/5 787/2/5
f 790/2/5 782/2/5 781/2/5
f 793/2/5 790/2/5 789/2/5
f 794/2/5 782/2/5 790/2/5
f 794/2/5 790/2/5 793/2/5
f 795/2/5 792/2/5 791/2/5
f 796/2/5 792/2/5 795/2/5
f 803/2/5 798/2/5 797/2/5
f 804/2/5 798/2/5 803/2/5
f 805/2/5 800/2/5 799/2/5
f 806/2/5 800/2/5 805/2/5
f 807/2/5 802/2/5 801/2/5
f 808/2/5 802/2/5 807/2/5
f 810/1/5 806/1/5 805/1/5
f 810/1/5 807/1/5 806/1/5
f 810/1/5 805/1/5 804/1/5
f 811/1/5 807/1/5 810/1/5
f 812/1/5 807/1/5 811/1/5
f 813/1/5 807/1/5 812/1/5
f 815/2/5 810/2/5 809/2/5
f 816/2/5 810/2/5 815/2/5
f 817/2/5 812/2/5 811/2/5
f 818/2/5 812/2/5 817/2/5
f 819/2/5 814/2/5 813/2/5
f 820/2/5 814/2/5 819/2/5
f 826/2/5 822/2/5 821/2/5
f 827/2/5 822/2/5 826/2/5
f 830/2/5 824/2/5 823/2/5
f 831/2/5 824/2/5 830/2/5
f 833/2/5 826/2/5 825/2/5
f 834/2/5 826/2/5 833/2/5
f 835/2/5 828/2/5 827/2/5
f 836/2/5 828/2/5 835/2/5
f 837/2/5 830/2/5 829/2/5
f 838/2/5 830/2/5 837/2/5
f 839/2/5 832/2/5 831/2/5
f 840/2/5 832/2/5 839/2/5
f 841/2/5 835/2/5 834/2/5
f 842/2/5 835/2/5 841/2/5
f 843/2/5 839/2/5 838/2/5
f 844/2/5 839/2/5 843/2/5
f 850/2/5 846/2/5 845/2/5
f 851/2/5 846/2/5 850/2/5
f 854/2/5 848/2/5 847/2/5
f 855/2/5 848/2/5 854/2/5
f 857/2/5 850/2/5 849/2/5
f 858/2/5 850/2/5 857/2/5
f 859/2/5 852/2/5 851/2/5
f 860/2/5 852/2/5 859/2/5
f 861/2/5 854/2/5 853/2/5
f 862/2/5 854/2/5 861/2/5
f 863/2/5 856/2/5 855/2/5
f 864/2/5 856/2/5 863/2/5
f 865/2/5 859/2/5 858/2/5
f 866/2/5 859/2/5 865/2/5
f 867/2/5 863/2/5 862/2/5
f 868/2/5 863/2/5 867/2/5
f 869/2/6 870/2/6 873/2/6
f 873/2/6 870/2/6 874/2/6
f 871/1/6 872/1/6 877/1/6
f 875/1/6 876/1/6 877/1/6
f 874/1/6 875/1/6 877/1/6
f 873/1/6 874/1/6 877/1/6
f 872/1/6 873/1/6 877/1/6
f 877/1/6 876/1/6 878/1/6
f 878/1/6 876/1/6 879/1/6
f 879/1/6 876/1/6 880/1/6
f 880/1/6 876/1/6 881/1/6
f 881/1/6 876/1/6 882/1/6
f 879/2/6 880/2/6 883/2/6
f 883/2/6 880/2/6 884/2/6
f 885/2/6 886/2/6 889/2/6
f 889/2/6 886/2/6 890/2/6
f 889/1/6 890/1/6 893/1/6
f 891/1/6 892/1/6 893/1/6
f 890/1/6 891/1/6 893/1/6
f 888/1/6 889/1/6 893/1/6
f 887/1/6 888/1/6 893/1/6
f 893/1/6 892/1/6 894/1/6
f 894/1/6 892/1/6 895/1/6
f 895/1/6 892/1/6 896/1/6
f 896/1/6 892/1/6 897/1/6
f 897/1/6 892/1/6 898/1/6
f 895/2/6 896/2/6 899/2/6
f 899/2/6 896/2/6 900/2/6
f 901/3/6 902/3/6 909/3/6
f 909/3/6 902/3/6 910/3/6
f 903/3/6 904/3/6 911/3/6
f 911/3/6 904/3/6 912/3/6
f 919/3/6 920/3/6 921/3/6
f 921/3/6 920/3/6 922/3/6
f 905/3/6 906/3/6 923/3/6
f 923/3/6 906/3/6 924/3/6
f 907/3/6 908/3/6 925/3/6
f 925/3/6 908/3/6 926/3/6
f 917/3/6 918/3/6 927/3/6
f 927/3/6 918/3/6 928/3/6
f 919/3/6 921/3/6 929/3/6
f 929/3/6 921/3/6 930/3/6
f 913/3/6 914/3/6 932/3/6
f 931/3/6 932/3/6 937/3/6
f 932/3/6 914/3/6 938/3/6
f 937/3/6 932/3/6 938/3/6
f 939/3/6 940/3/6 941/3/6
f 941/3/6 940/3/6 942/3/6
f 915/3/6 916/3/6 943/3/6
f 943/3/6 916/3/6 944/3/6
f 933/3/6 934/3/6 945/3/6
f 945/3/6 934/3/6 946/3/6
f 935/3/6 936/3/6 947/3/6
f 947/3/6 936/3/6 948/3/6
f 949/2/6 950/2/6 954/2/6
f 954/2/6 950/2/6 955/2/6
f 951/2/6 952/2/6 958/2/6
f 958/2/6 952/2/6 959/2/6
f 953/2/6 954/2/6 961/2/6
f 961/2/6 954/2/6 962/2/6
f 955/2/6 956/2/6 963/2/6
f 963/2/6 956/2/6 964/2/6
f 957/2/6 958/2/6 965/2/6
f 965/2/6 958/2/6 966/2/6
f 959/2/6 960/2/6 967/2/6
f 967/2/6 960/2/6 968/2/6
f 962/2/6 963/2/6 969/2/6
f 969/2/6 963/2/6 970/2/6
f 966/2/6 967/2/6 971/2/6
f 971/2/6 967/2/6 972/2/6
f 973/3/6 974/3/6 978/3/6
f 978/3/6 974/3/6 979/3/6
f 977/3/6 978/3/6 983/3/6
f 978/3/6 979/3/6 983/3/6
f 979/3/6 980/3/6 983/3/6
f 983/3/6 980/3/6 984/3/6
f 984/3/6 980/3/6 985/3/6
f 985/3/6 980/3/6 986/3/6
f 975/3/6 976/3/6 987/3/6
f 987/3/6 976/3/6 988/3/6
f 984/3/6 985/3/6 989/3/6
f 989/3/6 985/3/6 990/3/6
f 981/3/6 982/3/6 994/3/6
f 993/3/6 994/3/6 995/3/6
f 994/3/6 982/3/6 996/3/6
f 995/3/6 994/3/6 996/3/6
f 996/3/6 982/3/6 997/3/6
f 997/3/6 982/3/6 998/3/6
f 991/3/6 992/3/6 999/3/6
f 999/3/6 992/3/6 1000/3/6
f 1001/2/6 1002/2/6 1006/2/6
f 1006/2/6 1002/2/6 1007/2/6
f 1003/2/6 1004/2/6 1010/2/6
f 1010/2/6 1004/2/6 1011/2/6
f 1005/2/6 1006/2/6 1013/2/6
f 1013/2/6 1006/2/6 1014/2/6
f 1007/2/6 1008/2/6 1015/2/6
f 1015/2/6 1008/2/6 1016/2/6
f 1009/2/6 1010/2/6 1017/2/6
f 1017/2/6 1010/2/6 1018/2/6
f 1011/2/6 1012/2/6 1019/2/6
f 1019/2/6 1012/2/6 1020/2/6
f 1014/2/6 1015/2/6 1021/2/6
f 1021/2/6 1015/2/6 1022/2/6
f 1018/2/6 1019/2/6 1023/2/6
f 1023/2/6 1019/2/6 1024/2/6
f 1025/2/6 1026/2/6 1033/2/6
f 1033/2/6 1026/2/6 1034/2/6
f 1027/2/6 1028/2/6 1035/2/6
f 1035/2/6 1028/2/6 1036/2/6
f 1029/2/6 1030/2/6 1037/2/6
f 1037/2/6 1030/2/6 1038/2/6
f 1031/2/6 1032/2/6 1039/2/6
f 1039/2/6 1032/2/6 1040/2/6
f 1041/2/6 1042/2/6 1049/2/6
f 1049/2/6 1042/2/6 1050/2/6
f 1043/2/6 1044/2/6 1051/2/6
f 1051/2/6 1044/2/6 1052/2/6
f 1045/2/6 1046/2/6 1053/2/6
f 1053/2/6 1046/2/6 1054/2/6
f 1047/2/6 1048/2/6 1055/2/6
f 1055/2/6 1048/2/6 1056/2/6
f 1057/2/6 1058/2/6 1065/2/6
f 1065/2/6 1058/2/6 1066/2/6
f 1059/2/6 1060/2/6 1067/2/6
f 1067/2/6 1060/2/6 1068/2/6
f 1061/2/6 1062/2/6 1069/2/6
f 1069/2/6 1062/2/6 1070/2/6
f 1063/2/6 1064/2/6 1071/2/6
f 1071/2/6 1064/2/6 1072/2/6
f 1073/2/6 1074/2/6 1081/2/6
f 1081/2/6 1074/2/6 1082/2/6
f 1075/2/6 1076/2/6 1083/2/6
f 1083/2/6 1076/2/6 1084/2/6
f 1077/2/6 1078/2/6 1085/2/6
f 1085/2/6 1078/2/6 1086/2/6
f 1079/2/6 1080/2/6 1087/2/6
f 1087/2/6 1080/2/6 1088/2/6
