# MagicaVoxel @ Ephtracy

# group
o 

# material
mtllib center_city_walls_plus.mtl
usemtl palette

# normals
vn -1 0 0
vn 1 0 0
vn 0 0 1
vn 0 0 -1
vn 0 -1 0
vn 0 1 0

# texcoords
vt 0.0371094 0.5
vt 0.373047 0.5
vt 0.830078 0.5
vt 0.849609 0.5

# verts
v -1 0 1
v -1 0 0.9
v -1 0 0.6
v -1 0 0.5
v -1 0 -0.5
v -1 0 -0.6
v -1 0 -0.9
v -1 0 -1
v -1 0.2 0.9
v -1 0.2 0.6
v -1 0.2 -0.6
v -1 0.2 -0.9
v -1 0.3 0.9
v -1 0.3 0.6
v -1 0.3 -0.6
v -1 0.3 -0.9
v -1 0.4 1
v -1 0.4 0.9
v -1 0.4 0.6
v -1 0.4 0.5
v -1 0.4 -0.5
v -1 0.4 -0.6
v -1 0.4 -0.9
v -1 0.4 -1
v -0.9 0 0.9
v -0.9 0 0.6
v -0.9 0 -0.1
v -0.9 0 -0.4
v -0.9 0 -0.6
v -0.9 0 -0.9
v -0.9 0.1 0.9
v -0.9 0.1 0.6
v -0.9 0.1 -0.1
v -0.9 0.1 -0.4
v -0.9 0.1 -0.6
v -0.9 0.1 -0.9
v -0.9 0.2 -0.1
v -0.9 0.2 -0.4
v -0.8 0 0.4
v -0.8 0 -1.19209e-07
v -0.8 0.1 0.4
v -0.8 0.1 -1.19209e-07
v -0.8 0.2 0.4
v -0.8 0.2 0.3
v -0.8 0.2 0.2
v -0.8 0.2 -1.19209e-07
v -0.8 0.2 -0.1
v -0.8 0.2 -0.4
v -0.8 0.3 0.3
v -0.8 0.3 0.2
v -0.8 0.3 -0.1
v -0.8 0.3 -0.4
v -0.7 0.2 0.4
v -0.7 0.2 0.3
v -0.7 0.2 0.2
v -0.7 0.2 -1.19209e-07
v -0.7 0.3 0.4
v -0.7 0.3 0.3
v -0.7 0.3 0.2
v -0.7 0.3 -1.19209e-07
v -0.6 0 1
v -0.6 0 0.9
v -0.6 0 0.6
v -0.6 0 0.5
v -0.6 0 -0.5
v -0.6 0 -0.6
v -0.6 0 -0.9
v -0.6 0 -1
v -0.6 0.1 0.9
v -0.6 0.1 0.6
v -0.6 0.1 -0.6
v -0.6 0.1 -0.9
v -0.6 0.2 1
v -0.6 0.2 0.9
v -0.6 0.2 0.6
v -0.6 0.2 0.5
v -0.6 0.2 -0.5
v -0.6 0.2 -0.6
v -0.6 0.2 -0.9
v -0.6 0.2 -1
v -0.6 0.3 1
v -0.6 0.3 0.9
v -0.6 0.3 0.6
v -0.6 0.3 0.5
v -0.6 0.3 -0.5
v -0.6 0.3 -0.6
v -0.6 0.3 -0.9
v -0.6 0.3 -1
v -0.6 0.4 1
v -0.6 0.4 0.9
v -0.6 0.4 0.6
v -0.6 0.4 0.5
v -0.6 0.4 -0.5
v -0.6 0.4 -0.6
v -0.6 0.4 -0.9
v -0.6 0.4 -1
v 1.19209e-07 0 0.4
v 1.19209e-07 0 0.0999999
v 1.19209e-07 0.5 0.4
v 1.19209e-07 0.5 0.0999999
v 1.19209e-07 0.6 0.4
v 1.19209e-07 0.6 0.3
v 1.19209e-07 0.6 0.2
v 1.19209e-07 0.6 0.0999999
v 1.19209e-07 0.7 0.3
v 1.19209e-07 0.7 0.2
v 0.1 0.6 0.4
v 0.1 0.6 0.3
v 0.1 0.6 0.2
v 0.1 0.6 0.0999999
v 0.1 0.7 0.4
v 0.1 0.7 0.3
v 0.1 0.7 0.2
v 0.1 0.7 0.0999999
v 0.1 0.8 0.3
v 0.1 0.8 0.2
v 0.4 0 -1.19209e-07
v 0.4 0 -0.3
v 0.4 0.1 -1.19209e-07
v 0.4 0.1 -0.3
v 0.4 0.2 -1.19209e-07
v 0.4 0.2 -0.1
v 0.4 0.2 -0.2
v 0.4 0.2 -0.3
v 0.4 0.3 -0.1
v 0.4 0.3 -0.2
v 0.5 0.1 1
v 0.5 0.1 0.9
v 0.5 0.1 0.6
v 0.5 0.1 0.5
v 0.5 0.1 -0.5
v 0.5 0.1 -0.6
v 0.5 0.1 -0.9
v 0.5 0.1 -1
v 0.5 0.2 0.9
v 0.5 0.2 0.6
v 0.5 0.2 -0.6
v 0.5 0.2 -0.9
v 0.5 0.3 0.9
v 0.5 0.3 0.6
v 0.5 0.3 -0.6
v 0.5 0.3 -0.9
v 0.5 0.4 1
v 0.5 0.4 0.9
v 0.5 0.4 0.6
v 0.5 0.4 0.5
v 0.5 0.4 -0.5
v 0.5 0.4 -0.6
v 0.5 0.4 -0.9
v 0.5 0.4 -1
v 0.6 0 0.3
v 0.6 0 -1.19209e-07
v 0.6 0.1 0.3
v 0.6 0.1 -1.19209e-07
v 0.6 0.2 0.3
v 0.6 0.2 -1.19209e-07
v 0.7 0.2 0.3
v 0.7 0.2 -0.1
v 0.7 0.2 -0.2
v 0.7 0.2 -0.3
v 0.7 0.3 0.3
v 0.7 0.3 -0.1
v 0.7 0.3 -0.2
v 0.7 0.3 -0.3
v 0.9 0 1
v 0.9 0 0.9
v 0.9 0 0.6
v 0.9 0 0.5
v 0.9 0 -0.5
v 0.9 0 -0.6
v 0.9 0 -0.9
v 0.9 0 -1
v 0.9 0.1 0.9
v 0.9 0.1 0.6
v 0.9 0.1 -0.6
v 0.9 0.1 -0.9
v 0.9 0.2 1
v 0.9 0.2 0.9
v 0.9 0.2 0.6
v 0.9 0.2 0.5
v 0.9 0.2 -0.5
v 0.9 0.2 -0.6
v 0.9 0.2 -0.9
v 0.9 0.2 -1
v 0.9 0.3 1
v 0.9 0.3 0.9
v 0.9 0.3 0.6
v 0.9 0.3 0.5
v 0.9 0.3 -0.5
v 0.9 0.3 -0.6
v 0.9 0.3 -0.9
v 0.9 0.3 -1
v 0.9 0.4 1
v 0.9 0.4 0.9
v 0.9 0.4 0.6
v 0.9 0.4 0.5
v 0.9 0.4 -0.5
v 0.9 0.4 -0.6
v 0.9 0.4 -0.9
v 0.9 0.4 -1
v -0.9 0 1
v -0.9 0 0.9
v -0.9 0 0.6
v -0.9 0 0.5
v -0.9 0 -0.5
v -0.9 0 -0.6
v -0.9 0 -0.9
v -0.9 0 -1
v -0.9 0.1 0.9
v -0.9 0.1 0.6
v -0.9 0.1 -0.6
v -0.9 0.1 -0.9
v -0.9 0.2 1
v -0.9 0.2 0.9
v -0.9 0.2 0.6
v -0.9 0.2 0.5
v -0.9 0.2 -0.5
v -0.9 0.2 -0.6
v -0.9 0.2 -0.9
v -0.9 0.2 -1
v -0.9 0.3 1
v -0.9 0.3 0.9
v -0.9 0.3 0.6
v -0.9 0.3 0.5
v -0.9 0.3 -0.5
v -0.9 0.3 -0.6
v -0.9 0.3 -0.9
v -0.9 0.3 -1
v -0.9 0.4 1
v -0.9 0.4 0.9
v -0.9 0.4 0.6
v -0.9 0.4 0.5
v -0.9 0.4 -0.5
v -0.9 0.4 -0.6
v -0.9 0.4 -0.9
v -0.9 0.4 -1
v -0.7 0.2 -0.1
v -0.7 0.2 -0.4
v -0.7 0.3 -0.1
v -0.7 0.3 -0.4
v -0.6 0 -0.1
v -0.6 0 -0.4
v -0.6 0.1 -0.1
v -0.6 0.1 -0.4
v -0.6 0.2 0.4
v -0.6 0.2 0.3
v -0.6 0.2 0.2
v -0.6 0.2 -1.19209e-07
v -0.6 0.2 -0.1
v -0.6 0.2 -0.4
v -0.6 0.3 0.4
v -0.6 0.3 0.3
v -0.6 0.3 0.2
v -0.6 0.3 -1.19209e-07
v -0.5 0 0.0999999
v -0.5 0 -1.19209e-07
v -0.5 0.1 1
v -0.5 0.1 0.9
v -0.5 0.1 0.6
v -0.5 0.1 0.5
v -0.5 0.1 0.0999999
v -0.5 0.1 -1.19209e-07
v -0.5 0.1 -0.5
v -0.5 0.1 -0.6
v -0.5 0.1 -0.9
v -0.5 0.1 -1
v -0.5 0.2 0.9
v -0.5 0.2 0.6
v -0.5 0.2 0.0999999
v -0.5 0.2 -1.19209e-07
v -0.5 0.2 -0.6
v -0.5 0.2 -0.9
v -0.5 0.3 0.9
v -0.5 0.3 0.6
v -0.5 0.3 -0.6
v -0.5 0.3 -0.9
v -0.5 0.4 1
v -0.5 0.4 0.9
v -0.5 0.4 0.6
v -0.5 0.4 0.5
v -0.5 0.4 -0.5
v -0.5 0.4 -0.6
v -0.5 0.4 -0.9
v -0.5 0.4 -1
v -0.2 0 0.4
v -0.2 0 0.0999999
v -0.2 0.1 0.4
v -0.2 0.1 0.0999999
v -0.2 0.2 0.4
v -0.2 0.2 0.3
v -0.2 0.2 0.2
v -0.2 0.2 0.0999999
v -0.2 0.3 0.3
v -0.2 0.3 0.2
v 0.2 0.6 0.4
v 0.2 0.6 0.3
v 0.2 0.6 0.2
v 0.2 0.6 0.0999999
v 0.2 0.7 0.4
v 0.2 0.7 0.3
v 0.2 0.7 0.2
v 0.2 0.7 0.0999999
v 0.2 0.8 0.3
v 0.2 0.8 0.2
v 0.3 0 0.4
v 0.3 0 0.0999999
v 0.3 0.5 0.4
v 0.3 0.5 0.0999999
v 0.3 0.6 0.4
v 0.3 0.6 0.3
v 0.3 0.6 0.2
v 0.3 0.6 0.0999999
v 0.3 0.7 0.3
v 0.3 0.7 0.2
v 0.6 0 1
v 0.6 0 0.9
v 0.6 0 0.6
v 0.6 0 0.5
v 0.6 0 -0.5
v 0.6 0 -0.6
v 0.6 0 -0.9
v 0.6 0 -1
v 0.6 0.1 0.9
v 0.6 0.1 0.6
v 0.6 0.1 -0.6
v 0.6 0.1 -0.9
v 0.6 0.2 1
v 0.6 0.2 0.9
v 0.6 0.2 0.6
v 0.6 0.2 0.5
v 0.6 0.2 -0.5
v 0.6 0.2 -0.6
v 0.6 0.2 -0.9
v 0.6 0.2 -1
v 0.6 0.3 1
v 0.6 0.3 0.9
v 0.6 0.3 0.6
v 0.6 0.3 0.5
v 0.6 0.3 -0.5
v 0.6 0.3 -0.6
v 0.6 0.3 -0.9
v 0.6 0.3 -1
v 0.6 0.4 1
v 0.6 0.4 0.9
v 0.6 0.4 0.6
v 0.6 0.4 0.5
v 0.6 0.4 -0.5
v 0.6 0.4 -0.6
v 0.6 0.4 -0.9
v 0.6 0.4 -1
v 0.8 0.2 0.3
v 0.8 0.2 -0.3
v 0.8 0.3 0.3
v 0.8 0.3 -0.3
v 0.9 0 0.9
v 0.9 0 0.6
v 0.9 0 0.3
v 0.9 0 -0.3
v 0.9 0 -0.6
v 0.9 0 -0.9
v 0.9 0.1 0.9
v 0.9 0.1 0.6
v 0.9 0.1 0.3
v 0.9 0.1 -0.3
v 0.9 0.1 -0.6
v 0.9 0.1 -0.9
v 0.9 0.2 0.3
v 0.9 0.2 -0.3
v 1 0 1
v 1 0 0.9
v 1 0 0.6
v 1 0 0.5
v 1 0 -0.5
v 1 0 -0.6
v 1 0 -0.9
v 1 0 -1
v 1 0.2 0.9
v 1 0.2 0.6
v 1 0.2 -0.6
v 1 0.2 -0.9
v 1 0.3 0.9
v 1 0.3 0.6
v 1 0.3 -0.6
v 1 0.3 -0.9
v 1 0.4 1
v 1 0.4 0.9
v 1 0.4 0.6
v 1 0.4 0.5
v 1 0.4 -0.5
v 1 0.4 -0.6
v 1 0.4 -0.9
v 1 0.4 -1
v -1 0 1
v -1 0.4 1
v -0.9 0 1
v -0.9 0.2 1
v -0.9 0.3 1
v -0.9 0.4 1
v -0.6 0 1
v -0.6 0.2 1
v -0.6 0.3 1
v -0.6 0.4 1
v -0.5 0.1 1
v -0.5 0.4 1
v 0.5 0.1 1
v 0.5 0.4 1
v 0.6 0 1
v 0.6 0.2 1
v 0.6 0.3 1
v 0.6 0.4 1
v 0.9 0 1
v 0.9 0.2 1
v 0.9 0.3 1
v 0.9 0.4 1
v 1 0 1
v 1 0.4 1
v -0.9 0 0.9
v -0.9 0.1 0.9
v -0.6 0 0.9
v -0.6 0.1 0.9
v 0.6 0 0.9
v 0.6 0.1 0.9
v 0.9 0 0.9
v 0.9 0.1 0.9
v -1 0 0.6
v -1 0.2 0.6
v -1 0.3 0.6
v -1 0.4 0.6
v -0.9 0 0.6
v -0.9 0.1 0.6
v -0.9 0.2 0.6
v -0.9 0.3 0.6
v -0.9 0.4 0.6
v -0.6 0.1 0.6
v -0.6 0.2 0.6
v -0.6 0.3 0.6
v -0.6 0.4 0.6
v -0.5 0.1 0.6
v -0.5 0.2 0.6
v -0.5 0.3 0.6
v -0.5 0.4 0.6
v 0.5 0.1 0.6
v 0.5 0.2 0.6
v 0.5 0.3 0.6
v 0.5 0.4 0.6
v 0.6 0.1 0.6
v 0.6 0.2 0.6
v 0.6 0.3 0.6
v 0.6 0.4 0.6
v 0.9 0 0.6
v 0.9 0.1 0.6
v 0.9 0.2 0.6
v 0.9 0.3 0.6
v 0.9 0.4 0.6
v 1 0 0.6
v 1 0.2 0.6
v 1 0.3 0.6
v 1 0.4 0.6
v -0.8 0 0.4
v -0.8 0.1 0.4
v -0.8 0.2 0.4
v -0.7 0.2 0.4
v -0.7 0.3 0.4
v -0.6 0.2 0.4
v -0.6 0.3 0.4
v -0.2 0 0.4
v -0.2 0.1 0.4
v -0.2 0.2 0.4
v 1.19209e-07 0 0.4
v 1.19209e-07 0.5 0.4
v 1.19209e-07 0.6 0.4
v 0.1 0.6 0.4
v 0.1 0.7 0.4
v 0.2 0.6 0.4
v 0.2 0.7 0.4
v 0.3 0 0.4
v 0.3 0.5 0.4
v 0.3 0.6 0.4
v -0.8 0.2 0.3
v -0.8 0.3 0.3
v -0.7 0.2 0.3
v -0.7 0.3 0.3
v -0.6 0.2 0.3
v -0.6 0.3 0.3
v -0.2 0.2 0.3
v -0.2 0.3 0.3
v 1.19209e-07 0.6 0.3
v 1.19209e-07 0.7 0.3
v 0.1 0.6 0.3
v 0.1 0.7 0.3
v 0.1 0.8 0.3
v 0.2 0.6 0.3
v 0.2 0.7 0.3
v 0.2 0.8 0.3
v 0.3 0.6 0.3
v 0.3 0.7 0.3
v 0.6 0 0.3
v 0.6 0.1 0.3
v 0.6 0.2 0.3
v 0.7 0.2 0.3
v 0.7 0.3 0.3
v 0.8 0.2 0.3
v 0.8 0.3 0.3
v 0.9 0 0.3
v 0.9 0.1 0.3
v 0.9 0.2 0.3
v 0.4 0 -1.19209e-07
v 0.4 0.1 -1.19209e-07
v 0.4 0.2 -1.19209e-07
v 0.6 0 -1.19209e-07
v 0.6 0.1 -1.19209e-07
v 0.6 0.2 -1.19209e-07
v -0.9 0 -0.1
v -0.9 0.1 -0.1
v -0.9 0.2 -0.1
v -0.8 0.2 -0.1
v -0.8 0.3 -0.1
v -0.7 0.2 -0.1
v -0.7 0.3 -0.1
v -0.6 0 -0.1
v -0.6 0.1 -0.1
v -0.6 0.2 -0.1
v 0.4 0.2 -0.1
v 0.4 0.3 -0.1
v 0.7 0.2 -0.1
v 0.7 0.3 -0.1
v -1 0 -0.5
v -1 0.4 -0.5
v -0.9 0 -0.5
v -0.9 0.2 -0.5
v -0.9 0.3 -0.5
v -0.9 0.4 -0.5
v -0.6 0 -0.5
v -0.6 0.2 -0.5
v -0.6 0.3 -0.5
v -0.6 0.4 -0.5
v -0.5 0.1 -0.5
v -0.5 0.4 -0.5
v 0.5 0.1 -0.5
v 0.5 0.4 -0.5
v 0.6 0 -0.5
v 0.6 0.2 -0.5
v 0.6 0.3 -0.5
v 0.6 0.4 -0.5
v 0.9 0 -0.5
v 0.9 0.2 -0.5
v 0.9 0.3 -0.5
v 0.9 0.4 -0.5
v 1 0 -0.5
v 1 0.4 -0.5
v -0.9 0 -0.6
v -0.9 0.1 -0.6
v -0.6 0 -0.6
v -0.6 0.1 -0.6
v 0.6 0 -0.6
v 0.6 0.1 -0.6
v 0.9 0 -0.6
v 0.9 0.1 -0.6
v -1 0 -0.9
v -1 0.2 -0.9
v -1 0.3 -0.9
v -1 0.4 -0.9
v -0.9 0 -0.9
v -0.9 0.1 -0.9
v -0.9 0.2 -0.9
v -0.9 0.3 -0.9
v -0.9 0.4 -0.9
v -0.6 0.1 -0.9
v -0.6 0.2 -0.9
v -0.6 0.3 -0.9
v -0.6 0.4 -0.9
v -0.5 0.1 -0.9
v -0.5 0.2 -0.9
v -0.5 0.3 -0.9
v -0.5 0.4 -0.9
v 0.5 0.1 -0.9
v 0.5 0.2 -0.9
v 0.5 0.3 -0.9
v 0.5 0.4 -0.9
v 0.6 0.1 -0.9
v 0.6 0.2 -0.9
v 0.6 0.3 -0.9
v 0.6 0.4 -0.9
v 0.9 0 -0.9
v 0.9 0.1 -0.9
v 0.9 0.2 -0.9
v 0.9 0.3 -0.9
v 0.9 0.4 -0.9
v 1 0 -0.9
v 1 0.2 -0.9
v 1 0.3 -0.9
v 1 0.4 -0.9
v -1 0 0.9
v -1 0.2 0.9
v -1 0.3 0.9
v -1 0.4 0.9
v -0.9 0 0.9
v -0.9 0.1 0.9
v -0.9 0.2 0.9
v -0.9 0.3 0.9
v -0.9 0.4 0.9
v -0.6 0.1 0.9
v -0.6 0.2 0.9
v -0.6 0.3 0.9
v -0.6 0.4 0.9
v -0.5 0.1 0.9
v -0.5 0.2 0.9
v -0.5 0.3 0.9
v -0.5 0.4 0.9
v 0.5 0.1 0.9
v 0.5 0.2 0.9
v 0.5 0.3 0.9
v 0.5 0.4 0.9
v 0.6 0.1 0.9
v 0.6 0.2 0.9
v 0.6 0.3 0.9
v 0.6 0.4 0.9
v 0.9 0 0.9
v 0.9 0.1 0.9
v 0.9 0.2 0.9
v 0.9 0.3 0.9
v 0.9 0.4 0.9
v 1 0 0.9
v 1 0.2 0.9
v 1 0.3 0.9
v 1 0.4 0.9
v -0.9 0 0.6
v -0.9 0.1 0.6
v -0.6 0 0.6
v -0.6 0.1 0.6
v 0.6 0 0.6
v 0.6 0.1 0.6
v 0.9 0 0.6
v 0.9 0.1 0.6
v -1 0 0.5
v -1 0.4 0.5
v -0.9 0 0.5
v -0.9 0.2 0.5
v -0.9 0.3 0.5
v -0.9 0.4 0.5
v -0.6 0 0.5
v -0.6 0.2 0.5
v -0.6 0.3 0.5
v -0.6 0.4 0.5
v -0.5 0.1 0.5
v -0.5 0.4 0.5
v 0.5 0.1 0.5
v 0.5 0.4 0.5
v 0.6 0 0.5
v 0.6 0.2 0.5
v 0.6 0.3 0.5
v 0.6 0.4 0.5
v 0.9 0 0.5
v 0.9 0.2 0.5
v 0.9 0.3 0.5
v 0.9 0.4 0.5
v 1 0 0.5
v 1 0.4 0.5
v -0.8 0.2 0.2
v -0.8 0.3 0.2
v -0.7 0.2 0.2
v -0.7 0.3 0.2
v -0.6 0.2 0.2
v -0.6 0.3 0.2
v -0.2 0.2 0.2
v -0.2 0.3 0.2
v 1.19209e-07 0.6 0.2
v 1.19209e-07 0.7 0.2
v 0.1 0.6 0.2
v 0.1 0.7 0.2
v 0.1 0.8 0.2
v 0.2 0.6 0.2
v 0.2 0.7 0.2
v 0.2 0.8 0.2
v 0.3 0.6 0.2
v 0.3 0.7 0.2
v -0.5 0 0.0999999
v -0.5 0.1 0.0999999
v -0.5 0.2 0.0999999
v -0.2 0 0.0999999
v -0.2 0.1 0.0999999
v -0.2 0.2 0.0999999
v 1.19209e-07 0 0.0999999
v 1.19209e-07 0.5 0.0999999
v 1.19209e-07 0.6 0.0999999
v 0.1 0.6 0.0999999
v 0.1 0.7 0.0999999
v 0.2 0.6 0.0999999
v 0.2 0.7 0.0999999
v 0.3 0 0.0999999
v 0.3 0.5 0.0999999
v 0.3 0.6 0.0999999
v -0.8 0 -1.19209e-07
v -0.8 0.1 -1.19209e-07
v -0.8 0.2 -1.19209e-07
v -0.7 0.2 -1.19209e-07
v -0.7 0.3 -1.19209e-07
v -0.6 0.2 -1.19209e-07
v -0.6 0.3 -1.19209e-07
v -0.5 0 -1.19209e-07
v -0.5 0.1 -1.19209e-07
v -0.5 0.2 -1.19209e-07
v 0.4 0.2 -0.2
v 0.4 0.3 -0.2
v 0.7 0.2 -0.2
v 0.7 0.3 -0.2
v 0.4 0 -0.3
v 0.4 0.1 -0.3
v 0.4 0.2 -0.3
v 0.7 0.2 -0.3
v 0.7 0.3 -0.3
v 0.8 0.2 -0.3
v 0.8 0.3 -0.3
v 0.9 0 -0.3
v 0.9 0.1 -0.3
v 0.9 0.2 -0.3
v -0.9 0 -0.4
v -0.9 0.1 -0.4
v -0.9 0.2 -0.4
v -0.8 0.2 -0.4
v -0.8 0.3 -0.4
v -0.7 0.2 -0.4
v -0.7 0.3 -0.4
v -0.6 0 -0.4
v -0.6 0.1 -0.4
v -0.6 0.2 -0.4
v -1 0 -0.6
v -1 0.2 -0.6
v -1 0.3 -0.6
v -1 0.4 -0.6
v -0.9 0 -0.6
v -0.9 0.1 -0.6
v -0.9 0.2 -0.6
v -0.9 0.3 -0.6
v -0.9 0.4 -0.6
v -0.6 0.1 -0.6
v -0.6 0.2 -0.6
v -0.6 0.3 -0.6
v -0.6 0.4 -0.6
v -0.5 0.1 -0.6
v -0.5 0.2 -0.6
v -0.5 0.3 -0.6
v -0.5 0.4 -0.6
v 0.5 0.1 -0.6
v 0.5 0.2 -0.6
v 0.5 0.3 -0.6
v 0.5 0.4 -0.6
v 0.6 0.1 -0.6
v 0.6 0.2 -0.6
v 0.6 0.3 -0.6
v 0.6 0.4 -0.6
v 0.9 0 -0.6
v 0.9 0.1 -0.6
v 0.9 0.2 -0.6
v 0.9 0.3 -0.6
v 0.9 0.4 -0.6
v 1 0 -0.6
v 1 0.2 -0.6
v 1 0.3 -0.6
v 1 0.4 -0.6
v -0.9 0 -0.9
v -0.9 0.1 -0.9
v -0.6 0 -0.9
v -0.6 0.1 -0.9
v 0.6 0 -0.9
v 0.6 0.1 -0.9
v 0.9 0 -0.9
v 0.9 0.1 -0.9
v -1 0 -1
v -1 0.4 -1
v -0.9 0 -1
v -0.9 0.2 -1
v -0.9 0.3 -1
v -0.9 0.4 -1
v -0.6 0 -1
v -0.6 0.2 -1
v -0.6 0.3 -1
v -0.6 0.4 -1
v -0.5 0.1 -1
v -0.5 0.4 -1
v 0.5 0.1 -1
v 0.5 0.4 -1
v 0.6 0 -1
v 0.6 0.2 -1
v 0.6 0.3 -1
v 0.6 0.4 -1
v 0.9 0 -1
v 0.9 0.2 -1
v 0.9 0.3 -1
v 0.9 0.4 -1
v 1 0 -1
v 1 0.4 -1
v -1 0 1
v -0.9 0 1
v -0.6 0 1
v 0.6 0 1
v 0.9 0 1
v 1 0 1
v -1 0 0.9
v -0.9 0 0.9
v -0.6 0 0.9
v 0.6 0 0.9
v 0.9 0 0.9
v 1 0 0.9
v -1 0 0.6
v -0.9 0 0.6
v -0.6 0 0.6
v 0.6 0 0.6
v 0.9 0 0.6
v 1 0 0.6
v -1 0 0.5
v -0.9 0 0.5
v -0.6 0 0.5
v 0.6 0 0.5
v 0.9 0 0.5
v 1 0 0.5
v -0.8 0 0.4
v -0.2 0 0.4
v 1.19209e-07 0 0.4
v 0.3 0 0.4
v 0.6 0 0.3
v 0.9 0 0.3
v -0.5 0 0.0999999
v -0.2 0 0.0999999
v 1.19209e-07 0 0.0999999
v 0.3 0 0.0999999
v -0.8 0 -1.19209e-07
v -0.5 0 -1.19209e-07
v 0.4 0 -1.19209e-07
v 0.6 0 -1.19209e-07
v -0.9 0 -0.1
v -0.6 0 -0.1
v 0.4 0 -0.3
v 0.9 0 -0.3
v -0.9 0 -0.4
v -0.6 0 -0.4
v -1 0 -0.5
v -0.9 0 -0.5
v -0.6 0 -0.5
v 0.6 0 -0.5
v 0.9 0 -0.5
v 1 0 -0.5
v -1 0 -0.6
v -0.9 0 -0.6
v -0.6 0 -0.6
v 0.6 0 -0.6
v 0.9 0 -0.6
v 1 0 -0.6
v -1 0 -0.9
v -0.9 0 -0.9
v -0.6 0 -0.9
v 0.6 0 -0.9
v 0.9 0 -0.9
v 1 0 -0.9
v -1 0 -1
v -0.9 0 -1
v -0.6 0 -1
v 0.6 0 -1
v 0.9 0 -1
v 1 0 -1
v -0.9 0.2 1
v -0.6 0.2 1
v 0.6 0.2 1
v 0.9 0.2 1
v -1 0.2 0.9
v -0.9 0.2 0.9
v -0.6 0.2 0.9
v -0.5 0.2 0.9
v 0.5 0.2 0.9
v 0.6 0.2 0.9
v 0.9 0.2 0.9
v 1 0.2 0.9
v -1 0.2 0.6
v -0.9 0.2 0.6
v -0.6 0.2 0.6
v -0.5 0.2 0.6
v 0.5 0.2 0.6
v 0.6 0.2 0.6
v 0.9 0.2 0.6
v 1 0.2 0.6
v -0.9 0.2 0.5
v -0.6 0.2 0.5
v 0.6 0.2 0.5
v 0.9 0.2 0.5
v -0.9 0.2 -0.5
v -0.6 0.2 -0.5
v 0.6 0.2 -0.5
v 0.9 0.2 -0.5
v -1 0.2 -0.6
v -0.9 0.2 -0.6
v -0.6 0.2 -0.6
v -0.5 0.2 -0.6
v 0.5 0.2 -0.6
v 0.6 0.2 -0.6
v 0.9 0.2 -0.6
v 1 0.2 -0.6
v -1 0.2 -0.9
v -0.9 0.2 -0.9
v -0.6 0.2 -0.9
v -0.5 0.2 -0.9
v 0.5 0.2 -0.9
v 0.6 0.2 -0.9
v 0.9 0.2 -0.9
v 1 0.2 -0.9
v -0.9 0.2 -1
v -0.6 0.2 -1
v 0.6 0.2 -1
v 0.9 0.2 -1
v -0.5 0.1 1
v 0.5 0.1 1
v -0.9 0.1 0.9
v -0.6 0.1 0.9
v -0.5 0.1 0.9
v 0.5 0.1 0.9
v 0.6 0.1 0.9
v 0.9 0.1 0.9
v -0.9 0.1 0.6
v -0.6 0.1 0.6
v -0.5 0.1 0.6
v 0.5 0.1 0.6
v 0.6 0.1 0.6
v 0.9 0.1 0.6
v -0.5 0.1 0.5
v 0.5 0.1 0.5
v -0.5 0.1 -0.5
v 0.5 0.1 -0.5
v -0.9 0.1 -0.6
v -0.6 0.1 -0.6
v -0.5 0.1 -0.6
v 0.5 0.1 -0.6
v 0.6 0.1 -0.6
v 0.9 0.1 -0.6
v -0.9 0.1 -0.9
v -0.6 0.1 -0.9
v -0.5 0.1 -0.9
v 0.5 0.1 -0.9
v 0.6 0.1 -0.9
v 0.9 0.1 -0.9
v -0.5 0.1 -1
v 0.5 0.1 -1
v -0.8 0.2 0.4
v -0.7 0.2 0.4
v -0.6 0.2 0.4
v -0.2 0.2 0.4
v -0.8 0.2 0.3
v -0.7 0.2 0.3
v -0.6 0.2 0.3
v -0.2 0.2 0.3
v 0.6 0.2 0.3
v 0.7 0.2 0.3
v 0.8 0.2 0.3
v 0.9 0.2 0.3
v -0.8 0.2 0.2
v -0.7 0.2 0.2
v -0.6 0.2 0.2
v -0.2 0.2 0.2
v -0.5 0.2 0.0999999
v -0.2 0.2 0.0999999
v -0.8 0.2 -1.19209e-07
v -0.7 0.2 -1.19209e-07
v -0.6 0.2 -1.19209e-07
v -0.5 0.2 -1.19209e-07
v 0.4 0.2 -1.19209e-07
v 0.6 0.2 -1.19209e-07
v -0.9 0.2 -0.1
v -0.8 0.2 -0.1
v -0.7 0.2 -0.1
v -0.6 0.2 -0.1
v 0.4 0.2 -0.1
v 0.7 0.2 -0.1
v 0.4 0.2 -0.2
v 0.7 0.2 -0.2
v 0.4 0.2 -0.3
v 0.7 0.2 -0.3
v 0.8 0.2 -0.3
v 0.9 0.2 -0.3
v -0.9 0.2 -0.4
v -0.8 0.2 -0.4
v -0.7 0.2 -0.4
v -0.6 0.2 -0.4
v -0.9 0.3 1
v -0.6 0.3 1
v 0.6 0.3 1
v 0.9 0.3 1
v -1 0.3 0.9
v -0.9 0.3 0.9
v -0.6 0.3 0.9
v -0.5 0.3 0.9
v 0.5 0.3 0.9
v 0.6 0.3 0.9
v 0.9 0.3 0.9
v 1 0.3 0.9
v -1 0.3 0.6
v -0.9 0.3 0.6
v -0.6 0.3 0.6
v -0.5 0.3 0.6
v 0.5 0.3 0.6
v 0.6 0.3 0.6
v 0.9 0.3 0.6
v 1 0.3 0.6
v -0.9 0.3 0.5
v -0.6 0.3 0.5
v 0.6 0.3 0.5
v 0.9 0.3 0.5
v -0.7 0.3 0.4
v -0.6 0.3 0.4
v -0.8 0.3 0.3
v -0.7 0.3 0.3
v -0.6 0.3 0.3
v -0.2 0.3 0.3
v 0.7 0.3 0.3
v 0.8 0.3 0.3
v -0.8 0.3 0.2
v -0.7 0.3 0.2
v -0.6 0.3 0.2
v -0.2 0.3 0.2
v -0.7 0.3 -1.19209e-07
v -0.6 0.3 -1.19209e-07
v -0.8 0.3 -0.1
v -0.7 0.3 -0.1
v 0.4 0.3 -0.1
v 0.7 0.3 -0.1
v 0.4 0.3 -0.2
v 0.7 0.3 -0.2
v 0.7 0.3 -0.3
v 0.8 0.3 -0.3
v -0.8 0.3 -0.4
v -0.7 0.3 -0.4
v -0.9 0.3 -0.5
v -0.6 0.3 -0.5
v 0.6 0.3 -0.5
v 0.9 0.3 -0.5
v -1 0.3 -0.6
v -0.9 0.3 -0.6
v -0.6 0.3 -0.6
v -0.5 0.3 -0.6
v 0.5 0.3 -0.6
v 0.6 0.3 -0.6
v 0.9 0.3 -0.6
v 1 0.3 -0.6
v -1 0.3 -0.9
v -0.9 0.3 -0.9
v -0.6 0.3 -0.9
v -0.5 0.3 -0.9
v 0.5 0.3 -0.9
v 0.6 0.3 -0.9
v 0.9 0.3 -0.9
v 1 0.3 -0.9
v -0.9 0.3 -1
v -0.6 0.3 -1
v 0.6 0.3 -1
v 0.9 0.3 -1
v -1 0.4 1
v -0.9 0.4 1
v -0.6 0.4 1
v -0.5 0.4 1
v 0.5 0.4 1
v 0.6 0.4 1
v 0.9 0.4 1
v 1 0.4 1
v -1 0.4 0.9
v -0.9 0.4 0.9
v -0.6 0.4 0.9
v -0.5 0.4 0.9
v 0.5 0.4 0.9
v 0.6 0.4 0.9
v 0.9 0.4 0.9
v 1 0.4 0.9
v -1 0.4 0.6
v -0.9 0.4 0.6
v -0.6 0.4 0.6
v -0.5 0.4 0.6
v 0.5 0.4 0.6
v 0.6 0.4 0.6
v 0.9 0.4 0.6
v 1 0.4 0.6
v -1 0.4 0.5
v -0.9 0.4 0.5
v -0.6 0.4 0.5
v -0.5 0.4 0.5
v 0.5 0.4 0.5
v 0.6 0.4 0.5
v 0.9 0.4 0.5
v 1 0.4 0.5
v -1 0.4 -0.5
v -0.9 0.4 -0.5
v -0.6 0.4 -0.5
v -0.5 0.4 -0.5
v 0.5 0.4 -0.5
v 0.6 0.4 -0.5
v 0.9 0.4 -0.5
v 1 0.4 -0.5
v -1 0.4 -0.6
v -0.9 0.4 -0.6
v -0.6 0.4 -0.6
v -0.5 0.4 -0.6
v 0.5 0.4 -0.6
v 0.6 0.4 -0.6
v 0.9 0.4 -0.6
v 1 0.4 -0.6
v -1 0.4 -0.9
v -0.9 0.4 -0.9
v -0.6 0.4 -0.9
v -0.5 0.4 -0.9
v 0.5 0.4 -0.9
v 0.6 0.4 -0.9
v 0.9 0.4 -0.9
v 1 0.4 -0.9
v -1 0.4 -1
v -0.9 0.4 -1
v -0.6 0.4 -1
v -0.5 0.4 -1
v 0.5 0.4 -1
v 0.6 0.4 -1
v 0.9 0.4 -1
v 1 0.4 -1
v 1.19209e-07 0.6 0.4
v 0.1 0.6 0.4
v 0.2 0.6 0.4
v 0.3 0.6 0.4
v 1.19209e-07 0.6 0.3
v 0.1 0.6 0.3
v 0.2 0.6 0.3
v 0.3 0.6 0.3
v 1.19209e-07 0.6 0.2
v 0.1 0.6 0.2
v 0.2 0.6 0.2
v 0.3 0.6 0.2
v 1.19209e-07 0.6 0.0999999
v 0.1 0.6 0.0999999
v 0.2 0.6 0.0999999
v 0.3 0.6 0.0999999
v 0.1 0.7 0.4
v 0.2 0.7 0.4
v 1.19209e-07 0.7 0.3
v 0.1 0.7 0.3
v 0.2 0.7 0.3
v 0.3 0.7 0.3
v 1.19209e-07 0.7 0.2
v 0.1 0.7 0.2
v 0.2 0.7 0.2
v 0.3 0.7 0.2
v 0.1 0.7 0.0999999
v 0.2 0.7 0.0999999
v 0.1 0.8 0.3
v 0.2 0.8 0.3
v 0.1 0.8 0.2
v 0.2 0.8 0.2

# faces
f 9/2/1 2/2/1 1/2/1
f 10/2/1 4/2/1 3/2/1
f 11/2/1 6/2/1 5/2/1
f 12/2/1 8/2/1 7/2/1
f 13/2/1 9/2/1 1/2/1
f 13/2/1 10/2/1 9/2/1
f 14/2/1 4/2/1 10/2/1
f 14/2/1 10/2/1 13/2/1
f 15/2/1 11/2/1 5/2/1
f 15/2/1 12/2/1 11/2/1
f 16/2/1 8/2/1 12/2/1
f 16/2/1 12/2/1 15/2/1
f 17/2/1 13/2/1 1/2/1
f 18/2/1 13/2/1 17/2/1
f 19/2/1 4/2/1 14/2/1
f 20/2/1 4/2/1 19/2/1
f 21/2/1 15/2/1 5/2/1
f 22/2/1 15/2/1 21/2/1
f 23/2/1 8/2/1 16/2/1
f 24/2/1 8/2/1 23/2/1
f 31/1/1 26/1/1 25/1/1
f 32/1/1 26/1/1 31/1/1
f 33/2/1 28/2/1 27/2/1
f 34/2/1 28/2/1 33/2/1
f 35/1/1 30/1/1 29/1/1
f 36/1/1 30/1/1 35/1/1
f 37/4/1 34/4/1 33/4/1
f 38/4/1 34/4/1 37/4/1
f 41/2/1 40/2/1 39/2/1
f 42/2/1 40/2/1 41/2/1
f 43/4/1 42/4/1 41/4/1
f 44/4/1 42/4/1 43/4/1
f 45/4/1 42/4/1 44/4/1
f 46/4/1 42/4/1 45/4/1
f 49/4/1 45/4/1 44/4/1
f 50/4/1 45/4/1 49/4/1
f 51/4/1 48/4/1 47/4/1
f 52/4/1 48/4/1 51/4/1
f 57/4/1 54/4/1 53/4/1
f 58/4/1 54/4/1 57/4/1
f 59/4/1 56/4/1 55/4/1
f 60/4/1 56/4/1 59/4/1
f 69/2/1 62/2/1 61/2/1
f 70/2/1 64/2/1 63/2/1
f 71/2/1 66/2/1 65/2/1
f 72/2/1 68/2/1 67/2/1
f 73/2/1 69/2/1 61/2/1
f 74/2/1 69/2/1 73/2/1
f 75/2/1 64/2/1 70/2/1
f 76/2/1 64/2/1 75/2/1
f 77/2/1 71/2/1 65/2/1
f 78/2/1 71/2/1 77/2/1
f 79/2/1 68/2/1 72/2/1
f 80/2/1 68/2/1 79/2/1
f 82/2/1 75/2/1 74/2/1
f 83/2/1 75/2/1 82/2/1
f 86/2/1 79/2/1 78/2/1
f 87/2/1 79/2/1 86/2/1
f 89/2/1 82/2/1 81/2/1
f 90/2/1 82/2/1 89/2/1
f 91/2/1 84/2/1 83/2/1
f 92/2/1 84/2/1 91/2/1
f 93/2/1 86/2/1 85/2/1
f 94/2/1 86/2/1 93/2/1
f 95/2/1 88/2/1 87/2/1
f 96/2/1 88/2/1 95/2/1
f 99/2/1 98/2/1 97/2/1
f 100/2/1 98/2/1 99/2/1
f 101/3/1 100/3/1 99/3/1
f 102/3/1 100/3/1 101/3/1
f 103/3/1 100/3/1 102/3/1
f 104/3/1 100/3/1 103/3/1
f 105/3/1 103/3/1 102/3/1
f 106/3/1 103/3/1 105/3/1
f 111/3/1 108/3/1 107/3/1
f 112/3/1 108/3/1 111/3/1
f 113/3/1 110/3/1 109/3/1
f 114/3/1 110/3/1 113/3/1
f 115/3/1 113/3/1 112/3/1
f 116/3/1 113/3/1 115/3/1
f 119/2/1 118/2/1 117/2/1
f 120/2/1 118/2/1 119/2/1
f 121/4/1 120/4/1 119/4/1
f 122/4/1 120/4/1 121/4/1
f 123/4/1 120/4/1 122/4/1
f 124/4/1 120/4/1 123/4/1
f 125/4/1 123/4/1 122/4/1
f 126/4/1 123/4/1 125/4/1
f 135/2/1 128/2/1 127/2/1
f 136/2/1 130/2/1 129/2/1
f 137/2/1 132/2/1 131/2/1
f 138/2/1 134/2/1 133/2/1
f 139/2/1 135/2/1 127/2/1
f 139/2/1 136/2/1 135/2/1
f 140/2/1 130/2/1 136/2/1
f 140/2/1 136/2/1 139/2/1
f 141/2/1 137/2/1 131/2/1
f 141/2/1 138/2/1 137/2/1
f 142/2/1 134/2/1 138/2/1
f 142/2/1 138/2/1 141/2/1
f 143/2/1 139/2/1 127/2/1
f 144/2/1 139/2/1 143/2/1
f 145/2/1 130/2/1 140/2/1
f 146/2/1 130/2/1 145/2/1
f 147/2/1 141/2/1 131/2/1
f 148/2/1 141/2/1 147/2/1
f 149/2/1 134/2/1 142/2/1
f 150/2/1 134/2/1 149/2/1
f 153/2/1 152/2/1 151/2/1
f 154/2/1 152/2/1 153/2/1
f 155/4/1 154/4/1 153/4/1
f 156/4/1 154/4/1 155/4/1
f 161/4/1 158/4/1 157/4/1
f 162/4/1 158/4/1 161/4/1
f 163/4/1 160/4/1 159/4/1
f 164/4/1 160/4/1 163/4/1
f 173/2/1 166/2/1 165/2/1
f 174/2/1 168/2/1 167/2/1
f 175/2/1 170/2/1 169/2/1
f 176/2/1 172/2/1 171/2/1
f 177/2/1 173/2/1 165/2/1
f 178/2/1 173/2/1 177/2/1
f 179/2/1 168/2/1 174/2/1
f 180/2/1 168/2/1 179/2/1
f 181/2/1 175/2/1 169/2/1
f 182/2/1 175/2/1 181/2/1
f 183/2/1 172/2/1 176/2/1
f 184/2/1 172/2/1 183/2/1
f 186/2/1 179/2/1 178/2/1
f 187/2/1 179/2/1 186/2/1
f 190/2/1 183/2/1 182/2/1
f 191/2/1 183/2/1 190/2/1
f 193/2/1 186/2/1 185/2/1
f 194/2/1 186/2/1 193/2/1
f 195/2/1 188/2/1 187/2/1
f 196/2/1 188/2/1 195/2/1
f 197/2/1 190/2/1 189/2/1
f 198/2/1 190/2/1 197/2/1
f 199/2/1 192/2/1 191/2/1
f 200/2/1 192/2/1 199/2/1
f 201/2/2 202/2/2 209/2/2
f 203/2/2 204/2/2 210/2/2
f 205/2/2 206/2/2 211/2/2
f 207/2/2 208/2/2 212/2/2
f 201/2/2 209/2/2 213/2/2
f 213/2/2 209/2/2 214/2/2
f 210/2/2 204/2/2 215/2/2
f 215/2/2 204/2/2 216/2/2
f 205/2/2 211/2/2 217/2/2
f 217/2/2 211/2/2 218/2/2
f 212/2/2 208/2/2 219/2/2
f 219/2/2 208/2/2 220/2/2
f 214/2/2 215/2/2 222/2/2
f 222/2/2 215/2/2 223/2/2
f 218/2/2 219/2/2 226/2/2
f 226/2/2 219/2/2 227/2/2
f 221/2/2 222/2/2 229/2/2
f 229/2/2 222/2/2 230/2/2
f 223/2/2 224/2/2 231/2/2
f 231/2/2 224/2/2 232/2/2
f 225/2/2 226/2/2 233/2/2
f 233/2/2 226/2/2 234/2/2
f 227/2/2 228/2/2 235/2/2
f 235/2/2 228/2/2 236/2/2
f 237/4/2 238/4/2 239/4/2
f 239/4/2 238/4/2 240/4/2
f 241/2/2 242/2/2 243/2/2
f 243/2/2 242/2/2 244/2/2
f 243/4/2 244/4/2 249/4/2
f 249/4/2 244/4/2 250/4/2
f 245/4/2 246/4/2 251/4/2
f 251/4/2 246/4/2 252/4/2
f 247/4/2 248/4/2 253/4/2
f 253/4/2 248/4/2 254/4/2
f 255/2/2 256/2/2 261/2/2
f 261/2/2 256/2/2 262/2/2
f 257/2/2 258/2/2 267/2/2
f 259/2/2 260/2/2 268/2/2
f 261/4/2 262/4/2 269/4/2
f 269/4/2 262/4/2 270/4/2
f 263/2/2 264/2/2 271/2/2
f 265/2/2 266/2/2 272/2/2
f 257/2/2 267/2/2 273/2/2
f 267/2/2 268/2/2 273/2/2
f 268/2/2 260/2/2 274/2/2
f 273/2/2 268/2/2 274/2/2
f 271/2/2 272/2/2 275/2/2
f 263/2/2 271/2/2 275/2/2
f 272/2/2 266/2/2 276/2/2
f 275/2/2 272/2/2 276/2/2
f 257/2/2 273/2/2 277/2/2
f 277/2/2 273/2/2 278/2/2
f 274/2/2 260/2/2 279/2/2
f 279/2/2 260/2/2 280/2/2
f 263/2/2 275/2/2 281/2/2
f 281/2/2 275/2/2 282/2/2
f 276/2/2 266/2/2 283/2/2
f 283/2/2 266/2/2 284/2/2
f 285/2/2 286/2/2 287/2/2
f 287/2/2 286/2/2 288/2/2
f 287/4/2 288/4/2 289/4/2
f 289/4/2 288/4/2 290/4/2
f 290/4/2 288/4/2 291/4/2
f 291/4/2 288/4/2 292/4/2
f 290/4/2 291/4/2 293/4/2
f 293/4/2 291/4/2 294/4/2
f 295/3/2 296/3/2 299/3/2
f 299/3/2 296/3/2 300/3/2
f 297/3/2 298/3/2 301/3/2
f 301/3/2 298/3/2 302/3/2
f 300/3/2 301/3/2 303/3/2
f 303/3/2 301/3/2 304/3/2
f 305/2/2 306/2/2 307/2/2
f 307/2/2 306/2/2 308/2/2
f 307/3/2 308/3/2 309/3/2
f 309/3/2 308/3/2 310/3/2
f 310/3/2 308/3/2 311/3/2
f 311/3/2 308/3/2 312/3/2
f 310/3/2 311/3/2 313/3/2
f 313/3/2 311/3/2 314/3/2
f 315/2/2 316/2/2 323/2/2
f 317/2/2 318/2/2 324/2/2
f 319/2/2 320/2/2 325/2/2
f 321/2/2 322/2/2 326/2/2
f 315/2/2 323/2/2 327/2/2
f 327/2/2 323/2/2 328/2/2
f 324/2/2 318/2/2 329/2/2
f 329/2/2 318/2/2 330/2/2
f 319/2/2 325/2/2 331/2/2
f 331/2/2 325/2/2 332/2/2
f 326/2/2 322/2/2 333/2/2
f 333/2/2 322/2/2 334/2/2
f 328/2/2 329/2/2 336/2/2
f 336/2/2 329/2/2 337/2/2
f 332/2/2 333/2/2 340/2/2
f 340/2/2 333/2/2 341/2/2
f 335/2/2 336/2/2 343/2/2
f 343/2/2 336/2/2 344/2/2
f 337/2/2 338/2/2 345/2/2
f 345/2/2 338/2/2 346/2/2
f 339/2/2 340/2/2 347/2/2
f 347/2/2 340/2/2 348/2/2
f 341/2/2 342/2/2 349/2/2
f 349/2/2 342/2/2 350/2/2
f 351/4/2 352/4/2 353/4/2
f 353/4/2 352/4/2 354/4/2
f 355/1/2 356/1/2 361/1/2
f 361/1/2 356/1/2 362/1/2
f 357/2/2 358/2/2 363/2/2
f 363/2/2 358/2/2 364/2/2
f 359/1/2 360/1/2 365/1/2
f 365/1/2 360/1/2 366/1/2
f 363/4/2 364/4/2 367/4/2
f 367/4/2 364/4/2 368/4/2
f 369/2/2 370/2/2 377/2/2
f 371/2/2 372/2/2 378/2/2
f 373/2/2 374/2/2 379/2/2
f 375/2/2 376/2/2 380/2/2
f 369/2/2 377/2/2 381/2/2
f 377/2/2 378/2/2 381/2/2
f 378/2/2 372/2/2 382/2/2
f 381/2/2 378/2/2 382/2/2
f 373/2/2 379/2/2 383/2/2
f 379/2/2 380/2/2 383/2/2
f 380/2/2 376/2/2 384/2/2
f 383/2/2 380/2/2 384/2/2
f 369/2/2 381/2/2 385/2/2
f 385/2/2 381/2/2 386/2/2
f 382/2/2 372/2/2 387/2/2
f 387/2/2 372/2/2 388/2/2
f 373/2/2 383/2/2 389/2/2
f 389/2/2 383/2/2 390/2/2
f 384/2/2 376/2/2 391/2/2
f 391/2/2 376/2/2 392/2/2
f 395/2/3 394/2/3 393/2/3
f 396/2/3 394/2/3 395/2/3
f 397/2/3 394/2/3 396/2/3
f 398/2/3 394/2/3 397/2/3
f 400/2/3 397/2/3 396/2/3
f 401/2/3 397/2/3 400/2/3
f 403/2/3 400/2/3 399/2/3
f 403/2/3 402/2/3 401/2/3
f 403/2/3 401/2/3 400/2/3
f 404/2/3 402/2/3 403/2/3
f 405/2/3 403/2/3 399/2/3
f 407/2/3 405/2/3 399/2/3
f 407/2/3 406/2/3 405/2/3
f 408/2/3 406/2/3 407/2/3
f 409/2/3 406/2/3 408/2/3
f 410/2/3 406/2/3 409/2/3
f 412/2/3 409/2/3 408/2/3
f 413/2/3 409/2/3 412/2/3
f 415/2/3 412/2/3 411/2/3
f 415/2/3 414/2/3 413/2/3
f 415/2/3 413/2/3 412/2/3
f 416/2/3 414/2/3 415/2/3
f 419/1/3 418/1/3 417/1/3
f 420/1/3 418/1/3 419/1/3
f 423/1/3 422/1/3 421/1/3
f 424/1/3 422/1/3 423/1/3
f 429/2/3 426/2/3 425/2/3
f 430/2/3 426/2/3 429/2/3
f 431/2/3 426/2/3 430/2/3
f 432/2/3 428/2/3 427/2/3
f 433/2/3 428/2/3 432/2/3
f 435/2/3 432/2/3 431/2/3
f 436/2/3 432/2/3 435/2/3
f 438/2/3 435/2/3 434/2/3
f 439/2/3 435/2/3 438/2/3
f 440/2/3 437/2/3 436/2/3
f 441/2/3 437/2/3 440/2/3
f 446/2/3 443/2/3 442/2/3
f 447/2/3 443/2/3 446/2/3
f 448/2/3 445/2/3 444/2/3
f 449/2/3 445/2/3 448/2/3
f 452/2/3 448/2/3 447/2/3
f 453/2/3 448/2/3 452/2/3
f 455/2/3 451/2/3 450/2/3
f 455/2/3 452/2/3 451/2/3
f 456/2/3 452/2/3 455/2/3
f 457/2/3 454/2/3 453/2/3
f 458/2/3 454/2/3 457/2/3
f 462/4/3 461/4/3 460/4/3
f 464/4/3 462/4/3 460/4/3
f 464/4/3 463/4/3 462/4/3
f 465/4/3 463/4/3 464/4/3
f 466/2/3 460/2/3 459/2/3
f 467/4/3 464/4/3 460/4/3
f 467/2/3 460/2/3 466/2/3
f 468/4/3 464/4/3 467/4/3
f 472/3/3 471/3/3 470/3/3
f 474/3/3 472/3/3 470/3/3
f 474/3/3 473/3/3 472/3/3
f 475/3/3 473/3/3 474/3/3
f 476/2/3 470/2/3 469/2/3
f 477/3/3 474/3/3 470/3/3
f 477/2/3 470/2/3 476/2/3
f 478/3/3 474/3/3 477/3/3
f 481/4/3 480/4/3 479/4/3
f 482/4/3 480/4/3 481/4/3
f 485/4/3 484/4/3 483/4/3
f 486/4/3 484/4/3 485/4/3
f 489/3/3 488/3/3 487/3/3
f 490/3/3 488/3/3 489/3/3
f 493/3/3 491/3/3 490/3/3
f 494/3/3 491/3/3 493/3/3
f 495/3/3 493/3/3 492/3/3
f 496/3/3 493/3/3 495/3/3
f 500/4/3 499/4/3 498/4/3
f 502/4/3 500/4/3 498/4/3
f 502/4/3 501/4/3 500/4/3
f 503/4/3 501/4/3 502/4/3
f 504/2/3 498/2/3 497/2/3
f 505/4/3 502/4/3 498/4/3
f 505/2/3 498/2/3 504/2/3
f 506/4/3 502/4/3 505/4/3
f 510/2/3 508/2/3 507/2/3
f 511/4/3 509/4/3 508/4/3
f 511/2/3 508/2/3 510/2/3
f 512/4/3 509/4/3 511/4/3
f 516/4/3 515/4/3 514/4/3
f 518/4/3 516/4/3 514/4/3
f 518/4/3 517/4/3 516/4/3
f 519/4/3 517/4/3 518/4/3
f 520/2/3 514/2/3 513/2/3
f 521/4/3 518/4/3 514/4/3
f 521/2/3 514/2/3 520/2/3
f 522/4/3 518/4/3 521/4/3
f 525/4/3 524/4/3 523/4/3
f 526/4/3 524/4/3 525/4/3
f 529/2/3 528/2/3 527/2/3
f 530/2/3 528/2/3 529/2/3
f 531/2/3 528/2/3 530/2/3
f 532/2/3 528/2/3 531/2/3
f 534/2/3 531/2/3 530/2/3
f 535/2/3 531/2/3 534/2/3
f 537/2/3 534/2/3 533/2/3
f 537/2/3 536/2/3 535/2/3
f 537/2/3 535/2/3 534/2/3
f 538/2/3 536/2/3 537/2/3
f 539/2/3 537/2/3 533/2/3
f 541/2/3 539/2/3 533/2/3
f 541/2/3 540/2/3 539/2/3
f 542/2/3 540/2/3 541/2/3
f 543/2/3 540/2/3 542/2/3
f 544/2/3 540/2/3 543/2/3
f 546/2/3 543/2/3 542/2/3
f 547/2/3 543/2/3 546/2/3
f 549/2/3 546/2/3 545/2/3
f 549/2/3 548/2/3 547/2/3
f 549/2/3 547/2/3 546/2/3
f 550/2/3 548/2/3 549/2/3
f 553/1/3 552/1/3 551/1/3
f 554/1/3 552/1/3 553/1/3
f 557/1/3 556/1/3 555/1/3
f 558/1/3 556/1/3 557/1/3
f 563/2/3 560/2/3 559/2/3
f 564/2/3 560/2/3 563/2/3
f 565/2/3 560/2/3 564/2/3
f 566/2/3 562/2/3 561/2/3
f 567/2/3 562/2/3 566/2/3
f 569/2/3 566/2/3 565/2/3
f 570/2/3 566/2/3 569/2/3
f 572/2/3 569/2/3 568/2/3
f 573/2/3 569/2/3 572/2/3
f 574/2/3 571/2/3 570/2/3
f 575/2/3 571/2/3 574/2/3
f 580/2/3 577/2/3 576/2/3
f 581/2/3 577/2/3 580/2/3
f 582/2/3 579/2/3 578/2/3
f 583/2/3 579/2/3 582/2/3
f 586/2/3 582/2/3 581/2/3
f 587/2/3 582/2/3 586/2/3
f 589/2/3 585/2/3 584/2/3
f 589/2/3 586/2/3 585/2/3
f 590/2/3 586/2/3 589/2/3
f 591/2/3 588/2/3 587/2/3
f 592/2/3 588/2/3 591/2/3
f 593/2/4 594/2/4 597/2/4
f 597/2/4 594/2/4 598/2/4
f 598/2/4 594/2/4 599/2/4
f 595/2/4 596/2/4 600/2/4
f 600/2/4 596/2/4 601/2/4
f 599/2/4 600/2/4 603/2/4
f 603/2/4 600/2/4 604/2/4
f 602/2/4 603/2/4 606/2/4
f 606/2/4 603/2/4 607/2/4
f 604/2/4 605/2/4 608/2/4
f 608/2/4 605/2/4 609/2/4
f 610/2/4 611/2/4 614/2/4
f 614/2/4 611/2/4 615/2/4
f 612/2/4 613/2/4 616/2/4
f 616/2/4 613/2/4 617/2/4
f 615/2/4 616/2/4 620/2/4
f 620/2/4 616/2/4 621/2/4
f 618/2/4 619/2/4 623/2/4
f 619/2/4 620/2/4 623/2/4
f 623/2/4 620/2/4 624/2/4
f 621/2/4 622/2/4 625/2/4
f 625/2/4 622/2/4 626/2/4
f 627/1/4 628/1/4 629/1/4
f 629/1/4 628/1/4 630/1/4
f 631/1/4 632/1/4 633/1/4
f 633/1/4 632/1/4 634/1/4
f 635/2/4 636/2/4 637/2/4
f 637/2/4 636/2/4 638/2/4
f 638/2/4 636/2/4 639/2/4
f 639/2/4 636/2/4 640/2/4
f 638/2/4 639/2/4 642/2/4
f 642/2/4 639/2/4 643/2/4
f 641/2/4 642/2/4 645/2/4
f 643/2/4 644/2/4 645/2/4
f 642/2/4 643/2/4 645/2/4
f 645/2/4 644/2/4 646/2/4
f 641/2/4 645/2/4 647/2/4
f 641/2/4 647/2/4 649/2/4
f 647/2/4 648/2/4 649/2/4
f 649/2/4 648/2/4 650/2/4
f 650/2/4 648/2/4 651/2/4
f 651/2/4 648/2/4 652/2/4
f 650/2/4 651/2/4 654/2/4
f 654/2/4 651/2/4 655/2/4
f 653/2/4 654/2/4 657/2/4
f 655/2/4 656/2/4 657/2/4
f 654/2/4 655/2/4 657/2/4
f 657/2/4 656/2/4 658/2/4
f 659/4/4 660/4/4 661/4/4
f 661/4/4 660/4/4 662/4/4
f 663/4/4 664/4/4 665/4/4
f 665/4/4 664/4/4 666/4/4
f 667/3/4 668/3/4 669/3/4
f 669/3/4 668/3/4 670/3/4
f 670/3/4 671/3/4 673/3/4
f 673/3/4 671/3/4 674/3/4
f 672/3/4 673/3/4 675/3/4
f 675/3/4 673/3/4 676/3/4
f 677/2/4 678/2/4 680/2/4
f 678/4/4 679/4/4 681/4/4
f 680/2/4 678/2/4 681/2/4
f 681/4/4 679/4/4 682/4/4
f 684/3/4 685/3/4 686/3/4
f 684/3/4 686/3/4 688/3/4
f 686/3/4 687/3/4 688/3/4
f 688/3/4 687/3/4 689/3/4
f 683/2/4 684/2/4 690/2/4
f 684/3/4 688/3/4 691/3/4
f 690/2/4 684/2/4 691/2/4
f 691/3/4 688/3/4 692/3/4
f 694/4/4 695/4/4 696/4/4
f 694/4/4 696/4/4 698/4/4
f 696/4/4 697/4/4 698/4/4
f 698/4/4 697/4/4 699/4/4
f 693/2/4 694/2/4 700/2/4
f 694/4/4 698/4/4 701/4/4
f 700/2/4 694/2/4 701/2/4
f 701/4/4 698/4/4 702/4/4
f 703/4/4 704/4/4 705/4/4
f 705/4/4 704/4/4 706/4/4
f 708/4/4 709/4/4 710/4/4
f 708/4/4 710/4/4 712/4/4
f 710/4/4 711/4/4 712/4/4
f 712/4/4 711/4/4 713/4/4
f 707/2/4 708/2/4 714/2/4
f 708/4/4 712/4/4 715/4/4
f 714/2/4 708/2/4 715/2/4
f 715/4/4 712/4/4 716/4/4
f 718/4/4 719/4/4 720/4/4
f 718/4/4 720/4/4 722/4/4
f 720/4/4 721/4/4 722/4/4
f 722/4/4 721/4/4 723/4/4
f 717/2/4 718/2/4 724/2/4
f 718/4/4 722/4/4 725/4/4
f 724/2/4 718/2/4 725/2/4
f 725/4/4 722/4/4 726/4/4
f 727/2/4 728/2/4 731/2/4
f 731/2/4 728/2/4 732/2/4
f 732/2/4 728/2/4 733/2/4
f 729/2/4 730/2/4 734/2/4
f 734/2/4 730/2/4 735/2/4
f 733/2/4 734/2/4 737/2/4
f 737/2/4 734/2/4 738/2/4
f 736/2/4 737/2/4 740/2/4
f 740/2/4 737/2/4 741/2/4
f 738/2/4 739/2/4 742/2/4
f 742/2/4 739/2/4 743/2/4
f 744/2/4 745/2/4 748/2/4
f 748/2/4 745/2/4 749/2/4
f 746/2/4 747/2/4 750/2/4
f 750/2/4 747/2/4 751/2/4
f 749/2/4 750/2/4 754/2/4
f 754/2/4 750/2/4 755/2/4
f 752/2/4 753/2/4 757/2/4
f 753/2/4 754/2/4 757/2/4
f 757/2/4 754/2/4 758/2/4
f 755/2/4 756/2/4 759/2/4
f 759/2/4 756/2/4 760/2/4
f 761/1/4 762/1/4 763/1/4
f 763/1/4 762/1/4 764/1/4
f 765/1/4 766/1/4 767/1/4
f 767/1/4 766/1/4 768/1/4
f 769/2/4 770/2/4 771/2/4
f 771/2/4 770/2/4 772/2/4
f 772/2/4 770/2/4 773/2/4
f 773/2/4 770/2/4 774/2/4
f 772/2/4 773/2/4 776/2/4
f 776/2/4 773/2/4 777/2/4
f 775/2/4 776/2/4 779/2/4
f 777/2/4 778/2/4 779/2/4
f 776/2/4 777/2/4 779/2/4
f 779/2/4 778/2/4 780/2/4
f 775/2/4 779/2/4 781/2/4
f 775/2/4 781/2/4 783/2/4
f 781/2/4 782/2/4 783/2/4
f 783/2/4 782/2/4 784/2/4
f 784/2/4 782/2/4 785/2/4
f 785/2/4 782/2/4 786/2/4
f 784/2/4 785/2/4 788/2/4
f 788/2/4 785/2/4 789/2/4
f 787/2/4 788/2/4 791/2/4
f 789/2/4 790/2/4 791/2/4
f 788/2/4 789/2/4 791/2/4
f 791/2/4 790/2/4 792/2/4
f 799/2/5 794/2/5 793/2/5
f 800/2/5 794/2/5 799/2/5
f 801/2/5 796/2/5 795/2/5
f 802/2/5 796/2/5 801/2/5
f 803/2/5 798/2/5 797/2/5
f 804/2/5 798/2/5 803/2/5
f 806/1/5 802/1/5 801/1/5
f 806/1/5 803/1/5 802/1/5
f 806/1/5 801/1/5 800/1/5
f 807/1/5 803/1/5 806/1/5
f 808/1/5 803/1/5 807/1/5
f 809/1/5 803/1/5 808/1/5
f 811/2/5 806/2/5 805/2/5
f 812/2/5 806/2/5 811/2/5
f 813/2/5 808/2/5 807/2/5
f 814/2/5 808/2/5 813/2/5
f 815/2/5 810/2/5 809/2/5
f 816/2/5 810/2/5 815/2/5
f 823/2/5 818/2/5 817/2/5
f 824/2/5 818/2/5 823/2/5
f 825/2/5 820/2/5 819/2/5
f 826/2/5 820/2/5 825/2/5
f 827/2/5 823/2/5 817/2/5
f 828/2/5 823/2/5 827/2/5
f 830/2/5 822/2/5 821/2/5
f 833/2/5 830/2/5 829/2/5
f 834/2/5 822/2/5 830/2/5
f 834/2/5 830/2/5 833/2/5
f 835/2/5 832/2/5 831/2/5
f 836/2/5 832/2/5 835/2/5
f 843/2/5 838/2/5 837/2/5
f 844/2/5 838/2/5 843/2/5
f 845/2/5 840/2/5 839/2/5
f 846/2/5 840/2/5 845/2/5
f 847/2/5 842/2/5 841/2/5
f 848/2/5 842/2/5 847/2/5
f 850/1/5 846/1/5 845/1/5
f 850/1/5 847/1/5 846/1/5
f 850/1/5 845/1/5 844/1/5
f 851/1/5 847/1/5 850/1/5
f 852/1/5 847/1/5 851/1/5
f 853/1/5 847/1/5 852/1/5
f 855/2/5 850/2/5 849/2/5
f 856/2/5 850/2/5 855/2/5
f 857/2/5 852/2/5 851/2/5
f 858/2/5 852/2/5 857/2/5
f 859/2/5 854/2/5 853/2/5
f 860/2/5 854/2/5 859/2/5
f 866/2/5 862/2/5 861/2/5
f 867/2/5 862/2/5 866/2/5
f 870/2/5 864/2/5 863/2/5
f 871/2/5 864/2/5 870/2/5
f 873/2/5 866/2/5 865/2/5
f 874/2/5 866/2/5 873/2/5
f 875/2/5 868/2/5 867/2/5
f 876/2/5 868/2/5 875/2/5
f 877/2/5 870/2/5 869/2/5
f 878/2/5 870/2/5 877/2/5
f 879/2/5 872/2/5 871/2/5
f 880/2/5 872/2/5 879/2/5
f 881/2/5 875/2/5 874/2/5
f 882/2/5 875/2/5 881/2/5
f 883/2/5 879/2/5 878/2/5
f 884/2/5 879/2/5 883/2/5
f 890/2/5 886/2/5 885/2/5
f 891/2/5 886/2/5 890/2/5
f 894/2/5 888/2/5 887/2/5
f 895/2/5 888/2/5 894/2/5
f 897/2/5 890/2/5 889/2/5
f 898/2/5 890/2/5 897/2/5
f 899/2/5 892/2/5 891/2/5
f 900/2/5 892/2/5 899/2/5
f 901/2/5 894/2/5 893/2/5
f 902/2/5 894/2/5 901/2/5
f 903/2/5 896/2/5 895/2/5
f 904/2/5 896/2/5 903/2/5
f 905/2/5 899/2/5 898/2/5
f 906/2/5 899/2/5 905/2/5
f 907/2/5 903/2/5 902/2/5
f 908/2/5 903/2/5 907/2/5
f 909/2/6 910/2/6 913/2/6
f 913/2/6 910/2/6 914/2/6
f 911/1/6 912/1/6 917/1/6
f 915/1/6 916/1/6 917/1/6
f 914/1/6 915/1/6 917/1/6
f 913/1/6 914/1/6 917/1/6
f 912/1/6 913/1/6 917/1/6
f 917/1/6 916/1/6 918/1/6
f 918/1/6 916/1/6 919/1/6
f 919/1/6 916/1/6 920/1/6
f 920/1/6 916/1/6 921/1/6
f 921/1/6 916/1/6 922/1/6
f 919/2/6 920/2/6 923/2/6
f 923/2/6 920/2/6 924/2/6
f 925/2/6 926/2/6 929/2/6
f 929/2/6 926/2/6 930/2/6
f 929/1/6 930/1/6 933/1/6
f 931/1/6 932/1/6 933/1/6
f 930/1/6 931/1/6 933/1/6
f 928/1/6 929/1/6 933/1/6
f 927/1/6 928/1/6 933/1/6
f 933/1/6 932/1/6 934/1/6
f 934/1/6 932/1/6 935/1/6
f 935/1/6 932/1/6 936/1/6
f 936/1/6 932/1/6 937/1/6
f 937/1/6 932/1/6 938/1/6
f 935/2/6 936/2/6 939/2/6
f 939/2/6 936/2/6 940/2/6
f 941/4/6 942/4/6 945/4/6
f 945/4/6 942/4/6 946/4/6
f 943/4/6 944/4/6 947/4/6
f 947/4/6 944/4/6 948/4/6
f 955/4/6 956/4/6 957/4/6
f 957/4/6 956/4/6 958/4/6
f 953/4/6 954/4/6 959/4/6
f 959/4/6 954/4/6 960/4/6
f 955/4/6 957/4/6 961/4/6
f 961/4/6 957/4/6 962/4/6
f 949/4/6 950/4/6 964/4/6
f 963/4/6 964/4/6 969/4/6
f 964/4/6 950/4/6 970/4/6
f 969/4/6 964/4/6 970/4/6
f 971/4/6 972/4/6 973/4/6
f 973/4/6 972/4/6 974/4/6
f 951/4/6 952/4/6 975/4/6
f 975/4/6 952/4/6 976/4/6
f 965/4/6 966/4/6 977/4/6
f 977/4/6 966/4/6 978/4/6
f 967/4/6 968/4/6 979/4/6
f 979/4/6 968/4/6 980/4/6
f 981/2/6 982/2/6 986/2/6
f 986/2/6 982/2/6 987/2/6
f 983/2/6 984/2/6 990/2/6
f 990/2/6 984/2/6 991/2/6
f 985/2/6 986/2/6 993/2/6
f 993/2/6 986/2/6 994/2/6
f 987/2/6 988/2/6 995/2/6
f 995/2/6 988/2/6 996/2/6
f 989/2/6 990/2/6 997/2/6
f 997/2/6 990/2/6 998/2/6
f 991/2/6 992/2/6 999/2/6
f 999/2/6 992/2/6 1000/2/6
f 994/2/6 995/2/6 1001/2/6
f 1001/2/6 995/2/6 1002/2/6
f 998/2/6 999/2/6 1003/2/6
f 1003/2/6 999/2/6 1004/2/6
f 1005/4/6 1006/4/6 1008/4/6
f 1008/4/6 1006/4/6 1009/4/6
f 1007/4/6 1008/4/6 1013/4/6
f 1008/4/6 1009/4/6 1013/4/6
f 1009/4/6 1010/4/6 1013/4/6
f 1013/4/6 1010/4/6 1014/4/6
f 1014/4/6 1010/4/6 1015/4/6
f 1015/4/6 1010/4/6 1016/4/6
f 1014/4/6 1015/4/6 1017/4/6
f 1017/4/6 1015/4/6 1018/4/6
f 1011/4/6 1012/4/6 1022/4/6
f 1021/4/6 1022/4/6 1023/4/6
f 1022/4/6 1012/4/6 1024/4/6
f 1023/4/6 1022/4/6 1024/4/6
f 1024/4/6 1012/4/6 1025/4/6
f 1025/4/6 1012/4/6 1026/4/6
f 1019/4/6 1020/4/6 1027/4/6
f 1027/4/6 1020/4/6 1028/4/6
f 1029/2/6 1030/2/6 1034/2/6
f 1034/2/6 1030/2/6 1035/2/6
f 1031/2/6 1032/2/6 1038/2/6
f 1038/2/6 1032/2/6 1039/2/6
f 1033/2/6 1034/2/6 1041/2/6
f 1041/2/6 1034/2/6 1042/2/6
f 1035/2/6 1036/2/6 1043/2/6
f 1043/2/6 1036/2/6 1044/2/6
f 1037/2/6 1038/2/6 1045/2/6
f 1045/2/6 1038/2/6 1046/2/6
f 1039/2/6 1040/2/6 1047/2/6
f 1047/2/6 1040/2/6 1048/2/6
f 1042/2/6 1043/2/6 1049/2/6
f 1049/2/6 1043/2/6 1050/2/6
f 1046/2/6 1047/2/6 1051/2/6
f 1051/2/6 1047/2/6 1052/2/6
f 1053/2/6 1054/2/6 1061/2/6
f 1061/2/6 1054/2/6 1062/2/6
f 1055/2/6 1056/2/6 1063/2/6
f 1063/2/6 1056/2/6 1064/2/6
f 1057/2/6 1058/2/6 1065/2/6
f 1065/2/6 1058/2/6 1066/2/6
f 1059/2/6 1060/2/6 1067/2/6
f 1067/2/6 1060/2/6 1068/2/6
f 1069/2/6 1070/2/6 1077/2/6
f 1077/2/6 1070/2/6 1078/2/6
f 1071/2/6 1072/2/6 1079/2/6
f 1079/2/6 1072/2/6 1080/2/6
f 1073/2/6 1074/2/6 1081/2/6
f 1081/2/6 1074/2/6 1082/2/6
f 1075/2/6 1076/2/6 1083/2/6
f 1083/2/6 1076/2/6 1084/2/6
f 1085/2/6 1086/2/6 1093/2/6
f 1093/2/6 1086/2/6 1094/2/6
f 1087/2/6 1088/2/6 1095/2/6
f 1095/2/6 1088/2/6 1096/2/6
f 1089/2/6 1090/2/6 1097/2/6
f 1097/2/6 1090/2/6 1098/2/6
f 1091/2/6 1092/2/6 1099/2/6
f 1099/2/6 1092/2/6 1100/2/6
f 1101/2/6 1102/2/6 1109/2/6
f 1109/2/6 1102/2/6 1110/2/6
f 1103/2/6 1104/2/6 1111/2/6
f 1111/2/6 1104/2/6 1112/2/6
f 1105/2/6 1106/2/6 1113/2/6
f 1113/2/6 1106/2/6 1114/2/6
f 1107/2/6 1108/2/6 1115/2/6
f 1115/2/6 1108/2/6 1116/2/6
f 1117/3/6 1118/3/6 1121/3/6
f 1121/3/6 1118/3/6 1122/3/6
f 1119/3/6 1120/3/6 1123/3/6
f 1123/3/6 1120/3/6 1124/3/6
f 1125/3/6 1126/3/6 1129/3/6
f 1129/3/6 1126/3/6 1130/3/6
f 1127/3/6 1128/3/6 1131/3/6
f 1131/3/6 1128/3/6 1132/3/6
f 1133/3/6 1134/3/6 1136/3/6
f 1136/3/6 1134/3/6 1137/3/6
f 1135/3/6 1136/3/6 1139/3/6
f 1139/3/6 1136/3/6 1140/3/6
f 1137/3/6 1138/3/6 1141/3/6
f 1141/3/6 1138/3/6 1142/3/6
f 1140/3/6 1141/3/6 1143/3/6
f 1143/3/6 1141/3/6 1144/3/6
f 1145/3/6 1146/3/6 1147/3/6
f 1147/3/6 1146/3/6 1148/3/6
