# MagicaVoxel @ Ephtracy

# group
o 

# material
mtllib center_city.mtl
usemtl palette

# normals
vn -1 0 0
vn 1 0 0
vn 0 0 1
vn 0 0 -1
vn 0 -1 0
vn 0 1 0

# texcoords
vt 0.373047 0.5
vt 0.849609 0.5

# verts
v -0.9 0 1
v -0.9 0 0.6
v -0.9 0 -0.1
v -0.9 0 -0.4
v -0.9 0 -0.5
v -0.9 0 -0.9
v -0.9 0.1 1
v -0.9 0.1 0.6
v -0.9 0.1 -0.1
v -0.9 0.1 -0.4
v -0.9 0.2 1
v -0.9 0.2 0.6
v -0.9 0.2 -0.1
v -0.9 0.2 -0.4
v -0.9 0.2 -0.5
v -0.9 0.2 -0.9
v -0.9 0.3 -0.5
v -0.9 0.3 -0.9
v -0.8 0 0.5
v -0.8 0 -1.19209e-07
v -0.8 0.1 0.5
v -0.8 0.1 -1.19209e-07
v -0.8 0.2 1
v -0.8 0.2 0.6
v -0.8 0.2 0.5
v -0.8 0.2 0.4
v -0.8 0.2 0.3
v -0.8 0.2 -1.19209e-07
v -0.8 0.2 -0.1
v -0.8 0.2 -0.4
v -0.8 0.3 1
v -0.8 0.3 0.6
v -0.8 0.3 0.4
v -0.8 0.3 0.3
v -0.8 0.3 -0.1
v -0.8 0.3 -0.4
v -0.8 0.3 -0.5
v -0.8 0.3 -0.9
v -0.8 0.4 -0.5
v -0.8 0.4 -0.9
v -0.7 0.2 0.5
v -0.7 0.2 0.4
v -0.7 0.2 0.3
v -0.7 0.2 -1.19209e-07
v -0.7 0.3 0.5
v -0.7 0.3 0.4
v -0.7 0.3 0.3
v -0.7 0.3 -1.19209e-07
v -0.2 0 1
v -0.2 0 0.7
v -0.2 0.1 1
v -0.2 0.1 0.7
v -0.2 0.2 1
v -0.2 0.2 0.9
v -0.2 0.2 0.8
v -0.2 0.2 0.7
v -0.2 0.3 0.9
v -0.2 0.3 0.8
v -0.1 0 -0.5
v -0.1 0 -0.8
v -0.1 0.1 -0.5
v -0.1 0.1 -0.8
v -0.1 0.2 -0.5
v -0.1 0.2 -0.6
v -0.1 0.2 -0.7
v -0.1 0.2 -0.8
v -0.1 0.3 -0.6
v -0.1 0.3 -0.7
v 0 0 0.4
v 0 0 0.0999999
v 0 0.1 0.4
v 0 0.1 0.0999999
v 0 0.2 0.4
v 0 0.2 0.0999999
v 0.1 0 0.7
v 0.1 0 0.5
v 0.1 0.1 0.7
v 0.1 0.2 1
v 0.1 0.2 0.9
v 0.1 0.2 0.8
v 0.1 0.2 0.7
v 0.1 0.2 0.5
v 0.1 0.2 0.4
v 0.1 0.2 0.0999999
v 0.1 0.3 1
v 0.1 0.3 0.9
v 0.1 0.3 0.8
v 0.1 0.3 0.5
v 0.1 0.3 0.4
v 0.1 0.3 0.0999999
v 0.2 0.3 1
v 0.2 0.3 0.5
v 0.2 0.4 1
v 0.2 0.4 0.5
v 0.4 0 -1.19209e-07
v 0.4 0 -0.3
v 0.4 0.1 -1.19209e-07
v 0.4 0.1 -0.3
v 0.4 0.2 -1.19209e-07
v 0.4 0.2 -0.1
v 0.4 0.2 -0.2
v 0.4 0.2 -0.3
v 0.4 0.3 -0.1
v 0.4 0.3 -0.2
v 0.5 0 -0.4
v 0.5 0 -0.9
v 0.5 0.1 -0.4
v 0.5 0.1 -0.9
v 0.5 0.2 -0.4
v 0.5 0.2 -0.9
v 0.6 0 0.9
v 0.6 0 0.5
v 0.6 0 0.3
v 0.6 0 -1.19209e-07
v 0.6 0.1 0.9
v 0.6 0.1 0.5
v 0.6 0.1 0.3
v 0.6 0.1 -1.19209e-07
v 0.6 0.2 0.9
v 0.6 0.2 0.8
v 0.6 0.2 0.7
v 0.6 0.2 0.5
v 0.6 0.2 0.3
v 0.6 0.2 -1.19209e-07
v 0.6 0.2 -0.4
v 0.6 0.2 -0.9
v 0.6 0.3 0.8
v 0.6 0.3 0.7
v 0.6 0.3 -0.4
v 0.6 0.3 -0.9
v 0.7 0.2 0.9
v 0.7 0.2 0.8
v 0.7 0.2 0.7
v 0.7 0.2 0.5
v 0.7 0.2 0.3
v 0.7 0.2 -0.1
v 0.7 0.2 -0.2
v 0.7 0.2 -0.3
v 0.7 0.3 0.9
v 0.7 0.3 0.8
v 0.7 0.3 0.7
v 0.7 0.3 0.5
v 0.7 0.3 0.3
v 0.7 0.3 -0.1
v 0.7 0.3 -0.2
v 0.7 0.3 -0.3
v -0.7 0.2 1
v -0.7 0.2 0.8
v -0.7 0.2 0.7
v -0.7 0.2 0.6
v -0.7 0.2 -0.1
v -0.7 0.2 -0.4
v -0.7 0.3 1
v -0.7 0.3 0.8
v -0.7 0.3 0.7
v -0.7 0.3 0.6
v -0.7 0.3 -0.1
v -0.7 0.3 -0.4
v -0.7 0.3 -0.5
v -0.7 0.3 -0.9
v -0.7 0.4 -0.5
v -0.7 0.4 -0.9
v -0.6 0 1
v -0.6 0 0.9
v -0.6 0 -0.1
v -0.6 0 -0.4
v -0.6 0 -0.5
v -0.6 0 -0.6
v -0.6 0.1 1
v -0.6 0.1 0.9
v -0.6 0.1 -0.1
v -0.6 0.1 -0.4
v -0.6 0.1 -0.6
v -0.6 0.2 1
v -0.6 0.2 0.9
v -0.6 0.2 0.5
v -0.6 0.2 0.4
v -0.6 0.2 0.3
v -0.6 0.2 -1.19209e-07
v -0.6 0.2 -0.1
v -0.6 0.2 -0.4
v -0.6 0.2 -0.5
v -0.6 0.2 -0.6
v -0.6 0.2 -0.7
v -0.6 0.2 -0.8
v -0.6 0.2 -0.9
v -0.6 0.3 0.5
v -0.6 0.3 0.4
v -0.6 0.3 0.3
v -0.6 0.3 -1.19209e-07
v -0.6 0.3 -0.5
v -0.6 0.3 -0.7
v -0.6 0.3 -0.8
v -0.6 0.3 -0.9
v -0.5 0 0.2
v -0.5 0 -1.19209e-07
v -0.5 0.1 0.2
v -0.5 0.1 -1.19209e-07
v -0.5 0.2 0.2
v -0.5 0.2 -1.19209e-07
v -0.4 0.2 0.8
v -0.4 0.2 0.7
v -0.4 0.3 0.8
v -0.4 0.3 0.7
v -0.3 0 0.9
v -0.3 0 0.6
v -0.3 0 -0.6
v -0.3 0 -0.9
v -0.3 0.1 0.9
v -0.3 0.1 0.6
v -0.3 0.1 -0.6
v -0.3 0.1 -0.9
v -0.3 0.2 0.9
v -0.3 0.2 0.6
v -0.3 0.2 -0.6
v -0.3 0.2 -0.7
v -0.3 0.2 -0.8
v -0.3 0.2 -0.9
v -0.3 0.3 -0.7
v -0.3 0.3 -0.8
v -0.2 0 0.5
v -0.2 0 0.2
v -0.2 0.1 0.5
v -0.2 0.1 0.2
v -0.2 0.2 0.5
v -0.2 0.2 0.4
v -0.2 0.2 0.3
v -0.2 0.2 0.2
v -0.2 0.3 0.4
v -0.2 0.3 0.3
v 0.2 0.2 0.4
v 0.2 0.2 0.0999999
v 0.2 0.3 0.4
v 0.2 0.3 0.0999999
v 0.3 0 0.4
v 0.3 0 0.0999999
v 0.3 0.1 0.4
v 0.3 0.1 0.0999999
v 0.3 0.2 0.4
v 0.3 0.2 0.0999999
v 0.3 0.3 1
v 0.3 0.3 0.5
v 0.3 0.4 1
v 0.3 0.4 0.5
v 0.4 0 1
v 0.4 0 0.5
v 0.4 0 -0.5
v 0.4 0 -0.8
v 0.4 0.1 -0.5
v 0.4 0.1 -0.8
v 0.4 0.2 1
v 0.4 0.2 0.5
v 0.4 0.2 -0.5
v 0.4 0.2 -0.6
v 0.4 0.2 -0.7
v 0.4 0.2 -0.8
v 0.4 0.3 1
v 0.4 0.3 0.5
v 0.4 0.3 -0.6
v 0.4 0.3 -0.7
v 0.7 0.2 -0.4
v 0.7 0.2 -0.9
v 0.7 0.3 -0.4
v 0.7 0.3 -0.9
v 0.8 0 -0.4
v 0.8 0 -0.9
v 0.8 0.1 -0.4
v 0.8 0.1 -0.9
v 0.8 0.2 0.9
v 0.8 0.2 0.7
v 0.8 0.2 0.6
v 0.8 0.2 0.5
v 0.8 0.2 0.3
v 0.8 0.2 -0.3
v 0.8 0.2 -0.4
v 0.8 0.2 -0.9
v 0.8 0.3 0.9
v 0.8 0.3 0.7
v 0.8 0.3 0.6
v 0.8 0.3 0.5
v 0.8 0.3 0.3
v 0.8 0.3 -0.3
v 0.9 0 0.9
v 0.9 0 0.5
v 0.9 0 0.3
v 0.9 0 -0.3
v 0.9 0.1 0.9
v 0.9 0.1 0.5
v 0.9 0.1 0.3
v 0.9 0.1 -0.3
v 0.9 0.2 0.9
v 0.9 0.2 0.7
v 0.9 0.2 0.6
v 0.9 0.2 0.5
v 0.9 0.2 0.3
v 0.9 0.2 -0.3
v 0.9 0.3 0.7
v 0.9 0.3 0.6
v -0.9 0 1
v -0.9 0.1 1
v -0.9 0.2 1
v -0.8 0.2 1
v -0.8 0.3 1
v -0.7 0.2 1
v -0.7 0.3 1
v -0.6 0 1
v -0.6 0.1 1
v -0.6 0.2 1
v -0.2 0 1
v -0.2 0.1 1
v -0.2 0.2 1
v 0.1 0.1 1
v 0.1 0.2 1
v 0.1 0.3 1
v 0.2 0.3 1
v 0.2 0.4 1
v 0.3 0.3 1
v 0.3 0.4 1
v 0.4 0 1
v 0.4 0.2 1
v 0.4 0.3 1
v -0.6 0 0.9
v -0.6 0.1 0.9
v -0.6 0.2 0.9
v -0.3 0 0.9
v -0.3 0.1 0.9
v -0.3 0.2 0.9
v -0.2 0.2 0.9
v -0.2 0.3 0.9
v 0.1 0.2 0.9
v 0.1 0.3 0.9
v 0.6 0 0.9
v 0.6 0.1 0.9
v 0.6 0.2 0.9
v 0.7 0.2 0.9
v 0.7 0.3 0.9
v 0.8 0.2 0.9
v 0.8 0.3 0.9
v 0.9 0 0.9
v 0.9 0.1 0.9
v 0.9 0.2 0.9
v -0.7 0.2 0.8
v -0.7 0.3 0.8
v -0.4 0.2 0.8
v -0.4 0.3 0.8
v 0.6 0.2 0.8
v 0.6 0.3 0.8
v 0.7 0.2 0.8
v 0.7 0.3 0.8
v 0.8 0.2 0.7
v 0.8 0.3 0.7
v 0.9 0.2 0.7
v 0.9 0.3 0.7
v -0.8 0 0.5
v -0.8 0.1 0.5
v -0.8 0.2 0.5
v -0.7 0.2 0.5
v -0.7 0.3 0.5
v -0.6 0.2 0.5
v -0.6 0.3 0.5
v -0.2 0 0.5
v -0.2 0.1 0.5
v -0.2 0.2 0.5
v -0.8 0.2 0.4
v -0.8 0.3 0.4
v -0.7 0.2 0.4
v -0.7 0.3 0.4
v -0.6 0.2 0.4
v -0.6 0.3 0.4
v -0.2 0.2 0.4
v -0.2 0.3 0.4
v 0 0 0.4
v 0 0.1 0.4
v 0 0.2 0.4
v 0.1 0.2 0.4
v 0.1 0.3 0.4
v 0.2 0.2 0.4
v 0.2 0.3 0.4
v 0.3 0 0.4
v 0.3 0.1 0.4
v 0.3 0.2 0.4
v 0.6 0 0.3
v 0.6 0.1 0.3
v 0.6 0.2 0.3
v 0.7 0.2 0.3
v 0.7 0.3 0.3
v 0.8 0.2 0.3
v 0.8 0.3 0.3
v 0.9 0 0.3
v 0.9 0.1 0.3
v 0.9 0.2 0.3
v 0.4 0 -1.19209e-07
v 0.4 0.1 -1.19209e-07
v 0.4 0.2 -1.19209e-07
v 0.6 0 -1.19209e-07
v 0.6 0.1 -1.19209e-07
v 0.6 0.2 -1.19209e-07
v -0.9 0 -0.1
v -0.9 0.1 -0.1
v -0.9 0.2 -0.1
v -0.8 0.2 -0.1
v -0.8 0.3 -0.1
v -0.7 0.2 -0.1
v -0.7 0.3 -0.1
v -0.6 0 -0.1
v -0.6 0.1 -0.1
v -0.6 0.2 -0.1
v 0.4 0.2 -0.1
v 0.4 0.3 -0.1
v 0.7 0.2 -0.1
v 0.7 0.3 -0.1
v 0.5 0 -0.4
v 0.5 0.1 -0.4
v 0.5 0.2 -0.4
v 0.6 0.2 -0.4
v 0.6 0.3 -0.4
v 0.7 0.2 -0.4
v 0.7 0.3 -0.4
v 0.8 0 -0.4
v 0.8 0.1 -0.4
v 0.8 0.2 -0.4
v -0.9 0 -0.5
v -0.9 0.2 -0.5
v -0.9 0.3 -0.5
v -0.8 0.3 -0.5
v -0.8 0.4 -0.5
v -0.7 0.3 -0.5
v -0.7 0.4 -0.5
v -0.6 0 -0.5
v -0.6 0.2 -0.5
v -0.6 0.3 -0.5
v -0.1 0 -0.5
v -0.1 0.1 -0.5
v -0.1 0.2 -0.5
v 0.4 0 -0.5
v 0.4 0.1 -0.5
v 0.4 0.2 -0.5
v -0.6 0 -0.6
v -0.6 0.1 -0.6
v -0.6 0.2 -0.6
v -0.3 0 -0.6
v -0.3 0.1 -0.6
v -0.3 0.2 -0.6
v -0.1 0.2 -0.6
v -0.1 0.3 -0.6
v 0.4 0.2 -0.6
v 0.4 0.3 -0.6
v -0.6 0.2 -0.7
v -0.6 0.3 -0.7
v -0.3 0.2 -0.7
v -0.3 0.3 -0.7
v -0.2 0.2 0.8
v -0.2 0.3 0.8
v 0.1 0.2 0.8
v 0.1 0.3 0.8
v -0.7 0.2 0.7
v -0.7 0.3 0.7
v -0.4 0.2 0.7
v -0.4 0.3 0.7
v -0.2 0 0.7
v -0.2 0.1 0.7
v -0.2 0.2 0.7
v 0.1 0 0.7
v 0.1 0.1 0.7
v 0.1 0.2 0.7
v 0.6 0.2 0.7
v 0.6 0.3 0.7
v 0.7 0.2 0.7
v 0.7 0.3 0.7
v -0.9 0 0.6
v -0.9 0.1 0.6
v -0.9 0.2 0.6
v -0.8 0.2 0.6
v -0.8 0.3 0.6
v -0.7 0.2 0.6
v -0.7 0.3 0.6
v -0.3 0 0.6
v -0.3 0.1 0.6
v -0.3 0.2 0.6
v 0.8 0.2 0.6
v 0.8 0.3 0.6
v 0.9 0.2 0.6
v 0.9 0.3 0.6
v 0.1 0 0.5
v 0.1 0.2 0.5
v 0.1 0.3 0.5
v 0.2 0.3 0.5
v 0.2 0.4 0.5
v 0.3 0.3 0.5
v 0.3 0.4 0.5
v 0.4 0 0.5
v 0.4 0.2 0.5
v 0.4 0.3 0.5
v 0.6 0 0.5
v 0.6 0.1 0.5
v 0.6 0.2 0.5
v 0.7 0.2 0.5
v 0.7 0.3 0.5
v 0.8 0.2 0.5
v 0.8 0.3 0.5
v 0.9 0 0.5
v 0.9 0.1 0.5
v 0.9 0.2 0.5
v -0.8 0.2 0.3
v -0.8 0.3 0.3
v -0.7 0.2 0.3
v -0.7 0.3 0.3
v -0.6 0.2 0.3
v -0.6 0.3 0.3
v -0.2 0.2 0.3
v -0.2 0.3 0.3
v -0.5 0 0.2
v -0.5 0.1 0.2
v -0.5 0.2 0.2
v -0.2 0 0.2
v -0.2 0.1 0.2
v -0.2 0.2 0.2
v 0 0 0.0999999
v 0 0.1 0.0999999
v 0 0.2 0.0999999
v 0.1 0.2 0.0999999
v 0.1 0.3 0.0999999
v 0.2 0.2 0.0999999
v 0.2 0.3 0.0999999
v 0.3 0 0.0999999
v 0.3 0.1 0.0999999
v 0.3 0.2 0.0999999
v -0.8 0 -1.19209e-07
v -0.8 0.1 -1.19209e-07
v -0.8 0.2 -1.19209e-07
v -0.7 0.2 -1.19209e-07
v -0.7 0.3 -1.19209e-07
v -0.6 0.2 -1.19209e-07
v -0.6 0.3 -1.19209e-07
v -0.5 0 -1.19209e-07
v -0.5 0.1 -1.19209e-07
v -0.5 0.2 -1.19209e-07
v 0.4 0.2 -0.2
v 0.4 0.3 -0.2
v 0.7 0.2 -0.2
v 0.7 0.3 -0.2
v 0.4 0 -0.3
v 0.4 0.1 -0.3
v 0.4 0.2 -0.3
v 0.7 0.2 -0.3
v 0.7 0.3 -0.3
v 0.8 0.2 -0.3
v 0.8 0.3 -0.3
v 0.9 0 -0.3
v 0.9 0.1 -0.3
v 0.9 0.2 -0.3
v -0.9 0 -0.4
v -0.9 0.1 -0.4
v -0.9 0.2 -0.4
v -0.8 0.2 -0.4
v -0.8 0.3 -0.4
v -0.7 0.2 -0.4
v -0.7 0.3 -0.4
v -0.6 0 -0.4
v -0.6 0.1 -0.4
v -0.6 0.2 -0.4
v -0.1 0.2 -0.7
v -0.1 0.3 -0.7
v 0.4 0.2 -0.7
v 0.4 0.3 -0.7
v -0.6 0.2 -0.8
v -0.6 0.3 -0.8
v -0.3 0.2 -0.8
v -0.3 0.3 -0.8
v -0.1 0 -0.8
v -0.1 0.1 -0.8
v -0.1 0.2 -0.8
v 0.4 0 -0.8
v 0.4 0.1 -0.8
v 0.4 0.2 -0.8
v -0.9 0 -0.9
v -0.9 0.2 -0.9
v -0.9 0.3 -0.9
v -0.8 0.3 -0.9
v -0.8 0.4 -0.9
v -0.7 0.3 -0.9
v -0.7 0.4 -0.9
v -0.6 0.1 -0.9
v -0.6 0.2 -0.9
v -0.6 0.3 -0.9
v -0.3 0 -0.9
v -0.3 0.1 -0.9
v -0.3 0.2 -0.9
v 0.5 0 -0.9
v 0.5 0.1 -0.9
v 0.5 0.2 -0.9
v 0.6 0.2 -0.9
v 0.6 0.3 -0.9
v 0.7 0.2 -0.9
v 0.7 0.3 -0.9
v 0.8 0 -0.9
v 0.8 0.1 -0.9
v 0.8 0.2 -0.9
v -0.9 0 1
v -0.6 0 1
v -0.2 0 1
v 0.4 0 1
v -0.6 0 0.9
v -0.3 0 0.9
v 0.6 0 0.9
v 0.9 0 0.9
v -0.2 0 0.7
v 0.1 0 0.7
v -0.9 0 0.6
v -0.3 0 0.6
v -0.8 0 0.5
v -0.2 0 0.5
v 0.1 0 0.5
v 0.4 0 0.5
v 0.6 0 0.5
v 0.9 0 0.5
v 0 0 0.4
v 0.3 0 0.4
v 0.6 0 0.3
v 0.9 0 0.3
v -0.5 0 0.2
v -0.2 0 0.2
v 0 0 0.0999999
v 0.3 0 0.0999999
v -0.8 0 -1.19209e-07
v -0.5 0 -1.19209e-07
v 0.4 0 -1.19209e-07
v 0.6 0 -1.19209e-07
v -0.9 0 -0.1
v -0.6 0 -0.1
v 0.4 0 -0.3
v 0.9 0 -0.3
v -0.9 0 -0.4
v -0.6 0 -0.4
v 0.5 0 -0.4
v 0.8 0 -0.4
v -0.9 0 -0.5
v -0.6 0 -0.5
v -0.1 0 -0.5
v 0.4 0 -0.5
v -0.6 0 -0.6
v -0.3 0 -0.6
v -0.1 0 -0.8
v 0.4 0 -0.8
v -0.9 0 -0.9
v -0.3 0 -0.9
v 0.5 0 -0.9
v 0.8 0 -0.9
v -0.9 0.2 1
v -0.8 0.2 1
v -0.7 0.2 1
v -0.6 0.2 1
v -0.2 0.2 1
v 0.1 0.2 1
v -0.6 0.2 0.9
v -0.3 0.2 0.9
v -0.2 0.2 0.9
v 0.1 0.2 0.9
v 0.6 0.2 0.9
v 0.7 0.2 0.9
v 0.8 0.2 0.9
v 0.9 0.2 0.9
v -0.7 0.2 0.8
v -0.4 0.2 0.8
v -0.2 0.2 0.8
v 0.1 0.2 0.8
v 0.6 0.2 0.8
v 0.7 0.2 0.8
v -0.7 0.2 0.7
v -0.4 0.2 0.7
v -0.2 0.2 0.7
v 0.1 0.2 0.7
v 0.6 0.2 0.7
v 0.7 0.2 0.7
v 0.8 0.2 0.7
v 0.9 0.2 0.7
v -0.9 0.2 0.6
v -0.8 0.2 0.6
v -0.7 0.2 0.6
v -0.3 0.2 0.6
v 0.8 0.2 0.6
v 0.9 0.2 0.6
v -0.8 0.2 0.5
v -0.7 0.2 0.5
v -0.6 0.2 0.5
v -0.2 0.2 0.5
v 0.6 0.2 0.5
v 0.7 0.2 0.5
v 0.8 0.2 0.5
v 0.9 0.2 0.5
v -0.8 0.2 0.4
v -0.7 0.2 0.4
v -0.6 0.2 0.4
v -0.2 0.2 0.4
v 0 0.2 0.4
v 0.1 0.2 0.4
v 0.2 0.2 0.4
v 0.3 0.2 0.4
v -0.8 0.2 0.3
v -0.7 0.2 0.3
v -0.6 0.2 0.3
v -0.2 0.2 0.3
v 0.6 0.2 0.3
v 0.7 0.2 0.3
v 0.8 0.2 0.3
v 0.9 0.2 0.3
v -0.5 0.2 0.2
v -0.2 0.2 0.2
v 0 0.2 0.0999999
v 0.1 0.2 0.0999999
v 0.2 0.2 0.0999999
v 0.3 0.2 0.0999999
v -0.8 0.2 -1.19209e-07
v -0.7 0.2 -1.19209e-07
v -0.6 0.2 -1.19209e-07
v -0.5 0.2 -1.19209e-07
v 0.4 0.2 -1.19209e-07
v 0.6 0.2 -1.19209e-07
v -0.9 0.2 -0.1
v -0.8 0.2 -0.1
v -0.7 0.2 -0.1
v -0.6 0.2 -0.1
v 0.4 0.2 -0.1
v 0.7 0.2 -0.1
v 0.4 0.2 -0.2
v 0.7 0.2 -0.2
v 0.4 0.2 -0.3
v 0.7 0.2 -0.3
v 0.8 0.2 -0.3
v 0.9 0.2 -0.3
v -0.9 0.2 -0.4
v -0.8 0.2 -0.4
v -0.7 0.2 -0.4
v -0.6 0.2 -0.4
v 0.5 0.2 -0.4
v 0.6 0.2 -0.4
v 0.7 0.2 -0.4
v 0.8 0.2 -0.4
v -0.1 0.2 -0.5
v 0.4 0.2 -0.5
v -0.6 0.2 -0.6
v -0.3 0.2 -0.6
v -0.1 0.2 -0.6
v 0.4 0.2 -0.6
v -0.6 0.2 -0.7
v -0.3 0.2 -0.7
v -0.1 0.2 -0.7
v 0.4 0.2 -0.7
v -0.6 0.2 -0.8
v -0.3 0.2 -0.8
v -0.1 0.2 -0.8
v 0.4 0.2 -0.8
v -0.6 0.2 -0.9
v -0.3 0.2 -0.9
v 0.5 0.2 -0.9
v 0.6 0.2 -0.9
v 0.7 0.2 -0.9
v 0.8 0.2 -0.9
v -0.8 0.3 1
v -0.7 0.3 1
v 0.1 0.3 1
v 0.2 0.3 1
v 0.3 0.3 1
v 0.4 0.3 1
v -0.2 0.3 0.9
v 0.1 0.3 0.9
v 0.7 0.3 0.9
v 0.8 0.3 0.9
v -0.7 0.3 0.8
v -0.4 0.3 0.8
v -0.2 0.3 0.8
v 0.1 0.3 0.8
v 0.6 0.3 0.8
v 0.7 0.3 0.8
v -0.7 0.3 0.7
v -0.4 0.3 0.7
v 0.6 0.3 0.7
v 0.7 0.3 0.7
v 0.8 0.3 0.7
v 0.9 0.3 0.7
v -0.8 0.3 0.6
v -0.7 0.3 0.6
v 0.8 0.3 0.6
v 0.9 0.3 0.6
v -0.7 0.3 0.5
v -0.6 0.3 0.5
v 0.1 0.3 0.5
v 0.2 0.3 0.5
v 0.3 0.3 0.5
v 0.4 0.3 0.5
v 0.7 0.3 0.5
v 0.8 0.3 0.5
v -0.8 0.3 0.4
v -0.7 0.3 0.4
v -0.6 0.3 0.4
v -0.2 0.3 0.4
v 0.1 0.3 0.4
v 0.2 0.3 0.4
v -0.8 0.3 0.3
v -0.7 0.3 0.3
v -0.6 0.3 0.3
v -0.2 0.3 0.3
v 0.7 0.3 0.3
v 0.8 0.3 0.3
v 0.1 0.3 0.0999999
v 0.2 0.3 0.0999999
v -0.7 0.3 -1.19209e-07
v -0.6 0.3 -1.19209e-07
v -0.8 0.3 -0.1
v -0.7 0.3 -0.1
v 0.4 0.3 -0.1
v 0.7 0.3 -0.1
v 0.4 0.3 -0.2
v 0.7 0.3 -0.2
v 0.7 0.3 -0.3
v 0.8 0.3 -0.3
v -0.8 0.3 -0.4
v -0.7 0.3 -0.4
v 0.6 0.3 -0.4
v 0.7 0.3 -0.4
v -0.9 0.3 -0.5
v -0.8 0.3 -0.5
v -0.7 0.3 -0.5
v -0.6 0.3 -0.5
v -0.1 0.3 -0.6
v 0.4 0.3 -0.6
v -0.6 0.3 -0.7
v -0.3 0.3 -0.7
v -0.1 0.3 -0.7
v 0.4 0.3 -0.7
v -0.6 0.3 -0.8
v -0.3 0.3 -0.8
v -0.9 0.3 -0.9
v -0.8 0.3 -0.9
v -0.7 0.3 -0.9
v -0.6 0.3 -0.9
v 0.6 0.3 -0.9
v 0.7 0.3 -0.9
v 0.2 0.4 1
v 0.3 0.4 1
v 0.2 0.4 0.5
v 0.3 0.4 0.5
v -0.8 0.4 -0.5
v -0.7 0.4 -0.5
v -0.8 0.4 -0.9
v -0.7 0.4 -0.9

# faces
f 7/1/1 2/1/1 1/1/1
f 8/1/1 2/1/1 7/1/1
f 9/1/1 4/1/1 3/1/1
f 10/1/1 4/1/1 9/1/1
f 11/2/1 8/2/1 7/2/1
f 12/2/1 8/2/1 11/2/1
f 13/2/1 10/2/1 9/2/1
f 14/2/1 10/2/1 13/2/1
f 15/1/1 6/1/1 5/1/1
f 16/1/1 6/1/1 15/1/1
f 17/2/1 16/2/1 15/2/1
f 18/2/1 16/2/1 17/2/1
f 21/1/1 20/1/1 19/1/1
f 22/1/1 20/1/1 21/1/1
f 25/2/1 22/2/1 21/2/1
f 26/2/1 22/2/1 25/2/1
f 27/2/1 22/2/1 26/2/1
f 28/2/1 22/2/1 27/2/1
f 31/2/1 24/2/1 23/2/1
f 32/2/1 24/2/1 31/2/1
f 33/2/1 27/2/1 26/2/1
f 34/2/1 27/2/1 33/2/1
f 35/2/1 30/2/1 29/2/1
f 36/2/1 30/2/1 35/2/1
f 39/2/1 38/2/1 37/2/1
f 40/2/1 38/2/1 39/2/1
f 45/2/1 42/2/1 41/2/1
f 46/2/1 42/2/1 45/2/1
f 47/2/1 44/2/1 43/2/1
f 48/2/1 44/2/1 47/2/1
f 51/1/1 50/1/1 49/1/1
f 52/1/1 50/1/1 51/1/1
f 53/2/1 52/2/1 51/2/1
f 54/2/1 52/2/1 53/2/1
f 55/2/1 52/2/1 54/2/1
f 56/2/1 52/2/1 55/2/1
f 57/2/1 55/2/1 54/2/1
f 58/2/1 55/2/1 57/2/1
f 61/1/1 60/1/1 59/1/1
f 62/1/1 60/1/1 61/1/1
f 63/2/1 62/2/1 61/2/1
f 64/2/1 62/2/1 63/2/1
f 65/2/1 62/2/1 64/2/1
f 66/2/1 62/2/1 65/2/1
f 67/2/1 65/2/1 64/2/1
f 68/2/1 65/2/1 67/2/1
f 71/1/1 70/1/1 69/1/1
f 72/1/1 70/1/1 71/1/1
f 73/2/1 72/2/1 71/2/1
f 74/2/1 72/2/1 73/2/1
f 77/1/1 76/1/1 75/1/1
f 81/1/1 76/1/1 77/1/1
f 82/1/1 76/1/1 81/1/1
f 85/2/1 79/2/1 78/2/1
f 86/2/1 79/2/1 85/2/1
f 87/2/1 81/2/1 80/2/1
f 87/2/1 82/2/1 81/2/1
f 88/2/1 82/2/1 87/2/1
f 89/2/1 84/2/1 83/2/1
f 90/2/1 84/2/1 89/2/1
f 93/2/1 92/2/1 91/2/1
f 94/2/1 92/2/1 93/2/1
f 97/1/1 96/1/1 95/1/1
f 98/1/1 96/1/1 97/1/1
f 99/2/1 98/2/1 97/2/1
f 100/2/1 98/2/1 99/2/1
f 101/2/1 98/2/1 100/2/1
f 102/2/1 98/2/1 101/2/1
f 103/2/1 101/2/1 100/2/1
f 104/2/1 101/2/1 103/2/1
f 107/1/1 106/1/1 105/1/1
f 108/1/1 106/1/1 107/1/1
f 109/2/1 108/2/1 107/2/1
f 110/2/1 108/2/1 109/2/1
f 115/1/1 112/1/1 111/1/1
f 116/1/1 112/1/1 115/1/1
f 117/1/1 114/1/1 113/1/1
f 118/1/1 114/1/1 117/1/1
f 119/2/1 116/2/1 115/2/1
f 120/2/1 116/2/1 119/2/1
f 121/2/1 116/2/1 120/2/1
f 122/2/1 116/2/1 121/2/1
f 123/2/1 118/2/1 117/2/1
f 124/2/1 118/2/1 123/2/1
f 127/2/1 121/2/1 120/2/1
f 128/2/1 121/2/1 127/2/1
f 129/2/1 126/2/1 125/2/1
f 130/2/1 126/2/1 129/2/1
f 139/2/1 132/2/1 131/2/1
f 140/2/1 132/2/1 139/2/1
f 141/2/1 134/2/1 133/2/1
f 142/2/1 134/2/1 141/2/1
f 143/2/1 136/2/1 135/2/1
f 144/2/1 136/2/1 143/2/1
f 145/2/1 138/2/1 137/2/1
f 146/2/1 138/2/1 145/2/1
f 147/2/2 148/2/2 153/2/2
f 153/2/2 148/2/2 154/2/2
f 149/2/2 150/2/2 155/2/2
f 155/2/2 150/2/2 156/2/2
f 151/2/2 152/2/2 157/2/2
f 157/2/2 152/2/2 158/2/2
f 159/2/2 160/2/2 161/2/2
f 161/2/2 160/2/2 162/2/2
f 163/1/2 164/1/2 169/1/2
f 169/1/2 164/1/2 170/1/2
f 165/1/2 166/1/2 171/1/2
f 171/1/2 166/1/2 172/1/2
f 167/1/2 168/1/2 173/1/2
f 169/2/2 170/2/2 174/2/2
f 174/2/2 170/2/2 175/2/2
f 171/2/2 172/2/2 180/2/2
f 180/2/2 172/2/2 181/2/2
f 167/1/2 173/1/2 182/1/2
f 182/1/2 173/1/2 183/1/2
f 176/2/2 177/2/2 187/2/2
f 187/2/2 177/2/2 188/2/2
f 178/2/2 179/2/2 189/2/2
f 189/2/2 179/2/2 190/2/2
f 182/2/2 183/2/2 191/2/2
f 183/2/2 184/2/2 191/2/2
f 191/2/2 184/2/2 192/2/2
f 185/2/2 186/2/2 193/2/2
f 193/2/2 186/2/2 194/2/2
f 195/1/2 196/1/2 197/1/2
f 197/1/2 196/1/2 198/1/2
f 197/2/2 198/2/2 199/2/2
f 199/2/2 198/2/2 200/2/2
f 201/2/2 202/2/2 203/2/2
f 203/2/2 202/2/2 204/2/2
f 205/1/2 206/1/2 209/1/2
f 209/1/2 206/1/2 210/1/2
f 207/1/2 208/1/2 211/1/2
f 211/1/2 208/1/2 212/1/2
f 209/2/2 210/2/2 213/2/2
f 213/2/2 210/2/2 214/2/2
f 211/2/2 212/2/2 215/2/2
f 215/2/2 212/2/2 216/2/2
f 216/2/2 212/2/2 217/2/2
f 217/2/2 212/2/2 218/2/2
f 216/2/2 217/2/2 219/2/2
f 219/2/2 217/2/2 220/2/2
f 221/1/2 222/1/2 223/1/2
f 223/1/2 222/1/2 224/1/2
f 223/2/2 224/2/2 225/2/2
f 225/2/2 224/2/2 226/2/2
f 226/2/2 224/2/2 227/2/2
f 227/2/2 224/2/2 228/2/2
f 226/2/2 227/2/2 229/2/2
f 229/2/2 227/2/2 230/2/2
f 231/2/2 232/2/2 233/2/2
f 233/2/2 232/2/2 234/2/2
f 235/1/2 236/1/2 237/1/2
f 237/1/2 236/1/2 238/1/2
f 237/2/2 238/2/2 239/2/2
f 239/2/2 238/2/2 240/2/2
f 241/2/2 242/2/2 243/2/2
f 243/2/2 242/2/2 244/2/2
f 247/1/2 248/1/2 249/1/2
f 249/1/2 248/1/2 250/1/2
f 245/1/2 246/1/2 251/1/2
f 251/1/2 246/1/2 252/1/2
f 249/2/2 250/2/2 253/2/2
f 253/2/2 250/2/2 254/2/2
f 254/2/2 250/2/2 255/2/2
f 255/2/2 250/2/2 256/2/2
f 251/2/2 252/2/2 257/2/2
f 257/2/2 252/2/2 258/2/2
f 254/2/2 255/2/2 259/2/2
f 259/2/2 255/2/2 260/2/2
f 261/2/2 262/2/2 263/2/2
f 263/2/2 262/2/2 264/2/2
f 265/1/2 266/1/2 267/1/2
f 267/1/2 266/1/2 268/1/2
f 267/2/2 268/2/2 275/2/2
f 275/2/2 268/2/2 276/2/2
f 269/2/2 270/2/2 277/2/2
f 277/2/2 270/2/2 278/2/2
f 271/2/2 272/2/2 279/2/2
f 279/2/2 272/2/2 280/2/2
f 273/2/2 274/2/2 281/2/2
f 281/2/2 274/2/2 282/2/2
f 283/1/2 284/1/2 287/1/2
f 287/1/2 284/1/2 288/1/2
f 285/1/2 286/1/2 289/1/2
f 289/1/2 286/1/2 290/1/2
f 287/2/2 288/2/2 291/2/2
f 291/2/2 288/2/2 292/2/2
f 292/2/2 288/2/2 293/2/2
f 293/2/2 288/2/2 294/2/2
f 289/2/2 290/2/2 295/2/2
f 295/2/2 290/2/2 296/2/2
f 292/2/2 293/2/2 297/2/2
f 297/2/2 293/2/2 298/2/2
f 302/2/3 301/2/3 300/2/3
f 304/2/3 302/2/3 300/2/3
f 304/2/3 303/2/3 302/2/3
f 305/2/3 303/2/3 304/2/3
f 306/1/3 300/1/3 299/1/3
f 307/2/3 304/2/3 300/2/3
f 307/1/3 300/1/3 306/1/3
f 308/2/3 304/2/3 307/2/3
f 312/1/3 310/1/3 309/1/3
f 312/2/3 311/2/3 310/2/3
f 313/2/3 311/2/3 312/2/3
f 315/2/3 314/2/3 313/2/3
f 317/2/3 315/2/3 313/2/3
f 317/2/3 316/2/3 315/2/3
f 318/2/3 316/2/3 317/2/3
f 319/1/3 312/1/3 309/1/3
f 319/1/3 313/1/3 312/1/3
f 320/2/3 317/2/3 313/2/3
f 320/1/3 313/1/3 319/1/3
f 321/2/3 317/2/3 320/2/3
f 325/1/3 323/1/3 322/1/3
f 326/2/3 324/2/3 323/2/3
f 326/1/3 323/1/3 325/1/3
f 327/2/3 324/2/3 326/2/3
f 330/2/3 329/2/3 328/2/3
f 331/2/3 329/2/3 330/2/3
f 335/2/3 334/2/3 333/2/3
f 337/2/3 335/2/3 333/2/3
f 337/2/3 336/2/3 335/2/3
f 338/2/3 336/2/3 337/2/3
f 339/1/3 333/1/3 332/1/3
f 340/2/3 337/2/3 333/2/3
f 340/1/3 333/1/3 339/1/3
f 341/2/3 337/2/3 340/2/3
f 344/2/3 343/2/3 342/2/3
f 345/2/3 343/2/3 344/2/3
f 348/2/3 347/2/3 346/2/3
f 349/2/3 347/2/3 348/2/3
f 352/2/3 351/2/3 350/2/3
f 353/2/3 351/2/3 352/2/3
f 357/2/3 356/2/3 355/2/3
f 359/2/3 357/2/3 355/2/3
f 359/2/3 358/2/3 357/2/3
f 360/2/3 358/2/3 359/2/3
f 361/1/3 355/1/3 354/1/3
f 362/2/3 359/2/3 355/2/3
f 362/1/3 355/1/3 361/1/3
f 363/2/3 359/2/3 362/2/3
f 366/2/3 365/2/3 364/2/3
f 367/2/3 365/2/3 366/2/3
f 370/2/3 369/2/3 368/2/3
f 371/2/3 369/2/3 370/2/3
f 375/2/3 374/2/3 373/2/3
f 377/2/3 375/2/3 373/2/3
f 377/2/3 376/2/3 375/2/3
f 378/2/3 376/2/3 377/2/3
f 379/1/3 373/1/3 372/1/3
f 380/2/3 377/2/3 373/2/3
f 380/1/3 373/1/3 379/1/3
f 381/2/3 377/2/3 380/2/3
f 385/2/3 384/2/3 383/2/3
f 387/2/3 385/2/3 383/2/3
f 387/2/3 386/2/3 385/2/3
f 388/2/3 386/2/3 387/2/3
f 389/1/3 383/1/3 382/1/3
f 390/2/3 387/2/3 383/2/3
f 390/1/3 383/1/3 389/1/3
f 391/2/3 387/2/3 390/2/3
f 395/1/3 393/1/3 392/1/3
f 396/2/3 394/2/3 393/2/3
f 396/1/3 393/1/3 395/1/3
f 397/2/3 394/2/3 396/2/3
f 401/2/3 400/2/3 399/2/3
f 403/2/3 401/2/3 399/2/3
f 403/2/3 402/2/3 401/2/3
f 404/2/3 402/2/3 403/2/3
f 405/1/3 399/1/3 398/1/3
f 406/2/3 403/2/3 399/2/3
f 406/1/3 399/1/3 405/1/3
f 407/2/3 403/2/3 406/2/3
f 410/2/3 409/2/3 408/2/3
f 411/2/3 409/2/3 410/2/3
f 415/2/3 414/2/3 413/2/3
f 417/2/3 415/2/3 413/2/3
f 417/2/3 416/2/3 415/2/3
f 418/2/3 416/2/3 417/2/3
f 419/1/3 413/1/3 412/1/3
f 420/2/3 417/2/3 413/2/3
f 420/1/3 413/1/3 419/1/3
f 421/2/3 417/2/3 420/2/3
f 425/2/3 424/2/3 423/2/3
f 427/2/3 425/2/3 423/2/3
f 427/2/3 426/2/3 425/2/3
f 428/2/3 426/2/3 427/2/3
f 429/1/3 423/1/3 422/1/3
f 430/2/3 427/2/3 423/2/3
f 430/1/3 423/1/3 429/1/3
f 431/2/3 427/2/3 430/2/3
f 435/1/3 433/1/3 432/1/3
f 436/2/3 434/2/3 433/2/3
f 436/1/3 433/1/3 435/1/3
f 437/2/3 434/2/3 436/2/3
f 441/1/3 439/1/3 438/1/3
f 442/2/3 440/2/3 439/2/3
f 442/1/3 439/1/3 441/1/3
f 443/2/3 440/2/3 442/2/3
f 446/2/3 445/2/3 444/2/3
f 447/2/3 445/2/3 446/2/3
f 450/2/3 449/2/3 448/2/3
f 451/2/3 449/2/3 450/2/3
f 452/2/4 453/2/4 454/2/4
f 454/2/4 453/2/4 455/2/4
f 456/2/4 457/2/4 458/2/4
f 458/2/4 457/2/4 459/2/4
f 460/1/4 461/1/4 463/1/4
f 461/2/4 462/2/4 464/2/4
f 463/1/4 461/1/4 464/1/4
f 464/2/4 462/2/4 465/2/4
f 466/2/4 467/2/4 468/2/4
f 468/2/4 467/2/4 469/2/4
f 471/2/4 472/2/4 473/2/4
f 471/2/4 473/2/4 475/2/4
f 473/2/4 474/2/4 475/2/4
f 475/2/4 474/2/4 476/2/4
f 470/1/4 471/1/4 477/1/4
f 471/2/4 475/2/4 478/2/4
f 477/1/4 471/1/4 478/1/4
f 478/2/4 475/2/4 479/2/4
f 480/2/4 481/2/4 482/2/4
f 482/2/4 481/2/4 483/2/4
f 485/2/4 486/2/4 487/2/4
f 485/2/4 487/2/4 489/2/4
f 487/2/4 488/2/4 489/2/4
f 489/2/4 488/2/4 490/2/4
f 484/1/4 485/1/4 491/1/4
f 485/2/4 489/2/4 492/2/4
f 491/1/4 485/1/4 492/1/4
f 492/2/4 489/2/4 493/2/4
f 495/2/4 496/2/4 497/2/4
f 495/2/4 497/2/4 499/2/4
f 497/2/4 498/2/4 499/2/4
f 499/2/4 498/2/4 500/2/4
f 494/1/4 495/1/4 501/1/4
f 495/2/4 499/2/4 502/2/4
f 501/1/4 495/1/4 502/1/4
f 502/2/4 499/2/4 503/2/4
f 504/2/4 505/2/4 506/2/4
f 506/2/4 505/2/4 507/2/4
f 508/2/4 509/2/4 510/2/4
f 510/2/4 509/2/4 511/2/4
f 512/1/4 513/1/4 515/1/4
f 513/2/4 514/2/4 516/2/4
f 515/1/4 513/1/4 516/1/4
f 516/2/4 514/2/4 517/2/4
f 519/2/4 520/2/4 521/2/4
f 519/2/4 521/2/4 523/2/4
f 521/2/4 522/2/4 523/2/4
f 523/2/4 522/2/4 524/2/4
f 518/1/4 519/1/4 525/1/4
f 519/2/4 523/2/4 526/2/4
f 525/1/4 519/1/4 526/1/4
f 526/2/4 523/2/4 527/2/4
f 529/2/4 530/2/4 531/2/4
f 529/2/4 531/2/4 533/2/4
f 531/2/4 532/2/4 533/2/4
f 533/2/4 532/2/4 534/2/4
f 528/1/4 529/1/4 535/1/4
f 529/2/4 533/2/4 536/2/4
f 535/1/4 529/1/4 536/1/4
f 536/2/4 533/2/4 537/2/4
f 538/2/4 539/2/4 540/2/4
f 540/2/4 539/2/4 541/2/4
f 543/2/4 544/2/4 545/2/4
f 543/2/4 545/2/4 547/2/4
f 545/2/4 546/2/4 547/2/4
f 547/2/4 546/2/4 548/2/4
f 542/1/4 543/1/4 549/1/4
f 543/2/4 547/2/4 550/2/4
f 549/1/4 543/1/4 550/1/4
f 550/2/4 547/2/4 551/2/4
f 553/2/4 554/2/4 555/2/4
f 553/2/4 555/2/4 557/2/4
f 555/2/4 556/2/4 557/2/4
f 557/2/4 556/2/4 558/2/4
f 552/1/4 553/1/4 559/1/4
f 553/2/4 557/2/4 560/2/4
f 559/1/4 553/1/4 560/1/4
f 560/2/4 557/2/4 561/2/4
f 562/2/4 563/2/4 564/2/4
f 564/2/4 563/2/4 565/2/4
f 566/2/4 567/2/4 568/2/4
f 568/2/4 567/2/4 569/2/4
f 570/1/4 571/1/4 573/1/4
f 571/2/4 572/2/4 574/2/4
f 573/1/4 571/1/4 574/1/4
f 574/2/4 572/2/4 575/2/4
f 577/2/4 578/2/4 579/2/4
f 577/2/4 579/2/4 581/2/4
f 579/2/4 580/2/4 581/2/4
f 581/2/4 580/2/4 582/2/4
f 576/1/4 577/1/4 583/1/4
f 577/2/4 581/2/4 584/2/4
f 583/1/4 577/1/4 584/1/4
f 584/2/4 581/2/4 585/2/4
f 576/1/4 583/1/4 586/1/4
f 583/2/4 584/2/4 587/2/4
f 586/1/4 583/1/4 587/1/4
f 587/2/4 584/2/4 588/2/4
f 590/2/4 591/2/4 592/2/4
f 590/2/4 592/2/4 594/2/4
f 592/2/4 593/2/4 594/2/4
f 594/2/4 593/2/4 595/2/4
f 589/1/4 590/1/4 596/1/4
f 590/2/4 594/2/4 597/2/4
f 596/1/4 590/1/4 597/1/4
f 597/2/4 594/2/4 598/2/4
f 603/1/5 600/1/5 599/1/5
f 607/1/5 602/1/5 601/1/5
f 608/1/5 602/1/5 607/1/5
f 609/1/5 603/1/5 599/1/5
f 609/1/5 604/1/5 603/1/5
f 610/1/5 604/1/5 609/1/5
f 613/1/5 602/1/5 608/1/5
f 614/1/5 602/1/5 613/1/5
f 615/1/5 606/1/5 605/1/5
f 616/1/5 606/1/5 615/1/5
f 621/1/5 612/1/5 611/1/5
f 622/1/5 612/1/5 621/1/5
f 623/1/5 618/1/5 617/1/5
f 624/1/5 618/1/5 623/1/5
f 625/1/5 621/1/5 611/1/5
f 626/1/5 621/1/5 625/1/5
f 628/1/5 620/1/5 619/1/5
f 631/1/5 628/1/5 627/1/5
f 632/1/5 620/1/5 628/1/5
f 632/1/5 628/1/5 631/1/5
f 633/1/5 630/1/5 629/1/5
f 634/1/5 630/1/5 633/1/5
f 641/1/5 638/1/5 637/1/5
f 643/1/5 640/1/5 639/1/5
f 644/1/5 640/1/5 643/1/5
f 645/1/5 642/1/5 641/1/5
f 645/1/5 641/1/5 637/1/5
f 646/1/5 642/1/5 645/1/5
f 647/1/5 636/1/5 635/1/5
f 648/1/5 636/1/5 647/1/5
f 651/2/6 652/2/6 655/2/6
f 653/2/6 654/2/6 657/2/6
f 657/2/6 654/2/6 658/2/6
f 655/2/6 656/2/6 663/2/6
f 651/2/6 655/2/6 663/2/6
f 663/2/6 656/2/6 664/2/6
f 659/2/6 660/2/6 667/2/6
f 667/2/6 660/2/6 668/2/6
f 664/2/6 656/2/6 670/2/6
f 665/2/6 666/2/6 671/2/6
f 671/2/6 666/2/6 672/2/6
f 661/2/6 662/2/6 675/2/6
f 675/2/6 662/2/6 676/2/6
f 649/2/6 650/2/6 677/2/6
f 677/2/6 650/2/6 678/2/6
f 669/2/6 670/2/6 679/2/6
f 670/2/6 656/2/6 680/2/6
f 679/2/6 670/2/6 680/2/6
f 673/2/6 674/2/6 687/2/6
f 687/2/6 674/2/6 688/2/6
f 681/2/6 682/2/6 689/2/6
f 689/2/6 682/2/6 690/2/6
f 683/2/6 684/2/6 691/2/6
f 691/2/6 684/2/6 692/2/6
f 685/2/6 686/2/6 693/2/6
f 693/2/6 686/2/6 694/2/6
f 701/2/6 702/2/6 707/2/6
f 707/2/6 702/2/6 708/2/6
f 695/2/6 696/2/6 709/2/6
f 709/2/6 696/2/6 710/2/6
f 697/2/6 698/2/6 711/2/6
f 711/2/6 698/2/6 712/2/6
f 699/2/6 700/2/6 713/2/6
f 713/2/6 700/2/6 714/2/6
f 701/2/6 707/2/6 715/2/6
f 715/2/6 707/2/6 716/2/6
f 703/2/6 704/2/6 718/2/6
f 717/2/6 718/2/6 723/2/6
f 718/2/6 704/2/6 724/2/6
f 723/2/6 718/2/6 724/2/6
f 725/2/6 726/2/6 727/2/6
f 727/2/6 726/2/6 728/2/6
f 705/2/6 706/2/6 729/2/6
f 729/2/6 706/2/6 730/2/6
f 719/2/6 720/2/6 731/2/6
f 731/2/6 720/2/6 732/2/6
f 721/2/6 722/2/6 733/2/6
f 733/2/6 722/2/6 734/2/6
f 739/2/6 740/2/6 743/2/6
f 743/2/6 740/2/6 744/2/6
f 741/2/6 742/2/6 745/2/6
f 745/2/6 742/2/6 746/2/6
f 747/2/6 748/2/6 751/2/6
f 751/2/6 748/2/6 752/2/6
f 749/2/6 750/2/6 753/2/6
f 753/2/6 750/2/6 754/2/6
f 735/2/6 736/2/6 755/2/6
f 755/2/6 736/2/6 756/2/6
f 737/2/6 738/2/6 757/2/6
f 757/2/6 738/2/6 758/2/6
f 761/2/6 762/2/6 766/2/6
f 759/2/6 760/2/6 769/2/6
f 765/2/6 766/2/6 771/2/6
f 766/2/6 762/2/6 772/2/6
f 771/2/6 766/2/6 772/2/6
f 767/2/6 768/2/6 774/2/6
f 769/2/6 770/2/6 775/2/6
f 759/2/6 769/2/6 775/2/6
f 775/2/6 770/2/6 776/2/6
f 773/2/6 774/2/6 777/2/6
f 774/2/6 768/2/6 778/2/6
f 777/2/6 774/2/6 778/2/6
f 778/2/6 768/2/6 779/2/6
f 759/2/6 775/2/6 781/2/6
f 781/2/6 775/2/6 782/2/6
f 779/2/6 780/2/6 783/2/6
f 778/2/6 779/2/6 783/2/6
f 783/2/6 780/2/6 784/2/6
f 772/2/6 762/2/6 787/2/6
f 787/2/6 762/2/6 788/2/6
f 763/2/6 764/2/6 789/2/6
f 789/2/6 764/2/6 790/2/6
f 778/2/6 783/2/6 791/2/6
f 791/2/6 783/2/6 792/2/6
f 785/2/6 786/2/6 794/2/6
f 794/2/6 786/2/6 795/2/6
f 793/2/6 794/2/6 799/2/6
f 794/2/6 795/2/6 799/2/6
f 795/2/6 796/2/6 799/2/6
f 799/2/6 796/2/6 800/2/6
f 800/2/6 796/2/6 801/2/6
f 801/2/6 796/2/6 802/2/6
f 797/2/6 798/2/6 805/2/6
f 805/2/6 798/2/6 806/2/6
f 800/2/6 801/2/6 807/2/6
f 807/2/6 801/2/6 808/2/6
f 803/2/6 804/2/6 812/2/6
f 811/2/6 812/2/6 813/2/6
f 812/2/6 804/2/6 814/2/6
f 813/2/6 812/2/6 814/2/6
f 814/2/6 804/2/6 815/2/6
f 815/2/6 804/2/6 816/2/6
f 809/2/6 810/2/6 817/2/6
f 817/2/6 810/2/6 818/2/6
f 823/2/6 824/2/6 827/2/6
f 825/2/6 826/2/6 829/2/6
f 829/2/6 826/2/6 830/2/6
f 827/2/6 828/2/6 831/2/6
f 823/2/6 827/2/6 831/2/6
f 831/2/6 828/2/6 832/2/6
f 821/2/6 822/2/6 833/2/6
f 833/2/6 822/2/6 834/2/6
f 823/2/6 831/2/6 835/2/6
f 835/2/6 831/2/6 836/2/6
f 819/2/6 820/2/6 837/2/6
f 837/2/6 820/2/6 838/2/6
f 839/2/6 840/2/6 841/2/6
f 841/2/6 840/2/6 842/2/6
f 843/2/6 844/2/6 845/2/6
f 845/2/6 844/2/6 846/2/6
