# MagicaVoxel @ Ephtracy

# group
o 

# material
mtllib center_city_wall_plus.mtl
usemtl palette

# normals
vn -1 0 0
vn 1 0 0
vn 0 0 1
vn 0 0 -1
vn 0 -1 0
vn 0 1 0

# texcoords
vt 0.0371094 0.5
vt 0.373047 0.5
vt 0.830078 0.5
vt 0.849609 0.5

# verts
v -1 0 -0.5
v -1 0 -0.6
v -1 0 -0.9
v -1 0 -1
v -1 0.2 -0.6
v -1 0.2 -0.9
v -1 0.3 -0.6
v -1 0.3 -0.9
v -1 0.4 -0.5
v -1 0.4 -0.6
v -1 0.4 -0.9
v -1 0.4 -1
v -0.9 0 1
v -0.9 0 0.6
v -0.9 0 -0.1
v -0.9 0 -0.4
v -0.9 0 -0.6
v -0.9 0 -0.9
v -0.9 0.1 1
v -0.9 0.1 0.6
v -0.9 0.1 -0.1
v -0.9 0.1 -0.4
v -0.9 0.1 -0.6
v -0.9 0.1 -0.9
v -0.9 0.2 1
v -0.9 0.2 0.6
v -0.9 0.2 -0.1
v -0.9 0.2 -0.4
v -0.8 0 0.5
v -0.8 0 -1.19209e-07
v -0.8 0.1 0.5
v -0.8 0.1 -1.19209e-07
v -0.8 0.2 1
v -0.8 0.2 0.6
v -0.8 0.2 0.5
v -0.8 0.2 0.4
v -0.8 0.2 0.3
v -0.8 0.2 -1.19209e-07
v -0.8 0.2 -0.1
v -0.8 0.2 -0.4
v -0.8 0.3 1
v -0.8 0.3 0.6
v -0.8 0.3 0.4
v -0.8 0.3 0.3
v -0.8 0.3 -0.1
v -0.8 0.3 -0.4
v -0.7 0.2 0.5
v -0.7 0.2 0.4
v -0.7 0.2 0.3
v -0.7 0.2 -1.19209e-07
v -0.7 0.3 0.5
v -0.7 0.3 0.4
v -0.7 0.3 0.3
v -0.7 0.3 -1.19209e-07
v -0.6 0 -0.5
v -0.6 0 -0.6
v -0.6 0 -0.9
v -0.6 0 -1
v -0.6 0.1 -0.6
v -0.6 0.1 -0.9
v -0.6 0.2 -0.5
v -0.6 0.2 -0.6
v -0.6 0.2 -0.9
v -0.6 0.2 -1
v -0.6 0.3 -0.5
v -0.6 0.3 -0.6
v -0.6 0.3 -0.9
v -0.6 0.3 -1
v -0.6 0.4 -0.5
v -0.6 0.4 -0.6
v -0.6 0.4 -0.9
v -0.6 0.4 -1
v -0.2 0 1
v -0.2 0 0.7
v -0.2 0.1 1
v -0.2 0.1 0.7
v -0.2 0.2 1
v -0.2 0.2 0.9
v -0.2 0.2 0.8
v -0.2 0.2 0.7
v -0.2 0.3 0.9
v -0.2 0.3 0.8
v 1.19209e-07 0 0.4
v 1.19209e-07 0 0.0999999
v 1.19209e-07 0.5 0.4
v 1.19209e-07 0.5 0.0999999
v 1.19209e-07 0.6 0.4
v 1.19209e-07 0.6 0.3
v 1.19209e-07 0.6 0.2
v 1.19209e-07 0.6 0.0999999
v 1.19209e-07 0.7 0.3
v 1.19209e-07 0.7 0.2
v 0.1 0 0.7
v 0.1 0 0.5
v 0.1 0.1 0.7
v 0.1 0.2 1
v 0.1 0.2 0.9
v 0.1 0.2 0.8
v 0.1 0.2 0.7
v 0.1 0.2 0.5
v 0.1 0.3 1
v 0.1 0.3 0.9
v 0.1 0.3 0.8
v 0.1 0.3 0.5
v 0.1 0.6 0.4
v 0.1 0.6 0.3
v 0.1 0.6 0.2
v 0.1 0.6 0.0999999
v 0.1 0.7 0.4
v 0.1 0.7 0.3
v 0.1 0.7 0.2
v 0.1 0.7 0.0999999
v 0.1 0.8 0.3
v 0.1 0.8 0.2
v 0.2 0.3 1
v 0.2 0.3 0.5
v 0.2 0.4 1
v 0.2 0.4 0.5
v 0.4 0 -1.19209e-07
v 0.4 0 -0.3
v 0.4 0.1 -1.19209e-07
v 0.4 0.1 -0.3
v 0.4 0.2 -1.19209e-07
v 0.4 0.2 -0.1
v 0.4 0.2 -0.2
v 0.4 0.2 -0.3
v 0.4 0.3 -0.1
v 0.4 0.3 -0.2
v 0.5 0.1 -0.5
v 0.5 0.1 -0.6
v 0.5 0.1 -0.9
v 0.5 0.1 -1
v 0.5 0.2 -0.6
v 0.5 0.2 -0.9
v 0.5 0.3 -0.6
v 0.5 0.3 -0.9
v 0.5 0.4 -0.5
v 0.5 0.4 -0.6
v 0.5 0.4 -0.9
v 0.5 0.4 -1
v 0.6 0 0.9
v 0.6 0 0.5
v 0.6 0 0.3
v 0.6 0 -1.19209e-07
v 0.6 0.1 0.9
v 0.6 0.1 0.5
v 0.6 0.1 0.3
v 0.6 0.1 -1.19209e-07
v 0.6 0.2 0.9
v 0.6 0.2 0.8
v 0.6 0.2 0.7
v 0.6 0.2 0.5
v 0.6 0.2 0.3
v 0.6 0.2 -1.19209e-07
v 0.6 0.3 0.8
v 0.6 0.3 0.7
v 0.7 0.2 0.9
v 0.7 0.2 0.8
v 0.7 0.2 0.7
v 0.7 0.2 0.5
v 0.7 0.2 0.3
v 0.7 0.2 -0.1
v 0.7 0.2 -0.2
v 0.7 0.2 -0.3
v 0.7 0.3 0.9
v 0.7 0.3 0.8
v 0.7 0.3 0.7
v 0.7 0.3 0.5
v 0.7 0.3 0.3
v 0.7 0.3 -0.1
v 0.7 0.3 -0.2
v 0.7 0.3 -0.3
v 0.9 0 -0.5
v 0.9 0 -0.6
v 0.9 0 -0.9
v 0.9 0 -1
v 0.9 0.1 -0.6
v 0.9 0.1 -0.9
v 0.9 0.2 -0.5
v 0.9 0.2 -0.6
v 0.9 0.2 -0.9
v 0.9 0.2 -1
v 0.9 0.3 -0.5
v 0.9 0.3 -0.6
v 0.9 0.3 -0.9
v 0.9 0.3 -1
v 0.9 0.4 -0.5
v 0.9 0.4 -0.6
v 0.9 0.4 -0.9
v 0.9 0.4 -1
v -0.9 0 -0.5
v -0.9 0 -0.6
v -0.9 0 -0.9
v -0.9 0 -1
v -0.9 0.1 -0.6
v -0.9 0.1 -0.9
v -0.9 0.2 -0.5
v -0.9 0.2 -0.6
v -0.9 0.2 -0.9
v -0.9 0.2 -1
v -0.9 0.3 -0.5
v -0.9 0.3 -0.6
v -0.9 0.3 -0.9
v -0.9 0.3 -1
v -0.9 0.4 -0.5
v -0.9 0.4 -0.6
v -0.9 0.4 -0.9
v -0.9 0.4 -1
v -0.7 0.2 1
v -0.7 0.2 0.8
v -0.7 0.2 0.7
v -0.7 0.2 0.6
v -0.7 0.2 -0.1
v -0.7 0.2 -0.4
v -0.7 0.3 1
v -0.7 0.3 0.8
v -0.7 0.3 0.7
v -0.7 0.3 0.6
v -0.7 0.3 -0.1
v -0.7 0.3 -0.4
v -0.6 0 1
v -0.6 0 0.9
v -0.6 0 -0.1
v -0.6 0 -0.4
v -0.6 0.1 1
v -0.6 0.1 0.9
v -0.6 0.1 -0.1
v -0.6 0.1 -0.4
v -0.6 0.2 1
v -0.6 0.2 0.9
v -0.6 0.2 0.5
v -0.6 0.2 0.4
v -0.6 0.2 0.3
v -0.6 0.2 -1.19209e-07
v -0.6 0.2 -0.1
v -0.6 0.2 -0.4
v -0.6 0.3 0.5
v -0.6 0.3 0.4
v -0.6 0.3 0.3
v -0.6 0.3 -1.19209e-07
v -0.5 0 0.2
v -0.5 0 -1.19209e-07
v -0.5 0.1 0.2
v -0.5 0.1 -1.19209e-07
v -0.5 0.1 -0.5
v -0.5 0.1 -0.6
v -0.5 0.1 -0.9
v -0.5 0.1 -1
v -0.5 0.2 0.2
v -0.5 0.2 -1.19209e-07
v -0.5 0.2 -0.6
v -0.5 0.2 -0.9
v -0.5 0.3 -0.6
v -0.5 0.3 -0.9
v -0.5 0.4 -0.5
v -0.5 0.4 -0.6
v -0.5 0.4 -0.9
v -0.5 0.4 -1
v -0.4 0.2 0.8
v -0.4 0.2 0.7
v -0.4 0.3 0.8
v -0.4 0.3 0.7
v -0.3 0 0.9
v -0.3 0 0.6
v -0.3 0.1 0.9
v -0.3 0.1 0.6
v -0.3 0.2 0.9
v -0.3 0.2 0.6
v -0.2 0 0.5
v -0.2 0 0.2
v -0.2 0.1 0.5
v -0.2 0.1 0.2
v -0.2 0.2 0.5
v -0.2 0.2 0.4
v -0.2 0.2 0.3
v -0.2 0.2 0.2
v -0.2 0.3 0.4
v -0.2 0.3 0.3
v 0.2 0.6 0.4
v 0.2 0.6 0.3
v 0.2 0.6 0.2
v 0.2 0.6 0.0999999
v 0.2 0.7 0.4
v 0.2 0.7 0.3
v 0.2 0.7 0.2
v 0.2 0.7 0.0999999
v 0.2 0.8 0.3
v 0.2 0.8 0.2
v 0.3 0 0.4
v 0.3 0 0.0999999
v 0.3 0.3 1
v 0.3 0.3 0.5
v 0.3 0.4 1
v 0.3 0.4 0.5
v 0.3 0.5 0.4
v 0.3 0.5 0.0999999
v 0.3 0.6 0.4
v 0.3 0.6 0.3
v 0.3 0.6 0.2
v 0.3 0.6 0.0999999
v 0.3 0.7 0.3
v 0.3 0.7 0.2
v 0.4 0 1
v 0.4 0 0.5
v 0.4 0.2 1
v 0.4 0.2 0.5
v 0.4 0.3 1
v 0.4 0.3 0.5
v 0.6 0 -0.5
v 0.6 0 -0.6
v 0.6 0 -0.9
v 0.6 0 -1
v 0.6 0.1 -0.6
v 0.6 0.1 -0.9
v 0.6 0.2 -0.5
v 0.6 0.2 -0.6
v 0.6 0.2 -0.9
v 0.6 0.2 -1
v 0.6 0.3 -0.5
v 0.6 0.3 -0.6
v 0.6 0.3 -0.9
v 0.6 0.3 -1
v 0.6 0.4 -0.5
v 0.6 0.4 -0.6
v 0.6 0.4 -0.9
v 0.6 0.4 -1
v 0.8 0.2 0.9
v 0.8 0.2 0.7
v 0.8 0.2 0.6
v 0.8 0.2 0.5
v 0.8 0.2 0.3
v 0.8 0.2 -0.3
v 0.8 0.3 0.9
v 0.8 0.3 0.7
v 0.8 0.3 0.6
v 0.8 0.3 0.5
v 0.8 0.3 0.3
v 0.8 0.3 -0.3
v 0.9 0 0.9
v 0.9 0 0.5
v 0.9 0 0.3
v 0.9 0 -0.3
v 0.9 0 -0.6
v 0.9 0 -0.9
v 0.9 0.1 0.9
v 0.9 0.1 0.5
v 0.9 0.1 0.3
v 0.9 0.1 -0.3
v 0.9 0.1 -0.6
v 0.9 0.1 -0.9
v 0.9 0.2 0.9
v 0.9 0.2 0.7
v 0.9 0.2 0.6
v 0.9 0.2 0.5
v 0.9 0.2 0.3
v 0.9 0.2 -0.3
v 0.9 0.3 0.7
v 0.9 0.3 0.6
v 1 0 -0.5
v 1 0 -0.6
v 1 0 -0.9
v 1 0 -1
v 1 0.2 -0.6
v 1 0.2 -0.9
v 1 0.3 -0.6
v 1 0.3 -0.9
v 1 0.4 -0.5
v 1 0.4 -0.6
v 1 0.4 -0.9
v 1 0.4 -1
v -0.9 0 1
v -0.9 0.1 1
v -0.9 0.2 1
v -0.8 0.2 1
v -0.8 0.3 1
v -0.7 0.2 1
v -0.7 0.3 1
v -0.6 0 1
v -0.6 0.1 1
v -0.6 0.2 1
v -0.2 0 1
v -0.2 0.1 1
v -0.2 0.2 1
v 0.1 0.1 1
v 0.1 0.2 1
v 0.1 0.3 1
v 0.2 0.3 1
v 0.2 0.4 1
v 0.3 0.3 1
v 0.3 0.4 1
v 0.4 0 1
v 0.4 0.2 1
v 0.4 0.3 1
v -0.6 0 0.9
v -0.6 0.1 0.9
v -0.6 0.2 0.9
v -0.3 0 0.9
v -0.3 0.1 0.9
v -0.3 0.2 0.9
v -0.2 0.2 0.9
v -0.2 0.3 0.9
v 0.1 0.2 0.9
v 0.1 0.3 0.9
v 0.6 0 0.9
v 0.6 0.1 0.9
v 0.6 0.2 0.9
v 0.7 0.2 0.9
v 0.7 0.3 0.9
v 0.8 0.2 0.9
v 0.8 0.3 0.9
v 0.9 0 0.9
v 0.9 0.1 0.9
v 0.9 0.2 0.9
v -0.7 0.2 0.8
v -0.7 0.3 0.8
v -0.4 0.2 0.8
v -0.4 0.3 0.8
v 0.6 0.2 0.8
v 0.6 0.3 0.8
v 0.7 0.2 0.8
v 0.7 0.3 0.8
v 0.8 0.2 0.7
v 0.8 0.3 0.7
v 0.9 0.2 0.7
v 0.9 0.3 0.7
v -0.8 0 0.5
v -0.8 0.1 0.5
v -0.8 0.2 0.5
v -0.7 0.2 0.5
v -0.7 0.3 0.5
v -0.6 0.2 0.5
v -0.6 0.3 0.5
v -0.2 0 0.5
v -0.2 0.1 0.5
v -0.2 0.2 0.5
v -0.8 0.2 0.4
v -0.8 0.3 0.4
v -0.7 0.2 0.4
v -0.7 0.3 0.4
v -0.6 0.2 0.4
v -0.6 0.3 0.4
v -0.2 0.2 0.4
v -0.2 0.3 0.4
v 1.19209e-07 0 0.4
v 1.19209e-07 0.5 0.4
v 1.19209e-07 0.6 0.4
v 0.1 0.6 0.4
v 0.1 0.7 0.4
v 0.2 0.6 0.4
v 0.2 0.7 0.4
v 0.3 0 0.4
v 0.3 0.5 0.4
v 0.3 0.6 0.4
v 1.19209e-07 0.6 0.3
v 1.19209e-07 0.7 0.3
v 0.1 0.6 0.3
v 0.1 0.7 0.3
v 0.1 0.8 0.3
v 0.2 0.6 0.3
v 0.2 0.7 0.3
v 0.2 0.8 0.3
v 0.3 0.6 0.3
v 0.3 0.7 0.3
v 0.6 0 0.3
v 0.6 0.1 0.3
v 0.6 0.2 0.3
v 0.7 0.2 0.3
v 0.7 0.3 0.3
v 0.8 0.2 0.3
v 0.8 0.3 0.3
v 0.9 0 0.3
v 0.9 0.1 0.3
v 0.9 0.2 0.3
v 0.4 0 -1.19209e-07
v 0.4 0.1 -1.19209e-07
v 0.4 0.2 -1.19209e-07
v 0.6 0 -1.19209e-07
v 0.6 0.1 -1.19209e-07
v 0.6 0.2 -1.19209e-07
v -0.9 0 -0.1
v -0.9 0.1 -0.1
v -0.9 0.2 -0.1
v -0.8 0.2 -0.1
v -0.8 0.3 -0.1
v -0.7 0.2 -0.1
v -0.7 0.3 -0.1
v -0.6 0 -0.1
v -0.6 0.1 -0.1
v -0.6 0.2 -0.1
v 0.4 0.2 -0.1
v 0.4 0.3 -0.1
v 0.7 0.2 -0.1
v 0.7 0.3 -0.1
v -1 0 -0.5
v -1 0.4 -0.5
v -0.9 0 -0.5
v -0.9 0.2 -0.5
v -0.9 0.3 -0.5
v -0.9 0.4 -0.5
v -0.6 0 -0.5
v -0.6 0.2 -0.5
v -0.6 0.3 -0.5
v -0.6 0.4 -0.5
v -0.5 0.1 -0.5
v -0.5 0.4 -0.5
v 0.5 0.1 -0.5
v 0.5 0.4 -0.5
v 0.6 0 -0.5
v 0.6 0.2 -0.5
v 0.6 0.3 -0.5
v 0.6 0.4 -0.5
v 0.9 0 -0.5
v 0.9 0.2 -0.5
v 0.9 0.3 -0.5
v 0.9 0.4 -0.5
v 1 0 -0.5
v 1 0.4 -0.5
v -0.9 0 -0.6
v -0.9 0.1 -0.6
v -0.6 0 -0.6
v -0.6 0.1 -0.6
v 0.6 0 -0.6
v 0.6 0.1 -0.6
v 0.9 0 -0.6
v 0.9 0.1 -0.6
v -1 0 -0.9
v -1 0.2 -0.9
v -1 0.3 -0.9
v -1 0.4 -0.9
v -0.9 0 -0.9
v -0.9 0.1 -0.9
v -0.9 0.2 -0.9
v -0.9 0.3 -0.9
v -0.9 0.4 -0.9
v -0.6 0.1 -0.9
v -0.6 0.2 -0.9
v -0.6 0.3 -0.9
v -0.6 0.4 -0.9
v -0.5 0.1 -0.9
v -0.5 0.2 -0.9
v -0.5 0.3 -0.9
v -0.5 0.4 -0.9
v 0.5 0.1 -0.9
v 0.5 0.2 -0.9
v 0.5 0.3 -0.9
v 0.5 0.4 -0.9
v 0.6 0.1 -0.9
v 0.6 0.2 -0.9
v 0.6 0.3 -0.9
v 0.6 0.4 -0.9
v 0.9 0 -0.9
v 0.9 0.1 -0.9
v 0.9 0.2 -0.9
v 0.9 0.3 -0.9
v 0.9 0.4 -0.9
v 1 0 -0.9
v 1 0.2 -0.9
v 1 0.3 -0.9
v 1 0.4 -0.9
v -0.2 0.2 0.8
v -0.2 0.3 0.8
v 0.1 0.2 0.8
v 0.1 0.3 0.8
v -0.7 0.2 0.7
v -0.7 0.3 0.7
v -0.4 0.2 0.7
v -0.4 0.3 0.7
v -0.2 0 0.7
v -0.2 0.1 0.7
v -0.2 0.2 0.7
v 0.1 0 0.7
v 0.1 0.1 0.7
v 0.1 0.2 0.7
v 0.6 0.2 0.7
v 0.6 0.3 0.7
v 0.7 0.2 0.7
v 0.7 0.3 0.7
v -0.9 0 0.6
v -0.9 0.1 0.6
v -0.9 0.2 0.6
v -0.8 0.2 0.6
v -0.8 0.3 0.6
v -0.7 0.2 0.6
v -0.7 0.3 0.6
v -0.3 0 0.6
v -0.3 0.1 0.6
v -0.3 0.2 0.6
v 0.8 0.2 0.6
v 0.8 0.3 0.6
v 0.9 0.2 0.6
v 0.9 0.3 0.6
v 0.1 0 0.5
v 0.1 0.2 0.5
v 0.1 0.3 0.5
v 0.2 0.3 0.5
v 0.2 0.4 0.5
v 0.3 0.3 0.5
v 0.3 0.4 0.5
v 0.4 0 0.5
v 0.4 0.2 0.5
v 0.4 0.3 0.5
v 0.6 0 0.5
v 0.6 0.1 0.5
v 0.6 0.2 0.5
v 0.7 0.2 0.5
v 0.7 0.3 0.5
v 0.8 0.2 0.5
v 0.8 0.3 0.5
v 0.9 0 0.5
v 0.9 0.1 0.5
v 0.9 0.2 0.5
v -0.8 0.2 0.3
v -0.8 0.3 0.3
v -0.7 0.2 0.3
v -0.7 0.3 0.3
v -0.6 0.2 0.3
v -0.6 0.3 0.3
v -0.2 0.2 0.3
v -0.2 0.3 0.3
v -0.5 0 0.2
v -0.5 0.1 0.2
v -0.5 0.2 0.2
v -0.2 0 0.2
v -0.2 0.1 0.2
v -0.2 0.2 0.2
v 1.19209e-07 0.6 0.2
v 1.19209e-07 0.7 0.2
v 0.1 0.6 0.2
v 0.1 0.7 0.2
v 0.1 0.8 0.2
v 0.2 0.6 0.2
v 0.2 0.7 0.2
v 0.2 0.8 0.2
v 0.3 0.6 0.2
v 0.3 0.7 0.2
v 1.19209e-07 0 0.0999999
v 1.19209e-07 0.5 0.0999999
v 1.19209e-07 0.6 0.0999999
v 0.1 0.6 0.0999999
v 0.1 0.7 0.0999999
v 0.2 0.6 0.0999999
v 0.2 0.7 0.0999999
v 0.3 0 0.0999999
v 0.3 0.5 0.0999999
v 0.3 0.6 0.0999999
v -0.8 0 -1.19209e-07
v -0.8 0.1 -1.19209e-07
v -0.8 0.2 -1.19209e-07
v -0.7 0.2 -1.19209e-07
v -0.7 0.3 -1.19209e-07
v -0.6 0.2 -1.19209e-07
v -0.6 0.3 -1.19209e-07
v -0.5 0 -1.19209e-07
v -0.5 0.1 -1.19209e-07
v -0.5 0.2 -1.19209e-07
v 0.4 0.2 -0.2
v 0.4 0.3 -0.2
v 0.7 0.2 -0.2
v 0.7 0.3 -0.2
v 0.4 0 -0.3
v 0.4 0.1 -0.3
v 0.4 0.2 -0.3
v 0.7 0.2 -0.3
v 0.7 0.3 -0.3
v 0.8 0.2 -0.3
v 0.8 0.3 -0.3
v 0.9 0 -0.3
v 0.9 0.1 -0.3
v 0.9 0.2 -0.3
v -0.9 0 -0.4
v -0.9 0.1 -0.4
v -0.9 0.2 -0.4
v -0.8 0.2 -0.4
v -0.8 0.3 -0.4
v -0.7 0.2 -0.4
v -0.7 0.3 -0.4
v -0.6 0 -0.4
v -0.6 0.1 -0.4
v -0.6 0.2 -0.4
v -1 0 -0.6
v -1 0.2 -0.6
v -1 0.3 -0.6
v -1 0.4 -0.6
v -0.9 0 -0.6
v -0.9 0.1 -0.6
v -0.9 0.2 -0.6
v -0.9 0.3 -0.6
v -0.9 0.4 -0.6
v -0.6 0.1 -0.6
v -0.6 0.2 -0.6
v -0.6 0.3 -0.6
v -0.6 0.4 -0.6
v -0.5 0.1 -0.6
v -0.5 0.2 -0.6
v -0.5 0.3 -0.6
v -0.5 0.4 -0.6
v 0.5 0.1 -0.6
v 0.5 0.2 -0.6
v 0.5 0.3 -0.6
v 0.5 0.4 -0.6
v 0.6 0.1 -0.6
v 0.6 0.2 -0.6
v 0.6 0.3 -0.6
v 0.6 0.4 -0.6
v 0.9 0 -0.6
v 0.9 0.1 -0.6
v 0.9 0.2 -0.6
v 0.9 0.3 -0.6
v 0.9 0.4 -0.6
v 1 0 -0.6
v 1 0.2 -0.6
v 1 0.3 -0.6
v 1 0.4 -0.6
v -0.9 0 -0.9
v -0.9 0.1 -0.9
v -0.6 0 -0.9
v -0.6 0.1 -0.9
v 0.6 0 -0.9
v 0.6 0.1 -0.9
v 0.9 0 -0.9
v 0.9 0.1 -0.9
v -1 0 -1
v -1 0.4 -1
v -0.9 0 -1
v -0.9 0.2 -1
v -0.9 0.3 -1
v -0.9 0.4 -1
v -0.6 0 -1
v -0.6 0.2 -1
v -0.6 0.3 -1
v -0.6 0.4 -1
v -0.5 0.1 -1
v -0.5 0.4 -1
v 0.5 0.1 -1
v 0.5 0.4 -1
v 0.6 0 -1
v 0.6 0.2 -1
v 0.6 0.3 -1
v 0.6 0.4 -1
v 0.9 0 -1
v 0.9 0.2 -1
v 0.9 0.3 -1
v 0.9 0.4 -1
v 1 0 -1
v 1 0.4 -1
v -0.9 0 1
v -0.6 0 1
v -0.2 0 1
v 0.4 0 1
v -0.6 0 0.9
v -0.3 0 0.9
v 0.6 0 0.9
v 0.9 0 0.9
v -0.2 0 0.7
v 0.1 0 0.7
v -0.9 0 0.6
v -0.3 0 0.6
v -0.8 0 0.5
v -0.2 0 0.5
v 0.1 0 0.5
v 0.4 0 0.5
v 0.6 0 0.5
v 0.9 0 0.5
v 1.19209e-07 0 0.4
v 0.3 0 0.4
v 0.6 0 0.3
v 0.9 0 0.3
v -0.5 0 0.2
v -0.2 0 0.2
v 1.19209e-07 0 0.0999999
v 0.3 0 0.0999999
v -0.8 0 -1.19209e-07
v -0.5 0 -1.19209e-07
v 0.4 0 -1.19209e-07
v 0.6 0 -1.19209e-07
v -0.9 0 -0.1
v -0.6 0 -0.1
v 0.4 0 -0.3
v 0.9 0 -0.3
v -0.9 0 -0.4
v -0.6 0 -0.4
v -1 0 -0.5
v -0.9 0 -0.5
v -0.6 0 -0.5
v 0.6 0 -0.5
v 0.9 0 -0.5
v 1 0 -0.5
v -1 0 -0.6
v -0.9 0 -0.6
v -0.6 0 -0.6
v 0.6 0 -0.6
v 0.9 0 -0.6
v 1 0 -0.6
v -1 0 -0.9
v -0.9 0 -0.9
v -0.6 0 -0.9
v 0.6 0 -0.9
v 0.9 0 -0.9
v 1 0 -0.9
v -1 0 -1
v -0.9 0 -1
v -0.6 0 -1
v 0.6 0 -1
v 0.9 0 -1
v 1 0 -1
v -0.9 0.2 -0.5
v -0.6 0.2 -0.5
v 0.6 0.2 -0.5
v 0.9 0.2 -0.5
v -1 0.2 -0.6
v -0.9 0.2 -0.6
v -0.6 0.2 -0.6
v -0.5 0.2 -0.6
v 0.5 0.2 -0.6
v 0.6 0.2 -0.6
v 0.9 0.2 -0.6
v 1 0.2 -0.6
v -1 0.2 -0.9
v -0.9 0.2 -0.9
v -0.6 0.2 -0.9
v -0.5 0.2 -0.9
v 0.5 0.2 -0.9
v 0.6 0.2 -0.9
v 0.9 0.2 -0.9
v 1 0.2 -0.9
v -0.9 0.2 -1
v -0.6 0.2 -1
v 0.6 0.2 -1
v 0.9 0.2 -1
v -0.5 0.1 -0.5
v 0.5 0.1 -0.5
v -0.9 0.1 -0.6
v -0.6 0.1 -0.6
v -0.5 0.1 -0.6
v 0.5 0.1 -0.6
v 0.6 0.1 -0.6
v 0.9 0.1 -0.6
v -0.9 0.1 -0.9
v -0.6 0.1 -0.9
v -0.5 0.1 -0.9
v 0.5 0.1 -0.9
v 0.6 0.1 -0.9
v 0.9 0.1 -0.9
v -0.5 0.1 -1
v 0.5 0.1 -1
v -0.9 0.2 1
v -0.8 0.2 1
v -0.7 0.2 1
v -0.6 0.2 1
v -0.2 0.2 1
v 0.1 0.2 1
v -0.6 0.2 0.9
v -0.3 0.2 0.9
v -0.2 0.2 0.9
v 0.1 0.2 0.9
v 0.6 0.2 0.9
v 0.7 0.2 0.9
v 0.8 0.2 0.9
v 0.9 0.2 0.9
v -0.7 0.2 0.8
v -0.4 0.2 0.8
v -0.2 0.2 0.8
v 0.1 0.2 0.8
v 0.6 0.2 0.8
v 0.7 0.2 0.8
v -0.7 0.2 0.7
v -0.4 0.2 0.7
v -0.2 0.2 0.7
v 0.1 0.2 0.7
v 0.6 0.2 0.7
v 0.7 0.2 0.7
v 0.8 0.2 0.7
v 0.9 0.2 0.7
v -0.9 0.2 0.6
v -0.8 0.2 0.6
v -0.7 0.2 0.6
v -0.3 0.2 0.6
v 0.8 0.2 0.6
v 0.9 0.2 0.6
v -0.8 0.2 0.5
v -0.7 0.2 0.5
v -0.6 0.2 0.5
v -0.2 0.2 0.5
v 0.6 0.2 0.5
v 0.7 0.2 0.5
v 0.8 0.2 0.5
v 0.9 0.2 0.5
v -0.8 0.2 0.4
v -0.7 0.2 0.4
v -0.6 0.2 0.4
v -0.2 0.2 0.4
v -0.8 0.2 0.3
v -0.7 0.2 0.3
v -0.6 0.2 0.3
v -0.2 0.2 0.3
v 0.6 0.2 0.3
v 0.7 0.2 0.3
v 0.8 0.2 0.3
v 0.9 0.2 0.3
v -0.5 0.2 0.2
v -0.2 0.2 0.2
v -0.8 0.2 -1.19209e-07
v -0.7 0.2 -1.19209e-07
v -0.6 0.2 -1.19209e-07
v -0.5 0.2 -1.19209e-07
v 0.4 0.2 -1.19209e-07
v 0.6 0.2 -1.19209e-07
v -0.9 0.2 -0.1
v -0.8 0.2 -0.1
v -0.7 0.2 -0.1
v -0.6 0.2 -0.1
v 0.4 0.2 -0.1
v 0.7 0.2 -0.1
v 0.4 0.2 -0.2
v 0.7 0.2 -0.2
v 0.4 0.2 -0.3
v 0.7 0.2 -0.3
v 0.8 0.2 -0.3
v 0.9 0.2 -0.3
v -0.9 0.2 -0.4
v -0.8 0.2 -0.4
v -0.7 0.2 -0.4
v -0.6 0.2 -0.4
v -0.8 0.3 1
v -0.7 0.3 1
v 0.1 0.3 1
v 0.2 0.3 1
v 0.3 0.3 1
v 0.4 0.3 1
v -0.2 0.3 0.9
v 0.1 0.3 0.9
v 0.7 0.3 0.9
v 0.8 0.3 0.9
v -0.7 0.3 0.8
v -0.4 0.3 0.8
v -0.2 0.3 0.8
v 0.1 0.3 0.8
v 0.6 0.3 0.8
v 0.7 0.3 0.8
v -0.7 0.3 0.7
v -0.4 0.3 0.7
v 0.6 0.3 0.7
v 0.7 0.3 0.7
v 0.8 0.3 0.7
v 0.9 0.3 0.7
v -0.8 0.3 0.6
v -0.7 0.3 0.6
v 0.8 0.3 0.6
v 0.9 0.3 0.6
v -0.7 0.3 0.5
v -0.6 0.3 0.5
v 0.1 0.3 0.5
v 0.2 0.3 0.5
v 0.3 0.3 0.5
v 0.4 0.3 0.5
v 0.7 0.3 0.5
v 0.8 0.3 0.5
v -0.8 0.3 0.4
v -0.7 0.3 0.4
v -0.6 0.3 0.4
v -0.2 0.3 0.4
v -0.8 0.3 0.3
v -0.7 0.3 0.3
v -0.6 0.3 0.3
v -0.2 0.3 0.3
v 0.7 0.3 0.3
v 0.8 0.3 0.3
v -0.7 0.3 -1.19209e-07
v -0.6 0.3 -1.19209e-07
v -0.8 0.3 -0.1
v -0.7 0.3 -0.1
v 0.4 0.3 -0.1
v 0.7 0.3 -0.1
v 0.4 0.3 -0.2
v 0.7 0.3 -0.2
v 0.7 0.3 -0.3
v 0.8 0.3 -0.3
v -0.8 0.3 -0.4
v -0.7 0.3 -0.4
v -0.9 0.3 -0.5
v -0.6 0.3 -0.5
v 0.6 0.3 -0.5
v 0.9 0.3 -0.5
v -1 0.3 -0.6
v -0.9 0.3 -0.6
v -0.6 0.3 -0.6
v -0.5 0.3 -0.6
v 0.5 0.3 -0.6
v 0.6 0.3 -0.6
v 0.9 0.3 -0.6
v 1 0.3 -0.6
v -1 0.3 -0.9
v -0.9 0.3 -0.9
v -0.6 0.3 -0.9
v -0.5 0.3 -0.9
v 0.5 0.3 -0.9
v 0.6 0.3 -0.9
v 0.9 0.3 -0.9
v 1 0.3 -0.9
v -0.9 0.3 -1
v -0.6 0.3 -1
v 0.6 0.3 -1
v 0.9 0.3 -1
v 0.2 0.4 1
v 0.3 0.4 1
v 0.2 0.4 0.5
v 0.3 0.4 0.5
v -1 0.4 -0.5
v -0.9 0.4 -0.5
v -0.6 0.4 -0.5
v -0.5 0.4 -0.5
v 0.5 0.4 -0.5
v 0.6 0.4 -0.5
v 0.9 0.4 -0.5
v 1 0.4 -0.5
v -1 0.4 -0.6
v -0.9 0.4 -0.6
v -0.6 0.4 -0.6
v -0.5 0.4 -0.6
v 0.5 0.4 -0.6
v 0.6 0.4 -0.6
v 0.9 0.4 -0.6
v 1 0.4 -0.6
v -1 0.4 -0.9
v -0.9 0.4 -0.9
v -0.6 0.4 -0.9
v -0.5 0.4 -0.9
v 0.5 0.4 -0.9
v 0.6 0.4 -0.9
v 0.9 0.4 -0.9
v 1 0.4 -0.9
v -1 0.4 -1
v -0.9 0.4 -1
v -0.6 0.4 -1
v -0.5 0.4 -1
v 0.5 0.4 -1
v 0.6 0.4 -1
v 0.9 0.4 -1
v 1 0.4 -1
v 1.19209e-07 0.6 0.4
v 0.1 0.6 0.4
v 0.2 0.6 0.4
v 0.3 0.6 0.4
v 1.19209e-07 0.6 0.3
v 0.1 0.6 0.3
v 0.2 0.6 0.3
v 0.3 0.6 0.3
v 1.19209e-07 0.6 0.2
v 0.1 0.6 0.2
v 0.2 0.6 0.2
v 0.3 0.6 0.2
v 1.19209e-07 0.6 0.0999999
v 0.1 0.6 0.0999999
v 0.2 0.6 0.0999999
v 0.3 0.6 0.0999999
v 0.1 0.7 0.4
v 0.2 0.7 0.4
v 1.19209e-07 0.7 0.3
v 0.1 0.7 0.3
v 0.2 0.7 0.3
v 0.3 0.7 0.3
v 1.19209e-07 0.7 0.2
v 0.1 0.7 0.2
v 0.2 0.7 0.2
v 0.3 0.7 0.2
v 0.1 0.7 0.0999999
v 0.2 0.7 0.0999999
v 0.1 0.8 0.3
v 0.2 0.8 0.3
v 0.1 0.8 0.2
v 0.2 0.8 0.2

# faces
f 5/2/1 2/2/1 1/2/1
f 6/2/1 4/2/1 3/2/1
f 7/2/1 5/2/1 1/2/1
f 7/2/1 6/2/1 5/2/1
f 8/2/1 4/2/1 6/2/1
f 8/2/1 6/2/1 7/2/1
f 9/2/1 7/2/1 1/2/1
f 10/2/1 7/2/1 9/2/1
f 11/2/1 4/2/1 8/2/1
f 12/2/1 4/2/1 11/2/1
f 19/2/1 14/2/1 13/2/1
f 20/2/1 14/2/1 19/2/1
f 21/2/1 16/2/1 15/2/1
f 22/2/1 16/2/1 21/2/1
f 23/1/1 18/1/1 17/1/1
f 24/1/1 18/1/1 23/1/1
f 25/4/1 20/4/1 19/4/1
f 26/4/1 20/4/1 25/4/1
f 27/4/1 22/4/1 21/4/1
f 28/4/1 22/4/1 27/4/1
f 31/2/1 30/2/1 29/2/1
f 32/2/1 30/2/1 31/2/1
f 35/4/1 32/4/1 31/4/1
f 36/4/1 32/4/1 35/4/1
f 37/4/1 32/4/1 36/4/1
f 38/4/1 32/4/1 37/4/1
f 41/4/1 34/4/1 33/4/1
f 42/4/1 34/4/1 41/4/1
f 43/4/1 37/4/1 36/4/1
f 44/4/1 37/4/1 43/4/1
f 45/4/1 40/4/1 39/4/1
f 46/4/1 40/4/1 45/4/1
f 51/4/1 48/4/1 47/4/1
f 52/4/1 48/4/1 51/4/1
f 53/4/1 50/4/1 49/4/1
f 54/4/1 50/4/1 53/4/1
f 59/2/1 56/2/1 55/2/1
f 60/2/1 58/2/1 57/2/1
f 61/2/1 59/2/1 55/2/1
f 62/2/1 59/2/1 61/2/1
f 63/2/1 58/2/1 60/2/1
f 64/2/1 58/2/1 63/2/1
f 66/2/1 63/2/1 62/2/1
f 67/2/1 63/2/1 66/2/1
f 69/2/1 66/2/1 65/2/1
f 70/2/1 66/2/1 69/2/1
f 71/2/1 68/2/1 67/2/1
f 72/2/1 68/2/1 71/2/1
f 75/2/1 74/2/1 73/2/1
f 76/2/1 74/2/1 75/2/1
f 77/4/1 76/4/1 75/4/1
f 78/4/1 76/4/1 77/4/1
f 79/4/1 76/4/1 78/4/1
f 80/4/1 76/4/1 79/4/1
f 81/4/1 79/4/1 78/4/1
f 82/4/1 79/4/1 81/4/1
f 85/2/1 84/2/1 83/2/1
f 86/2/1 84/2/1 85/2/1
f 87/3/1 86/3/1 85/3/1
f 88/3/1 86/3/1 87/3/1
f 89/3/1 86/3/1 88/3/1
f 90/3/1 86/3/1 89/3/1
f 91/3/1 89/3/1 88/3/1
f 92/3/1 89/3/1 91/3/1
f 95/2/1 94/2/1 93/2/1
f 99/2/1 94/2/1 95/2/1
f 100/2/1 94/2/1 99/2/1
f 101/4/1 97/4/1 96/4/1
f 102/4/1 97/4/1 101/4/1
f 103/4/1 99/4/1 98/4/1
f 103/4/1 100/4/1 99/4/1
f 104/4/1 100/4/1 103/4/1
f 109/3/1 106/3/1 105/3/1
f 110/3/1 106/3/1 109/3/1
f 111/3/1 108/3/1 107/3/1
f 112/3/1 108/3/1 111/3/1
f 113/3/1 111/3/1 110/3/1
f 114/3/1 111/3/1 113/3/1
f 117/4/1 116/4/1 115/4/1
f 118/4/1 116/4/1 117/4/1
f 121/2/1 120/2/1 119/2/1
f 122/2/1 120/2/1 121/2/1
f 123/4/1 122/4/1 121/4/1
f 124/4/1 122/4/1 123/4/1
f 125/4/1 122/4/1 124/4/1
f 126/4/1 122/4/1 125/4/1
f 127/4/1 125/4/1 124/4/1
f 128/4/1 125/4/1 127/4/1
f 133/2/1 130/2/1 129/2/1
f 134/2/1 132/2/1 131/2/1
f 135/2/1 133/2/1 129/2/1
f 135/2/1 134/2/1 133/2/1
f 136/2/1 132/2/1 134/2/1
f 136/2/1 134/2/1 135/2/1
f 137/2/1 135/2/1 129/2/1
f 138/2/1 135/2/1 137/2/1
f 139/2/1 132/2/1 136/2/1
f 140/2/1 132/2/1 139/2/1
f 145/2/1 142/2/1 141/2/1
f 146/2/1 142/2/1 145/2/1
f 147/2/1 144/2/1 143/2/1
f 148/2/1 144/2/1 147/2/1
f 149/4/1 146/4/1 145/4/1
f 150/4/1 146/4/1 149/4/1
f 151/4/1 146/4/1 150/4/1
f 152/4/1 146/4/1 151/4/1
f 153/4/1 148/4/1 147/4/1
f 154/4/1 148/4/1 153/4/1
f 155/4/1 151/4/1 150/4/1
f 156/4/1 151/4/1 155/4/1
f 165/4/1 158/4/1 157/4/1
f 166/4/1 158/4/1 165/4/1
f 167/4/1 160/4/1 159/4/1
f 168/4/1 160/4/1 167/4/1
f 169/4/1 162/4/1 161/4/1
f 170/4/1 162/4/1 169/4/1
f 171/4/1 164/4/1 163/4/1
f 172/4/1 164/4/1 171/4/1
f 177/2/1 174/2/1 173/2/1
f 178/2/1 176/2/1 175/2/1
f 179/2/1 177/2/1 173/2/1
f 180/2/1 177/2/1 179/2/1
f 181/2/1 176/2/1 178/2/1
f 182/2/1 176/2/1 181/2/1
f 184/2/1 181/2/1 180/2/1
f 185/2/1 181/2/1 184/2/1
f 187/2/1 184/2/1 183/2/1
f 188/2/1 184/2/1 187/2/1
f 189/2/1 186/2/1 185/2/1
f 190/2/1 186/2/1 189/2/1
f 191/2/2 192/2/2 195/2/2
f 193/2/2 194/2/2 196/2/2
f 191/2/2 195/2/2 197/2/2
f 197/2/2 195/2/2 198/2/2
f 196/2/2 194/2/2 199/2/2
f 199/2/2 194/2/2 200/2/2
f 198/2/2 199/2/2 202/2/2
f 202/2/2 199/2/2 203/2/2
f 201/2/2 202/2/2 205/2/2
f 205/2/2 202/2/2 206/2/2
f 203/2/2 204/2/2 207/2/2
f 207/2/2 204/2/2 208/2/2
f 209/4/2 210/4/2 215/4/2
f 215/4/2 210/4/2 216/4/2
f 211/4/2 212/4/2 217/4/2
f 217/4/2 212/4/2 218/4/2
f 213/4/2 214/4/2 219/4/2
f 219/4/2 214/4/2 220/4/2
f 221/2/2 222/2/2 225/2/2
f 225/2/2 222/2/2 226/2/2
f 223/2/2 224/2/2 227/2/2
f 227/2/2 224/2/2 228/2/2
f 225/4/2 226/4/2 229/4/2
f 229/4/2 226/4/2 230/4/2
f 227/4/2 228/4/2 235/4/2
f 235/4/2 228/4/2 236/4/2
f 231/4/2 232/4/2 237/4/2
f 237/4/2 232/4/2 238/4/2
f 233/4/2 234/4/2 239/4/2
f 239/4/2 234/4/2 240/4/2
f 241/2/2 242/2/2 243/2/2
f 243/2/2 242/2/2 244/2/2
f 243/4/2 244/4/2 249/4/2
f 249/4/2 244/4/2 250/4/2
f 245/2/2 246/2/2 251/2/2
f 247/2/2 248/2/2 252/2/2
f 245/2/2 251/2/2 253/2/2
f 251/2/2 252/2/2 253/2/2
f 252/2/2 248/2/2 254/2/2
f 253/2/2 252/2/2 254/2/2
f 245/2/2 253/2/2 255/2/2
f 255/2/2 253/2/2 256/2/2
f 254/2/2 248/2/2 257/2/2
f 257/2/2 248/2/2 258/2/2
f 259/4/2 260/4/2 261/4/2
f 261/4/2 260/4/2 262/4/2
f 263/2/2 264/2/2 265/2/2
f 265/2/2 264/2/2 266/2/2
f 265/4/2 266/4/2 267/4/2
f 267/4/2 266/4/2 268/4/2
f 269/2/2 270/2/2 271/2/2
f 271/2/2 270/2/2 272/2/2
f 271/4/2 272/4/2 273/4/2
f 273/4/2 272/4/2 274/4/2
f 274/4/2 272/4/2 275/4/2
f 275/4/2 272/4/2 276/4/2
f 274/4/2 275/4/2 277/4/2
f 277/4/2 275/4/2 278/4/2
f 279/3/2 280/3/2 283/3/2
f 283/3/2 280/3/2 284/3/2
f 281/3/2 282/3/2 285/3/2
f 285/3/2 282/3/2 286/3/2
f 284/3/2 285/3/2 287/3/2
f 287/3/2 285/3/2 288/3/2
f 291/4/2 292/4/2 293/4/2
f 293/4/2 292/4/2 294/4/2
f 289/2/2 290/2/2 295/2/2
f 295/2/2 290/2/2 296/2/2
f 295/3/2 296/3/2 297/3/2
f 297/3/2 296/3/2 298/3/2
f 298/3/2 296/3/2 299/3/2
f 299/3/2 296/3/2 300/3/2
f 298/3/2 299/3/2 301/3/2
f 301/3/2 299/3/2 302/3/2
f 303/2/2 304/2/2 305/2/2
f 305/2/2 304/2/2 306/2/2
f 305/4/2 306/4/2 307/4/2
f 307/4/2 306/4/2 308/4/2
f 309/2/2 310/2/2 313/2/2
f 311/2/2 312/2/2 314/2/2
f 309/2/2 313/2/2 315/2/2
f 315/2/2 313/2/2 316/2/2
f 314/2/2 312/2/2 317/2/2
f 317/2/2 312/2/2 318/2/2
f 316/2/2 317/2/2 320/2/2
f 320/2/2 317/2/2 321/2/2
f 319/2/2 320/2/2 323/2/2
f 323/2/2 320/2/2 324/2/2
f 321/2/2 322/2/2 325/2/2
f 325/2/2 322/2/2 326/2/2
f 327/4/2 328/4/2 333/4/2
f 333/4/2 328/4/2 334/4/2
f 329/4/2 330/4/2 335/4/2
f 335/4/2 330/4/2 336/4/2
f 331/4/2 332/4/2 337/4/2
f 337/4/2 332/4/2 338/4/2
f 339/2/2 340/2/2 345/2/2
f 345/2/2 340/2/2 346/2/2
f 341/2/2 342/2/2 347/2/2
f 347/2/2 342/2/2 348/2/2
f 343/1/2 344/1/2 349/1/2
f 349/1/2 344/1/2 350/1/2
f 345/4/2 346/4/2 351/4/2
f 351/4/2 346/4/2 352/4/2
f 352/4/2 346/4/2 353/4/2
f 353/4/2 346/4/2 354/4/2
f 347/4/2 348/4/2 355/4/2
f 355/4/2 348/4/2 356/4/2
f 352/4/2 353/4/2 357/4/2
f 357/4/2 353/4/2 358/4/2
f 359/2/2 360/2/2 363/2/2
f 361/2/2 362/2/2 364/2/2
f 359/2/2 363/2/2 365/2/2
f 363/2/2 364/2/2 365/2/2
f 364/2/2 362/2/2 366/2/2
f 365/2/2 364/2/2 366/2/2
f 359/2/2 365/2/2 367/2/2
f 367/2/2 365/2/2 368/2/2
f 366/2/2 362/2/2 369/2/2
f 369/2/2 362/2/2 370/2/2
f 374/4/3 373/4/3 372/4/3
f 376/4/3 374/4/3 372/4/3
f 376/4/3 375/4/3 374/4/3
f 377/4/3 375/4/3 376/4/3
f 378/2/3 372/2/3 371/2/3
f 379/4/3 376/4/3 372/4/3
f 379/2/3 372/2/3 378/2/3
f 380/4/3 376/4/3 379/4/3
f 384/2/3 382/2/3 381/2/3
f 384/4/3 383/4/3 382/4/3
f 385/4/3 383/4/3 384/4/3
f 387/4/3 386/4/3 385/4/3
f 389/4/3 387/4/3 385/4/3
f 389/4/3 388/4/3 387/4/3
f 390/4/3 388/4/3 389/4/3
f 391/2/3 384/2/3 381/2/3
f 391/2/3 385/2/3 384/2/3
f 392/4/3 389/4/3 385/4/3
f 392/2/3 385/2/3 391/2/3
f 393/4/3 389/4/3 392/4/3
f 397/2/3 395/2/3 394/2/3
f 398/4/3 396/4/3 395/4/3
f 398/2/3 395/2/3 397/2/3
f 399/4/3 396/4/3 398/4/3
f 402/4/3 401/4/3 400/4/3
f 403/4/3 401/4/3 402/4/3
f 407/4/3 406/4/3 405/4/3
f 409/4/3 407/4/3 405/4/3
f 409/4/3 408/4/3 407/4/3
f 410/4/3 408/4/3 409/4/3
f 411/2/3 405/2/3 404/2/3
f 412/4/3 409/4/3 405/4/3
f 412/2/3 405/2/3 411/2/3
f 413/4/3 409/4/3 412/4/3
f 416/4/3 415/4/3 414/4/3
f 417/4/3 415/4/3 416/4/3
f 420/4/3 419/4/3 418/4/3
f 421/4/3 419/4/3 420/4/3
f 424/4/3 423/4/3 422/4/3
f 425/4/3 423/4/3 424/4/3
f 429/4/3 428/4/3 427/4/3
f 431/4/3 429/4/3 427/4/3
f 431/4/3 430/4/3 429/4/3
f 432/4/3 430/4/3 431/4/3
f 433/2/3 427/2/3 426/2/3
f 434/4/3 431/4/3 427/4/3
f 434/2/3 427/2/3 433/2/3
f 435/4/3 431/4/3 434/4/3
f 438/4/3 437/4/3 436/4/3
f 439/4/3 437/4/3 438/4/3
f 442/4/3 441/4/3 440/4/3
f 443/4/3 441/4/3 442/4/3
f 447/3/3 446/3/3 445/3/3
f 449/3/3 447/3/3 445/3/3
f 449/3/3 448/3/3 447/3/3
f 450/3/3 448/3/3 449/3/3
f 451/2/3 445/2/3 444/2/3
f 452/3/3 449/3/3 445/3/3
f 452/2/3 445/2/3 451/2/3
f 453/3/3 449/3/3 452/3/3
f 456/3/3 455/3/3 454/3/3
f 457/3/3 455/3/3 456/3/3
f 460/3/3 458/3/3 457/3/3
f 461/3/3 458/3/3 460/3/3
f 462/3/3 460/3/3 459/3/3
f 463/3/3 460/3/3 462/3/3
f 467/4/3 466/4/3 465/4/3
f 469/4/3 467/4/3 465/4/3
f 469/4/3 468/4/3 467/4/3
f 470/4/3 468/4/3 469/4/3
f 471/2/3 465/2/3 464/2/3
f 472/4/3 469/4/3 465/4/3
f 472/2/3 465/2/3 471/2/3
f 473/4/3 469/4/3 472/4/3
f 477/2/3 475/2/3 474/2/3
f 478/4/3 476/4/3 475/4/3
f 478/2/3 475/2/3 477/2/3
f 479/4/3 476/4/3 478/4/3
f 483/4/3 482/4/3 481/4/3
f 485/4/3 483/4/3 481/4/3
f 485/4/3 484/4/3 483/4/3
f 486/4/3 484/4/3 485/4/3
f 487/2/3 481/2/3 480/2/3
f 488/4/3 485/4/3 481/4/3
f 488/2/3 481/2/3 487/2/3
f 489/4/3 485/4/3 488/4/3
f 492/4/3 491/4/3 490/4/3
f 493/4/3 491/4/3 492/4/3
f 496/2/3 495/2/3 494/2/3
f 497/2/3 495/2/3 496/2/3
f 498/2/3 495/2/3 497/2/3
f 499/2/3 495/2/3 498/2/3
f 501/2/3 498/2/3 497/2/3
f 502/2/3 498/2/3 501/2/3
f 504/2/3 501/2/3 500/2/3
f 504/2/3 503/2/3 502/2/3
f 504/2/3 502/2/3 501/2/3
f 505/2/3 503/2/3 504/2/3
f 506/2/3 504/2/3 500/2/3
f 508/2/3 506/2/3 500/2/3
f 508/2/3 507/2/3 506/2/3
f 509/2/3 507/2/3 508/2/3
f 510/2/3 507/2/3 509/2/3
f 511/2/3 507/2/3 510/2/3
f 513/2/3 510/2/3 509/2/3
f 514/2/3 510/2/3 513/2/3
f 516/2/3 513/2/3 512/2/3
f 516/2/3 515/2/3 514/2/3
f 516/2/3 514/2/3 513/2/3
f 517/2/3 515/2/3 516/2/3
f 520/1/3 519/1/3 518/1/3
f 521/1/3 519/1/3 520/1/3
f 524/1/3 523/1/3 522/1/3
f 525/1/3 523/1/3 524/1/3
f 530/2/3 527/2/3 526/2/3
f 531/2/3 527/2/3 530/2/3
f 532/2/3 527/2/3 531/2/3
f 533/2/3 529/2/3 528/2/3
f 534/2/3 529/2/3 533/2/3
f 536/2/3 533/2/3 532/2/3
f 537/2/3 533/2/3 536/2/3
f 539/2/3 536/2/3 535/2/3
f 540/2/3 536/2/3 539/2/3
f 541/2/3 538/2/3 537/2/3
f 542/2/3 538/2/3 541/2/3
f 547/2/3 544/2/3 543/2/3
f 548/2/3 544/2/3 547/2/3
f 549/2/3 546/2/3 545/2/3
f 550/2/3 546/2/3 549/2/3
f 553/2/3 549/2/3 548/2/3
f 554/2/3 549/2/3 553/2/3
f 556/2/3 552/2/3 551/2/3
f 556/2/3 553/2/3 552/2/3
f 557/2/3 553/2/3 556/2/3
f 558/2/3 555/2/3 554/2/3
f 559/2/3 555/2/3 558/2/3
f 560/4/4 561/4/4 562/4/4
f 562/4/4 561/4/4 563/4/4
f 564/4/4 565/4/4 566/4/4
f 566/4/4 565/4/4 567/4/4
f 568/2/4 569/2/4 571/2/4
f 569/4/4 570/4/4 572/4/4
f 571/2/4 569/2/4 572/2/4
f 572/4/4 570/4/4 573/4/4
f 574/4/4 575/4/4 576/4/4
f 576/4/4 575/4/4 577/4/4
f 579/4/4 580/4/4 581/4/4
f 579/4/4 581/4/4 583/4/4
f 581/4/4 582/4/4 583/4/4
f 583/4/4 582/4/4 584/4/4
f 578/2/4 579/2/4 585/2/4
f 579/4/4 583/4/4 586/4/4
f 585/2/4 579/2/4 586/2/4
f 586/4/4 583/4/4 587/4/4
f 588/4/4 589/4/4 590/4/4
f 590/4/4 589/4/4 591/4/4
f 593/4/4 594/4/4 595/4/4
f 593/4/4 595/4/4 597/4/4
f 595/4/4 596/4/4 597/4/4
f 597/4/4 596/4/4 598/4/4
f 592/2/4 593/2/4 599/2/4
f 593/4/4 597/4/4 600/4/4
f 599/2/4 593/2/4 600/2/4
f 600/4/4 597/4/4 601/4/4
f 603/4/4 604/4/4 605/4/4
f 603/4/4 605/4/4 607/4/4
f 605/4/4 606/4/4 607/4/4
f 607/4/4 606/4/4 608/4/4
f 602/2/4 603/2/4 609/2/4
f 603/4/4 607/4/4 610/4/4
f 609/2/4 603/2/4 610/2/4
f 610/4/4 607/4/4 611/4/4
f 612/4/4 613/4/4 614/4/4
f 614/4/4 613/4/4 615/4/4
f 616/4/4 617/4/4 618/4/4
f 618/4/4 617/4/4 619/4/4
f 620/2/4 621/2/4 623/2/4
f 621/4/4 622/4/4 624/4/4
f 623/2/4 621/2/4 624/2/4
f 624/4/4 622/4/4 625/4/4
f 626/3/4 627/3/4 628/3/4
f 628/3/4 627/3/4 629/3/4
f 629/3/4 630/3/4 632/3/4
f 632/3/4 630/3/4 633/3/4
f 631/3/4 632/3/4 634/3/4
f 634/3/4 632/3/4 635/3/4
f 637/3/4 638/3/4 639/3/4
f 637/3/4 639/3/4 641/3/4
f 639/3/4 640/3/4 641/3/4
f 641/3/4 640/3/4 642/3/4
f 636/2/4 637/2/4 643/2/4
f 637/3/4 641/3/4 644/3/4
f 643/2/4 637/2/4 644/2/4
f 644/3/4 641/3/4 645/3/4
f 647/4/4 648/4/4 649/4/4
f 647/4/4 649/4/4 651/4/4
f 649/4/4 650/4/4 651/4/4
f 651/4/4 650/4/4 652/4/4
f 646/2/4 647/2/4 653/2/4
f 647/4/4 651/4/4 654/4/4
f 653/2/4 647/2/4 654/2/4
f 654/4/4 651/4/4 655/4/4
f 656/4/4 657/4/4 658/4/4
f 658/4/4 657/4/4 659/4/4
f 661/4/4 662/4/4 663/4/4
f 661/4/4 663/4/4 665/4/4
f 663/4/4 664/4/4 665/4/4
f 665/4/4 664/4/4 666/4/4
f 660/2/4 661/2/4 667/2/4
f 661/4/4 665/4/4 668/4/4
f 667/2/4 661/2/4 668/2/4
f 668/4/4 665/4/4 669/4/4
f 671/4/4 672/4/4 673/4/4
f 671/4/4 673/4/4 675/4/4
f 673/4/4 674/4/4 675/4/4
f 675/4/4 674/4/4 676/4/4
f 670/2/4 671/2/4 677/2/4
f 671/4/4 675/4/4 678/4/4
f 677/2/4 671/2/4 678/2/4
f 678/4/4 675/4/4 679/4/4
f 680/2/4 681/2/4 684/2/4
f 684/2/4 681/2/4 685/2/4
f 685/2/4 681/2/4 686/2/4
f 682/2/4 683/2/4 687/2/4
f 687/2/4 683/2/4 688/2/4
f 686/2/4 687/2/4 690/2/4
f 690/2/4 687/2/4 691/2/4
f 689/2/4 690/2/4 693/2/4
f 693/2/4 690/2/4 694/2/4
f 691/2/4 692/2/4 695/2/4
f 695/2/4 692/2/4 696/2/4
f 697/2/4 698/2/4 701/2/4
f 701/2/4 698/2/4 702/2/4
f 699/2/4 700/2/4 703/2/4
f 703/2/4 700/2/4 704/2/4
f 702/2/4 703/2/4 707/2/4
f 707/2/4 703/2/4 708/2/4
f 705/2/4 706/2/4 710/2/4
f 706/2/4 707/2/4 710/2/4
f 710/2/4 707/2/4 711/2/4
f 708/2/4 709/2/4 712/2/4
f 712/2/4 709/2/4 713/2/4
f 714/1/4 715/1/4 716/1/4
f 716/1/4 715/1/4 717/1/4
f 718/1/4 719/1/4 720/1/4
f 720/1/4 719/1/4 721/1/4
f 722/2/4 723/2/4 724/2/4
f 724/2/4 723/2/4 725/2/4
f 725/2/4 723/2/4 726/2/4
f 726/2/4 723/2/4 727/2/4
f 725/2/4 726/2/4 729/2/4
f 729/2/4 726/2/4 730/2/4
f 728/2/4 729/2/4 732/2/4
f 730/2/4 731/2/4 732/2/4
f 729/2/4 730/2/4 732/2/4
f 732/2/4 731/2/4 733/2/4
f 728/2/4 732/2/4 734/2/4
f 728/2/4 734/2/4 736/2/4
f 734/2/4 735/2/4 736/2/4
f 736/2/4 735/2/4 737/2/4
f 737/2/4 735/2/4 738/2/4
f 738/2/4 735/2/4 739/2/4
f 737/2/4 738/2/4 741/2/4
f 741/2/4 738/2/4 742/2/4
f 740/2/4 741/2/4 744/2/4
f 742/2/4 743/2/4 744/2/4
f 741/2/4 742/2/4 744/2/4
f 744/2/4 743/2/4 745/2/4
f 750/2/5 747/2/5 746/2/5
f 754/2/5 749/2/5 748/2/5
f 755/2/5 749/2/5 754/2/5
f 756/2/5 750/2/5 746/2/5
f 756/2/5 751/2/5 750/2/5
f 757/2/5 751/2/5 756/2/5
f 760/2/5 749/2/5 755/2/5
f 761/2/5 749/2/5 760/2/5
f 762/2/5 753/2/5 752/2/5
f 763/2/5 753/2/5 762/2/5
f 768/2/5 759/2/5 758/2/5
f 769/2/5 759/2/5 768/2/5
f 770/2/5 765/2/5 764/2/5
f 771/2/5 765/2/5 770/2/5
f 772/2/5 768/2/5 758/2/5
f 773/2/5 768/2/5 772/2/5
f 775/2/5 767/2/5 766/2/5
f 778/2/5 775/2/5 774/2/5
f 779/2/5 767/2/5 775/2/5
f 779/2/5 775/2/5 778/2/5
f 780/2/5 777/2/5 776/2/5
f 781/2/5 777/2/5 780/2/5
f 788/2/5 783/2/5 782/2/5
f 789/2/5 783/2/5 788/2/5
f 790/2/5 785/2/5 784/2/5
f 791/2/5 785/2/5 790/2/5
f 792/2/5 787/2/5 786/2/5
f 793/2/5 787/2/5 792/2/5
f 795/1/5 791/1/5 790/1/5
f 795/1/5 792/1/5 791/1/5
f 795/1/5 790/1/5 789/1/5
f 796/1/5 792/1/5 795/1/5
f 797/1/5 792/1/5 796/1/5
f 798/1/5 792/1/5 797/1/5
f 800/2/5 795/2/5 794/2/5
f 801/2/5 795/2/5 800/2/5
f 802/2/5 797/2/5 796/2/5
f 803/2/5 797/2/5 802/2/5
f 804/2/5 799/2/5 798/2/5
f 805/2/5 799/2/5 804/2/5
f 811/2/5 807/2/5 806/2/5
f 812/2/5 807/2/5 811/2/5
f 815/2/5 809/2/5 808/2/5
f 816/2/5 809/2/5 815/2/5
f 818/2/5 811/2/5 810/2/5
f 819/2/5 811/2/5 818/2/5
f 820/2/5 813/2/5 812/2/5
f 821/2/5 813/2/5 820/2/5
f 822/2/5 815/2/5 814/2/5
f 823/2/5 815/2/5 822/2/5
f 824/2/5 817/2/5 816/2/5
f 825/2/5 817/2/5 824/2/5
f 826/2/5 820/2/5 819/2/5
f 827/2/5 820/2/5 826/2/5
f 828/2/5 824/2/5 823/2/5
f 829/2/5 824/2/5 828/2/5
f 830/2/6 831/2/6 834/2/6
f 834/2/6 831/2/6 835/2/6
f 832/1/6 833/1/6 838/1/6
f 836/1/6 837/1/6 838/1/6
f 835/1/6 836/1/6 838/1/6
f 834/1/6 835/1/6 838/1/6
f 833/1/6 834/1/6 838/1/6
f 838/1/6 837/1/6 839/1/6
f 839/1/6 837/1/6 840/1/6
f 840/1/6 837/1/6 841/1/6
f 841/1/6 837/1/6 842/1/6
f 842/1/6 837/1/6 843/1/6
f 840/2/6 841/2/6 844/2/6
f 844/2/6 841/2/6 845/2/6
f 848/4/6 849/4/6 852/4/6
f 850/4/6 851/4/6 854/4/6
f 854/4/6 851/4/6 855/4/6
f 852/4/6 853/4/6 860/4/6
f 848/4/6 852/4/6 860/4/6
f 860/4/6 853/4/6 861/4/6
f 856/4/6 857/4/6 864/4/6
f 864/4/6 857/4/6 865/4/6
f 861/4/6 853/4/6 867/4/6
f 862/4/6 863/4/6 868/4/6
f 868/4/6 863/4/6 869/4/6
f 858/4/6 859/4/6 872/4/6
f 872/4/6 859/4/6 873/4/6
f 846/4/6 847/4/6 874/4/6
f 874/4/6 847/4/6 875/4/6
f 866/4/6 867/4/6 876/4/6
f 867/4/6 853/4/6 877/4/6
f 876/4/6 867/4/6 877/4/6
f 870/4/6 871/4/6 884/4/6
f 884/4/6 871/4/6 885/4/6
f 878/4/6 879/4/6 886/4/6
f 886/4/6 879/4/6 887/4/6
f 880/4/6 881/4/6 888/4/6
f 888/4/6 881/4/6 889/4/6
f 882/4/6 883/4/6 890/4/6
f 890/4/6 883/4/6 891/4/6
f 894/4/6 895/4/6 900/4/6
f 900/4/6 895/4/6 901/4/6
f 892/4/6 893/4/6 902/4/6
f 902/4/6 893/4/6 903/4/6
f 894/4/6 900/4/6 904/4/6
f 904/4/6 900/4/6 905/4/6
f 896/4/6 897/4/6 907/4/6
f 906/4/6 907/4/6 912/4/6
f 907/4/6 897/4/6 913/4/6
f 912/4/6 907/4/6 913/4/6
f 914/4/6 915/4/6 916/4/6
f 916/4/6 915/4/6 917/4/6
f 898/4/6 899/4/6 918/4/6
f 918/4/6 899/4/6 919/4/6
f 908/4/6 909/4/6 920/4/6
f 920/4/6 909/4/6 921/4/6
f 910/4/6 911/4/6 922/4/6
f 922/4/6 911/4/6 923/4/6
f 926/4/6 927/4/6 931/4/6
f 924/4/6 925/4/6 934/4/6
f 930/4/6 931/4/6 936/4/6
f 931/4/6 927/4/6 937/4/6
f 936/4/6 931/4/6 937/4/6
f 932/4/6 933/4/6 939/4/6
f 934/4/6 935/4/6 940/4/6
f 924/4/6 934/4/6 940/4/6
f 940/4/6 935/4/6 941/4/6
f 938/4/6 939/4/6 942/4/6
f 939/4/6 933/4/6 943/4/6
f 942/4/6 939/4/6 943/4/6
f 943/4/6 933/4/6 944/4/6
f 924/4/6 940/4/6 946/4/6
f 946/4/6 940/4/6 947/4/6
f 944/4/6 945/4/6 948/4/6
f 943/4/6 944/4/6 948/4/6
f 948/4/6 945/4/6 949/4/6
f 937/4/6 927/4/6 952/4/6
f 952/4/6 927/4/6 953/4/6
f 928/4/6 929/4/6 954/4/6
f 954/4/6 929/4/6 955/4/6
f 943/4/6 948/4/6 956/4/6
f 956/4/6 948/4/6 957/4/6
f 950/4/6 951/4/6 959/4/6
f 959/4/6 951/4/6 960/4/6
f 958/4/6 959/4/6 962/4/6
f 960/4/6 961/4/6 962/4/6
f 959/4/6 960/4/6 962/4/6
f 962/4/6 961/4/6 963/4/6
f 963/4/6 961/4/6 964/4/6
f 964/4/6 961/4/6 965/4/6
f 963/4/6 964/4/6 968/4/6
f 968/4/6 964/4/6 969/4/6
f 966/4/6 967/4/6 973/4/6
f 972/4/6 973/4/6 974/4/6
f 973/4/6 967/4/6 975/4/6
f 974/4/6 973/4/6 975/4/6
f 975/4/6 967/4/6 976/4/6
f 976/4/6 967/4/6 977/4/6
f 970/4/6 971/4/6 978/4/6
f 978/4/6 971/4/6 979/4/6
f 980/2/6 981/2/6 985/2/6
f 985/2/6 981/2/6 986/2/6
f 982/2/6 983/2/6 989/2/6
f 989/2/6 983/2/6 990/2/6
f 984/2/6 985/2/6 992/2/6
f 992/2/6 985/2/6 993/2/6
f 986/2/6 987/2/6 994/2/6
f 994/2/6 987/2/6 995/2/6
f 988/2/6 989/2/6 996/2/6
f 996/2/6 989/2/6 997/2/6
f 990/2/6 991/2/6 998/2/6
f 998/2/6 991/2/6 999/2/6
f 993/2/6 994/2/6 1000/2/6
f 1000/2/6 994/2/6 1001/2/6
f 997/2/6 998/2/6 1002/2/6
f 1002/2/6 998/2/6 1003/2/6
f 1004/4/6 1005/4/6 1006/4/6
f 1006/4/6 1005/4/6 1007/4/6
f 1008/2/6 1009/2/6 1016/2/6
f 1016/2/6 1009/2/6 1017/2/6
f 1010/2/6 1011/2/6 1018/2/6
f 1018/2/6 1011/2/6 1019/2/6
f 1012/2/6 1013/2/6 1020/2/6
f 1020/2/6 1013/2/6 1021/2/6
f 1014/2/6 1015/2/6 1022/2/6
f 1022/2/6 1015/2/6 1023/2/6
f 1024/2/6 1025/2/6 1032/2/6
f 1032/2/6 1025/2/6 1033/2/6
f 1026/2/6 1027/2/6 1034/2/6
f 1034/2/6 1027/2/6 1035/2/6
f 1028/2/6 1029/2/6 1036/2/6
f 1036/2/6 1029/2/6 1037/2/6
f 1030/2/6 1031/2/6 1038/2/6
f 1038/2/6 1031/2/6 1039/2/6
f 1040/3/6 1041/3/6 1044/3/6
f 1044/3/6 1041/3/6 1045/3/6
f 1042/3/6 1043/3/6 1046/3/6
f 1046/3/6 1043/3/6 1047/3/6
f 1048/3/6 1049/3/6 1052/3/6
f 1052/3/6 1049/3/6 1053/3/6
f 1050/3/6 1051/3/6 1054/3/6
f 1054/3/6 1051/3/6 1055/3/6
f 1056/3/6 1057/3/6 1059/3/6
f 1059/3/6 1057/3/6 1060/3/6
f 1058/3/6 1059/3/6 1062/3/6
f 1062/3/6 1059/3/6 1063/3/6
f 1060/3/6 1061/3/6 1064/3/6
f 1064/3/6 1061/3/6 1065/3/6
f 1063/3/6 1064/3/6 1066/3/6
f 1066/3/6 1064/3/6 1067/3/6
f 1068/3/6 1069/3/6 1070/3/6
f 1070/3/6 1069/3/6 1071/3/6
