# MagicaVoxel @ Ephtracy

# group
o 

# material
mtllib center_city_plus.mtl
usemtl palette

# normals
vn -1 0 0
vn 1 0 0
vn 0 0 1
vn 0 0 -1
vn 0 -1 0
vn 0 1 0

# texcoords
vt 0.373047 0.5
vt 0.830078 0.5
vt 0.849609 0.5

# verts
v -0.9 0 1
v -0.9 0 0.6
v -0.9 0 -0.1
v -0.9 0 -0.4
v -0.9 0 -0.5
v -0.9 0 -0.9
v -0.9 0.1 1
v -0.9 0.1 0.6
v -0.9 0.1 -0.1
v -0.9 0.1 -0.4
v -0.9 0.2 1
v -0.9 0.2 0.6
v -0.9 0.2 -0.1
v -0.9 0.2 -0.4
v -0.9 0.2 -0.5
v -0.9 0.2 -0.9
v -0.9 0.3 -0.5
v -0.9 0.3 -0.9
v -0.8 0 0.5
v -0.8 0 -1.19209e-07
v -0.8 0.1 0.5
v -0.8 0.1 -1.19209e-07
v -0.8 0.2 1
v -0.8 0.2 0.6
v -0.8 0.2 0.5
v -0.8 0.2 0.4
v -0.8 0.2 0.3
v -0.8 0.2 -1.19209e-07
v -0.8 0.2 -0.1
v -0.8 0.2 -0.4
v -0.8 0.3 1
v -0.8 0.3 0.6
v -0.8 0.3 0.4
v -0.8 0.3 0.3
v -0.8 0.3 -0.1
v -0.8 0.3 -0.4
v -0.8 0.3 -0.5
v -0.8 0.3 -0.9
v -0.8 0.4 -0.5
v -0.8 0.4 -0.9
v -0.7 0.2 0.5
v -0.7 0.2 0.4
v -0.7 0.2 0.3
v -0.7 0.2 -1.19209e-07
v -0.7 0.3 0.5
v -0.7 0.3 0.4
v -0.7 0.3 0.3
v -0.7 0.3 -1.19209e-07
v -0.2 0 1
v -0.2 0 0.7
v -0.2 0.1 1
v -0.2 0.1 0.7
v -0.2 0.2 1
v -0.2 0.2 0.9
v -0.2 0.2 0.8
v -0.2 0.2 0.7
v -0.2 0.3 0.9
v -0.2 0.3 0.8
v -0.1 0 -0.5
v -0.1 0 -0.8
v -0.1 0.1 -0.5
v -0.1 0.1 -0.8
v -0.1 0.2 -0.5
v -0.1 0.2 -0.6
v -0.1 0.2 -0.7
v -0.1 0.2 -0.8
v -0.1 0.3 -0.6
v -0.1 0.3 -0.7
v 0 0 0.4
v 0 0 0.0999999
v 0 0.5 0.4
v 0 0.5 0.0999999
v 0 0.6 0.4
v 0 0.6 0.3
v 0 0.6 0.2
v 0 0.6 0.0999999
v 0 0.7 0.3
v 0 0.7 0.2
v 0.1 0 0.7
v 0.1 0 0.5
v 0.1 0.1 0.7
v 0.1 0.2 1
v 0.1 0.2 0.9
v 0.1 0.2 0.8
v 0.1 0.2 0.7
v 0.1 0.2 0.5
v 0.1 0.3 1
v 0.1 0.3 0.9
v 0.1 0.3 0.8
v 0.1 0.3 0.5
v 0.1 0.6 0.4
v 0.1 0.6 0.3
v 0.1 0.6 0.2
v 0.1 0.6 0.0999999
v 0.1 0.7 0.4
v 0.1 0.7 0.3
v 0.1 0.7 0.2
v 0.1 0.7 0.0999999
v 0.1 0.8 0.3
v 0.1 0.8 0.2
v 0.2 0.3 1
v 0.2 0.3 0.5
v 0.2 0.4 1
v 0.2 0.4 0.5
v 0.4 0 -1.19209e-07
v 0.4 0 -0.3
v 0.4 0.1 -1.19209e-07
v 0.4 0.1 -0.3
v 0.4 0.2 -1.19209e-07
v 0.4 0.2 -0.1
v 0.4 0.2 -0.2
v 0.4 0.2 -0.3
v 0.4 0.3 -0.1
v 0.4 0.3 -0.2
v 0.5 0 -0.4
v 0.5 0 -0.9
v 0.5 0.1 -0.4
v 0.5 0.1 -0.9
v 0.5 0.2 -0.4
v 0.5 0.2 -0.9
v 0.6 0 0.9
v 0.6 0 0.5
v 0.6 0 0.3
v 0.6 0 -1.19209e-07
v 0.6 0.1 0.9
v 0.6 0.1 0.5
v 0.6 0.1 0.3
v 0.6 0.1 -1.19209e-07
v 0.6 0.2 0.9
v 0.6 0.2 0.8
v 0.6 0.2 0.7
v 0.6 0.2 0.5
v 0.6 0.2 0.3
v 0.6 0.2 -1.19209e-07
v 0.6 0.2 -0.4
v 0.6 0.2 -0.9
v 0.6 0.3 0.8
v 0.6 0.3 0.7
v 0.6 0.3 -0.4
v 0.6 0.3 -0.9
v 0.7 0.2 0.9
v 0.7 0.2 0.8
v 0.7 0.2 0.7
v 0.7 0.2 0.5
v 0.7 0.2 0.3
v 0.7 0.2 -0.1
v 0.7 0.2 -0.2
v 0.7 0.2 -0.3
v 0.7 0.3 0.9
v 0.7 0.3 0.8
v 0.7 0.3 0.7
v 0.7 0.3 0.5
v 0.7 0.3 0.3
v 0.7 0.3 -0.1
v 0.7 0.3 -0.2
v 0.7 0.3 -0.3
v -0.7 0.2 1
v -0.7 0.2 0.8
v -0.7 0.2 0.7
v -0.7 0.2 0.6
v -0.7 0.2 -0.1
v -0.7 0.2 -0.4
v -0.7 0.3 1
v -0.7 0.3 0.8
v -0.7 0.3 0.7
v -0.7 0.3 0.6
v -0.7 0.3 -0.1
v -0.7 0.3 -0.4
v -0.7 0.3 -0.5
v -0.7 0.3 -0.9
v -0.7 0.4 -0.5
v -0.7 0.4 -0.9
v -0.6 0 1
v -0.6 0 0.9
v -0.6 0 -0.1
v -0.6 0 -0.4
v -0.6 0 -0.5
v -0.6 0 -0.6
v -0.6 0.1 1
v -0.6 0.1 0.9
v -0.6 0.1 -0.1
v -0.6 0.1 -0.4
v -0.6 0.1 -0.6
v -0.6 0.2 1
v -0.6 0.2 0.9
v -0.6 0.2 0.5
v -0.6 0.2 0.4
v -0.6 0.2 0.3
v -0.6 0.2 -1.19209e-07
v -0.6 0.2 -0.1
v -0.6 0.2 -0.4
v -0.6 0.2 -0.5
v -0.6 0.2 -0.6
v -0.6 0.2 -0.7
v -0.6 0.2 -0.8
v -0.6 0.2 -0.9
v -0.6 0.3 0.5
v -0.6 0.3 0.4
v -0.6 0.3 0.3
v -0.6 0.3 -1.19209e-07
v -0.6 0.3 -0.5
v -0.6 0.3 -0.7
v -0.6 0.3 -0.8
v -0.6 0.3 -0.9
v -0.5 0 0.2
v -0.5 0 -1.19209e-07
v -0.5 0.1 0.2
v -0.5 0.1 -1.19209e-07
v -0.5 0.2 0.2
v -0.5 0.2 -1.19209e-07
v -0.4 0.2 0.8
v -0.4 0.2 0.7
v -0.4 0.3 0.8
v -0.4 0.3 0.7
v -0.3 0 0.9
v -0.3 0 0.6
v -0.3 0 -0.6
v -0.3 0 -0.9
v -0.3 0.1 0.9
v -0.3 0.1 0.6
v -0.3 0.1 -0.6
v -0.3 0.1 -0.9
v -0.3 0.2 0.9
v -0.3 0.2 0.6
v -0.3 0.2 -0.6
v -0.3 0.2 -0.7
v -0.3 0.2 -0.8
v -0.3 0.2 -0.9
v -0.3 0.3 -0.7
v -0.3 0.3 -0.8
v -0.2 0 0.5
v -0.2 0 0.2
v -0.2 0.1 0.5
v -0.2 0.1 0.2
v -0.2 0.2 0.5
v -0.2 0.2 0.4
v -0.2 0.2 0.3
v -0.2 0.2 0.2
v -0.2 0.3 0.4
v -0.2 0.3 0.3
v 0.2 0.6 0.4
v 0.2 0.6 0.3
v 0.2 0.6 0.2
v 0.2 0.6 0.0999999
v 0.2 0.7 0.4
v 0.2 0.7 0.3
v 0.2 0.7 0.2
v 0.2 0.7 0.0999999
v 0.2 0.8 0.3
v 0.2 0.8 0.2
v 0.3 0 0.4
v 0.3 0 0.0999999
v 0.3 0.3 1
v 0.3 0.3 0.5
v 0.3 0.4 1
v 0.3 0.4 0.5
v 0.3 0.5 0.4
v 0.3 0.5 0.0999999
v 0.3 0.6 0.4
v 0.3 0.6 0.3
v 0.3 0.6 0.2
v 0.3 0.6 0.0999999
v 0.3 0.7 0.3
v 0.3 0.7 0.2
v 0.4 0 1
v 0.4 0 0.5
v 0.4 0 -0.5
v 0.4 0 -0.8
v 0.4 0.1 -0.5
v 0.4 0.1 -0.8
v 0.4 0.2 1
v 0.4 0.2 0.5
v 0.4 0.2 -0.5
v 0.4 0.2 -0.6
v 0.4 0.2 -0.7
v 0.4 0.2 -0.8
v 0.4 0.3 1
v 0.4 0.3 0.5
v 0.4 0.3 -0.6
v 0.4 0.3 -0.7
v 0.7 0.2 -0.4
v 0.7 0.2 -0.9
v 0.7 0.3 -0.4
v 0.7 0.3 -0.9
v 0.8 0 -0.4
v 0.8 0 -0.9
v 0.8 0.1 -0.4
v 0.8 0.1 -0.9
v 0.8 0.2 0.9
v 0.8 0.2 0.7
v 0.8 0.2 0.6
v 0.8 0.2 0.5
v 0.8 0.2 0.3
v 0.8 0.2 -0.3
v 0.8 0.2 -0.4
v 0.8 0.2 -0.9
v 0.8 0.3 0.9
v 0.8 0.3 0.7
v 0.8 0.3 0.6
v 0.8 0.3 0.5
v 0.8 0.3 0.3
v 0.8 0.3 -0.3
v 0.9 0 0.9
v 0.9 0 0.5
v 0.9 0 0.3
v 0.9 0 -0.3
v 0.9 0.1 0.9
v 0.9 0.1 0.5
v 0.9 0.1 0.3
v 0.9 0.1 -0.3
v 0.9 0.2 0.9
v 0.9 0.2 0.7
v 0.9 0.2 0.6
v 0.9 0.2 0.5
v 0.9 0.2 0.3
v 0.9 0.2 -0.3
v 0.9 0.3 0.7
v 0.9 0.3 0.6
v -0.9 0 1
v -0.9 0.1 1
v -0.9 0.2 1
v -0.8 0.2 1
v -0.8 0.3 1
v -0.7 0.2 1
v -0.7 0.3 1
v -0.6 0 1
v -0.6 0.1 1
v -0.6 0.2 1
v -0.2 0 1
v -0.2 0.1 1
v -0.2 0.2 1
v 0.1 0.1 1
v 0.1 0.2 1
v 0.1 0.3 1
v 0.2 0.3 1
v 0.2 0.4 1
v 0.3 0.3 1
v 0.3 0.4 1
v 0.4 0 1
v 0.4 0.2 1
v 0.4 0.3 1
v -0.6 0 0.9
v -0.6 0.1 0.9
v -0.6 0.2 0.9
v -0.3 0 0.9
v -0.3 0.1 0.9
v -0.3 0.2 0.9
v -0.2 0.2 0.9
v -0.2 0.3 0.9
v 0.1 0.2 0.9
v 0.1 0.3 0.9
v 0.6 0 0.9
v 0.6 0.1 0.9
v 0.6 0.2 0.9
v 0.7 0.2 0.9
v 0.7 0.3 0.9
v 0.8 0.2 0.9
v 0.8 0.3 0.9
v 0.9 0 0.9
v 0.9 0.1 0.9
v 0.9 0.2 0.9
v -0.7 0.2 0.8
v -0.7 0.3 0.8
v -0.4 0.2 0.8
v -0.4 0.3 0.8
v 0.6 0.2 0.8
v 0.6 0.3 0.8
v 0.7 0.2 0.8
v 0.7 0.3 0.8
v 0.8 0.2 0.7
v 0.8 0.3 0.7
v 0.9 0.2 0.7
v 0.9 0.3 0.7
v -0.8 0 0.5
v -0.8 0.1 0.5
v -0.8 0.2 0.5
v -0.7 0.2 0.5
v -0.7 0.3 0.5
v -0.6 0.2 0.5
v -0.6 0.3 0.5
v -0.2 0 0.5
v -0.2 0.1 0.5
v -0.2 0.2 0.5
v -0.8 0.2 0.4
v -0.8 0.3 0.4
v -0.7 0.2 0.4
v -0.7 0.3 0.4
v -0.6 0.2 0.4
v -0.6 0.3 0.4
v -0.2 0.2 0.4
v -0.2 0.3 0.4
v 0 0 0.4
v 0 0.5 0.4
v 0 0.6 0.4
v 0.1 0.6 0.4
v 0.1 0.7 0.4
v 0.2 0.6 0.4
v 0.2 0.7 0.4
v 0.3 0 0.4
v 0.3 0.5 0.4
v 0.3 0.6 0.4
v 0 0.6 0.3
v 0 0.7 0.3
v 0.1 0.6 0.3
v 0.1 0.7 0.3
v 0.1 0.8 0.3
v 0.2 0.6 0.3
v 0.2 0.7 0.3
v 0.2 0.8 0.3
v 0.3 0.6 0.3
v 0.3 0.7 0.3
v 0.6 0 0.3
v 0.6 0.1 0.3
v 0.6 0.2 0.3
v 0.7 0.2 0.3
v 0.7 0.3 0.3
v 0.8 0.2 0.3
v 0.8 0.3 0.3
v 0.9 0 0.3
v 0.9 0.1 0.3
v 0.9 0.2 0.3
v 0.4 0 -1.19209e-07
v 0.4 0.1 -1.19209e-07
v 0.4 0.2 -1.19209e-07
v 0.6 0 -1.19209e-07
v 0.6 0.1 -1.19209e-07
v 0.6 0.2 -1.19209e-07
v -0.9 0 -0.1
v -0.9 0.1 -0.1
v -0.9 0.2 -0.1
v -0.8 0.2 -0.1
v -0.8 0.3 -0.1
v -0.7 0.2 -0.1
v -0.7 0.3 -0.1
v -0.6 0 -0.1
v -0.6 0.1 -0.1
v -0.6 0.2 -0.1
v 0.4 0.2 -0.1
v 0.4 0.3 -0.1
v 0.7 0.2 -0.1
v 0.7 0.3 -0.1
v 0.5 0 -0.4
v 0.5 0.1 -0.4
v 0.5 0.2 -0.4
v 0.6 0.2 -0.4
v 0.6 0.3 -0.4
v 0.7 0.2 -0.4
v 0.7 0.3 -0.4
v 0.8 0 -0.4
v 0.8 0.1 -0.4
v 0.8 0.2 -0.4
v -0.9 0 -0.5
v -0.9 0.2 -0.5
v -0.9 0.3 -0.5
v -0.8 0.3 -0.5
v -0.8 0.4 -0.5
v -0.7 0.3 -0.5
v -0.7 0.4 -0.5
v -0.6 0 -0.5
v -0.6 0.2 -0.5
v -0.6 0.3 -0.5
v -0.1 0 -0.5
v -0.1 0.1 -0.5
v -0.1 0.2 -0.5
v 0.4 0 -0.5
v 0.4 0.1 -0.5
v 0.4 0.2 -0.5
v -0.6 0 -0.6
v -0.6 0.1 -0.6
v -0.6 0.2 -0.6
v -0.3 0 -0.6
v -0.3 0.1 -0.6
v -0.3 0.2 -0.6
v -0.1 0.2 -0.6
v -0.1 0.3 -0.6
v 0.4 0.2 -0.6
v 0.4 0.3 -0.6
v -0.6 0.2 -0.7
v -0.6 0.3 -0.7
v -0.3 0.2 -0.7
v -0.3 0.3 -0.7
v -0.2 0.2 0.8
v -0.2 0.3 0.8
v 0.1 0.2 0.8
v 0.1 0.3 0.8
v -0.7 0.2 0.7
v -0.7 0.3 0.7
v -0.4 0.2 0.7
v -0.4 0.3 0.7
v -0.2 0 0.7
v -0.2 0.1 0.7
v -0.2 0.2 0.7
v 0.1 0 0.7
v 0.1 0.1 0.7
v 0.1 0.2 0.7
v 0.6 0.2 0.7
v 0.6 0.3 0.7
v 0.7 0.2 0.7
v 0.7 0.3 0.7
v -0.9 0 0.6
v -0.9 0.1 0.6
v -0.9 0.2 0.6
v -0.8 0.2 0.6
v -0.8 0.3 0.6
v -0.7 0.2 0.6
v -0.7 0.3 0.6
v -0.3 0 0.6
v -0.3 0.1 0.6
v -0.3 0.2 0.6
v 0.8 0.2 0.6
v 0.8 0.3 0.6
v 0.9 0.2 0.6
v 0.9 0.3 0.6
v 0.1 0 0.5
v 0.1 0.2 0.5
v 0.1 0.3 0.5
v 0.2 0.3 0.5
v 0.2 0.4 0.5
v 0.3 0.3 0.5
v 0.3 0.4 0.5
v 0.4 0 0.5
v 0.4 0.2 0.5
v 0.4 0.3 0.5
v 0.6 0 0.5
v 0.6 0.1 0.5
v 0.6 0.2 0.5
v 0.7 0.2 0.5
v 0.7 0.3 0.5
v 0.8 0.2 0.5
v 0.8 0.3 0.5
v 0.9 0 0.5
v 0.9 0.1 0.5
v 0.9 0.2 0.5
v -0.8 0.2 0.3
v -0.8 0.3 0.3
v -0.7 0.2 0.3
v -0.7 0.3 0.3
v -0.6 0.2 0.3
v -0.6 0.3 0.3
v -0.2 0.2 0.3
v -0.2 0.3 0.3
v -0.5 0 0.2
v -0.5 0.1 0.2
v -0.5 0.2 0.2
v -0.2 0 0.2
v -0.2 0.1 0.2
v -0.2 0.2 0.2
v 0 0.6 0.2
v 0 0.7 0.2
v 0.1 0.6 0.2
v 0.1 0.7 0.2
v 0.1 0.8 0.2
v 0.2 0.6 0.2
v 0.2 0.7 0.2
v 0.2 0.8 0.2
v 0.3 0.6 0.2
v 0.3 0.7 0.2
v 0 0 0.0999999
v 0 0.5 0.0999999
v 0 0.6 0.0999999
v 0.1 0.6 0.0999999
v 0.1 0.7 0.0999999
v 0.2 0.6 0.0999999
v 0.2 0.7 0.0999999
v 0.3 0 0.0999999
v 0.3 0.5 0.0999999
v 0.3 0.6 0.0999999
v -0.8 0 -1.19209e-07
v -0.8 0.1 -1.19209e-07
v -0.8 0.2 -1.19209e-07
v -0.7 0.2 -1.19209e-07
v -0.7 0.3 -1.19209e-07
v -0.6 0.2 -1.19209e-07
v -0.6 0.3 -1.19209e-07
v -0.5 0 -1.19209e-07
v -0.5 0.1 -1.19209e-07
v -0.5 0.2 -1.19209e-07
v 0.4 0.2 -0.2
v 0.4 0.3 -0.2
v 0.7 0.2 -0.2
v 0.7 0.3 -0.2
v 0.4 0 -0.3
v 0.4 0.1 -0.3
v 0.4 0.2 -0.3
v 0.7 0.2 -0.3
v 0.7 0.3 -0.3
v 0.8 0.2 -0.3
v 0.8 0.3 -0.3
v 0.9 0 -0.3
v 0.9 0.1 -0.3
v 0.9 0.2 -0.3
v -0.9 0 -0.4
v -0.9 0.1 -0.4
v -0.9 0.2 -0.4
v -0.8 0.2 -0.4
v -0.8 0.3 -0.4
v -0.7 0.2 -0.4
v -0.7 0.3 -0.4
v -0.6 0 -0.4
v -0.6 0.1 -0.4
v -0.6 0.2 -0.4
v -0.1 0.2 -0.7
v -0.1 0.3 -0.7
v 0.4 0.2 -0.7
v 0.4 0.3 -0.7
v -0.6 0.2 -0.8
v -0.6 0.3 -0.8
v -0.3 0.2 -0.8
v -0.3 0.3 -0.8
v -0.1 0 -0.8
v -0.1 0.1 -0.8
v -0.1 0.2 -0.8
v 0.4 0 -0.8
v 0.4 0.1 -0.8
v 0.4 0.2 -0.8
v -0.9 0 -0.9
v -0.9 0.2 -0.9
v -0.9 0.3 -0.9
v -0.8 0.3 -0.9
v -0.8 0.4 -0.9
v -0.7 0.3 -0.9
v -0.7 0.4 -0.9
v -0.6 0.1 -0.9
v -0.6 0.2 -0.9
v -0.6 0.3 -0.9
v -0.3 0 -0.9
v -0.3 0.1 -0.9
v -0.3 0.2 -0.9
v 0.5 0 -0.9
v 0.5 0.1 -0.9
v 0.5 0.2 -0.9
v 0.6 0.2 -0.9
v 0.6 0.3 -0.9
v 0.7 0.2 -0.9
v 0.7 0.3 -0.9
v 0.8 0 -0.9
v 0.8 0.1 -0.9
v 0.8 0.2 -0.9
v -0.9 0 1
v -0.6 0 1
v -0.2 0 1
v 0.4 0 1
v -0.6 0 0.9
v -0.3 0 0.9
v 0.6 0 0.9
v 0.9 0 0.9
v -0.2 0 0.7
v 0.1 0 0.7
v -0.9 0 0.6
v -0.3 0 0.6
v -0.8 0 0.5
v -0.2 0 0.5
v 0.1 0 0.5
v 0.4 0 0.5
v 0.6 0 0.5
v 0.9 0 0.5
v 0 0 0.4
v 0.3 0 0.4
v 0.6 0 0.3
v 0.9 0 0.3
v -0.5 0 0.2
v -0.2 0 0.2
v 0 0 0.0999999
v 0.3 0 0.0999999
v -0.8 0 -1.19209e-07
v -0.5 0 -1.19209e-07
v 0.4 0 -1.19209e-07
v 0.6 0 -1.19209e-07
v -0.9 0 -0.1
v -0.6 0 -0.1
v 0.4 0 -0.3
v 0.9 0 -0.3
v -0.9 0 -0.4
v -0.6 0 -0.4
v 0.5 0 -0.4
v 0.8 0 -0.4
v -0.9 0 -0.5
v -0.6 0 -0.5
v -0.1 0 -0.5
v 0.4 0 -0.5
v -0.6 0 -0.6
v -0.3 0 -0.6
v -0.1 0 -0.8
v 0.4 0 -0.8
v -0.9 0 -0.9
v -0.3 0 -0.9
v 0.5 0 -0.9
v 0.8 0 -0.9
v -0.9 0.2 1
v -0.8 0.2 1
v -0.7 0.2 1
v -0.6 0.2 1
v -0.2 0.2 1
v 0.1 0.2 1
v -0.6 0.2 0.9
v -0.3 0.2 0.9
v -0.2 0.2 0.9
v 0.1 0.2 0.9
v 0.6 0.2 0.9
v 0.7 0.2 0.9
v 0.8 0.2 0.9
v 0.9 0.2 0.9
v -0.7 0.2 0.8
v -0.4 0.2 0.8
v -0.2 0.2 0.8
v 0.1 0.2 0.8
v 0.6 0.2 0.8
v 0.7 0.2 0.8
v -0.7 0.2 0.7
v -0.4 0.2 0.7
v -0.2 0.2 0.7
v 0.1 0.2 0.7
v 0.6 0.2 0.7
v 0.7 0.2 0.7
v 0.8 0.2 0.7
v 0.9 0.2 0.7
v -0.9 0.2 0.6
v -0.8 0.2 0.6
v -0.7 0.2 0.6
v -0.3 0.2 0.6
v 0.8 0.2 0.6
v 0.9 0.2 0.6
v -0.8 0.2 0.5
v -0.7 0.2 0.5
v -0.6 0.2 0.5
v -0.2 0.2 0.5
v 0.6 0.2 0.5
v 0.7 0.2 0.5
v 0.8 0.2 0.5
v 0.9 0.2 0.5
v -0.8 0.2 0.4
v -0.7 0.2 0.4
v -0.6 0.2 0.4
v -0.2 0.2 0.4
v -0.8 0.2 0.3
v -0.7 0.2 0.3
v -0.6 0.2 0.3
v -0.2 0.2 0.3
v 0.6 0.2 0.3
v 0.7 0.2 0.3
v 0.8 0.2 0.3
v 0.9 0.2 0.3
v -0.5 0.2 0.2
v -0.2 0.2 0.2
v -0.8 0.2 -1.19209e-07
v -0.7 0.2 -1.19209e-07
v -0.6 0.2 -1.19209e-07
v -0.5 0.2 -1.19209e-07
v 0.4 0.2 -1.19209e-07
v 0.6 0.2 -1.19209e-07
v -0.9 0.2 -0.1
v -0.8 0.2 -0.1
v -0.7 0.2 -0.1
v -0.6 0.2 -0.1
v 0.4 0.2 -0.1
v 0.7 0.2 -0.1
v 0.4 0.2 -0.2
v 0.7 0.2 -0.2
v 0.4 0.2 -0.3
v 0.7 0.2 -0.3
v 0.8 0.2 -0.3
v 0.9 0.2 -0.3
v -0.9 0.2 -0.4
v -0.8 0.2 -0.4
v -0.7 0.2 -0.4
v -0.6 0.2 -0.4
v 0.5 0.2 -0.4
v 0.6 0.2 -0.4
v 0.7 0.2 -0.4
v 0.8 0.2 -0.4
v -0.1 0.2 -0.5
v 0.4 0.2 -0.5
v -0.6 0.2 -0.6
v -0.3 0.2 -0.6
v -0.1 0.2 -0.6
v 0.4 0.2 -0.6
v -0.6 0.2 -0.7
v -0.3 0.2 -0.7
v -0.1 0.2 -0.7
v 0.4 0.2 -0.7
v -0.6 0.2 -0.8
v -0.3 0.2 -0.8
v -0.1 0.2 -0.8
v 0.4 0.2 -0.8
v -0.6 0.2 -0.9
v -0.3 0.2 -0.9
v 0.5 0.2 -0.9
v 0.6 0.2 -0.9
v 0.7 0.2 -0.9
v 0.8 0.2 -0.9
v -0.8 0.3 1
v -0.7 0.3 1
v 0.1 0.3 1
v 0.2 0.3 1
v 0.3 0.3 1
v 0.4 0.3 1
v -0.2 0.3 0.9
v 0.1 0.3 0.9
v 0.7 0.3 0.9
v 0.8 0.3 0.9
v -0.7 0.3 0.8
v -0.4 0.3 0.8
v -0.2 0.3 0.8
v 0.1 0.3 0.8
v 0.6 0.3 0.8
v 0.7 0.3 0.8
v -0.7 0.3 0.7
v -0.4 0.3 0.7
v 0.6 0.3 0.7
v 0.7 0.3 0.7
v 0.8 0.3 0.7
v 0.9 0.3 0.7
v -0.8 0.3 0.6
v -0.7 0.3 0.6
v 0.8 0.3 0.6
v 0.9 0.3 0.6
v -0.7 0.3 0.5
v -0.6 0.3 0.5
v 0.1 0.3 0.5
v 0.2 0.3 0.5
v 0.3 0.3 0.5
v 0.4 0.3 0.5
v 0.7 0.3 0.5
v 0.8 0.3 0.5
v -0.8 0.3 0.4
v -0.7 0.3 0.4
v -0.6 0.3 0.4
v -0.2 0.3 0.4
v -0.8 0.3 0.3
v -0.7 0.3 0.3
v -0.6 0.3 0.3
v -0.2 0.3 0.3
v 0.7 0.3 0.3
v 0.8 0.3 0.3
v -0.7 0.3 -1.19209e-07
v -0.6 0.3 -1.19209e-07
v -0.8 0.3 -0.1
v -0.7 0.3 -0.1
v 0.4 0.3 -0.1
v 0.7 0.3 -0.1
v 0.4 0.3 -0.2
v 0.7 0.3 -0.2
v 0.7 0.3 -0.3
v 0.8 0.3 -0.3
v -0.8 0.3 -0.4
v -0.7 0.3 -0.4
v 0.6 0.3 -0.4
v 0.7 0.3 -0.4
v -0.9 0.3 -0.5
v -0.8 0.3 -0.5
v -0.7 0.3 -0.5
v -0.6 0.3 -0.5
v -0.1 0.3 -0.6
v 0.4 0.3 -0.6
v -0.6 0.3 -0.7
v -0.3 0.3 -0.7
v -0.1 0.3 -0.7
v 0.4 0.3 -0.7
v -0.6 0.3 -0.8
v -0.3 0.3 -0.8
v -0.9 0.3 -0.9
v -0.8 0.3 -0.9
v -0.7 0.3 -0.9
v -0.6 0.3 -0.9
v 0.6 0.3 -0.9
v 0.7 0.3 -0.9
v 0.2 0.4 1
v 0.3 0.4 1
v 0.2 0.4 0.5
v 0.3 0.4 0.5
v -0.8 0.4 -0.5
v -0.7 0.4 -0.5
v -0.8 0.4 -0.9
v -0.7 0.4 -0.9
v 0 0.6 0.4
v 0.1 0.6 0.4
v 0.2 0.6 0.4
v 0.3 0.6 0.4
v 0 0.6 0.3
v 0.1 0.6 0.3
v 0.2 0.6 0.3
v 0.3 0.6 0.3
v 0 0.6 0.2
v 0.1 0.6 0.2
v 0.2 0.6 0.2
v 0.3 0.6 0.2
v 0 0.6 0.0999999
v 0.1 0.6 0.0999999
v 0.2 0.6 0.0999999
v 0.3 0.6 0.0999999
v 0.1 0.7 0.4
v 0.2 0.7 0.4
v 0 0.7 0.3
v 0.1 0.7 0.3
v 0.2 0.7 0.3
v 0.3 0.7 0.3
v 0 0.7 0.2
v 0.1 0.7 0.2
v 0.2 0.7 0.2
v 0.3 0.7 0.2
v 0.1 0.7 0.0999999
v 0.2 0.7 0.0999999
v 0.1 0.8 0.3
v 0.2 0.8 0.3
v 0.1 0.8 0.2
v 0.2 0.8 0.2

# faces
f 7/1/1 2/1/1 1/1/1
f 8/1/1 2/1/1 7/1/1
f 9/1/1 4/1/1 3/1/1
f 10/1/1 4/1/1 9/1/1
f 11/3/1 8/3/1 7/3/1
f 12/3/1 8/3/1 11/3/1
f 13/3/1 10/3/1 9/3/1
f 14/3/1 10/3/1 13/3/1
f 15/1/1 6/1/1 5/1/1
f 16/1/1 6/1/1 15/1/1
f 17/3/1 16/3/1 15/3/1
f 18/3/1 16/3/1 17/3/1
f 21/1/1 20/1/1 19/1/1
f 22/1/1 20/1/1 21/1/1
f 25/3/1 22/3/1 21/3/1
f 26/3/1 22/3/1 25/3/1
f 27/3/1 22/3/1 26/3/1
f 28/3/1 22/3/1 27/3/1
f 31/3/1 24/3/1 23/3/1
f 32/3/1 24/3/1 31/3/1
f 33/3/1 27/3/1 26/3/1
f 34/3/1 27/3/1 33/3/1
f 35/3/1 30/3/1 29/3/1
f 36/3/1 30/3/1 35/3/1
f 39/3/1 38/3/1 37/3/1
f 40/3/1 38/3/1 39/3/1
f 45/3/1 42/3/1 41/3/1
f 46/3/1 42/3/1 45/3/1
f 47/3/1 44/3/1 43/3/1
f 48/3/1 44/3/1 47/3/1
f 51/1/1 50/1/1 49/1/1
f 52/1/1 50/1/1 51/1/1
f 53/3/1 52/3/1 51/3/1
f 54/3/1 52/3/1 53/3/1
f 55/3/1 52/3/1 54/3/1
f 56/3/1 52/3/1 55/3/1
f 57/3/1 55/3/1 54/3/1
f 58/3/1 55/3/1 57/3/1
f 61/1/1 60/1/1 59/1/1
f 62/1/1 60/1/1 61/1/1
f 63/3/1 62/3/1 61/3/1
f 64/3/1 62/3/1 63/3/1
f 65/3/1 62/3/1 64/3/1
f 66/3/1 62/3/1 65/3/1
f 67/3/1 65/3/1 64/3/1
f 68/3/1 65/3/1 67/3/1
f 71/1/1 70/1/1 69/1/1
f 72/1/1 70/1/1 71/1/1
f 73/2/1 72/2/1 71/2/1
f 74/2/1 72/2/1 73/2/1
f 75/2/1 72/2/1 74/2/1
f 76/2/1 72/2/1 75/2/1
f 77/2/1 75/2/1 74/2/1
f 78/2/1 75/2/1 77/2/1
f 81/1/1 80/1/1 79/1/1
f 85/1/1 80/1/1 81/1/1
f 86/1/1 80/1/1 85/1/1
f 87/3/1 83/3/1 82/3/1
f 88/3/1 83/3/1 87/3/1
f 89/3/1 85/3/1 84/3/1
f 89/3/1 86/3/1 85/3/1
f 90/3/1 86/3/1 89/3/1
f 95/2/1 92/2/1 91/2/1
f 96/2/1 92/2/1 95/2/1
f 97/2/1 94/2/1 93/2/1
f 98/2/1 94/2/1 97/2/1
f 99/2/1 97/2/1 96/2/1
f 100/2/1 97/2/1 99/2/1
f 103/3/1 102/3/1 101/3/1
f 104/3/1 102/3/1 103/3/1
f 107/1/1 106/1/1 105/1/1
f 108/1/1 106/1/1 107/1/1
f 109/3/1 108/3/1 107/3/1
f 110/3/1 108/3/1 109/3/1
f 111/3/1 108/3/1 110/3/1
f 112/3/1 108/3/1 111/3/1
f 113/3/1 111/3/1 110/3/1
f 114/3/1 111/3/1 113/3/1
f 117/1/1 116/1/1 115/1/1
f 118/1/1 116/1/1 117/1/1
f 119/3/1 118/3/1 117/3/1
f 120/3/1 118/3/1 119/3/1
f 125/1/1 122/1/1 121/1/1
f 126/1/1 122/1/1 125/1/1
f 127/1/1 124/1/1 123/1/1
f 128/1/1 124/1/1 127/1/1
f 129/3/1 126/3/1 125/3/1
f 130/3/1 126/3/1 129/3/1
f 131/3/1 126/3/1 130/3/1
f 132/3/1 126/3/1 131/3/1
f 133/3/1 128/3/1 127/3/1
f 134/3/1 128/3/1 133/3/1
f 137/3/1 131/3/1 130/3/1
f 138/3/1 131/3/1 137/3/1
f 139/3/1 136/3/1 135/3/1
f 140/3/1 136/3/1 139/3/1
f 149/3/1 142/3/1 141/3/1
f 150/3/1 142/3/1 149/3/1
f 151/3/1 144/3/1 143/3/1
f 152/3/1 144/3/1 151/3/1
f 153/3/1 146/3/1 145/3/1
f 154/3/1 146/3/1 153/3/1
f 155/3/1 148/3/1 147/3/1
f 156/3/1 148/3/1 155/3/1
f 157/3/2 158/3/2 163/3/2
f 163/3/2 158/3/2 164/3/2
f 159/3/2 160/3/2 165/3/2
f 165/3/2 160/3/2 166/3/2
f 161/3/2 162/3/2 167/3/2
f 167/3/2 162/3/2 168/3/2
f 169/3/2 170/3/2 171/3/2
f 171/3/2 170/3/2 172/3/2
f 173/1/2 174/1/2 179/1/2
f 179/1/2 174/1/2 180/1/2
f 175/1/2 176/1/2 181/1/2
f 181/1/2 176/1/2 182/1/2
f 177/1/2 178/1/2 183/1/2
f 179/3/2 180/3/2 184/3/2
f 184/3/2 180/3/2 185/3/2
f 181/3/2 182/3/2 190/3/2
f 190/3/2 182/3/2 191/3/2
f 177/1/2 183/1/2 192/1/2
f 192/1/2 183/1/2 193/1/2
f 186/3/2 187/3/2 197/3/2
f 197/3/2 187/3/2 198/3/2
f 188/3/2 189/3/2 199/3/2
f 199/3/2 189/3/2 200/3/2
f 192/3/2 193/3/2 201/3/2
f 193/3/2 194/3/2 201/3/2
f 201/3/2 194/3/2 202/3/2
f 195/3/2 196/3/2 203/3/2
f 203/3/2 196/3/2 204/3/2
f 205/1/2 206/1/2 207/1/2
f 207/1/2 206/1/2 208/1/2
f 207/3/2 208/3/2 209/3/2
f 209/3/2 208/3/2 210/3/2
f 211/3/2 212/3/2 213/3/2
f 213/3/2 212/3/2 214/3/2
f 215/1/2 216/1/2 219/1/2
f 219/1/2 216/1/2 220/1/2
f 217/1/2 218/1/2 221/1/2
f 221/1/2 218/1/2 222/1/2
f 219/3/2 220/3/2 223/3/2
f 223/3/2 220/3/2 224/3/2
f 221/3/2 222/3/2 225/3/2
f 225/3/2 222/3/2 226/3/2
f 226/3/2 222/3/2 227/3/2
f 227/3/2 222/3/2 228/3/2
f 226/3/2 227/3/2 229/3/2
f 229/3/2 227/3/2 230/3/2
f 231/1/2 232/1/2 233/1/2
f 233/1/2 232/1/2 234/1/2
f 233/3/2 234/3/2 235/3/2
f 235/3/2 234/3/2 236/3/2
f 236/3/2 234/3/2 237/3/2
f 237/3/2 234/3/2 238/3/2
f 236/3/2 237/3/2 239/3/2
f 239/3/2 237/3/2 240/3/2
f 241/2/2 242/2/2 245/2/2
f 245/2/2 242/2/2 246/2/2
f 243/2/2 244/2/2 247/2/2
f 247/2/2 244/2/2 248/2/2
f 246/2/2 247/2/2 249/2/2
f 249/2/2 247/2/2 250/2/2
f 253/3/2 254/3/2 255/3/2
f 255/3/2 254/3/2 256/3/2
f 251/1/2 252/1/2 257/1/2
f 257/1/2 252/1/2 258/1/2
f 257/2/2 258/2/2 259/2/2
f 259/2/2 258/2/2 260/2/2
f 260/2/2 258/2/2 261/2/2
f 261/2/2 258/2/2 262/2/2
f 260/2/2 261/2/2 263/2/2
f 263/2/2 261/2/2 264/2/2
f 267/1/2 268/1/2 269/1/2
f 269/1/2 268/1/2 270/1/2
f 265/1/2 266/1/2 271/1/2
f 271/1/2 266/1/2 272/1/2
f 269/3/2 270/3/2 273/3/2
f 273/3/2 270/3/2 274/3/2
f 274/3/2 270/3/2 275/3/2
f 275/3/2 270/3/2 276/3/2
f 271/3/2 272/3/2 277/3/2
f 277/3/2 272/3/2 278/3/2
f 274/3/2 275/3/2 279/3/2
f 279/3/2 275/3/2 280/3/2
f 281/3/2 282/3/2 283/3/2
f 283/3/2 282/3/2 284/3/2
f 285/1/2 286/1/2 287/1/2
f 287/1/2 286/1/2 288/1/2
f 287/3/2 288/3/2 295/3/2
f 295/3/2 288/3/2 296/3/2
f 289/3/2 290/3/2 297/3/2
f 297/3/2 290/3/2 298/3/2
f 291/3/2 292/3/2 299/3/2
f 299/3/2 292/3/2 300/3/2
f 293/3/2 294/3/2 301/3/2
f 301/3/2 294/3/2 302/3/2
f 303/1/2 304/1/2 307/1/2
f 307/1/2 304/1/2 308/1/2
f 305/1/2 306/1/2 309/1/2
f 309/1/2 306/1/2 310/1/2
f 307/3/2 308/3/2 311/3/2
f 311/3/2 308/3/2 312/3/2
f 312/3/2 308/3/2 313/3/2
f 313/3/2 308/3/2 314/3/2
f 309/3/2 310/3/2 315/3/2
f 315/3/2 310/3/2 316/3/2
f 312/3/2 313/3/2 317/3/2
f 317/3/2 313/3/2 318/3/2
f 322/3/3 321/3/3 320/3/3
f 324/3/3 322/3/3 320/3/3
f 324/3/3 323/3/3 322/3/3
f 325/3/3 323/3/3 324/3/3
f 326/1/3 320/1/3 319/1/3
f 327/3/3 324/3/3 320/3/3
f 327/1/3 320/1/3 326/1/3
f 328/3/3 324/3/3 327/3/3
f 332/1/3 330/1/3 329/1/3
f 332/3/3 331/3/3 330/3/3
f 333/3/3 331/3/3 332/3/3
f 335/3/3 334/3/3 333/3/3
f 337/3/3 335/3/3 333/3/3
f 337/3/3 336/3/3 335/3/3
f 338/3/3 336/3/3 337/3/3
f 339/1/3 332/1/3 329/1/3
f 339/1/3 333/1/3 332/1/3
f 340/3/3 337/3/3 333/3/3
f 340/1/3 333/1/3 339/1/3
f 341/3/3 337/3/3 340/3/3
f 345/1/3 343/1/3 342/1/3
f 346/3/3 344/3/3 343/3/3
f 346/1/3 343/1/3 345/1/3
f 347/3/3 344/3/3 346/3/3
f 350/3/3 349/3/3 348/3/3
f 351/3/3 349/3/3 350/3/3
f 355/3/3 354/3/3 353/3/3
f 357/3/3 355/3/3 353/3/3
f 357/3/3 356/3/3 355/3/3
f 358/3/3 356/3/3 357/3/3
f 359/1/3 353/1/3 352/1/3
f 360/3/3 357/3/3 353/3/3
f 360/1/3 353/1/3 359/1/3
f 361/3/3 357/3/3 360/3/3
f 364/3/3 363/3/3 362/3/3
f 365/3/3 363/3/3 364/3/3
f 368/3/3 367/3/3 366/3/3
f 369/3/3 367/3/3 368/3/3
f 372/3/3 371/3/3 370/3/3
f 373/3/3 371/3/3 372/3/3
f 377/3/3 376/3/3 375/3/3
f 379/3/3 377/3/3 375/3/3
f 379/3/3 378/3/3 377/3/3
f 380/3/3 378/3/3 379/3/3
f 381/1/3 375/1/3 374/1/3
f 382/3/3 379/3/3 375/3/3
f 382/1/3 375/1/3 381/1/3
f 383/3/3 379/3/3 382/3/3
f 386/3/3 385/3/3 384/3/3
f 387/3/3 385/3/3 386/3/3
f 390/3/3 389/3/3 388/3/3
f 391/3/3 389/3/3 390/3/3
f 395/2/3 394/2/3 393/2/3
f 397/2/3 395/2/3 393/2/3
f 397/2/3 396/2/3 395/2/3
f 398/2/3 396/2/3 397/2/3
f 399/1/3 393/1/3 392/1/3
f 400/2/3 397/2/3 393/2/3
f 400/1/3 393/1/3 399/1/3
f 401/2/3 397/2/3 400/2/3
f 404/2/3 403/2/3 402/2/3
f 405/2/3 403/2/3 404/2/3
f 408/2/3 406/2/3 405/2/3
f 409/2/3 406/2/3 408/2/3
f 410/2/3 408/2/3 407/2/3
f 411/2/3 408/2/3 410/2/3
f 415/3/3 414/3/3 413/3/3
f 417/3/3 415/3/3 413/3/3
f 417/3/3 416/3/3 415/3/3
f 418/3/3 416/3/3 417/3/3
f 419/1/3 413/1/3 412/1/3
f 420/3/3 417/3/3 413/3/3
f 420/1/3 413/1/3 419/1/3
f 421/3/3 417/3/3 420/3/3
f 425/1/3 423/1/3 422/1/3
f 426/3/3 424/3/3 423/3/3
f 426/1/3 423/1/3 425/1/3
f 427/3/3 424/3/3 426/3/3
f 431/3/3 430/3/3 429/3/3
f 433/3/3 431/3/3 429/3/3
f 433/3/3 432/3/3 431/3/3
f 434/3/3 432/3/3 433/3/3
f 435/1/3 429/1/3 428/1/3
f 436/3/3 433/3/3 429/3/3
f 436/1/3 429/1/3 435/1/3
f 437/3/3 433/3/3 436/3/3
f 440/3/3 439/3/3 438/3/3
f 441/3/3 439/3/3 440/3/3
f 445/3/3 444/3/3 443/3/3
f 447/3/3 445/3/3 443/3/3
f 447/3/3 446/3/3 445/3/3
f 448/3/3 446/3/3 447/3/3
f 449/1/3 443/1/3 442/1/3
f 450/3/3 447/3/3 443/3/3
f 450/1/3 443/1/3 449/1/3
f 451/3/3 447/3/3 450/3/3
f 455/3/3 454/3/3 453/3/3
f 457/3/3 455/3/3 453/3/3
f 457/3/3 456/3/3 455/3/3
f 458/3/3 456/3/3 457/3/3
f 459/1/3 453/1/3 452/1/3
f 460/3/3 457/3/3 453/3/3
f 460/1/3 453/1/3 459/1/3
f 461/3/3 457/3/3 460/3/3
f 465/1/3 463/1/3 462/1/3
f 466/3/3 464/3/3 463/3/3
f 466/1/3 463/1/3 465/1/3
f 467/3/3 464/3/3 466/3/3
f 471/1/3 469/1/3 468/1/3
f 472/3/3 470/3/3 469/3/3
f 472/1/3 469/1/3 471/1/3
f 473/3/3 470/3/3 472/3/3
f 476/3/3 475/3/3 474/3/3
f 477/3/3 475/3/3 476/3/3
f 480/3/3 479/3/3 478/3/3
f 481/3/3 479/3/3 480/3/3
f 482/3/4 483/3/4 484/3/4
f 484/3/4 483/3/4 485/3/4
f 486/3/4 487/3/4 488/3/4
f 488/3/4 487/3/4 489/3/4
f 490/1/4 491/1/4 493/1/4
f 491/3/4 492/3/4 494/3/4
f 493/1/4 491/1/4 494/1/4
f 494/3/4 492/3/4 495/3/4
f 496/3/4 497/3/4 498/3/4
f 498/3/4 497/3/4 499/3/4
f 501/3/4 502/3/4 503/3/4
f 501/3/4 503/3/4 505/3/4
f 503/3/4 504/3/4 505/3/4
f 505/3/4 504/3/4 506/3/4
f 500/1/4 501/1/4 507/1/4
f 501/3/4 505/3/4 508/3/4
f 507/1/4 501/1/4 508/1/4
f 508/3/4 505/3/4 509/3/4
f 510/3/4 511/3/4 512/3/4
f 512/3/4 511/3/4 513/3/4
f 515/3/4 516/3/4 517/3/4
f 515/3/4 517/3/4 519/3/4
f 517/3/4 518/3/4 519/3/4
f 519/3/4 518/3/4 520/3/4
f 514/1/4 515/1/4 521/1/4
f 515/3/4 519/3/4 522/3/4
f 521/1/4 515/1/4 522/1/4
f 522/3/4 519/3/4 523/3/4
f 525/3/4 526/3/4 527/3/4
f 525/3/4 527/3/4 529/3/4
f 527/3/4 528/3/4 529/3/4
f 529/3/4 528/3/4 530/3/4
f 524/1/4 525/1/4 531/1/4
f 525/3/4 529/3/4 532/3/4
f 531/1/4 525/1/4 532/1/4
f 532/3/4 529/3/4 533/3/4
f 534/3/4 535/3/4 536/3/4
f 536/3/4 535/3/4 537/3/4
f 538/3/4 539/3/4 540/3/4
f 540/3/4 539/3/4 541/3/4
f 542/1/4 543/1/4 545/1/4
f 543/3/4 544/3/4 546/3/4
f 545/1/4 543/1/4 546/1/4
f 546/3/4 544/3/4 547/3/4
f 548/2/4 549/2/4 550/2/4
f 550/2/4 549/2/4 551/2/4
f 551/2/4 552/2/4 554/2/4
f 554/2/4 552/2/4 555/2/4
f 553/2/4 554/2/4 556/2/4
f 556/2/4 554/2/4 557/2/4
f 559/2/4 560/2/4 561/2/4
f 559/2/4 561/2/4 563/2/4
f 561/2/4 562/2/4 563/2/4
f 563/2/4 562/2/4 564/2/4
f 558/1/4 559/1/4 565/1/4
f 559/2/4 563/2/4 566/2/4
f 565/1/4 559/1/4 566/1/4
f 566/2/4 563/2/4 567/2/4
f 569/3/4 570/3/4 571/3/4
f 569/3/4 571/3/4 573/3/4
f 571/3/4 572/3/4 573/3/4
f 573/3/4 572/3/4 574/3/4
f 568/1/4 569/1/4 575/1/4
f 569/3/4 573/3/4 576/3/4
f 575/1/4 569/1/4 576/1/4
f 576/3/4 573/3/4 577/3/4
f 578/3/4 579/3/4 580/3/4
f 580/3/4 579/3/4 581/3/4
f 583/3/4 584/3/4 585/3/4
f 583/3/4 585/3/4 587/3/4
f 585/3/4 586/3/4 587/3/4
f 587/3/4 586/3/4 588/3/4
f 582/1/4 583/1/4 589/1/4
f 583/3/4 587/3/4 590/3/4
f 589/1/4 583/1/4 590/1/4
f 590/3/4 587/3/4 591/3/4
f 593/3/4 594/3/4 595/3/4
f 593/3/4 595/3/4 597/3/4
f 595/3/4 596/3/4 597/3/4
f 597/3/4 596/3/4 598/3/4
f 592/1/4 593/1/4 599/1/4
f 593/3/4 597/3/4 600/3/4
f 599/1/4 593/1/4 600/1/4
f 600/3/4 597/3/4 601/3/4
f 602/3/4 603/3/4 604/3/4
f 604/3/4 603/3/4 605/3/4
f 606/3/4 607/3/4 608/3/4
f 608/3/4 607/3/4 609/3/4
f 610/1/4 611/1/4 613/1/4
f 611/3/4 612/3/4 614/3/4
f 613/1/4 611/1/4 614/1/4
f 614/3/4 612/3/4 615/3/4
f 617/3/4 618/3/4 619/3/4
f 617/3/4 619/3/4 621/3/4
f 619/3/4 620/3/4 621/3/4
f 621/3/4 620/3/4 622/3/4
f 616/1/4 617/1/4 623/1/4
f 617/3/4 621/3/4 624/3/4
f 623/1/4 617/1/4 624/1/4
f 624/3/4 621/3/4 625/3/4
f 616/1/4 623/1/4 626/1/4
f 623/3/4 624/3/4 627/3/4
f 626/1/4 623/1/4 627/1/4
f 627/3/4 624/3/4 628/3/4
f 630/3/4 631/3/4 632/3/4
f 630/3/4 632/3/4 634/3/4
f 632/3/4 633/3/4 634/3/4
f 634/3/4 633/3/4 635/3/4
f 629/1/4 630/1/4 636/1/4
f 630/3/4 634/3/4 637/3/4
f 636/1/4 630/1/4 637/1/4
f 637/3/4 634/3/4 638/3/4
f 643/1/5 640/1/5 639/1/5
f 647/1/5 642/1/5 641/1/5
f 648/1/5 642/1/5 647/1/5
f 649/1/5 643/1/5 639/1/5
f 649/1/5 644/1/5 643/1/5
f 650/1/5 644/1/5 649/1/5
f 653/1/5 642/1/5 648/1/5
f 654/1/5 642/1/5 653/1/5
f 655/1/5 646/1/5 645/1/5
f 656/1/5 646/1/5 655/1/5
f 661/1/5 652/1/5 651/1/5
f 662/1/5 652/1/5 661/1/5
f 663/1/5 658/1/5 657/1/5
f 664/1/5 658/1/5 663/1/5
f 665/1/5 661/1/5 651/1/5
f 666/1/5 661/1/5 665/1/5
f 668/1/5 660/1/5 659/1/5
f 671/1/5 668/1/5 667/1/5
f 672/1/5 660/1/5 668/1/5
f 672/1/5 668/1/5 671/1/5
f 673/1/5 670/1/5 669/1/5
f 674/1/5 670/1/5 673/1/5
f 681/1/5 678/1/5 677/1/5
f 683/1/5 680/1/5 679/1/5
f 684/1/5 680/1/5 683/1/5
f 685/1/5 682/1/5 681/1/5
f 685/1/5 681/1/5 677/1/5
f 686/1/5 682/1/5 685/1/5
f 687/1/5 676/1/5 675/1/5
f 688/1/5 676/1/5 687/1/5
f 691/3/6 692/3/6 695/3/6
f 693/3/6 694/3/6 697/3/6
f 697/3/6 694/3/6 698/3/6
f 695/3/6 696/3/6 703/3/6
f 691/3/6 695/3/6 703/3/6
f 703/3/6 696/3/6 704/3/6
f 699/3/6 700/3/6 707/3/6
f 707/3/6 700/3/6 708/3/6
f 704/3/6 696/3/6 710/3/6
f 705/3/6 706/3/6 711/3/6
f 711/3/6 706/3/6 712/3/6
f 701/3/6 702/3/6 715/3/6
f 715/3/6 702/3/6 716/3/6
f 689/3/6 690/3/6 717/3/6
f 717/3/6 690/3/6 718/3/6
f 709/3/6 710/3/6 719/3/6
f 710/3/6 696/3/6 720/3/6
f 719/3/6 710/3/6 720/3/6
f 713/3/6 714/3/6 727/3/6
f 727/3/6 714/3/6 728/3/6
f 721/3/6 722/3/6 729/3/6
f 729/3/6 722/3/6 730/3/6
f 723/3/6 724/3/6 731/3/6
f 731/3/6 724/3/6 732/3/6
f 725/3/6 726/3/6 733/3/6
f 733/3/6 726/3/6 734/3/6
f 737/3/6 738/3/6 743/3/6
f 743/3/6 738/3/6 744/3/6
f 735/3/6 736/3/6 745/3/6
f 745/3/6 736/3/6 746/3/6
f 737/3/6 743/3/6 747/3/6
f 747/3/6 743/3/6 748/3/6
f 739/3/6 740/3/6 750/3/6
f 749/3/6 750/3/6 755/3/6
f 750/3/6 740/3/6 756/3/6
f 755/3/6 750/3/6 756/3/6
f 757/3/6 758/3/6 759/3/6
f 759/3/6 758/3/6 760/3/6
f 741/3/6 742/3/6 761/3/6
f 761/3/6 742/3/6 762/3/6
f 751/3/6 752/3/6 763/3/6
f 763/3/6 752/3/6 764/3/6
f 753/3/6 754/3/6 765/3/6
f 765/3/6 754/3/6 766/3/6
f 771/3/6 772/3/6 775/3/6
f 775/3/6 772/3/6 776/3/6
f 773/3/6 774/3/6 777/3/6
f 777/3/6 774/3/6 778/3/6
f 779/3/6 780/3/6 783/3/6
f 783/3/6 780/3/6 784/3/6
f 781/3/6 782/3/6 785/3/6
f 785/3/6 782/3/6 786/3/6
f 767/3/6 768/3/6 787/3/6
f 787/3/6 768/3/6 788/3/6
f 769/3/6 770/3/6 789/3/6
f 789/3/6 770/3/6 790/3/6
f 793/3/6 794/3/6 798/3/6
f 791/3/6 792/3/6 801/3/6
f 797/3/6 798/3/6 803/3/6
f 798/3/6 794/3/6 804/3/6
f 803/3/6 798/3/6 804/3/6
f 799/3/6 800/3/6 806/3/6
f 801/3/6 802/3/6 807/3/6
f 791/3/6 801/3/6 807/3/6
f 807/3/6 802/3/6 808/3/6
f 805/3/6 806/3/6 809/3/6
f 806/3/6 800/3/6 810/3/6
f 809/3/6 806/3/6 810/3/6
f 810/3/6 800/3/6 811/3/6
f 791/3/6 807/3/6 813/3/6
f 813/3/6 807/3/6 814/3/6
f 811/3/6 812/3/6 815/3/6
f 810/3/6 811/3/6 815/3/6
f 815/3/6 812/3/6 816/3/6
f 804/3/6 794/3/6 819/3/6
f 819/3/6 794/3/6 820/3/6
f 795/3/6 796/3/6 821/3/6
f 821/3/6 796/3/6 822/3/6
f 810/3/6 815/3/6 823/3/6
f 823/3/6 815/3/6 824/3/6
f 817/3/6 818/3/6 826/3/6
f 826/3/6 818/3/6 827/3/6
f 825/3/6 826/3/6 829/3/6
f 827/3/6 828/3/6 829/3/6
f 826/3/6 827/3/6 829/3/6
f 829/3/6 828/3/6 830/3/6
f 830/3/6 828/3/6 831/3/6
f 831/3/6 828/3/6 832/3/6
f 830/3/6 831/3/6 835/3/6
f 835/3/6 831/3/6 836/3/6
f 833/3/6 834/3/6 840/3/6
f 839/3/6 840/3/6 841/3/6
f 840/3/6 834/3/6 842/3/6
f 841/3/6 840/3/6 842/3/6
f 842/3/6 834/3/6 843/3/6
f 843/3/6 834/3/6 844/3/6
f 837/3/6 838/3/6 845/3/6
f 845/3/6 838/3/6 846/3/6
f 851/3/6 852/3/6 855/3/6
f 853/3/6 854/3/6 857/3/6
f 857/3/6 854/3/6 858/3/6
f 855/3/6 856/3/6 859/3/6
f 851/3/6 855/3/6 859/3/6
f 859/3/6 856/3/6 860/3/6
f 849/3/6 850/3/6 861/3/6
f 861/3/6 850/3/6 862/3/6
f 851/3/6 859/3/6 863/3/6
f 863/3/6 859/3/6 864/3/6
f 847/3/6 848/3/6 865/3/6
f 865/3/6 848/3/6 866/3/6
f 867/3/6 868/3/6 869/3/6
f 869/3/6 868/3/6 870/3/6
f 871/3/6 872/3/6 873/3/6
f 873/3/6 872/3/6 874/3/6
f 875/2/6 876/2/6 879/2/6
f 879/2/6 876/2/6 880/2/6
f 877/2/6 878/2/6 881/2/6
f 881/2/6 878/2/6 882/2/6
f 883/2/6 884/2/6 887/2/6
f 887/2/6 884/2/6 888/2/6
f 885/2/6 886/2/6 889/2/6
f 889/2/6 886/2/6 890/2/6
f 891/2/6 892/2/6 894/2/6
f 894/2/6 892/2/6 895/2/6
f 893/2/6 894/2/6 897/2/6
f 897/2/6 894/2/6 898/2/6
f 895/2/6 896/2/6 899/2/6
f 899/2/6 896/2/6 900/2/6
f 898/2/6 899/2/6 901/2/6
f 901/2/6 899/2/6 902/2/6
f 903/2/6 904/2/6 905/2/6
f 905/2/6 904/2/6 906/2/6
