# MagicaVoxel @ Ephtracy

# group
o 

# material
mtllib corner_city_plus.mtl
usemtl palette

# normals
vn -1 0 0
vn 1 0 0
vn 0 0 1
vn 0 0 -1
vn 0 -1 0
vn 0 1 0

# texcoords
vt 0.0371094 0.5
vt 0.373047 0.5
vt 0.830078 0.5
vt 0.849609 0.5

# verts
v -3.2 0 -3.1
v -3.2 0 -3.2
v -3.2 0.1 -3.1
v -3.2 0.1 -3.2
v -3.1 0 -3
v -3.1 0 -3.1
v -3.1 0.1 -3
v -3.1 0.1 -3.1
v -3 0 -2.9
v -3 0 -3
v -3 0.1 -2.9
v -3 0.1 -3
v -2.9 0 -2.8
v -2.9 0 -2.9
v -2.9 0.1 -2.9
v -2.9 0.2 -2.8
v -2.9 0.2 -2.9
v -2.8 0.1 -2.9
v -2.8 0.1 -3
v -2.8 0.2 -2.9
v -2.8 0.2 -3
v -2.7 0.1 -3
v -2.7 0.1 -3.2
v -2.7 0.2 -3
v -2.7 0.2 -3.2
v -2.5 0 -2.6
v -2.5 0 -3.1
v -2.5 0.1 -2.6
v -2.5 0.1 -3.1
v -2.5 0.2 -2.6
v -2.5 0.2 -3.1
v -2.4 0.2 -2.6
v -2.4 0.2 -3.1
v -2.4 0.3 -2.6
v -2.4 0.3 -3.1
v -2.1 0 -2.3
v -2.1 0 -2.6
v -2.1 0.5 -2.3
v -2.1 0.5 -2.6
v -2.1 0.6 -2.3
v -2.1 0.6 -2.4
v -2.1 0.6 -2.5
v -2.1 0.6 -2.6
v -2.1 0.7 -2.4
v -2.1 0.7 -2.5
v -2 0.6 -2.3
v -2 0.6 -2.4
v -2 0.6 -2.5
v -2 0.6 -2.6
v -2 0.7 -2.3
v -2 0.7 -2.4
v -2 0.7 -2.5
v -2 0.7 -2.6
v -2 0.8 -2.4
v -2 0.8 -2.5
v -1.7 0 -1.9
v -1.7 0 -2.2
v -1.7 0.1 -1.9
v -1.7 0.1 -2.2
v -1.7 0.2 -1.9
v -1.7 0.2 -2
v -1.7 0.2 -2.1
v -1.7 0.2 -2.2
v -1.7 0.3 -2
v -1.7 0.3 -2.1
v -1.5 0 -2.8
v -1.5 0 -3.1
v -1.5 0.1 -2.8
v -1.5 0.1 -3.1
v -1.5 0.2 -2.8
v -1.5 0.2 -2.9
v -1.5 0.2 -3
v -1.5 0.2 -3.1
v -1.5 0.3 -2.9
v -1.5 0.3 -3
v -1.4 0 -1.4
v -1.4 0 -1.7
v -1.4 0 -2.2
v -1.4 0 -2.5
v -1.4 0.1 -1.4
v -1.4 0.1 -1.7
v -1.4 0.1 -2.2
v -1.4 0.1 -2.5
v -1.4 0.2 -1.4
v -1.4 0.2 -1.5
v -1.4 0.2 -1.6
v -1.4 0.2 -1.7
v -1.4 0.2 -2.2
v -1.4 0.2 -2.5
v -1.4 0.3 -1.5
v -1.4 0.3 -1.6
v -1.3 0 -1.2
v -1.3 0 -1.4
v -1.3 0 -2.7
v -1.3 0 -2.8
v -1.3 0.1 -1.2
v -1.3 0.1 -1.4
v -1.3 0.1 -2.7
v -1.3 0.1 -2.8
v -1.3 0.2 -1.2
v -1.3 0.2 -1.4
v -1.3 0.2 -1.9
v -1.3 0.2 -2
v -1.3 0.2 -2.1
v -1.3 0.2 -2.5
v -1.3 0.2 -2.7
v -1.3 0.2 -2.8
v -1.3 0.3 -1.9
v -1.3 0.3 -2
v -1.3 0.3 -2.1
v -1.3 0.3 -2.5
v -1.2 0.2 -1.2
v -1.2 0.2 -1.5
v -1.2 0.2 -1.6
v -1.2 0.2 -1.7
v -1.2 0.2 -2.7
v -1.2 0.2 -2.9
v -1.2 0.2 -3
v -1.2 0.2 -3.1
v -1.2 0.3 -1.2
v -1.2 0.3 -1.5
v -1.2 0.3 -1.6
v -1.2 0.3 -1.7
v -1.2 0.3 -2.7
v -1.2 0.3 -2.9
v -1.2 0.3 -3
v -1.2 0.3 -3.1
v -2.8 0 -2.8
v -2.8 0 -2.9
v -2.8 0.2 -2.8
v -2.8 0.2 -2.9
v -2.7 0 -2.9
v -2.7 0 -3
v -2.7 0.2 -2.9
v -2.7 0.2 -3
v -2.6 0 -3
v -2.6 0 -3.2
v -2.6 0.2 -3
v -2.6 0.2 -3.2
v -2.3 0.2 -2.6
v -2.3 0.2 -3.1
v -2.3 0.3 -2.6
v -2.3 0.3 -3.1
v -2.2 0 -2.6
v -2.2 0 -3.1
v -2.2 0.1 -2.6
v -2.2 0.1 -3.1
v -2.2 0.2 -2.6
v -2.2 0.2 -3.1
v -1.9 0.6 -2.3
v -1.9 0.6 -2.4
v -1.9 0.6 -2.5
v -1.9 0.6 -2.6
v -1.9 0.7 -2.3
v -1.9 0.7 -2.4
v -1.9 0.7 -2.5
v -1.9 0.7 -2.6
v -1.9 0.8 -2.4
v -1.9 0.8 -2.5
v -1.8 0 -2.3
v -1.8 0 -2.6
v -1.8 0.5 -2.3
v -1.8 0.5 -2.6
v -1.8 0.6 -2.3
v -1.8 0.6 -2.4
v -1.8 0.6 -2.5
v -1.8 0.6 -2.6
v -1.8 0.7 -2.4
v -1.8 0.7 -2.5
v -1.2 0.2 -1.9
v -1.2 0.2 -2.5
v -1.2 0.3 -1.9
v -1.2 0.3 -2.5
v -1.1 0 -1.9
v -1.1 0 -2.5
v -1.1 0.1 -1.9
v -1.1 0.1 -2.5
v -1.1 0.2 -1.2
v -1.1 0.2 -1.5
v -1.1 0.2 -1.6
v -1.1 0.2 -1.7
v -1.1 0.2 -1.9
v -1.1 0.2 -2.5
v -1.1 0.2 -2.7
v -1.1 0.2 -3.1
v -1.1 0.3 -1.2
v -1.1 0.3 -1.5
v -1.1 0.3 -1.6
v -1.1 0.3 -1.7
v -1.1 0.3 -2.7
v -1.1 0.3 -3.1
v -1 0 -1.2
v -1 0 -1.7
v -1 0 -2.7
v -1 0 -3.1
v -1 0.1 -1.2
v -1 0.1 -1.7
v -1 0.1 -2.7
v -1 0.1 -3.1
v -1 0.2 -1.2
v -1 0.2 -1.5
v -1 0.2 -1.6
v -1 0.2 -1.7
v -1 0.2 -2.7
v -1 0.2 -3.1
v -1 0.3 -1.5
v -1 0.3 -1.6
v -1.3 0 -1.2
v -1.3 0.1 -1.2
v -1.3 0.2 -1.2
v -1.2 0.2 -1.2
v -1.2 0.3 -1.2
v -1.1 0.2 -1.2
v -1.1 0.3 -1.2
v -1 0 -1.2
v -1 0.1 -1.2
v -1 0.2 -1.2
v -1.4 0 -1.4
v -1.4 0.1 -1.4
v -1.4 0.2 -1.4
v -1.3 0 -1.4
v -1.3 0.1 -1.4
v -1.3 0.2 -1.4
v -1.4 0.2 -1.5
v -1.4 0.3 -1.5
v -1.2 0.2 -1.5
v -1.2 0.3 -1.5
v -1.1 0.2 -1.5
v -1.1 0.3 -1.5
v -1 0.2 -1.5
v -1 0.3 -1.5
v -1.7 0 -1.9
v -1.7 0.1 -1.9
v -1.7 0.2 -1.9
v -1.3 0.2 -1.9
v -1.3 0.3 -1.9
v -1.2 0.2 -1.9
v -1.2 0.3 -1.9
v -1.1 0 -1.9
v -1.1 0.1 -1.9
v -1.1 0.2 -1.9
v -1.7 0.2 -2
v -1.7 0.3 -2
v -1.3 0.2 -2
v -1.3 0.3 -2
v -2.1 0 -2.3
v -2.1 0.5 -2.3
v -2.1 0.6 -2.3
v -2 0.6 -2.3
v -2 0.7 -2.3
v -1.9 0.6 -2.3
v -1.9 0.7 -2.3
v -1.8 0 -2.3
v -1.8 0.5 -2.3
v -1.8 0.6 -2.3
v -2.1 0.6 -2.4
v -2.1 0.7 -2.4
v -2 0.6 -2.4
v -2 0.7 -2.4
v -2 0.8 -2.4
v -1.9 0.6 -2.4
v -1.9 0.7 -2.4
v -1.9 0.8 -2.4
v -1.8 0.6 -2.4
v -1.8 0.7 -2.4
v -2.5 0 -2.6
v -2.5 0.1 -2.6
v -2.5 0.2 -2.6
v -2.4 0.2 -2.6
v -2.4 0.3 -2.6
v -2.3 0.2 -2.6
v -2.3 0.3 -2.6
v -2.2 0 -2.6
v -2.2 0.1 -2.6
v -2.2 0.2 -2.6
v -1.3 0 -2.7
v -1.3 0.1 -2.7
v -1.3 0.2 -2.7
v -1.2 0.2 -2.7
v -1.2 0.3 -2.7
v -1.1 0.2 -2.7
v -1.1 0.3 -2.7
v -1 0 -2.7
v -1 0.1 -2.7
v -1 0.2 -2.7
v -2.9 0 -2.8
v -2.9 0.2 -2.8
v -2.8 0 -2.8
v -2.8 0.2 -2.8
v -1.5 0 -2.8
v -1.5 0.1 -2.8
v -1.5 0.2 -2.8
v -1.3 0 -2.8
v -1.3 0.1 -2.8
v -1.3 0.2 -2.8
v -3 0 -2.9
v -3 0.1 -2.9
v -2.9 0 -2.9
v -2.9 0.1 -2.9
v -2.8 0 -2.9
v -2.8 0.2 -2.9
v -2.7 0 -2.9
v -2.7 0.2 -2.9
v -1.5 0.2 -2.9
v -1.5 0.3 -2.9
v -1.2 0.2 -2.9
v -1.2 0.3 -2.9
v -3.1 0 -3
v -3.1 0.1 -3
v -3 0 -3
v -3 0.1 -3
v -2.7 0 -3
v -2.7 0.2 -3
v -2.6 0 -3
v -2.6 0.2 -3
v -3.2 0 -3.1
v -3.2 0.1 -3.1
v -3.1 0 -3.1
v -3.1 0.1 -3.1
v -1.4 0.2 -1.6
v -1.4 0.3 -1.6
v -1.2 0.2 -1.6
v -1.2 0.3 -1.6
v -1.1 0.2 -1.6
v -1.1 0.3 -1.6
v -1 0.2 -1.6
v -1 0.3 -1.6
v -1.4 0 -1.7
v -1.4 0.1 -1.7
v -1.4 0.2 -1.7
v -1.2 0.2 -1.7
v -1.2 0.3 -1.7
v -1.1 0.2 -1.7
v -1.1 0.3 -1.7
v -1 0 -1.7
v -1 0.1 -1.7
v -1 0.2 -1.7
v -1.7 0.2 -2.1
v -1.7 0.3 -2.1
v -1.3 0.2 -2.1
v -1.3 0.3 -2.1
v -1.7 0 -2.2
v -1.7 0.1 -2.2
v -1.7 0.2 -2.2
v -1.4 0 -2.2
v -1.4 0.1 -2.2
v -1.4 0.2 -2.2
v -2.1 0.6 -2.5
v -2.1 0.7 -2.5
v -2 0.6 -2.5
v -2 0.7 -2.5
v -2 0.8 -2.5
v -1.9 0.6 -2.5
v -1.9 0.7 -2.5
v -1.9 0.8 -2.5
v -1.8 0.6 -2.5
v -1.8 0.7 -2.5
v -1.4 0 -2.5
v -1.4 0.1 -2.5
v -1.4 0.2 -2.5
v -1.3 0.2 -2.5
v -1.3 0.3 -2.5
v -1.2 0.2 -2.5
v -1.2 0.3 -2.5
v -1.1 0 -2.5
v -1.1 0.1 -2.5
v -1.1 0.2 -2.5
v -2.1 0 -2.6
v -2.1 0.5 -2.6
v -2.1 0.6 -2.6
v -2 0.6 -2.6
v -2 0.7 -2.6
v -1.9 0.6 -2.6
v -1.9 0.7 -2.6
v -1.8 0 -2.6
v -1.8 0.5 -2.6
v -1.8 0.6 -2.6
v -2.9 0.1 -2.9
v -2.9 0.2 -2.9
v -2.8 0.1 -2.9
v -2.8 0.2 -2.9
v -2.8 0.1 -3
v -2.8 0.2 -3
v -2.7 0.1 -3
v -2.7 0.2 -3
v -1.5 0.2 -3
v -1.5 0.3 -3
v -1.2 0.2 -3
v -1.2 0.3 -3
v -2.5 0 -3.1
v -2.5 0.1 -3.1
v -2.5 0.2 -3.1
v -2.4 0.2 -3.1
v -2.4 0.3 -3.1
v -2.3 0.2 -3.1
v -2.3 0.3 -3.1
v -2.2 0 -3.1
v -2.2 0.1 -3.1
v -2.2 0.2 -3.1
v -1.5 0 -3.1
v -1.5 0.1 -3.1
v -1.5 0.2 -3.1
v -1.2 0.2 -3.1
v -1.2 0.3 -3.1
v -1.1 0.2 -3.1
v -1.1 0.3 -3.1
v -1 0 -3.1
v -1 0.1 -3.1
v -1 0.2 -3.1
v -3.2 0 -3.2
v -3.2 0.1 -3.2
v -2.7 0 -3.2
v -2.7 0.1 -3.2
v -2.7 0.2 -3.2
v -2.6 0 -3.2
v -2.6 0.2 -3.2
v -1.3 0 -1.2
v -1 0 -1.2
v -1.4 0 -1.4
v -1.3 0 -1.4
v -1.4 0 -1.7
v -1 0 -1.7
v -1.7 0 -1.9
v -1.1 0 -1.9
v -1.7 0 -2.2
v -1.4 0 -2.2
v -2.1 0 -2.3
v -1.8 0 -2.3
v -1.4 0 -2.5
v -1.1 0 -2.5
v -2.5 0 -2.6
v -2.2 0 -2.6
v -2.1 0 -2.6
v -1.8 0 -2.6
v -1.3 0 -2.7
v -1 0 -2.7
v -2.9 0 -2.8
v -2.8 0 -2.8
v -1.5 0 -2.8
v -1.3 0 -2.8
v -3 0 -2.9
v -2.9 0 -2.9
v -2.8 0 -2.9
v -2.7 0 -2.9
v -3.1 0 -3
v -3 0 -3
v -2.8 0 -3
v -2.7 0 -3
v -2.6 0 -3
v -3.2 0 -3.1
v -3.1 0 -3.1
v -2.5 0 -3.1
v -2.2 0 -3.1
v -1.5 0 -3.1
v -1 0 -3.1
v -3.2 0 -3.2
v -2.7 0 -3.2
v -2.6 0 -3.2
v -3 0.1 -2.9
v -2.9 0.1 -2.9
v -2.8 0.1 -2.9
v -3.1 0.1 -3
v -3 0.1 -3
v -2.8 0.1 -3
v -2.7 0.1 -3
v -3.2 0.1 -3.1
v -3.1 0.1 -3.1
v -3.2 0.1 -3.2
v -2.7 0.1 -3.2
v -1.3 0.2 -1.2
v -1.2 0.2 -1.2
v -1.1 0.2 -1.2
v -1 0.2 -1.2
v -1.4 0.2 -1.4
v -1.3 0.2 -1.4
v -1.4 0.2 -1.5
v -1.2 0.2 -1.5
v -1.1 0.2 -1.5
v -1 0.2 -1.5
v -1.4 0.2 -1.6
v -1.2 0.2 -1.6
v -1.1 0.2 -1.6
v -1 0.2 -1.6
v -1.4 0.2 -1.7
v -1.2 0.2 -1.7
v -1.1 0.2 -1.7
v -1 0.2 -1.7
v -1.7 0.2 -1.9
v -1.3 0.2 -1.9
v -1.2 0.2 -1.9
v -1.1 0.2 -1.9
v -1.7 0.2 -2
v -1.3 0.2 -2
v -1.7 0.2 -2.1
v -1.3 0.2 -2.1
v -1.7 0.2 -2.2
v -1.4 0.2 -2.2
v -1.4 0.2 -2.5
v -1.3 0.2 -2.5
v -1.2 0.2 -2.5
v -1.1 0.2 -2.5
v -2.5 0.2 -2.6
v -2.4 0.2 -2.6
v -2.3 0.2 -2.6
v -2.2 0.2 -2.6
v -1.3 0.2 -2.7
v -1.2 0.2 -2.7
v -1.1 0.2 -2.7
v -1 0.2 -2.7
v -2.9 0.2 -2.8
v -2.8 0.2 -2.8
v -1.5 0.2 -2.8
v -1.3 0.2 -2.8
v -2.9 0.2 -2.9
v -2.8 0.2 -2.9
v -2.7 0.2 -2.9
v -1.5 0.2 -2.9
v -1.2 0.2 -2.9
v -2.8 0.2 -3
v -2.7 0.2 -3
v -2.6 0.2 -3
v -1.5 0.2 -3
v -1.2 0.2 -3
v -2.5 0.2 -3.1
v -2.4 0.2 -3.1
v -2.3 0.2 -3.1
v -2.2 0.2 -3.1
v -1.5 0.2 -3.1
v -1.2 0.2 -3.1
v -1.1 0.2 -3.1
v -1 0.2 -3.1
v -2.7 0.2 -3.2
v -2.6 0.2 -3.2
v -1.2 0.3 -1.2
v -1.1 0.3 -1.2
v -1.4 0.3 -1.5
v -1.2 0.3 -1.5
v -1.1 0.3 -1.5
v -1 0.3 -1.5
v -1.4 0.3 -1.6
v -1.2 0.3 -1.6
v -1.1 0.3 -1.6
v -1 0.3 -1.6
v -1.2 0.3 -1.7
v -1.1 0.3 -1.7
v -1.3 0.3 -1.9
v -1.2 0.3 -1.9
v -1.7 0.3 -2
v -1.3 0.3 -2
v -1.7 0.3 -2.1
v -1.3 0.3 -2.1
v -1.3 0.3 -2.5
v -1.2 0.3 -2.5
v -2.4 0.3 -2.6
v -2.3 0.3 -2.6
v -1.2 0.3 -2.7
v -1.1 0.3 -2.7
v -1.5 0.3 -2.9
v -1.2 0.3 -2.9
v -1.5 0.3 -3
v -1.2 0.3 -3
v -2.4 0.3 -3.1
v -2.3 0.3 -3.1
v -1.2 0.3 -3.1
v -1.1 0.3 -3.1
v -2.1 0.6 -2.3
v -2 0.6 -2.3
v -1.9 0.6 -2.3
v -1.8 0.6 -2.3
v -2.1 0.6 -2.4
v -2 0.6 -2.4
v -1.9 0.6 -2.4
v -1.8 0.6 -2.4
v -2.1 0.6 -2.5
v -2 0.6 -2.5
v -1.9 0.6 -2.5
v -1.8 0.6 -2.5
v -2.1 0.6 -2.6
v -2 0.6 -2.6
v -1.9 0.6 -2.6
v -1.8 0.6 -2.6
v -2 0.7 -2.3
v -1.9 0.7 -2.3
v -2.1 0.7 -2.4
v -2 0.7 -2.4
v -1.9 0.7 -2.4
v -1.8 0.7 -2.4
v -2.1 0.7 -2.5
v -2 0.7 -2.5
v -1.9 0.7 -2.5
v -1.8 0.7 -2.5
v -2 0.7 -2.6
v -1.9 0.7 -2.6
v -2 0.8 -2.4
v -1.9 0.8 -2.4
v -2 0.8 -2.5
v -1.9 0.8 -2.5

# faces
f 3/1/1 2/1/1 1/1/1
f 4/1/1 2/1/1 3/1/1
f 7/1/1 6/1/1 5/1/1
f 8/1/1 6/1/1 7/1/1
f 11/1/1 10/1/1 9/1/1
f 12/1/1 10/1/1 11/1/1
f 15/2/1 14/2/1 13/2/1
f 16/2/1 15/2/1 13/2/1
f 17/2/1 15/2/1 16/2/1
f 20/2/1 19/2/1 18/2/1
f 21/2/1 19/2/1 20/2/1
f 24/2/1 23/2/1 22/2/1
f 25/2/1 23/2/1 24/2/1
f 28/2/1 27/2/1 26/2/1
f 29/2/1 27/2/1 28/2/1
f 30/4/1 29/4/1 28/4/1
f 31/4/1 29/4/1 30/4/1
f 34/4/1 33/4/1 32/4/1
f 35/4/1 33/4/1 34/4/1
f 38/2/1 37/2/1 36/2/1
f 39/2/1 37/2/1 38/2/1
f 40/3/1 39/3/1 38/3/1
f 41/3/1 39/3/1 40/3/1
f 42/3/1 39/3/1 41/3/1
f 43/3/1 39/3/1 42/3/1
f 44/3/1 42/3/1 41/3/1
f 45/3/1 42/3/1 44/3/1
f 50/3/1 47/3/1 46/3/1
f 51/3/1 47/3/1 50/3/1
f 52/3/1 49/3/1 48/3/1
f 53/3/1 49/3/1 52/3/1
f 54/3/1 52/3/1 51/3/1
f 55/3/1 52/3/1 54/3/1
f 58/2/1 57/2/1 56/2/1
f 59/2/1 57/2/1 58/2/1
f 60/4/1 59/4/1 58/4/1
f 61/4/1 59/4/1 60/4/1
f 62/4/1 59/4/1 61/4/1
f 63/4/1 59/4/1 62/4/1
f 64/4/1 62/4/1 61/4/1
f 65/4/1 62/4/1 64/4/1
f 68/2/1 67/2/1 66/2/1
f 69/2/1 67/2/1 68/2/1
f 70/4/1 69/4/1 68/4/1
f 71/4/1 69/4/1 70/4/1
f 72/4/1 69/4/1 71/4/1
f 73/4/1 69/4/1 72/4/1
f 74/4/1 72/4/1 71/4/1
f 75/4/1 72/4/1 74/4/1
f 80/2/1 77/2/1 76/2/1
f 81/2/1 77/2/1 80/2/1
f 82/2/1 79/2/1 78/2/1
f 83/2/1 79/2/1 82/2/1
f 84/4/1 81/4/1 80/4/1
f 85/4/1 81/4/1 84/4/1
f 86/4/1 81/4/1 85/4/1
f 87/4/1 81/4/1 86/4/1
f 88/4/1 83/4/1 82/4/1
f 89/4/1 83/4/1 88/4/1
f 90/4/1 86/4/1 85/4/1
f 91/4/1 86/4/1 90/4/1
f 96/2/1 93/2/1 92/2/1
f 97/2/1 93/2/1 96/2/1
f 98/2/1 95/2/1 94/2/1
f 99/2/1 95/2/1 98/2/1
f 100/4/1 97/4/1 96/4/1
f 101/4/1 97/4/1 100/4/1
f 106/4/1 99/4/1 98/4/1
f 107/4/1 99/4/1 106/4/1
f 108/4/1 103/4/1 102/4/1
f 109/4/1 103/4/1 108/4/1
f 110/4/1 105/4/1 104/4/1
f 111/4/1 105/4/1 110/4/1
f 120/4/1 113/4/1 112/4/1
f 121/4/1 113/4/1 120/4/1
f 122/4/1 115/4/1 114/4/1
f 123/4/1 115/4/1 122/4/1
f 124/4/1 117/4/1 116/4/1
f 125/4/1 117/4/1 124/4/1
f 126/4/1 119/4/1 118/4/1
f 127/4/1 119/4/1 126/4/1
f 128/2/2 129/2/2 130/2/2
f 130/2/2 129/2/2 131/2/2
f 132/2/2 133/2/2 134/2/2
f 134/2/2 133/2/2 135/2/2
f 136/2/2 137/2/2 138/2/2
f 138/2/2 137/2/2 139/2/2
f 140/4/2 141/4/2 142/4/2
f 142/4/2 141/4/2 143/4/2
f 144/2/2 145/2/2 146/2/2
f 146/2/2 145/2/2 147/2/2
f 146/4/2 147/4/2 148/4/2
f 148/4/2 147/4/2 149/4/2
f 150/3/2 151/3/2 154/3/2
f 154/3/2 151/3/2 155/3/2
f 152/3/2 153/3/2 156/3/2
f 156/3/2 153/3/2 157/3/2
f 155/3/2 156/3/2 158/3/2
f 158/3/2 156/3/2 159/3/2
f 160/2/2 161/2/2 162/2/2
f 162/2/2 161/2/2 163/2/2
f 162/3/2 163/3/2 164/3/2
f 164/3/2 163/3/2 165/3/2
f 165/3/2 163/3/2 166/3/2
f 166/3/2 163/3/2 167/3/2
f 165/3/2 166/3/2 168/3/2
f 168/3/2 166/3/2 169/3/2
f 170/4/2 171/4/2 172/4/2
f 172/4/2 171/4/2 173/4/2
f 174/2/2 175/2/2 176/2/2
f 176/2/2 175/2/2 177/2/2
f 176/4/2 177/4/2 182/4/2
f 182/4/2 177/4/2 183/4/2
f 178/4/2 179/4/2 186/4/2
f 186/4/2 179/4/2 187/4/2
f 180/4/2 181/4/2 188/4/2
f 188/4/2 181/4/2 189/4/2
f 184/4/2 185/4/2 190/4/2
f 190/4/2 185/4/2 191/4/2
f 192/2/2 193/2/2 196/2/2
f 196/2/2 193/2/2 197/2/2
f 194/2/2 195/2/2 198/2/2
f 198/2/2 195/2/2 199/2/2
f 196/4/2 197/4/2 200/4/2
f 200/4/2 197/4/2 201/4/2
f 201/4/2 197/4/2 202/4/2
f 202/4/2 197/4/2 203/4/2
f 198/4/2 199/4/2 204/4/2
f 204/4/2 199/4/2 205/4/2
f 201/4/2 202/4/2 206/4/2
f 206/4/2 202/4/2 207/4/2
f 211/4/3 210/4/3 209/4/3
f 213/4/3 211/4/3 209/4/3
f 213/4/3 212/4/3 211/4/3
f 214/4/3 212/4/3 213/4/3
f 215/2/3 209/2/3 208/2/3
f 216/4/3 213/4/3 209/4/3
f 216/2/3 209/2/3 215/2/3
f 217/4/3 213/4/3 216/4/3
f 221/2/3 219/2/3 218/2/3
f 222/4/3 220/4/3 219/4/3
f 222/2/3 219/2/3 221/2/3
f 223/4/3 220/4/3 222/4/3
f 226/4/3 225/4/3 224/4/3
f 227/4/3 225/4/3 226/4/3
f 230/4/3 229/4/3 228/4/3
f 231/4/3 229/4/3 230/4/3
f 235/4/3 234/4/3 233/4/3
f 237/4/3 235/4/3 233/4/3
f 237/4/3 236/4/3 235/4/3
f 238/4/3 236/4/3 237/4/3
f 239/2/3 233/2/3 232/2/3
f 240/4/3 237/4/3 233/4/3
f 240/2/3 233/2/3 239/2/3
f 241/4/3 237/4/3 240/4/3
f 244/4/3 243/4/3 242/4/3
f 245/4/3 243/4/3 244/4/3
f 249/3/3 248/3/3 247/3/3
f 251/3/3 249/3/3 247/3/3
f 251/3/3 250/3/3 249/3/3
f 252/3/3 250/3/3 251/3/3
f 253/2/3 247/2/3 246/2/3
f 254/3/3 251/3/3 247/3/3
f 254/2/3 247/2/3 253/2/3
f 255/3/3 251/3/3 254/3/3
f 258/3/3 257/3/3 256/3/3
f 259/3/3 257/3/3 258/3/3
f 262/3/3 260/3/3 259/3/3
f 263/3/3 260/3/3 262/3/3
f 264/3/3 262/3/3 261/3/3
f 265/3/3 262/3/3 264/3/3
f 269/4/3 268/4/3 267/4/3
f 271/4/3 269/4/3 267/4/3
f 271/4/3 270/4/3 269/4/3
f 272/4/3 270/4/3 271/4/3
f 273/2/3 267/2/3 266/2/3
f 274/4/3 271/4/3 267/4/3
f 274/2/3 267/2/3 273/2/3
f 275/4/3 271/4/3 274/4/3
f 279/4/3 278/4/3 277/4/3
f 281/4/3 279/4/3 277/4/3
f 281/4/3 280/4/3 279/4/3
f 282/4/3 280/4/3 281/4/3
f 283/2/3 277/2/3 276/2/3
f 284/4/3 281/4/3 277/4/3
f 284/2/3 277/2/3 283/2/3
f 285/4/3 281/4/3 284/4/3
f 288/2/3 287/2/3 286/2/3
f 289/2/3 287/2/3 288/2/3
f 293/2/3 291/2/3 290/2/3
f 294/4/3 292/4/3 291/4/3
f 294/2/3 291/2/3 293/2/3
f 295/4/3 292/4/3 294/4/3
f 298/1/3 297/1/3 296/1/3
f 299/1/3 297/1/3 298/1/3
f 302/2/3 301/2/3 300/2/3
f 303/2/3 301/2/3 302/2/3
f 306/4/3 305/4/3 304/4/3
f 307/4/3 305/4/3 306/4/3
f 310/1/3 309/1/3 308/1/3
f 311/1/3 309/1/3 310/1/3
f 314/2/3 313/2/3 312/2/3
f 315/2/3 313/2/3 314/2/3
f 318/1/3 317/1/3 316/1/3
f 319/1/3 317/1/3 318/1/3
f 320/4/4 321/4/4 322/4/4
f 322/4/4 321/4/4 323/4/4
f 324/4/4 325/4/4 326/4/4
f 326/4/4 325/4/4 327/4/4
f 329/4/4 330/4/4 331/4/4
f 329/4/4 331/4/4 333/4/4
f 331/4/4 332/4/4 333/4/4
f 333/4/4 332/4/4 334/4/4
f 328/2/4 329/2/4 335/2/4
f 329/4/4 333/4/4 336/4/4
f 335/2/4 329/2/4 336/2/4
f 336/4/4 333/4/4 337/4/4
f 338/4/4 339/4/4 340/4/4
f 340/4/4 339/4/4 341/4/4
f 342/2/4 343/2/4 345/2/4
f 343/4/4 344/4/4 346/4/4
f 345/2/4 343/2/4 346/2/4
f 346/4/4 344/4/4 347/4/4
f 348/3/4 349/3/4 350/3/4
f 350/3/4 349/3/4 351/3/4
f 351/3/4 352/3/4 354/3/4
f 354/3/4 352/3/4 355/3/4
f 353/3/4 354/3/4 356/3/4
f 356/3/4 354/3/4 357/3/4
f 359/4/4 360/4/4 361/4/4
f 359/4/4 361/4/4 363/4/4
f 361/4/4 362/4/4 363/4/4
f 363/4/4 362/4/4 364/4/4
f 358/2/4 359/2/4 365/2/4
f 359/4/4 363/4/4 366/4/4
f 365/2/4 359/2/4 366/2/4
f 366/4/4 363/4/4 367/4/4
f 369/3/4 370/3/4 371/3/4
f 369/3/4 371/3/4 373/3/4
f 371/3/4 372/3/4 373/3/4
f 373/3/4 372/3/4 374/3/4
f 368/2/4 369/2/4 375/2/4
f 369/3/4 373/3/4 376/3/4
f 375/2/4 369/2/4 376/2/4
f 376/3/4 373/3/4 377/3/4
f 378/2/4 379/2/4 380/2/4
f 380/2/4 379/2/4 381/2/4
f 382/2/4 383/2/4 384/2/4
f 384/2/4 383/2/4 385/2/4
f 386/4/4 387/4/4 388/4/4
f 388/4/4 387/4/4 389/4/4
f 391/4/4 392/4/4 393/4/4
f 391/4/4 393/4/4 395/4/4
f 393/4/4 394/4/4 395/4/4
f 395/4/4 394/4/4 396/4/4
f 390/2/4 391/2/4 397/2/4
f 391/4/4 395/4/4 398/4/4
f 397/2/4 391/2/4 398/2/4
f 398/4/4 395/4/4 399/4/4
f 401/4/4 402/4/4 403/4/4
f 401/4/4 403/4/4 405/4/4
f 403/4/4 404/4/4 405/4/4
f 405/4/4 404/4/4 406/4/4
f 400/2/4 401/2/4 407/2/4
f 401/4/4 405/4/4 408/4/4
f 407/2/4 401/2/4 408/2/4
f 408/4/4 405/4/4 409/4/4
f 410/1/4 411/1/4 412/1/4
f 412/1/4 411/1/4 413/1/4
f 412/2/4 413/2/4 415/2/4
f 413/2/4 414/2/4 415/2/4
f 415/2/4 414/2/4 416/2/4
f 420/2/5 418/2/5 417/2/5
f 421/2/5 420/2/5 419/2/5
f 422/2/5 418/2/5 420/2/5
f 422/2/5 420/2/5 421/2/5
f 425/2/5 424/2/5 423/2/5
f 426/2/5 424/2/5 425/2/5
f 429/2/5 424/2/5 426/2/5
f 430/2/5 424/2/5 429/2/5
f 433/2/5 428/2/5 427/2/5
f 434/2/5 428/2/5 433/2/5
f 440/2/5 436/2/5 435/2/5
f 442/2/5 438/2/5 437/2/5
f 443/2/5 438/2/5 442/2/5
f 446/1/5 442/1/5 441/1/5
f 446/1/5 443/1/5 442/1/5
f 447/2/5 444/2/5 443/2/5
f 447/1/5 443/1/5 446/1/5
f 448/2/5 444/2/5 447/2/5
f 451/1/5 446/1/5 445/1/5
f 451/1/5 447/1/5 446/1/5
f 451/1/5 448/1/5 447/1/5
f 452/2/5 432/2/5 431/2/5
f 453/2/5 432/2/5 452/2/5
f 454/2/5 440/2/5 439/2/5
f 455/2/5 436/2/5 440/2/5
f 455/2/5 440/2/5 454/2/5
f 456/1/5 451/1/5 450/1/5
f 457/2/5 449/2/5 448/2/5
f 457/1/5 451/1/5 456/1/5
f 457/1/5 448/1/5 451/1/5
f 458/2/5 449/2/5 457/2/5
f 459/1/6 460/1/6 463/1/6
f 460/1/6 461/1/6 463/1/6
f 463/1/6 461/1/6 464/1/6
f 462/1/6 463/1/6 467/1/6
f 464/1/6 465/1/6 467/1/6
f 463/1/6 464/1/6 467/1/6
f 466/1/6 467/1/6 468/1/6
f 467/1/6 465/1/6 469/1/6
f 468/1/6 467/1/6 469/1/6
f 470/4/6 471/4/6 475/4/6
f 474/4/6 475/4/6 476/4/6
f 475/4/6 471/4/6 477/4/6
f 476/4/6 475/4/6 477/4/6
f 472/4/6 473/4/6 478/4/6
f 478/4/6 473/4/6 479/4/6
f 480/4/6 481/4/6 484/4/6
f 484/4/6 481/4/6 485/4/6
f 482/4/6 483/4/6 486/4/6
f 486/4/6 483/4/6 487/4/6
f 488/4/6 489/4/6 492/4/6
f 492/4/6 489/4/6 493/4/6
f 494/4/6 495/4/6 496/4/6
f 496/4/6 495/4/6 497/4/6
f 497/4/6 495/4/6 498/4/6
f 498/4/6 495/4/6 499/4/6
f 490/4/6 491/4/6 500/4/6
f 500/4/6 491/4/6 501/4/6
f 506/4/6 507/4/6 513/4/6
f 510/2/6 511/2/6 514/2/6
f 514/2/6 511/2/6 515/2/6
f 512/4/6 513/4/6 517/4/6
f 513/4/6 507/4/6 518/4/6
f 517/4/6 513/4/6 518/4/6
f 515/2/6 516/2/6 519/2/6
f 519/2/6 516/2/6 520/2/6
f 502/4/6 503/4/6 524/4/6
f 524/4/6 503/4/6 525/4/6
f 504/4/6 505/4/6 526/4/6
f 526/4/6 505/4/6 527/4/6
f 522/4/6 523/4/6 528/4/6
f 528/4/6 523/4/6 529/4/6
f 508/4/6 509/4/6 530/4/6
f 530/4/6 509/4/6 531/4/6
f 520/2/6 521/2/6 532/2/6
f 532/2/6 521/2/6 533/2/6
f 534/4/6 535/4/6 537/4/6
f 537/4/6 535/4/6 538/4/6
f 536/4/6 537/4/6 540/4/6
f 538/4/6 539/4/6 540/4/6
f 537/4/6 538/4/6 540/4/6
f 540/4/6 539/4/6 541/4/6
f 541/4/6 539/4/6 542/4/6
f 542/4/6 539/4/6 543/4/6
f 541/4/6 542/4/6 544/4/6
f 544/4/6 542/4/6 545/4/6
f 546/4/6 547/4/6 549/4/6
f 548/4/6 549/4/6 550/4/6
f 549/4/6 547/4/6 551/4/6
f 550/4/6 549/4/6 551/4/6
f 551/4/6 547/4/6 552/4/6
f 552/4/6 547/4/6 553/4/6
f 556/4/6 557/4/6 559/4/6
f 558/4/6 559/4/6 560/4/6
f 559/4/6 557/4/6 561/4/6
f 560/4/6 559/4/6 561/4/6
f 554/4/6 555/4/6 562/4/6
f 562/4/6 555/4/6 563/4/6
f 561/4/6 557/4/6 564/4/6
f 564/4/6 557/4/6 565/4/6
f 566/3/6 567/3/6 570/3/6
f 570/3/6 567/3/6 571/3/6
f 568/3/6 569/3/6 572/3/6
f 572/3/6 569/3/6 573/3/6
f 574/3/6 575/3/6 578/3/6
f 578/3/6 575/3/6 579/3/6
f 576/3/6 577/3/6 580/3/6
f 580/3/6 577/3/6 581/3/6
f 582/3/6 583/3/6 585/3/6
f 585/3/6 583/3/6 586/3/6
f 584/3/6 585/3/6 588/3/6
f 588/3/6 585/3/6 589/3/6
f 586/3/6 587/3/6 590/3/6
f 590/3/6 587/3/6 591/3/6
f 589/3/6 590/3/6 592/3/6
f 592/3/6 590/3/6 593/3/6
f 594/3/6 595/3/6 596/3/6
f 596/3/6 595/3/6 597/3/6
