# MagicaVoxel @ Ephtracy

# group
o 

# material
mtllib corner_city.mtl
usemtl palette

# normals
vn -1 0 0
vn 1 0 0
vn 0 0 1
vn 0 0 -1
vn 0 -1 0
vn 0 1 0

# texcoords
vt 0.0371094 0.5
vt 0.373047 0.5
vt 0.849609 0.5

# verts
v -3.2 0 -3.1
v -3.2 0 -3.2
v -3.2 0.1 -3.1
v -3.2 0.1 -3.2
v -3.1 0 -3
v -3.1 0 -3.1
v -3.1 0.1 -3
v -3.1 0.1 -3.1
v -3 0 -2.9
v -3 0 -3
v -3 0.1 -2.9
v -3 0.1 -3
v -2.9 0 -2.8
v -2.9 0 -2.9
v -2.9 0.1 -2.9
v -2.9 0.2 -2.8
v -2.9 0.2 -2.9
v -2.8 0.1 -2.9
v -2.8 0.1 -3
v -2.8 0.2 -2.9
v -2.8 0.2 -3
v -2.7 0.1 -3
v -2.7 0.1 -3.2
v -2.7 0.2 -3
v -2.7 0.2 -3.2
v -2.5 0 -2.6
v -2.5 0 -3.1
v -2.5 0.1 -2.6
v -2.5 0.1 -3.1
v -2.5 0.2 -2.6
v -2.5 0.2 -3.1
v -2.4 0.2 -2.6
v -2.4 0.2 -3.1
v -2.4 0.3 -2.6
v -2.4 0.3 -3.1
v -2.1 0 -2.3
v -2.1 0 -2.6
v -2.1 0.1 -2.3
v -2.1 0.1 -2.6
v -2.1 0.2 -2.3
v -2.1 0.2 -2.4
v -2.1 0.2 -2.5
v -2.1 0.2 -2.6
v -2.1 0.3 -2.4
v -2.1 0.3 -2.5
v -1.7 0 -1.9
v -1.7 0 -2.2
v -1.7 0.1 -1.9
v -1.7 0.1 -2.2
v -1.7 0.2 -1.9
v -1.7 0.2 -2
v -1.7 0.2 -2.1
v -1.7 0.2 -2.2
v -1.7 0.3 -2
v -1.7 0.3 -2.1
v -1.5 0 -2.8
v -1.5 0 -3.1
v -1.5 0.1 -2.8
v -1.5 0.1 -3.1
v -1.5 0.2 -2.8
v -1.5 0.2 -2.9
v -1.5 0.2 -3
v -1.5 0.2 -3.1
v -1.5 0.3 -2.9
v -1.5 0.3 -3
v -1.4 0 -1.4
v -1.4 0 -1.7
v -1.4 0 -2.2
v -1.4 0 -2.5
v -1.4 0.1 -1.4
v -1.4 0.1 -1.7
v -1.4 0.1 -2.2
v -1.4 0.1 -2.5
v -1.4 0.2 -1.4
v -1.4 0.2 -1.5
v -1.4 0.2 -1.6
v -1.4 0.2 -1.7
v -1.4 0.2 -2.2
v -1.4 0.2 -2.5
v -1.4 0.3 -1.5
v -1.4 0.3 -1.6
v -1.3 0 -1.2
v -1.3 0 -1.4
v -1.3 0 -2.7
v -1.3 0 -2.8
v -1.3 0.1 -1.2
v -1.3 0.1 -1.4
v -1.3 0.1 -2.7
v -1.3 0.1 -2.8
v -1.3 0.2 -1.2
v -1.3 0.2 -1.4
v -1.3 0.2 -1.9
v -1.3 0.2 -2
v -1.3 0.2 -2.1
v -1.3 0.2 -2.5
v -1.3 0.2 -2.7
v -1.3 0.2 -2.8
v -1.3 0.3 -1.9
v -1.3 0.3 -2
v -1.3 0.3 -2.1
v -1.3 0.3 -2.5
v -1.2 0.2 -1.2
v -1.2 0.2 -1.5
v -1.2 0.2 -1.6
v -1.2 0.2 -1.7
v -1.2 0.2 -2.7
v -1.2 0.2 -2.9
v -1.2 0.2 -3
v -1.2 0.2 -3.1
v -1.2 0.3 -1.2
v -1.2 0.3 -1.5
v -1.2 0.3 -1.6
v -1.2 0.3 -1.7
v -1.2 0.3 -2.7
v -1.2 0.3 -2.9
v -1.2 0.3 -3
v -1.2 0.3 -3.1
v -2.8 0 -2.8
v -2.8 0 -2.9
v -2.8 0.2 -2.8
v -2.8 0.2 -2.9
v -2.7 0 -2.9
v -2.7 0 -3
v -2.7 0.2 -2.9
v -2.7 0.2 -3
v -2.6 0 -3
v -2.6 0 -3.2
v -2.6 0.2 -3
v -2.6 0.2 -3.2
v -2.3 0.2 -2.6
v -2.3 0.2 -3.1
v -2.3 0.3 -2.6
v -2.3 0.3 -3.1
v -2.2 0 -2.6
v -2.2 0 -3.1
v -2.2 0.1 -2.6
v -2.2 0.1 -3.1
v -2.2 0.2 -2.6
v -2.2 0.2 -3.1
v -1.8 0 -2.3
v -1.8 0 -2.6
v -1.8 0.1 -2.3
v -1.8 0.1 -2.6
v -1.8 0.2 -2.3
v -1.8 0.2 -2.4
v -1.8 0.2 -2.5
v -1.8 0.2 -2.6
v -1.8 0.3 -2.4
v -1.8 0.3 -2.5
v -1.2 0.2 -1.9
v -1.2 0.2 -2.5
v -1.2 0.3 -1.9
v -1.2 0.3 -2.5
v -1.1 0 -1.9
v -1.1 0 -2.5
v -1.1 0.1 -1.9
v -1.1 0.1 -2.5
v -1.1 0.2 -1.2
v -1.1 0.2 -1.5
v -1.1 0.2 -1.6
v -1.1 0.2 -1.7
v -1.1 0.2 -1.9
v -1.1 0.2 -2.5
v -1.1 0.2 -2.7
v -1.1 0.2 -3.1
v -1.1 0.3 -1.2
v -1.1 0.3 -1.5
v -1.1 0.3 -1.6
v -1.1 0.3 -1.7
v -1.1 0.3 -2.7
v -1.1 0.3 -3.1
v -1 0 -1.2
v -1 0 -1.7
v -1 0 -2.7
v -1 0 -3.1
v -1 0.1 -1.2
v -1 0.1 -1.7
v -1 0.1 -2.7
v -1 0.1 -3.1
v -1 0.2 -1.2
v -1 0.2 -1.5
v -1 0.2 -1.6
v -1 0.2 -1.7
v -1 0.2 -2.7
v -1 0.2 -3.1
v -1 0.3 -1.5
v -1 0.3 -1.6
v -1.3 0 -1.2
v -1.3 0.1 -1.2
v -1.3 0.2 -1.2
v -1.2 0.2 -1.2
v -1.2 0.3 -1.2
v -1.1 0.2 -1.2
v -1.1 0.3 -1.2
v -1 0 -1.2
v -1 0.1 -1.2
v -1 0.2 -1.2
v -1.4 0 -1.4
v -1.4 0.1 -1.4
v -1.4 0.2 -1.4
v -1.3 0 -1.4
v -1.3 0.1 -1.4
v -1.3 0.2 -1.4
v -1.4 0.2 -1.5
v -1.4 0.3 -1.5
v -1.2 0.2 -1.5
v -1.2 0.3 -1.5
v -1.1 0.2 -1.5
v -1.1 0.3 -1.5
v -1 0.2 -1.5
v -1 0.3 -1.5
v -1.7 0 -1.9
v -1.7 0.1 -1.9
v -1.7 0.2 -1.9
v -1.3 0.2 -1.9
v -1.3 0.3 -1.9
v -1.2 0.2 -1.9
v -1.2 0.3 -1.9
v -1.1 0 -1.9
v -1.1 0.1 -1.9
v -1.1 0.2 -1.9
v -1.7 0.2 -2
v -1.7 0.3 -2
v -1.3 0.2 -2
v -1.3 0.3 -2
v -2.1 0 -2.3
v -2.1 0.1 -2.3
v -2.1 0.2 -2.3
v -1.8 0 -2.3
v -1.8 0.1 -2.3
v -1.8 0.2 -2.3
v -2.1 0.2 -2.4
v -2.1 0.3 -2.4
v -1.8 0.2 -2.4
v -1.8 0.3 -2.4
v -2.5 0 -2.6
v -2.5 0.1 -2.6
v -2.5 0.2 -2.6
v -2.4 0.2 -2.6
v -2.4 0.3 -2.6
v -2.3 0.2 -2.6
v -2.3 0.3 -2.6
v -2.2 0 -2.6
v -2.2 0.1 -2.6
v -2.2 0.2 -2.6
v -1.3 0 -2.7
v -1.3 0.1 -2.7
v -1.3 0.2 -2.7
v -1.2 0.2 -2.7
v -1.2 0.3 -2.7
v -1.1 0.2 -2.7
v -1.1 0.3 -2.7
v -1 0 -2.7
v -1 0.1 -2.7
v -1 0.2 -2.7
v -2.9 0 -2.8
v -2.9 0.2 -2.8
v -2.8 0 -2.8
v -2.8 0.2 -2.8
v -1.5 0 -2.8
v -1.5 0.1 -2.8
v -1.5 0.2 -2.8
v -1.3 0 -2.8
v -1.3 0.1 -2.8
v -1.3 0.2 -2.8
v -3 0 -2.9
v -3 0.1 -2.9
v -2.9 0 -2.9
v -2.9 0.1 -2.9
v -2.8 0 -2.9
v -2.8 0.2 -2.9
v -2.7 0 -2.9
v -2.7 0.2 -2.9
v -1.5 0.2 -2.9
v -1.5 0.3 -2.9
v -1.2 0.2 -2.9
v -1.2 0.3 -2.9
v -3.1 0 -3
v -3.1 0.1 -3
v -3 0 -3
v -3 0.1 -3
v -2.7 0 -3
v -2.7 0.2 -3
v -2.6 0 -3
v -2.6 0.2 -3
v -3.2 0 -3.1
v -3.2 0.1 -3.1
v -3.1 0 -3.1
v -3.1 0.1 -3.1
v -1.4 0.2 -1.6
v -1.4 0.3 -1.6
v -1.2 0.2 -1.6
v -1.2 0.3 -1.6
v -1.1 0.2 -1.6
v -1.1 0.3 -1.6
v -1 0.2 -1.6
v -1 0.3 -1.6
v -1.4 0 -1.7
v -1.4 0.1 -1.7
v -1.4 0.2 -1.7
v -1.2 0.2 -1.7
v -1.2 0.3 -1.7
v -1.1 0.2 -1.7
v -1.1 0.3 -1.7
v -1 0 -1.7
v -1 0.1 -1.7
v -1 0.2 -1.7
v -1.7 0.2 -2.1
v -1.7 0.3 -2.1
v -1.3 0.2 -2.1
v -1.3 0.3 -2.1
v -1.7 0 -2.2
v -1.7 0.1 -2.2
v -1.7 0.2 -2.2
v -1.4 0 -2.2
v -1.4 0.1 -2.2
v -1.4 0.2 -2.2
v -2.1 0.2 -2.5
v -2.1 0.3 -2.5
v -1.8 0.2 -2.5
v -1.8 0.3 -2.5
v -1.4 0 -2.5
v -1.4 0.1 -2.5
v -1.4 0.2 -2.5
v -1.3 0.2 -2.5
v -1.3 0.3 -2.5
v -1.2 0.2 -2.5
v -1.2 0.3 -2.5
v -1.1 0 -2.5
v -1.1 0.1 -2.5
v -1.1 0.2 -2.5
v -2.1 0 -2.6
v -2.1 0.1 -2.6
v -2.1 0.2 -2.6
v -1.8 0 -2.6
v -1.8 0.1 -2.6
v -1.8 0.2 -2.6
v -2.9 0.1 -2.9
v -2.9 0.2 -2.9
v -2.8 0.1 -2.9
v -2.8 0.2 -2.9
v -2.8 0.1 -3
v -2.8 0.2 -3
v -2.7 0.1 -3
v -2.7 0.2 -3
v -1.5 0.2 -3
v -1.5 0.3 -3
v -1.2 0.2 -3
v -1.2 0.3 -3
v -2.5 0 -3.1
v -2.5 0.1 -3.1
v -2.5 0.2 -3.1
v -2.4 0.2 -3.1
v -2.4 0.3 -3.1
v -2.3 0.2 -3.1
v -2.3 0.3 -3.1
v -2.2 0 -3.1
v -2.2 0.1 -3.1
v -2.2 0.2 -3.1
v -1.5 0 -3.1
v -1.5 0.1 -3.1
v -1.5 0.2 -3.1
v -1.2 0.2 -3.1
v -1.2 0.3 -3.1
v -1.1 0.2 -3.1
v -1.1 0.3 -3.1
v -1 0 -3.1
v -1 0.1 -3.1
v -1 0.2 -3.1
v -3.2 0 -3.2
v -3.2 0.1 -3.2
v -2.7 0 -3.2
v -2.7 0.1 -3.2
v -2.7 0.2 -3.2
v -2.6 0 -3.2
v -2.6 0.2 -3.2
v -1.3 0 -1.2
v -1 0 -1.2
v -1.4 0 -1.4
v -1.3 0 -1.4
v -1.4 0 -1.7
v -1 0 -1.7
v -1.7 0 -1.9
v -1.1 0 -1.9
v -1.7 0 -2.2
v -1.4 0 -2.2
v -2.1 0 -2.3
v -1.8 0 -2.3
v -1.4 0 -2.5
v -1.1 0 -2.5
v -2.5 0 -2.6
v -2.2 0 -2.6
v -2.1 0 -2.6
v -1.8 0 -2.6
v -1.3 0 -2.7
v -1 0 -2.7
v -2.9 0 -2.8
v -2.8 0 -2.8
v -1.5 0 -2.8
v -1.3 0 -2.8
v -3 0 -2.9
v -2.9 0 -2.9
v -2.8 0 -2.9
v -2.7 0 -2.9
v -3.1 0 -3
v -3 0 -3
v -2.8 0 -3
v -2.7 0 -3
v -2.6 0 -3
v -3.2 0 -3.1
v -3.1 0 -3.1
v -2.5 0 -3.1
v -2.2 0 -3.1
v -1.5 0 -3.1
v -1 0 -3.1
v -3.2 0 -3.2
v -2.7 0 -3.2
v -2.6 0 -3.2
v -3 0.1 -2.9
v -2.9 0.1 -2.9
v -2.8 0.1 -2.9
v -3.1 0.1 -3
v -3 0.1 -3
v -2.8 0.1 -3
v -2.7 0.1 -3
v -3.2 0.1 -3.1
v -3.1 0.1 -3.1
v -3.2 0.1 -3.2
v -2.7 0.1 -3.2
v -1.3 0.2 -1.2
v -1.2 0.2 -1.2
v -1.1 0.2 -1.2
v -1 0.2 -1.2
v -1.4 0.2 -1.4
v -1.3 0.2 -1.4
v -1.4 0.2 -1.5
v -1.2 0.2 -1.5
v -1.1 0.2 -1.5
v -1 0.2 -1.5
v -1.4 0.2 -1.6
v -1.2 0.2 -1.6
v -1.1 0.2 -1.6
v -1 0.2 -1.6
v -1.4 0.2 -1.7
v -1.2 0.2 -1.7
v -1.1 0.2 -1.7
v -1 0.2 -1.7
v -1.7 0.2 -1.9
v -1.3 0.2 -1.9
v -1.2 0.2 -1.9
v -1.1 0.2 -1.9
v -1.7 0.2 -2
v -1.3 0.2 -2
v -1.7 0.2 -2.1
v -1.3 0.2 -2.1
v -1.7 0.2 -2.2
v -1.4 0.2 -2.2
v -2.1 0.2 -2.3
v -1.8 0.2 -2.3
v -2.1 0.2 -2.4
v -1.8 0.2 -2.4
v -2.1 0.2 -2.5
v -1.8 0.2 -2.5
v -1.4 0.2 -2.5
v -1.3 0.2 -2.5
v -1.2 0.2 -2.5
v -1.1 0.2 -2.5
v -2.5 0.2 -2.6
v -2.4 0.2 -2.6
v -2.3 0.2 -2.6
v -2.2 0.2 -2.6
v -2.1 0.2 -2.6
v -1.8 0.2 -2.6
v -1.3 0.2 -2.7
v -1.2 0.2 -2.7
v -1.1 0.2 -2.7
v -1 0.2 -2.7
v -2.9 0.2 -2.8
v -2.8 0.2 -2.8
v -1.5 0.2 -2.8
v -1.3 0.2 -2.8
v -2.9 0.2 -2.9
v -2.8 0.2 -2.9
v -2.7 0.2 -2.9
v -1.5 0.2 -2.9
v -1.2 0.2 -2.9
v -2.8 0.2 -3
v -2.7 0.2 -3
v -2.6 0.2 -3
v -1.5 0.2 -3
v -1.2 0.2 -3
v -2.5 0.2 -3.1
v -2.4 0.2 -3.1
v -2.3 0.2 -3.1
v -2.2 0.2 -3.1
v -1.5 0.2 -3.1
v -1.2 0.2 -3.1
v -1.1 0.2 -3.1
v -1 0.2 -3.1
v -2.7 0.2 -3.2
v -2.6 0.2 -3.2
v -1.2 0.3 -1.2
v -1.1 0.3 -1.2
v -1.4 0.3 -1.5
v -1.2 0.3 -1.5
v -1.1 0.3 -1.5
v -1 0.3 -1.5
v -1.4 0.3 -1.6
v -1.2 0.3 -1.6
v -1.1 0.3 -1.6
v -1 0.3 -1.6
v -1.2 0.3 -1.7
v -1.1 0.3 -1.7
v -1.3 0.3 -1.9
v -1.2 0.3 -1.9
v -1.7 0.3 -2
v -1.3 0.3 -2
v -1.7 0.3 -2.1
v -1.3 0.3 -2.1
v -2.1 0.3 -2.4
v -1.8 0.3 -2.4
v -2.1 0.3 -2.5
v -1.8 0.3 -2.5
v -1.3 0.3 -2.5
v -1.2 0.3 -2.5
v -2.4 0.3 -2.6
v -2.3 0.3 -2.6
v -1.2 0.3 -2.7
v -1.1 0.3 -2.7
v -1.5 0.3 -2.9
v -1.2 0.3 -2.9
v -1.5 0.3 -3
v -1.2 0.3 -3
v -2.4 0.3 -3.1
v -2.3 0.3 -3.1
v -1.2 0.3 -3.1
v -1.1 0.3 -3.1

# faces
f 3/1/1 2/1/1 1/1/1
f 4/1/1 2/1/1 3/1/1
f 7/1/1 6/1/1 5/1/1
f 8/1/1 6/1/1 7/1/1
f 11/1/1 10/1/1 9/1/1
f 12/1/1 10/1/1 11/1/1
f 15/2/1 14/2/1 13/2/1
f 16/2/1 15/2/1 13/2/1
f 17/2/1 15/2/1 16/2/1
f 20/2/1 19/2/1 18/2/1
f 21/2/1 19/2/1 20/2/1
f 24/2/1 23/2/1 22/2/1
f 25/2/1 23/2/1 24/2/1
f 28/2/1 27/2/1 26/2/1
f 29/2/1 27/2/1 28/2/1
f 30/3/1 29/3/1 28/3/1
f 31/3/1 29/3/1 30/3/1
f 34/3/1 33/3/1 32/3/1
f 35/3/1 33/3/1 34/3/1
f 38/2/1 37/2/1 36/2/1
f 39/2/1 37/2/1 38/2/1
f 40/3/1 39/3/1 38/3/1
f 41/3/1 39/3/1 40/3/1
f 42/3/1 39/3/1 41/3/1
f 43/3/1 39/3/1 42/3/1
f 44/3/1 42/3/1 41/3/1
f 45/3/1 42/3/1 44/3/1
f 48/2/1 47/2/1 46/2/1
f 49/2/1 47/2/1 48/2/1
f 50/3/1 49/3/1 48/3/1
f 51/3/1 49/3/1 50/3/1
f 52/3/1 49/3/1 51/3/1
f 53/3/1 49/3/1 52/3/1
f 54/3/1 52/3/1 51/3/1
f 55/3/1 52/3/1 54/3/1
f 58/2/1 57/2/1 56/2/1
f 59/2/1 57/2/1 58/2/1
f 60/3/1 59/3/1 58/3/1
f 61/3/1 59/3/1 60/3/1
f 62/3/1 59/3/1 61/3/1
f 63/3/1 59/3/1 62/3/1
f 64/3/1 62/3/1 61/3/1
f 65/3/1 62/3/1 64/3/1
f 70/2/1 67/2/1 66/2/1
f 71/2/1 67/2/1 70/2/1
f 72/2/1 69/2/1 68/2/1
f 73/2/1 69/2/1 72/2/1
f 74/3/1 71/3/1 70/3/1
f 75/3/1 71/3/1 74/3/1
f 76/3/1 71/3/1 75/3/1
f 77/3/1 71/3/1 76/3/1
f 78/3/1 73/3/1 72/3/1
f 79/3/1 73/3/1 78/3/1
f 80/3/1 76/3/1 75/3/1
f 81/3/1 76/3/1 80/3/1
f 86/2/1 83/2/1 82/2/1
f 87/2/1 83/2/1 86/2/1
f 88/2/1 85/2/1 84/2/1
f 89/2/1 85/2/1 88/2/1
f 90/3/1 87/3/1 86/3/1
f 91/3/1 87/3/1 90/3/1
f 96/3/1 89/3/1 88/3/1
f 97/3/1 89/3/1 96/3/1
f 98/3/1 93/3/1 92/3/1
f 99/3/1 93/3/1 98/3/1
f 100/3/1 95/3/1 94/3/1
f 101/3/1 95/3/1 100/3/1
f 110/3/1 103/3/1 102/3/1
f 111/3/1 103/3/1 110/3/1
f 112/3/1 105/3/1 104/3/1
f 113/3/1 105/3/1 112/3/1
f 114/3/1 107/3/1 106/3/1
f 115/3/1 107/3/1 114/3/1
f 116/3/1 109/3/1 108/3/1
f 117/3/1 109/3/1 116/3/1
f 118/2/2 119/2/2 120/2/2
f 120/2/2 119/2/2 121/2/2
f 122/2/2 123/2/2 124/2/2
f 124/2/2 123/2/2 125/2/2
f 126/2/2 127/2/2 128/2/2
f 128/2/2 127/2/2 129/2/2
f 130/3/2 131/3/2 132/3/2
f 132/3/2 131/3/2 133/3/2
f 134/2/2 135/2/2 136/2/2
f 136/2/2 135/2/2 137/2/2
f 136/3/2 137/3/2 138/3/2
f 138/3/2 137/3/2 139/3/2
f 140/2/2 141/2/2 142/2/2
f 142/2/2 141/2/2 143/2/2
f 142/3/2 143/3/2 144/3/2
f 144/3/2 143/3/2 145/3/2
f 145/3/2 143/3/2 146/3/2
f 146/3/2 143/3/2 147/3/2
f 145/3/2 146/3/2 148/3/2
f 148/3/2 146/3/2 149/3/2
f 150/3/2 151/3/2 152/3/2
f 152/3/2 151/3/2 153/3/2
f 154/2/2 155/2/2 156/2/2
f 156/2/2 155/2/2 157/2/2
f 156/3/2 157/3/2 162/3/2
f 162/3/2 157/3/2 163/3/2
f 158/3/2 159/3/2 166/3/2
f 166/3/2 159/3/2 167/3/2
f 160/3/2 161/3/2 168/3/2
f 168/3/2 161/3/2 169/3/2
f 164/3/2 165/3/2 170/3/2
f 170/3/2 165/3/2 171/3/2
f 172/2/2 173/2/2 176/2/2
f 176/2/2 173/2/2 177/2/2
f 174/2/2 175/2/2 178/2/2
f 178/2/2 175/2/2 179/2/2
f 176/3/2 177/3/2 180/3/2
f 180/3/2 177/3/2 181/3/2
f 181/3/2 177/3/2 182/3/2
f 182/3/2 177/3/2 183/3/2
f 178/3/2 179/3/2 184/3/2
f 184/3/2 179/3/2 185/3/2
f 181/3/2 182/3/2 186/3/2
f 186/3/2 182/3/2 187/3/2
f 191/3/3 190/3/3 189/3/3
f 193/3/3 191/3/3 189/3/3
f 193/3/3 192/3/3 191/3/3
f 194/3/3 192/3/3 193/3/3
f 195/2/3 189/2/3 188/2/3
f 196/3/3 193/3/3 189/3/3
f 196/2/3 189/2/3 195/2/3
f 197/3/3 193/3/3 196/3/3
f 201/2/3 199/2/3 198/2/3
f 202/3/3 200/3/3 199/3/3
f 202/2/3 199/2/3 201/2/3
f 203/3/3 200/3/3 202/3/3
f 206/3/3 205/3/3 204/3/3
f 207/3/3 205/3/3 206/3/3
f 210/3/3 209/3/3 208/3/3
f 211/3/3 209/3/3 210/3/3
f 215/3/3 214/3/3 213/3/3
f 217/3/3 215/3/3 213/3/3
f 217/3/3 216/3/3 215/3/3
f 218/3/3 216/3/3 217/3/3
f 219/2/3 213/2/3 212/2/3
f 220/3/3 217/3/3 213/3/3
f 220/2/3 213/2/3 219/2/3
f 221/3/3 217/3/3 220/3/3
f 224/3/3 223/3/3 222/3/3
f 225/3/3 223/3/3 224/3/3
f 229/2/3 227/2/3 226/2/3
f 230/3/3 228/3/3 227/3/3
f 230/2/3 227/2/3 229/2/3
f 231/3/3 228/3/3 230/3/3
f 234/3/3 233/3/3 232/3/3
f 235/3/3 233/3/3 234/3/3
f 239/3/3 238/3/3 237/3/3
f 241/3/3 239/3/3 237/3/3
f 241/3/3 240/3/3 239/3/3
f 242/3/3 240/3/3 241/3/3
f 243/2/3 237/2/3 236/2/3
f 244/3/3 241/3/3 237/3/3
f 244/2/3 237/2/3 243/2/3
f 245/3/3 241/3/3 244/3/3
f 249/3/3 248/3/3 247/3/3
f 251/3/3 249/3/3 247/3/3
f 251/3/3 250/3/3 249/3/3
f 252/3/3 250/3/3 251/3/3
f 253/2/3 247/2/3 246/2/3
f 254/3/3 251/3/3 247/3/3
f 254/2/3 247/2/3 253/2/3
f 255/3/3 251/3/3 254/3/3
f 258/2/3 257/2/3 256/2/3
f 259/2/3 257/2/3 258/2/3
f 263/2/3 261/2/3 260/2/3
f 264/3/3 262/3/3 261/3/3
f 264/2/3 261/2/3 263/2/3
f 265/3/3 262/3/3 264/3/3
f 268/1/3 267/1/3 266/1/3
f 269/1/3 267/1/3 268/1/3
f 272/2/3 271/2/3 270/2/3
f 273/2/3 271/2/3 272/2/3
f 276/3/3 275/3/3 274/3/3
f 277/3/3 275/3/3 276/3/3
f 280/1/3 279/1/3 278/1/3
f 281/1/3 279/1/3 280/1/3
f 284/2/3 283/2/3 282/2/3
f 285/2/3 283/2/3 284/2/3
f 288/1/3 287/1/3 286/1/3
f 289/1/3 287/1/3 288/1/3
f 290/3/4 291/3/4 292/3/4
f 292/3/4 291/3/4 293/3/4
f 294/3/4 295/3/4 296/3/4
f 296/3/4 295/3/4 297/3/4
f 299/3/4 300/3/4 301/3/4
f 299/3/4 301/3/4 303/3/4
f 301/3/4 302/3/4 303/3/4
f 303/3/4 302/3/4 304/3/4
f 298/2/4 299/2/4 305/2/4
f 299/3/4 303/3/4 306/3/4
f 305/2/4 299/2/4 306/2/4
f 306/3/4 303/3/4 307/3/4
f 308/3/4 309/3/4 310/3/4
f 310/3/4 309/3/4 311/3/4
f 312/2/4 313/2/4 315/2/4
f 313/3/4 314/3/4 316/3/4
f 315/2/4 313/2/4 316/2/4
f 316/3/4 314/3/4 317/3/4
f 318/3/4 319/3/4 320/3/4
f 320/3/4 319/3/4 321/3/4
f 323/3/4 324/3/4 325/3/4
f 323/3/4 325/3/4 327/3/4
f 325/3/4 326/3/4 327/3/4
f 327/3/4 326/3/4 328/3/4
f 322/2/4 323/2/4 329/2/4
f 323/3/4 327/3/4 330/3/4
f 329/2/4 323/2/4 330/2/4
f 330/3/4 327/3/4 331/3/4
f 332/2/4 333/2/4 335/2/4
f 333/3/4 334/3/4 336/3/4
f 335/2/4 333/2/4 336/2/4
f 336/3/4 334/3/4 337/3/4
f 338/2/4 339/2/4 340/2/4
f 340/2/4 339/2/4 341/2/4
f 342/2/4 343/2/4 344/2/4
f 344/2/4 343/2/4 345/2/4
f 346/3/4 347/3/4 348/3/4
f 348/3/4 347/3/4 349/3/4
f 351/3/4 352/3/4 353/3/4
f 351/3/4 353/3/4 355/3/4
f 353/3/4 354/3/4 355/3/4
f 355/3/4 354/3/4 356/3/4
f 350/2/4 351/2/4 357/2/4
f 351/3/4 355/3/4 358/3/4
f 357/2/4 351/2/4 358/2/4
f 358/3/4 355/3/4 359/3/4
f 361/3/4 362/3/4 363/3/4
f 361/3/4 363/3/4 365/3/4
f 363/3/4 364/3/4 365/3/4
f 365/3/4 364/3/4 366/3/4
f 360/2/4 361/2/4 367/2/4
f 361/3/4 365/3/4 368/3/4
f 367/2/4 361/2/4 368/2/4
f 368/3/4 365/3/4 369/3/4
f 370/1/4 371/1/4 372/1/4
f 372/1/4 371/1/4 373/1/4
f 372/2/4 373/2/4 375/2/4
f 373/2/4 374/2/4 375/2/4
f 375/2/4 374/2/4 376/2/4
f 380/2/5 378/2/5 377/2/5
f 381/2/5 380/2/5 379/2/5
f 382/2/5 378/2/5 380/2/5
f 382/2/5 380/2/5 381/2/5
f 385/2/5 384/2/5 383/2/5
f 386/2/5 384/2/5 385/2/5
f 389/2/5 384/2/5 386/2/5
f 390/2/5 384/2/5 389/2/5
f 393/2/5 388/2/5 387/2/5
f 394/2/5 388/2/5 393/2/5
f 400/2/5 396/2/5 395/2/5
f 402/2/5 398/2/5 397/2/5
f 403/2/5 398/2/5 402/2/5
f 406/1/5 402/1/5 401/1/5
f 406/1/5 403/1/5 402/1/5
f 407/2/5 404/2/5 403/2/5
f 407/1/5 403/1/5 406/1/5
f 408/2/5 404/2/5 407/2/5
f 411/1/5 406/1/5 405/1/5
f 411/1/5 407/1/5 406/1/5
f 411/1/5 408/1/5 407/1/5
f 412/2/5 392/2/5 391/2/5
f 413/2/5 392/2/5 412/2/5
f 414/2/5 400/2/5 399/2/5
f 415/2/5 396/2/5 400/2/5
f 415/2/5 400/2/5 414/2/5
f 416/1/5 411/1/5 410/1/5
f 417/2/5 409/2/5 408/2/5
f 417/1/5 411/1/5 416/1/5
f 417/1/5 408/1/5 411/1/5
f 418/2/5 409/2/5 417/2/5
f 419/1/6 420/1/6 423/1/6
f 420/1/6 421/1/6 423/1/6
f 423/1/6 421/1/6 424/1/6
f 422/1/6 423/1/6 427/1/6
f 424/1/6 425/1/6 427/1/6
f 423/1/6 424/1/6 427/1/6
f 426/1/6 427/1/6 428/1/6
f 427/1/6 425/1/6 429/1/6
f 428/1/6 427/1/6 429/1/6
f 430/3/6 431/3/6 435/3/6
f 434/3/6 435/3/6 436/3/6
f 435/3/6 431/3/6 437/3/6
f 436/3/6 435/3/6 437/3/6
f 432/3/6 433/3/6 438/3/6
f 438/3/6 433/3/6 439/3/6
f 440/3/6 441/3/6 444/3/6
f 444/3/6 441/3/6 445/3/6
f 442/3/6 443/3/6 446/3/6
f 446/3/6 443/3/6 447/3/6
f 448/3/6 449/3/6 452/3/6
f 452/3/6 449/3/6 453/3/6
f 454/3/6 455/3/6 456/3/6
f 456/3/6 455/3/6 457/3/6
f 458/3/6 459/3/6 460/3/6
f 460/3/6 459/3/6 461/3/6
f 457/3/6 455/3/6 464/3/6
f 464/3/6 455/3/6 465/3/6
f 450/3/6 451/3/6 466/3/6
f 466/3/6 451/3/6 467/3/6
f 462/3/6 463/3/6 472/3/6
f 472/3/6 463/3/6 473/3/6
f 474/3/6 475/3/6 481/3/6
f 478/2/6 479/2/6 482/2/6
f 482/2/6 479/2/6 483/2/6
f 480/3/6 481/3/6 485/3/6
f 481/3/6 475/3/6 486/3/6
f 485/3/6 481/3/6 486/3/6
f 483/2/6 484/2/6 487/2/6
f 487/2/6 484/2/6 488/2/6
f 468/3/6 469/3/6 492/3/6
f 492/3/6 469/3/6 493/3/6
f 470/3/6 471/3/6 494/3/6
f 494/3/6 471/3/6 495/3/6
f 490/3/6 491/3/6 496/3/6
f 496/3/6 491/3/6 497/3/6
f 476/3/6 477/3/6 498/3/6
f 498/3/6 477/3/6 499/3/6
f 488/2/6 489/2/6 500/2/6
f 500/2/6 489/2/6 501/2/6
f 502/3/6 503/3/6 505/3/6
f 505/3/6 503/3/6 506/3/6
f 504/3/6 505/3/6 508/3/6
f 506/3/6 507/3/6 508/3/6
f 505/3/6 506/3/6 508/3/6
f 508/3/6 507/3/6 509/3/6
f 509/3/6 507/3/6 510/3/6
f 510/3/6 507/3/6 511/3/6
f 509/3/6 510/3/6 512/3/6
f 512/3/6 510/3/6 513/3/6
f 514/3/6 515/3/6 517/3/6
f 516/3/6 517/3/6 518/3/6
f 517/3/6 515/3/6 519/3/6
f 518/3/6 517/3/6 519/3/6
f 520/3/6 521/3/6 522/3/6
f 522/3/6 521/3/6 523/3/6
f 519/3/6 515/3/6 524/3/6
f 524/3/6 515/3/6 525/3/6
f 528/3/6 529/3/6 531/3/6
f 530/3/6 531/3/6 532/3/6
f 531/3/6 529/3/6 533/3/6
f 532/3/6 531/3/6 533/3/6
f 526/3/6 527/3/6 534/3/6
f 534/3/6 527/3/6 535/3/6
f 533/3/6 529/3/6 536/3/6
f 536/3/6 529/3/6 537/3/6
