# MagicaVoxel @ Ephtracy

# group
o 

# material
mtllib corner_city_wall_plus.mtl
usemtl palette

# normals
vn -1 0 0
vn 1 0 0
vn 0 0 1
vn 0 0 -1
vn 0 -1 0
vn 0 1 0

# texcoords
vt 0.0371094 0.5
vt 0.373047 0.5
vt 0.666016 0.5
vt 0.849609 0.5

# verts
v -3.2 0 -3.1
v -3.2 0 -3.2
v -3.2 0.2 -3.1
v -3.2 0.2 -3.2
v -3.1 0 -3
v -3.1 0 -3.1
v -3.1 0.2 -3
v -3.1 0.2 -3.1
v -3 0 -2.9
v -3 0 -3
v -3 0.2 -2.9
v -3 0.2 -3
v -2.9 0 -2.8
v -2.9 0 -2.9
v -2.9 0.2 -2.8
v -2.9 0.2 -2.9
v -2.8 0 -2.7
v -2.8 0 -2.8
v -2.8 0.2 -2.7
v -2.8 0.2 -2.8
v -2.7 0 -2.6
v -2.7 0 -2.7
v -2.7 0.1 -3.1
v -2.7 0.1 -3.2
v -2.7 0.2 -2.6
v -2.7 0.2 -2.7
v -2.7 0.2 -3.1
v -2.7 0.2 -3.2
v -2.6 0 -2.5
v -2.6 0 -2.6
v -2.6 0.1 -3
v -2.6 0.1 -3.1
v -2.6 0.2 -2.5
v -2.6 0.2 -2.6
v -2.6 0.2 -3
v -2.6 0.2 -3.1
v -2.5 0 -2.4
v -2.5 0 -2.5
v -2.5 0.1 -2.9
v -2.5 0.1 -3
v -2.5 0.2 -2.4
v -2.5 0.2 -2.5
v -2.5 0.2 -2.9
v -2.5 0.2 -3
v -2.4 0 -2.3
v -2.4 0 -2.4
v -2.4 0.1 -2.8
v -2.4 0.1 -2.9
v -2.4 0.2 -2.3
v -2.4 0.2 -2.4
v -2.4 0.2 -2.8
v -2.4 0.2 -2.9
v -2.3 0 -2.2
v -2.3 0 -2.3
v -2.3 0.1 -2.7
v -2.3 0.1 -2.8
v -2.3 0.2 -2.2
v -2.3 0.2 -2.3
v -2.3 0.2 -2.7
v -2.3 0.2 -2.8
v -2.2 0 -2.1
v -2.2 0 -2.2
v -2.2 0.1 -2.6
v -2.2 0.1 -2.7
v -2.2 0.2 -2.1
v -2.2 0.2 -2.2
v -2.2 0.2 -2.6
v -2.2 0.2 -2.7
v -2.1 0 -2
v -2.1 0 -2.1
v -2.1 0 -2.9
v -2.1 0 -3.1
v -2.1 0.1 -2.5
v -2.1 0.1 -2.6
v -2.1 0.1 -2.9
v -2.1 0.1 -3.1
v -2.1 0.2 -2
v -2.1 0.2 -2.1
v -2.1 0.2 -2.5
v -2.1 0.2 -2.6
v -2.1 0.2 -2.9
v -2.1 0.2 -3.1
v -2 0 -1.9
v -2 0 -2
v -2 0.1 -2.4
v -2 0.1 -2.5
v -2 0.2 -1.9
v -2 0.2 -2
v -2 0.2 -2.4
v -2 0.2 -2.5
v -2 0.2 -2.9
v -2 0.2 -3.1
v -2 0.3 -2.9
v -2 0.3 -3.1
v -1.9 0 -1.8
v -1.9 0 -1.9
v -1.9 0.1 -2.3
v -1.9 0.1 -2.4
v -1.9 0.2 -1.8
v -1.9 0.2 -1.9
v -1.9 0.2 -2.3
v -1.9 0.2 -2.4
v -1.8 0 -1.7
v -1.8 0 -1.8
v -1.8 0.1 -2.2
v -1.8 0.1 -2.3
v -1.8 0.2 -1.7
v -1.8 0.2 -1.8
v -1.8 0.2 -2.2
v -1.8 0.2 -2.3
v -1.7 0 -1.6
v -1.7 0 -1.7
v -1.7 0.1 -2.1
v -1.7 0.1 -2.2
v -1.7 0.2 -1.6
v -1.7 0.2 -1.7
v -1.7 0.2 -2.1
v -1.7 0.2 -2.2
v -1.6 0 -1.5
v -1.6 0 -1.6
v -1.6 0 -2.8
v -1.6 0 -3.1
v -1.6 0.1 -2
v -1.6 0.1 -2.1
v -1.6 0.1 -2.8
v -1.6 0.1 -3.1
v -1.6 0.2 -1.5
v -1.6 0.2 -1.6
v -1.6 0.2 -2
v -1.6 0.2 -2.1
v -1.6 0.2 -2.8
v -1.6 0.2 -2.9
v -1.6 0.2 -3
v -1.6 0.2 -3.1
v -1.6 0.3 -2.9
v -1.6 0.3 -3
v -1.5 0 -1.4
v -1.5 0 -1.5
v -1.5 0.1 -1.9
v -1.5 0.1 -2
v -1.5 0.2 -1.4
v -1.5 0.2 -1.5
v -1.5 0.2 -1.9
v -1.5 0.2 -2
v -1.4 0 -1.3
v -1.4 0 -1.4
v -1.4 0.1 -1.8
v -1.4 0.1 -1.9
v -1.4 0.2 -1.3
v -1.4 0.2 -1.4
v -1.4 0.2 -1.8
v -1.4 0.2 -1.9
v -1.3 0 -1.2
v -1.3 0 -1.3
v -1.3 0 -2.3
v -1.3 0 -2.6
v -1.3 0.1 -1.7
v -1.3 0.1 -1.8
v -1.3 0.2 -1.2
v -1.3 0.2 -1.3
v -1.3 0.2 -1.7
v -1.3 0.2 -1.8
v -1.3 0.5 -2.3
v -1.3 0.5 -2.6
v -1.3 0.6 -2.3
v -1.3 0.6 -2.4
v -1.3 0.6 -2.5
v -1.3 0.6 -2.6
v -1.3 0.7 -2.4
v -1.3 0.7 -2.5
v -1.2 0 -1.1
v -1.2 0 -1.2
v -1.2 0 -1.9
v -1.2 0 -2.1
v -1.2 0.1 -1.6
v -1.2 0.1 -1.7
v -1.2 0.1 -1.9
v -1.2 0.1 -2.1
v -1.2 0.2 -1.1
v -1.2 0.2 -1.2
v -1.2 0.2 -1.6
v -1.2 0.2 -1.7
v -1.2 0.2 -1.9
v -1.2 0.2 -2.1
v -1.2 0.6 -2.3
v -1.2 0.6 -2.4
v -1.2 0.6 -2.5
v -1.2 0.6 -2.6
v -1.2 0.7 -2.3
v -1.2 0.7 -2.4
v -1.2 0.7 -2.5
v -1.2 0.7 -2.6
v -1.2 0.8 -2.4
v -1.2 0.8 -2.5
v -1.1 0 -1
v -1.1 0 -1.1
v -1.1 0.1 -1.5
v -1.1 0.1 -1.6
v -1.1 0.2 -1
v -1.1 0.2 -1.1
v -1.1 0.2 -1.5
v -1.1 0.2 -1.6
v -3.1 0.1 -3.1
v -3.1 0.1 -3.2
v -3.1 0.2 -3.1
v -3.1 0.2 -3.2
v -3 0.1 -3
v -3 0.1 -3.1
v -3 0.2 -3
v -3 0.2 -3.1
v -2.9 0.1 -2.9
v -2.9 0.1 -3
v -2.9 0.2 -2.9
v -2.9 0.2 -3
v -2.8 0.1 -2.8
v -2.8 0.1 -2.9
v -2.8 0.2 -2.8
v -2.8 0.2 -2.9
v -2.7 0.1 -2.7
v -2.7 0.1 -2.8
v -2.7 0.2 -2.7
v -2.7 0.2 -2.8
v -2.6 0 -3.1
v -2.6 0 -3.2
v -2.6 0.1 -2.6
v -2.6 0.1 -2.7
v -2.6 0.2 -2.6
v -2.6 0.2 -2.7
v -2.6 0.2 -3.1
v -2.6 0.2 -3.2
v -2.5 0 -3
v -2.5 0 -3.1
v -2.5 0.1 -2.5
v -2.5 0.1 -2.6
v -2.5 0.2 -2.5
v -2.5 0.2 -2.6
v -2.5 0.2 -3
v -2.5 0.2 -3.1
v -2.4 0 -2.9
v -2.4 0 -3
v -2.4 0.1 -2.4
v -2.4 0.1 -2.5
v -2.4 0.2 -2.4
v -2.4 0.2 -2.5
v -2.4 0.2 -2.9
v -2.4 0.2 -3
v -2.3 0 -2.8
v -2.3 0 -2.9
v -2.3 0.1 -2.3
v -2.3 0.1 -2.4
v -2.3 0.2 -2.3
v -2.3 0.2 -2.4
v -2.3 0.2 -2.8
v -2.3 0.2 -2.9
v -2.2 0 -2.7
v -2.2 0 -2.8
v -2.2 0.1 -2.2
v -2.2 0.1 -2.3
v -2.2 0.2 -2.2
v -2.2 0.2 -2.3
v -2.2 0.2 -2.7
v -2.2 0.2 -2.8
v -2.1 0 -2.6
v -2.1 0 -2.7
v -2.1 0.1 -2.1
v -2.1 0.1 -2.2
v -2.1 0.2 -2.1
v -2.1 0.2 -2.2
v -2.1 0.2 -2.6
v -2.1 0.2 -2.7
v -2 0 -2.5
v -2 0 -2.6
v -2 0.1 -2
v -2 0.1 -2.1
v -2 0.2 -2
v -2 0.2 -2.1
v -2 0.2 -2.5
v -2 0.2 -2.6
v -1.9 0 -2.4
v -1.9 0 -2.5
v -1.9 0.1 -1.9
v -1.9 0.1 -2
v -1.9 0.2 -1.9
v -1.9 0.2 -2
v -1.9 0.2 -2.4
v -1.9 0.2 -2.5
v -1.9 0.2 -2.9
v -1.9 0.2 -3.1
v -1.9 0.3 -2.9
v -1.9 0.3 -3.1
v -1.8 0 -2.3
v -1.8 0 -2.4
v -1.8 0 -2.9
v -1.8 0 -3.1
v -1.8 0.1 -1.8
v -1.8 0.1 -1.9
v -1.8 0.1 -2.9
v -1.8 0.1 -3.1
v -1.8 0.2 -1.8
v -1.8 0.2 -1.9
v -1.8 0.2 -2.3
v -1.8 0.2 -2.4
v -1.8 0.2 -2.9
v -1.8 0.2 -3.1
v -1.7 0 -2.2
v -1.7 0 -2.3
v -1.7 0.1 -1.7
v -1.7 0.1 -1.8
v -1.7 0.2 -1.7
v -1.7 0.2 -1.8
v -1.7 0.2 -2.2
v -1.7 0.2 -2.3
v -1.6 0 -2.1
v -1.6 0 -2.2
v -1.6 0.1 -1.6
v -1.6 0.1 -1.7
v -1.6 0.2 -1.6
v -1.6 0.2 -1.7
v -1.6 0.2 -2.1
v -1.6 0.2 -2.2
v -1.5 0 -2
v -1.5 0 -2.1
v -1.5 0.1 -1.5
v -1.5 0.1 -1.6
v -1.5 0.2 -1.5
v -1.5 0.2 -1.6
v -1.5 0.2 -2
v -1.5 0.2 -2.1
v -1.4 0 -1.9
v -1.4 0 -2
v -1.4 0.1 -1.4
v -1.4 0.1 -1.5
v -1.4 0.2 -1.4
v -1.4 0.2 -1.5
v -1.4 0.2 -1.9
v -1.4 0.2 -2
v -1.3 0 -1.8
v -1.3 0 -1.9
v -1.3 0 -2.8
v -1.3 0 -3.1
v -1.3 0.1 -1.3
v -1.3 0.1 -1.4
v -1.3 0.1 -2.8
v -1.3 0.1 -3.1
v -1.3 0.2 -1.3
v -1.3 0.2 -1.4
v -1.3 0.2 -1.8
v -1.3 0.2 -1.9
v -1.3 0.2 -2.8
v -1.3 0.2 -2.9
v -1.3 0.2 -3
v -1.3 0.2 -3.1
v -1.3 0.3 -2.9
v -1.3 0.3 -3
v -1.2 0 -1.7
v -1.2 0 -1.8
v -1.2 0.1 -1.2
v -1.2 0.1 -1.3
v -1.2 0.2 -1.2
v -1.2 0.2 -1.3
v -1.2 0.2 -1.7
v -1.2 0.2 -1.8
v -1.1 0 -1.6
v -1.1 0 -1.7
v -1.1 0.1 -1.1
v -1.1 0.1 -1.2
v -1.1 0.2 -1.1
v -1.1 0.2 -1.2
v -1.1 0.2 -1.6
v -1.1 0.2 -1.7
v -1.1 0.6 -2.3
v -1.1 0.6 -2.4
v -1.1 0.6 -2.5
v -1.1 0.6 -2.6
v -1.1 0.7 -2.3
v -1.1 0.7 -2.4
v -1.1 0.7 -2.5
v -1.1 0.7 -2.6
v -1.1 0.8 -2.4
v -1.1 0.8 -2.5
v -1 0 -1
v -1 0 -1.1
v -1 0 -1.5
v -1 0 -1.6
v -1 0 -1.9
v -1 0 -2.1
v -1 0 -2.3
v -1 0 -2.6
v -1 0.1 -1.1
v -1 0.1 -1.5
v -1 0.1 -1.9
v -1 0.1 -2.1
v -1 0.2 -1
v -1 0.2 -1.1
v -1 0.2 -1.5
v -1 0.2 -1.6
v -1 0.2 -1.9
v -1 0.2 -2.1
v -1 0.5 -2.3
v -1 0.5 -2.6
v -1 0.6 -2.3
v -1 0.6 -2.4
v -1 0.6 -2.5
v -1 0.6 -2.6
v -1 0.7 -2.4
v -1 0.7 -2.5
v -1.1 0 -1
v -1.1 0.2 -1
v -1 0 -1
v -1 0.2 -1
v -1.2 0 -1.1
v -1.2 0.2 -1.1
v -1.1 0 -1.1
v -1.1 0.2 -1.1
v -1.3 0 -1.2
v -1.3 0.2 -1.2
v -1.2 0 -1.2
v -1.2 0.2 -1.2
v -1.4 0 -1.3
v -1.4 0.2 -1.3
v -1.3 0 -1.3
v -1.3 0.2 -1.3
v -1.5 0 -1.4
v -1.5 0.2 -1.4
v -1.4 0 -1.4
v -1.4 0.2 -1.4
v -1.6 0 -1.5
v -1.6 0.2 -1.5
v -1.5 0 -1.5
v -1.5 0.2 -1.5
v -1.1 0.1 -1.5
v -1.1 0.2 -1.5
v -1 0.1 -1.5
v -1 0.2 -1.5
v -1.7 0 -1.6
v -1.7 0.2 -1.6
v -1.6 0 -1.6
v -1.6 0.2 -1.6
v -1.2 0.1 -1.6
v -1.2 0.2 -1.6
v -1.1 0.1 -1.6
v -1.1 0.2 -1.6
v -1.8 0 -1.7
v -1.8 0.2 -1.7
v -1.7 0 -1.7
v -1.7 0.2 -1.7
v -1.3 0.1 -1.7
v -1.3 0.2 -1.7
v -1.2 0.1 -1.7
v -1.2 0.2 -1.7
v -1.9 0 -1.8
v -1.9 0.2 -1.8
v -1.8 0 -1.8
v -1.8 0.2 -1.8
v -1.4 0.1 -1.8
v -1.4 0.2 -1.8
v -1.3 0.1 -1.8
v -1.3 0.2 -1.8
v -2 0 -1.9
v -2 0.2 -1.9
v -1.9 0 -1.9
v -1.9 0.2 -1.9
v -1.5 0.1 -1.9
v -1.5 0.2 -1.9
v -1.4 0.1 -1.9
v -1.4 0.2 -1.9
v -1.2 0 -1.9
v -1.2 0.1 -1.9
v -1.2 0.2 -1.9
v -1 0 -1.9
v -1 0.1 -1.9
v -1 0.2 -1.9
v -2.1 0 -2
v -2.1 0.2 -2
v -2 0 -2
v -2 0.2 -2
v -1.6 0.1 -2
v -1.6 0.2 -2
v -1.5 0.1 -2
v -1.5 0.2 -2
v -2.2 0 -2.1
v -2.2 0.2 -2.1
v -2.1 0 -2.1
v -2.1 0.2 -2.1
v -1.7 0.1 -2.1
v -1.7 0.2 -2.1
v -1.6 0.1 -2.1
v -1.6 0.2 -2.1
v -2.3 0 -2.2
v -2.3 0.2 -2.2
v -2.2 0 -2.2
v -2.2 0.2 -2.2
v -1.8 0.1 -2.2
v -1.8 0.2 -2.2
v -1.7 0.1 -2.2
v -1.7 0.2 -2.2
v -2.4 0 -2.3
v -2.4 0.2 -2.3
v -2.3 0 -2.3
v -2.3 0.2 -2.3
v -1.9 0.1 -2.3
v -1.9 0.2 -2.3
v -1.8 0.1 -2.3
v -1.8 0.2 -2.3
v -1.3 0 -2.3
v -1.3 0.5 -2.3
v -1.3 0.6 -2.3
v -1.2 0.6 -2.3
v -1.2 0.7 -2.3
v -1.1 0.6 -2.3
v -1.1 0.7 -2.3
v -1 0 -2.3
v -1 0.5 -2.3
v -1 0.6 -2.3
v -2.5 0 -2.4
v -2.5 0.2 -2.4
v -2.4 0 -2.4
v -2.4 0.2 -2.4
v -2 0.1 -2.4
v -2 0.2 -2.4
v -1.9 0.1 -2.4
v -1.9 0.2 -2.4
v -1.3 0.6 -2.4
v -1.3 0.7 -2.4
v -1.2 0.6 -2.4
v -1.2 0.7 -2.4
v -1.2 0.8 -2.4
v -1.1 0.6 -2.4
v -1.1 0.7 -2.4
v -1.1 0.8 -2.4
v -1 0.6 -2.4
v -1 0.7 -2.4
v -2.6 0 -2.5
v -2.6 0.2 -2.5
v -2.5 0 -2.5
v -2.5 0.2 -2.5
v -2.1 0.1 -2.5
v -2.1 0.2 -2.5
v -2 0.1 -2.5
v -2 0.2 -2.5
v -2.7 0 -2.6
v -2.7 0.2 -2.6
v -2.6 0 -2.6
v -2.6 0.2 -2.6
v -2.2 0.1 -2.6
v -2.2 0.2 -2.6
v -2.1 0.1 -2.6
v -2.1 0.2 -2.6
v -2.8 0 -2.7
v -2.8 0.2 -2.7
v -2.7 0 -2.7
v -2.7 0.2 -2.7
v -2.3 0.1 -2.7
v -2.3 0.2 -2.7
v -2.2 0.1 -2.7
v -2.2 0.2 -2.7
v -2.9 0 -2.8
v -2.9 0.2 -2.8
v -2.8 0 -2.8
v -2.8 0.2 -2.8
v -2.4 0.1 -2.8
v -2.4 0.2 -2.8
v -2.3 0.1 -2.8
v -2.3 0.2 -2.8
v -1.6 0 -2.8
v -1.6 0.1 -2.8
v -1.6 0.2 -2.8
v -1.3 0 -2.8
v -1.3 0.1 -2.8
v -1.3 0.2 -2.8
v -3 0 -2.9
v -3 0.2 -2.9
v -2.9 0 -2.9
v -2.9 0.2 -2.9
v -2.5 0.1 -2.9
v -2.5 0.2 -2.9
v -2.4 0.1 -2.9
v -2.4 0.2 -2.9
v -2.1 0 -2.9
v -2.1 0.1 -2.9
v -2.1 0.2 -2.9
v -2 0.2 -2.9
v -2 0.3 -2.9
v -1.9 0.2 -2.9
v -1.9 0.3 -2.9
v -1.8 0 -2.9
v -1.8 0.1 -2.9
v -1.8 0.2 -2.9
v -1.6 0.2 -2.9
v -1.6 0.3 -2.9
v -1.3 0.2 -2.9
v -1.3 0.3 -2.9
v -3.1 0 -3
v -3.1 0.2 -3
v -3 0 -3
v -3 0.2 -3
v -2.6 0.1 -3
v -2.6 0.2 -3
v -2.5 0.1 -3
v -2.5 0.2 -3
v -3.2 0 -3.1
v -3.2 0.2 -3.1
v -3.1 0 -3.1
v -3.1 0.2 -3.1
v -2.7 0.1 -3.1
v -2.7 0.2 -3.1
v -2.6 0.1 -3.1
v -2.6 0.2 -3.1
v -1.1 0.1 -1.1
v -1.1 0.2 -1.1
v -1 0.1 -1.1
v -1 0.2 -1.1
v -1.2 0.1 -1.2
v -1.2 0.2 -1.2
v -1.1 0.1 -1.2
v -1.1 0.2 -1.2
v -1.3 0.1 -1.3
v -1.3 0.2 -1.3
v -1.2 0.1 -1.3
v -1.2 0.2 -1.3
v -1.4 0.1 -1.4
v -1.4 0.2 -1.4
v -1.3 0.1 -1.4
v -1.3 0.2 -1.4
v -1.5 0.1 -1.5
v -1.5 0.2 -1.5
v -1.4 0.1 -1.5
v -1.4 0.2 -1.5
v -1.6 0.1 -1.6
v -1.6 0.2 -1.6
v -1.5 0.1 -1.6
v -1.5 0.2 -1.6
v -1.1 0 -1.6
v -1.1 0.2 -1.6
v -1 0 -1.6
v -1 0.2 -1.6
v -1.7 0.1 -1.7
v -1.7 0.2 -1.7
v -1.6 0.1 -1.7
v -1.6 0.2 -1.7
v -1.2 0 -1.7
v -1.2 0.2 -1.7
v -1.1 0 -1.7
v -1.1 0.2 -1.7
v -1.8 0.1 -1.8
v -1.8 0.2 -1.8
v -1.7 0.1 -1.8
v -1.7 0.2 -1.8
v -1.3 0 -1.8
v -1.3 0.2 -1.8
v -1.2 0 -1.8
v -1.2 0.2 -1.8
v -1.9 0.1 -1.9
v -1.9 0.2 -1.9
v -1.8 0.1 -1.9
v -1.8 0.2 -1.9
v -1.4 0 -1.9
v -1.4 0.2 -1.9
v -1.3 0 -1.9
v -1.3 0.2 -1.9
v -2 0.1 -2
v -2 0.2 -2
v -1.9 0.1 -2
v -1.9 0.2 -2
v -1.5 0 -2
v -1.5 0.2 -2
v -1.4 0 -2
v -1.4 0.2 -2
v -2.1 0.1 -2.1
v -2.1 0.2 -2.1
v -2 0.1 -2.1
v -2 0.2 -2.1
v -1.6 0 -2.1
v -1.6 0.2 -2.1
v -1.5 0 -2.1
v -1.5 0.2 -2.1
v -1.2 0 -2.1
v -1.2 0.1 -2.1
v -1.2 0.2 -2.1
v -1 0 -2.1
v -1 0.1 -2.1
v -1 0.2 -2.1
v -2.2 0.1 -2.2
v -2.2 0.2 -2.2
v -2.1 0.1 -2.2
v -2.1 0.2 -2.2
v -1.7 0 -2.2
v -1.7 0.2 -2.2
v -1.6 0 -2.2
v -1.6 0.2 -2.2
v -2.3 0.1 -2.3
v -2.3 0.2 -2.3
v -2.2 0.1 -2.3
v -2.2 0.2 -2.3
v -1.8 0 -2.3
v -1.8 0.2 -2.3
v -1.7 0 -2.3
v -1.7 0.2 -2.3
v -2.4 0.1 -2.4
v -2.4 0.2 -2.4
v -2.3 0.1 -2.4
v -2.3 0.2 -2.4
v -1.9 0 -2.4
v -1.9 0.2 -2.4
v -1.8 0 -2.4
v -1.8 0.2 -2.4
v -2.5 0.1 -2.5
v -2.5 0.2 -2.5
v -2.4 0.1 -2.5
v -2.4 0.2 -2.5
v -2 0 -2.5
v -2 0.2 -2.5
v -1.9 0 -2.5
v -1.9 0.2 -2.5
v -1.3 0.6 -2.5
v -1.3 0.7 -2.5
v -1.2 0.6 -2.5
v -1.2 0.7 -2.5
v -1.2 0.8 -2.5
v -1.1 0.6 -2.5
v -1.1 0.7 -2.5
v -1.1 0.8 -2.5
v -1 0.6 -2.5
v -1 0.7 -2.5
v -2.6 0.1 -2.6
v -2.6 0.2 -2.6
v -2.5 0.1 -2.6
v -2.5 0.2 -2.6
v -2.1 0 -2.6
v -2.1 0.2 -2.6
v -2 0 -2.6
v -2 0.2 -2.6
v -1.3 0 -2.6
v -1.3 0.5 -2.6
v -1.3 0.6 -2.6
v -1.2 0.6 -2.6
v -1.2 0.7 -2.6
v -1.1 0.6 -2.6
v -1.1 0.7 -2.6
v -1 0 -2.6
v -1 0.5 -2.6
v -1 0.6 -2.6
v -2.7 0.1 -2.7
v -2.7 0.2 -2.7
v -2.6 0.1 -2.7
v -2.6 0.2 -2.7
v -2.2 0 -2.7
v -2.2 0.2 -2.7
v -2.1 0 -2.7
v -2.1 0.2 -2.7
v -2.8 0.1 -2.8
v -2.8 0.2 -2.8
v -2.7 0.1 -2.8
v -2.7 0.2 -2.8
v -2.3 0 -2.8
v -2.3 0.2 -2.8
v -2.2 0 -2.8
v -2.2 0.2 -2.8
v -2.9 0.1 -2.9
v -2.9 0.2 -2.9
v -2.8 0.1 -2.9
v -2.8 0.2 -2.9
v -2.4 0 -2.9
v -2.4 0.2 -2.9
v -2.3 0 -2.9
v -2.3 0.2 -2.9
v -3 0.1 -3
v -3 0.2 -3
v -2.9 0.1 -3
v -2.9 0.2 -3
v -2.5 0 -3
v -2.5 0.2 -3
v -2.4 0 -3
v -2.4 0.2 -3
v -1.6 0.2 -3
v -1.6 0.3 -3
v -1.3 0.2 -3
v -1.3 0.3 -3
v -3.1 0.1 -3.1
v -3.1 0.2 -3.1
v -3 0.1 -3.1
v -3 0.2 -3.1
v -2.6 0 -3.1
v -2.6 0.2 -3.1
v -2.5 0 -3.1
v -2.5 0.2 -3.1
v -2.1 0 -3.1
v -2.1 0.1 -3.1
v -2.1 0.2 -3.1
v -2 0.2 -3.1
v -2 0.3 -3.1
v -1.9 0.2 -3.1
v -1.9 0.3 -3.1
v -1.8 0 -3.1
v -1.8 0.1 -3.1
v -1.8 0.2 -3.1
v -1.6 0 -3.1
v -1.6 0.1 -3.1
v -1.6 0.2 -3.1
v -1.3 0 -3.1
v -1.3 0.1 -3.1
v -1.3 0.2 -3.1
v -3.2 0 -3.2
v -3.2 0.2 -3.2
v -3.1 0 -3.2
v -3.1 0.1 -3.2
v -3.1 0.2 -3.2
v -2.7 0 -3.2
v -2.7 0.1 -3.2
v -2.7 0.2 -3.2
v -2.6 0 -3.2
v -2.6 0.2 -3.2
v -1.1 0 -1
v -1 0 -1
v -1.2 0 -1.1
v -1.1 0 -1.1
v -1 0 -1.1
v -1.3 0 -1.2
v -1.2 0 -1.2
v -1.1 0 -1.2
v -1.4 0 -1.3
v -1.3 0 -1.3
v -1.2 0 -1.3
v -1.5 0 -1.4
v -1.4 0 -1.4
v -1.3 0 -1.4
v -1.6 0 -1.5
v -1.5 0 -1.5
v -1.4 0 -1.5
v -1.1 0 -1.5
v -1 0 -1.5
v -1.7 0 -1.6
v -1.6 0 -1.6
v -1.5 0 -1.6
v -1.2 0 -1.6
v -1.1 0 -1.6
v -1 0 -1.6
v -1.8 0 -1.7
v -1.7 0 -1.7
v -1.6 0 -1.7
v -1.3 0 -1.7
v -1.2 0 -1.7
v -1.1 0 -1.7
v -1.9 0 -1.8
v -1.8 0 -1.8
v -1.7 0 -1.8
v -1.4 0 -1.8
v -1.3 0 -1.8
v -1.2 0 -1.8
v -2 0 -1.9
v -1.9 0 -1.9
v -1.8 0 -1.9
v -1.5 0 -1.9
v -1.4 0 -1.9
v -1.3 0 -1.9
v -1.2 0 -1.9
v -1 0 -1.9
v -2.1 0 -2
v -2 0 -2
v -1.9 0 -2
v -1.6 0 -2
v -1.5 0 -2
v -1.4 0 -2
v -2.2 0 -2.1
v -2.1 0 -2.1
v -2 0 -2.1
v -1.7 0 -2.1
v -1.6 0 -2.1
v -1.5 0 -2.1
v -1.2 0 -2.1
v -1 0 -2.1
v -2.3 0 -2.2
v -2.2 0 -2.2
v -2.1 0 -2.2
v -1.8 0 -2.2
v -1.7 0 -2.2
v -1.6 0 -2.2
v -2.4 0 -2.3
v -2.3 0 -2.3
v -2.2 0 -2.3
v -1.9 0 -2.3
v -1.8 0 -2.3
v -1.7 0 -2.3
v -1.3 0 -2.3
v -1 0 -2.3
v -2.5 0 -2.4
v -2.4 0 -2.4
v -2.3 0 -2.4
v -2 0 -2.4
v -1.9 0 -2.4
v -1.8 0 -2.4
v -2.6 0 -2.5
v -2.5 0 -2.5
v -2.4 0 -2.5
v -2.1 0 -2.5
v -2 0 -2.5
v -1.9 0 -2.5
v -2.7 0 -2.6
v -2.6 0 -2.6
v -2.5 0 -2.6
v -2.2 0 -2.6
v -2.1 0 -2.6
v -2 0 -2.6
v -1.3 0 -2.6
v -1 0 -2.6
v -2.8 0 -2.7
v -2.7 0 -2.7
v -2.6 0 -2.7
v -2.3 0 -2.7
v -2.2 0 -2.7
v -2.1 0 -2.7
v -2.9 0 -2.8
v -2.8 0 -2.8
v -2.7 0 -2.8
v -2.4 0 -2.8
v -2.3 0 -2.8
v -2.2 0 -2.8
v -1.6 0 -2.8
v -1.3 0 -2.8
v -3 0 -2.9
v -2.9 0 -2.9
v -2.8 0 -2.9
v -2.5 0 -2.9
v -2.4 0 -2.9
v -2.3 0 -2.9
v -2.1 0 -2.9
v -1.8 0 -2.9
v -3.1 0 -3
v -3 0 -3
v -2.9 0 -3
v -2.6 0 -3
v -2.5 0 -3
v -2.4 0 -3
v -3.2 0 -3.1
v -3.1 0 -3.1
v -3 0 -3.1
v -2.7 0 -3.1
v -2.6 0 -3.1
v -2.5 0 -3.1
v -2.1 0 -3.1
v -1.8 0 -3.1
v -1.6 0 -3.1
v -1.3 0 -3.1
v -3.2 0 -3.2
v -3.1 0 -3.2
v -2.7 0 -3.2
v -2.6 0 -3.2
v -1.1 0.1 -1.1
v -1 0.1 -1.1
v -1.2 0.1 -1.2
v -1.1 0.1 -1.2
v -1.3 0.1 -1.3
v -1.2 0.1 -1.3
v -1.4 0.1 -1.4
v -1.3 0.1 -1.4
v -1.5 0.1 -1.5
v -1.4 0.1 -1.5
v -1.1 0.1 -1.5
v -1 0.1 -1.5
v -1.6 0.1 -1.6
v -1.5 0.1 -1.6
v -1.2 0.1 -1.6
v -1.1 0.1 -1.6
v -1.7 0.1 -1.7
v -1.6 0.1 -1.7
v -1.3 0.1 -1.7
v -1.2 0.1 -1.7
v -1.8 0.1 -1.8
v -1.7 0.1 -1.8
v -1.4 0.1 -1.8
v -1.3 0.1 -1.8
v -1.9 0.1 -1.9
v -1.8 0.1 -1.9
v -1.5 0.1 -1.9
v -1.4 0.1 -1.9
v -2 0.1 -2
v -1.9 0.1 -2
v -1.6 0.1 -2
v -1.5 0.1 -2
v -2.1 0.1 -2.1
v -2 0.1 -2.1
v -1.7 0.1 -2.1
v -1.6 0.1 -2.1
v -2.2 0.1 -2.2
v -2.1 0.1 -2.2
v -1.8 0.1 -2.2
v -1.7 0.1 -2.2
v -2.3 0.1 -2.3
v -2.2 0.1 -2.3
v -1.9 0.1 -2.3
v -1.8 0.1 -2.3
v -2.4 0.1 -2.4
v -2.3 0.1 -2.4
v -2 0.1 -2.4
v -1.9 0.1 -2.4
v -2.5 0.1 -2.5
v -2.4 0.1 -2.5
v -2.1 0.1 -2.5
v -2 0.1 -2.5
v -2.6 0.1 -2.6
v -2.5 0.1 -2.6
v -2.2 0.1 -2.6
v -2.1 0.1 -2.6
v -2.7 0.1 -2.7
v -2.6 0.1 -2.7
v -2.3 0.1 -2.7
v -2.2 0.1 -2.7
v -2.8 0.1 -2.8
v -2.7 0.1 -2.8
v -2.4 0.1 -2.8
v -2.3 0.1 -2.8
v -2.9 0.1 -2.9
v -2.8 0.1 -2.9
v -2.5 0.1 -2.9
v -2.4 0.1 -2.9
v -3 0.1 -3
v -2.9 0.1 -3
v -2.6 0.1 -3
v -2.5 0.1 -3
v -3.1 0.1 -3.1
v -3 0.1 -3.1
v -2.7 0.1 -3.1
v -2.6 0.1 -3.1
v -3.1 0.1 -3.2
v -2.7 0.1 -3.2
v -1.1 0.2 -1
v -1 0.2 -1
v -1.2 0.2 -1.1
v -1.1 0.2 -1.1
v -1 0.2 -1.1
v -1.3 0.2 -1.2
v -1.2 0.2 -1.2
v -1.1 0.2 -1.2
v -1.4 0.2 -1.3
v -1.3 0.2 -1.3
v -1.2 0.2 -1.3
v -1.5 0.2 -1.4
v -1.4 0.2 -1.4
v -1.3 0.2 -1.4
v -1.6 0.2 -1.5
v -1.5 0.2 -1.5
v -1.4 0.2 -1.5
v -1.1 0.2 -1.5
v -1 0.2 -1.5
v -1.7 0.2 -1.6
v -1.6 0.2 -1.6
v -1.5 0.2 -1.6
v -1.2 0.2 -1.6
v -1.1 0.2 -1.6
v -1 0.2 -1.6
v -1.8 0.2 -1.7
v -1.7 0.2 -1.7
v -1.6 0.2 -1.7
v -1.3 0.2 -1.7
v -1.2 0.2 -1.7
v -1.1 0.2 -1.7
v -1.9 0.2 -1.8
v -1.8 0.2 -1.8
v -1.7 0.2 -1.8
v -1.4 0.2 -1.8
v -1.3 0.2 -1.8
v -1.2 0.2 -1.8
v -2 0.2 -1.9
v -1.9 0.2 -1.9
v -1.8 0.2 -1.9
v -1.5 0.2 -1.9
v -1.4 0.2 -1.9
v -1.3 0.2 -1.9
v -1.2 0.2 -1.9
v -1 0.2 -1.9
v -2.1 0.2 -2
v -2 0.2 -2
v -1.9 0.2 -2
v -1.6 0.2 -2
v -1.5 0.2 -2
v -1.4 0.2 -2
v -2.2 0.2 -2.1
v -2.1 0.2 -2.1
v -2 0.2 -2.1
v -1.7 0.2 -2.1
v -1.6 0.2 -2.1
v -1.5 0.2 -2.1
v -1.2 0.2 -2.1
v -1 0.2 -2.1
v -2.3 0.2 -2.2
v -2.2 0.2 -2.2
v -2.1 0.2 -2.2
v -1.8 0.2 -2.2
v -1.7 0.2 -2.2
v -1.6 0.2 -2.2
v -2.4 0.2 -2.3
v -2.3 0.2 -2.3
v -2.2 0.2 -2.3
v -1.9 0.2 -2.3
v -1.8 0.2 -2.3
v -1.7 0.2 -2.3
v -2.5 0.2 -2.4
v -2.4 0.2 -2.4
v -2.3 0.2 -2.4
v -2 0.2 -2.4
v -1.9 0.2 -2.4
v -1.8 0.2 -2.4
v -2.6 0.2 -2.5
v -2.5 0.2 -2.5
v -2.4 0.2 -2.5
v -2.1 0.2 -2.5
v -2 0.2 -2.5
v -1.9 0.2 -2.5
v -2.7 0.2 -2.6
v -2.6 0.2 -2.6
v -2.5 0.2 -2.6
v -2.2 0.2 -2.6
v -2.1 0.2 -2.6
v -2 0.2 -2.6
v -2.8 0.2 -2.7
v -2.7 0.2 -2.7
v -2.6 0.2 -2.7
v -2.3 0.2 -2.7
v -2.2 0.2 -2.7
v -2.1 0.2 -2.7
v -2.9 0.2 -2.8
v -2.8 0.2 -2.8
v -2.7 0.2 -2.8
v -2.4 0.2 -2.8
v -2.3 0.2 -2.8
v -2.2 0.2 -2.8
v -1.6 0.2 -2.8
v -1.3 0.2 -2.8
v -3 0.2 -2.9
v -2.9 0.2 -2.9
v -2.8 0.2 -2.9
v -2.5 0.2 -2.9
v -2.4 0.2 -2.9
v -2.3 0.2 -2.9
v -2.1 0.2 -2.9
v -2 0.2 -2.9
v -1.9 0.2 -2.9
v -1.8 0.2 -2.9
v -1.6 0.2 -2.9
v -1.3 0.2 -2.9
v -3.1 0.2 -3
v -3 0.2 -3
v -2.9 0.2 -3
v -2.6 0.2 -3
v -2.5 0.2 -3
v -2.4 0.2 -3
v -1.6 0.2 -3
v -1.3 0.2 -3
v -3.2 0.2 -3.1
v -3.1 0.2 -3.1
v -3 0.2 -3.1
v -2.7 0.2 -3.1
v -2.6 0.2 -3.1
v -2.5 0.2 -3.1
v -2.1 0.2 -3.1
v -2 0.2 -3.1
v -1.9 0.2 -3.1
v -1.8 0.2 -3.1
v -1.6 0.2 -3.1
v -1.3 0.2 -3.1
v -3.2 0.2 -3.2
v -3.1 0.2 -3.2
v -2.7 0.2 -3.2
v -2.6 0.2 -3.2
v -2 0.3 -2.9
v -1.9 0.3 -2.9
v -1.6 0.3 -2.9
v -1.3 0.3 -2.9
v -1.6 0.3 -3
v -1.3 0.3 -3
v -2 0.3 -3.1
v -1.9 0.3 -3.1
v -1.3 0.6 -2.3
v -1.2 0.6 -2.3
v -1.1 0.6 -2.3
v -1 0.6 -2.3
v -1.3 0.6 -2.4
v -1.2 0.6 -2.4
v -1.1 0.6 -2.4
v -1 0.6 -2.4
v -1.3 0.6 -2.5
v -1.2 0.6 -2.5
v -1.1 0.6 -2.5
v -1 0.6 -2.5
v -1.3 0.6 -2.6
v -1.2 0.6 -2.6
v -1.1 0.6 -2.6
v -1 0.6 -2.6
v -1.2 0.7 -2.3
v -1.1 0.7 -2.3
v -1.3 0.7 -2.4
v -1.2 0.7 -2.4
v -1.1 0.7 -2.4
v -1 0.7 -2.4
v -1.3 0.7 -2.5
v -1.2 0.7 -2.5
v -1.1 0.7 -2.5
v -1 0.7 -2.5
v -1.2 0.7 -2.6
v -1.1 0.7 -2.6
v -1.2 0.8 -2.4
v -1.1 0.8 -2.4
v -1.2 0.8 -2.5
v -1.1 0.8 -2.5

# faces
f 3/2/1 2/2/1 1/2/1
f 4/2/1 2/2/1 3/2/1
f 7/2/1 6/2/1 5/2/1
f 8/2/1 6/2/1 7/2/1
f 11/2/1 10/2/1 9/2/1
f 12/2/1 10/2/1 11/2/1
f 15/2/1 14/2/1 13/2/1
f 16/2/1 14/2/1 15/2/1
f 19/2/1 18/2/1 17/2/1
f 20/2/1 18/2/1 19/2/1
f 25/2/1 22/2/1 21/2/1
f 26/2/1 22/2/1 25/2/1
f 27/2/1 24/2/1 23/2/1
f 28/2/1 24/2/1 27/2/1
f 33/2/1 30/2/1 29/2/1
f 34/2/1 30/2/1 33/2/1
f 35/2/1 32/2/1 31/2/1
f 36/2/1 32/2/1 35/2/1
f 41/2/1 38/2/1 37/2/1
f 42/2/1 38/2/1 41/2/1
f 43/2/1 40/2/1 39/2/1
f 44/2/1 40/2/1 43/2/1
f 49/2/1 46/2/1 45/2/1
f 50/2/1 46/2/1 49/2/1
f 51/2/1 48/2/1 47/2/1
f 52/2/1 48/2/1 51/2/1
f 57/2/1 54/2/1 53/2/1
f 58/2/1 54/2/1 57/2/1
f 59/2/1 56/2/1 55/2/1
f 60/2/1 56/2/1 59/2/1
f 65/2/1 62/2/1 61/2/1
f 66/2/1 62/2/1 65/2/1
f 67/2/1 64/2/1 63/2/1
f 68/2/1 64/2/1 67/2/1
f 75/2/1 72/2/1 71/2/1
f 76/2/1 72/2/1 75/2/1
f 77/2/1 70/2/1 69/2/1
f 78/2/1 70/2/1 77/2/1
f 79/2/1 74/2/1 73/2/1
f 80/2/1 74/2/1 79/2/1
f 81/4/1 76/4/1 75/4/1
f 82/4/1 76/4/1 81/4/1
f 87/2/1 84/2/1 83/2/1
f 88/2/1 84/2/1 87/2/1
f 89/2/1 86/2/1 85/2/1
f 90/2/1 86/2/1 89/2/1
f 93/4/1 92/4/1 91/4/1
f 94/4/1 92/4/1 93/4/1
f 99/2/1 96/2/1 95/2/1
f 100/2/1 96/2/1 99/2/1
f 101/2/1 98/2/1 97/2/1
f 102/2/1 98/2/1 101/2/1
f 107/2/1 104/2/1 103/2/1
f 108/2/1 104/2/1 107/2/1
f 109/2/1 106/2/1 105/2/1
f 110/2/1 106/2/1 109/2/1
f 115/2/1 112/2/1 111/2/1
f 116/2/1 112/2/1 115/2/1
f 117/2/1 114/2/1 113/2/1
f 118/2/1 114/2/1 117/2/1
f 125/2/1 122/2/1 121/2/1
f 126/2/1 122/2/1 125/2/1
f 127/2/1 120/2/1 119/2/1
f 128/2/1 120/2/1 127/2/1
f 129/2/1 124/2/1 123/2/1
f 130/2/1 124/2/1 129/2/1
f 131/4/1 126/4/1 125/4/1
f 132/4/1 126/4/1 131/4/1
f 133/4/1 126/4/1 132/4/1
f 134/4/1 126/4/1 133/4/1
f 135/4/1 133/4/1 132/4/1
f 136/4/1 133/4/1 135/4/1
f 141/2/1 138/2/1 137/2/1
f 142/2/1 138/2/1 141/2/1
f 143/2/1 140/2/1 139/2/1
f 144/2/1 140/2/1 143/2/1
f 149/2/1 146/2/1 145/2/1
f 150/2/1 146/2/1 149/2/1
f 151/2/1 148/2/1 147/2/1
f 152/2/1 148/2/1 151/2/1
f 159/2/1 154/2/1 153/2/1
f 160/2/1 154/2/1 159/2/1
f 161/2/1 158/2/1 157/2/1
f 162/2/1 158/2/1 161/2/1
f 163/2/1 156/2/1 155/2/1
f 164/2/1 156/2/1 163/2/1
f 165/3/1 164/3/1 163/3/1
f 166/3/1 164/3/1 165/3/1
f 167/3/1 164/3/1 166/3/1
f 168/3/1 164/3/1 167/3/1
f 169/3/1 167/3/1 166/3/1
f 170/3/1 167/3/1 169/3/1
f 177/2/1 174/2/1 173/2/1
f 178/2/1 174/2/1 177/2/1
f 179/2/1 172/2/1 171/2/1
f 180/2/1 172/2/1 179/2/1
f 181/2/1 176/2/1 175/2/1
f 182/2/1 176/2/1 181/2/1
f 183/4/1 178/4/1 177/4/1
f 184/4/1 178/4/1 183/4/1
f 189/3/1 186/3/1 185/3/1
f 190/3/1 186/3/1 189/3/1
f 191/3/1 188/3/1 187/3/1
f 192/3/1 188/3/1 191/3/1
f 193/3/1 191/3/1 190/3/1
f 194/3/1 191/3/1 193/3/1
f 199/2/1 196/2/1 195/2/1
f 200/2/1 196/2/1 199/2/1
f 201/2/1 198/2/1 197/2/1
f 202/2/1 198/2/1 201/2/1
f 203/2/2 204/2/2 205/2/2
f 205/2/2 204/2/2 206/2/2
f 207/2/2 208/2/2 209/2/2
f 209/2/2 208/2/2 210/2/2
f 211/2/2 212/2/2 213/2/2
f 213/2/2 212/2/2 214/2/2
f 215/2/2 216/2/2 217/2/2
f 217/2/2 216/2/2 218/2/2
f 219/2/2 220/2/2 221/2/2
f 221/2/2 220/2/2 222/2/2
f 225/2/2 226/2/2 227/2/2
f 227/2/2 226/2/2 228/2/2
f 223/2/2 224/2/2 229/2/2
f 229/2/2 224/2/2 230/2/2
f 233/2/2 234/2/2 235/2/2
f 235/2/2 234/2/2 236/2/2
f 231/2/2 232/2/2 237/2/2
f 237/2/2 232/2/2 238/2/2
f 241/2/2 242/2/2 243/2/2
f 243/2/2 242/2/2 244/2/2
f 239/2/2 240/2/2 245/2/2
f 245/2/2 240/2/2 246/2/2
f 249/2/2 250/2/2 251/2/2
f 251/2/2 250/2/2 252/2/2
f 247/2/2 248/2/2 253/2/2
f 253/2/2 248/2/2 254/2/2
f 257/2/2 258/2/2 259/2/2
f 259/2/2 258/2/2 260/2/2
f 255/2/2 256/2/2 261/2/2
f 261/2/2 256/2/2 262/2/2
f 265/2/2 266/2/2 267/2/2
f 267/2/2 266/2/2 268/2/2
f 263/2/2 264/2/2 269/2/2
f 269/2/2 264/2/2 270/2/2
f 273/2/2 274/2/2 275/2/2
f 275/2/2 274/2/2 276/2/2
f 271/2/2 272/2/2 277/2/2
f 277/2/2 272/2/2 278/2/2
f 281/2/2 282/2/2 283/2/2
f 283/2/2 282/2/2 284/2/2
f 279/2/2 280/2/2 285/2/2
f 285/2/2 280/2/2 286/2/2
f 287/4/2 288/4/2 289/4/2
f 289/4/2 288/4/2 290/4/2
f 293/2/2 294/2/2 297/2/2
f 297/2/2 294/2/2 298/2/2
f 295/2/2 296/2/2 299/2/2
f 299/2/2 296/2/2 300/2/2
f 291/2/2 292/2/2 301/2/2
f 301/2/2 292/2/2 302/2/2
f 297/4/2 298/4/2 303/4/2
f 303/4/2 298/4/2 304/4/2
f 307/2/2 308/2/2 309/2/2
f 309/2/2 308/2/2 310/2/2
f 305/2/2 306/2/2 311/2/2
f 311/2/2 306/2/2 312/2/2
f 315/2/2 316/2/2 317/2/2
f 317/2/2 316/2/2 318/2/2
f 313/2/2 314/2/2 319/2/2
f 319/2/2 314/2/2 320/2/2
f 323/2/2 324/2/2 325/2/2
f 325/2/2 324/2/2 326/2/2
f 321/2/2 322/2/2 327/2/2
f 327/2/2 322/2/2 328/2/2
f 331/2/2 332/2/2 333/2/2
f 333/2/2 332/2/2 334/2/2
f 329/2/2 330/2/2 335/2/2
f 335/2/2 330/2/2 336/2/2
f 339/2/2 340/2/2 343/2/2
f 343/2/2 340/2/2 344/2/2
f 341/2/2 342/2/2 345/2/2
f 345/2/2 342/2/2 346/2/2
f 337/2/2 338/2/2 347/2/2
f 347/2/2 338/2/2 348/2/2
f 343/4/2 344/4/2 349/4/2
f 349/4/2 344/4/2 350/4/2
f 350/4/2 344/4/2 351/4/2
f 351/4/2 344/4/2 352/4/2
f 350/4/2 351/4/2 353/4/2
f 353/4/2 351/4/2 354/4/2
f 357/2/2 358/2/2 359/2/2
f 359/2/2 358/2/2 360/2/2
f 355/2/2 356/2/2 361/2/2
f 361/2/2 356/2/2 362/2/2
f 365/2/2 366/2/2 367/2/2
f 367/2/2 366/2/2 368/2/2
f 363/2/2 364/2/2 369/2/2
f 369/2/2 364/2/2 370/2/2
f 371/3/2 372/3/2 375/3/2
f 375/3/2 372/3/2 376/3/2
f 373/3/2 374/3/2 377/3/2
f 377/3/2 374/3/2 378/3/2
f 376/3/2 377/3/2 379/3/2
f 379/3/2 377/3/2 380/3/2
f 381/2/2 382/2/2 389/2/2
f 382/1/2 383/1/2 389/1/2
f 383/2/2 384/2/2 390/2/2
f 389/1/2 383/1/2 390/1/2
f 385/2/2 386/2/2 391/2/2
f 391/2/2 386/2/2 392/2/2
f 381/2/2 389/2/2 393/2/2
f 393/2/2 389/2/2 394/2/2
f 390/2/2 384/2/2 395/2/2
f 395/2/2 384/2/2 396/2/2
f 391/4/2 392/4/2 397/4/2
f 397/4/2 392/4/2 398/4/2
f 387/2/2 388/2/2 399/2/2
f 399/2/2 388/2/2 400/2/2
f 399/3/2 400/3/2 401/3/2
f 401/3/2 400/3/2 402/3/2
f 402/3/2 400/3/2 403/3/2
f 403/3/2 400/3/2 404/3/2
f 402/3/2 403/3/2 405/3/2
f 405/3/2 403/3/2 406/3/2
f 409/2/3 408/2/3 407/2/3
f 410/2/3 408/2/3 409/2/3
f 413/2/3 412/2/3 411/2/3
f 414/2/3 412/2/3 413/2/3
f 417/2/3 416/2/3 415/2/3
f 418/2/3 416/2/3 417/2/3
f 421/2/3 420/2/3 419/2/3
f 422/2/3 420/2/3 421/2/3
f 425/2/3 424/2/3 423/2/3
f 426/2/3 424/2/3 425/2/3
f 429/2/3 428/2/3 427/2/3
f 430/2/3 428/2/3 429/2/3
f 433/2/3 432/2/3 431/2/3
f 434/2/3 432/2/3 433/2/3
f 437/2/3 436/2/3 435/2/3
f 438/2/3 436/2/3 437/2/3
f 441/2/3 440/2/3 439/2/3
f 442/2/3 440/2/3 441/2/3
f 445/2/3 444/2/3 443/2/3
f 446/2/3 444/2/3 445/2/3
f 449/2/3 448/2/3 447/2/3
f 450/2/3 448/2/3 449/2/3
f 453/2/3 452/2/3 451/2/3
f 454/2/3 452/2/3 453/2/3
f 457/2/3 456/2/3 455/2/3
f 458/2/3 456/2/3 457/2/3
f 461/2/3 460/2/3 459/2/3
f 462/2/3 460/2/3 461/2/3
f 465/2/3 464/2/3 463/2/3
f 466/2/3 464/2/3 465/2/3
f 470/2/3 468/2/3 467/2/3
f 471/4/3 469/4/3 468/4/3
f 471/2/3 468/2/3 470/2/3
f 472/4/3 469/4/3 471/4/3
f 475/2/3 474/2/3 473/2/3
f 476/2/3 474/2/3 475/2/3
f 479/2/3 478/2/3 477/2/3
f 480/2/3 478/2/3 479/2/3
f 483/2/3 482/2/3 481/2/3
f 484/2/3 482/2/3 483/2/3
f 487/2/3 486/2/3 485/2/3
f 488/2/3 486/2/3 487/2/3
f 491/2/3 490/2/3 489/2/3
f 492/2/3 490/2/3 491/2/3
f 495/2/3 494/2/3 493/2/3
f 496/2/3 494/2/3 495/2/3
f 499/2/3 498/2/3 497/2/3
f 500/2/3 498/2/3 499/2/3
f 503/2/3 502/2/3 501/2/3
f 504/2/3 502/2/3 503/2/3
f 508/3/3 507/3/3 506/3/3
f 510/3/3 508/3/3 506/3/3
f 510/3/3 509/3/3 508/3/3
f 511/3/3 509/3/3 510/3/3
f 512/2/3 506/2/3 505/2/3
f 513/3/3 510/3/3 506/3/3
f 513/2/3 506/2/3 512/2/3
f 514/3/3 510/3/3 513/3/3
f 517/2/3 516/2/3 515/2/3
f 518/2/3 516/2/3 517/2/3
f 521/2/3 520/2/3 519/2/3
f 522/2/3 520/2/3 521/2/3
f 525/3/3 524/3/3 523/3/3
f 526/3/3 524/3/3 525/3/3
f 529/3/3 527/3/3 526/3/3
f 530/3/3 527/3/3 529/3/3
f 531/3/3 529/3/3 528/3/3
f 532/3/3 529/3/3 531/3/3
f 535/2/3 534/2/3 533/2/3
f 536/2/3 534/2/3 535/2/3
f 539/2/3 538/2/3 537/2/3
f 540/2/3 538/2/3 539/2/3
f 543/2/3 542/2/3 541/2/3
f 544/2/3 542/2/3 543/2/3
f 547/2/3 546/2/3 545/2/3
f 548/2/3 546/2/3 547/2/3
f 551/2/3 550/2/3 549/2/3
f 552/2/3 550/2/3 551/2/3
f 555/2/3 554/2/3 553/2/3
f 556/2/3 554/2/3 555/2/3
f 559/2/3 558/2/3 557/2/3
f 560/2/3 558/2/3 559/2/3
f 563/2/3 562/2/3 561/2/3
f 564/2/3 562/2/3 563/2/3
f 568/2/3 566/2/3 565/2/3
f 569/4/3 567/4/3 566/4/3
f 569/2/3 566/2/3 568/2/3
f 570/4/3 567/4/3 569/4/3
f 573/2/3 572/2/3 571/2/3
f 574/2/3 572/2/3 573/2/3
f 577/2/3 576/2/3 575/2/3
f 578/2/3 576/2/3 577/2/3
f 582/4/3 581/4/3 580/4/3
f 584/4/3 582/4/3 580/4/3
f 584/4/3 583/4/3 582/4/3
f 585/4/3 583/4/3 584/4/3
f 586/2/3 580/2/3 579/2/3
f 587/4/3 584/4/3 580/4/3
f 587/2/3 580/2/3 586/2/3
f 588/4/3 584/4/3 587/4/3
f 591/4/3 590/4/3 589/4/3
f 592/4/3 590/4/3 591/4/3
f 595/2/3 594/2/3 593/2/3
f 596/2/3 594/2/3 595/2/3
f 599/2/3 598/2/3 597/2/3
f 600/2/3 598/2/3 599/2/3
f 603/2/3 602/2/3 601/2/3
f 604/2/3 602/2/3 603/2/3
f 607/2/3 606/2/3 605/2/3
f 608/2/3 606/2/3 607/2/3
f 609/2/4 610/2/4 611/2/4
f 611/2/4 610/2/4 612/2/4
f 613/2/4 614/2/4 615/2/4
f 615/2/4 614/2/4 616/2/4
f 617/2/4 618/2/4 619/2/4
f 619/2/4 618/2/4 620/2/4
f 621/2/4 622/2/4 623/2/4
f 623/2/4 622/2/4 624/2/4
f 625/2/4 626/2/4 627/2/4
f 627/2/4 626/2/4 628/2/4
f 629/2/4 630/2/4 631/2/4
f 631/2/4 630/2/4 632/2/4
f 633/2/4 634/2/4 635/2/4
f 635/2/4 634/2/4 636/2/4
f 637/2/4 638/2/4 639/2/4
f 639/2/4 638/2/4 640/2/4
f 641/2/4 642/2/4 643/2/4
f 643/2/4 642/2/4 644/2/4
f 645/2/4 646/2/4 647/2/4
f 647/2/4 646/2/4 648/2/4
f 649/2/4 650/2/4 651/2/4
f 651/2/4 650/2/4 652/2/4
f 653/2/4 654/2/4 655/2/4
f 655/2/4 654/2/4 656/2/4
f 657/2/4 658/2/4 659/2/4
f 659/2/4 658/2/4 660/2/4
f 661/2/4 662/2/4 663/2/4
f 663/2/4 662/2/4 664/2/4
f 665/2/4 666/2/4 667/2/4
f 667/2/4 666/2/4 668/2/4
f 669/2/4 670/2/4 671/2/4
f 671/2/4 670/2/4 672/2/4
f 673/2/4 674/2/4 675/2/4
f 675/2/4 674/2/4 676/2/4
f 677/2/4 678/2/4 680/2/4
f 678/4/4 679/4/4 681/4/4
f 680/2/4 678/2/4 681/2/4
f 681/4/4 679/4/4 682/4/4
f 683/2/4 684/2/4 685/2/4
f 685/2/4 684/2/4 686/2/4
f 687/2/4 688/2/4 689/2/4
f 689/2/4 688/2/4 690/2/4
f 691/2/4 692/2/4 693/2/4
f 693/2/4 692/2/4 694/2/4
f 695/2/4 696/2/4 697/2/4
f 697/2/4 696/2/4 698/2/4
f 699/2/4 700/2/4 701/2/4
f 701/2/4 700/2/4 702/2/4
f 703/2/4 704/2/4 705/2/4
f 705/2/4 704/2/4 706/2/4
f 707/2/4 708/2/4 709/2/4
f 709/2/4 708/2/4 710/2/4
f 711/2/4 712/2/4 713/2/4
f 713/2/4 712/2/4 714/2/4
f 715/3/4 716/3/4 717/3/4
f 717/3/4 716/3/4 718/3/4
f 718/3/4 719/3/4 721/3/4
f 721/3/4 719/3/4 722/3/4
f 720/3/4 721/3/4 723/3/4
f 723/3/4 721/3/4 724/3/4
f 725/2/4 726/2/4 727/2/4
f 727/2/4 726/2/4 728/2/4
f 729/2/4 730/2/4 731/2/4
f 731/2/4 730/2/4 732/2/4
f 734/3/4 735/3/4 736/3/4
f 734/3/4 736/3/4 738/3/4
f 736/3/4 737/3/4 738/3/4
f 738/3/4 737/3/4 739/3/4
f 733/2/4 734/2/4 740/2/4
f 734/3/4 738/3/4 741/3/4
f 740/2/4 734/2/4 741/2/4
f 741/3/4 738/3/4 742/3/4
f 743/2/4 744/2/4 745/2/4
f 745/2/4 744/2/4 746/2/4
f 747/2/4 748/2/4 749/2/4
f 749/2/4 748/2/4 750/2/4
f 751/2/4 752/2/4 753/2/4
f 753/2/4 752/2/4 754/2/4
f 755/2/4 756/2/4 757/2/4
f 757/2/4 756/2/4 758/2/4
f 759/2/4 760/2/4 761/2/4
f 761/2/4 760/2/4 762/2/4
f 763/2/4 764/2/4 765/2/4
f 765/2/4 764/2/4 766/2/4
f 767/2/4 768/2/4 769/2/4
f 769/2/4 768/2/4 770/2/4
f 771/2/4 772/2/4 773/2/4
f 773/2/4 772/2/4 774/2/4
f 775/4/4 776/4/4 777/4/4
f 777/4/4 776/4/4 778/4/4
f 779/2/4 780/2/4 781/2/4
f 781/2/4 780/2/4 782/2/4
f 783/2/4 784/2/4 785/2/4
f 785/2/4 784/2/4 786/2/4
f 788/4/4 789/4/4 790/4/4
f 788/4/4 790/4/4 792/4/4
f 790/4/4 791/4/4 792/4/4
f 792/4/4 791/4/4 793/4/4
f 787/2/4 788/2/4 794/2/4
f 788/4/4 792/4/4 795/4/4
f 794/2/4 788/2/4 795/2/4
f 795/4/4 792/4/4 796/4/4
f 797/2/4 798/2/4 800/2/4
f 798/4/4 799/4/4 801/4/4
f 800/2/4 798/2/4 801/2/4
f 801/4/4 799/4/4 802/4/4
f 803/2/4 804/2/4 805/2/4
f 805/2/4 804/2/4 806/2/4
f 806/2/4 804/2/4 807/2/4
f 805/1/4 806/1/4 808/1/4
f 808/1/4 806/1/4 809/1/4
f 808/2/4 809/2/4 811/2/4
f 809/2/4 810/2/4 811/2/4
f 811/2/4 810/2/4 812/2/4
f 816/2/5 814/2/5 813/2/5
f 817/2/5 814/2/5 816/2/5
f 819/2/5 816/2/5 815/2/5
f 820/1/5 817/1/5 816/1/5
f 820/2/5 816/2/5 819/2/5
f 822/2/5 819/2/5 818/2/5
f 823/1/5 820/1/5 819/1/5
f 823/2/5 819/2/5 822/2/5
f 825/2/5 822/2/5 821/2/5
f 826/1/5 823/1/5 822/1/5
f 826/2/5 822/2/5 825/2/5
f 828/2/5 825/2/5 824/2/5
f 829/1/5 826/1/5 825/1/5
f 829/2/5 825/2/5 828/2/5
f 830/1/5 817/1/5 820/1/5
f 830/1/5 826/1/5 829/1/5
f 830/1/5 820/1/5 823/1/5
f 830/1/5 823/1/5 826/1/5
f 831/1/5 817/1/5 830/1/5
f 833/2/5 828/2/5 827/2/5
f 834/1/5 829/1/5 828/1/5
f 834/1/5 830/1/5 829/1/5
f 834/2/5 828/2/5 833/2/5
f 835/1/5 830/1/5 834/1/5
f 836/2/5 831/2/5 830/2/5
f 836/1/5 830/1/5 835/1/5
f 837/2/5 831/2/5 836/2/5
f 839/2/5 833/2/5 832/2/5
f 840/1/5 835/1/5 834/1/5
f 840/1/5 834/1/5 833/1/5
f 840/2/5 833/2/5 839/2/5
f 841/1/5 835/1/5 840/1/5
f 842/2/5 836/2/5 835/2/5
f 842/1/5 835/1/5 841/1/5
f 843/2/5 836/2/5 842/2/5
f 845/2/5 839/2/5 838/2/5
f 846/1/5 841/1/5 840/1/5
f 846/1/5 840/1/5 839/1/5
f 846/2/5 839/2/5 845/2/5
f 847/1/5 841/1/5 846/1/5
f 848/2/5 842/2/5 841/2/5
f 848/1/5 841/1/5 847/1/5
f 849/2/5 842/2/5 848/2/5
f 851/2/5 845/2/5 844/2/5
f 852/1/5 847/1/5 846/1/5
f 852/1/5 846/1/5 845/1/5
f 852/2/5 845/2/5 851/2/5
f 853/1/5 847/1/5 852/1/5
f 854/2/5 848/2/5 847/2/5
f 854/1/5 847/1/5 853/1/5
f 855/2/5 848/2/5 854/2/5
f 859/2/5 851/2/5 850/2/5
f 860/1/5 852/1/5 851/1/5
f 860/1/5 853/1/5 852/1/5
f 860/2/5 851/2/5 859/2/5
f 861/1/5 853/1/5 860/1/5
f 862/2/5 854/2/5 853/2/5
f 862/1/5 853/1/5 861/1/5
f 863/2/5 854/2/5 862/2/5
f 865/2/5 859/2/5 858/2/5
f 866/1/5 861/1/5 860/1/5
f 866/1/5 860/1/5 859/1/5
f 866/2/5 859/2/5 865/2/5
f 867/1/5 861/1/5 866/1/5
f 868/2/5 862/2/5 861/2/5
f 868/1/5 861/1/5 867/1/5
f 869/2/5 862/2/5 868/2/5
f 870/2/5 857/2/5 856/2/5
f 871/2/5 857/2/5 870/2/5
f 873/2/5 865/2/5 864/2/5
f 874/1/5 867/1/5 866/1/5
f 874/1/5 866/1/5 865/1/5
f 874/2/5 865/2/5 873/2/5
f 875/1/5 867/1/5 874/1/5
f 876/2/5 868/2/5 867/2/5
f 876/1/5 867/1/5 875/1/5
f 877/2/5 868/2/5 876/2/5
f 879/2/5 873/2/5 872/2/5
f 880/1/5 875/1/5 874/1/5
f 880/1/5 874/1/5 873/1/5
f 880/2/5 873/2/5 879/2/5
f 881/1/5 875/1/5 880/1/5
f 882/2/5 876/2/5 875/2/5
f 882/1/5 875/1/5 881/1/5
f 883/2/5 876/2/5 882/2/5
f 887/2/5 879/2/5 878/2/5
f 888/1/5 881/1/5 880/1/5
f 888/1/5 880/1/5 879/1/5
f 888/2/5 879/2/5 887/2/5
f 889/1/5 881/1/5 888/1/5
f 890/2/5 882/2/5 881/2/5
f 890/1/5 881/1/5 889/1/5
f 891/2/5 882/2/5 890/2/5
f 893/2/5 887/2/5 886/2/5
f 894/1/5 889/1/5 888/1/5
f 894/1/5 888/1/5 887/1/5
f 894/2/5 887/2/5 893/2/5
f 895/1/5 889/1/5 894/1/5
f 896/2/5 890/2/5 889/2/5
f 896/1/5 889/1/5 895/1/5
f 897/2/5 890/2/5 896/2/5
f 899/2/5 893/2/5 892/2/5
f 900/1/5 895/1/5 894/1/5
f 900/1/5 894/1/5 893/1/5
f 900/2/5 893/2/5 899/2/5
f 901/1/5 895/1/5 900/1/5
f 902/2/5 896/2/5 895/2/5
f 902/1/5 895/1/5 901/1/5
f 903/2/5 896/2/5 902/2/5
f 904/2/5 885/2/5 884/2/5
f 905/2/5 885/2/5 904/2/5
f 907/2/5 899/2/5 898/2/5
f 908/1/5 900/1/5 899/1/5
f 908/1/5 901/1/5 900/1/5
f 908/2/5 899/2/5 907/2/5
f 909/1/5 901/1/5 908/1/5
f 910/2/5 902/2/5 901/2/5
f 910/1/5 901/1/5 909/1/5
f 911/2/5 902/2/5 910/2/5
f 913/2/5 907/2/5 906/2/5
f 914/1/5 909/1/5 908/1/5
f 914/1/5 908/1/5 907/1/5
f 914/2/5 907/2/5 913/2/5
f 915/1/5 909/1/5 914/1/5
f 916/2/5 910/2/5 909/2/5
f 916/1/5 909/1/5 915/1/5
f 917/2/5 910/2/5 916/2/5
f 921/2/5 913/2/5 912/2/5
f 922/1/5 915/1/5 914/1/5
f 922/1/5 914/1/5 913/1/5
f 922/2/5 913/2/5 921/2/5
f 923/1/5 915/1/5 922/1/5
f 924/2/5 916/2/5 915/2/5
f 924/1/5 915/1/5 923/1/5
f 925/2/5 916/2/5 924/2/5
f 929/2/5 921/2/5 920/2/5
f 930/1/5 923/1/5 922/1/5
f 930/1/5 922/1/5 921/1/5
f 930/2/5 921/2/5 929/2/5
f 931/1/5 923/1/5 930/1/5
f 932/2/5 924/2/5 923/2/5
f 932/1/5 923/1/5 931/1/5
f 933/2/5 924/2/5 932/2/5
f 935/2/5 929/2/5 928/2/5
f 936/1/5 931/1/5 930/1/5
f 936/1/5 930/1/5 929/1/5
f 936/2/5 929/2/5 935/2/5
f 937/1/5 931/1/5 936/1/5
f 938/2/5 932/2/5 931/2/5
f 938/1/5 931/1/5 937/1/5
f 939/2/5 932/2/5 938/2/5
f 940/2/5 927/2/5 926/2/5
f 941/2/5 927/2/5 940/2/5
f 942/2/5 919/2/5 918/2/5
f 943/2/5 919/2/5 942/2/5
f 944/2/5 935/2/5 934/2/5
f 945/1/5 937/1/5 936/1/5
f 945/2/5 935/2/5 944/2/5
f 945/1/5 936/1/5 935/1/5
f 946/2/5 938/2/5 937/2/5
f 946/1/5 937/1/5 945/1/5
f 947/2/5 938/2/5 946/2/5
f 948/1/6 949/1/6 951/1/6
f 950/1/6 951/1/6 953/1/6
f 952/1/6 953/1/6 955/1/6
f 954/1/6 955/1/6 957/1/6
f 951/1/6 949/1/6 958/1/6
f 953/1/6 951/1/6 958/1/6
f 957/1/6 955/1/6 958/1/6
f 955/1/6 953/1/6 958/1/6
f 958/1/6 949/1/6 959/1/6
f 956/1/6 957/1/6 961/1/6
f 957/1/6 958/1/6 961/1/6
f 961/1/6 958/1/6 962/1/6
f 962/1/6 958/1/6 963/1/6
f 960/1/6 961/1/6 965/1/6
f 961/1/6 962/1/6 965/1/6
f 965/1/6 962/1/6 966/1/6
f 966/1/6 962/1/6 967/1/6
f 964/1/6 965/1/6 969/1/6
f 965/1/6 966/1/6 969/1/6
f 969/1/6 966/1/6 970/1/6
f 970/1/6 966/1/6 971/1/6
f 968/1/6 969/1/6 973/1/6
f 969/1/6 970/1/6 973/1/6
f 973/1/6 970/1/6 974/1/6
f 974/1/6 970/1/6 975/1/6
f 972/1/6 973/1/6 977/1/6
f 973/1/6 974/1/6 977/1/6
f 977/1/6 974/1/6 978/1/6
f 978/1/6 974/1/6 979/1/6
f 976/1/6 977/1/6 981/1/6
f 977/1/6 978/1/6 981/1/6
f 981/1/6 978/1/6 982/1/6
f 982/1/6 978/1/6 983/1/6
f 980/1/6 981/1/6 985/1/6
f 981/1/6 982/1/6 985/1/6
f 985/1/6 982/1/6 986/1/6
f 986/1/6 982/1/6 987/1/6
f 984/1/6 985/1/6 989/1/6
f 985/1/6 986/1/6 989/1/6
f 989/1/6 986/1/6 990/1/6
f 990/1/6 986/1/6 991/1/6
f 988/1/6 989/1/6 993/1/6
f 989/1/6 990/1/6 993/1/6
f 993/1/6 990/1/6 994/1/6
f 994/1/6 990/1/6 995/1/6
f 992/1/6 993/1/6 997/1/6
f 993/1/6 994/1/6 997/1/6
f 997/1/6 994/1/6 998/1/6
f 998/1/6 994/1/6 999/1/6
f 996/1/6 997/1/6 1001/1/6
f 997/1/6 998/1/6 1001/1/6
f 1001/1/6 998/1/6 1002/1/6
f 1002/1/6 998/1/6 1003/1/6
f 1000/1/6 1001/1/6 1005/1/6
f 1001/1/6 1002/1/6 1005/1/6
f 1005/1/6 1002/1/6 1006/1/6
f 1006/1/6 1002/1/6 1007/1/6
f 1004/1/6 1005/1/6 1009/1/6
f 1005/1/6 1006/1/6 1009/1/6
f 1009/1/6 1006/1/6 1010/1/6
f 1010/1/6 1006/1/6 1011/1/6
f 1008/1/6 1009/1/6 1013/1/6
f 1009/1/6 1010/1/6 1013/1/6
f 1013/1/6 1010/1/6 1014/1/6
f 1014/1/6 1010/1/6 1015/1/6
f 1012/1/6 1013/1/6 1017/1/6
f 1013/1/6 1014/1/6 1017/1/6
f 1017/1/6 1014/1/6 1018/1/6
f 1018/1/6 1014/1/6 1019/1/6
f 1016/1/6 1017/1/6 1021/1/6
f 1017/1/6 1018/1/6 1021/1/6
f 1021/1/6 1018/1/6 1022/1/6
f 1022/1/6 1018/1/6 1023/1/6
f 1020/1/6 1021/1/6 1024/1/6
f 1021/1/6 1022/1/6 1024/1/6
f 1024/1/6 1022/1/6 1025/1/6
f 1026/2/6 1027/2/6 1029/2/6
f 1029/2/6 1027/2/6 1030/2/6
f 1028/2/6 1029/2/6 1032/2/6
f 1032/2/6 1029/2/6 1033/2/6
f 1031/2/6 1032/2/6 1035/2/6
f 1035/2/6 1032/2/6 1036/2/6
f 1034/2/6 1035/2/6 1038/2/6
f 1038/2/6 1035/2/6 1039/2/6
f 1037/2/6 1038/2/6 1041/2/6
f 1041/2/6 1038/2/6 1042/2/6
f 1040/2/6 1041/2/6 1046/2/6
f 1046/2/6 1041/2/6 1047/2/6
f 1043/2/6 1044/2/6 1049/2/6
f 1049/2/6 1044/2/6 1050/2/6
f 1045/2/6 1046/2/6 1052/2/6
f 1052/2/6 1046/2/6 1053/2/6
f 1048/2/6 1049/2/6 1055/2/6
f 1055/2/6 1049/2/6 1056/2/6
f 1051/2/6 1052/2/6 1058/2/6
f 1058/2/6 1052/2/6 1059/2/6
f 1054/2/6 1055/2/6 1061/2/6
f 1061/2/6 1055/2/6 1062/2/6
f 1057/2/6 1058/2/6 1064/2/6
f 1064/2/6 1058/2/6 1065/2/6
f 1060/2/6 1061/2/6 1067/2/6
f 1067/2/6 1061/2/6 1068/2/6
f 1063/2/6 1064/2/6 1072/2/6
f 1072/2/6 1064/2/6 1073/2/6
f 1066/2/6 1067/2/6 1075/2/6
f 1075/2/6 1067/2/6 1076/2/6
f 1071/2/6 1072/2/6 1078/2/6
f 1078/2/6 1072/2/6 1079/2/6
f 1074/2/6 1075/2/6 1081/2/6
f 1081/2/6 1075/2/6 1082/2/6
f 1069/4/6 1070/4/6 1083/4/6
f 1083/4/6 1070/4/6 1084/4/6
f 1077/2/6 1078/2/6 1086/2/6
f 1086/2/6 1078/2/6 1087/2/6
f 1080/2/6 1081/2/6 1089/2/6
f 1089/2/6 1081/2/6 1090/2/6
f 1085/2/6 1086/2/6 1092/2/6
f 1092/2/6 1086/2/6 1093/2/6
f 1088/2/6 1089/2/6 1095/2/6
f 1095/2/6 1089/2/6 1096/2/6
f 1091/2/6 1092/2/6 1098/2/6
f 1098/2/6 1092/2/6 1099/2/6
f 1094/2/6 1095/2/6 1101/2/6
f 1101/2/6 1095/2/6 1102/2/6
f 1097/2/6 1098/2/6 1104/2/6
f 1104/2/6 1098/2/6 1105/2/6
f 1100/2/6 1101/2/6 1107/2/6
f 1107/2/6 1101/2/6 1108/2/6
f 1103/2/6 1104/2/6 1110/2/6
f 1110/2/6 1104/2/6 1111/2/6
f 1106/2/6 1107/2/6 1113/2/6
f 1113/2/6 1107/2/6 1114/2/6
f 1109/2/6 1110/2/6 1116/2/6
f 1116/2/6 1110/2/6 1117/2/6
f 1112/2/6 1113/2/6 1119/2/6
f 1119/2/6 1113/2/6 1120/2/6
f 1115/2/6 1116/2/6 1122/2/6
f 1122/2/6 1116/2/6 1123/2/6
f 1118/2/6 1119/2/6 1125/2/6
f 1125/2/6 1119/2/6 1126/2/6
f 1121/2/6 1122/2/6 1130/2/6
f 1130/2/6 1122/2/6 1131/2/6
f 1124/2/6 1125/2/6 1133/2/6
f 1133/2/6 1125/2/6 1134/2/6
f 1127/4/6 1128/4/6 1139/4/6
f 1139/4/6 1128/4/6 1140/4/6
f 1129/2/6 1130/2/6 1142/2/6
f 1142/2/6 1130/2/6 1143/2/6
f 1132/2/6 1133/2/6 1145/2/6
f 1145/2/6 1133/2/6 1146/2/6
f 1141/2/6 1142/2/6 1150/2/6
f 1150/2/6 1142/2/6 1151/2/6
f 1144/2/6 1145/2/6 1153/2/6
f 1153/2/6 1145/2/6 1154/2/6
f 1135/4/6 1136/4/6 1155/4/6
f 1155/4/6 1136/4/6 1156/4/6
f 1137/4/6 1138/4/6 1157/4/6
f 1157/4/6 1138/4/6 1158/4/6
f 1147/4/6 1148/4/6 1159/4/6
f 1159/4/6 1148/4/6 1160/4/6
f 1149/2/6 1150/2/6 1161/2/6
f 1161/2/6 1150/2/6 1162/2/6
f 1152/2/6 1153/2/6 1163/2/6
f 1163/2/6 1153/2/6 1164/2/6
f 1167/4/6 1168/4/6 1169/4/6
f 1169/4/6 1168/4/6 1170/4/6
f 1165/4/6 1166/4/6 1171/4/6
f 1171/4/6 1166/4/6 1172/4/6
f 1173/3/6 1174/3/6 1177/3/6
f 1177/3/6 1174/3/6 1178/3/6
f 1175/3/6 1176/3/6 1179/3/6
f 1179/3/6 1176/3/6 1180/3/6
f 1181/3/6 1182/3/6 1185/3/6
f 1185/3/6 1182/3/6 1186/3/6
f 1183/3/6 1184/3/6 1187/3/6
f 1187/3/6 1184/3/6 1188/3/6
f 1189/3/6 1190/3/6 1192/3/6
f 1192/3/6 1190/3/6 1193/3/6
f 1191/3/6 1192/3/6 1195/3/6
f 1195/3/6 1192/3/6 1196/3/6
f 1193/3/6 1194/3/6 1197/3/6
f 1197/3/6 1194/3/6 1198/3/6
f 1196/3/6 1197/3/6 1199/3/6
f 1199/3/6 1197/3/6 1200/3/6
f 1201/3/6 1202/3/6 1203/3/6
f 1203/3/6 1202/3/6 1204/3/6
