# MagicaVoxel @ Ephtracy

# group
o 

# material
mtllib monasterio.mtl
usemtl palette

# normals
vn -1 0 0
vn 1 0 0
vn 0 0 1
vn 0 0 -1
vn 0 -1 0
vn 0 1 0

# texcoords
vt 0.279297 0.5
vt 0.306641 0.5

# verts
v -0.2 0 0.9
v -0.2 0 0.2
v -0.2 0.3 0.9
v -0.2 0.3 0.2
v -0.2 0.4 0.9
v -0.2 0.4 0.2
v -0.2 0.7 0.2
v -0.2 0.7 -0.2
v -0.2 0.8 0.2
v -0.2 0.8 0.1
v -0.2 0.8 -0.1
v -0.2 0.8 -0.2
v -0.2 0.9 0.1
v -0.2 0.9 -0.1
v -0.0999999 0 0.2
v -0.0999999 0 0.1
v -0.0999999 0 -0.1
v -0.0999999 0 -0.2
v -0.0999999 0.2 0.1
v -0.0999999 0.2 -0.1
v -0.0999999 0.3 0.2
v -0.0999999 0.4 0.9
v -0.0999999 0.4 0.2
v -0.0999999 0.5 0.9
v -0.0999999 0.5 0.2
v -0.0999999 0.7 0.3
v -0.0999999 0.7 0.2
v -0.0999999 0.7 -0.2
v -0.0999999 0.7 -0.3
v -0.0999999 0.8 0.3
v -0.0999999 0.8 0.2
v -0.0999999 0.8 0.1
v -0.0999999 0.8 -0.1
v -0.0999999 0.8 -0.2
v -0.0999999 0.8 -0.3
v -0.0999999 0.9 0.2
v -0.0999999 0.9 0.1
v -0.0999999 0.9 -0.1
v -0.0999999 0.9 -0.2
v -0.0999999 1.1 0.1
v -0.0999999 1.1 -0.1
v 5.96046e-08 0.5 0.9
v 5.96046e-08 0.5 0.2
v 5.96046e-08 0.6 0.9
v 5.96046e-08 0.6 0.2
v 5.96046e-08 0.8 0.3
v 5.96046e-08 0.8 0.2
v 5.96046e-08 0.8 -0.2
v 5.96046e-08 0.8 -0.3
v 5.96046e-08 0.9 0.3
v 5.96046e-08 0.9 0.2
v 5.96046e-08 0.9 0.1
v 5.96046e-08 0.9 -0.1
v 5.96046e-08 0.9 -0.2
v 5.96046e-08 0.9 -0.3
v 5.96046e-08 1.1 0.2
v 5.96046e-08 1.1 0.1
v 5.96046e-08 1.1 -0.1
v 5.96046e-08 1.1 -0.2
v 5.96046e-08 1.3 0.1
v 5.96046e-08 1.3 -0.1
v 0.2 0 0.9
v 0.2 0 0.8
v 0.2 0 0.2
v 0.2 0 0.1
v 0.2 0 -0.1
v 0.2 0 -0.2
v 0.2 0.2 0.9
v 0.2 0.2 0.8
v 0.2 0.2 0.2
v 0.2 0.2 0.1
v 0.2 0.2 -0.1
v 0.2 0.2 -0.2
v 0.2 0.7 0.1
v 0.2 0.7 -0.1
v 0.3 0 0.8
v 0.3 0 0.2
v 0.3 0.3 0.8
v 0.3 0.3 0.2
v -0.0999999 0 0.8
v -0.0999999 0 0.2
v -0.0999999 0.3 0.8
v -0.0999999 0.3 0.2
v 5.96046e-08 0 0.9
v 5.96046e-08 0 0.8
v 5.96046e-08 0 0.2
v 5.96046e-08 0 0.1
v 5.96046e-08 0 -0.1
v 5.96046e-08 0 -0.2
v 5.96046e-08 0.2 0.9
v 5.96046e-08 0.2 0.8
v 5.96046e-08 0.2 0.2
v 5.96046e-08 0.2 0.1
v 5.96046e-08 0.2 -0.1
v 5.96046e-08 0.2 -0.2
v 5.96046e-08 0.7 0.1
v 5.96046e-08 0.7 -0.1
v 0.2 0.5 0.9
v 0.2 0.5 0.2
v 0.2 0.6 0.9
v 0.2 0.6 0.2
v 0.2 0.8 0.3
v 0.2 0.8 0.2
v 0.2 0.8 -0.2
v 0.2 0.8 -0.3
v 0.2 0.9 0.3
v 0.2 0.9 0.2
v 0.2 0.9 0.1
v 0.2 0.9 -0.1
v 0.2 0.9 -0.2
v 0.2 0.9 -0.3
v 0.2 1.1 0.2
v 0.2 1.1 0.1
v 0.2 1.1 -0.1
v 0.2 1.1 -0.2
v 0.2 1.3 0.1
v 0.2 1.3 -0.1
v 0.3 0 0.2
v 0.3 0 0.1
v 0.3 0 -0.1
v 0.3 0 -0.2
v 0.3 0.2 0.1
v 0.3 0.2 -0.1
v 0.3 0.3 0.2
v 0.3 0.4 0.9
v 0.3 0.4 0.2
v 0.3 0.5 0.9
v 0.3 0.5 0.2
v 0.3 0.7 0.3
v 0.3 0.7 0.2
v 0.3 0.7 -0.2
v 0.3 0.7 -0.3
v 0.3 0.8 0.3
v 0.3 0.8 0.2
v 0.3 0.8 0.1
v 0.3 0.8 -0.1
v 0.3 0.8 -0.2
v 0.3 0.8 -0.3
v 0.3 0.9 0.2
v 0.3 0.9 0.1
v 0.3 0.9 -0.1
v 0.3 0.9 -0.2
v 0.3 1.1 0.1
v 0.3 1.1 -0.1
v 0.4 0 0.9
v 0.4 0 0.2
v 0.4 0.3 0.9
v 0.4 0.3 0.2
v 0.4 0.4 0.9
v 0.4 0.4 0.2
v 0.4 0.7 0.2
v 0.4 0.7 -0.2
v 0.4 0.8 0.2
v 0.4 0.8 0.1
v 0.4 0.8 -0.1
v 0.4 0.8 -0.2
v 0.4 0.9 0.1
v 0.4 0.9 -0.1
v -0.2 0 0.9
v -0.2 0.3 0.9
v -0.2 0.4 0.9
v -0.0999999 0.4 0.9
v -0.0999999 0.5 0.9
v 5.96046e-08 0 0.9
v 5.96046e-08 0.2 0.9
v 5.96046e-08 0.5 0.9
v 5.96046e-08 0.6 0.9
v 0.2 0 0.9
v 0.2 0.2 0.9
v 0.2 0.5 0.9
v 0.2 0.6 0.9
v 0.3 0.4 0.9
v 0.3 0.5 0.9
v 0.4 0 0.9
v 0.4 0.3 0.9
v 0.4 0.4 0.9
v -0.0999999 0.7 0.3
v -0.0999999 0.8 0.3
v 5.96046e-08 0.8 0.3
v 5.96046e-08 0.9 0.3
v 0.2 0.8 0.3
v 0.2 0.9 0.3
v 0.3 0.7 0.3
v 0.3 0.8 0.3
v -0.2 0.7 0.2
v -0.2 0.8 0.2
v -0.0999999 0 0.2
v -0.0999999 0.3 0.2
v -0.0999999 0.5 0.2
v -0.0999999 0.7 0.2
v -0.0999999 0.8 0.2
v -0.0999999 0.9 0.2
v 5.96046e-08 0 0.2
v 5.96046e-08 0.2 0.2
v 5.96046e-08 0.5 0.2
v 5.96046e-08 0.6 0.2
v 5.96046e-08 0.8 0.2
v 5.96046e-08 0.9 0.2
v 5.96046e-08 1.1 0.2
v 0.2 0 0.2
v 0.2 0.2 0.2
v 0.2 0.5 0.2
v 0.2 0.6 0.2
v 0.2 0.8 0.2
v 0.2 0.9 0.2
v 0.2 1.1 0.2
v 0.3 0 0.2
v 0.3 0.3 0.2
v 0.3 0.5 0.2
v 0.3 0.7 0.2
v 0.3 0.8 0.2
v 0.3 0.9 0.2
v 0.4 0.7 0.2
v 0.4 0.8 0.2
v -0.2 0.8 0.1
v -0.2 0.9 0.1
v -0.0999999 0.8 0.1
v -0.0999999 0.9 0.1
v -0.0999999 1.1 0.1
v 5.96046e-08 0.9 0.1
v 5.96046e-08 1.1 0.1
v 5.96046e-08 1.3 0.1
v 0.2 0.9 0.1
v 0.2 1.1 0.1
v 0.2 1.3 0.1
v 0.3 0.8 0.1
v 0.3 0.9 0.1
v 0.3 1.1 0.1
v 0.4 0.8 0.1
v 0.4 0.9 0.1
v -0.0999999 0 -0.1
v -0.0999999 0.2 -0.1
v 5.96046e-08 0 -0.1
v 5.96046e-08 0.2 -0.1
v 5.96046e-08 0.7 -0.1
v 0.2 0 -0.1
v 0.2 0.2 -0.1
v 0.2 0.7 -0.1
v 0.3 0 -0.1
v 0.3 0.2 -0.1
v -0.0999999 0 0.8
v -0.0999999 0.3 0.8
v 5.96046e-08 0 0.8
v 5.96046e-08 0.2 0.8
v 0.2 0 0.8
v 0.2 0.2 0.8
v 0.3 0 0.8
v 0.3 0.3 0.8
v -0.2 0 0.2
v -0.2 0.3 0.2
v -0.2 0.4 0.2
v -0.0999999 0 0.2
v -0.0999999 0.3 0.2
v -0.0999999 0.4 0.2
v 0.3 0 0.2
v 0.3 0.3 0.2
v 0.3 0.4 0.2
v 0.4 0 0.2
v 0.4 0.3 0.2
v 0.4 0.4 0.2
v -0.0999999 0 0.1
v -0.0999999 0.2 0.1
v 5.96046e-08 0 0.1
v 5.96046e-08 0.2 0.1
v 5.96046e-08 0.7 0.1
v 0.2 0 0.1
v 0.2 0.2 0.1
v 0.2 0.7 0.1
v 0.3 0 0.1
v 0.3 0.2 0.1
v -0.2 0.8 -0.1
v -0.2 0.9 -0.1
v -0.0999999 0.8 -0.1
v -0.0999999 0.9 -0.1
v -0.0999999 1.1 -0.1
v 5.96046e-08 0.9 -0.1
v 5.96046e-08 1.1 -0.1
v 5.96046e-08 1.3 -0.1
v 0.2 0.9 -0.1
v 0.2 1.1 -0.1
v 0.2 1.3 -0.1
v 0.3 0.8 -0.1
v 0.3 0.9 -0.1
v 0.3 1.1 -0.1
v 0.4 0.8 -0.1
v 0.4 0.9 -0.1
v -0.2 0.7 -0.2
v -0.2 0.8 -0.2
v -0.0999999 0 -0.2
v -0.0999999 0.7 -0.2
v -0.0999999 0.8 -0.2
v -0.0999999 0.9 -0.2
v 5.96046e-08 0 -0.2
v 5.96046e-08 0.2 -0.2
v 5.96046e-08 0.8 -0.2
v 5.96046e-08 0.9 -0.2
v 5.96046e-08 1.1 -0.2
v 0.2 0 -0.2
v 0.2 0.2 -0.2
v 0.2 0.8 -0.2
v 0.2 0.9 -0.2
v 0.2 1.1 -0.2
v 0.3 0 -0.2
v 0.3 0.7 -0.2
v 0.3 0.8 -0.2
v 0.3 0.9 -0.2
v 0.4 0.7 -0.2
v 0.4 0.8 -0.2
v -0.0999999 0.7 -0.3
v -0.0999999 0.8 -0.3
v 5.96046e-08 0.8 -0.3
v 5.96046e-08 0.9 -0.3
v 0.2 0.8 -0.3
v 0.2 0.9 -0.3
v 0.3 0.7 -0.3
v 0.3 0.8 -0.3
v -0.2 0 0.9
v 5.96046e-08 0 0.9
v 0.2 0 0.9
v 0.4 0 0.9
v -0.0999999 0 0.8
v 5.96046e-08 0 0.8
v 0.2 0 0.8
v 0.3 0 0.8
v -0.2 0 0.2
v -0.0999999 0 0.2
v 5.96046e-08 0 0.2
v 0.2 0 0.2
v 0.3 0 0.2
v 0.4 0 0.2
v -0.0999999 0 0.1
v 5.96046e-08 0 0.1
v 0.2 0 0.1
v 0.3 0 0.1
v -0.0999999 0 -0.1
v 5.96046e-08 0 -0.1
v 0.2 0 -0.1
v 0.3 0 -0.1
v -0.0999999 0 -0.2
v 5.96046e-08 0 -0.2
v 0.2 0 -0.2
v 0.3 0 -0.2
v 5.96046e-08 0.2 0.9
v 0.2 0.2 0.9
v 5.96046e-08 0.2 0.8
v 0.2 0.2 0.8
v 5.96046e-08 0.2 0.2
v 0.2 0.2 0.2
v -0.0999999 0.2 0.1
v 5.96046e-08 0.2 0.1
v 0.2 0.2 0.1
v 0.3 0.2 0.1
v -0.0999999 0.2 -0.1
v 5.96046e-08 0.2 -0.1
v 0.2 0.2 -0.1
v 0.3 0.2 -0.1
v 5.96046e-08 0.2 -0.2
v 0.2 0.2 -0.2
v -0.0999999 0.3 0.8
v 0.3 0.3 0.8
v -0.0999999 0.3 0.2
v 0.3 0.3 0.2
v -0.0999999 0.7 0.3
v 0.3 0.7 0.3
v -0.2 0.7 0.2
v -0.0999999 0.7 0.2
v 0.3 0.7 0.2
v 0.4 0.7 0.2
v 5.96046e-08 0.7 0.1
v 0.2 0.7 0.1
v 5.96046e-08 0.7 -0.1
v 0.2 0.7 -0.1
v -0.2 0.7 -0.2
v -0.0999999 0.7 -0.2
v 0.3 0.7 -0.2
v 0.4 0.7 -0.2
v -0.0999999 0.7 -0.3
v 0.3 0.7 -0.3
v -0.2 0.4 0.9
v -0.0999999 0.4 0.9
v 0.3 0.4 0.9
v 0.4 0.4 0.9
v -0.2 0.4 0.2
v -0.0999999 0.4 0.2
v 0.3 0.4 0.2
v 0.4 0.4 0.2
v -0.0999999 0.5 0.9
v 5.96046e-08 0.5 0.9
v 0.2 0.5 0.9
v 0.3 0.5 0.9
v -0.0999999 0.5 0.2
v 5.96046e-08 0.5 0.2
v 0.2 0.5 0.2
v 0.3 0.5 0.2
v 5.96046e-08 0.6 0.9
v 0.2 0.6 0.9
v 5.96046e-08 0.6 0.2
v 0.2 0.6 0.2
v -0.0999999 0.8 0.3
v 5.96046e-08 0.8 0.3
v 0.2 0.8 0.3
v 0.3 0.8 0.3
v -0.2 0.8 0.2
v -0.0999999 0.8 0.2
v 5.96046e-08 0.8 0.2
v 0.2 0.8 0.2
v 0.3 0.8 0.2
v 0.4 0.8 0.2
v -0.2 0.8 0.1
v -0.0999999 0.8 0.1
v 0.3 0.8 0.1
v 0.4 0.8 0.1
v -0.2 0.8 -0.1
v -0.0999999 0.8 -0.1
v 0.3 0.8 -0.1
v 0.4 0.8 -0.1
v -0.2 0.8 -0.2
v -0.0999999 0.8 -0.2
v 5.96046e-08 0.8 -0.2
v 0.2 0.8 -0.2
v 0.3 0.8 -0.2
v 0.4 0.8 -0.2
v -0.0999999 0.8 -0.3
v 5.96046e-08 0.8 -0.3
v 0.2 0.8 -0.3
v 0.3 0.8 -0.3
v 5.96046e-08 0.9 0.3
v 0.2 0.9 0.3
v -0.0999999 0.9 0.2
v 5.96046e-08 0.9 0.2
v 0.2 0.9 0.2
v 0.3 0.9 0.2
v -0.2 0.9 0.1
v -0.0999999 0.9 0.1
v 5.96046e-08 0.9 0.1
v 0.2 0.9 0.1
v 0.3 0.9 0.1
v 0.4 0.9 0.1
v -0.2 0.9 -0.1
v -0.0999999 0.9 -0.1
v 5.96046e-08 0.9 -0.1
v 0.2 0.9 -0.1
v 0.3 0.9 -0.1
v 0.4 0.9 -0.1
v -0.0999999 0.9 -0.2
v 5.96046e-08 0.9 -0.2
v 0.2 0.9 -0.2
v 0.3 0.9 -0.2
v 5.96046e-08 0.9 -0.3
v 0.2 0.9 -0.3
v 5.96046e-08 1.1 0.2
v 0.2 1.1 0.2
v -0.0999999 1.1 0.1
v 5.96046e-08 1.1 0.1
v 0.2 1.1 0.1
v 0.3 1.1 0.1
v -0.0999999 1.1 -0.1
v 5.96046e-08 1.1 -0.1
v 0.2 1.1 -0.1
v 0.3 1.1 -0.1
v 5.96046e-08 1.1 -0.2
v 0.2 1.1 -0.2
v 5.96046e-08 1.3 0.1
v 0.2 1.3 0.1
v 5.96046e-08 1.3 -0.1
v 0.2 1.3 -0.1

# faces
f 3/2/1 2/2/1 1/2/1
f 4/2/1 2/2/1 3/2/1
f 5/1/1 4/1/1 3/1/1
f 6/1/1 4/1/1 5/1/1
f 9/1/1 8/1/1 7/1/1
f 10/1/1 8/1/1 9/1/1
f 11/1/1 8/1/1 10/1/1
f 12/1/1 8/1/1 11/1/1
f 13/1/1 11/1/1 10/1/1
f 14/1/1 11/1/1 13/1/1
f 19/2/1 16/2/1 15/2/1
f 20/2/1 18/2/1 17/2/1
f 21/2/1 19/2/1 15/2/1
f 21/2/1 20/2/1 19/2/1
f 23/2/1 20/2/1 21/2/1
f 24/1/1 23/1/1 22/1/1
f 25/2/1 20/2/1 23/2/1
f 25/1/1 23/1/1 24/1/1
f 27/2/1 20/2/1 25/2/1
f 28/2/1 18/2/1 20/2/1
f 28/2/1 20/2/1 27/2/1
f 30/1/1 27/1/1 26/1/1
f 31/1/1 27/1/1 30/1/1
f 34/1/1 29/1/1 28/1/1
f 35/1/1 29/1/1 34/1/1
f 36/1/1 32/1/1 31/1/1
f 37/1/1 32/1/1 36/1/1
f 38/1/1 34/1/1 33/1/1
f 39/1/1 34/1/1 38/1/1
f 40/1/1 38/1/1 37/1/1
f 41/1/1 38/1/1 40/1/1
f 44/1/1 43/1/1 42/1/1
f 45/1/1 43/1/1 44/1/1
f 50/1/1 47/1/1 46/1/1
f 51/1/1 47/1/1 50/1/1
f 54/1/1 49/1/1 48/1/1
f 55/1/1 49/1/1 54/1/1
f 56/1/1 52/1/1 51/1/1
f 57/1/1 52/1/1 56/1/1
f 58/1/1 54/1/1 53/1/1
f 59/1/1 54/1/1 58/1/1
f 60/1/1 58/1/1 57/1/1
f 61/1/1 58/1/1 60/1/1
f 68/2/1 63/2/1 62/2/1
f 69/2/1 63/2/1 68/2/1
f 70/2/1 65/2/1 64/2/1
f 71/2/1 65/2/1 70/2/1
f 72/2/1 67/2/1 66/2/1
f 73/2/1 67/2/1 72/2/1
f 74/2/1 72/2/1 71/2/1
f 75/2/1 72/2/1 74/2/1
f 78/2/1 77/2/1 76/2/1
f 79/2/1 77/2/1 78/2/1
f 80/2/2 81/2/2 82/2/2
f 82/2/2 81/2/2 83/2/2
f 84/2/2 85/2/2 90/2/2
f 90/2/2 85/2/2 91/2/2
f 86/2/2 87/2/2 92/2/2
f 92/2/2 87/2/2 93/2/2
f 88/2/2 89/2/2 94/2/2
f 94/2/2 89/2/2 95/2/2
f 93/2/2 94/2/2 96/2/2
f 96/2/2 94/2/2 97/2/2
f 98/1/2 99/1/2 100/1/2
f 100/1/2 99/1/2 101/1/2
f 102/1/2 103/1/2 106/1/2
f 106/1/2 103/1/2 107/1/2
f 104/1/2 105/1/2 110/1/2
f 110/1/2 105/1/2 111/1/2
f 107/1/2 108/1/2 112/1/2
f 112/1/2 108/1/2 113/1/2
f 109/1/2 110/1/2 114/1/2
f 114/1/2 110/1/2 115/1/2
f 113/1/2 114/1/2 116/1/2
f 116/1/2 114/1/2 117/1/2
f 118/2/2 119/2/2 122/2/2
f 120/2/2 121/2/2 123/2/2
f 118/2/2 122/2/2 124/2/2
f 122/2/2 123/2/2 124/2/2
f 124/2/2 123/2/2 126/2/2
f 125/1/2 126/1/2 127/1/2
f 126/2/2 123/2/2 128/2/2
f 127/1/2 126/1/2 128/1/2
f 128/2/2 123/2/2 130/2/2
f 123/2/2 121/2/2 131/2/2
f 130/2/2 123/2/2 131/2/2
f 129/1/2 130/1/2 133/1/2
f 133/1/2 130/1/2 134/1/2
f 131/1/2 132/1/2 137/1/2
f 137/1/2 132/1/2 138/1/2
f 134/1/2 135/1/2 139/1/2
f 139/1/2 135/1/2 140/1/2
f 136/1/2 137/1/2 141/1/2
f 141/1/2 137/1/2 142/1/2
f 140/1/2 141/1/2 143/1/2
f 143/1/2 141/1/2 144/1/2
f 145/2/2 146/2/2 147/2/2
f 147/2/2 146/2/2 148/2/2
f 147/1/2 148/1/2 149/1/2
f 149/1/2 148/1/2 150/1/2
f 151/1/2 152/1/2 153/1/2
f 153/1/2 152/1/2 154/1/2
f 154/1/2 152/1/2 155/1/2
f 155/1/2 152/1/2 156/1/2
f 154/1/2 155/1/2 157/1/2
f 157/1/2 155/1/2 158/1/2
f 162/1/3 161/1/3 160/1/3
f 164/2/3 160/2/3 159/2/3
f 165/2/3 160/2/3 164/2/3
f 166/1/3 163/1/3 162/1/3
f 169/2/3 160/2/3 165/2/3
f 170/1/3 166/1/3 162/1/3
f 170/1/3 167/1/3 166/1/3
f 171/1/3 167/1/3 170/1/3
f 172/1/3 162/1/3 160/1/3
f 172/1/3 170/1/3 162/1/3
f 173/1/3 170/1/3 172/1/3
f 174/2/3 169/2/3 168/2/3
f 175/2/3 160/2/3 169/2/3
f 175/2/3 169/2/3 174/2/3
f 175/1/3 172/1/3 160/1/3
f 176/1/3 172/1/3 175/1/3
f 179/1/3 178/1/3 177/1/3
f 181/1/3 179/1/3 177/1/3
f 181/1/3 180/1/3 179/1/3
f 182/1/3 180/1/3 181/1/3
f 183/1/3 181/1/3 177/1/3
f 184/1/3 181/1/3 183/1/3
f 190/1/3 186/1/3 185/1/3
f 191/1/3 186/1/3 190/1/3
f 193/2/3 188/2/3 187/2/3
f 194/2/3 188/2/3 193/2/3
f 195/2/3 190/2/3 189/2/3
f 196/2/3 190/2/3 195/2/3
f 197/1/3 192/1/3 191/1/3
f 198/1/3 192/1/3 197/1/3
f 201/2/3 188/2/3 194/2/3
f 203/2/3 190/2/3 196/2/3
f 205/1/3 199/1/3 198/1/3
f 206/1/3 199/1/3 205/1/3
f 207/2/3 201/2/3 200/2/3
f 208/2/3 188/2/3 201/2/3
f 208/2/3 201/2/3 207/2/3
f 209/2/3 203/2/3 202/2/3
f 210/2/3 190/2/3 203/2/3
f 210/2/3 203/2/3 209/2/3
f 211/1/3 205/1/3 204/1/3
f 212/1/3 205/1/3 211/1/3
f 213/1/3 211/1/3 210/1/3
f 214/1/3 211/1/3 213/1/3
f 217/1/3 216/1/3 215/1/3
f 218/1/3 216/1/3 217/1/3
f 220/1/3 219/1/3 218/1/3
f 221/1/3 219/1/3 220/1/3
f 224/1/3 222/1/3 221/1/3
f 225/1/3 222/1/3 224/1/3
f 227/1/3 224/1/3 223/1/3
f 228/1/3 224/1/3 227/1/3
f 229/1/3 227/1/3 226/1/3
f 230/1/3 227/1/3 229/1/3
f 233/2/3 232/2/3 231/2/3
f 234/2/3 232/2/3 233/2/3
f 237/2/3 235/2/3 234/2/3
f 238/2/3 235/2/3 237/2/3
f 239/2/3 237/2/3 236/2/3
f 240/2/3 237/2/3 239/2/3
f 241/2/4 242/2/4 243/2/4
f 243/2/4 242/2/4 244/2/4
f 244/2/4 242/2/4 246/2/4
f 245/2/4 246/2/4 247/2/4
f 246/2/4 242/2/4 248/2/4
f 247/2/4 246/2/4 248/2/4
f 249/2/4 250/2/4 252/2/4
f 250/1/4 251/1/4 253/1/4
f 252/2/4 250/2/4 253/2/4
f 253/1/4 251/1/4 254/1/4
f 255/2/4 256/2/4 258/2/4
f 256/1/4 257/1/4 259/1/4
f 258/2/4 256/2/4 259/2/4
f 259/1/4 257/1/4 260/1/4
f 261/2/4 262/2/4 263/2/4
f 263/2/4 262/2/4 264/2/4
f 264/2/4 265/2/4 267/2/4
f 267/2/4 265/2/4 268/2/4
f 266/2/4 267/2/4 269/2/4
f 269/2/4 267/2/4 270/2/4
f 271/1/4 272/1/4 273/1/4
f 273/1/4 272/1/4 274/1/4
f 274/1/4 275/1/4 276/1/4
f 276/1/4 275/1/4 277/1/4
f 277/1/4 278/1/4 280/1/4
f 280/1/4 278/1/4 281/1/4
f 279/1/4 280/1/4 283/1/4
f 283/1/4 280/1/4 284/1/4
f 282/1/4 283/1/4 285/1/4
f 285/1/4 283/1/4 286/1/4
f 287/1/4 288/1/4 290/1/4
f 290/1/4 288/1/4 291/1/4
f 289/2/4 290/2/4 293/2/4
f 293/2/4 290/2/4 294/2/4
f 291/1/4 292/1/4 295/1/4
f 295/1/4 292/1/4 296/1/4
f 294/2/4 290/2/4 299/2/4
f 296/1/4 297/1/4 301/1/4
f 301/1/4 297/1/4 302/1/4
f 298/2/4 299/2/4 303/2/4
f 299/2/4 290/2/4 304/2/4
f 303/2/4 299/2/4 304/2/4
f 300/1/4 301/1/4 305/1/4
f 305/1/4 301/1/4 306/1/4
f 304/1/4 305/1/4 307/1/4
f 307/1/4 305/1/4 308/1/4
f 309/1/4 310/1/4 311/1/4
f 309/1/4 311/1/4 313/1/4
f 311/1/4 312/1/4 313/1/4
f 313/1/4 312/1/4 314/1/4
f 309/1/4 313/1/4 315/1/4
f 315/1/4 313/1/4 316/1/4
f 321/2/5 318/2/5 317/2/5
f 322/2/5 318/2/5 321/2/5
f 323/2/5 320/2/5 319/2/5
f 324/2/5 320/2/5 323/2/5
f 325/2/5 321/2/5 317/2/5
f 326/2/5 321/2/5 325/2/5
f 329/2/5 320/2/5 324/2/5
f 330/2/5 320/2/5 329/2/5
f 331/2/5 327/2/5 326/2/5
f 332/2/5 327/2/5 331/2/5
f 333/2/5 329/2/5 328/2/5
f 334/2/5 329/2/5 333/2/5
f 339/2/5 336/2/5 335/2/5
f 340/2/5 336/2/5 339/2/5
f 341/2/5 338/2/5 337/2/5
f 342/2/5 338/2/5 341/2/5
f 345/2/5 344/2/5 343/2/5
f 346/2/5 344/2/5 345/2/5
f 350/2/5 348/2/5 347/2/5
f 351/2/5 348/2/5 350/2/5
f 353/2/5 350/2/5 349/2/5
f 354/2/5 350/2/5 353/2/5
f 355/2/5 352/2/5 351/2/5
f 356/2/5 352/2/5 355/2/5
f 357/2/5 355/2/5 354/2/5
f 358/2/5 355/2/5 357/2/5
f 361/1/5 360/1/5 359/1/5
f 362/1/5 360/1/5 361/1/5
f 366/1/5 364/1/5 363/1/5
f 367/1/5 364/1/5 366/1/5
f 371/1/5 370/1/5 369/1/5
f 372/1/5 370/1/5 371/1/5
f 373/1/5 366/1/5 365/1/5
f 374/1/5 366/1/5 373/1/5
f 375/1/5 368/1/5 367/1/5
f 376/1/5 368/1/5 375/1/5
f 377/1/5 375/1/5 374/1/5
f 378/1/5 375/1/5 377/1/5
f 379/1/6 380/1/6 383/1/6
f 383/1/6 380/1/6 384/1/6
f 381/1/6 382/1/6 385/1/6
f 385/1/6 382/1/6 386/1/6
f 387/1/6 388/1/6 391/1/6
f 391/1/6 388/1/6 392/1/6
f 389/1/6 390/1/6 393/1/6
f 393/1/6 390/1/6 394/1/6
f 395/1/6 396/1/6 397/1/6
f 397/1/6 396/1/6 398/1/6
f 399/1/6 400/1/6 404/1/6
f 404/1/6 400/1/6 405/1/6
f 401/1/6 402/1/6 406/1/6
f 406/1/6 402/1/6 407/1/6
f 403/1/6 404/1/6 409/1/6
f 409/1/6 404/1/6 410/1/6
f 407/1/6 408/1/6 411/1/6
f 411/1/6 408/1/6 412/1/6
f 413/1/6 414/1/6 417/1/6
f 417/1/6 414/1/6 418/1/6
f 415/1/6 416/1/6 421/1/6
f 421/1/6 416/1/6 422/1/6
f 418/1/6 419/1/6 423/1/6
f 423/1/6 419/1/6 424/1/6
f 420/1/6 421/1/6 425/1/6
f 425/1/6 421/1/6 426/1/6
f 427/1/6 428/1/6 430/1/6
f 430/1/6 428/1/6 431/1/6
f 429/1/6 430/1/6 434/1/6
f 434/1/6 430/1/6 435/1/6
f 431/1/6 432/1/6 436/1/6
f 436/1/6 432/1/6 437/1/6
f 433/1/6 434/1/6 439/1/6
f 439/1/6 434/1/6 440/1/6
f 437/1/6 438/1/6 443/1/6
f 443/1/6 438/1/6 444/1/6
f 440/1/6 441/1/6 445/1/6
f 445/1/6 441/1/6 446/1/6
f 442/1/6 443/1/6 447/1/6
f 447/1/6 443/1/6 448/1/6
f 446/1/6 447/1/6 449/1/6
f 449/1/6 447/1/6 450/1/6
f 451/1/6 452/1/6 454/1/6
f 454/1/6 452/1/6 455/1/6
f 453/1/6 454/1/6 457/1/6
f 457/1/6 454/1/6 458/1/6
f 455/1/6 456/1/6 459/1/6
f 459/1/6 456/1/6 460/1/6
f 458/1/6 459/1/6 461/1/6
f 461/1/6 459/1/6 462/1/6
f 463/1/6 464/1/6 465/1/6
f 465/1/6 464/1/6 466/1/6
