# MagicaVoxel @ Ephtracy

# group
o 

# material
mtllib side_city_wall_plus.mtl
usemtl palette

# normals
vn -1 0 0
vn 1 0 0
vn 0 0 1
vn 0 0 -1
vn 0 -1 0
vn 0 1 0

# texcoords
vt 0.0371094 0.5
vt 0.373047 0.5
vt 0.826172 0.5
vt 0.849609 0.5

# verts
v -1 0 -1
v -1 0 -1.1
v -1 0 -1.4
v -1 0 -1.5
v -1 0.2 -1.1
v -1 0.2 -1.4
v -1 0.3 -1.1
v -1 0.3 -1.4
v -1 0.4 -1
v -1 0.4 -1.1
v -1 0.4 -1.4
v -1 0.4 -1.5
v -0.9 0 -1.1
v -0.9 0 -1.4
v -0.9 0 -1.7
v -0.9 0 -2.2
v -0.9 0 -2.4
v -0.9 0 -3
v -0.9 0.1 -1.1
v -0.9 0.1 -1.4
v -0.9 0.1 -1.7
v -0.9 0.1 -2.2
v -0.9 0.1 -2.4
v -0.9 0.1 -3
v -0.9 0.2 -1.7
v -0.9 0.2 -2.2
v -0.9 0.2 -2.4
v -0.9 0.2 -2.8
v -0.9 0.2 -2.9
v -0.9 0.2 -3
v -0.9 0.3 -2.8
v -0.9 0.3 -2.9
v -0.8 0.2 -1.7
v -0.8 0.2 -2.2
v -0.8 0.2 -2.4
v -0.8 0.2 -2.8
v -0.8 0.2 -2.9
v -0.8 0.2 -3
v -0.8 0.3 -1.7
v -0.8 0.3 -2.2
v -0.8 0.3 -2.4
v -0.8 0.3 -2.8
v -0.8 0.3 -2.9
v -0.8 0.3 -3
v -0.6 0 -1
v -0.6 0 -1.1
v -0.6 0 -1.4
v -0.6 0 -1.5
v -0.6 0.1 -1.1
v -0.6 0.1 -1.4
v -0.6 0.2 -1
v -0.6 0.2 -1.1
v -0.6 0.2 -1.4
v -0.6 0.2 -1.5
v -0.6 0.3 -1
v -0.6 0.3 -1.1
v -0.6 0.3 -1.4
v -0.6 0.3 -1.5
v -0.6 0.4 -1
v -0.6 0.4 -1.1
v -0.6 0.4 -1.4
v -0.6 0.4 -1.5
v -0.5 0 -2.2
v -0.5 0 -2.5
v -0.5 0.1 -2.2
v -0.5 0.1 -2.5
v -0.5 0.2 -2.2
v -0.5 0.2 -2.3
v -0.5 0.2 -2.4
v -0.5 0.2 -2.5
v -0.5 0.3 -2.3
v -0.5 0.3 -2.4
v -0.2 0 -2.6
v -0.2 0 -3.1
v -0.2 0.1 -2.6
v -0.2 0.1 -2.8
v -0.2 0.2 -2.6
v -0.2 0.2 -2.8
v -0.2 0.2 -3.1
v -0.2 0.3 -2.8
v -0.2 0.3 -3.1
v -0.0999999 0.2 -2.6
v -0.0999999 0.2 -2.8
v -0.0999999 0.3 -2.6
v -0.0999999 0.3 -2.8
v 0.1 0 -2.2
v 0.1 0 -2.5
v 0.1 0.5 -2.2
v 0.1 0.5 -2.5
v 0.1 0.6 -2.2
v 0.1 0.6 -2.3
v 0.1 0.6 -2.4
v 0.1 0.6 -2.5
v 0.1 0.7 -2.3
v 0.1 0.7 -2.4
v 0.2 0.6 -2.2
v 0.2 0.6 -2.3
v 0.2 0.6 -2.4
v 0.2 0.6 -2.5
v 0.2 0.7 -2.2
v 0.2 0.7 -2.3
v 0.2 0.7 -2.4
v 0.2 0.7 -2.5
v 0.2 0.8 -2.3
v 0.2 0.8 -2.4
v 0.3 0 -1.7
v 0.3 0 -2
v 0.3 0.1 -1.7
v 0.3 0.1 -2
v 0.3 0.2 -1.7
v 0.3 0.2 -1.8
v 0.3 0.2 -1.9
v 0.3 0.2 -2
v 0.3 0.3 -1.8
v 0.3 0.3 -1.9
v 0.5 0 -2.3
v 0.5 0 -2.6
v 0.5 0.1 -1
v 0.5 0.1 -1.1
v 0.5 0.1 -1.4
v 0.5 0.1 -1.5
v 0.5 0.1 -2.3
v 0.5 0.1 -2.6
v 0.5 0.2 -1.1
v 0.5 0.2 -1.4
v 0.5 0.2 -2.3
v 0.5 0.2 -2.4
v 0.5 0.2 -2.5
v 0.5 0.2 -2.6
v 0.5 0.3 -1.1
v 0.5 0.3 -1.4
v 0.5 0.3 -2.4
v 0.5 0.3 -2.5
v 0.5 0.4 -1
v 0.5 0.4 -1.1
v 0.5 0.4 -1.4
v 0.5 0.4 -1.5
v 0.6 0 -2
v 0.6 0 -2.2
v 0.6 0 -2.7
v 0.6 0 -3.1
v 0.6 0.1 -2
v 0.6 0.1 -2.7
v 0.6 0.1 -3.1
v 0.6 0.2 -1.7
v 0.6 0.2 -1.8
v 0.6 0.2 -1.9
v 0.6 0.2 -2
v 0.6 0.2 -2.2
v 0.6 0.2 -2.7
v 0.6 0.2 -2.8
v 0.6 0.2 -2.9
v 0.6 0.2 -3.1
v 0.6 0.3 -1.7
v 0.6 0.3 -1.8
v 0.6 0.3 -1.9
v 0.6 0.3 -2.2
v 0.6 0.3 -2.8
v 0.6 0.3 -2.9
v 0.7 0.2 -2.7
v 0.7 0.2 -2.8
v 0.7 0.2 -2.9
v 0.7 0.2 -3.1
v 0.7 0.3 -1.7
v 0.7 0.3 -2.2
v 0.7 0.3 -2.7
v 0.7 0.3 -2.8
v 0.7 0.3 -2.9
v 0.7 0.3 -3.1
v 0.7 0.4 -1.7
v 0.7 0.4 -2.2
v 0.9 0 -1
v 0.9 0 -1.1
v 0.9 0 -1.4
v 0.9 0 -1.5
v 0.9 0.1 -1.1
v 0.9 0.1 -1.4
v 0.9 0.2 -1
v 0.9 0.2 -1.1
v 0.9 0.2 -1.4
v 0.9 0.2 -1.5
v 0.9 0.3 -1
v 0.9 0.3 -1.1
v 0.9 0.3 -1.4
v 0.9 0.3 -1.5
v 0.9 0.4 -1
v 0.9 0.4 -1.1
v 0.9 0.4 -1.4
v 0.9 0.4 -1.5
v -0.9 0 -1
v -0.9 0 -1.1
v -0.9 0 -1.4
v -0.9 0 -1.5
v -0.9 0.1 -1.1
v -0.9 0.1 -1.4
v -0.9 0.2 -1
v -0.9 0.2 -1.1
v -0.9 0.2 -1.4
v -0.9 0.2 -1.5
v -0.9 0.3 -1
v -0.9 0.3 -1.1
v -0.9 0.3 -1.4
v -0.9 0.3 -1.5
v -0.9 0.4 -1
v -0.9 0.4 -1.1
v -0.9 0.4 -1.4
v -0.9 0.4 -1.5
v -0.7 0.2 -1.7
v -0.7 0.2 -1.8
v -0.7 0.2 -1.9
v -0.7 0.2 -2.2
v -0.7 0.2 -2.4
v -0.7 0.2 -2.8
v -0.7 0.2 -2.9
v -0.7 0.2 -3
v -0.7 0.3 -1.7
v -0.7 0.3 -1.8
v -0.7 0.3 -1.9
v -0.7 0.3 -2.2
v -0.7 0.3 -2.4
v -0.7 0.3 -2.8
v -0.7 0.3 -2.9
v -0.7 0.3 -3
v -0.6 0 -2
v -0.6 0 -2.2
v -0.6 0 -2.4
v -0.6 0 -2.7
v -0.6 0.1 -2
v -0.6 0.1 -2.2
v -0.6 0.1 -2.4
v -0.6 0.1 -2.7
v -0.6 0.2 -2
v -0.6 0.2 -2.2
v -0.6 0.2 -2.4
v -0.6 0.2 -2.7
v -0.5 0 -1.7
v -0.5 0 -2
v -0.5 0.1 -1
v -0.5 0.1 -1.1
v -0.5 0.1 -1.4
v -0.5 0.1 -1.5
v -0.5 0.1 -1.7
v -0.5 0.1 -2
v -0.5 0.2 -1.1
v -0.5 0.2 -1.4
v -0.5 0.2 -1.7
v -0.5 0.2 -1.8
v -0.5 0.2 -1.9
v -0.5 0.2 -2
v -0.5 0.3 -1.1
v -0.5 0.3 -1.4
v -0.5 0.3 -1.8
v -0.5 0.3 -1.9
v -0.5 0.4 -1
v -0.5 0.4 -1.1
v -0.5 0.4 -1.4
v -0.5 0.4 -1.5
v -0.4 0 -2.7
v -0.4 0 -3
v -0.4 0.1 -2.7
v -0.4 0.1 -3
v -0.4 0.2 -2.7
v -0.4 0.2 -2.8
v -0.4 0.2 -2.9
v -0.4 0.2 -3
v -0.4 0.3 -2.8
v -0.4 0.3 -2.9
v -0.0999999 0 -2.2
v -0.0999999 0 -2.5
v -0.0999999 0.1 -2.2
v -0.0999999 0.1 -2.5
v -0.0999999 0.2 -2.2
v -0.0999999 0.2 -2.3
v -0.0999999 0.2 -2.4
v -0.0999999 0.2 -2.5
v -0.0999999 0.3 -2.3
v -0.0999999 0.3 -2.4
v 1.19209e-07 0.2 -2.6
v 1.19209e-07 0.2 -2.8
v 1.19209e-07 0.3 -2.6
v 1.19209e-07 0.3 -2.8
v 0.1 0 -2.6
v 0.1 0 -2.8
v 0.1 0.1 -2.6
v 0.1 0.1 -2.8
v 0.1 0.2 -2.6
v 0.1 0.2 -2.8
v 0.1 0.2 -2.9
v 0.1 0.2 -3
v 0.1 0.2 -3.1
v 0.1 0.3 -2.8
v 0.1 0.3 -2.9
v 0.1 0.3 -3
v 0.1 0.3 -3.1
v 0.3 0.6 -2.2
v 0.3 0.6 -2.3
v 0.3 0.6 -2.4
v 0.3 0.6 -2.5
v 0.3 0.7 -2.2
v 0.3 0.7 -2.3
v 0.3 0.7 -2.4
v 0.3 0.7 -2.5
v 0.3 0.8 -2.3
v 0.3 0.8 -2.4
v 0.4 0 -2.2
v 0.4 0 -2.5
v 0.4 0 -2.8
v 0.4 0 -3.1
v 0.4 0.1 -2.8
v 0.4 0.1 -3.1
v 0.4 0.2 -2.8
v 0.4 0.2 -2.9
v 0.4 0.2 -3
v 0.4 0.2 -3.1
v 0.4 0.3 -2.9
v 0.4 0.3 -3
v 0.4 0.5 -2.2
v 0.4 0.5 -2.5
v 0.4 0.6 -2.2
v 0.4 0.6 -2.3
v 0.4 0.6 -2.4
v 0.4 0.6 -2.5
v 0.4 0.7 -2.3
v 0.4 0.7 -2.4
v 0.6 0 -1
v 0.6 0 -1.1
v 0.6 0 -1.4
v 0.6 0 -1.5
v 0.6 0.1 -1.1
v 0.6 0.1 -1.4
v 0.6 0.2 -1
v 0.6 0.2 -1.1
v 0.6 0.2 -1.4
v 0.6 0.2 -1.5
v 0.6 0.3 -1
v 0.6 0.3 -1.1
v 0.6 0.3 -1.4
v 0.6 0.3 -1.5
v 0.6 0.4 -1
v 0.6 0.4 -1.1
v 0.6 0.4 -1.4
v 0.6 0.4 -1.5
v 0.8 0 -2.3
v 0.8 0 -2.6
v 0.8 0.1 -2.3
v 0.8 0.1 -2.6
v 0.8 0.2 -2.3
v 0.8 0.2 -2.4
v 0.8 0.2 -2.5
v 0.8 0.2 -2.6
v 0.8 0.2 -2.7
v 0.8 0.2 -2.9
v 0.8 0.2 -3
v 0.8 0.2 -3.1
v 0.8 0.3 -1.7
v 0.8 0.3 -2.2
v 0.8 0.3 -2.4
v 0.8 0.3 -2.5
v 0.8 0.3 -2.7
v 0.8 0.3 -2.9
v 0.8 0.3 -3
v 0.8 0.3 -3.1
v 0.8 0.4 -1.7
v 0.8 0.4 -2.2
v 0.9 0 -1.1
v 0.9 0 -1.4
v 0.9 0 -1.7
v 0.9 0 -2.2
v 0.9 0 -2.7
v 0.9 0 -3.1
v 0.9 0.1 -1.1
v 0.9 0.1 -1.4
v 0.9 0.1 -2.7
v 0.9 0.1 -3.1
v 0.9 0.2 -1.7
v 0.9 0.2 -2.2
v 0.9 0.2 -2.7
v 0.9 0.2 -2.9
v 0.9 0.2 -3
v 0.9 0.2 -3.1
v 0.9 0.3 -1.7
v 0.9 0.3 -2.2
v 0.9 0.3 -2.9
v 0.9 0.3 -3
v 1 0 -1
v 1 0 -1.1
v 1 0 -1.4
v 1 0 -1.5
v 1 0.2 -1.1
v 1 0.2 -1.4
v 1 0.3 -1.1
v 1 0.3 -1.4
v 1 0.4 -1
v 1 0.4 -1.1
v 1 0.4 -1.4
v 1 0.4 -1.5
v -1 0 -1
v -1 0.4 -1
v -0.9 0 -1
v -0.9 0.2 -1
v -0.9 0.3 -1
v -0.9 0.4 -1
v -0.6 0 -1
v -0.6 0.2 -1
v -0.6 0.3 -1
v -0.6 0.4 -1
v -0.5 0.1 -1
v -0.5 0.4 -1
v 0.5 0.1 -1
v 0.5 0.4 -1
v 0.6 0 -1
v 0.6 0.2 -1
v 0.6 0.3 -1
v 0.6 0.4 -1
v 0.9 0 -1
v 0.9 0.2 -1
v 0.9 0.3 -1
v 0.9 0.4 -1
v 1 0 -1
v 1 0.4 -1
v -0.9 0 -1.1
v -0.9 0.1 -1.1
v -0.6 0 -1.1
v -0.6 0.1 -1.1
v 0.6 0 -1.1
v 0.6 0.1 -1.1
v 0.9 0 -1.1
v 0.9 0.1 -1.1
v -1 0 -1.4
v -1 0.2 -1.4
v -1 0.3 -1.4
v -1 0.4 -1.4
v -0.9 0 -1.4
v -0.9 0.1 -1.4
v -0.9 0.2 -1.4
v -0.9 0.3 -1.4
v -0.9 0.4 -1.4
v -0.6 0.1 -1.4
v -0.6 0.2 -1.4
v -0.6 0.3 -1.4
v -0.6 0.4 -1.4
v -0.5 0.1 -1.4
v -0.5 0.2 -1.4
v -0.5 0.3 -1.4
v -0.5 0.4 -1.4
v 0.5 0.1 -1.4
v 0.5 0.2 -1.4
v 0.5 0.3 -1.4
v 0.5 0.4 -1.4
v 0.6 0.1 -1.4
v 0.6 0.2 -1.4
v 0.6 0.3 -1.4
v 0.6 0.4 -1.4
v 0.9 0 -1.4
v 0.9 0.1 -1.4
v 0.9 0.2 -1.4
v 0.9 0.3 -1.4
v 0.9 0.4 -1.4
v 1 0 -1.4
v 1 0.2 -1.4
v 1 0.3 -1.4
v 1 0.4 -1.4
v -0.9 0 -1.7
v -0.9 0.1 -1.7
v -0.9 0.2 -1.7
v -0.8 0.2 -1.7
v -0.8 0.3 -1.7
v -0.7 0.2 -1.7
v -0.7 0.3 -1.7
v -0.5 0 -1.7
v -0.5 0.1 -1.7
v -0.5 0.2 -1.7
v 0.3 0 -1.7
v 0.3 0.1 -1.7
v 0.3 0.2 -1.7
v 0.6 0.1 -1.7
v 0.6 0.2 -1.7
v 0.6 0.3 -1.7
v 0.7 0.3 -1.7
v 0.7 0.4 -1.7
v 0.8 0.3 -1.7
v 0.8 0.4 -1.7
v 0.9 0 -1.7
v 0.9 0.2 -1.7
v 0.9 0.3 -1.7
v -0.7 0.2 -1.8
v -0.7 0.3 -1.8
v -0.5 0.2 -1.8
v -0.5 0.3 -1.8
v 0.3 0.2 -1.8
v 0.3 0.3 -1.8
v 0.6 0.2 -1.8
v 0.6 0.3 -1.8
v -0.5 0 -2.2
v -0.5 0.1 -2.2
v -0.5 0.2 -2.2
v -0.0999999 0 -2.2
v -0.0999999 0.1 -2.2
v -0.0999999 0.2 -2.2
v 0.1 0 -2.2
v 0.1 0.5 -2.2
v 0.1 0.6 -2.2
v 0.2 0.6 -2.2
v 0.2 0.7 -2.2
v 0.3 0.6 -2.2
v 0.3 0.7 -2.2
v 0.4 0 -2.2
v 0.4 0.5 -2.2
v 0.4 0.6 -2.2
v -0.5 0.2 -2.3
v -0.5 0.3 -2.3
v -0.0999999 0.2 -2.3
v -0.0999999 0.3 -2.3
v 0.1 0.6 -2.3
v 0.1 0.7 -2.3
v 0.2 0.6 -2.3
v 0.2 0.7 -2.3
v 0.2 0.8 -2.3
v 0.3 0.6 -2.3
v 0.3 0.7 -2.3
v 0.3 0.8 -2.3
v 0.4 0.6 -2.3
v 0.4 0.7 -2.3
v 0.5 0 -2.3
v 0.5 0.1 -2.3
v 0.5 0.2 -2.3
v 0.8 0 -2.3
v 0.8 0.1 -2.3
v 0.8 0.2 -2.3
v -0.9 0 -2.4
v -0.9 0.1 -2.4
v -0.9 0.2 -2.4
v -0.8 0.2 -2.4
v -0.8 0.3 -2.4
v -0.7 0.2 -2.4
v -0.7 0.3 -2.4
v -0.6 0 -2.4
v -0.6 0.1 -2.4
v -0.6 0.2 -2.4
v 0.5 0.2 -2.4
v 0.5 0.3 -2.4
v 0.8 0.2 -2.4
v 0.8 0.3 -2.4
v -0.2 0 -2.6
v -0.2 0.1 -2.6
v -0.2 0.2 -2.6
v -0.0999999 0.2 -2.6
v -0.0999999 0.3 -2.6
v 1.19209e-07 0.2 -2.6
v 1.19209e-07 0.3 -2.6
v 0.1 0 -2.6
v 0.1 0.1 -2.6
v 0.1 0.2 -2.6
v -0.6 0 -2.7
v -0.6 0.1 -2.7
v -0.6 0.2 -2.7
v -0.4 0 -2.7
v -0.4 0.1 -2.7
v -0.4 0.2 -2.7
v 0.6 0 -2.7
v 0.6 0.1 -2.7
v 0.6 0.2 -2.7
v 0.7 0.2 -2.7
v 0.7 0.3 -2.7
v 0.8 0.2 -2.7
v 0.8 0.3 -2.7
v 0.9 0 -2.7
v 0.9 0.1 -2.7
v 0.9 0.2 -2.7
v -0.9 0.2 -2.8
v -0.9 0.3 -2.8
v -0.8 0.2 -2.8
v -0.8 0.3 -2.8
v -0.7 0.2 -2.8
v -0.7 0.3 -2.8
v -0.4 0.2 -2.8
v -0.4 0.3 -2.8
v -0.2 0.2 -2.8
v -0.2 0.3 -2.8
v -0.0999999 0.2 -2.8
v -0.0999999 0.3 -2.8
v 1.19209e-07 0.2 -2.8
v 1.19209e-07 0.3 -2.8
v 0.1 0 -2.8
v 0.1 0.1 -2.8
v 0.1 0.2 -2.8
v 0.1 0.3 -2.8
v 0.4 0 -2.8
v 0.4 0.1 -2.8
v 0.4 0.2 -2.8
v 0.6 0.2 -2.8
v 0.6 0.3 -2.8
v 0.7 0.2 -2.8
v 0.7 0.3 -2.8
v 0.1 0.2 -2.9
v 0.1 0.3 -2.9
v 0.4 0.2 -2.9
v 0.4 0.3 -2.9
v 0.8 0.2 -2.9
v 0.8 0.3 -2.9
v 0.9 0.2 -2.9
v 0.9 0.3 -2.9
v -1 0 -1.1
v -1 0.2 -1.1
v -1 0.3 -1.1
v -1 0.4 -1.1
v -0.9 0 -1.1
v -0.9 0.1 -1.1
v -0.9 0.2 -1.1
v -0.9 0.3 -1.1
v -0.9 0.4 -1.1
v -0.6 0.1 -1.1
v -0.6 0.2 -1.1
v -0.6 0.3 -1.1
v -0.6 0.4 -1.1
v -0.5 0.1 -1.1
v -0.5 0.2 -1.1
v -0.5 0.3 -1.1
v -0.5 0.4 -1.1
v 0.5 0.1 -1.1
v 0.5 0.2 -1.1
v 0.5 0.3 -1.1
v 0.5 0.4 -1.1
v 0.6 0.1 -1.1
v 0.6 0.2 -1.1
v 0.6 0.3 -1.1
v 0.6 0.4 -1.1
v 0.9 0 -1.1
v 0.9 0.1 -1.1
v 0.9 0.2 -1.1
v 0.9 0.3 -1.1
v 0.9 0.4 -1.1
v 1 0 -1.1
v 1 0.2 -1.1
v 1 0.3 -1.1
v 1 0.4 -1.1
v -0.9 0 -1.4
v -0.9 0.1 -1.4
v -0.6 0 -1.4
v -0.6 0.1 -1.4
v 0.6 0 -1.4
v 0.6 0.1 -1.4
v 0.9 0 -1.4
v 0.9 0.1 -1.4
v -1 0 -1.5
v -1 0.4 -1.5
v -0.9 0 -1.5
v -0.9 0.2 -1.5
v -0.9 0.3 -1.5
v -0.9 0.4 -1.5
v -0.6 0 -1.5
v -0.6 0.2 -1.5
v -0.6 0.3 -1.5
v -0.6 0.4 -1.5
v -0.5 0.1 -1.5
v -0.5 0.4 -1.5
v 0.5 0.1 -1.5
v 0.5 0.4 -1.5
v 0.6 0 -1.5
v 0.6 0.2 -1.5
v 0.6 0.3 -1.5
v 0.6 0.4 -1.5
v 0.9 0 -1.5
v 0.9 0.2 -1.5
v 0.9 0.3 -1.5
v 0.9 0.4 -1.5
v 1 0 -1.5
v 1 0.4 -1.5
v -0.7 0.2 -1.9
v -0.7 0.3 -1.9
v -0.5 0.2 -1.9
v -0.5 0.3 -1.9
v 0.3 0.2 -1.9
v 0.3 0.3 -1.9
v 0.6 0.2 -1.9
v 0.6 0.3 -1.9
v -0.6 0 -2
v -0.6 0.1 -2
v -0.6 0.2 -2
v -0.5 0 -2
v -0.5 0.1 -2
v -0.5 0.2 -2
v 0.3 0 -2
v 0.3 0.1 -2
v 0.3 0.2 -2
v 0.6 0 -2
v 0.6 0.1 -2
v 0.6 0.2 -2
v -0.9 0 -2.2
v -0.9 0.1 -2.2
v -0.9 0.2 -2.2
v -0.8 0.2 -2.2
v -0.8 0.3 -2.2
v -0.7 0.2 -2.2
v -0.7 0.3 -2.2
v -0.6 0 -2.2
v -0.6 0.1 -2.2
v -0.6 0.2 -2.2
v 0.6 0 -2.2
v 0.6 0.2 -2.2
v 0.6 0.3 -2.2
v 0.7 0.3 -2.2
v 0.7 0.4 -2.2
v 0.8 0.3 -2.2
v 0.8 0.4 -2.2
v 0.9 0 -2.2
v 0.9 0.2 -2.2
v 0.9 0.3 -2.2
v -0.5 0.2 -2.4
v -0.5 0.3 -2.4
v -0.0999999 0.2 -2.4
v -0.0999999 0.3 -2.4
v 0.1 0.6 -2.4
v 0.1 0.7 -2.4
v 0.2 0.6 -2.4
v 0.2 0.7 -2.4
v 0.2 0.8 -2.4
v 0.3 0.6 -2.4
v 0.3 0.7 -2.4
v 0.3 0.8 -2.4
v 0.4 0.6 -2.4
v 0.4 0.7 -2.4
v -0.5 0 -2.5
v -0.5 0.1 -2.5
v -0.5 0.2 -2.5
v -0.0999999 0 -2.5
v -0.0999999 0.1 -2.5
v -0.0999999 0.2 -2.5
v 0.1 0 -2.5
v 0.1 0.5 -2.5
v 0.1 0.6 -2.5
v 0.2 0.6 -2.5
v 0.2 0.7 -2.5
v 0.3 0.6 -2.5
v 0.3 0.7 -2.5
v 0.4 0 -2.5
v 0.4 0.5 -2.5
v 0.4 0.6 -2.5
v 0.5 0.2 -2.5
v 0.5 0.3 -2.5
v 0.8 0.2 -2.5
v 0.8 0.3 -2.5
v 0.5 0 -2.6
v 0.5 0.1 -2.6
v 0.5 0.2 -2.6
v 0.8 0 -2.6
v 0.8 0.1 -2.6
v 0.8 0.2 -2.6
v -0.9 0.2 -2.9
v -0.9 0.3 -2.9
v -0.8 0.2 -2.9
v -0.8 0.3 -2.9
v -0.7 0.2 -2.9
v -0.7 0.3 -2.9
v -0.4 0.2 -2.9
v -0.4 0.3 -2.9
v 0.6 0.2 -2.9
v 0.6 0.3 -2.9
v 0.7 0.2 -2.9
v 0.7 0.3 -2.9
v -0.9 0 -3
v -0.9 0.1 -3
v -0.9 0.2 -3
v -0.8 0.2 -3
v -0.8 0.3 -3
v -0.7 0.2 -3
v -0.7 0.3 -3
v -0.4 0 -3
v -0.4 0.1 -3
v -0.4 0.2 -3
v 0.1 0.2 -3
v 0.1 0.3 -3
v 0.4 0.2 -3
v 0.4 0.3 -3
v 0.8 0.2 -3
v 0.8 0.3 -3
v 0.9 0.2 -3
v 0.9 0.3 -3
v -0.2 0 -3.1
v -0.2 0.2 -3.1
v -0.2 0.3 -3.1
v 0.1 0.1 -3.1
v 0.1 0.2 -3.1
v 0.1 0.3 -3.1
v 0.4 0 -3.1
v 0.4 0.1 -3.1
v 0.4 0.2 -3.1
v 0.6 0 -3.1
v 0.6 0.1 -3.1
v 0.6 0.2 -3.1
v 0.7 0.2 -3.1
v 0.7 0.3 -3.1
v 0.8 0.2 -3.1
v 0.8 0.3 -3.1
v 0.9 0 -3.1
v 0.9 0.1 -3.1
v 0.9 0.2 -3.1
v -1 0 -1
v -0.9 0 -1
v -0.6 0 -1
v 0.6 0 -1
v 0.9 0 -1
v 1 0 -1
v -1 0 -1.1
v -0.9 0 -1.1
v -0.6 0 -1.1
v 0.6 0 -1.1
v 0.9 0 -1.1
v 1 0 -1.1
v -1 0 -1.4
v -0.9 0 -1.4
v -0.6 0 -1.4
v 0.6 0 -1.4
v 0.9 0 -1.4
v 1 0 -1.4
v -1 0 -1.5
v -0.9 0 -1.5
v -0.6 0 -1.5
v 0.6 0 -1.5
v 0.9 0 -1.5
v 1 0 -1.5
v -0.9 0 -1.7
v -0.5 0 -1.7
v 0.3 0 -1.7
v 0.9 0 -1.7
v -0.6 0 -2
v -0.5 0 -2
v 0.3 0 -2
v 0.6 0 -2
v -0.9 0 -2.2
v -0.6 0 -2.2
v -0.5 0 -2.2
v -0.0999999 0 -2.2
v 0.1 0 -2.2
v 0.4 0 -2.2
v 0.6 0 -2.2
v 0.9 0 -2.2
v 0.5 0 -2.3
v 0.8 0 -2.3
v -0.9 0 -2.4
v -0.6 0 -2.4
v -0.5 0 -2.5
v -0.0999999 0 -2.5
v 0.1 0 -2.5
v 0.4 0 -2.5
v -0.2 0 -2.6
v 0.1 0 -2.6
v 0.5 0 -2.6
v 0.8 0 -2.6
v -0.6 0 -2.7
v -0.4 0 -2.7
v 0.6 0 -2.7
v 0.9 0 -2.7
v 0.1 0 -2.8
v 0.4 0 -2.8
v -0.9 0 -3
v -0.4 0 -3
v -0.2 0 -3.1
v 0.4 0 -3.1
v 0.6 0 -3.1
v 0.9 0 -3.1
v -0.9 0.2 -1
v -0.6 0.2 -1
v 0.6 0.2 -1
v 0.9 0.2 -1
v -1 0.2 -1.1
v -0.9 0.2 -1.1
v -0.6 0.2 -1.1
v -0.5 0.2 -1.1
v 0.5 0.2 -1.1
v 0.6 0.2 -1.1
v 0.9 0.2 -1.1
v 1 0.2 -1.1
v -1 0.2 -1.4
v -0.9 0.2 -1.4
v -0.6 0.2 -1.4
v -0.5 0.2 -1.4
v 0.5 0.2 -1.4
v 0.6 0.2 -1.4
v 0.9 0.2 -1.4
v 1 0.2 -1.4
v -0.9 0.2 -1.5
v -0.6 0.2 -1.5
v 0.6 0.2 -1.5
v 0.9 0.2 -1.5
v -0.5 0.1 -1
v 0.5 0.1 -1
v -0.9 0.1 -1.1
v -0.6 0.1 -1.1
v -0.5 0.1 -1.1
v 0.5 0.1 -1.1
v 0.6 0.1 -1.1
v 0.9 0.1 -1.1
v -0.9 0.1 -1.4
v -0.6 0.1 -1.4
v -0.5 0.1 -1.4
v 0.5 0.1 -1.4
v 0.6 0.1 -1.4
v 0.9 0.1 -1.4
v -0.5 0.1 -1.5
v 0.5 0.1 -1.5
v -0.9 0.2 -1.7
v -0.8 0.2 -1.7
v -0.7 0.2 -1.7
v -0.5 0.2 -1.7
v 0.3 0.2 -1.7
v 0.6 0.2 -1.7
v -0.7 0.2 -1.8
v -0.5 0.2 -1.8
v 0.3 0.2 -1.8
v 0.6 0.2 -1.8
v -0.7 0.2 -1.9
v -0.5 0.2 -1.9
v 0.3 0.2 -1.9
v 0.6 0.2 -1.9
v -0.6 0.2 -2
v -0.5 0.2 -2
v 0.3 0.2 -2
v 0.6 0.2 -2
v -0.9 0.2 -2.2
v -0.8 0.2 -2.2
v -0.7 0.2 -2.2
v -0.6 0.2 -2.2
v -0.5 0.2 -2.2
v -0.0999999 0.2 -2.2
v -0.5 0.2 -2.3
v -0.0999999 0.2 -2.3
v 0.5 0.2 -2.3
v 0.8 0.2 -2.3
v -0.9 0.2 -2.4
v -0.8 0.2 -2.4
v -0.7 0.2 -2.4
v -0.6 0.2 -2.4
v -0.5 0.2 -2.4
v -0.0999999 0.2 -2.4
v 0.5 0.2 -2.4
v 0.8 0.2 -2.4
v -0.5 0.2 -2.5
v -0.0999999 0.2 -2.5
v 0.5 0.2 -2.5
v 0.8 0.2 -2.5
v -0.2 0.2 -2.6
v -0.0999999 0.2 -2.6
v 1.19209e-07 0.2 -2.6
v 0.1 0.2 -2.6
v 0.5 0.2 -2.6
v 0.8 0.2 -2.6
v -0.6 0.2 -2.7
v -0.4 0.2 -2.7
v 0.6 0.2 -2.7
v 0.7 0.2 -2.7
v 0.8 0.2 -2.7
v 0.9 0.2 -2.7
v -0.9 0.2 -2.8
v -0.8 0.2 -2.8
v -0.7 0.2 -2.8
v -0.4 0.2 -2.8
v -0.2 0.2 -2.8
v -0.0999999 0.2 -2.8
v 1.19209e-07 0.2 -2.8
v 0.1 0.2 -2.8
v 0.4 0.2 -2.8
v 0.6 0.2 -2.8
v 0.7 0.2 -2.8
v -0.9 0.2 -2.9
v -0.8 0.2 -2.9
v -0.7 0.2 -2.9
v -0.4 0.2 -2.9
v 0.1 0.2 -2.9
v 0.4 0.2 -2.9
v 0.6 0.2 -2.9
v 0.7 0.2 -2.9
v 0.8 0.2 -2.9
v 0.9 0.2 -2.9
v -0.9 0.2 -3
v -0.8 0.2 -3
v -0.7 0.2 -3
v -0.4 0.2 -3
v 0.1 0.2 -3
v 0.4 0.2 -3
v 0.8 0.2 -3
v 0.9 0.2 -3
v 0.1 0.2 -3.1
v 0.4 0.2 -3.1
v 0.6 0.2 -3.1
v 0.7 0.2 -3.1
v 0.8 0.2 -3.1
v 0.9 0.2 -3.1
v -0.9 0.3 -1
v -0.6 0.3 -1
v 0.6 0.3 -1
v 0.9 0.3 -1
v -1 0.3 -1.1
v -0.9 0.3 -1.1
v -0.6 0.3 -1.1
v -0.5 0.3 -1.1
v 0.5 0.3 -1.1
v 0.6 0.3 -1.1
v 0.9 0.3 -1.1
v 1 0.3 -1.1
v -1 0.3 -1.4
v -0.9 0.3 -1.4
v -0.6 0.3 -1.4
v -0.5 0.3 -1.4
v 0.5 0.3 -1.4
v 0.6 0.3 -1.4
v 0.9 0.3 -1.4
v 1 0.3 -1.4
v -0.9 0.3 -1.5
v -0.6 0.3 -1.5
v 0.6 0.3 -1.5
v 0.9 0.3 -1.5
v -0.8 0.3 -1.7
v -0.7 0.3 -1.7
v 0.6 0.3 -1.7
v 0.7 0.3 -1.7
v 0.8 0.3 -1.7
v 0.9 0.3 -1.7
v -0.7 0.3 -1.8
v -0.5 0.3 -1.8
v 0.3 0.3 -1.8
v 0.6 0.3 -1.8
v -0.7 0.3 -1.9
v -0.5 0.3 -1.9
v 0.3 0.3 -1.9
v 0.6 0.3 -1.9
v -0.8 0.3 -2.2
v -0.7 0.3 -2.2
v 0.6 0.3 -2.2
v 0.7 0.3 -2.2
v 0.8 0.3 -2.2
v 0.9 0.3 -2.2
v -0.5 0.3 -2.3
v -0.0999999 0.3 -2.3
v -0.8 0.3 -2.4
v -0.7 0.3 -2.4
v -0.5 0.3 -2.4
v -0.0999999 0.3 -2.4
v 0.5 0.3 -2.4
v 0.8 0.3 -2.4
v 0.5 0.3 -2.5
v 0.8 0.3 -2.5
v -0.0999999 0.3 -2.6
v 1.19209e-07 0.3 -2.6
v 0.7 0.3 -2.7
v 0.8 0.3 -2.7
v -0.9 0.3 -2.8
v -0.8 0.3 -2.8
v -0.7 0.3 -2.8
v -0.4 0.3 -2.8
v -0.2 0.3 -2.8
v -0.0999999 0.3 -2.8
v 1.19209e-07 0.3 -2.8
v 0.1 0.3 -2.8
v 0.6 0.3 -2.8
v 0.7 0.3 -2.8
v -0.9 0.3 -2.9
v -0.8 0.3 -2.9
v -0.7 0.3 -2.9
v -0.4 0.3 -2.9
v 0.1 0.3 -2.9
v 0.4 0.3 -2.9
v 0.6 0.3 -2.9
v 0.7 0.3 -2.9
v 0.8 0.3 -2.9
v 0.9 0.3 -2.9
v -0.8 0.3 -3
v -0.7 0.3 -3
v 0.1 0.3 -3
v 0.4 0.3 -3
v 0.8 0.3 -3
v 0.9 0.3 -3
v -0.2 0.3 -3.1
v 0.1 0.3 -3.1
v 0.7 0.3 -3.1
v 0.8 0.3 -3.1
v -1 0.4 -1
v -0.9 0.4 -1
v -0.6 0.4 -1
v -0.5 0.4 -1
v 0.5 0.4 -1
v 0.6 0.4 -1
v 0.9 0.4 -1
v 1 0.4 -1
v -1 0.4 -1.1
v -0.9 0.4 -1.1
v -0.6 0.4 -1.1
v -0.5 0.4 -1.1
v 0.5 0.4 -1.1
v 0.6 0.4 -1.1
v 0.9 0.4 -1.1
v 1 0.4 -1.1
v -1 0.4 -1.4
v -0.9 0.4 -1.4
v -0.6 0.4 -1.4
v -0.5 0.4 -1.4
v 0.5 0.4 -1.4
v 0.6 0.4 -1.4
v 0.9 0.4 -1.4
v 1 0.4 -1.4
v -1 0.4 -1.5
v -0.9 0.4 -1.5
v -0.6 0.4 -1.5
v -0.5 0.4 -1.5
v 0.5 0.4 -1.5
v 0.6 0.4 -1.5
v 0.9 0.4 -1.5
v 1 0.4 -1.5
v 0.7 0.4 -1.7
v 0.8 0.4 -1.7
v 0.7 0.4 -2.2
v 0.8 0.4 -2.2
v 0.1 0.6 -2.2
v 0.2 0.6 -2.2
v 0.3 0.6 -2.2
v 0.4 0.6 -2.2
v 0.1 0.6 -2.3
v 0.2 0.6 -2.3
v 0.3 0.6 -2.3
v 0.4 0.6 -2.3
v 0.1 0.6 -2.4
v 0.2 0.6 -2.4
v 0.3 0.6 -2.4
v 0.4 0.6 -2.4
v 0.1 0.6 -2.5
v 0.2 0.6 -2.5
v 0.3 0.6 -2.5
v 0.4 0.6 -2.5
v 0.2 0.7 -2.2
v 0.3 0.7 -2.2
v 0.1 0.7 -2.3
v 0.2 0.7 -2.3
v 0.3 0.7 -2.3
v 0.4 0.7 -2.3
v 0.1 0.7 -2.4
v 0.2 0.7 -2.4
v 0.3 0.7 -2.4
v 0.4 0.7 -2.4
v 0.2 0.7 -2.5
v 0.3 0.7 -2.5
v 0.2 0.8 -2.3
v 0.3 0.8 -2.3
v 0.2 0.8 -2.4
v 0.3 0.8 -2.4

# faces
f 5/2/1 2/2/1 1/2/1
f 6/2/1 4/2/1 3/2/1
f 7/2/1 5/2/1 1/2/1
f 7/2/1 6/2/1 5/2/1
f 8/2/1 4/2/1 6/2/1
f 8/2/1 6/2/1 7/2/1
f 9/2/1 7/2/1 1/2/1
f 10/2/1 7/2/1 9/2/1
f 11/2/1 4/2/1 8/2/1
f 12/2/1 4/2/1 11/2/1
f 19/1/1 14/1/1 13/1/1
f 20/1/1 14/1/1 19/1/1
f 21/2/1 16/2/1 15/2/1
f 22/2/1 16/2/1 21/2/1
f 23/2/1 18/2/1 17/2/1
f 24/2/1 18/2/1 23/2/1
f 25/4/1 22/4/1 21/4/1
f 26/4/1 22/4/1 25/4/1
f 27/4/1 24/4/1 23/4/1
f 28/4/1 24/4/1 27/4/1
f 29/4/1 24/4/1 28/4/1
f 30/4/1 24/4/1 29/4/1
f 31/4/1 29/4/1 28/4/1
f 32/4/1 29/4/1 31/4/1
f 39/4/1 34/4/1 33/4/1
f 40/4/1 34/4/1 39/4/1
f 41/4/1 36/4/1 35/4/1
f 42/4/1 36/4/1 41/4/1
f 43/4/1 38/4/1 37/4/1
f 44/4/1 38/4/1 43/4/1
f 49/2/1 46/2/1 45/2/1
f 50/2/1 48/2/1 47/2/1
f 51/2/1 49/2/1 45/2/1
f 52/2/1 49/2/1 51/2/1
f 53/2/1 48/2/1 50/2/1
f 54/2/1 48/2/1 53/2/1
f 56/2/1 53/2/1 52/2/1
f 57/2/1 53/2/1 56/2/1
f 59/2/1 56/2/1 55/2/1
f 60/2/1 56/2/1 59/2/1
f 61/2/1 58/2/1 57/2/1
f 62/2/1 58/2/1 61/2/1
f 65/2/1 64/2/1 63/2/1
f 66/2/1 64/2/1 65/2/1
f 67/4/1 66/4/1 65/4/1
f 68/4/1 66/4/1 67/4/1
f 69/4/1 66/4/1 68/4/1
f 70/4/1 66/4/1 69/4/1
f 71/4/1 69/4/1 68/4/1
f 72/4/1 69/4/1 71/4/1
f 75/2/1 74/2/1 73/2/1
f 76/2/1 74/2/1 75/2/1
f 77/4/1 76/4/1 75/4/1
f 78/2/1 74/2/1 76/2/1
f 78/4/1 76/4/1 77/4/1
f 79/2/1 74/2/1 78/2/1
f 80/4/1 79/4/1 78/4/1
f 81/4/1 79/4/1 80/4/1
f 84/4/1 83/4/1 82/4/1
f 85/4/1 83/4/1 84/4/1
f 88/2/1 87/2/1 86/2/1
f 89/2/1 87/2/1 88/2/1
f 90/3/1 89/3/1 88/3/1
f 91/3/1 89/3/1 90/3/1
f 92/3/1 89/3/1 91/3/1
f 93/3/1 89/3/1 92/3/1
f 94/3/1 92/3/1 91/3/1
f 95/3/1 92/3/1 94/3/1
f 100/3/1 97/3/1 96/3/1
f 101/3/1 97/3/1 100/3/1
f 102/3/1 99/3/1 98/3/1
f 103/3/1 99/3/1 102/3/1
f 104/3/1 102/3/1 101/3/1
f 105/3/1 102/3/1 104/3/1
f 108/2/1 107/2/1 106/2/1
f 109/2/1 107/2/1 108/2/1
f 110/4/1 109/4/1 108/4/1
f 111/4/1 109/4/1 110/4/1
f 112/4/1 109/4/1 111/4/1
f 113/4/1 109/4/1 112/4/1
f 114/4/1 112/4/1 111/4/1
f 115/4/1 112/4/1 114/4/1
f 122/2/1 117/2/1 116/2/1
f 123/2/1 117/2/1 122/2/1
f 124/2/1 119/2/1 118/2/1
f 125/2/1 121/2/1 120/2/1
f 126/4/1 123/4/1 122/4/1
f 127/4/1 123/4/1 126/4/1
f 128/4/1 123/4/1 127/4/1
f 129/4/1 123/4/1 128/4/1
f 130/2/1 124/2/1 118/2/1
f 130/2/1 125/2/1 124/2/1
f 131/2/1 121/2/1 125/2/1
f 131/2/1 125/2/1 130/2/1
f 132/4/1 128/4/1 127/4/1
f 133/4/1 128/4/1 132/4/1
f 134/2/1 130/2/1 118/2/1
f 135/2/1 130/2/1 134/2/1
f 136/2/1 121/2/1 131/2/1
f 137/2/1 121/2/1 136/2/1
f 142/2/1 139/2/1 138/2/1
f 143/2/1 141/2/1 140/2/1
f 144/2/1 141/2/1 143/2/1
f 148/2/1 139/2/1 142/2/1
f 149/2/1 139/2/1 148/2/1
f 150/4/1 144/4/1 143/4/1
f 151/4/1 144/4/1 150/4/1
f 152/4/1 144/4/1 151/4/1
f 153/4/1 144/4/1 152/4/1
f 154/4/1 146/4/1 145/4/1
f 155/4/1 146/4/1 154/4/1
f 156/4/1 149/4/1 148/4/1
f 156/4/1 148/4/1 147/4/1
f 157/4/1 149/4/1 156/4/1
f 158/4/1 152/4/1 151/4/1
f 159/4/1 152/4/1 158/4/1
f 166/4/1 161/4/1 160/4/1
f 167/4/1 161/4/1 166/4/1
f 168/4/1 163/4/1 162/4/1
f 169/4/1 163/4/1 168/4/1
f 170/4/1 165/4/1 164/4/1
f 171/4/1 165/4/1 170/4/1
f 176/2/1 173/2/1 172/2/1
f 177/2/1 175/2/1 174/2/1
f 178/2/1 176/2/1 172/2/1
f 179/2/1 176/2/1 178/2/1
f 180/2/1 175/2/1 177/2/1
f 181/2/1 175/2/1 180/2/1
f 183/2/1 180/2/1 179/2/1
f 184/2/1 180/2/1 183/2/1
f 186/2/1 183/2/1 182/2/1
f 187/2/1 183/2/1 186/2/1
f 188/2/1 185/2/1 184/2/1
f 189/2/1 185/2/1 188/2/1
f 190/2/2 191/2/2 194/2/2
f 192/2/2 193/2/2 195/2/2
f 190/2/2 194/2/2 196/2/2
f 196/2/2 194/2/2 197/2/2
f 195/2/2 193/2/2 198/2/2
f 198/2/2 193/2/2 199/2/2
f 197/2/2 198/2/2 201/2/2
f 201/2/2 198/2/2 202/2/2
f 200/2/2 201/2/2 204/2/2
f 204/2/2 201/2/2 205/2/2
f 202/2/2 203/2/2 206/2/2
f 206/2/2 203/2/2 207/2/2
f 208/4/2 209/4/2 216/4/2
f 216/4/2 209/4/2 217/4/2
f 210/4/2 211/4/2 218/4/2
f 218/4/2 211/4/2 219/4/2
f 212/4/2 213/4/2 220/4/2
f 220/4/2 213/4/2 221/4/2
f 214/4/2 215/4/2 222/4/2
f 222/4/2 215/4/2 223/4/2
f 224/2/2 225/2/2 228/2/2
f 228/2/2 225/2/2 229/2/2
f 226/2/2 227/2/2 230/2/2
f 230/2/2 227/2/2 231/2/2
f 228/4/2 229/4/2 232/4/2
f 232/4/2 229/4/2 233/4/2
f 230/4/2 231/4/2 234/4/2
f 234/4/2 231/4/2 235/4/2
f 236/2/2 237/2/2 242/2/2
f 242/2/2 237/2/2 243/2/2
f 238/2/2 239/2/2 244/2/2
f 240/2/2 241/2/2 245/2/2
f 242/4/2 243/4/2 246/4/2
f 246/4/2 243/4/2 247/4/2
f 247/4/2 243/4/2 248/4/2
f 248/4/2 243/4/2 249/4/2
f 238/2/2 244/2/2 250/2/2
f 244/2/2 245/2/2 250/2/2
f 245/2/2 241/2/2 251/2/2
f 250/2/2 245/2/2 251/2/2
f 247/4/2 248/4/2 252/4/2
f 252/4/2 248/4/2 253/4/2
f 238/2/2 250/2/2 254/2/2
f 254/2/2 250/2/2 255/2/2
f 251/2/2 241/2/2 256/2/2
f 256/2/2 241/2/2 257/2/2
f 258/2/2 259/2/2 260/2/2
f 260/2/2 259/2/2 261/2/2
f 260/4/2 261/4/2 262/4/2
f 262/4/2 261/4/2 263/4/2
f 263/4/2 261/4/2 264/4/2
f 264/4/2 261/4/2 265/4/2
f 263/4/2 264/4/2 266/4/2
f 266/4/2 264/4/2 267/4/2
f 268/2/2 269/2/2 270/2/2
f 270/2/2 269/2/2 271/2/2
f 270/4/2 271/4/2 272/4/2
f 272/4/2 271/4/2 273/4/2
f 273/4/2 271/4/2 274/4/2
f 274/4/2 271/4/2 275/4/2
f 273/4/2 274/4/2 276/4/2
f 276/4/2 274/4/2 277/4/2
f 278/4/2 279/4/2 280/4/2
f 280/4/2 279/4/2 281/4/2
f 282/2/2 283/2/2 284/2/2
f 284/2/2 283/2/2 285/2/2
f 284/4/2 285/4/2 286/4/2
f 286/4/2 285/4/2 287/4/2
f 287/4/2 288/4/2 291/4/2
f 291/4/2 288/4/2 292/4/2
f 289/4/2 290/4/2 293/4/2
f 293/4/2 290/4/2 294/4/2
f 295/3/2 296/3/2 299/3/2
f 299/3/2 296/3/2 300/3/2
f 297/3/2 298/3/2 301/3/2
f 301/3/2 298/3/2 302/3/2
f 300/3/2 301/3/2 303/3/2
f 303/3/2 301/3/2 304/3/2
f 307/2/2 308/2/2 309/2/2
f 309/2/2 308/2/2 310/2/2
f 309/4/2 310/4/2 311/4/2
f 311/4/2 310/4/2 312/4/2
f 312/4/2 310/4/2 313/4/2
f 313/4/2 310/4/2 314/4/2
f 312/4/2 313/4/2 315/4/2
f 315/4/2 313/4/2 316/4/2
f 305/2/2 306/2/2 317/2/2
f 317/2/2 306/2/2 318/2/2
f 317/3/2 318/3/2 319/3/2
f 319/3/2 318/3/2 320/3/2
f 320/3/2 318/3/2 321/3/2
f 321/3/2 318/3/2 322/3/2
f 320/3/2 321/3/2 323/3/2
f 323/3/2 321/3/2 324/3/2
f 325/2/2 326/2/2 329/2/2
f 327/2/2 328/2/2 330/2/2
f 325/2/2 329/2/2 331/2/2
f 331/2/2 329/2/2 332/2/2
f 330/2/2 328/2/2 333/2/2
f 333/2/2 328/2/2 334/2/2
f 332/2/2 333/2/2 336/2/2
f 336/2/2 333/2/2 337/2/2
f 335/2/2 336/2/2 339/2/2
f 339/2/2 336/2/2 340/2/2
f 337/2/2 338/2/2 341/2/2
f 341/2/2 338/2/2 342/2/2
f 343/2/2 344/2/2 345/2/2
f 345/2/2 344/2/2 346/2/2
f 345/4/2 346/4/2 347/4/2
f 347/4/2 346/4/2 348/4/2
f 348/4/2 346/4/2 349/4/2
f 349/4/2 346/4/2 350/4/2
f 348/4/2 349/4/2 357/4/2
f 357/4/2 349/4/2 358/4/2
f 351/4/2 352/4/2 359/4/2
f 359/4/2 352/4/2 360/4/2
f 353/4/2 354/4/2 361/4/2
f 361/4/2 354/4/2 362/4/2
f 355/4/2 356/4/2 363/4/2
f 363/4/2 356/4/2 364/4/2
f 365/1/2 366/1/2 371/1/2
f 371/1/2 366/1/2 372/1/2
f 369/2/2 370/2/2 373/2/2
f 373/2/2 370/2/2 374/2/2
f 367/2/2 368/2/2 375/2/2
f 375/2/2 368/2/2 376/2/2
f 373/4/2 374/4/2 377/4/2
f 377/4/2 374/4/2 378/4/2
f 378/4/2 374/4/2 379/4/2
f 379/4/2 374/4/2 380/4/2
f 375/4/2 376/4/2 381/4/2
f 381/4/2 376/4/2 382/4/2
f 378/4/2 379/4/2 383/4/2
f 383/4/2 379/4/2 384/4/2
f 385/2/2 386/2/2 389/2/2
f 387/2/2 388/2/2 390/2/2
f 385/2/2 389/2/2 391/2/2
f 389/2/2 390/2/2 391/2/2
f 390/2/2 388/2/2 392/2/2
f 391/2/2 390/2/2 392/2/2
f 385/2/2 391/2/2 393/2/2
f 393/2/2 391/2/2 394/2/2
f 392/2/2 388/2/2 395/2/2
f 395/2/2 388/2/2 396/2/2
f 399/2/3 398/2/3 397/2/3
f 400/2/3 398/2/3 399/2/3
f 401/2/3 398/2/3 400/2/3
f 402/2/3 398/2/3 401/2/3
f 404/2/3 401/2/3 400/2/3
f 405/2/3 401/2/3 404/2/3
f 407/2/3 404/2/3 403/2/3
f 407/2/3 406/2/3 405/2/3
f 407/2/3 405/2/3 404/2/3
f 408/2/3 406/2/3 407/2/3
f 409/2/3 407/2/3 403/2/3
f 411/2/3 409/2/3 403/2/3
f 411/2/3 410/2/3 409/2/3
f 412/2/3 410/2/3 411/2/3
f 413/2/3 410/2/3 412/2/3
f 414/2/3 410/2/3 413/2/3
f 416/2/3 413/2/3 412/2/3
f 417/2/3 413/2/3 416/2/3
f 419/2/3 416/2/3 415/2/3
f 419/2/3 418/2/3 417/2/3
f 419/2/3 417/2/3 416/2/3
f 420/2/3 418/2/3 419/2/3
f 423/1/3 422/1/3 421/1/3
f 424/1/3 422/1/3 423/1/3
f 427/1/3 426/1/3 425/1/3
f 428/1/3 426/1/3 427/1/3
f 433/2/3 430/2/3 429/2/3
f 434/2/3 430/2/3 433/2/3
f 435/2/3 430/2/3 434/2/3
f 436/2/3 432/2/3 431/2/3
f 437/2/3 432/2/3 436/2/3
f 439/2/3 436/2/3 435/2/3
f 440/2/3 436/2/3 439/2/3
f 442/2/3 439/2/3 438/2/3
f 443/2/3 439/2/3 442/2/3
f 444/2/3 441/2/3 440/2/3
f 445/2/3 441/2/3 444/2/3
f 450/2/3 447/2/3 446/2/3
f 451/2/3 447/2/3 450/2/3
f 452/2/3 449/2/3 448/2/3
f 453/2/3 449/2/3 452/2/3
f 456/2/3 452/2/3 451/2/3
f 457/2/3 452/2/3 456/2/3
f 459/2/3 455/2/3 454/2/3
f 459/2/3 456/2/3 455/2/3
f 460/2/3 456/2/3 459/2/3
f 461/2/3 458/2/3 457/2/3
f 462/2/3 458/2/3 461/2/3
f 466/4/3 465/4/3 464/4/3
f 468/4/3 466/4/3 464/4/3
f 468/4/3 467/4/3 466/4/3
f 469/4/3 467/4/3 468/4/3
f 470/2/3 464/2/3 463/2/3
f 471/4/3 468/4/3 464/4/3
f 471/2/3 464/2/3 470/2/3
f 472/4/3 468/4/3 471/4/3
f 476/2/3 474/2/3 473/2/3
f 476/4/3 475/4/3 474/4/3
f 477/4/3 475/4/3 476/4/3
f 479/4/3 478/4/3 477/4/3
f 481/4/3 479/4/3 477/4/3
f 481/4/3 480/4/3 479/4/3
f 482/4/3 480/4/3 481/4/3
f 483/2/3 476/2/3 473/2/3
f 483/2/3 477/2/3 476/2/3
f 484/4/3 481/4/3 477/4/3
f 484/2/3 477/2/3 483/2/3
f 485/4/3 481/4/3 484/4/3
f 488/4/3 487/4/3 486/4/3
f 489/4/3 487/4/3 488/4/3
f 492/4/3 491/4/3 490/4/3
f 493/4/3 491/4/3 492/4/3
f 497/2/3 495/2/3 494/2/3
f 498/4/3 496/4/3 495/4/3
f 498/2/3 495/2/3 497/2/3
f 499/4/3 496/4/3 498/4/3
f 503/3/3 502/3/3 501/3/3
f 505/3/3 503/3/3 501/3/3
f 505/3/3 504/3/3 503/3/3
f 506/3/3 504/3/3 505/3/3
f 507/2/3 501/2/3 500/2/3
f 508/3/3 505/3/3 501/3/3
f 508/2/3 501/2/3 507/2/3
f 509/3/3 505/3/3 508/3/3
f 512/4/3 511/4/3 510/4/3
f 513/4/3 511/4/3 512/4/3
f 516/3/3 515/3/3 514/3/3
f 517/3/3 515/3/3 516/3/3
f 520/3/3 518/3/3 517/3/3
f 521/3/3 518/3/3 520/3/3
f 522/3/3 520/3/3 519/3/3
f 523/3/3 520/3/3 522/3/3
f 527/2/3 525/2/3 524/2/3
f 528/4/3 526/4/3 525/4/3
f 528/2/3 525/2/3 527/2/3
f 529/4/3 526/4/3 528/4/3
f 533/4/3 532/4/3 531/4/3
f 535/4/3 533/4/3 531/4/3
f 535/4/3 534/4/3 533/4/3
f 536/4/3 534/4/3 535/4/3
f 537/2/3 531/2/3 530/2/3
f 538/4/3 535/4/3 531/4/3
f 538/2/3 531/2/3 537/2/3
f 539/4/3 535/4/3 538/4/3
f 542/4/3 541/4/3 540/4/3
f 543/4/3 541/4/3 542/4/3
f 547/4/3 546/4/3 545/4/3
f 549/4/3 547/4/3 545/4/3
f 549/4/3 548/4/3 547/4/3
f 550/4/3 548/4/3 549/4/3
f 551/2/3 545/2/3 544/2/3
f 552/4/3 549/4/3 545/4/3
f 552/2/3 545/2/3 551/2/3
f 553/4/3 549/4/3 552/4/3
f 557/2/3 555/2/3 554/2/3
f 558/4/3 556/4/3 555/4/3
f 558/2/3 555/2/3 557/2/3
f 559/4/3 556/4/3 558/4/3
f 563/4/3 562/4/3 561/4/3
f 565/4/3 563/4/3 561/4/3
f 565/4/3 564/4/3 563/4/3
f 566/4/3 564/4/3 565/4/3
f 567/2/3 561/2/3 560/2/3
f 568/4/3 565/4/3 561/4/3
f 568/2/3 561/2/3 567/2/3
f 569/4/3 565/4/3 568/4/3
f 572/4/3 571/4/3 570/4/3
f 573/4/3 571/4/3 572/4/3
f 576/4/3 575/4/3 574/4/3
f 577/4/3 575/4/3 576/4/3
f 580/4/3 579/4/3 578/4/3
f 581/4/3 579/4/3 580/4/3
f 586/4/3 583/4/3 582/4/3
f 587/4/3 583/4/3 586/4/3
f 588/2/3 585/2/3 584/2/3
f 589/4/3 586/4/3 585/4/3
f 589/2/3 585/2/3 588/2/3
f 590/4/3 586/4/3 589/4/3
f 593/4/3 592/4/3 591/4/3
f 594/4/3 592/4/3 593/4/3
f 597/4/3 596/4/3 595/4/3
f 598/4/3 596/4/3 597/4/3
f 601/4/3 600/4/3 599/4/3
f 602/4/3 600/4/3 601/4/3
f 603/2/4 604/2/4 607/2/4
f 607/2/4 604/2/4 608/2/4
f 608/2/4 604/2/4 609/2/4
f 605/2/4 606/2/4 610/2/4
f 610/2/4 606/2/4 611/2/4
f 609/2/4 610/2/4 613/2/4
f 613/2/4 610/2/4 614/2/4
f 612/2/4 613/2/4 616/2/4
f 616/2/4 613/2/4 617/2/4
f 614/2/4 615/2/4 618/2/4
f 618/2/4 615/2/4 619/2/4
f 620/2/4 621/2/4 624/2/4
f 624/2/4 621/2/4 625/2/4
f 622/2/4 623/2/4 626/2/4
f 626/2/4 623/2/4 627/2/4
f 625/2/4 626/2/4 630/2/4
f 630/2/4 626/2/4 631/2/4
f 628/2/4 629/2/4 633/2/4
f 629/2/4 630/2/4 633/2/4
f 633/2/4 630/2/4 634/2/4
f 631/2/4 632/2/4 635/2/4
f 635/2/4 632/2/4 636/2/4
f 637/1/4 638/1/4 639/1/4
f 639/1/4 638/1/4 640/1/4
f 641/1/4 642/1/4 643/1/4
f 643/1/4 642/1/4 644/1/4
f 645/2/4 646/2/4 647/2/4
f 647/2/4 646/2/4 648/2/4
f 648/2/4 646/2/4 649/2/4
f 649/2/4 646/2/4 650/2/4
f 648/2/4 649/2/4 652/2/4
f 652/2/4 649/2/4 653/2/4
f 651/2/4 652/2/4 655/2/4
f 653/2/4 654/2/4 655/2/4
f 652/2/4 653/2/4 655/2/4
f 655/2/4 654/2/4 656/2/4
f 651/2/4 655/2/4 657/2/4
f 651/2/4 657/2/4 659/2/4
f 657/2/4 658/2/4 659/2/4
f 659/2/4 658/2/4 660/2/4
f 660/2/4 658/2/4 661/2/4
f 661/2/4 658/2/4 662/2/4
f 660/2/4 661/2/4 664/2/4
f 664/2/4 661/2/4 665/2/4
f 663/2/4 664/2/4 667/2/4
f 665/2/4 666/2/4 667/2/4
f 664/2/4 665/2/4 667/2/4
f 667/2/4 666/2/4 668/2/4
f 669/4/4 670/4/4 671/4/4
f 671/4/4 670/4/4 672/4/4
f 673/4/4 674/4/4 675/4/4
f 675/4/4 674/4/4 676/4/4
f 677/2/4 678/2/4 680/2/4
f 678/4/4 679/4/4 681/4/4
f 680/2/4 678/2/4 681/2/4
f 681/4/4 679/4/4 682/4/4
f 683/2/4 684/2/4 686/2/4
f 684/4/4 685/4/4 687/4/4
f 686/2/4 684/2/4 687/2/4
f 687/4/4 685/4/4 688/4/4
f 690/4/4 691/4/4 692/4/4
f 690/4/4 692/4/4 694/4/4
f 692/4/4 693/4/4 694/4/4
f 694/4/4 693/4/4 695/4/4
f 689/2/4 690/2/4 696/2/4
f 690/4/4 694/4/4 697/4/4
f 696/2/4 690/2/4 697/2/4
f 697/4/4 694/4/4 698/4/4
f 700/4/4 701/4/4 702/4/4
f 700/4/4 702/4/4 704/4/4
f 702/4/4 703/4/4 704/4/4
f 704/4/4 703/4/4 705/4/4
f 699/2/4 700/2/4 706/2/4
f 700/4/4 704/4/4 707/4/4
f 706/2/4 700/2/4 707/2/4
f 707/4/4 704/4/4 708/4/4
f 709/4/4 710/4/4 711/4/4
f 711/4/4 710/4/4 712/4/4
f 713/3/4 714/3/4 715/3/4
f 715/3/4 714/3/4 716/3/4
f 716/3/4 717/3/4 719/3/4
f 719/3/4 717/3/4 720/3/4
f 718/3/4 719/3/4 721/3/4
f 721/3/4 719/3/4 722/3/4
f 723/2/4 724/2/4 726/2/4
f 724/4/4 725/4/4 727/4/4
f 726/2/4 724/2/4 727/2/4
f 727/4/4 725/4/4 728/4/4
f 730/3/4 731/3/4 732/3/4
f 730/3/4 732/3/4 734/3/4
f 732/3/4 733/3/4 734/3/4
f 734/3/4 733/3/4 735/3/4
f 729/2/4 730/2/4 736/2/4
f 730/3/4 734/3/4 737/3/4
f 736/2/4 730/2/4 737/2/4
f 737/3/4 734/3/4 738/3/4
f 739/4/4 740/4/4 741/4/4
f 741/4/4 740/4/4 742/4/4
f 743/2/4 744/2/4 746/2/4
f 744/4/4 745/4/4 747/4/4
f 746/2/4 744/2/4 747/2/4
f 747/4/4 745/4/4 748/4/4
f 749/4/4 750/4/4 751/4/4
f 751/4/4 750/4/4 752/4/4
f 753/4/4 754/4/4 755/4/4
f 755/4/4 754/4/4 756/4/4
f 757/4/4 758/4/4 759/4/4
f 759/4/4 758/4/4 760/4/4
f 762/4/4 763/4/4 764/4/4
f 762/4/4 764/4/4 766/4/4
f 764/4/4 765/4/4 766/4/4
f 766/4/4 765/4/4 767/4/4
f 761/2/4 762/2/4 768/2/4
f 762/4/4 766/4/4 769/4/4
f 768/2/4 762/2/4 769/2/4
f 769/4/4 766/4/4 770/4/4
f 771/4/4 772/4/4 773/4/4
f 773/4/4 772/4/4 774/4/4
f 775/4/4 776/4/4 777/4/4
f 777/4/4 776/4/4 778/4/4
f 779/2/4 780/2/4 782/2/4
f 780/4/4 781/4/4 783/4/4
f 782/2/4 780/2/4 783/2/4
f 783/4/4 781/4/4 784/4/4
f 779/2/4 782/2/4 785/2/4
f 782/4/4 783/4/4 786/4/4
f 785/2/4 782/2/4 786/2/4
f 786/4/4 783/4/4 787/4/4
f 789/4/4 790/4/4 791/4/4
f 789/4/4 791/4/4 793/4/4
f 791/4/4 792/4/4 793/4/4
f 793/4/4 792/4/4 794/4/4
f 788/2/4 789/2/4 795/2/4
f 789/4/4 793/4/4 796/4/4
f 795/2/4 789/2/4 796/2/4
f 796/4/4 793/4/4 797/4/4
f 804/2/5 799/2/5 798/2/5
f 805/2/5 799/2/5 804/2/5
f 806/2/5 801/2/5 800/2/5
f 807/2/5 801/2/5 806/2/5
f 808/2/5 803/2/5 802/2/5
f 809/2/5 803/2/5 808/2/5
f 811/1/5 807/1/5 806/1/5
f 811/1/5 808/1/5 807/1/5
f 811/1/5 806/1/5 805/1/5
f 812/1/5 808/1/5 811/1/5
f 813/1/5 808/1/5 812/1/5
f 814/1/5 808/1/5 813/1/5
f 816/2/5 811/2/5 810/2/5
f 817/2/5 811/2/5 816/2/5
f 818/2/5 813/2/5 812/2/5
f 819/2/5 813/2/5 818/2/5
f 820/2/5 815/2/5 814/2/5
f 821/2/5 815/2/5 820/2/5
f 826/2/5 823/2/5 822/2/5
f 827/2/5 823/2/5 826/2/5
f 828/2/5 825/2/5 824/2/5
f 829/2/5 825/2/5 828/2/5
f 830/2/5 826/2/5 822/2/5
f 831/2/5 826/2/5 830/2/5
f 836/2/5 825/2/5 829/2/5
f 837/2/5 825/2/5 836/2/5
f 842/2/5 833/2/5 832/2/5
f 843/2/5 833/2/5 842/2/5
f 844/2/5 835/2/5 834/2/5
f 845/2/5 835/2/5 844/2/5
f 848/2/5 839/2/5 838/2/5
f 849/2/5 839/2/5 848/2/5
f 850/2/5 841/2/5 840/2/5
f 854/2/5 847/2/5 846/2/5
f 856/2/5 851/2/5 850/2/5
f 856/2/5 850/2/5 840/2/5
f 857/2/5 851/2/5 856/2/5
f 858/2/5 855/2/5 854/2/5
f 858/2/5 854/2/5 846/2/5
f 859/2/5 855/2/5 858/2/5
f 860/2/5 853/2/5 852/2/5
f 861/2/5 853/2/5 860/2/5
f 867/2/5 863/2/5 862/2/5
f 868/2/5 863/2/5 867/2/5
f 871/2/5 865/2/5 864/2/5
f 872/2/5 865/2/5 871/2/5
f 874/2/5 867/2/5 866/2/5
f 875/2/5 867/2/5 874/2/5
f 876/2/5 869/2/5 868/2/5
f 877/2/5 869/2/5 876/2/5
f 878/2/5 871/2/5 870/2/5
f 879/2/5 871/2/5 878/2/5
f 880/2/5 873/2/5 872/2/5
f 881/2/5 873/2/5 880/2/5
f 882/2/5 876/2/5 875/2/5
f 883/2/5 876/2/5 882/2/5
f 884/2/5 880/2/5 879/2/5
f 885/2/5 880/2/5 884/2/5
f 886/2/6 887/2/6 890/2/6
f 890/2/6 887/2/6 891/2/6
f 888/1/6 889/1/6 894/1/6
f 892/1/6 893/1/6 894/1/6
f 891/1/6 892/1/6 894/1/6
f 890/1/6 891/1/6 894/1/6
f 889/1/6 890/1/6 894/1/6
f 894/1/6 893/1/6 895/1/6
f 895/1/6 893/1/6 896/1/6
f 896/1/6 893/1/6 897/1/6
f 897/1/6 893/1/6 898/1/6
f 898/1/6 893/1/6 899/1/6
f 896/2/6 897/2/6 900/2/6
f 900/2/6 897/2/6 901/2/6
f 904/4/6 905/4/6 908/4/6
f 908/4/6 905/4/6 909/4/6
f 906/4/6 907/4/6 910/4/6
f 910/4/6 907/4/6 911/4/6
f 912/4/6 913/4/6 916/4/6
f 916/4/6 913/4/6 917/4/6
f 914/4/6 915/4/6 918/4/6
f 918/4/6 915/4/6 919/4/6
f 902/4/6 903/4/6 920/4/6
f 920/4/6 903/4/6 921/4/6
f 912/4/6 916/4/6 922/4/6
f 922/4/6 916/4/6 923/4/6
f 924/4/6 925/4/6 926/4/6
f 926/4/6 925/4/6 927/4/6
f 928/4/6 929/4/6 936/4/6
f 936/4/6 929/4/6 937/4/6
f 934/4/6 935/4/6 938/4/6
f 938/4/6 935/4/6 939/4/6
f 940/4/6 941/4/6 946/4/6
f 946/4/6 941/4/6 947/4/6
f 932/4/6 933/4/6 948/4/6
f 930/4/6 931/4/6 954/4/6
f 954/4/6 931/4/6 955/4/6
f 948/4/6 949/4/6 956/4/6
f 932/4/6 948/4/6 956/4/6
f 956/4/6 949/4/6 957/4/6
f 942/4/6 943/4/6 958/4/6
f 958/4/6 943/4/6 959/4/6
f 944/4/6 945/4/6 960/4/6
f 960/4/6 945/4/6 961/4/6
f 950/4/6 951/4/6 963/4/6
f 963/4/6 951/4/6 964/4/6
f 961/4/6 962/4/6 969/4/6
f 969/4/6 962/4/6 970/4/6
f 952/4/6 953/4/6 973/4/6
f 973/4/6 953/4/6 974/4/6
f 965/4/6 966/4/6 975/4/6
f 975/4/6 966/4/6 976/4/6
f 967/4/6 968/4/6 977/4/6
f 977/4/6 968/4/6 978/4/6
f 979/4/6 980/4/6 983/4/6
f 983/4/6 980/4/6 984/4/6
f 971/4/6 972/4/6 985/4/6
f 985/4/6 972/4/6 986/4/6
f 981/4/6 982/4/6 987/4/6
f 987/4/6 982/4/6 988/4/6
f 989/2/6 990/2/6 994/2/6
f 994/2/6 990/2/6 995/2/6
f 991/2/6 992/2/6 998/2/6
f 998/2/6 992/2/6 999/2/6
f 993/2/6 994/2/6 1001/2/6
f 1001/2/6 994/2/6 1002/2/6
f 995/2/6 996/2/6 1003/2/6
f 1003/2/6 996/2/6 1004/2/6
f 997/2/6 998/2/6 1005/2/6
f 1005/2/6 998/2/6 1006/2/6
f 999/2/6 1000/2/6 1007/2/6
f 1007/2/6 1000/2/6 1008/2/6
f 1002/2/6 1003/2/6 1009/2/6
f 1009/2/6 1003/2/6 1010/2/6
f 1006/2/6 1007/2/6 1011/2/6
f 1011/2/6 1007/2/6 1012/2/6
f 1013/4/6 1014/4/6 1019/4/6
f 1015/4/6 1016/4/6 1022/4/6
f 1019/4/6 1020/4/6 1023/4/6
f 1013/4/6 1019/4/6 1023/4/6
f 1023/4/6 1020/4/6 1024/4/6
f 1021/4/6 1022/4/6 1025/4/6
f 1022/4/6 1016/4/6 1026/4/6
f 1025/4/6 1022/4/6 1026/4/6
f 1013/4/6 1023/4/6 1027/4/6
f 1027/4/6 1023/4/6 1028/4/6
f 1026/4/6 1016/4/6 1029/4/6
f 1029/4/6 1016/4/6 1030/4/6
f 1017/4/6 1018/4/6 1031/4/6
f 1031/4/6 1018/4/6 1032/4/6
f 1033/4/6 1034/4/6 1037/4/6
f 1037/4/6 1034/4/6 1038/4/6
f 1039/4/6 1040/4/6 1041/4/6
f 1041/4/6 1040/4/6 1042/4/6
f 1035/4/6 1036/4/6 1048/4/6
f 1048/4/6 1036/4/6 1049/4/6
f 1043/4/6 1044/4/6 1052/4/6
f 1052/4/6 1044/4/6 1053/4/6
f 1045/4/6 1046/4/6 1056/4/6
f 1049/4/6 1050/4/6 1057/4/6
f 1047/4/6 1048/4/6 1057/4/6
f 1048/4/6 1049/4/6 1057/4/6
f 1057/4/6 1050/4/6 1058/4/6
f 1058/4/6 1050/4/6 1059/4/6
f 1059/4/6 1050/4/6 1060/4/6
f 1053/4/6 1054/4/6 1061/4/6
f 1051/4/6 1052/4/6 1061/4/6
f 1052/4/6 1053/4/6 1061/4/6
f 1055/4/6 1056/4/6 1063/4/6
f 1056/4/6 1046/4/6 1064/4/6
f 1063/4/6 1056/4/6 1064/4/6
f 1064/4/6 1046/4/6 1065/4/6
f 1058/4/6 1059/4/6 1067/4/6
f 1067/4/6 1059/4/6 1068/4/6
f 1061/4/6 1062/4/6 1069/4/6
f 1051/4/6 1061/4/6 1069/4/6
f 1069/4/6 1062/4/6 1070/4/6
f 1065/4/6 1066/4/6 1071/4/6
f 1064/4/6 1065/4/6 1071/4/6
f 1071/4/6 1066/4/6 1072/4/6
f 1051/4/6 1069/4/6 1073/4/6
f 1073/4/6 1069/4/6 1074/4/6
f 1064/4/6 1071/4/6 1075/4/6
f 1075/4/6 1071/4/6 1076/4/6
f 1077/2/6 1078/2/6 1085/2/6
f 1085/2/6 1078/2/6 1086/2/6
f 1079/2/6 1080/2/6 1087/2/6
f 1087/2/6 1080/2/6 1088/2/6
f 1081/2/6 1082/2/6 1089/2/6
f 1089/2/6 1082/2/6 1090/2/6
f 1083/2/6 1084/2/6 1091/2/6
f 1091/2/6 1084/2/6 1092/2/6
f 1093/2/6 1094/2/6 1101/2/6
f 1101/2/6 1094/2/6 1102/2/6
f 1095/2/6 1096/2/6 1103/2/6
f 1103/2/6 1096/2/6 1104/2/6
f 1097/2/6 1098/2/6 1105/2/6
f 1105/2/6 1098/2/6 1106/2/6
f 1099/2/6 1100/2/6 1107/2/6
f 1107/2/6 1100/2/6 1108/2/6
f 1109/4/6 1110/4/6 1111/4/6
f 1111/4/6 1110/4/6 1112/4/6
f 1113/3/6 1114/3/6 1117/3/6
f 1117/3/6 1114/3/6 1118/3/6
f 1115/3/6 1116/3/6 1119/3/6
f 1119/3/6 1116/3/6 1120/3/6
f 1121/3/6 1122/3/6 1125/3/6
f 1125/3/6 1122/3/6 1126/3/6
f 1123/3/6 1124/3/6 1127/3/6
f 1127/3/6 1124/3/6 1128/3/6
f 1129/3/6 1130/3/6 1132/3/6
f 1132/3/6 1130/3/6 1133/3/6
f 1131/3/6 1132/3/6 1135/3/6
f 1135/3/6 1132/3/6 1136/3/6
f 1133/3/6 1134/3/6 1137/3/6
f 1137/3/6 1134/3/6 1138/3/6
f 1136/3/6 1137/3/6 1139/3/6
f 1139/3/6 1137/3/6 1140/3/6
f 1141/3/6 1142/3/6 1143/3/6
f 1143/3/6 1142/3/6 1144/3/6
