# MagicaVoxel @ Ephtracy

# group
o 

# material
mtllib side_city_wall.mtl
usemtl palette

# normals
vn -1 0 0
vn 1 0 0
vn 0 0 1
vn 0 0 -1
vn 0 -1 0
vn 0 1 0

# texcoords
vt 0.0371094 0.5
vt 0.373047 0.5
vt 0.849609 0.5

# verts
v -1 0 -1
v -1 0 -1.1
v -1 0 -1.4
v -1 0 -1.5
v -1 0.2 -1.1
v -1 0.2 -1.4
v -1 0.3 -1.1
v -1 0.3 -1.4
v -1 0.4 -1
v -1 0.4 -1.1
v -1 0.4 -1.4
v -1 0.4 -1.5
v -0.9 0 -1.1
v -0.9 0 -1.4
v -0.9 0 -1.7
v -0.9 0 -2.2
v -0.9 0 -2.4
v -0.9 0 -3
v -0.9 0.1 -1.1
v -0.9 0.1 -1.4
v -0.9 0.1 -1.7
v -0.9 0.1 -2.2
v -0.9 0.1 -2.4
v -0.9 0.1 -3
v -0.9 0.2 -1.7
v -0.9 0.2 -2.2
v -0.9 0.2 -2.4
v -0.9 0.2 -2.8
v -0.9 0.2 -2.9
v -0.9 0.2 -3
v -0.9 0.3 -2.8
v -0.9 0.3 -2.9
v -0.8 0.2 -1.7
v -0.8 0.2 -2.2
v -0.8 0.2 -2.4
v -0.8 0.2 -2.8
v -0.8 0.2 -2.9
v -0.8 0.2 -3
v -0.8 0.3 -1.7
v -0.8 0.3 -2.2
v -0.8 0.3 -2.4
v -0.8 0.3 -2.8
v -0.8 0.3 -2.9
v -0.8 0.3 -3
v -0.6 0 -1
v -0.6 0 -1.1
v -0.6 0 -1.4
v -0.6 0 -1.5
v -0.6 0.1 -1.1
v -0.6 0.1 -1.4
v -0.6 0.2 -1
v -0.6 0.2 -1.1
v -0.6 0.2 -1.4
v -0.6 0.2 -1.5
v -0.6 0.3 -1
v -0.6 0.3 -1.1
v -0.6 0.3 -1.4
v -0.6 0.3 -1.5
v -0.6 0.4 -1
v -0.6 0.4 -1.1
v -0.6 0.4 -1.4
v -0.6 0.4 -1.5
v -0.5 0 -2.2
v -0.5 0 -2.5
v -0.5 0.1 -2.2
v -0.5 0.1 -2.5
v -0.5 0.2 -2.2
v -0.5 0.2 -2.3
v -0.5 0.2 -2.4
v -0.5 0.2 -2.5
v -0.5 0.3 -2.3
v -0.5 0.3 -2.4
v -0.2 0 -2.6
v -0.2 0 -3.1
v -0.2 0.1 -2.6
v -0.2 0.1 -2.8
v -0.2 0.2 -2.6
v -0.2 0.2 -2.8
v -0.2 0.2 -3.1
v -0.2 0.3 -2.8
v -0.2 0.3 -3.1
v -0.0999999 0.2 -2.6
v -0.0999999 0.2 -2.8
v -0.0999999 0.3 -2.6
v -0.0999999 0.3 -2.8
v 0.1 0 -2.2
v 0.1 0 -2.5
v 0.1 0.1 -2.2
v 0.1 0.1 -2.5
v 0.1 0.2 -2.2
v 0.1 0.2 -2.5
v 0.2 0.2 -2.2
v 0.2 0.2 -2.5
v 0.2 0.3 -2.2
v 0.2 0.3 -2.5
v 0.3 0 -1.7
v 0.3 0 -2
v 0.3 0.1 -1.7
v 0.3 0.1 -2
v 0.3 0.2 -1.7
v 0.3 0.2 -1.8
v 0.3 0.2 -1.9
v 0.3 0.2 -2
v 0.3 0.3 -1.8
v 0.3 0.3 -1.9
v 0.5 0 -2.3
v 0.5 0 -2.6
v 0.5 0.1 -1
v 0.5 0.1 -1.1
v 0.5 0.1 -1.4
v 0.5 0.1 -1.5
v 0.5 0.1 -2.3
v 0.5 0.1 -2.6
v 0.5 0.2 -1.1
v 0.5 0.2 -1.4
v 0.5 0.2 -2.3
v 0.5 0.2 -2.4
v 0.5 0.2 -2.5
v 0.5 0.2 -2.6
v 0.5 0.3 -1.1
v 0.5 0.3 -1.4
v 0.5 0.3 -2.4
v 0.5 0.3 -2.5
v 0.5 0.4 -1
v 0.5 0.4 -1.1
v 0.5 0.4 -1.4
v 0.5 0.4 -1.5
v 0.6 0 -2
v 0.6 0 -2.2
v 0.6 0 -2.7
v 0.6 0 -3.1
v 0.6 0.1 -2
v 0.6 0.1 -2.7
v 0.6 0.1 -3.1
v 0.6 0.2 -1.7
v 0.6 0.2 -1.8
v 0.6 0.2 -1.9
v 0.6 0.2 -2
v 0.6 0.2 -2.2
v 0.6 0.2 -2.7
v 0.6 0.2 -2.8
v 0.6 0.2 -2.9
v 0.6 0.2 -3.1
v 0.6 0.3 -1.7
v 0.6 0.3 -1.8
v 0.6 0.3 -1.9
v 0.6 0.3 -2.2
v 0.6 0.3 -2.8
v 0.6 0.3 -2.9
v 0.7 0.2 -2.7
v 0.7 0.2 -2.8
v 0.7 0.2 -2.9
v 0.7 0.2 -3.1
v 0.7 0.3 -1.7
v 0.7 0.3 -2.2
v 0.7 0.3 -2.7
v 0.7 0.3 -2.8
v 0.7 0.3 -2.9
v 0.7 0.3 -3.1
v 0.7 0.4 -1.7
v 0.7 0.4 -2.2
v 0.9 0 -1
v 0.9 0 -1.1
v 0.9 0 -1.4
v 0.9 0 -1.5
v 0.9 0.1 -1.1
v 0.9 0.1 -1.4
v 0.9 0.2 -1
v 0.9 0.2 -1.1
v 0.9 0.2 -1.4
v 0.9 0.2 -1.5
v 0.9 0.3 -1
v 0.9 0.3 -1.1
v 0.9 0.3 -1.4
v 0.9 0.3 -1.5
v 0.9 0.4 -1
v 0.9 0.4 -1.1
v 0.9 0.4 -1.4
v 0.9 0.4 -1.5
v -0.9 0 -1
v -0.9 0 -1.1
v -0.9 0 -1.4
v -0.9 0 -1.5
v -0.9 0.1 -1.1
v -0.9 0.1 -1.4
v -0.9 0.2 -1
v -0.9 0.2 -1.1
v -0.9 0.2 -1.4
v -0.9 0.2 -1.5
v -0.9 0.3 -1
v -0.9 0.3 -1.1
v -0.9 0.3 -1.4
v -0.9 0.3 -1.5
v -0.9 0.4 -1
v -0.9 0.4 -1.1
v -0.9 0.4 -1.4
v -0.9 0.4 -1.5
v -0.7 0.2 -1.7
v -0.7 0.2 -1.8
v -0.7 0.2 -1.9
v -0.7 0.2 -2.2
v -0.7 0.2 -2.4
v -0.7 0.2 -2.8
v -0.7 0.2 -2.9
v -0.7 0.2 -3
v -0.7 0.3 -1.7
v -0.7 0.3 -1.8
v -0.7 0.3 -1.9
v -0.7 0.3 -2.2
v -0.7 0.3 -2.4
v -0.7 0.3 -2.8
v -0.7 0.3 -2.9
v -0.7 0.3 -3
v -0.6 0 -2
v -0.6 0 -2.2
v -0.6 0 -2.4
v -0.6 0 -2.7
v -0.6 0.1 -2
v -0.6 0.1 -2.2
v -0.6 0.1 -2.4
v -0.6 0.1 -2.7
v -0.6 0.2 -2
v -0.6 0.2 -2.2
v -0.6 0.2 -2.4
v -0.6 0.2 -2.7
v -0.5 0 -1.7
v -0.5 0 -2
v -0.5 0.1 -1
v -0.5 0.1 -1.1
v -0.5 0.1 -1.4
v -0.5 0.1 -1.5
v -0.5 0.1 -1.7
v -0.5 0.1 -2
v -0.5 0.2 -1.1
v -0.5 0.2 -1.4
v -0.5 0.2 -1.7
v -0.5 0.2 -1.8
v -0.5 0.2 -1.9
v -0.5 0.2 -2
v -0.5 0.3 -1.1
v -0.5 0.3 -1.4
v -0.5 0.3 -1.8
v -0.5 0.3 -1.9
v -0.5 0.4 -1
v -0.5 0.4 -1.1
v -0.5 0.4 -1.4
v -0.5 0.4 -1.5
v -0.4 0 -2.7
v -0.4 0 -3
v -0.4 0.1 -2.7
v -0.4 0.1 -3
v -0.4 0.2 -2.7
v -0.4 0.2 -2.8
v -0.4 0.2 -2.9
v -0.4 0.2 -3
v -0.4 0.3 -2.8
v -0.4 0.3 -2.9
v -0.0999999 0 -2.2
v -0.0999999 0 -2.5
v -0.0999999 0.1 -2.2
v -0.0999999 0.1 -2.5
v -0.0999999 0.2 -2.2
v -0.0999999 0.2 -2.3
v -0.0999999 0.2 -2.4
v -0.0999999 0.2 -2.5
v -0.0999999 0.3 -2.3
v -0.0999999 0.3 -2.4
v 1.19209e-07 0.2 -2.6
v 1.19209e-07 0.2 -2.8
v 1.19209e-07 0.3 -2.6
v 1.19209e-07 0.3 -2.8
v 0.1 0 -2.6
v 0.1 0 -2.8
v 0.1 0.1 -2.6
v 0.1 0.1 -2.8
v 0.1 0.2 -2.6
v 0.1 0.2 -2.8
v 0.1 0.2 -2.9
v 0.1 0.2 -3
v 0.1 0.2 -3.1
v 0.1 0.3 -2.8
v 0.1 0.3 -2.9
v 0.1 0.3 -3
v 0.1 0.3 -3.1
v 0.3 0.2 -2.2
v 0.3 0.2 -2.5
v 0.3 0.3 -2.2
v 0.3 0.3 -2.5
v 0.4 0 -2.2
v 0.4 0 -2.5
v 0.4 0 -2.8
v 0.4 0 -3.1
v 0.4 0.1 -2.2
v 0.4 0.1 -2.5
v 0.4 0.1 -2.8
v 0.4 0.1 -3.1
v 0.4 0.2 -2.2
v 0.4 0.2 -2.5
v 0.4 0.2 -2.8
v 0.4 0.2 -2.9
v 0.4 0.2 -3
v 0.4 0.2 -3.1
v 0.4 0.3 -2.9
v 0.4 0.3 -3
v 0.6 0 -1
v 0.6 0 -1.1
v 0.6 0 -1.4
v 0.6 0 -1.5
v 0.6 0.1 -1.1
v 0.6 0.1 -1.4
v 0.6 0.2 -1
v 0.6 0.2 -1.1
v 0.6 0.2 -1.4
v 0.6 0.2 -1.5
v 0.6 0.3 -1
v 0.6 0.3 -1.1
v 0.6 0.3 -1.4
v 0.6 0.3 -1.5
v 0.6 0.4 -1
v 0.6 0.4 -1.1
v 0.6 0.4 -1.4
v 0.6 0.4 -1.5
v 0.8 0 -2.3
v 0.8 0 -2.6
v 0.8 0.1 -2.3
v 0.8 0.1 -2.6
v 0.8 0.2 -2.3
v 0.8 0.2 -2.4
v 0.8 0.2 -2.5
v 0.8 0.2 -2.6
v 0.8 0.2 -2.7
v 0.8 0.2 -2.9
v 0.8 0.2 -3
v 0.8 0.2 -3.1
v 0.8 0.3 -1.7
v 0.8 0.3 -2.2
v 0.8 0.3 -2.4
v 0.8 0.3 -2.5
v 0.8 0.3 -2.7
v 0.8 0.3 -2.9
v 0.8 0.3 -3
v 0.8 0.3 -3.1
v 0.8 0.4 -1.7
v 0.8 0.4 -2.2
v 0.9 0 -1.1
v 0.9 0 -1.4
v 0.9 0 -1.7
v 0.9 0 -2.2
v 0.9 0 -2.7
v 0.9 0 -3.1
v 0.9 0.1 -1.1
v 0.9 0.1 -1.4
v 0.9 0.1 -2.7
v 0.9 0.1 -3.1
v 0.9 0.2 -1.7
v 0.9 0.2 -2.2
v 0.9 0.2 -2.7
v 0.9 0.2 -2.9
v 0.9 0.2 -3
v 0.9 0.2 -3.1
v 0.9 0.3 -1.7
v 0.9 0.3 -2.2
v 0.9 0.3 -2.9
v 0.9 0.3 -3
v 1 0 -1
v 1 0 -1.1
v 1 0 -1.4
v 1 0 -1.5
v 1 0.2 -1.1
v 1 0.2 -1.4
v 1 0.3 -1.1
v 1 0.3 -1.4
v 1 0.4 -1
v 1 0.4 -1.1
v 1 0.4 -1.4
v 1 0.4 -1.5
v -1 0 -1
v -1 0.4 -1
v -0.9 0 -1
v -0.9 0.2 -1
v -0.9 0.3 -1
v -0.9 0.4 -1
v -0.6 0 -1
v -0.6 0.2 -1
v -0.6 0.3 -1
v -0.6 0.4 -1
v -0.5 0.1 -1
v -0.5 0.4 -1
v 0.5 0.1 -1
v 0.5 0.4 -1
v 0.6 0 -1
v 0.6 0.2 -1
v 0.6 0.3 -1
v 0.6 0.4 -1
v 0.9 0 -1
v 0.9 0.2 -1
v 0.9 0.3 -1
v 0.9 0.4 -1
v 1 0 -1
v 1 0.4 -1
v -0.9 0 -1.1
v -0.9 0.1 -1.1
v -0.6 0 -1.1
v -0.6 0.1 -1.1
v 0.6 0 -1.1
v 0.6 0.1 -1.1
v 0.9 0 -1.1
v 0.9 0.1 -1.1
v -1 0 -1.4
v -1 0.2 -1.4
v -1 0.3 -1.4
v -1 0.4 -1.4
v -0.9 0 -1.4
v -0.9 0.1 -1.4
v -0.9 0.2 -1.4
v -0.9 0.3 -1.4
v -0.9 0.4 -1.4
v -0.6 0.1 -1.4
v -0.6 0.2 -1.4
v -0.6 0.3 -1.4
v -0.6 0.4 -1.4
v -0.5 0.1 -1.4
v -0.5 0.2 -1.4
v -0.5 0.3 -1.4
v -0.5 0.4 -1.4
v 0.5 0.1 -1.4
v 0.5 0.2 -1.4
v 0.5 0.3 -1.4
v 0.5 0.4 -1.4
v 0.6 0.1 -1.4
v 0.6 0.2 -1.4
v 0.6 0.3 -1.4
v 0.6 0.4 -1.4
v 0.9 0 -1.4
v 0.9 0.1 -1.4
v 0.9 0.2 -1.4
v 0.9 0.3 -1.4
v 0.9 0.4 -1.4
v 1 0 -1.4
v 1 0.2 -1.4
v 1 0.3 -1.4
v 1 0.4 -1.4
v -0.9 0 -1.7
v -0.9 0.1 -1.7
v -0.9 0.2 -1.7
v -0.8 0.2 -1.7
v -0.8 0.3 -1.7
v -0.7 0.2 -1.7
v -0.7 0.3 -1.7
v -0.5 0 -1.7
v -0.5 0.1 -1.7
v -0.5 0.2 -1.7
v 0.3 0 -1.7
v 0.3 0.1 -1.7
v 0.3 0.2 -1.7
v 0.6 0.1 -1.7
v 0.6 0.2 -1.7
v 0.6 0.3 -1.7
v 0.7 0.3 -1.7
v 0.7 0.4 -1.7
v 0.8 0.3 -1.7
v 0.8 0.4 -1.7
v 0.9 0 -1.7
v 0.9 0.2 -1.7
v 0.9 0.3 -1.7
v -0.7 0.2 -1.8
v -0.7 0.3 -1.8
v -0.5 0.2 -1.8
v -0.5 0.3 -1.8
v 0.3 0.2 -1.8
v 0.3 0.3 -1.8
v 0.6 0.2 -1.8
v 0.6 0.3 -1.8
v -0.5 0 -2.2
v -0.5 0.1 -2.2
v -0.5 0.2 -2.2
v -0.0999999 0 -2.2
v -0.0999999 0.1 -2.2
v -0.0999999 0.2 -2.2
v 0.1 0 -2.2
v 0.1 0.1 -2.2
v 0.1 0.2 -2.2
v 0.2 0.2 -2.2
v 0.2 0.3 -2.2
v 0.3 0.2 -2.2
v 0.3 0.3 -2.2
v 0.4 0 -2.2
v 0.4 0.1 -2.2
v 0.4 0.2 -2.2
v -0.5 0.2 -2.3
v -0.5 0.3 -2.3
v -0.0999999 0.2 -2.3
v -0.0999999 0.3 -2.3
v 0.5 0 -2.3
v 0.5 0.1 -2.3
v 0.5 0.2 -2.3
v 0.8 0 -2.3
v 0.8 0.1 -2.3
v 0.8 0.2 -2.3
v -0.9 0 -2.4
v -0.9 0.1 -2.4
v -0.9 0.2 -2.4
v -0.8 0.2 -2.4
v -0.8 0.3 -2.4
v -0.7 0.2 -2.4
v -0.7 0.3 -2.4
v -0.6 0 -2.4
v -0.6 0.1 -2.4
v -0.6 0.2 -2.4
v 0.5 0.2 -2.4
v 0.5 0.3 -2.4
v 0.8 0.2 -2.4
v 0.8 0.3 -2.4
v -0.2 0 -2.6
v -0.2 0.1 -2.6
v -0.2 0.2 -2.6
v -0.0999999 0.2 -2.6
v -0.0999999 0.3 -2.6
v 1.19209e-07 0.2 -2.6
v 1.19209e-07 0.3 -2.6
v 0.1 0 -2.6
v 0.1 0.1 -2.6
v 0.1 0.2 -2.6
v -0.6 0 -2.7
v -0.6 0.1 -2.7
v -0.6 0.2 -2.7
v -0.4 0 -2.7
v -0.4 0.1 -2.7
v -0.4 0.2 -2.7
v 0.6 0 -2.7
v 0.6 0.1 -2.7
v 0.6 0.2 -2.7
v 0.7 0.2 -2.7
v 0.7 0.3 -2.7
v 0.8 0.2 -2.7
v 0.8 0.3 -2.7
v 0.9 0 -2.7
v 0.9 0.1 -2.7
v 0.9 0.2 -2.7
v -0.9 0.2 -2.8
v -0.9 0.3 -2.8
v -0.8 0.2 -2.8
v -0.8 0.3 -2.8
v -0.7 0.2 -2.8
v -0.7 0.3 -2.8
v -0.4 0.2 -2.8
v -0.4 0.3 -2.8
v -0.2 0.2 -2.8
v -0.2 0.3 -2.8
v -0.0999999 0.2 -2.8
v -0.0999999 0.3 -2.8
v 1.19209e-07 0.2 -2.8
v 1.19209e-07 0.3 -2.8
v 0.1 0 -2.8
v 0.1 0.1 -2.8
v 0.1 0.2 -2.8
v 0.1 0.3 -2.8
v 0.4 0 -2.8
v 0.4 0.1 -2.8
v 0.4 0.2 -2.8
v 0.6 0.2 -2.8
v 0.6 0.3 -2.8
v 0.7 0.2 -2.8
v 0.7 0.3 -2.8
v 0.1 0.2 -2.9
v 0.1 0.3 -2.9
v 0.4 0.2 -2.9
v 0.4 0.3 -2.9
v 0.8 0.2 -2.9
v 0.8 0.3 -2.9
v 0.9 0.2 -2.9
v 0.9 0.3 -2.9
v -1 0 -1.1
v -1 0.2 -1.1
v -1 0.3 -1.1
v -1 0.4 -1.1
v -0.9 0 -1.1
v -0.9 0.1 -1.1
v -0.9 0.2 -1.1
v -0.9 0.3 -1.1
v -0.9 0.4 -1.1
v -0.6 0.1 -1.1
v -0.6 0.2 -1.1
v -0.6 0.3 -1.1
v -0.6 0.4 -1.1
v -0.5 0.1 -1.1
v -0.5 0.2 -1.1
v -0.5 0.3 -1.1
v -0.5 0.4 -1.1
v 0.5 0.1 -1.1
v 0.5 0.2 -1.1
v 0.5 0.3 -1.1
v 0.5 0.4 -1.1
v 0.6 0.1 -1.1
v 0.6 0.2 -1.1
v 0.6 0.3 -1.1
v 0.6 0.4 -1.1
v 0.9 0 -1.1
v 0.9 0.1 -1.1
v 0.9 0.2 -1.1
v 0.9 0.3 -1.1
v 0.9 0.4 -1.1
v 1 0 -1.1
v 1 0.2 -1.1
v 1 0.3 -1.1
v 1 0.4 -1.1
v -0.9 0 -1.4
v -0.9 0.1 -1.4
v -0.6 0 -1.4
v -0.6 0.1 -1.4
v 0.6 0 -1.4
v 0.6 0.1 -1.4
v 0.9 0 -1.4
v 0.9 0.1 -1.4
v -1 0 -1.5
v -1 0.4 -1.5
v -0.9 0 -1.5
v -0.9 0.2 -1.5
v -0.9 0.3 -1.5
v -0.9 0.4 -1.5
v -0.6 0 -1.5
v -0.6 0.2 -1.5
v -0.6 0.3 -1.5
v -0.6 0.4 -1.5
v -0.5 0.1 -1.5
v -0.5 0.4 -1.5
v 0.5 0.1 -1.5
v 0.5 0.4 -1.5
v 0.6 0 -1.5
v 0.6 0.2 -1.5
v 0.6 0.3 -1.5
v 0.6 0.4 -1.5
v 0.9 0 -1.5
v 0.9 0.2 -1.5
v 0.9 0.3 -1.5
v 0.9 0.4 -1.5
v 1 0 -1.5
v 1 0.4 -1.5
v -0.7 0.2 -1.9
v -0.7 0.3 -1.9
v -0.5 0.2 -1.9
v -0.5 0.3 -1.9
v 0.3 0.2 -1.9
v 0.3 0.3 -1.9
v 0.6 0.2 -1.9
v 0.6 0.3 -1.9
v -0.6 0 -2
v -0.6 0.1 -2
v -0.6 0.2 -2
v -0.5 0 -2
v -0.5 0.1 -2
v -0.5 0.2 -2
v 0.3 0 -2
v 0.3 0.1 -2
v 0.3 0.2 -2
v 0.6 0 -2
v 0.6 0.1 -2
v 0.6 0.2 -2
v -0.9 0 -2.2
v -0.9 0.1 -2.2
v -0.9 0.2 -2.2
v -0.8 0.2 -2.2
v -0.8 0.3 -2.2
v -0.7 0.2 -2.2
v -0.7 0.3 -2.2
v -0.6 0 -2.2
v -0.6 0.1 -2.2
v -0.6 0.2 -2.2
v 0.6 0 -2.2
v 0.6 0.2 -2.2
v 0.6 0.3 -2.2
v 0.7 0.3 -2.2
v 0.7 0.4 -2.2
v 0.8 0.3 -2.2
v 0.8 0.4 -2.2
v 0.9 0 -2.2
v 0.9 0.2 -2.2
v 0.9 0.3 -2.2
v -0.5 0.2 -2.4
v -0.5 0.3 -2.4
v -0.0999999 0.2 -2.4
v -0.0999999 0.3 -2.4
v -0.5 0 -2.5
v -0.5 0.1 -2.5
v -0.5 0.2 -2.5
v -0.0999999 0 -2.5
v -0.0999999 0.1 -2.5
v -0.0999999 0.2 -2.5
v 0.1 0 -2.5
v 0.1 0.1 -2.5
v 0.1 0.2 -2.5
v 0.2 0.2 -2.5
v 0.2 0.3 -2.5
v 0.3 0.2 -2.5
v 0.3 0.3 -2.5
v 0.4 0 -2.5
v 0.4 0.1 -2.5
v 0.4 0.2 -2.5
v 0.5 0.2 -2.5
v 0.5 0.3 -2.5
v 0.8 0.2 -2.5
v 0.8 0.3 -2.5
v 0.5 0 -2.6
v 0.5 0.1 -2.6
v 0.5 0.2 -2.6
v 0.8 0 -2.6
v 0.8 0.1 -2.6
v 0.8 0.2 -2.6
v -0.9 0.2 -2.9
v -0.9 0.3 -2.9
v -0.8 0.2 -2.9
v -0.8 0.3 -2.9
v -0.7 0.2 -2.9
v -0.7 0.3 -2.9
v -0.4 0.2 -2.9
v -0.4 0.3 -2.9
v 0.6 0.2 -2.9
v 0.6 0.3 -2.9
v 0.7 0.2 -2.9
v 0.7 0.3 -2.9
v -0.9 0 -3
v -0.9 0.1 -3
v -0.9 0.2 -3
v -0.8 0.2 -3
v -0.8 0.3 -3
v -0.7 0.2 -3
v -0.7 0.3 -3
v -0.4 0 -3
v -0.4 0.1 -3
v -0.4 0.2 -3
v 0.1 0.2 -3
v 0.1 0.3 -3
v 0.4 0.2 -3
v 0.4 0.3 -3
v 0.8 0.2 -3
v 0.8 0.3 -3
v 0.9 0.2 -3
v 0.9 0.3 -3
v -0.2 0 -3.1
v -0.2 0.2 -3.1
v -0.2 0.3 -3.1
v 0.1 0.1 -3.1
v 0.1 0.2 -3.1
v 0.1 0.3 -3.1
v 0.4 0 -3.1
v 0.4 0.1 -3.1
v 0.4 0.2 -3.1
v 0.6 0 -3.1
v 0.6 0.1 -3.1
v 0.6 0.2 -3.1
v 0.7 0.2 -3.1
v 0.7 0.3 -3.1
v 0.8 0.2 -3.1
v 0.8 0.3 -3.1
v 0.9 0 -3.1
v 0.9 0.1 -3.1
v 0.9 0.2 -3.1
v -1 0 -1
v -0.9 0 -1
v -0.6 0 -1
v 0.6 0 -1
v 0.9 0 -1
v 1 0 -1
v -1 0 -1.1
v -0.9 0 -1.1
v -0.6 0 -1.1
v 0.6 0 -1.1
v 0.9 0 -1.1
v 1 0 -1.1
v -1 0 -1.4
v -0.9 0 -1.4
v -0.6 0 -1.4
v 0.6 0 -1.4
v 0.9 0 -1.4
v 1 0 -1.4
v -1 0 -1.5
v -0.9 0 -1.5
v -0.6 0 -1.5
v 0.6 0 -1.5
v 0.9 0 -1.5
v 1 0 -1.5
v -0.9 0 -1.7
v -0.5 0 -1.7
v 0.3 0 -1.7
v 0.9 0 -1.7
v -0.6 0 -2
v -0.5 0 -2
v 0.3 0 -2
v 0.6 0 -2
v -0.9 0 -2.2
v -0.6 0 -2.2
v -0.5 0 -2.2
v -0.0999999 0 -2.2
v 0.1 0 -2.2
v 0.4 0 -2.2
v 0.6 0 -2.2
v 0.9 0 -2.2
v 0.5 0 -2.3
v 0.8 0 -2.3
v -0.9 0 -2.4
v -0.6 0 -2.4
v -0.5 0 -2.5
v -0.0999999 0 -2.5
v 0.1 0 -2.5
v 0.4 0 -2.5
v -0.2 0 -2.6
v 0.1 0 -2.6
v 0.5 0 -2.6
v 0.8 0 -2.6
v -0.6 0 -2.7
v -0.4 0 -2.7
v 0.6 0 -2.7
v 0.9 0 -2.7
v 0.1 0 -2.8
v 0.4 0 -2.8
v -0.9 0 -3
v -0.4 0 -3
v -0.2 0 -3.1
v 0.4 0 -3.1
v 0.6 0 -3.1
v 0.9 0 -3.1
v -0.9 0.2 -1
v -0.6 0.2 -1
v 0.6 0.2 -1
v 0.9 0.2 -1
v -1 0.2 -1.1
v -0.9 0.2 -1.1
v -0.6 0.2 -1.1
v -0.5 0.2 -1.1
v 0.5 0.2 -1.1
v 0.6 0.2 -1.1
v 0.9 0.2 -1.1
v 1 0.2 -1.1
v -1 0.2 -1.4
v -0.9 0.2 -1.4
v -0.6 0.2 -1.4
v -0.5 0.2 -1.4
v 0.5 0.2 -1.4
v 0.6 0.2 -1.4
v 0.9 0.2 -1.4
v 1 0.2 -1.4
v -0.9 0.2 -1.5
v -0.6 0.2 -1.5
v 0.6 0.2 -1.5
v 0.9 0.2 -1.5
v -0.5 0.1 -1
v 0.5 0.1 -1
v -0.9 0.1 -1.1
v -0.6 0.1 -1.1
v -0.5 0.1 -1.1
v 0.5 0.1 -1.1
v 0.6 0.1 -1.1
v 0.9 0.1 -1.1
v -0.9 0.1 -1.4
v -0.6 0.1 -1.4
v -0.5 0.1 -1.4
v 0.5 0.1 -1.4
v 0.6 0.1 -1.4
v 0.9 0.1 -1.4
v -0.5 0.1 -1.5
v 0.5 0.1 -1.5
v -0.9 0.2 -1.7
v -0.8 0.2 -1.7
v -0.7 0.2 -1.7
v -0.5 0.2 -1.7
v 0.3 0.2 -1.7
v 0.6 0.2 -1.7
v -0.7 0.2 -1.8
v -0.5 0.2 -1.8
v 0.3 0.2 -1.8
v 0.6 0.2 -1.8
v -0.7 0.2 -1.9
v -0.5 0.2 -1.9
v 0.3 0.2 -1.9
v 0.6 0.2 -1.9
v -0.6 0.2 -2
v -0.5 0.2 -2
v 0.3 0.2 -2
v 0.6 0.2 -2
v -0.9 0.2 -2.2
v -0.8 0.2 -2.2
v -0.7 0.2 -2.2
v -0.6 0.2 -2.2
v -0.5 0.2 -2.2
v -0.0999999 0.2 -2.2
v 0.1 0.2 -2.2
v 0.2 0.2 -2.2
v 0.3 0.2 -2.2
v 0.4 0.2 -2.2
v -0.5 0.2 -2.3
v -0.0999999 0.2 -2.3
v 0.5 0.2 -2.3
v 0.8 0.2 -2.3
v -0.9 0.2 -2.4
v -0.8 0.2 -2.4
v -0.7 0.2 -2.4
v -0.6 0.2 -2.4
v -0.5 0.2 -2.4
v -0.0999999 0.2 -2.4
v 0.5 0.2 -2.4
v 0.8 0.2 -2.4
v -0.5 0.2 -2.5
v -0.0999999 0.2 -2.5
v 0.1 0.2 -2.5
v 0.2 0.2 -2.5
v 0.3 0.2 -2.5
v 0.4 0.2 -2.5
v 0.5 0.2 -2.5
v 0.8 0.2 -2.5
v -0.2 0.2 -2.6
v -0.0999999 0.2 -2.6
v 1.19209e-07 0.2 -2.6
v 0.1 0.2 -2.6
v 0.5 0.2 -2.6
v 0.8 0.2 -2.6
v -0.6 0.2 -2.7
v -0.4 0.2 -2.7
v 0.6 0.2 -2.7
v 0.7 0.2 -2.7
v 0.8 0.2 -2.7
v 0.9 0.2 -2.7
v -0.9 0.2 -2.8
v -0.8 0.2 -2.8
v -0.7 0.2 -2.8
v -0.4 0.2 -2.8
v -0.2 0.2 -2.8
v -0.0999999 0.2 -2.8
v 1.19209e-07 0.2 -2.8
v 0.1 0.2 -2.8
v 0.4 0.2 -2.8
v 0.6 0.2 -2.8
v 0.7 0.2 -2.8
v -0.9 0.2 -2.9
v -0.8 0.2 -2.9
v -0.7 0.2 -2.9
v -0.4 0.2 -2.9
v 0.1 0.2 -2.9
v 0.4 0.2 -2.9
v 0.6 0.2 -2.9
v 0.7 0.2 -2.9
v 0.8 0.2 -2.9
v 0.9 0.2 -2.9
v -0.9 0.2 -3
v -0.8 0.2 -3
v -0.7 0.2 -3
v -0.4 0.2 -3
v 0.1 0.2 -3
v 0.4 0.2 -3
v 0.8 0.2 -3
v 0.9 0.2 -3
v 0.1 0.2 -3.1
v 0.4 0.2 -3.1
v 0.6 0.2 -3.1
v 0.7 0.2 -3.1
v 0.8 0.2 -3.1
v 0.9 0.2 -3.1
v -0.9 0.3 -1
v -0.6 0.3 -1
v 0.6 0.3 -1
v 0.9 0.3 -1
v -1 0.3 -1.1
v -0.9 0.3 -1.1
v -0.6 0.3 -1.1
v -0.5 0.3 -1.1
v 0.5 0.3 -1.1
v 0.6 0.3 -1.1
v 0.9 0.3 -1.1
v 1 0.3 -1.1
v -1 0.3 -1.4
v -0.9 0.3 -1.4
v -0.6 0.3 -1.4
v -0.5 0.3 -1.4
v 0.5 0.3 -1.4
v 0.6 0.3 -1.4
v 0.9 0.3 -1.4
v 1 0.3 -1.4
v -0.9 0.3 -1.5
v -0.6 0.3 -1.5
v 0.6 0.3 -1.5
v 0.9 0.3 -1.5
v -0.8 0.3 -1.7
v -0.7 0.3 -1.7
v 0.6 0.3 -1.7
v 0.7 0.3 -1.7
v 0.8 0.3 -1.7
v 0.9 0.3 -1.7
v -0.7 0.3 -1.8
v -0.5 0.3 -1.8
v 0.3 0.3 -1.8
v 0.6 0.3 -1.8
v -0.7 0.3 -1.9
v -0.5 0.3 -1.9
v 0.3 0.3 -1.9
v 0.6 0.3 -1.9
v -0.8 0.3 -2.2
v -0.7 0.3 -2.2
v 0.2 0.3 -2.2
v 0.3 0.3 -2.2
v 0.6 0.3 -2.2
v 0.7 0.3 -2.2
v 0.8 0.3 -2.2
v 0.9 0.3 -2.2
v -0.5 0.3 -2.3
v -0.0999999 0.3 -2.3
v -0.8 0.3 -2.4
v -0.7 0.3 -2.4
v -0.5 0.3 -2.4
v -0.0999999 0.3 -2.4
v 0.5 0.3 -2.4
v 0.8 0.3 -2.4
v 0.2 0.3 -2.5
v 0.3 0.3 -2.5
v 0.5 0.3 -2.5
v 0.8 0.3 -2.5
v -0.0999999 0.3 -2.6
v 1.19209e-07 0.3 -2.6
v 0.7 0.3 -2.7
v 0.8 0.3 -2.7
v -0.9 0.3 -2.8
v -0.8 0.3 -2.8
v -0.7 0.3 -2.8
v -0.4 0.3 -2.8
v -0.2 0.3 -2.8
v -0.0999999 0.3 -2.8
v 1.19209e-07 0.3 -2.8
v 0.1 0.3 -2.8
v 0.6 0.3 -2.8
v 0.7 0.3 -2.8
v -0.9 0.3 -2.9
v -0.8 0.3 -2.9
v -0.7 0.3 -2.9
v -0.4 0.3 -2.9
v 0.1 0.3 -2.9
v 0.4 0.3 -2.9
v 0.6 0.3 -2.9
v 0.7 0.3 -2.9
v 0.8 0.3 -2.9
v 0.9 0.3 -2.9
v -0.8 0.3 -3
v -0.7 0.3 -3
v 0.1 0.3 -3
v 0.4 0.3 -3
v 0.8 0.3 -3
v 0.9 0.3 -3
v -0.2 0.3 -3.1
v 0.1 0.3 -3.1
v 0.7 0.3 -3.1
v 0.8 0.3 -3.1
v -1 0.4 -1
v -0.9 0.4 -1
v -0.6 0.4 -1
v -0.5 0.4 -1
v 0.5 0.4 -1
v 0.6 0.4 -1
v 0.9 0.4 -1
v 1 0.4 -1
v -1 0.4 -1.1
v -0.9 0.4 -1.1
v -0.6 0.4 -1.1
v -0.5 0.4 -1.1
v 0.5 0.4 -1.1
v 0.6 0.4 -1.1
v 0.9 0.4 -1.1
v 1 0.4 -1.1
v -1 0.4 -1.4
v -0.9 0.4 -1.4
v -0.6 0.4 -1.4
v -0.5 0.4 -1.4
v 0.5 0.4 -1.4
v 0.6 0.4 -1.4
v 0.9 0.4 -1.4
v 1 0.4 -1.4
v -1 0.4 -1.5
v -0.9 0.4 -1.5
v -0.6 0.4 -1.5
v -0.5 0.4 -1.5
v 0.5 0.4 -1.5
v 0.6 0.4 -1.5
v 0.9 0.4 -1.5
v 1 0.4 -1.5
v 0.7 0.4 -1.7
v 0.8 0.4 -1.7
v 0.7 0.4 -2.2
v 0.8 0.4 -2.2

# faces
f 5/2/1 2/2/1 1/2/1
f 6/2/1 4/2/1 3/2/1
f 7/2/1 5/2/1 1/2/1
f 7/2/1 6/2/1 5/2/1
f 8/2/1 4/2/1 6/2/1
f 8/2/1 6/2/1 7/2/1
f 9/2/1 7/2/1 1/2/1
f 10/2/1 7/2/1 9/2/1
f 11/2/1 4/2/1 8/2/1
f 12/2/1 4/2/1 11/2/1
f 19/1/1 14/1/1 13/1/1
f 20/1/1 14/1/1 19/1/1
f 21/2/1 16/2/1 15/2/1
f 22/2/1 16/2/1 21/2/1
f 23/2/1 18/2/1 17/2/1
f 24/2/1 18/2/1 23/2/1
f 25/3/1 22/3/1 21/3/1
f 26/3/1 22/3/1 25/3/1
f 27/3/1 24/3/1 23/3/1
f 28/3/1 24/3/1 27/3/1
f 29/3/1 24/3/1 28/3/1
f 30/3/1 24/3/1 29/3/1
f 31/3/1 29/3/1 28/3/1
f 32/3/1 29/3/1 31/3/1
f 39/3/1 34/3/1 33/3/1
f 40/3/1 34/3/1 39/3/1
f 41/3/1 36/3/1 35/3/1
f 42/3/1 36/3/1 41/3/1
f 43/3/1 38/3/1 37/3/1
f 44/3/1 38/3/1 43/3/1
f 49/2/1 46/2/1 45/2/1
f 50/2/1 48/2/1 47/2/1
f 51/2/1 49/2/1 45/2/1
f 52/2/1 49/2/1 51/2/1
f 53/2/1 48/2/1 50/2/1
f 54/2/1 48/2/1 53/2/1
f 56/2/1 53/2/1 52/2/1
f 57/2/1 53/2/1 56/2/1
f 59/2/1 56/2/1 55/2/1
f 60/2/1 56/2/1 59/2/1
f 61/2/1 58/2/1 57/2/1
f 62/2/1 58/2/1 61/2/1
f 65/2/1 64/2/1 63/2/1
f 66/2/1 64/2/1 65/2/1
f 67/3/1 66/3/1 65/3/1
f 68/3/1 66/3/1 67/3/1
f 69/3/1 66/3/1 68/3/1
f 70/3/1 66/3/1 69/3/1
f 71/3/1 69/3/1 68/3/1
f 72/3/1 69/3/1 71/3/1
f 75/2/1 74/2/1 73/2/1
f 76/2/1 74/2/1 75/2/1
f 77/3/1 76/3/1 75/3/1
f 78/2/1 74/2/1 76/2/1
f 78/3/1 76/3/1 77/3/1
f 79/2/1 74/2/1 78/2/1
f 80/3/1 79/3/1 78/3/1
f 81/3/1 79/3/1 80/3/1
f 84/3/1 83/3/1 82/3/1
f 85/3/1 83/3/1 84/3/1
f 88/2/1 87/2/1 86/2/1
f 89/2/1 87/2/1 88/2/1
f 90/3/1 89/3/1 88/3/1
f 91/3/1 89/3/1 90/3/1
f 94/3/1 93/3/1 92/3/1
f 95/3/1 93/3/1 94/3/1
f 98/2/1 97/2/1 96/2/1
f 99/2/1 97/2/1 98/2/1
f 100/3/1 99/3/1 98/3/1
f 101/3/1 99/3/1 100/3/1
f 102/3/1 99/3/1 101/3/1
f 103/3/1 99/3/1 102/3/1
f 104/3/1 102/3/1 101/3/1
f 105/3/1 102/3/1 104/3/1
f 112/2/1 107/2/1 106/2/1
f 113/2/1 107/2/1 112/2/1
f 114/2/1 109/2/1 108/2/1
f 115/2/1 111/2/1 110/2/1
f 116/3/1 113/3/1 112/3/1
f 117/3/1 113/3/1 116/3/1
f 118/3/1 113/3/1 117/3/1
f 119/3/1 113/3/1 118/3/1
f 120/2/1 114/2/1 108/2/1
f 120/2/1 115/2/1 114/2/1
f 121/2/1 111/2/1 115/2/1
f 121/2/1 115/2/1 120/2/1
f 122/3/1 118/3/1 117/3/1
f 123/3/1 118/3/1 122/3/1
f 124/2/1 120/2/1 108/2/1
f 125/2/1 120/2/1 124/2/1
f 126/2/1 111/2/1 121/2/1
f 127/2/1 111/2/1 126/2/1
f 132/2/1 129/2/1 128/2/1
f 133/2/1 131/2/1 130/2/1
f 134/2/1 131/2/1 133/2/1
f 138/2/1 129/2/1 132/2/1
f 139/2/1 129/2/1 138/2/1
f 140/3/1 134/3/1 133/3/1
f 141/3/1 134/3/1 140/3/1
f 142/3/1 134/3/1 141/3/1
f 143/3/1 134/3/1 142/3/1
f 144/3/1 136/3/1 135/3/1
f 145/3/1 136/3/1 144/3/1
f 146/3/1 139/3/1 138/3/1
f 146/3/1 138/3/1 137/3/1
f 147/3/1 139/3/1 146/3/1
f 148/3/1 142/3/1 141/3/1
f 149/3/1 142/3/1 148/3/1
f 156/3/1 151/3/1 150/3/1
f 157/3/1 151/3/1 156/3/1
f 158/3/1 153/3/1 152/3/1
f 159/3/1 153/3/1 158/3/1
f 160/3/1 155/3/1 154/3/1
f 161/3/1 155/3/1 160/3/1
f 166/2/1 163/2/1 162/2/1
f 167/2/1 165/2/1 164/2/1
f 168/2/1 166/2/1 162/2/1
f 169/2/1 166/2/1 168/2/1
f 170/2/1 165/2/1 167/2/1
f 171/2/1 165/2/1 170/2/1
f 173/2/1 170/2/1 169/2/1
f 174/2/1 170/2/1 173/2/1
f 176/2/1 173/2/1 172/2/1
f 177/2/1 173/2/1 176/2/1
f 178/2/1 175/2/1 174/2/1
f 179/2/1 175/2/1 178/2/1
f 180/2/2 181/2/2 184/2/2
f 182/2/2 183/2/2 185/2/2
f 180/2/2 184/2/2 186/2/2
f 186/2/2 184/2/2 187/2/2
f 185/2/2 183/2/2 188/2/2
f 188/2/2 183/2/2 189/2/2
f 187/2/2 188/2/2 191/2/2
f 191/2/2 188/2/2 192/2/2
f 190/2/2 191/2/2 194/2/2
f 194/2/2 191/2/2 195/2/2
f 192/2/2 193/2/2 196/2/2
f 196/2/2 193/2/2 197/2/2
f 198/3/2 199/3/2 206/3/2
f 206/3/2 199/3/2 207/3/2
f 200/3/2 201/3/2 208/3/2
f 208/3/2 201/3/2 209/3/2
f 202/3/2 203/3/2 210/3/2
f 210/3/2 203/3/2 211/3/2
f 204/3/2 205/3/2 212/3/2
f 212/3/2 205/3/2 213/3/2
f 214/2/2 215/2/2 218/2/2
f 218/2/2 215/2/2 219/2/2
f 216/2/2 217/2/2 220/2/2
f 220/2/2 217/2/2 221/2/2
f 218/3/2 219/3/2 222/3/2
f 222/3/2 219/3/2 223/3/2
f 220/3/2 221/3/2 224/3/2
f 224/3/2 221/3/2 225/3/2
f 226/2/2 227/2/2 232/2/2
f 232/2/2 227/2/2 233/2/2
f 228/2/2 229/2/2 234/2/2
f 230/2/2 231/2/2 235/2/2
f 232/3/2 233/3/2 236/3/2
f 236/3/2 233/3/2 237/3/2
f 237/3/2 233/3/2 238/3/2
f 238/3/2 233/3/2 239/3/2
f 228/2/2 234/2/2 240/2/2
f 234/2/2 235/2/2 240/2/2
f 235/2/2 231/2/2 241/2/2
f 240/2/2 235/2/2 241/2/2
f 237/3/2 238/3/2 242/3/2
f 242/3/2 238/3/2 243/3/2
f 228/2/2 240/2/2 244/2/2
f 244/2/2 240/2/2 245/2/2
f 241/2/2 231/2/2 246/2/2
f 246/2/2 231/2/2 247/2/2
f 248/2/2 249/2/2 250/2/2
f 250/2/2 249/2/2 251/2/2
f 250/3/2 251/3/2 252/3/2
f 252/3/2 251/3/2 253/3/2
f 253/3/2 251/3/2 254/3/2
f 254/3/2 251/3/2 255/3/2
f 253/3/2 254/3/2 256/3/2
f 256/3/2 254/3/2 257/3/2
f 258/2/2 259/2/2 260/2/2
f 260/2/2 259/2/2 261/2/2
f 260/3/2 261/3/2 262/3/2
f 262/3/2 261/3/2 263/3/2
f 263/3/2 261/3/2 264/3/2
f 264/3/2 261/3/2 265/3/2
f 263/3/2 264/3/2 266/3/2
f 266/3/2 264/3/2 267/3/2
f 268/3/2 269/3/2 270/3/2
f 270/3/2 269/3/2 271/3/2
f 272/2/2 273/2/2 274/2/2
f 274/2/2 273/2/2 275/2/2
f 274/3/2 275/3/2 276/3/2
f 276/3/2 275/3/2 277/3/2
f 277/3/2 278/3/2 281/3/2
f 281/3/2 278/3/2 282/3/2
f 279/3/2 280/3/2 283/3/2
f 283/3/2 280/3/2 284/3/2
f 285/3/2 286/3/2 287/3/2
f 287/3/2 286/3/2 288/3/2
f 289/2/2 290/2/2 293/2/2
f 293/2/2 290/2/2 294/2/2
f 291/2/2 292/2/2 295/2/2
f 295/2/2 292/2/2 296/2/2
f 293/3/2 294/3/2 297/3/2
f 297/3/2 294/3/2 298/3/2
f 295/3/2 296/3/2 299/3/2
f 299/3/2 296/3/2 300/3/2
f 300/3/2 296/3/2 301/3/2
f 301/3/2 296/3/2 302/3/2
f 300/3/2 301/3/2 303/3/2
f 303/3/2 301/3/2 304/3/2
f 305/2/2 306/2/2 309/2/2
f 307/2/2 308/2/2 310/2/2
f 305/2/2 309/2/2 311/2/2
f 311/2/2 309/2/2 312/2/2
f 310/2/2 308/2/2 313/2/2
f 313/2/2 308/2/2 314/2/2
f 312/2/2 313/2/2 316/2/2
f 316/2/2 313/2/2 317/2/2
f 315/2/2 316/2/2 319/2/2
f 319/2/2 316/2/2 320/2/2
f 317/2/2 318/2/2 321/2/2
f 321/2/2 318/2/2 322/2/2
f 323/2/2 324/2/2 325/2/2
f 325/2/2 324/2/2 326/2/2
f 325/3/2 326/3/2 327/3/2
f 327/3/2 326/3/2 328/3/2
f 328/3/2 326/3/2 329/3/2
f 329/3/2 326/3/2 330/3/2
f 328/3/2 329/3/2 337/3/2
f 337/3/2 329/3/2 338/3/2
f 331/3/2 332/3/2 339/3/2
f 339/3/2 332/3/2 340/3/2
f 333/3/2 334/3/2 341/3/2
f 341/3/2 334/3/2 342/3/2
f 335/3/2 336/3/2 343/3/2
f 343/3/2 336/3/2 344/3/2
f 345/1/2 346/1/2 351/1/2
f 351/1/2 346/1/2 352/1/2
f 349/2/2 350/2/2 353/2/2
f 353/2/2 350/2/2 354/2/2
f 347/2/2 348/2/2 355/2/2
f 355/2/2 348/2/2 356/2/2
f 353/3/2 354/3/2 357/3/2
f 357/3/2 354/3/2 358/3/2
f 358/3/2 354/3/2 359/3/2
f 359/3/2 354/3/2 360/3/2
f 355/3/2 356/3/2 361/3/2
f 361/3/2 356/3/2 362/3/2
f 358/3/2 359/3/2 363/3/2
f 363/3/2 359/3/2 364/3/2
f 365/2/2 366/2/2 369/2/2
f 367/2/2 368/2/2 370/2/2
f 365/2/2 369/2/2 371/2/2
f 369/2/2 370/2/2 371/2/2
f 370/2/2 368/2/2 372/2/2
f 371/2/2 370/2/2 372/2/2
f 365/2/2 371/2/2 373/2/2
f 373/2/2 371/2/2 374/2/2
f 372/2/2 368/2/2 375/2/2
f 375/2/2 368/2/2 376/2/2
f 379/2/3 378/2/3 377/2/3
f 380/2/3 378/2/3 379/2/3
f 381/2/3 378/2/3 380/2/3
f 382/2/3 378/2/3 381/2/3
f 384/2/3 381/2/3 380/2/3
f 385/2/3 381/2/3 384/2/3
f 387/2/3 384/2/3 383/2/3
f 387/2/3 386/2/3 385/2/3
f 387/2/3 385/2/3 384/2/3
f 388/2/3 386/2/3 387/2/3
f 389/2/3 387/2/3 383/2/3
f 391/2/3 389/2/3 383/2/3
f 391/2/3 390/2/3 389/2/3
f 392/2/3 390/2/3 391/2/3
f 393/2/3 390/2/3 392/2/3
f 394/2/3 390/2/3 393/2/3
f 396/2/3 393/2/3 392/2/3
f 397/2/3 393/2/3 396/2/3
f 399/2/3 396/2/3 395/2/3
f 399/2/3 398/2/3 397/2/3
f 399/2/3 397/2/3 396/2/3
f 400/2/3 398/2/3 399/2/3
f 403/1/3 402/1/3 401/1/3
f 404/1/3 402/1/3 403/1/3
f 407/1/3 406/1/3 405/1/3
f 408/1/3 406/1/3 407/1/3
f 413/2/3 410/2/3 409/2/3
f 414/2/3 410/2/3 413/2/3
f 415/2/3 410/2/3 414/2/3
f 416/2/3 412/2/3 411/2/3
f 417/2/3 412/2/3 416/2/3
f 419/2/3 416/2/3 415/2/3
f 420/2/3 416/2/3 419/2/3
f 422/2/3 419/2/3 418/2/3
f 423/2/3 419/2/3 422/2/3
f 424/2/3 421/2/3 420/2/3
f 425/2/3 421/2/3 424/2/3
f 430/2/3 427/2/3 426/2/3
f 431/2/3 427/2/3 430/2/3
f 432/2/3 429/2/3 428/2/3
f 433/2/3 429/2/3 432/2/3
f 436/2/3 432/2/3 431/2/3
f 437/2/3 432/2/3 436/2/3
f 439/2/3 435/2/3 434/2/3
f 439/2/3 436/2/3 435/2/3
f 440/2/3 436/2/3 439/2/3
f 441/2/3 438/2/3 437/2/3
f 442/2/3 438/2/3 441/2/3
f 446/3/3 445/3/3 444/3/3
f 448/3/3 446/3/3 444/3/3
f 448/3/3 447/3/3 446/3/3
f 449/3/3 447/3/3 448/3/3
f 450/2/3 444/2/3 443/2/3
f 451/3/3 448/3/3 444/3/3
f 451/2/3 444/2/3 450/2/3
f 452/3/3 448/3/3 451/3/3
f 456/2/3 454/2/3 453/2/3
f 456/3/3 455/3/3 454/3/3
f 457/3/3 455/3/3 456/3/3
f 459/3/3 458/3/3 457/3/3
f 461/3/3 459/3/3 457/3/3
f 461/3/3 460/3/3 459/3/3
f 462/3/3 460/3/3 461/3/3
f 463/2/3 456/2/3 453/2/3
f 463/2/3 457/2/3 456/2/3
f 464/3/3 461/3/3 457/3/3
f 464/2/3 457/2/3 463/2/3
f 465/3/3 461/3/3 464/3/3
f 468/3/3 467/3/3 466/3/3
f 469/3/3 467/3/3 468/3/3
f 472/3/3 471/3/3 470/3/3
f 473/3/3 471/3/3 472/3/3
f 477/2/3 475/2/3 474/2/3
f 478/3/3 476/3/3 475/3/3
f 478/2/3 475/2/3 477/2/3
f 479/3/3 476/3/3 478/3/3
f 483/3/3 482/3/3 481/3/3
f 485/3/3 483/3/3 481/3/3
f 485/3/3 484/3/3 483/3/3
f 486/3/3 484/3/3 485/3/3
f 487/2/3 481/2/3 480/2/3
f 488/3/3 485/3/3 481/3/3
f 488/2/3 481/2/3 487/2/3
f 489/3/3 485/3/3 488/3/3
f 492/3/3 491/3/3 490/3/3
f 493/3/3 491/3/3 492/3/3
f 497/2/3 495/2/3 494/2/3
f 498/3/3 496/3/3 495/3/3
f 498/2/3 495/2/3 497/2/3
f 499/3/3 496/3/3 498/3/3
f 503/3/3 502/3/3 501/3/3
f 505/3/3 503/3/3 501/3/3
f 505/3/3 504/3/3 503/3/3
f 506/3/3 504/3/3 505/3/3
f 507/2/3 501/2/3 500/2/3
f 508/3/3 505/3/3 501/3/3
f 508/2/3 501/2/3 507/2/3
f 509/3/3 505/3/3 508/3/3
f 512/3/3 511/3/3 510/3/3
f 513/3/3 511/3/3 512/3/3
f 517/3/3 516/3/3 515/3/3
f 519/3/3 517/3/3 515/3/3
f 519/3/3 518/3/3 517/3/3
f 520/3/3 518/3/3 519/3/3
f 521/2/3 515/2/3 514/2/3
f 522/3/3 519/3/3 515/3/3
f 522/2/3 515/2/3 521/2/3
f 523/3/3 519/3/3 522/3/3
f 527/2/3 525/2/3 524/2/3
f 528/3/3 526/3/3 525/3/3
f 528/2/3 525/2/3 527/2/3
f 529/3/3 526/3/3 528/3/3
f 533/3/3 532/3/3 531/3/3
f 535/3/3 533/3/3 531/3/3
f 535/3/3 534/3/3 533/3/3
f 536/3/3 534/3/3 535/3/3
f 537/2/3 531/2/3 530/2/3
f 538/3/3 535/3/3 531/3/3
f 538/2/3 531/2/3 537/2/3
f 539/3/3 535/3/3 538/3/3
f 542/3/3 541/3/3 540/3/3
f 543/3/3 541/3/3 542/3/3
f 546/3/3 545/3/3 544/3/3
f 547/3/3 545/3/3 546/3/3
f 550/3/3 549/3/3 548/3/3
f 551/3/3 549/3/3 550/3/3
f 556/3/3 553/3/3 552/3/3
f 557/3/3 553/3/3 556/3/3
f 558/2/3 555/2/3 554/2/3
f 559/3/3 556/3/3 555/3/3
f 559/2/3 555/2/3 558/2/3
f 560/3/3 556/3/3 559/3/3
f 563/3/3 562/3/3 561/3/3
f 564/3/3 562/3/3 563/3/3
f 567/3/3 566/3/3 565/3/3
f 568/3/3 566/3/3 567/3/3
f 571/3/3 570/3/3 569/3/3
f 572/3/3 570/3/3 571/3/3
f 573/2/4 574/2/4 577/2/4
f 577/2/4 574/2/4 578/2/4
f 578/2/4 574/2/4 579/2/4
f 575/2/4 576/2/4 580/2/4
f 580/2/4 576/2/4 581/2/4
f 579/2/4 580/2/4 583/2/4
f 583/2/4 580/2/4 584/2/4
f 582/2/4 583/2/4 586/2/4
f 586/2/4 583/2/4 587/2/4
f 584/2/4 585/2/4 588/2/4
f 588/2/4 585/2/4 589/2/4
f 590/2/4 591/2/4 594/2/4
f 594/2/4 591/2/4 595/2/4
f 592/2/4 593/2/4 596/2/4
f 596/2/4 593/2/4 597/2/4
f 595/2/4 596/2/4 600/2/4
f 600/2/4 596/2/4 601/2/4
f 598/2/4 599/2/4 603/2/4
f 599/2/4 600/2/4 603/2/4
f 603/2/4 600/2/4 604/2/4
f 601/2/4 602/2/4 605/2/4
f 605/2/4 602/2/4 606/2/4
f 607/1/4 608/1/4 609/1/4
f 609/1/4 608/1/4 610/1/4
f 611/1/4 612/1/4 613/1/4
f 613/1/4 612/1/4 614/1/4
f 615/2/4 616/2/4 617/2/4
f 617/2/4 616/2/4 618/2/4
f 618/2/4 616/2/4 619/2/4
f 619/2/4 616/2/4 620/2/4
f 618/2/4 619/2/4 622/2/4
f 622/2/4 619/2/4 623/2/4
f 621/2/4 622/2/4 625/2/4
f 623/2/4 624/2/4 625/2/4
f 622/2/4 623/2/4 625/2/4
f 625/2/4 624/2/4 626/2/4
f 621/2/4 625/2/4 627/2/4
f 621/2/4 627/2/4 629/2/4
f 627/2/4 628/2/4 629/2/4
f 629/2/4 628/2/4 630/2/4
f 630/2/4 628/2/4 631/2/4
f 631/2/4 628/2/4 632/2/4
f 630/2/4 631/2/4 634/2/4
f 634/2/4 631/2/4 635/2/4
f 633/2/4 634/2/4 637/2/4
f 635/2/4 636/2/4 637/2/4
f 634/2/4 635/2/4 637/2/4
f 637/2/4 636/2/4 638/2/4
f 639/3/4 640/3/4 641/3/4
f 641/3/4 640/3/4 642/3/4
f 643/3/4 644/3/4 645/3/4
f 645/3/4 644/3/4 646/3/4
f 647/2/4 648/2/4 650/2/4
f 648/3/4 649/3/4 651/3/4
f 650/2/4 648/2/4 651/2/4
f 651/3/4 649/3/4 652/3/4
f 653/2/4 654/2/4 656/2/4
f 654/3/4 655/3/4 657/3/4
f 656/2/4 654/2/4 657/2/4
f 657/3/4 655/3/4 658/3/4
f 660/3/4 661/3/4 662/3/4
f 660/3/4 662/3/4 664/3/4
f 662/3/4 663/3/4 664/3/4
f 664/3/4 663/3/4 665/3/4
f 659/2/4 660/2/4 666/2/4
f 660/3/4 664/3/4 667/3/4
f 666/2/4 660/2/4 667/2/4
f 667/3/4 664/3/4 668/3/4
f 670/3/4 671/3/4 672/3/4
f 670/3/4 672/3/4 674/3/4
f 672/3/4 673/3/4 674/3/4
f 674/3/4 673/3/4 675/3/4
f 669/2/4 670/2/4 676/2/4
f 670/3/4 674/3/4 677/3/4
f 676/2/4 670/2/4 677/2/4
f 677/3/4 674/3/4 678/3/4
f 679/3/4 680/3/4 681/3/4
f 681/3/4 680/3/4 682/3/4
f 683/2/4 684/2/4 686/2/4
f 684/3/4 685/3/4 687/3/4
f 686/2/4 684/2/4 687/2/4
f 687/3/4 685/3/4 688/3/4
f 690/3/4 691/3/4 692/3/4
f 690/3/4 692/3/4 694/3/4
f 692/3/4 693/3/4 694/3/4
f 694/3/4 693/3/4 695/3/4
f 689/2/4 690/2/4 696/2/4
f 690/3/4 694/3/4 697/3/4
f 696/2/4 690/2/4 697/2/4
f 697/3/4 694/3/4 698/3/4
f 699/3/4 700/3/4 701/3/4
f 701/3/4 700/3/4 702/3/4
f 703/2/4 704/2/4 706/2/4
f 704/3/4 705/3/4 707/3/4
f 706/2/4 704/2/4 707/2/4
f 707/3/4 705/3/4 708/3/4
f 709/3/4 710/3/4 711/3/4
f 711/3/4 710/3/4 712/3/4
f 713/3/4 714/3/4 715/3/4
f 715/3/4 714/3/4 716/3/4
f 717/3/4 718/3/4 719/3/4
f 719/3/4 718/3/4 720/3/4
f 722/3/4 723/3/4 724/3/4
f 722/3/4 724/3/4 726/3/4
f 724/3/4 725/3/4 726/3/4
f 726/3/4 725/3/4 727/3/4
f 721/2/4 722/2/4 728/2/4
f 722/3/4 726/3/4 729/3/4
f 728/2/4 722/2/4 729/2/4
f 729/3/4 726/3/4 730/3/4
f 731/3/4 732/3/4 733/3/4
f 733/3/4 732/3/4 734/3/4
f 735/3/4 736/3/4 737/3/4
f 737/3/4 736/3/4 738/3/4
f 739/2/4 740/2/4 742/2/4
f 740/3/4 741/3/4 743/3/4
f 742/2/4 740/2/4 743/2/4
f 743/3/4 741/3/4 744/3/4
f 739/2/4 742/2/4 745/2/4
f 742/3/4 743/3/4 746/3/4
f 745/2/4 742/2/4 746/2/4
f 746/3/4 743/3/4 747/3/4
f 749/3/4 750/3/4 751/3/4
f 749/3/4 751/3/4 753/3/4
f 751/3/4 752/3/4 753/3/4
f 753/3/4 752/3/4 754/3/4
f 748/2/4 749/2/4 755/2/4
f 749/3/4 753/3/4 756/3/4
f 755/2/4 749/2/4 756/2/4
f 756/3/4 753/3/4 757/3/4
f 764/2/5 759/2/5 758/2/5
f 765/2/5 759/2/5 764/2/5
f 766/2/5 761/2/5 760/2/5
f 767/2/5 761/2/5 766/2/5
f 768/2/5 763/2/5 762/2/5
f 769/2/5 763/2/5 768/2/5
f 771/1/5 767/1/5 766/1/5
f 771/1/5 768/1/5 767/1/5
f 771/1/5 766/1/5 765/1/5
f 772/1/5 768/1/5 771/1/5
f 773/1/5 768/1/5 772/1/5
f 774/1/5 768/1/5 773/1/5
f 776/2/5 771/2/5 770/2/5
f 777/2/5 771/2/5 776/2/5
f 778/2/5 773/2/5 772/2/5
f 779/2/5 773/2/5 778/2/5
f 780/2/5 775/2/5 774/2/5
f 781/2/5 775/2/5 780/2/5
f 786/2/5 783/2/5 782/2/5
f 787/2/5 783/2/5 786/2/5
f 788/2/5 785/2/5 784/2/5
f 789/2/5 785/2/5 788/2/5
f 790/2/5 786/2/5 782/2/5
f 791/2/5 786/2/5 790/2/5
f 796/2/5 785/2/5 789/2/5
f 797/2/5 785/2/5 796/2/5
f 802/2/5 793/2/5 792/2/5
f 803/2/5 793/2/5 802/2/5
f 804/2/5 795/2/5 794/2/5
f 805/2/5 795/2/5 804/2/5
f 808/2/5 799/2/5 798/2/5
f 809/2/5 799/2/5 808/2/5
f 810/2/5 801/2/5 800/2/5
f 814/2/5 807/2/5 806/2/5
f 816/2/5 811/2/5 810/2/5
f 816/2/5 810/2/5 800/2/5
f 817/2/5 811/2/5 816/2/5
f 818/2/5 815/2/5 814/2/5
f 818/2/5 814/2/5 806/2/5
f 819/2/5 815/2/5 818/2/5
f 820/2/5 813/2/5 812/2/5
f 821/2/5 813/2/5 820/2/5
f 827/2/5 823/2/5 822/2/5
f 828/2/5 823/2/5 827/2/5
f 831/2/5 825/2/5 824/2/5
f 832/2/5 825/2/5 831/2/5
f 834/2/5 827/2/5 826/2/5
f 835/2/5 827/2/5 834/2/5
f 836/2/5 829/2/5 828/2/5
f 837/2/5 829/2/5 836/2/5
f 838/2/5 831/2/5 830/2/5
f 839/2/5 831/2/5 838/2/5
f 840/2/5 833/2/5 832/2/5
f 841/2/5 833/2/5 840/2/5
f 842/2/5 836/2/5 835/2/5
f 843/2/5 836/2/5 842/2/5
f 844/2/5 840/2/5 839/2/5
f 845/2/5 840/2/5 844/2/5
f 846/2/6 847/2/6 850/2/6
f 850/2/6 847/2/6 851/2/6
f 848/1/6 849/1/6 854/1/6
f 852/1/6 853/1/6 854/1/6
f 851/1/6 852/1/6 854/1/6
f 850/1/6 851/1/6 854/1/6
f 849/1/6 850/1/6 854/1/6
f 854/1/6 853/1/6 855/1/6
f 855/1/6 853/1/6 856/1/6
f 856/1/6 853/1/6 857/1/6
f 857/1/6 853/1/6 858/1/6
f 858/1/6 853/1/6 859/1/6
f 856/2/6 857/2/6 860/2/6
f 860/2/6 857/2/6 861/2/6
f 864/3/6 865/3/6 868/3/6
f 868/3/6 865/3/6 869/3/6
f 866/3/6 867/3/6 870/3/6
f 870/3/6 867/3/6 871/3/6
f 872/3/6 873/3/6 876/3/6
f 876/3/6 873/3/6 877/3/6
f 874/3/6 875/3/6 878/3/6
f 878/3/6 875/3/6 879/3/6
f 862/3/6 863/3/6 880/3/6
f 880/3/6 863/3/6 881/3/6
f 872/3/6 876/3/6 882/3/6
f 882/3/6 876/3/6 883/3/6
f 884/3/6 885/3/6 890/3/6
f 890/3/6 885/3/6 891/3/6
f 892/3/6 893/3/6 900/3/6
f 900/3/6 893/3/6 901/3/6
f 898/3/6 899/3/6 902/3/6
f 902/3/6 899/3/6 903/3/6
f 886/3/6 887/3/6 904/3/6
f 904/3/6 887/3/6 905/3/6
f 888/3/6 889/3/6 906/3/6
f 906/3/6 889/3/6 907/3/6
f 908/3/6 909/3/6 914/3/6
f 914/3/6 909/3/6 915/3/6
f 896/3/6 897/3/6 916/3/6
f 894/3/6 895/3/6 922/3/6
f 922/3/6 895/3/6 923/3/6
f 916/3/6 917/3/6 924/3/6
f 896/3/6 916/3/6 924/3/6
f 924/3/6 917/3/6 925/3/6
f 910/3/6 911/3/6 926/3/6
f 926/3/6 911/3/6 927/3/6
f 912/3/6 913/3/6 928/3/6
f 928/3/6 913/3/6 929/3/6
f 918/3/6 919/3/6 931/3/6
f 931/3/6 919/3/6 932/3/6
f 929/3/6 930/3/6 937/3/6
f 937/3/6 930/3/6 938/3/6
f 920/3/6 921/3/6 941/3/6
f 941/3/6 921/3/6 942/3/6
f 933/3/6 934/3/6 943/3/6
f 943/3/6 934/3/6 944/3/6
f 935/3/6 936/3/6 945/3/6
f 945/3/6 936/3/6 946/3/6
f 947/3/6 948/3/6 951/3/6
f 951/3/6 948/3/6 952/3/6
f 939/3/6 940/3/6 953/3/6
f 953/3/6 940/3/6 954/3/6
f 949/3/6 950/3/6 955/3/6
f 955/3/6 950/3/6 956/3/6
f 957/2/6 958/2/6 962/2/6
f 962/2/6 958/2/6 963/2/6
f 959/2/6 960/2/6 966/2/6
f 966/2/6 960/2/6 967/2/6
f 961/2/6 962/2/6 969/2/6
f 969/2/6 962/2/6 970/2/6
f 963/2/6 964/2/6 971/2/6
f 971/2/6 964/2/6 972/2/6
f 965/2/6 966/2/6 973/2/6
f 973/2/6 966/2/6 974/2/6
f 967/2/6 968/2/6 975/2/6
f 975/2/6 968/2/6 976/2/6
f 970/2/6 971/2/6 977/2/6
f 977/2/6 971/2/6 978/2/6
f 974/2/6 975/2/6 979/2/6
f 979/2/6 975/2/6 980/2/6
f 981/3/6 982/3/6 987/3/6
f 983/3/6 984/3/6 990/3/6
f 987/3/6 988/3/6 991/3/6
f 981/3/6 987/3/6 991/3/6
f 991/3/6 988/3/6 992/3/6
f 989/3/6 990/3/6 993/3/6
f 990/3/6 984/3/6 994/3/6
f 993/3/6 990/3/6 994/3/6
f 981/3/6 991/3/6 995/3/6
f 995/3/6 991/3/6 996/3/6
f 994/3/6 984/3/6 999/3/6
f 999/3/6 984/3/6 1000/3/6
f 985/3/6 986/3/6 1001/3/6
f 1001/3/6 986/3/6 1002/3/6
f 1003/3/6 1004/3/6 1007/3/6
f 1007/3/6 1004/3/6 1008/3/6
f 997/3/6 998/3/6 1011/3/6
f 1011/3/6 998/3/6 1012/3/6
f 1009/3/6 1010/3/6 1013/3/6
f 1013/3/6 1010/3/6 1014/3/6
f 1005/3/6 1006/3/6 1020/3/6
f 1020/3/6 1006/3/6 1021/3/6
f 1015/3/6 1016/3/6 1024/3/6
f 1024/3/6 1016/3/6 1025/3/6
f 1017/3/6 1018/3/6 1028/3/6
f 1021/3/6 1022/3/6 1029/3/6
f 1019/3/6 1020/3/6 1029/3/6
f 1020/3/6 1021/3/6 1029/3/6
f 1029/3/6 1022/3/6 1030/3/6
f 1030/3/6 1022/3/6 1031/3/6
f 1031/3/6 1022/3/6 1032/3/6
f 1025/3/6 1026/3/6 1033/3/6
f 1023/3/6 1024/3/6 1033/3/6
f 1024/3/6 1025/3/6 1033/3/6
f 1027/3/6 1028/3/6 1035/3/6
f 1028/3/6 1018/3/6 1036/3/6
f 1035/3/6 1028/3/6 1036/3/6
f 1036/3/6 1018/3/6 1037/3/6
f 1030/3/6 1031/3/6 1039/3/6
f 1039/3/6 1031/3/6 1040/3/6
f 1033/3/6 1034/3/6 1041/3/6
f 1023/3/6 1033/3/6 1041/3/6
f 1041/3/6 1034/3/6 1042/3/6
f 1036/3/6 1037/3/6 1043/3/6
f 1037/3/6 1038/3/6 1043/3/6
f 1043/3/6 1038/3/6 1044/3/6
f 1023/3/6 1041/3/6 1045/3/6
f 1045/3/6 1041/3/6 1046/3/6
f 1036/3/6 1043/3/6 1047/3/6
f 1047/3/6 1043/3/6 1048/3/6
f 1049/2/6 1050/2/6 1057/2/6
f 1057/2/6 1050/2/6 1058/2/6
f 1051/2/6 1052/2/6 1059/2/6
f 1059/2/6 1052/2/6 1060/2/6
f 1053/2/6 1054/2/6 1061/2/6
f 1061/2/6 1054/2/6 1062/2/6
f 1055/2/6 1056/2/6 1063/2/6
f 1063/2/6 1056/2/6 1064/2/6
f 1065/2/6 1066/2/6 1073/2/6
f 1073/2/6 1066/2/6 1074/2/6
f 1067/2/6 1068/2/6 1075/2/6
f 1075/2/6 1068/2/6 1076/2/6
f 1069/2/6 1070/2/6 1077/2/6
f 1077/2/6 1070/2/6 1078/2/6
f 1071/2/6 1072/2/6 1079/2/6
f 1079/2/6 1072/2/6 1080/2/6
f 1081/3/6 1082/3/6 1083/3/6
f 1083/3/6 1082/3/6 1084/3/6
