# MagicaVoxel @ Ephtracy

# group
o 

# material
mtllib side_city_plus.mtl
usemtl palette

# normals
vn -1 0 0
vn 1 0 0
vn 0 0 1
vn 0 0 -1
vn 0 -1 0
vn 0 1 0

# texcoords
vt 0.373047 0.5
vt 0.826172 0.5
vt 0.849609 0.5

# verts
v -0.9 0 -1.1
v -0.9 0 -1.5
v -0.9 0 -1.7
v -0.9 0 -2.2
v -0.9 0 -2.4
v -0.9 0 -3
v -0.9 0.1 -1.1
v -0.9 0.1 -1.5
v -0.9 0.1 -1.7
v -0.9 0.1 -2.2
v -0.9 0.1 -2.4
v -0.9 0.1 -3
v -0.9 0.2 -1.1
v -0.9 0.2 -1.5
v -0.9 0.2 -1.7
v -0.9 0.2 -2.2
v -0.9 0.2 -2.4
v -0.9 0.2 -2.8
v -0.9 0.2 -2.9
v -0.9 0.2 -3
v -0.9 0.3 -2.8
v -0.9 0.3 -2.9
v -0.8 0.2 -1.1
v -0.8 0.2 -1.5
v -0.8 0.2 -1.7
v -0.8 0.2 -2.2
v -0.8 0.2 -2.4
v -0.8 0.2 -2.8
v -0.8 0.2 -2.9
v -0.8 0.2 -3
v -0.8 0.3 -1.1
v -0.8 0.3 -1.5
v -0.8 0.3 -1.7
v -0.8 0.3 -2.2
v -0.8 0.3 -2.4
v -0.8 0.3 -2.8
v -0.8 0.3 -2.9
v -0.8 0.3 -3
v -0.5 0 -2.2
v -0.5 0 -2.5
v -0.5 0.1 -2.2
v -0.5 0.1 -2.5
v -0.5 0.2 -2.2
v -0.5 0.2 -2.3
v -0.5 0.2 -2.4
v -0.5 0.2 -2.5
v -0.5 0.3 -2.3
v -0.5 0.3 -2.4
v -0.2 0 -1.1
v -0.2 0 -1.4
v -0.2 0 -2.6
v -0.2 0 -3.1
v -0.2 0.1 -1.1
v -0.2 0.1 -1.4
v -0.2 0.1 -2.6
v -0.2 0.1 -2.8
v -0.2 0.2 -1.1
v -0.2 0.2 -1.2
v -0.2 0.2 -1.3
v -0.2 0.2 -1.4
v -0.2 0.2 -2.6
v -0.2 0.2 -2.8
v -0.2 0.2 -3.1
v -0.2 0.3 -1.2
v -0.2 0.3 -1.3
v -0.2 0.3 -2.8
v -0.2 0.3 -3.1
v -0.1 0.2 -2.6
v -0.1 0.2 -2.8
v -0.1 0.3 -2.6
v -0.1 0.3 -2.8
v 0.1 0 -1.4
v 0.1 0 -1.6
v 0.1 0 -2.2
v 0.1 0 -2.5
v 0.1 0.1 -1.4
v 0.1 0.2 -1.1
v 0.1 0.2 -1.2
v 0.1 0.2 -1.3
v 0.1 0.2 -1.4
v 0.1 0.2 -1.6
v 0.1 0.3 -1.1
v 0.1 0.3 -1.2
v 0.1 0.3 -1.3
v 0.1 0.3 -1.6
v 0.1 0.5 -2.2
v 0.1 0.5 -2.5
v 0.1 0.6 -2.2
v 0.1 0.6 -2.3
v 0.1 0.6 -2.4
v 0.1 0.6 -2.5
v 0.1 0.7 -2.3
v 0.1 0.7 -2.4
v 0.2 0.3 -1.1
v 0.2 0.3 -1.6
v 0.2 0.4 -1.1
v 0.2 0.4 -1.6
v 0.2 0.6 -2.2
v 0.2 0.6 -2.3
v 0.2 0.6 -2.4
v 0.2 0.6 -2.5
v 0.2 0.7 -2.2
v 0.2 0.7 -2.3
v 0.2 0.7 -2.4
v 0.2 0.7 -2.5
v 0.2 0.8 -2.3
v 0.2 0.8 -2.4
v 0.3 0 -1.7
v 0.3 0 -2
v 0.3 0.1 -1.7
v 0.3 0.1 -2
v 0.3 0.2 -1.7
v 0.3 0.2 -1.8
v 0.3 0.2 -1.9
v 0.3 0.2 -2
v 0.3 0.3 -1.8
v 0.3 0.3 -1.9
v 0.5 0 -2.3
v 0.5 0 -2.6
v 0.5 0.1 -2.3
v 0.5 0.1 -2.6
v 0.5 0.2 -2.3
v 0.5 0.2 -2.4
v 0.5 0.2 -2.5
v 0.5 0.2 -2.6
v 0.5 0.3 -2.4
v 0.5 0.3 -2.5
v 0.6 0 -1.2
v 0.6 0 -1.6
v 0.6 0 -2
v 0.6 0 -2.2
v 0.6 0 -2.7
v 0.6 0 -3.1
v 0.6 0.1 -1.2
v 0.6 0.1 -1.6
v 0.6 0.1 -2
v 0.6 0.1 -2.7
v 0.6 0.1 -3.1
v 0.6 0.2 -1.2
v 0.6 0.2 -1.3
v 0.6 0.2 -1.4
v 0.6 0.2 -1.6
v 0.6 0.2 -1.7
v 0.6 0.2 -1.8
v 0.6 0.2 -1.9
v 0.6 0.2 -2
v 0.6 0.2 -2.2
v 0.6 0.2 -2.7
v 0.6 0.2 -2.8
v 0.6 0.2 -2.9
v 0.6 0.2 -3.1
v 0.6 0.3 -1.3
v 0.6 0.3 -1.4
v 0.6 0.3 -1.7
v 0.6 0.3 -1.8
v 0.6 0.3 -1.9
v 0.6 0.3 -2.2
v 0.6 0.3 -2.8
v 0.6 0.3 -2.9
v 0.7 0.2 -1.2
v 0.7 0.2 -1.3
v 0.7 0.2 -1.4
v 0.7 0.2 -1.6
v 0.7 0.2 -2.7
v 0.7 0.2 -2.8
v 0.7 0.2 -2.9
v 0.7 0.2 -3.1
v 0.7 0.3 -1.2
v 0.7 0.3 -1.3
v 0.7 0.3 -1.4
v 0.7 0.3 -1.6
v 0.7 0.3 -1.7
v 0.7 0.3 -2.2
v 0.7 0.3 -2.7
v 0.7 0.3 -2.8
v 0.7 0.3 -2.9
v 0.7 0.3 -3.1
v 0.7 0.4 -1.7
v 0.7 0.4 -2.2
v -0.7 0.2 -1.1
v -0.7 0.2 -1.3
v -0.7 0.2 -1.4
v -0.7 0.2 -1.5
v -0.7 0.2 -1.7
v -0.7 0.2 -1.8
v -0.7 0.2 -1.9
v -0.7 0.2 -2.2
v -0.7 0.2 -2.4
v -0.7 0.2 -2.8
v -0.7 0.2 -2.9
v -0.7 0.2 -3
v -0.7 0.3 -1.1
v -0.7 0.3 -1.3
v -0.7 0.3 -1.4
v -0.7 0.3 -1.5
v -0.7 0.3 -1.7
v -0.7 0.3 -1.8
v -0.7 0.3 -1.9
v -0.7 0.3 -2.2
v -0.7 0.3 -2.4
v -0.7 0.3 -2.8
v -0.7 0.3 -2.9
v -0.7 0.3 -3
v -0.6 0 -1.1
v -0.6 0 -1.2
v -0.6 0 -2
v -0.6 0 -2.2
v -0.6 0 -2.4
v -0.6 0 -2.7
v -0.6 0.1 -1.1
v -0.6 0.1 -1.2
v -0.6 0.1 -2
v -0.6 0.1 -2.2
v -0.6 0.1 -2.4
v -0.6 0.1 -2.7
v -0.6 0.2 -1.1
v -0.6 0.2 -1.2
v -0.6 0.2 -2
v -0.6 0.2 -2.2
v -0.6 0.2 -2.4
v -0.6 0.2 -2.7
v -0.5 0 -1.7
v -0.5 0 -2
v -0.5 0.1 -1.7
v -0.5 0.1 -2
v -0.5 0.2 -1.7
v -0.5 0.2 -1.8
v -0.5 0.2 -1.9
v -0.5 0.2 -2
v -0.5 0.3 -1.8
v -0.5 0.3 -1.9
v -0.4 0 -2.7
v -0.4 0 -3
v -0.4 0.1 -2.7
v -0.4 0.1 -3
v -0.4 0.2 -1.3
v -0.4 0.2 -1.4
v -0.4 0.2 -2.7
v -0.4 0.2 -2.8
v -0.4 0.2 -2.9
v -0.4 0.2 -3
v -0.4 0.3 -1.3
v -0.4 0.3 -1.4
v -0.4 0.3 -2.8
v -0.4 0.3 -2.9
v -0.3 0 -1.2
v -0.3 0 -1.5
v -0.3 0.1 -1.2
v -0.3 0.1 -1.5
v -0.3 0.2 -1.2
v -0.3 0.2 -1.5
v -0.1 0 -2.2
v -0.1 0 -2.5
v -0.1 0.1 -2.2
v -0.1 0.1 -2.5
v -0.1 0.2 -2.2
v -0.1 0.2 -2.3
v -0.1 0.2 -2.4
v -0.1 0.2 -2.5
v -0.1 0.3 -2.3
v -0.1 0.3 -2.4
v 0 0.2 -2.6
v 0 0.2 -2.8
v 0 0.3 -2.6
v 0 0.3 -2.8
v 0.1 0 -2.6
v 0.1 0 -2.8
v 0.1 0.1 -2.6
v 0.1 0.1 -2.8
v 0.1 0.2 -2.6
v 0.1 0.2 -2.8
v 0.1 0.2 -2.9
v 0.1 0.2 -3
v 0.1 0.2 -3.1
v 0.1 0.3 -2.8
v 0.1 0.3 -2.9
v 0.1 0.3 -3
v 0.1 0.3 -3.1
v 0.3 0.3 -1.1
v 0.3 0.3 -1.6
v 0.3 0.4 -1.1
v 0.3 0.4 -1.6
v 0.3 0.6 -2.2
v 0.3 0.6 -2.3
v 0.3 0.6 -2.4
v 0.3 0.6 -2.5
v 0.3 0.7 -2.2
v 0.3 0.7 -2.3
v 0.3 0.7 -2.4
v 0.3 0.7 -2.5
v 0.3 0.8 -2.3
v 0.3 0.8 -2.4
v 0.4 0 -1.1
v 0.4 0 -1.6
v 0.4 0 -2.2
v 0.4 0 -2.5
v 0.4 0 -2.8
v 0.4 0 -3.1
v 0.4 0.1 -2.8
v 0.4 0.1 -3.1
v 0.4 0.2 -1.1
v 0.4 0.2 -1.6
v 0.4 0.2 -2.8
v 0.4 0.2 -2.9
v 0.4 0.2 -3
v 0.4 0.2 -3.1
v 0.4 0.3 -1.1
v 0.4 0.3 -1.6
v 0.4 0.3 -2.9
v 0.4 0.3 -3
v 0.4 0.5 -2.2
v 0.4 0.5 -2.5
v 0.4 0.6 -2.2
v 0.4 0.6 -2.3
v 0.4 0.6 -2.4
v 0.4 0.6 -2.5
v 0.4 0.7 -2.3
v 0.4 0.7 -2.4
v 0.8 0 -2.3
v 0.8 0 -2.6
v 0.8 0.1 -2.3
v 0.8 0.1 -2.6
v 0.8 0.2 -1.2
v 0.8 0.2 -1.4
v 0.8 0.2 -1.5
v 0.8 0.2 -1.6
v 0.8 0.2 -2.3
v 0.8 0.2 -2.4
v 0.8 0.2 -2.5
v 0.8 0.2 -2.6
v 0.8 0.2 -2.7
v 0.8 0.2 -2.9
v 0.8 0.2 -3
v 0.8 0.2 -3.1
v 0.8 0.3 -1.2
v 0.8 0.3 -1.4
v 0.8 0.3 -1.5
v 0.8 0.3 -1.6
v 0.8 0.3 -1.7
v 0.8 0.3 -2.2
v 0.8 0.3 -2.4
v 0.8 0.3 -2.5
v 0.8 0.3 -2.7
v 0.8 0.3 -2.9
v 0.8 0.3 -3
v 0.8 0.3 -3.1
v 0.8 0.4 -1.7
v 0.8 0.4 -2.2
v 0.9 0 -1.2
v 0.9 0 -1.6
v 0.9 0 -1.7
v 0.9 0 -2.2
v 0.9 0 -2.7
v 0.9 0 -3.1
v 0.9 0.1 -1.2
v 0.9 0.1 -1.6
v 0.9 0.1 -2.7
v 0.9 0.1 -3.1
v 0.9 0.2 -1.2
v 0.9 0.2 -1.4
v 0.9 0.2 -1.5
v 0.9 0.2 -1.6
v 0.9 0.2 -1.7
v 0.9 0.2 -2.2
v 0.9 0.2 -2.7
v 0.9 0.2 -2.9
v 0.9 0.2 -3
v 0.9 0.2 -3.1
v 0.9 0.3 -1.4
v 0.9 0.3 -1.5
v 0.9 0.3 -1.7
v 0.9 0.3 -2.2
v 0.9 0.3 -2.9
v 0.9 0.3 -3
v -0.9 0 -1.1
v -0.9 0.1 -1.1
v -0.9 0.2 -1.1
v -0.8 0.2 -1.1
v -0.8 0.3 -1.1
v -0.7 0.2 -1.1
v -0.7 0.3 -1.1
v -0.6 0 -1.1
v -0.6 0.1 -1.1
v -0.6 0.2 -1.1
v -0.2 0 -1.1
v -0.2 0.1 -1.1
v -0.2 0.2 -1.1
v 0.1 0.1 -1.1
v 0.1 0.2 -1.1
v 0.1 0.3 -1.1
v 0.2 0.3 -1.1
v 0.2 0.4 -1.1
v 0.3 0.3 -1.1
v 0.3 0.4 -1.1
v 0.4 0 -1.1
v 0.4 0.2 -1.1
v 0.4 0.3 -1.1
v -0.6 0 -1.2
v -0.6 0.1 -1.2
v -0.6 0.2 -1.2
v -0.3 0 -1.2
v -0.3 0.1 -1.2
v -0.3 0.2 -1.2
v -0.2 0.2 -1.2
v -0.2 0.3 -1.2
v 0.1 0.2 -1.2
v 0.1 0.3 -1.2
v 0.6 0 -1.2
v 0.6 0.1 -1.2
v 0.6 0.2 -1.2
v 0.7 0.2 -1.2
v 0.7 0.3 -1.2
v 0.8 0.2 -1.2
v 0.8 0.3 -1.2
v 0.9 0 -1.2
v 0.9 0.1 -1.2
v 0.9 0.2 -1.2
v -0.7 0.2 -1.3
v -0.7 0.3 -1.3
v -0.4 0.2 -1.3
v -0.4 0.3 -1.3
v 0.6 0.2 -1.3
v 0.6 0.3 -1.3
v 0.7 0.2 -1.3
v 0.7 0.3 -1.3
v 0.8 0.2 -1.4
v 0.8 0.3 -1.4
v 0.9 0.2 -1.4
v 0.9 0.3 -1.4
v -0.9 0 -1.7
v -0.9 0.1 -1.7
v -0.9 0.2 -1.7
v -0.8 0.2 -1.7
v -0.8 0.3 -1.7
v -0.7 0.2 -1.7
v -0.7 0.3 -1.7
v -0.5 0 -1.7
v -0.5 0.1 -1.7
v -0.5 0.2 -1.7
v 0.3 0 -1.7
v 0.3 0.1 -1.7
v 0.3 0.2 -1.7
v 0.6 0.1 -1.7
v 0.6 0.2 -1.7
v 0.6 0.3 -1.7
v 0.7 0.3 -1.7
v 0.7 0.4 -1.7
v 0.8 0.3 -1.7
v 0.8 0.4 -1.7
v 0.9 0 -1.7
v 0.9 0.2 -1.7
v 0.9 0.3 -1.7
v -0.7 0.2 -1.8
v -0.7 0.3 -1.8
v -0.5 0.2 -1.8
v -0.5 0.3 -1.8
v 0.3 0.2 -1.8
v 0.3 0.3 -1.8
v 0.6 0.2 -1.8
v 0.6 0.3 -1.8
v -0.5 0 -2.2
v -0.5 0.1 -2.2
v -0.5 0.2 -2.2
v -0.1 0 -2.2
v -0.1 0.1 -2.2
v -0.1 0.2 -2.2
v 0.1 0 -2.2
v 0.1 0.5 -2.2
v 0.1 0.6 -2.2
v 0.2 0.6 -2.2
v 0.2 0.7 -2.2
v 0.3 0.6 -2.2
v 0.3 0.7 -2.2
v 0.4 0 -2.2
v 0.4 0.5 -2.2
v 0.4 0.6 -2.2
v -0.5 0.2 -2.3
v -0.5 0.3 -2.3
v -0.1 0.2 -2.3
v -0.1 0.3 -2.3
v 0.1 0.6 -2.3
v 0.1 0.7 -2.3
v 0.2 0.6 -2.3
v 0.2 0.7 -2.3
v 0.2 0.8 -2.3
v 0.3 0.6 -2.3
v 0.3 0.7 -2.3
v 0.3 0.8 -2.3
v 0.4 0.6 -2.3
v 0.4 0.7 -2.3
v 0.5 0 -2.3
v 0.5 0.1 -2.3
v 0.5 0.2 -2.3
v 0.8 0 -2.3
v 0.8 0.1 -2.3
v 0.8 0.2 -2.3
v -0.9 0 -2.4
v -0.9 0.1 -2.4
v -0.9 0.2 -2.4
v -0.8 0.2 -2.4
v -0.8 0.3 -2.4
v -0.7 0.2 -2.4
v -0.7 0.3 -2.4
v -0.6 0 -2.4
v -0.6 0.1 -2.4
v -0.6 0.2 -2.4
v 0.5 0.2 -2.4
v 0.5 0.3 -2.4
v 0.8 0.2 -2.4
v 0.8 0.3 -2.4
v -0.2 0 -2.6
v -0.2 0.1 -2.6
v -0.2 0.2 -2.6
v -0.1 0.2 -2.6
v -0.1 0.3 -2.6
v 0 0.2 -2.6
v 0 0.3 -2.6
v 0.1 0 -2.6
v 0.1 0.1 -2.6
v 0.1 0.2 -2.6
v -0.6 0 -2.7
v -0.6 0.1 -2.7
v -0.6 0.2 -2.7
v -0.4 0 -2.7
v -0.4 0.1 -2.7
v -0.4 0.2 -2.7
v 0.6 0 -2.7
v 0.6 0.1 -2.7
v 0.6 0.2 -2.7
v 0.7 0.2 -2.7
v 0.7 0.3 -2.7
v 0.8 0.2 -2.7
v 0.8 0.3 -2.7
v 0.9 0 -2.7
v 0.9 0.1 -2.7
v 0.9 0.2 -2.7
v -0.9 0.2 -2.8
v -0.9 0.3 -2.8
v -0.8 0.2 -2.8
v -0.8 0.3 -2.8
v -0.7 0.2 -2.8
v -0.7 0.3 -2.8
v -0.4 0.2 -2.8
v -0.4 0.3 -2.8
v -0.2 0.2 -2.8
v -0.2 0.3 -2.8
v -0.1 0.2 -2.8
v -0.1 0.3 -2.8
v 0 0.2 -2.8
v 0 0.3 -2.8
v 0.1 0 -2.8
v 0.1 0.1 -2.8
v 0.1 0.2 -2.8
v 0.1 0.3 -2.8
v 0.4 0 -2.8
v 0.4 0.1 -2.8
v 0.4 0.2 -2.8
v 0.6 0.2 -2.8
v 0.6 0.3 -2.8
v 0.7 0.2 -2.8
v 0.7 0.3 -2.8
v 0.1 0.2 -2.9
v 0.1 0.3 -2.9
v 0.4 0.2 -2.9
v 0.4 0.3 -2.9
v 0.8 0.2 -2.9
v 0.8 0.3 -2.9
v 0.9 0.2 -2.9
v 0.9 0.3 -2.9
v -0.2 0.2 -1.3
v -0.2 0.3 -1.3
v 0.1 0.2 -1.3
v 0.1 0.3 -1.3
v -0.7 0.2 -1.4
v -0.7 0.3 -1.4
v -0.4 0.2 -1.4
v -0.4 0.3 -1.4
v -0.2 0 -1.4
v -0.2 0.1 -1.4
v -0.2 0.2 -1.4
v 0.1 0 -1.4
v 0.1 0.1 -1.4
v 0.1 0.2 -1.4
v 0.6 0.2 -1.4
v 0.6 0.3 -1.4
v 0.7 0.2 -1.4
v 0.7 0.3 -1.4
v -0.9 0 -1.5
v -0.9 0.1 -1.5
v -0.9 0.2 -1.5
v -0.8 0.2 -1.5
v -0.8 0.3 -1.5
v -0.7 0.2 -1.5
v -0.7 0.3 -1.5
v -0.3 0 -1.5
v -0.3 0.1 -1.5
v -0.3 0.2 -1.5
v 0.8 0.2 -1.5
v 0.8 0.3 -1.5
v 0.9 0.2 -1.5
v 0.9 0.3 -1.5
v 0.1 0 -1.6
v 0.1 0.2 -1.6
v 0.1 0.3 -1.6
v 0.2 0.3 -1.6
v 0.2 0.4 -1.6
v 0.3 0.3 -1.6
v 0.3 0.4 -1.6
v 0.4 0 -1.6
v 0.4 0.2 -1.6
v 0.4 0.3 -1.6
v 0.6 0 -1.6
v 0.6 0.1 -1.6
v 0.6 0.2 -1.6
v 0.7 0.2 -1.6
v 0.7 0.3 -1.6
v 0.8 0.2 -1.6
v 0.8 0.3 -1.6
v 0.9 0 -1.6
v 0.9 0.1 -1.6
v 0.9 0.2 -1.6
v -0.7 0.2 -1.9
v -0.7 0.3 -1.9
v -0.5 0.2 -1.9
v -0.5 0.3 -1.9
v 0.3 0.2 -1.9
v 0.3 0.3 -1.9
v 0.6 0.2 -1.9
v 0.6 0.3 -1.9
v -0.6 0 -2
v -0.6 0.1 -2
v -0.6 0.2 -2
v -0.5 0 -2
v -0.5 0.1 -2
v -0.5 0.2 -2
v 0.3 0 -2
v 0.3 0.1 -2
v 0.3 0.2 -2
v 0.6 0 -2
v 0.6 0.1 -2
v 0.6 0.2 -2
v -0.9 0 -2.2
v -0.9 0.1 -2.2
v -0.9 0.2 -2.2
v -0.8 0.2 -2.2
v -0.8 0.3 -2.2
v -0.7 0.2 -2.2
v -0.7 0.3 -2.2
v -0.6 0 -2.2
v -0.6 0.1 -2.2
v -0.6 0.2 -2.2
v 0.6 0 -2.2
v 0.6 0.2 -2.2
v 0.6 0.3 -2.2
v 0.7 0.3 -2.2
v 0.7 0.4 -2.2
v 0.8 0.3 -2.2
v 0.8 0.4 -2.2
v 0.9 0 -2.2
v 0.9 0.2 -2.2
v 0.9 0.3 -2.2
v -0.5 0.2 -2.4
v -0.5 0.3 -2.4
v -0.1 0.2 -2.4
v -0.1 0.3 -2.4
v 0.1 0.6 -2.4
v 0.1 0.7 -2.4
v 0.2 0.6 -2.4
v 0.2 0.7 -2.4
v 0.2 0.8 -2.4
v 0.3 0.6 -2.4
v 0.3 0.7 -2.4
v 0.3 0.8 -2.4
v 0.4 0.6 -2.4
v 0.4 0.7 -2.4
v -0.5 0 -2.5
v -0.5 0.1 -2.5
v -0.5 0.2 -2.5
v -0.1 0 -2.5
v -0.1 0.1 -2.5
v -0.1 0.2 -2.5
v 0.1 0 -2.5
v 0.1 0.5 -2.5
v 0.1 0.6 -2.5
v 0.2 0.6 -2.5
v 0.2 0.7 -2.5
v 0.3 0.6 -2.5
v 0.3 0.7 -2.5
v 0.4 0 -2.5
v 0.4 0.5 -2.5
v 0.4 0.6 -2.5
v 0.5 0.2 -2.5
v 0.5 0.3 -2.5
v 0.8 0.2 -2.5
v 0.8 0.3 -2.5
v 0.5 0 -2.6
v 0.5 0.1 -2.6
v 0.5 0.2 -2.6
v 0.8 0 -2.6
v 0.8 0.1 -2.6
v 0.8 0.2 -2.6
v -0.9 0.2 -2.9
v -0.9 0.3 -2.9
v -0.8 0.2 -2.9
v -0.8 0.3 -2.9
v -0.7 0.2 -2.9
v -0.7 0.3 -2.9
v -0.4 0.2 -2.9
v -0.4 0.3 -2.9
v 0.6 0.2 -2.9
v 0.6 0.3 -2.9
v 0.7 0.2 -2.9
v 0.7 0.3 -2.9
v -0.9 0 -3
v -0.9 0.1 -3
v -0.9 0.2 -3
v -0.8 0.2 -3
v -0.8 0.3 -3
v -0.7 0.2 -3
v -0.7 0.3 -3
v -0.4 0 -3
v -0.4 0.1 -3
v -0.4 0.2 -3
v 0.1 0.2 -3
v 0.1 0.3 -3
v 0.4 0.2 -3
v 0.4 0.3 -3
v 0.8 0.2 -3
v 0.8 0.3 -3
v 0.9 0.2 -3
v 0.9 0.3 -3
v -0.2 0 -3.1
v -0.2 0.2 -3.1
v -0.2 0.3 -3.1
v 0.1 0.1 -3.1
v 0.1 0.2 -3.1
v 0.1 0.3 -3.1
v 0.4 0 -3.1
v 0.4 0.1 -3.1
v 0.4 0.2 -3.1
v 0.6 0 -3.1
v 0.6 0.1 -3.1
v 0.6 0.2 -3.1
v 0.7 0.2 -3.1
v 0.7 0.3 -3.1
v 0.8 0.2 -3.1
v 0.8 0.3 -3.1
v 0.9 0 -3.1
v 0.9 0.1 -3.1
v 0.9 0.2 -3.1
v -0.9 0 -1.1
v -0.6 0 -1.1
v -0.2 0 -1.1
v 0.4 0 -1.1
v -0.6 0 -1.2
v -0.3 0 -1.2
v 0.6 0 -1.2
v 0.9 0 -1.2
v -0.2 0 -1.4
v 0.1 0 -1.4
v -0.9 0 -1.5
v -0.3 0 -1.5
v 0.1 0 -1.6
v 0.4 0 -1.6
v 0.6 0 -1.6
v 0.9 0 -1.6
v -0.9 0 -1.7
v -0.5 0 -1.7
v 0.3 0 -1.7
v 0.9 0 -1.7
v -0.6 0 -2
v -0.5 0 -2
v 0.3 0 -2
v 0.6 0 -2
v -0.9 0 -2.2
v -0.6 0 -2.2
v -0.5 0 -2.2
v -0.1 0 -2.2
v 0.1 0 -2.2
v 0.4 0 -2.2
v 0.6 0 -2.2
v 0.9 0 -2.2
v 0.5 0 -2.3
v 0.8 0 -2.3
v -0.9 0 -2.4
v -0.6 0 -2.4
v -0.5 0 -2.5
v -0.1 0 -2.5
v 0.1 0 -2.5
v 0.4 0 -2.5
v -0.2 0 -2.6
v 0.1 0 -2.6
v 0.5 0 -2.6
v 0.8 0 -2.6
v -0.6 0 -2.7
v -0.4 0 -2.7
v 0.6 0 -2.7
v 0.9 0 -2.7
v 0.1 0 -2.8
v 0.4 0 -2.8
v -0.9 0 -3
v -0.4 0 -3
v -0.2 0 -3.1
v 0.4 0 -3.1
v 0.6 0 -3.1
v 0.9 0 -3.1
v -0.9 0.2 -1.1
v -0.8 0.2 -1.1
v -0.7 0.2 -1.1
v -0.6 0.2 -1.1
v -0.2 0.2 -1.1
v 0.1 0.2 -1.1
v -0.6 0.2 -1.2
v -0.3 0.2 -1.2
v -0.2 0.2 -1.2
v 0.1 0.2 -1.2
v 0.6 0.2 -1.2
v 0.7 0.2 -1.2
v 0.8 0.2 -1.2
v 0.9 0.2 -1.2
v -0.7 0.2 -1.3
v -0.4 0.2 -1.3
v -0.2 0.2 -1.3
v 0.1 0.2 -1.3
v 0.6 0.2 -1.3
v 0.7 0.2 -1.3
v -0.7 0.2 -1.4
v -0.4 0.2 -1.4
v -0.2 0.2 -1.4
v 0.1 0.2 -1.4
v 0.6 0.2 -1.4
v 0.7 0.2 -1.4
v 0.8 0.2 -1.4
v 0.9 0.2 -1.4
v -0.9 0.2 -1.5
v -0.8 0.2 -1.5
v -0.7 0.2 -1.5
v -0.3 0.2 -1.5
v 0.8 0.2 -1.5
v 0.9 0.2 -1.5
v 0.6 0.2 -1.6
v 0.7 0.2 -1.6
v 0.8 0.2 -1.6
v 0.9 0.2 -1.6
v -0.9 0.2 -1.7
v -0.8 0.2 -1.7
v -0.7 0.2 -1.7
v -0.5 0.2 -1.7
v 0.3 0.2 -1.7
v 0.6 0.2 -1.7
v -0.7 0.2 -1.8
v -0.5 0.2 -1.8
v 0.3 0.2 -1.8
v 0.6 0.2 -1.8
v -0.7 0.2 -1.9
v -0.5 0.2 -1.9
v 0.3 0.2 -1.9
v 0.6 0.2 -1.9
v -0.6 0.2 -2
v -0.5 0.2 -2
v 0.3 0.2 -2
v 0.6 0.2 -2
v -0.9 0.2 -2.2
v -0.8 0.2 -2.2
v -0.7 0.2 -2.2
v -0.6 0.2 -2.2
v -0.5 0.2 -2.2
v -0.1 0.2 -2.2
v -0.5 0.2 -2.3
v -0.1 0.2 -2.3
v 0.5 0.2 -2.3
v 0.8 0.2 -2.3
v -0.9 0.2 -2.4
v -0.8 0.2 -2.4
v -0.7 0.2 -2.4
v -0.6 0.2 -2.4
v -0.5 0.2 -2.4
v -0.1 0.2 -2.4
v 0.5 0.2 -2.4
v 0.8 0.2 -2.4
v -0.5 0.2 -2.5
v -0.1 0.2 -2.5
v 0.5 0.2 -2.5
v 0.8 0.2 -2.5
v -0.2 0.2 -2.6
v -0.1 0.2 -2.6
v 0 0.2 -2.6
v 0.1 0.2 -2.6
v 0.5 0.2 -2.6
v 0.8 0.2 -2.6
v -0.6 0.2 -2.7
v -0.4 0.2 -2.7
v 0.6 0.2 -2.7
v 0.7 0.2 -2.7
v 0.8 0.2 -2.7
v 0.9 0.2 -2.7
v -0.9 0.2 -2.8
v -0.8 0.2 -2.8
v -0.7 0.2 -2.8
v -0.4 0.2 -2.8
v -0.2 0.2 -2.8
v -0.1 0.2 -2.8
v 0 0.2 -2.8
v 0.1 0.2 -2.8
v 0.4 0.2 -2.8
v 0.6 0.2 -2.8
v 0.7 0.2 -2.8
v -0.9 0.2 -2.9
v -0.8 0.2 -2.9
v -0.7 0.2 -2.9
v -0.4 0.2 -2.9
v 0.1 0.2 -2.9
v 0.4 0.2 -2.9
v 0.6 0.2 -2.9
v 0.7 0.2 -2.9
v 0.8 0.2 -2.9
v 0.9 0.2 -2.9
v -0.9 0.2 -3
v -0.8 0.2 -3
v -0.7 0.2 -3
v -0.4 0.2 -3
v 0.1 0.2 -3
v 0.4 0.2 -3
v 0.8 0.2 -3
v 0.9 0.2 -3
v 0.1 0.2 -3.1
v 0.4 0.2 -3.1
v 0.6 0.2 -3.1
v 0.7 0.2 -3.1
v 0.8 0.2 -3.1
v 0.9 0.2 -3.1
v -0.8 0.3 -1.1
v -0.7 0.3 -1.1
v 0.1 0.3 -1.1
v 0.2 0.3 -1.1
v 0.3 0.3 -1.1
v 0.4 0.3 -1.1
v -0.2 0.3 -1.2
v 0.1 0.3 -1.2
v 0.7 0.3 -1.2
v 0.8 0.3 -1.2
v -0.7 0.3 -1.3
v -0.4 0.3 -1.3
v -0.2 0.3 -1.3
v 0.1 0.3 -1.3
v 0.6 0.3 -1.3
v 0.7 0.3 -1.3
v -0.7 0.3 -1.4
v -0.4 0.3 -1.4
v 0.6 0.3 -1.4
v 0.7 0.3 -1.4
v 0.8 0.3 -1.4
v 0.9 0.3 -1.4
v -0.8 0.3 -1.5
v -0.7 0.3 -1.5
v 0.8 0.3 -1.5
v 0.9 0.3 -1.5
v 0.1 0.3 -1.6
v 0.2 0.3 -1.6
v 0.3 0.3 -1.6
v 0.4 0.3 -1.6
v 0.7 0.3 -1.6
v 0.8 0.3 -1.6
v -0.8 0.3 -1.7
v -0.7 0.3 -1.7
v 0.6 0.3 -1.7
v 0.7 0.3 -1.7
v 0.8 0.3 -1.7
v 0.9 0.3 -1.7
v -0.7 0.3 -1.8
v -0.5 0.3 -1.8
v 0.3 0.3 -1.8
v 0.6 0.3 -1.8
v -0.7 0.3 -1.9
v -0.5 0.3 -1.9
v 0.3 0.3 -1.9
v 0.6 0.3 -1.9
v -0.8 0.3 -2.2
v -0.7 0.3 -2.2
v 0.6 0.3 -2.2
v 0.7 0.3 -2.2
v 0.8 0.3 -2.2
v 0.9 0.3 -2.2
v -0.5 0.3 -2.3
v -0.1 0.3 -2.3
v -0.8 0.3 -2.4
v -0.7 0.3 -2.4
v -0.5 0.3 -2.4
v -0.1 0.3 -2.4
v 0.5 0.3 -2.4
v 0.8 0.3 -2.4
v 0.5 0.3 -2.5
v 0.8 0.3 -2.5
v -0.1 0.3 -2.6
v 0 0.3 -2.6
v 0.7 0.3 -2.7
v 0.8 0.3 -2.7
v -0.9 0.3 -2.8
v -0.8 0.3 -2.8
v -0.7 0.3 -2.8
v -0.4 0.3 -2.8
v -0.2 0.3 -2.8
v -0.1 0.3 -2.8
v 0 0.3 -2.8
v 0.1 0.3 -2.8
v 0.6 0.3 -2.8
v 0.7 0.3 -2.8
v -0.9 0.3 -2.9
v -0.8 0.3 -2.9
v -0.7 0.3 -2.9
v -0.4 0.3 -2.9
v 0.1 0.3 -2.9
v 0.4 0.3 -2.9
v 0.6 0.3 -2.9
v 0.7 0.3 -2.9
v 0.8 0.3 -2.9
v 0.9 0.3 -2.9
v -0.8 0.3 -3
v -0.7 0.3 -3
v 0.1 0.3 -3
v 0.4 0.3 -3
v 0.8 0.3 -3
v 0.9 0.3 -3
v -0.2 0.3 -3.1
v 0.1 0.3 -3.1
v 0.7 0.3 -3.1
v 0.8 0.3 -3.1
v 0.2 0.4 -1.1
v 0.3 0.4 -1.1
v 0.2 0.4 -1.6
v 0.3 0.4 -1.6
v 0.7 0.4 -1.7
v 0.8 0.4 -1.7
v 0.7 0.4 -2.2
v 0.8 0.4 -2.2
v 0.1 0.6 -2.2
v 0.2 0.6 -2.2
v 0.3 0.6 -2.2
v 0.4 0.6 -2.2
v 0.1 0.6 -2.3
v 0.2 0.6 -2.3
v 0.3 0.6 -2.3
v 0.4 0.6 -2.3
v 0.1 0.6 -2.4
v 0.2 0.6 -2.4
v 0.3 0.6 -2.4
v 0.4 0.6 -2.4
v 0.1 0.6 -2.5
v 0.2 0.6 -2.5
v 0.3 0.6 -2.5
v 0.4 0.6 -2.5
v 0.2 0.7 -2.2
v 0.3 0.7 -2.2
v 0.1 0.7 -2.3
v 0.2 0.7 -2.3
v 0.3 0.7 -2.3
v 0.4 0.7 -2.3
v 0.1 0.7 -2.4
v 0.2 0.7 -2.4
v 0.3 0.7 -2.4
v 0.4 0.7 -2.4
v 0.2 0.7 -2.5
v 0.3 0.7 -2.5
v 0.2 0.8 -2.3
v 0.3 0.8 -2.3
v 0.2 0.8 -2.4
v 0.3 0.8 -2.4

# faces
f 7/1/1 2/1/1 1/1/1
f 8/1/1 2/1/1 7/1/1
f 9/1/1 4/1/1 3/1/1
f 10/1/1 4/1/1 9/1/1
f 11/1/1 6/1/1 5/1/1
f 12/1/1 6/1/1 11/1/1
f 13/3/1 8/3/1 7/3/1
f 14/3/1 8/3/1 13/3/1
f 15/3/1 10/3/1 9/3/1
f 16/3/1 10/3/1 15/3/1
f 17/3/1 12/3/1 11/3/1
f 18/3/1 12/3/1 17/3/1
f 19/3/1 12/3/1 18/3/1
f 20/3/1 12/3/1 19/3/1
f 21/3/1 19/3/1 18/3/1
f 22/3/1 19/3/1 21/3/1
f 31/3/1 24/3/1 23/3/1
f 32/3/1 24/3/1 31/3/1
f 33/3/1 26/3/1 25/3/1
f 34/3/1 26/3/1 33/3/1
f 35/3/1 28/3/1 27/3/1
f 36/3/1 28/3/1 35/3/1
f 37/3/1 30/3/1 29/3/1
f 38/3/1 30/3/1 37/3/1
f 41/1/1 40/1/1 39/1/1
f 42/1/1 40/1/1 41/1/1
f 43/3/1 42/3/1 41/3/1
f 44/3/1 42/3/1 43/3/1
f 45/3/1 42/3/1 44/3/1
f 46/3/1 42/3/1 45/3/1
f 47/3/1 45/3/1 44/3/1
f 48/3/1 45/3/1 47/3/1
f 53/1/1 50/1/1 49/1/1
f 54/1/1 50/1/1 53/1/1
f 55/1/1 52/1/1 51/1/1
f 56/1/1 52/1/1 55/1/1
f 57/3/1 54/3/1 53/3/1
f 58/3/1 54/3/1 57/3/1
f 59/3/1 54/3/1 58/3/1
f 60/3/1 54/3/1 59/3/1
f 61/3/1 56/3/1 55/3/1
f 62/1/1 52/1/1 56/1/1
f 62/3/1 56/3/1 61/3/1
f 63/1/1 52/1/1 62/1/1
f 64/3/1 59/3/1 58/3/1
f 65/3/1 59/3/1 64/3/1
f 66/3/1 63/3/1 62/3/1
f 67/3/1 63/3/1 66/3/1
f 70/3/1 69/3/1 68/3/1
f 71/3/1 69/3/1 70/3/1
f 76/1/1 73/1/1 72/1/1
f 80/1/1 73/1/1 76/1/1
f 81/1/1 73/1/1 80/1/1
f 82/3/1 78/3/1 77/3/1
f 83/3/1 78/3/1 82/3/1
f 84/3/1 80/3/1 79/3/1
f 84/3/1 81/3/1 80/3/1
f 85/3/1 81/3/1 84/3/1
f 86/1/1 75/1/1 74/1/1
f 87/1/1 75/1/1 86/1/1
f 88/2/1 87/2/1 86/2/1
f 89/2/1 87/2/1 88/2/1
f 90/2/1 87/2/1 89/2/1
f 91/2/1 87/2/1 90/2/1
f 92/2/1 90/2/1 89/2/1
f 93/2/1 90/2/1 92/2/1
f 96/3/1 95/3/1 94/3/1
f 97/3/1 95/3/1 96/3/1
f 102/2/1 99/2/1 98/2/1
f 103/2/1 99/2/1 102/2/1
f 104/2/1 101/2/1 100/2/1
f 105/2/1 101/2/1 104/2/1
f 106/2/1 104/2/1 103/2/1
f 107/2/1 104/2/1 106/2/1
f 110/1/1 109/1/1 108/1/1
f 111/1/1 109/1/1 110/1/1
f 112/3/1 111/3/1 110/3/1
f 113/3/1 111/3/1 112/3/1
f 114/3/1 111/3/1 113/3/1
f 115/3/1 111/3/1 114/3/1
f 116/3/1 114/3/1 113/3/1
f 117/3/1 114/3/1 116/3/1
f 120/1/1 119/1/1 118/1/1
f 121/1/1 119/1/1 120/1/1
f 122/3/1 121/3/1 120/3/1
f 123/3/1 121/3/1 122/3/1
f 124/3/1 121/3/1 123/3/1
f 125/3/1 121/3/1 124/3/1
f 126/3/1 124/3/1 123/3/1
f 127/3/1 124/3/1 126/3/1
f 134/1/1 129/1/1 128/1/1
f 135/1/1 129/1/1 134/1/1
f 136/1/1 131/1/1 130/1/1
f 137/1/1 133/1/1 132/1/1
f 138/1/1 133/1/1 137/1/1
f 139/3/1 135/3/1 134/3/1
f 140/3/1 135/3/1 139/3/1
f 141/3/1 135/3/1 140/3/1
f 142/3/1 135/3/1 141/3/1
f 146/1/1 131/1/1 136/1/1
f 147/1/1 131/1/1 146/1/1
f 148/3/1 138/3/1 137/3/1
f 149/3/1 138/3/1 148/3/1
f 150/3/1 138/3/1 149/3/1
f 151/3/1 138/3/1 150/3/1
f 152/3/1 141/3/1 140/3/1
f 153/3/1 141/3/1 152/3/1
f 154/3/1 144/3/1 143/3/1
f 155/3/1 144/3/1 154/3/1
f 156/3/1 147/3/1 146/3/1
f 156/3/1 146/3/1 145/3/1
f 157/3/1 147/3/1 156/3/1
f 158/3/1 150/3/1 149/3/1
f 159/3/1 150/3/1 158/3/1
f 168/3/1 161/3/1 160/3/1
f 169/3/1 161/3/1 168/3/1
f 170/3/1 163/3/1 162/3/1
f 171/3/1 163/3/1 170/3/1
f 174/3/1 165/3/1 164/3/1
f 175/3/1 165/3/1 174/3/1
f 176/3/1 167/3/1 166/3/1
f 177/3/1 167/3/1 176/3/1
f 178/3/1 173/3/1 172/3/1
f 179/3/1 173/3/1 178/3/1
f 180/3/2 181/3/2 192/3/2
f 192/3/2 181/3/2 193/3/2
f 182/3/2 183/3/2 194/3/2
f 194/3/2 183/3/2 195/3/2
f 184/3/2 185/3/2 196/3/2
f 196/3/2 185/3/2 197/3/2
f 186/3/2 187/3/2 198/3/2
f 198/3/2 187/3/2 199/3/2
f 188/3/2 189/3/2 200/3/2
f 200/3/2 189/3/2 201/3/2
f 190/3/2 191/3/2 202/3/2
f 202/3/2 191/3/2 203/3/2
f 204/1/2 205/1/2 210/1/2
f 210/1/2 205/1/2 211/1/2
f 206/1/2 207/1/2 212/1/2
f 212/1/2 207/1/2 213/1/2
f 208/1/2 209/1/2 214/1/2
f 214/1/2 209/1/2 215/1/2
f 210/3/2 211/3/2 216/3/2
f 216/3/2 211/3/2 217/3/2
f 212/3/2 213/3/2 218/3/2
f 218/3/2 213/3/2 219/3/2
f 214/3/2 215/3/2 220/3/2
f 220/3/2 215/3/2 221/3/2
f 222/1/2 223/1/2 224/1/2
f 224/1/2 223/1/2 225/1/2
f 224/3/2 225/3/2 226/3/2
f 226/3/2 225/3/2 227/3/2
f 227/3/2 225/3/2 228/3/2
f 228/3/2 225/3/2 229/3/2
f 227/3/2 228/3/2 230/3/2
f 230/3/2 228/3/2 231/3/2
f 232/1/2 233/1/2 234/1/2
f 234/1/2 233/1/2 235/1/2
f 234/3/2 235/3/2 238/3/2
f 238/3/2 235/3/2 239/3/2
f 239/3/2 235/3/2 240/3/2
f 240/3/2 235/3/2 241/3/2
f 236/3/2 237/3/2 242/3/2
f 242/3/2 237/3/2 243/3/2
f 239/3/2 240/3/2 244/3/2
f 244/3/2 240/3/2 245/3/2
f 246/1/2 247/1/2 248/1/2
f 248/1/2 247/1/2 249/1/2
f 248/3/2 249/3/2 250/3/2
f 250/3/2 249/3/2 251/3/2
f 252/1/2 253/1/2 254/1/2
f 254/1/2 253/1/2 255/1/2
f 254/3/2 255/3/2 256/3/2
f 256/3/2 255/3/2 257/3/2
f 257/3/2 255/3/2 258/3/2
f 258/3/2 255/3/2 259/3/2
f 257/3/2 258/3/2 260/3/2
f 260/3/2 258/3/2 261/3/2
f 262/3/2 263/3/2 264/3/2
f 264/3/2 263/3/2 265/3/2
f 266/1/2 267/1/2 268/1/2
f 268/1/2 267/1/2 269/1/2
f 268/3/2 269/3/2 270/3/2
f 270/3/2 269/3/2 271/3/2
f 271/3/2 272/3/2 275/3/2
f 275/3/2 272/3/2 276/3/2
f 273/3/2 274/3/2 277/3/2
f 277/3/2 274/3/2 278/3/2
f 279/3/2 280/3/2 281/3/2
f 281/3/2 280/3/2 282/3/2
f 283/2/2 284/2/2 287/2/2
f 287/2/2 284/2/2 288/2/2
f 285/2/2 286/2/2 289/2/2
f 289/2/2 286/2/2 290/2/2
f 288/2/2 289/2/2 291/2/2
f 291/2/2 289/2/2 292/2/2
f 297/1/2 298/1/2 299/1/2
f 299/1/2 298/1/2 300/1/2
f 293/1/2 294/1/2 301/1/2
f 301/1/2 294/1/2 302/1/2
f 299/3/2 300/3/2 303/3/2
f 303/3/2 300/3/2 304/3/2
f 304/3/2 300/3/2 305/3/2
f 305/3/2 300/3/2 306/3/2
f 301/3/2 302/3/2 307/3/2
f 307/3/2 302/3/2 308/3/2
f 304/3/2 305/3/2 309/3/2
f 309/3/2 305/3/2 310/3/2
f 295/1/2 296/1/2 311/1/2
f 311/1/2 296/1/2 312/1/2
f 311/2/2 312/2/2 313/2/2
f 313/2/2 312/2/2 314/2/2
f 314/2/2 312/2/2 315/2/2
f 315/2/2 312/2/2 316/2/2
f 314/2/2 315/2/2 317/2/2
f 317/2/2 315/2/2 318/2/2
f 319/1/2 320/1/2 321/1/2
f 321/1/2 320/1/2 322/1/2
f 321/3/2 322/3/2 327/3/2
f 327/3/2 322/3/2 328/3/2
f 328/3/2 322/3/2 329/3/2
f 329/3/2 322/3/2 330/3/2
f 323/3/2 324/3/2 335/3/2
f 335/3/2 324/3/2 336/3/2
f 325/3/2 326/3/2 337/3/2
f 337/3/2 326/3/2 338/3/2
f 328/3/2 329/3/2 341/3/2
f 341/3/2 329/3/2 342/3/2
f 331/3/2 332/3/2 343/3/2
f 343/3/2 332/3/2 344/3/2
f 333/3/2 334/3/2 345/3/2
f 345/3/2 334/3/2 346/3/2
f 339/3/2 340/3/2 347/3/2
f 347/3/2 340/3/2 348/3/2
f 349/1/2 350/1/2 355/1/2
f 355/1/2 350/1/2 356/1/2
f 353/1/2 354/1/2 357/1/2
f 357/1/2 354/1/2 358/1/2
f 355/3/2 356/3/2 359/3/2
f 359/3/2 356/3/2 360/3/2
f 360/3/2 356/3/2 361/3/2
f 361/3/2 356/3/2 362/3/2
f 351/1/2 352/1/2 363/1/2
f 363/1/2 352/1/2 364/1/2
f 357/3/2 358/3/2 365/3/2
f 365/3/2 358/3/2 366/3/2
f 366/3/2 358/3/2 367/3/2
f 367/3/2 358/3/2 368/3/2
f 360/3/2 361/3/2 369/3/2
f 369/3/2 361/3/2 370/3/2
f 363/3/2 364/3/2 371/3/2
f 371/3/2 364/3/2 372/3/2
f 366/3/2 367/3/2 373/3/2
f 373/3/2 367/3/2 374/3/2
f 378/3/3 377/3/3 376/3/3
f 380/3/3 378/3/3 376/3/3
f 380/3/3 379/3/3 378/3/3
f 381/3/3 379/3/3 380/3/3
f 382/1/3 376/1/3 375/1/3
f 383/3/3 380/3/3 376/3/3
f 383/1/3 376/1/3 382/1/3
f 384/3/3 380/3/3 383/3/3
f 388/1/3 386/1/3 385/1/3
f 388/3/3 387/3/3 386/3/3
f 389/3/3 387/3/3 388/3/3
f 391/3/3 390/3/3 389/3/3
f 393/3/3 391/3/3 389/3/3
f 393/3/3 392/3/3 391/3/3
f 394/3/3 392/3/3 393/3/3
f 395/1/3 388/1/3 385/1/3
f 395/1/3 389/1/3 388/1/3
f 396/3/3 393/3/3 389/3/3
f 396/1/3 389/1/3 395/1/3
f 397/3/3 393/3/3 396/3/3
f 401/1/3 399/1/3 398/1/3
f 402/3/3 400/3/3 399/3/3
f 402/1/3 399/1/3 401/1/3
f 403/3/3 400/3/3 402/3/3
f 406/3/3 405/3/3 404/3/3
f 407/3/3 405/3/3 406/3/3
f 411/3/3 410/3/3 409/3/3
f 413/3/3 411/3/3 409/3/3
f 413/3/3 412/3/3 411/3/3
f 414/3/3 412/3/3 413/3/3
f 415/1/3 409/1/3 408/1/3
f 416/3/3 413/3/3 409/3/3
f 416/1/3 409/1/3 415/1/3
f 417/3/3 413/3/3 416/3/3
f 420/3/3 419/3/3 418/3/3
f 421/3/3 419/3/3 420/3/3
f 424/3/3 423/3/3 422/3/3
f 425/3/3 423/3/3 424/3/3
f 428/3/3 427/3/3 426/3/3
f 429/3/3 427/3/3 428/3/3
f 433/3/3 432/3/3 431/3/3
f 435/3/3 433/3/3 431/3/3
f 435/3/3 434/3/3 433/3/3
f 436/3/3 434/3/3 435/3/3
f 437/1/3 431/1/3 430/1/3
f 438/3/3 435/3/3 431/3/3
f 438/1/3 431/1/3 437/1/3
f 439/3/3 435/3/3 438/3/3
f 443/1/3 441/1/3 440/1/3
f 443/3/3 442/3/3 441/3/3
f 444/3/3 442/3/3 443/3/3
f 446/3/3 445/3/3 444/3/3
f 448/3/3 446/3/3 444/3/3
f 448/3/3 447/3/3 446/3/3
f 449/3/3 447/3/3 448/3/3
f 450/1/3 443/1/3 440/1/3
f 450/1/3 444/1/3 443/1/3
f 451/3/3 448/3/3 444/3/3
f 451/1/3 444/1/3 450/1/3
f 452/3/3 448/3/3 451/3/3
f 455/3/3 454/3/3 453/3/3
f 456/3/3 454/3/3 455/3/3
f 459/3/3 458/3/3 457/3/3
f 460/3/3 458/3/3 459/3/3
f 464/1/3 462/1/3 461/1/3
f 465/3/3 463/3/3 462/3/3
f 465/1/3 462/1/3 464/1/3
f 466/3/3 463/3/3 465/3/3
f 470/2/3 469/2/3 468/2/3
f 472/2/3 470/2/3 468/2/3
f 472/2/3 471/2/3 470/2/3
f 473/2/3 471/2/3 472/2/3
f 474/1/3 468/1/3 467/1/3
f 475/2/3 472/2/3 468/2/3
f 475/1/3 468/1/3 474/1/3
f 476/2/3 472/2/3 475/2/3
f 479/3/3 478/3/3 477/3/3
f 480/3/3 478/3/3 479/3/3
f 483/2/3 482/2/3 481/2/3
f 484/2/3 482/2/3 483/2/3
f 487/2/3 485/2/3 484/2/3
f 488/2/3 485/2/3 487/2/3
f 489/2/3 487/2/3 486/2/3
f 490/2/3 487/2/3 489/2/3
f 494/1/3 492/1/3 491/1/3
f 495/3/3 493/3/3 492/3/3
f 495/1/3 492/1/3 494/1/3
f 496/3/3 493/3/3 495/3/3
f 500/3/3 499/3/3 498/3/3
f 502/3/3 500/3/3 498/3/3
f 502/3/3 501/3/3 500/3/3
f 503/3/3 501/3/3 502/3/3
f 504/1/3 498/1/3 497/1/3
f 505/3/3 502/3/3 498/3/3
f 505/1/3 498/1/3 504/1/3
f 506/3/3 502/3/3 505/3/3
f 509/3/3 508/3/3 507/3/3
f 510/3/3 508/3/3 509/3/3
f 514/3/3 513/3/3 512/3/3
f 516/3/3 514/3/3 512/3/3
f 516/3/3 515/3/3 514/3/3
f 517/3/3 515/3/3 516/3/3
f 518/1/3 512/1/3 511/1/3
f 519/3/3 516/3/3 512/3/3
f 519/1/3 512/1/3 518/1/3
f 520/3/3 516/3/3 519/3/3
f 524/1/3 522/1/3 521/1/3
f 525/3/3 523/3/3 522/3/3
f 525/1/3 522/1/3 524/1/3
f 526/3/3 523/3/3 525/3/3
f 530/3/3 529/3/3 528/3/3
f 532/3/3 530/3/3 528/3/3
f 532/3/3 531/3/3 530/3/3
f 533/3/3 531/3/3 532/3/3
f 534/1/3 528/1/3 527/1/3
f 535/3/3 532/3/3 528/3/3
f 535/1/3 528/1/3 534/1/3
f 536/3/3 532/3/3 535/3/3
f 539/3/3 538/3/3 537/3/3
f 540/3/3 538/3/3 539/3/3
f 543/3/3 542/3/3 541/3/3
f 544/3/3 542/3/3 543/3/3
f 547/3/3 546/3/3 545/3/3
f 548/3/3 546/3/3 547/3/3
f 553/3/3 550/3/3 549/3/3
f 554/3/3 550/3/3 553/3/3
f 555/1/3 552/1/3 551/1/3
f 556/3/3 553/3/3 552/3/3
f 556/1/3 552/1/3 555/1/3
f 557/3/3 553/3/3 556/3/3
f 560/3/3 559/3/3 558/3/3
f 561/3/3 559/3/3 560/3/3
f 564/3/3 563/3/3 562/3/3
f 565/3/3 563/3/3 564/3/3
f 568/3/3 567/3/3 566/3/3
f 569/3/3 567/3/3 568/3/3
f 570/3/4 571/3/4 572/3/4
f 572/3/4 571/3/4 573/3/4
f 574/3/4 575/3/4 576/3/4
f 576/3/4 575/3/4 577/3/4
f 578/1/4 579/1/4 581/1/4
f 579/3/4 580/3/4 582/3/4
f 581/1/4 579/1/4 582/1/4
f 582/3/4 580/3/4 583/3/4
f 584/3/4 585/3/4 586/3/4
f 586/3/4 585/3/4 587/3/4
f 589/3/4 590/3/4 591/3/4
f 589/3/4 591/3/4 593/3/4
f 591/3/4 592/3/4 593/3/4
f 593/3/4 592/3/4 594/3/4
f 588/1/4 589/1/4 595/1/4
f 589/3/4 593/3/4 596/3/4
f 595/1/4 589/1/4 596/1/4
f 596/3/4 593/3/4 597/3/4
f 598/3/4 599/3/4 600/3/4
f 600/3/4 599/3/4 601/3/4
f 603/3/4 604/3/4 605/3/4
f 603/3/4 605/3/4 607/3/4
f 605/3/4 606/3/4 607/3/4
f 607/3/4 606/3/4 608/3/4
f 602/1/4 603/1/4 609/1/4
f 603/3/4 607/3/4 610/3/4
f 609/1/4 603/1/4 610/1/4
f 610/3/4 607/3/4 611/3/4
f 613/3/4 614/3/4 615/3/4
f 613/3/4 615/3/4 617/3/4
f 615/3/4 616/3/4 617/3/4
f 617/3/4 616/3/4 618/3/4
f 612/1/4 613/1/4 619/1/4
f 613/3/4 617/3/4 620/3/4
f 619/1/4 613/1/4 620/1/4
f 620/3/4 617/3/4 621/3/4
f 622/3/4 623/3/4 624/3/4
f 624/3/4 623/3/4 625/3/4
f 626/3/4 627/3/4 628/3/4
f 628/3/4 627/3/4 629/3/4
f 630/1/4 631/1/4 633/1/4
f 631/3/4 632/3/4 634/3/4
f 633/1/4 631/1/4 634/1/4
f 634/3/4 632/3/4 635/3/4
f 636/1/4 637/1/4 639/1/4
f 637/3/4 638/3/4 640/3/4
f 639/1/4 637/1/4 640/1/4
f 640/3/4 638/3/4 641/3/4
f 643/3/4 644/3/4 645/3/4
f 643/3/4 645/3/4 647/3/4
f 645/3/4 646/3/4 647/3/4
f 647/3/4 646/3/4 648/3/4
f 642/1/4 643/1/4 649/1/4
f 643/3/4 647/3/4 650/3/4
f 649/1/4 643/1/4 650/1/4
f 650/3/4 647/3/4 651/3/4
f 653/3/4 654/3/4 655/3/4
f 653/3/4 655/3/4 657/3/4
f 655/3/4 656/3/4 657/3/4
f 657/3/4 656/3/4 658/3/4
f 652/1/4 653/1/4 659/1/4
f 653/3/4 657/3/4 660/3/4
f 659/1/4 653/1/4 660/1/4
f 660/3/4 657/3/4 661/3/4
f 662/3/4 663/3/4 664/3/4
f 664/3/4 663/3/4 665/3/4
f 666/2/4 667/2/4 668/2/4
f 668/2/4 667/2/4 669/2/4
f 669/2/4 670/2/4 672/2/4
f 672/2/4 670/2/4 673/2/4
f 671/2/4 672/2/4 674/2/4
f 674/2/4 672/2/4 675/2/4
f 676/1/4 677/1/4 679/1/4
f 677/3/4 678/3/4 680/3/4
f 679/1/4 677/1/4 680/1/4
f 680/3/4 678/3/4 681/3/4
f 683/2/4 684/2/4 685/2/4
f 683/2/4 685/2/4 687/2/4
f 685/2/4 686/2/4 687/2/4
f 687/2/4 686/2/4 688/2/4
f 682/1/4 683/1/4 689/1/4
f 683/2/4 687/2/4 690/2/4
f 689/1/4 683/1/4 690/1/4
f 690/2/4 687/2/4 691/2/4
f 692/3/4 693/3/4 694/3/4
f 694/3/4 693/3/4 695/3/4
f 696/1/4 697/1/4 699/1/4
f 697/3/4 698/3/4 700/3/4
f 699/1/4 697/1/4 700/1/4
f 700/3/4 698/3/4 701/3/4
f 702/3/4 703/3/4 704/3/4
f 704/3/4 703/3/4 705/3/4
f 706/3/4 707/3/4 708/3/4
f 708/3/4 707/3/4 709/3/4
f 710/3/4 711/3/4 712/3/4
f 712/3/4 711/3/4 713/3/4
f 715/3/4 716/3/4 717/3/4
f 715/3/4 717/3/4 719/3/4
f 717/3/4 718/3/4 719/3/4
f 719/3/4 718/3/4 720/3/4
f 714/1/4 715/1/4 721/1/4
f 715/3/4 719/3/4 722/3/4
f 721/1/4 715/1/4 722/1/4
f 722/3/4 719/3/4 723/3/4
f 724/3/4 725/3/4 726/3/4
f 726/3/4 725/3/4 727/3/4
f 728/3/4 729/3/4 730/3/4
f 730/3/4 729/3/4 731/3/4
f 732/1/4 733/1/4 735/1/4
f 733/3/4 734/3/4 736/3/4
f 735/1/4 733/1/4 736/1/4
f 736/3/4 734/3/4 737/3/4
f 732/1/4 735/1/4 738/1/4
f 735/3/4 736/3/4 739/3/4
f 738/1/4 735/1/4 739/1/4
f 739/3/4 736/3/4 740/3/4
f 742/3/4 743/3/4 744/3/4
f 742/3/4 744/3/4 746/3/4
f 744/3/4 745/3/4 746/3/4
f 746/3/4 745/3/4 747/3/4
f 741/1/4 742/1/4 748/1/4
f 742/3/4 746/3/4 749/3/4
f 748/1/4 742/1/4 749/1/4
f 749/3/4 746/3/4 750/3/4
f 755/1/5 752/1/5 751/1/5
f 759/1/5 754/1/5 753/1/5
f 760/1/5 754/1/5 759/1/5
f 761/1/5 755/1/5 751/1/5
f 761/1/5 756/1/5 755/1/5
f 762/1/5 756/1/5 761/1/5
f 763/1/5 754/1/5 760/1/5
f 764/1/5 754/1/5 763/1/5
f 765/1/5 758/1/5 757/1/5
f 766/1/5 758/1/5 765/1/5
f 771/1/5 768/1/5 767/1/5
f 772/1/5 768/1/5 771/1/5
f 773/1/5 770/1/5 769/1/5
f 774/1/5 770/1/5 773/1/5
f 775/1/5 771/1/5 767/1/5
f 776/1/5 771/1/5 775/1/5
f 781/1/5 770/1/5 774/1/5
f 782/1/5 770/1/5 781/1/5
f 787/1/5 778/1/5 777/1/5
f 788/1/5 778/1/5 787/1/5
f 789/1/5 780/1/5 779/1/5
f 790/1/5 780/1/5 789/1/5
f 793/1/5 784/1/5 783/1/5
f 794/1/5 784/1/5 793/1/5
f 795/1/5 786/1/5 785/1/5
f 799/1/5 792/1/5 791/1/5
f 801/1/5 796/1/5 795/1/5
f 801/1/5 795/1/5 785/1/5
f 802/1/5 796/1/5 801/1/5
f 803/1/5 800/1/5 799/1/5
f 803/1/5 799/1/5 791/1/5
f 804/1/5 800/1/5 803/1/5
f 805/1/5 798/1/5 797/1/5
f 806/1/5 798/1/5 805/1/5
f 809/3/6 810/3/6 813/3/6
f 811/3/6 812/3/6 815/3/6
f 815/3/6 812/3/6 816/3/6
f 813/3/6 814/3/6 821/3/6
f 809/3/6 813/3/6 821/3/6
f 821/3/6 814/3/6 822/3/6
f 817/3/6 818/3/6 825/3/6
f 825/3/6 818/3/6 826/3/6
f 822/3/6 814/3/6 828/3/6
f 823/3/6 824/3/6 829/3/6
f 829/3/6 824/3/6 830/3/6
f 819/3/6 820/3/6 833/3/6
f 833/3/6 820/3/6 834/3/6
f 807/3/6 808/3/6 835/3/6
f 835/3/6 808/3/6 836/3/6
f 827/3/6 828/3/6 837/3/6
f 828/3/6 814/3/6 838/3/6
f 837/3/6 828/3/6 838/3/6
f 831/3/6 832/3/6 841/3/6
f 841/3/6 832/3/6 842/3/6
f 839/3/6 840/3/6 843/3/6
f 843/3/6 840/3/6 844/3/6
f 847/3/6 848/3/6 851/3/6
f 851/3/6 848/3/6 852/3/6
f 849/3/6 850/3/6 853/3/6
f 853/3/6 850/3/6 854/3/6
f 855/3/6 856/3/6 859/3/6
f 859/3/6 856/3/6 860/3/6
f 857/3/6 858/3/6 861/3/6
f 861/3/6 858/3/6 862/3/6
f 845/3/6 846/3/6 863/3/6
f 863/3/6 846/3/6 864/3/6
f 855/3/6 859/3/6 865/3/6
f 865/3/6 859/3/6 866/3/6
f 867/3/6 868/3/6 869/3/6
f 869/3/6 868/3/6 870/3/6
f 871/3/6 872/3/6 879/3/6
f 879/3/6 872/3/6 880/3/6
f 877/3/6 878/3/6 881/3/6
f 881/3/6 878/3/6 882/3/6
f 883/3/6 884/3/6 889/3/6
f 889/3/6 884/3/6 890/3/6
f 875/3/6 876/3/6 891/3/6
f 873/3/6 874/3/6 897/3/6
f 897/3/6 874/3/6 898/3/6
f 891/3/6 892/3/6 899/3/6
f 875/3/6 891/3/6 899/3/6
f 899/3/6 892/3/6 900/3/6
f 885/3/6 886/3/6 901/3/6
f 901/3/6 886/3/6 902/3/6
f 887/3/6 888/3/6 903/3/6
f 903/3/6 888/3/6 904/3/6
f 893/3/6 894/3/6 906/3/6
f 906/3/6 894/3/6 907/3/6
f 904/3/6 905/3/6 912/3/6
f 912/3/6 905/3/6 913/3/6
f 895/3/6 896/3/6 916/3/6
f 916/3/6 896/3/6 917/3/6
f 908/3/6 909/3/6 918/3/6
f 918/3/6 909/3/6 919/3/6
f 910/3/6 911/3/6 920/3/6
f 920/3/6 911/3/6 921/3/6
f 922/3/6 923/3/6 926/3/6
f 926/3/6 923/3/6 927/3/6
f 914/3/6 915/3/6 928/3/6
f 928/3/6 915/3/6 929/3/6
f 924/3/6 925/3/6 930/3/6
f 930/3/6 925/3/6 931/3/6
f 934/3/6 935/3/6 939/3/6
f 932/3/6 933/3/6 942/3/6
f 938/3/6 939/3/6 944/3/6
f 939/3/6 935/3/6 945/3/6
f 944/3/6 939/3/6 945/3/6
f 940/3/6 941/3/6 947/3/6
f 942/3/6 943/3/6 948/3/6
f 932/3/6 942/3/6 948/3/6
f 948/3/6 943/3/6 949/3/6
f 946/3/6 947/3/6 950/3/6
f 947/3/6 941/3/6 951/3/6
f 950/3/6 947/3/6 951/3/6
f 951/3/6 941/3/6 952/3/6
f 932/3/6 948/3/6 954/3/6
f 954/3/6 948/3/6 955/3/6
f 952/3/6 953/3/6 956/3/6
f 951/3/6 952/3/6 956/3/6
f 956/3/6 953/3/6 957/3/6
f 945/3/6 935/3/6 958/3/6
f 958/3/6 935/3/6 959/3/6
f 936/3/6 937/3/6 960/3/6
f 960/3/6 937/3/6 961/3/6
f 951/3/6 956/3/6 962/3/6
f 962/3/6 956/3/6 963/3/6
f 964/3/6 965/3/6 970/3/6
f 966/3/6 967/3/6 973/3/6
f 970/3/6 971/3/6 974/3/6
f 964/3/6 970/3/6 974/3/6
f 974/3/6 971/3/6 975/3/6
f 972/3/6 973/3/6 976/3/6
f 973/3/6 967/3/6 977/3/6
f 976/3/6 973/3/6 977/3/6
f 964/3/6 974/3/6 978/3/6
f 978/3/6 974/3/6 979/3/6
f 977/3/6 967/3/6 980/3/6
f 980/3/6 967/3/6 981/3/6
f 968/3/6 969/3/6 982/3/6
f 982/3/6 969/3/6 983/3/6
f 984/3/6 985/3/6 988/3/6
f 988/3/6 985/3/6 989/3/6
f 990/3/6 991/3/6 992/3/6
f 992/3/6 991/3/6 993/3/6
f 986/3/6 987/3/6 999/3/6
f 999/3/6 987/3/6 1000/3/6
f 994/3/6 995/3/6 1003/3/6
f 1003/3/6 995/3/6 1004/3/6
f 996/3/6 997/3/6 1007/3/6
f 1000/3/6 1001/3/6 1008/3/6
f 998/3/6 999/3/6 1008/3/6
f 999/3/6 1000/3/6 1008/3/6
f 1008/3/6 1001/3/6 1009/3/6
f 1009/3/6 1001/3/6 1010/3/6
f 1010/3/6 1001/3/6 1011/3/6
f 1004/3/6 1005/3/6 1012/3/6
f 1002/3/6 1003/3/6 1012/3/6
f 1003/3/6 1004/3/6 1012/3/6
f 1006/3/6 1007/3/6 1014/3/6
f 1007/3/6 997/3/6 1015/3/6
f 1014/3/6 1007/3/6 1015/3/6
f 1015/3/6 997/3/6 1016/3/6
f 1009/3/6 1010/3/6 1018/3/6
f 1018/3/6 1010/3/6 1019/3/6
f 1012/3/6 1013/3/6 1020/3/6
f 1002/3/6 1012/3/6 1020/3/6
f 1020/3/6 1013/3/6 1021/3/6
f 1016/3/6 1017/3/6 1022/3/6
f 1015/3/6 1016/3/6 1022/3/6
f 1022/3/6 1017/3/6 1023/3/6
f 1002/3/6 1020/3/6 1024/3/6
f 1024/3/6 1020/3/6 1025/3/6
f 1015/3/6 1022/3/6 1026/3/6
f 1026/3/6 1022/3/6 1027/3/6
f 1028/3/6 1029/3/6 1030/3/6
f 1030/3/6 1029/3/6 1031/3/6
f 1032/3/6 1033/3/6 1034/3/6
f 1034/3/6 1033/3/6 1035/3/6
f 1036/2/6 1037/2/6 1040/2/6
f 1040/2/6 1037/2/6 1041/2/6
f 1038/2/6 1039/2/6 1042/2/6
f 1042/2/6 1039/2/6 1043/2/6
f 1044/2/6 1045/2/6 1048/2/6
f 1048/2/6 1045/2/6 1049/2/6
f 1046/2/6 1047/2/6 1050/2/6
f 1050/2/6 1047/2/6 1051/2/6
f 1052/2/6 1053/2/6 1055/2/6
f 1055/2/6 1053/2/6 1056/2/6
f 1054/2/6 1055/2/6 1058/2/6
f 1058/2/6 1055/2/6 1059/2/6
f 1056/2/6 1057/2/6 1060/2/6
f 1060/2/6 1057/2/6 1061/2/6
f 1059/2/6 1060/2/6 1062/2/6
f 1062/2/6 1060/2/6 1063/2/6
f 1064/2/6 1065/2/6 1066/2/6
f 1066/2/6 1065/2/6 1067/2/6
