# MagicaVoxel @ Ephtracy

# group
o 

# material
mtllib side_city.mtl
usemtl palette

# normals
vn -1 0 0
vn 1 0 0
vn 0 0 1
vn 0 0 -1
vn 0 -1 0
vn 0 1 0

# texcoords
vt 0.373047 0.5
vt 0.849609 0.5

# verts
v -0.9 0 -1.1
v -0.9 0 -1.5
v -0.9 0 -1.7
v -0.9 0 -2.2
v -0.9 0 -2.4
v -0.9 0 -3
v -0.9 0.1 -1.1
v -0.9 0.1 -1.5
v -0.9 0.1 -1.7
v -0.9 0.1 -2.2
v -0.9 0.1 -2.4
v -0.9 0.1 -3
v -0.9 0.2 -1.1
v -0.9 0.2 -1.5
v -0.9 0.2 -1.7
v -0.9 0.2 -2.2
v -0.9 0.2 -2.4
v -0.9 0.2 -2.8
v -0.9 0.2 -2.9
v -0.9 0.2 -3
v -0.9 0.3 -2.8
v -0.9 0.3 -2.9
v -0.8 0.2 -1.1
v -0.8 0.2 -1.5
v -0.8 0.2 -1.7
v -0.8 0.2 -2.2
v -0.8 0.2 -2.4
v -0.8 0.2 -2.8
v -0.8 0.2 -2.9
v -0.8 0.2 -3
v -0.8 0.3 -1.1
v -0.8 0.3 -1.5
v -0.8 0.3 -1.7
v -0.8 0.3 -2.2
v -0.8 0.3 -2.4
v -0.8 0.3 -2.8
v -0.8 0.3 -2.9
v -0.8 0.3 -3
v -0.5 0 -2.2
v -0.5 0 -2.5
v -0.5 0.1 -2.2
v -0.5 0.1 -2.5
v -0.5 0.2 -2.2
v -0.5 0.2 -2.3
v -0.5 0.2 -2.4
v -0.5 0.2 -2.5
v -0.5 0.3 -2.3
v -0.5 0.3 -2.4
v -0.2 0 -1.1
v -0.2 0 -1.4
v -0.2 0 -2.6
v -0.2 0 -3.1
v -0.2 0.1 -1.1
v -0.2 0.1 -1.4
v -0.2 0.1 -2.6
v -0.2 0.1 -2.8
v -0.2 0.2 -1.1
v -0.2 0.2 -1.2
v -0.2 0.2 -1.3
v -0.2 0.2 -1.4
v -0.2 0.2 -2.6
v -0.2 0.2 -2.8
v -0.2 0.2 -3.1
v -0.2 0.3 -1.2
v -0.2 0.3 -1.3
v -0.2 0.3 -2.8
v -0.2 0.3 -3.1
v -0.1 0.2 -2.6
v -0.1 0.2 -2.8
v -0.1 0.3 -2.6
v -0.1 0.3 -2.8
v 0.1 0 -1.4
v 0.1 0 -1.6
v 0.1 0 -2.2
v 0.1 0 -2.5
v 0.1 0.1 -1.4
v 0.1 0.1 -2.2
v 0.1 0.1 -2.5
v 0.1 0.2 -1.1
v 0.1 0.2 -1.2
v 0.1 0.2 -1.3
v 0.1 0.2 -1.4
v 0.1 0.2 -1.6
v 0.1 0.2 -2.2
v 0.1 0.2 -2.5
v 0.1 0.3 -1.1
v 0.1 0.3 -1.2
v 0.1 0.3 -1.3
v 0.1 0.3 -1.6
v 0.2 0.2 -2.2
v 0.2 0.2 -2.5
v 0.2 0.3 -1.1
v 0.2 0.3 -1.6
v 0.2 0.3 -2.2
v 0.2 0.3 -2.5
v 0.2 0.4 -1.1
v 0.2 0.4 -1.6
v 0.3 0 -1.7
v 0.3 0 -2
v 0.3 0.1 -1.7
v 0.3 0.1 -2
v 0.3 0.2 -1.7
v 0.3 0.2 -1.8
v 0.3 0.2 -1.9
v 0.3 0.2 -2
v 0.3 0.3 -1.8
v 0.3 0.3 -1.9
v 0.5 0 -2.3
v 0.5 0 -2.6
v 0.5 0.1 -2.3
v 0.5 0.1 -2.6
v 0.5 0.2 -2.3
v 0.5 0.2 -2.4
v 0.5 0.2 -2.5
v 0.5 0.2 -2.6
v 0.5 0.3 -2.4
v 0.5 0.3 -2.5
v 0.6 0 -1.2
v 0.6 0 -1.6
v 0.6 0 -2
v 0.6 0 -2.2
v 0.6 0 -2.7
v 0.6 0 -3.1
v 0.6 0.1 -1.2
v 0.6 0.1 -1.6
v 0.6 0.1 -2
v 0.6 0.1 -2.7
v 0.6 0.1 -3.1
v 0.6 0.2 -1.2
v 0.6 0.2 -1.3
v 0.6 0.2 -1.4
v 0.6 0.2 -1.6
v 0.6 0.2 -1.7
v 0.6 0.2 -1.8
v 0.6 0.2 -1.9
v 0.6 0.2 -2
v 0.6 0.2 -2.2
v 0.6 0.2 -2.7
v 0.6 0.2 -2.8
v 0.6 0.2 -2.9
v 0.6 0.2 -3.1
v 0.6 0.3 -1.3
v 0.6 0.3 -1.4
v 0.6 0.3 -1.7
v 0.6 0.3 -1.8
v 0.6 0.3 -1.9
v 0.6 0.3 -2.2
v 0.6 0.3 -2.8
v 0.6 0.3 -2.9
v 0.7 0.2 -1.2
v 0.7 0.2 -1.3
v 0.7 0.2 -1.4
v 0.7 0.2 -1.6
v 0.7 0.2 -2.7
v 0.7 0.2 -2.8
v 0.7 0.2 -2.9
v 0.7 0.2 -3.1
v 0.7 0.3 -1.2
v 0.7 0.3 -1.3
v 0.7 0.3 -1.4
v 0.7 0.3 -1.6
v 0.7 0.3 -1.7
v 0.7 0.3 -2.2
v 0.7 0.3 -2.7
v 0.7 0.3 -2.8
v 0.7 0.3 -2.9
v 0.7 0.3 -3.1
v 0.7 0.4 -1.7
v 0.7 0.4 -2.2
v -0.7 0.2 -1.1
v -0.7 0.2 -1.3
v -0.7 0.2 -1.4
v -0.7 0.2 -1.5
v -0.7 0.2 -1.7
v -0.7 0.2 -1.8
v -0.7 0.2 -1.9
v -0.7 0.2 -2.2
v -0.7 0.2 -2.4
v -0.7 0.2 -2.8
v -0.7 0.2 -2.9
v -0.7 0.2 -3
v -0.7 0.3 -1.1
v -0.7 0.3 -1.3
v -0.7 0.3 -1.4
v -0.7 0.3 -1.5
v -0.7 0.3 -1.7
v -0.7 0.3 -1.8
v -0.7 0.3 -1.9
v -0.7 0.3 -2.2
v -0.7 0.3 -2.4
v -0.7 0.3 -2.8
v -0.7 0.3 -2.9
v -0.7 0.3 -3
v -0.6 0 -1.1
v -0.6 0 -1.2
v -0.6 0 -2
v -0.6 0 -2.2
v -0.6 0 -2.4
v -0.6 0 -2.7
v -0.6 0.1 -1.1
v -0.6 0.1 -1.2
v -0.6 0.1 -2
v -0.6 0.1 -2.2
v -0.6 0.1 -2.4
v -0.6 0.1 -2.7
v -0.6 0.2 -1.1
v -0.6 0.2 -1.2
v -0.6 0.2 -2
v -0.6 0.2 -2.2
v -0.6 0.2 -2.4
v -0.6 0.2 -2.7
v -0.5 0 -1.7
v -0.5 0 -2
v -0.5 0.1 -1.7
v -0.5 0.1 -2
v -0.5 0.2 -1.7
v -0.5 0.2 -1.8
v -0.5 0.2 -1.9
v -0.5 0.2 -2
v -0.5 0.3 -1.8
v -0.5 0.3 -1.9
v -0.4 0 -2.7
v -0.4 0 -3
v -0.4 0.1 -2.7
v -0.4 0.1 -3
v -0.4 0.2 -1.3
v -0.4 0.2 -1.4
v -0.4 0.2 -2.7
v -0.4 0.2 -2.8
v -0.4 0.2 -2.9
v -0.4 0.2 -3
v -0.4 0.3 -1.3
v -0.4 0.3 -1.4
v -0.4 0.3 -2.8
v -0.4 0.3 -2.9
v -0.3 0 -1.2
v -0.3 0 -1.5
v -0.3 0.1 -1.2
v -0.3 0.1 -1.5
v -0.3 0.2 -1.2
v -0.3 0.2 -1.5
v -0.1 0 -2.2
v -0.1 0 -2.5
v -0.1 0.1 -2.2
v -0.1 0.1 -2.5
v -0.1 0.2 -2.2
v -0.1 0.2 -2.3
v -0.1 0.2 -2.4
v -0.1 0.2 -2.5
v -0.1 0.3 -2.3
v -0.1 0.3 -2.4
v 0 0.2 -2.6
v 0 0.2 -2.8
v 0 0.3 -2.6
v 0 0.3 -2.8
v 0.1 0 -2.6
v 0.1 0 -2.8
v 0.1 0.1 -2.6
v 0.1 0.1 -2.8
v 0.1 0.2 -2.6
v 0.1 0.2 -2.8
v 0.1 0.2 -2.9
v 0.1 0.2 -3
v 0.1 0.2 -3.1
v 0.1 0.3 -2.8
v 0.1 0.3 -2.9
v 0.1 0.3 -3
v 0.1 0.3 -3.1
v 0.3 0.2 -2.2
v 0.3 0.2 -2.5
v 0.3 0.3 -1.1
v 0.3 0.3 -1.6
v 0.3 0.3 -2.2
v 0.3 0.3 -2.5
v 0.3 0.4 -1.1
v 0.3 0.4 -1.6
v 0.4 0 -1.1
v 0.4 0 -1.6
v 0.4 0 -2.2
v 0.4 0 -2.5
v 0.4 0 -2.8
v 0.4 0 -3.1
v 0.4 0.1 -2.2
v 0.4 0.1 -2.5
v 0.4 0.1 -2.8
v 0.4 0.1 -3.1
v 0.4 0.2 -1.1
v 0.4 0.2 -1.6
v 0.4 0.2 -2.2
v 0.4 0.2 -2.5
v 0.4 0.2 -2.8
v 0.4 0.2 -2.9
v 0.4 0.2 -3
v 0.4 0.2 -3.1
v 0.4 0.3 -1.1
v 0.4 0.3 -1.6
v 0.4 0.3 -2.9
v 0.4 0.3 -3
v 0.8 0 -2.3
v 0.8 0 -2.6
v 0.8 0.1 -2.3
v 0.8 0.1 -2.6
v 0.8 0.2 -1.2
v 0.8 0.2 -1.4
v 0.8 0.2 -1.5
v 0.8 0.2 -1.6
v 0.8 0.2 -2.3
v 0.8 0.2 -2.4
v 0.8 0.2 -2.5
v 0.8 0.2 -2.6
v 0.8 0.2 -2.7
v 0.8 0.2 -2.9
v 0.8 0.2 -3
v 0.8 0.2 -3.1
v 0.8 0.3 -1.2
v 0.8 0.3 -1.4
v 0.8 0.3 -1.5
v 0.8 0.3 -1.6
v 0.8 0.3 -1.7
v 0.8 0.3 -2.2
v 0.8 0.3 -2.4
v 0.8 0.3 -2.5
v 0.8 0.3 -2.7
v 0.8 0.3 -2.9
v 0.8 0.3 -3
v 0.8 0.3 -3.1
v 0.8 0.4 -1.7
v 0.8 0.4 -2.2
v 0.9 0 -1.2
v 0.9 0 -1.6
v 0.9 0 -1.7
v 0.9 0 -2.2
v 0.9 0 -2.7
v 0.9 0 -3.1
v 0.9 0.1 -1.2
v 0.9 0.1 -1.6
v 0.9 0.1 -2.7
v 0.9 0.1 -3.1
v 0.9 0.2 -1.2
v 0.9 0.2 -1.4
v 0.9 0.2 -1.5
v 0.9 0.2 -1.6
v 0.9 0.2 -1.7
v 0.9 0.2 -2.2
v 0.9 0.2 -2.7
v 0.9 0.2 -2.9
v 0.9 0.2 -3
v 0.9 0.2 -3.1
v 0.9 0.3 -1.4
v 0.9 0.3 -1.5
v 0.9 0.3 -1.7
v 0.9 0.3 -2.2
v 0.9 0.3 -2.9
v 0.9 0.3 -3
v -0.9 0 -1.1
v -0.9 0.1 -1.1
v -0.9 0.2 -1.1
v -0.8 0.2 -1.1
v -0.8 0.3 -1.1
v -0.7 0.2 -1.1
v -0.7 0.3 -1.1
v -0.6 0 -1.1
v -0.6 0.1 -1.1
v -0.6 0.2 -1.1
v -0.2 0 -1.1
v -0.2 0.1 -1.1
v -0.2 0.2 -1.1
v 0.1 0.1 -1.1
v 0.1 0.2 -1.1
v 0.1 0.3 -1.1
v 0.2 0.3 -1.1
v 0.2 0.4 -1.1
v 0.3 0.3 -1.1
v 0.3 0.4 -1.1
v 0.4 0 -1.1
v 0.4 0.2 -1.1
v 0.4 0.3 -1.1
v -0.6 0 -1.2
v -0.6 0.1 -1.2
v -0.6 0.2 -1.2
v -0.3 0 -1.2
v -0.3 0.1 -1.2
v -0.3 0.2 -1.2
v -0.2 0.2 -1.2
v -0.2 0.3 -1.2
v 0.1 0.2 -1.2
v 0.1 0.3 -1.2
v 0.6 0 -1.2
v 0.6 0.1 -1.2
v 0.6 0.2 -1.2
v 0.7 0.2 -1.2
v 0.7 0.3 -1.2
v 0.8 0.2 -1.2
v 0.8 0.3 -1.2
v 0.9 0 -1.2
v 0.9 0.1 -1.2
v 0.9 0.2 -1.2
v -0.7 0.2 -1.3
v -0.7 0.3 -1.3
v -0.4 0.2 -1.3
v -0.4 0.3 -1.3
v 0.6 0.2 -1.3
v 0.6 0.3 -1.3
v 0.7 0.2 -1.3
v 0.7 0.3 -1.3
v 0.8 0.2 -1.4
v 0.8 0.3 -1.4
v 0.9 0.2 -1.4
v 0.9 0.3 -1.4
v -0.9 0 -1.7
v -0.9 0.1 -1.7
v -0.9 0.2 -1.7
v -0.8 0.2 -1.7
v -0.8 0.3 -1.7
v -0.7 0.2 -1.7
v -0.7 0.3 -1.7
v -0.5 0 -1.7
v -0.5 0.1 -1.7
v -0.5 0.2 -1.7
v 0.3 0 -1.7
v 0.3 0.1 -1.7
v 0.3 0.2 -1.7
v 0.6 0.1 -1.7
v 0.6 0.2 -1.7
v 0.6 0.3 -1.7
v 0.7 0.3 -1.7
v 0.7 0.4 -1.7
v 0.8 0.3 -1.7
v 0.8 0.4 -1.7
v 0.9 0 -1.7
v 0.9 0.2 -1.7
v 0.9 0.3 -1.7
v -0.7 0.2 -1.8
v -0.7 0.3 -1.8
v -0.5 0.2 -1.8
v -0.5 0.3 -1.8
v 0.3 0.2 -1.8
v 0.3 0.3 -1.8
v 0.6 0.2 -1.8
v 0.6 0.3 -1.8
v -0.5 0 -2.2
v -0.5 0.1 -2.2
v -0.5 0.2 -2.2
v -0.1 0 -2.2
v -0.1 0.1 -2.2
v -0.1 0.2 -2.2
v 0.1 0 -2.2
v 0.1 0.1 -2.2
v 0.1 0.2 -2.2
v 0.2 0.2 -2.2
v 0.2 0.3 -2.2
v 0.3 0.2 -2.2
v 0.3 0.3 -2.2
v 0.4 0 -2.2
v 0.4 0.1 -2.2
v 0.4 0.2 -2.2
v -0.5 0.2 -2.3
v -0.5 0.3 -2.3
v -0.1 0.2 -2.3
v -0.1 0.3 -2.3
v 0.5 0 -2.3
v 0.5 0.1 -2.3
v 0.5 0.2 -2.3
v 0.8 0 -2.3
v 0.8 0.1 -2.3
v 0.8 0.2 -2.3
v -0.9 0 -2.4
v -0.9 0.1 -2.4
v -0.9 0.2 -2.4
v -0.8 0.2 -2.4
v -0.8 0.3 -2.4
v -0.7 0.2 -2.4
v -0.7 0.3 -2.4
v -0.6 0 -2.4
v -0.6 0.1 -2.4
v -0.6 0.2 -2.4
v 0.5 0.2 -2.4
v 0.5 0.3 -2.4
v 0.8 0.2 -2.4
v 0.8 0.3 -2.4
v -0.2 0 -2.6
v -0.2 0.1 -2.6
v -0.2 0.2 -2.6
v -0.1 0.2 -2.6
v -0.1 0.3 -2.6
v 0 0.2 -2.6
v 0 0.3 -2.6
v 0.1 0 -2.6
v 0.1 0.1 -2.6
v 0.1 0.2 -2.6
v -0.6 0 -2.7
v -0.6 0.1 -2.7
v -0.6 0.2 -2.7
v -0.4 0 -2.7
v -0.4 0.1 -2.7
v -0.4 0.2 -2.7
v 0.6 0 -2.7
v 0.6 0.1 -2.7
v 0.6 0.2 -2.7
v 0.7 0.2 -2.7
v 0.7 0.3 -2.7
v 0.8 0.2 -2.7
v 0.8 0.3 -2.7
v 0.9 0 -2.7
v 0.9 0.1 -2.7
v 0.9 0.2 -2.7
v -0.9 0.2 -2.8
v -0.9 0.3 -2.8
v -0.8 0.2 -2.8
v -0.8 0.3 -2.8
v -0.7 0.2 -2.8
v -0.7 0.3 -2.8
v -0.4 0.2 -2.8
v -0.4 0.3 -2.8
v -0.2 0.2 -2.8
v -0.2 0.3 -2.8
v -0.1 0.2 -2.8
v -0.1 0.3 -2.8
v 0 0.2 -2.8
v 0 0.3 -2.8
v 0.1 0 -2.8
v 0.1 0.1 -2.8
v 0.1 0.2 -2.8
v 0.1 0.3 -2.8
v 0.4 0 -2.8
v 0.4 0.1 -2.8
v 0.4 0.2 -2.8
v 0.6 0.2 -2.8
v 0.6 0.3 -2.8
v 0.7 0.2 -2.8
v 0.7 0.3 -2.8
v 0.1 0.2 -2.9
v 0.1 0.3 -2.9
v 0.4 0.2 -2.9
v 0.4 0.3 -2.9
v 0.8 0.2 -2.9
v 0.8 0.3 -2.9
v 0.9 0.2 -2.9
v 0.9 0.3 -2.9
v -0.2 0.2 -1.3
v -0.2 0.3 -1.3
v 0.1 0.2 -1.3
v 0.1 0.3 -1.3
v -0.7 0.2 -1.4
v -0.7 0.3 -1.4
v -0.4 0.2 -1.4
v -0.4 0.3 -1.4
v -0.2 0 -1.4
v -0.2 0.1 -1.4
v -0.2 0.2 -1.4
v 0.1 0 -1.4
v 0.1 0.1 -1.4
v 0.1 0.2 -1.4
v 0.6 0.2 -1.4
v 0.6 0.3 -1.4
v 0.7 0.2 -1.4
v 0.7 0.3 -1.4
v -0.9 0 -1.5
v -0.9 0.1 -1.5
v -0.9 0.2 -1.5
v -0.8 0.2 -1.5
v -0.8 0.3 -1.5
v -0.7 0.2 -1.5
v -0.7 0.3 -1.5
v -0.3 0 -1.5
v -0.3 0.1 -1.5
v -0.3 0.2 -1.5
v 0.8 0.2 -1.5
v 0.8 0.3 -1.5
v 0.9 0.2 -1.5
v 0.9 0.3 -1.5
v 0.1 0 -1.6
v 0.1 0.2 -1.6
v 0.1 0.3 -1.6
v 0.2 0.3 -1.6
v 0.2 0.4 -1.6
v 0.3 0.3 -1.6
v 0.3 0.4 -1.6
v 0.4 0 -1.6
v 0.4 0.2 -1.6
v 0.4 0.3 -1.6
v 0.6 0 -1.6
v 0.6 0.1 -1.6
v 0.6 0.2 -1.6
v 0.7 0.2 -1.6
v 0.7 0.3 -1.6
v 0.8 0.2 -1.6
v 0.8 0.3 -1.6
v 0.9 0 -1.6
v 0.9 0.1 -1.6
v 0.9 0.2 -1.6
v -0.7 0.2 -1.9
v -0.7 0.3 -1.9
v -0.5 0.2 -1.9
v -0.5 0.3 -1.9
v 0.3 0.2 -1.9
v 0.3 0.3 -1.9
v 0.6 0.2 -1.9
v 0.6 0.3 -1.9
v -0.6 0 -2
v -0.6 0.1 -2
v -0.6 0.2 -2
v -0.5 0 -2
v -0.5 0.1 -2
v -0.5 0.2 -2
v 0.3 0 -2
v 0.3 0.1 -2
v 0.3 0.2 -2
v 0.6 0 -2
v 0.6 0.1 -2
v 0.6 0.2 -2
v -0.9 0 -2.2
v -0.9 0.1 -2.2
v -0.9 0.2 -2.2
v -0.8 0.2 -2.2
v -0.8 0.3 -2.2
v -0.7 0.2 -2.2
v -0.7 0.3 -2.2
v -0.6 0 -2.2
v -0.6 0.1 -2.2
v -0.6 0.2 -2.2
v 0.6 0 -2.2
v 0.6 0.2 -2.2
v 0.6 0.3 -2.2
v 0.7 0.3 -2.2
v 0.7 0.4 -2.2
v 0.8 0.3 -2.2
v 0.8 0.4 -2.2
v 0.9 0 -2.2
v 0.9 0.2 -2.2
v 0.9 0.3 -2.2
v -0.5 0.2 -2.4
v -0.5 0.3 -2.4
v -0.1 0.2 -2.4
v -0.1 0.3 -2.4
v -0.5 0 -2.5
v -0.5 0.1 -2.5
v -0.5 0.2 -2.5
v -0.1 0 -2.5
v -0.1 0.1 -2.5
v -0.1 0.2 -2.5
v 0.1 0 -2.5
v 0.1 0.1 -2.5
v 0.1 0.2 -2.5
v 0.2 0.2 -2.5
v 0.2 0.3 -2.5
v 0.3 0.2 -2.5
v 0.3 0.3 -2.5
v 0.4 0 -2.5
v 0.4 0.1 -2.5
v 0.4 0.2 -2.5
v 0.5 0.2 -2.5
v 0.5 0.3 -2.5
v 0.8 0.2 -2.5
v 0.8 0.3 -2.5
v 0.5 0 -2.6
v 0.5 0.1 -2.6
v 0.5 0.2 -2.6
v 0.8 0 -2.6
v 0.8 0.1 -2.6
v 0.8 0.2 -2.6
v -0.9 0.2 -2.9
v -0.9 0.3 -2.9
v -0.8 0.2 -2.9
v -0.8 0.3 -2.9
v -0.7 0.2 -2.9
v -0.7 0.3 -2.9
v -0.4 0.2 -2.9
v -0.4 0.3 -2.9
v 0.6 0.2 -2.9
v 0.6 0.3 -2.9
v 0.7 0.2 -2.9
v 0.7 0.3 -2.9
v -0.9 0 -3
v -0.9 0.1 -3
v -0.9 0.2 -3
v -0.8 0.2 -3
v -0.8 0.3 -3
v -0.7 0.2 -3
v -0.7 0.3 -3
v -0.4 0 -3
v -0.4 0.1 -3
v -0.4 0.2 -3
v 0.1 0.2 -3
v 0.1 0.3 -3
v 0.4 0.2 -3
v 0.4 0.3 -3
v 0.8 0.2 -3
v 0.8 0.3 -3
v 0.9 0.2 -3
v 0.9 0.3 -3
v -0.2 0 -3.1
v -0.2 0.2 -3.1
v -0.2 0.3 -3.1
v 0.1 0.1 -3.1
v 0.1 0.2 -3.1
v 0.1 0.3 -3.1
v 0.4 0 -3.1
v 0.4 0.1 -3.1
v 0.4 0.2 -3.1
v 0.6 0 -3.1
v 0.6 0.1 -3.1
v 0.6 0.2 -3.1
v 0.7 0.2 -3.1
v 0.7 0.3 -3.1
v 0.8 0.2 -3.1
v 0.8 0.3 -3.1
v 0.9 0 -3.1
v 0.9 0.1 -3.1
v 0.9 0.2 -3.1
v -0.9 0 -1.1
v -0.6 0 -1.1
v -0.2 0 -1.1
v 0.4 0 -1.1
v -0.6 0 -1.2
v -0.3 0 -1.2
v 0.6 0 -1.2
v 0.9 0 -1.2
v -0.2 0 -1.4
v 0.1 0 -1.4
v -0.9 0 -1.5
v -0.3 0 -1.5
v 0.1 0 -1.6
v 0.4 0 -1.6
v 0.6 0 -1.6
v 0.9 0 -1.6
v -0.9 0 -1.7
v -0.5 0 -1.7
v 0.3 0 -1.7
v 0.9 0 -1.7
v -0.6 0 -2
v -0.5 0 -2
v 0.3 0 -2
v 0.6 0 -2
v -0.9 0 -2.2
v -0.6 0 -2.2
v -0.5 0 -2.2
v -0.1 0 -2.2
v 0.1 0 -2.2
v 0.4 0 -2.2
v 0.6 0 -2.2
v 0.9 0 -2.2
v 0.5 0 -2.3
v 0.8 0 -2.3
v -0.9 0 -2.4
v -0.6 0 -2.4
v -0.5 0 -2.5
v -0.1 0 -2.5
v 0.1 0 -2.5
v 0.4 0 -2.5
v -0.2 0 -2.6
v 0.1 0 -2.6
v 0.5 0 -2.6
v 0.8 0 -2.6
v -0.6 0 -2.7
v -0.4 0 -2.7
v 0.6 0 -2.7
v 0.9 0 -2.7
v 0.1 0 -2.8
v 0.4 0 -2.8
v -0.9 0 -3
v -0.4 0 -3
v -0.2 0 -3.1
v 0.4 0 -3.1
v 0.6 0 -3.1
v 0.9 0 -3.1
v -0.9 0.2 -1.1
v -0.8 0.2 -1.1
v -0.7 0.2 -1.1
v -0.6 0.2 -1.1
v -0.2 0.2 -1.1
v 0.1 0.2 -1.1
v -0.6 0.2 -1.2
v -0.3 0.2 -1.2
v -0.2 0.2 -1.2
v 0.1 0.2 -1.2
v 0.6 0.2 -1.2
v 0.7 0.2 -1.2
v 0.8 0.2 -1.2
v 0.9 0.2 -1.2
v -0.7 0.2 -1.3
v -0.4 0.2 -1.3
v -0.2 0.2 -1.3
v 0.1 0.2 -1.3
v 0.6 0.2 -1.3
v 0.7 0.2 -1.3
v -0.7 0.2 -1.4
v -0.4 0.2 -1.4
v -0.2 0.2 -1.4
v 0.1 0.2 -1.4
v 0.6 0.2 -1.4
v 0.7 0.2 -1.4
v 0.8 0.2 -1.4
v 0.9 0.2 -1.4
v -0.9 0.2 -1.5
v -0.8 0.2 -1.5
v -0.7 0.2 -1.5
v -0.3 0.2 -1.5
v 0.8 0.2 -1.5
v 0.9 0.2 -1.5
v 0.6 0.2 -1.6
v 0.7 0.2 -1.6
v 0.8 0.2 -1.6
v 0.9 0.2 -1.6
v -0.9 0.2 -1.7
v -0.8 0.2 -1.7
v -0.7 0.2 -1.7
v -0.5 0.2 -1.7
v 0.3 0.2 -1.7
v 0.6 0.2 -1.7
v -0.7 0.2 -1.8
v -0.5 0.2 -1.8
v 0.3 0.2 -1.8
v 0.6 0.2 -1.8
v -0.7 0.2 -1.9
v -0.5 0.2 -1.9
v 0.3 0.2 -1.9
v 0.6 0.2 -1.9
v -0.6 0.2 -2
v -0.5 0.2 -2
v 0.3 0.2 -2
v 0.6 0.2 -2
v -0.9 0.2 -2.2
v -0.8 0.2 -2.2
v -0.7 0.2 -2.2
v -0.6 0.2 -2.2
v -0.5 0.2 -2.2
v -0.1 0.2 -2.2
v 0.1 0.2 -2.2
v 0.2 0.2 -2.2
v 0.3 0.2 -2.2
v 0.4 0.2 -2.2
v -0.5 0.2 -2.3
v -0.1 0.2 -2.3
v 0.5 0.2 -2.3
v 0.8 0.2 -2.3
v -0.9 0.2 -2.4
v -0.8 0.2 -2.4
v -0.7 0.2 -2.4
v -0.6 0.2 -2.4
v -0.5 0.2 -2.4
v -0.1 0.2 -2.4
v 0.5 0.2 -2.4
v 0.8 0.2 -2.4
v -0.5 0.2 -2.5
v -0.1 0.2 -2.5
v 0.1 0.2 -2.5
v 0.2 0.2 -2.5
v 0.3 0.2 -2.5
v 0.4 0.2 -2.5
v 0.5 0.2 -2.5
v 0.8 0.2 -2.5
v -0.2 0.2 -2.6
v -0.1 0.2 -2.6
v 0 0.2 -2.6
v 0.1 0.2 -2.6
v 0.5 0.2 -2.6
v 0.8 0.2 -2.6
v -0.6 0.2 -2.7
v -0.4 0.2 -2.7
v 0.6 0.2 -2.7
v 0.7 0.2 -2.7
v 0.8 0.2 -2.7
v 0.9 0.2 -2.7
v -0.9 0.2 -2.8
v -0.8 0.2 -2.8
v -0.7 0.2 -2.8
v -0.4 0.2 -2.8
v -0.2 0.2 -2.8
v -0.1 0.2 -2.8
v 0 0.2 -2.8
v 0.1 0.2 -2.8
v 0.4 0.2 -2.8
v 0.6 0.2 -2.8
v 0.7 0.2 -2.8
v -0.9 0.2 -2.9
v -0.8 0.2 -2.9
v -0.7 0.2 -2.9
v -0.4 0.2 -2.9
v 0.1 0.2 -2.9
v 0.4 0.2 -2.9
v 0.6 0.2 -2.9
v 0.7 0.2 -2.9
v 0.8 0.2 -2.9
v 0.9 0.2 -2.9
v -0.9 0.2 -3
v -0.8 0.2 -3
v -0.7 0.2 -3
v -0.4 0.2 -3
v 0.1 0.2 -3
v 0.4 0.2 -3
v 0.8 0.2 -3
v 0.9 0.2 -3
v 0.1 0.2 -3.1
v 0.4 0.2 -3.1
v 0.6 0.2 -3.1
v 0.7 0.2 -3.1
v 0.8 0.2 -3.1
v 0.9 0.2 -3.1
v -0.8 0.3 -1.1
v -0.7 0.3 -1.1
v 0.1 0.3 -1.1
v 0.2 0.3 -1.1
v 0.3 0.3 -1.1
v 0.4 0.3 -1.1
v -0.2 0.3 -1.2
v 0.1 0.3 -1.2
v 0.7 0.3 -1.2
v 0.8 0.3 -1.2
v -0.7 0.3 -1.3
v -0.4 0.3 -1.3
v -0.2 0.3 -1.3
v 0.1 0.3 -1.3
v 0.6 0.3 -1.3
v 0.7 0.3 -1.3
v -0.7 0.3 -1.4
v -0.4 0.3 -1.4
v 0.6 0.3 -1.4
v 0.7 0.3 -1.4
v 0.8 0.3 -1.4
v 0.9 0.3 -1.4
v -0.8 0.3 -1.5
v -0.7 0.3 -1.5
v 0.8 0.3 -1.5
v 0.9 0.3 -1.5
v 0.1 0.3 -1.6
v 0.2 0.3 -1.6
v 0.3 0.3 -1.6
v 0.4 0.3 -1.6
v 0.7 0.3 -1.6
v 0.8 0.3 -1.6
v -0.8 0.3 -1.7
v -0.7 0.3 -1.7
v 0.6 0.3 -1.7
v 0.7 0.3 -1.7
v 0.8 0.3 -1.7
v 0.9 0.3 -1.7
v -0.7 0.3 -1.8
v -0.5 0.3 -1.8
v 0.3 0.3 -1.8
v 0.6 0.3 -1.8
v -0.7 0.3 -1.9
v -0.5 0.3 -1.9
v 0.3 0.3 -1.9
v 0.6 0.3 -1.9
v -0.8 0.3 -2.2
v -0.7 0.3 -2.2
v 0.2 0.3 -2.2
v 0.3 0.3 -2.2
v 0.6 0.3 -2.2
v 0.7 0.3 -2.2
v 0.8 0.3 -2.2
v 0.9 0.3 -2.2
v -0.5 0.3 -2.3
v -0.1 0.3 -2.3
v -0.8 0.3 -2.4
v -0.7 0.3 -2.4
v -0.5 0.3 -2.4
v -0.1 0.3 -2.4
v 0.5 0.3 -2.4
v 0.8 0.3 -2.4
v 0.2 0.3 -2.5
v 0.3 0.3 -2.5
v 0.5 0.3 -2.5
v 0.8 0.3 -2.5
v -0.1 0.3 -2.6
v 0 0.3 -2.6
v 0.7 0.3 -2.7
v 0.8 0.3 -2.7
v -0.9 0.3 -2.8
v -0.8 0.3 -2.8
v -0.7 0.3 -2.8
v -0.4 0.3 -2.8
v -0.2 0.3 -2.8
v -0.1 0.3 -2.8
v 0 0.3 -2.8
v 0.1 0.3 -2.8
v 0.6 0.3 -2.8
v 0.7 0.3 -2.8
v -0.9 0.3 -2.9
v -0.8 0.3 -2.9
v -0.7 0.3 -2.9
v -0.4 0.3 -2.9
v 0.1 0.3 -2.9
v 0.4 0.3 -2.9
v 0.6 0.3 -2.9
v 0.7 0.3 -2.9
v 0.8 0.3 -2.9
v 0.9 0.3 -2.9
v -0.8 0.3 -3
v -0.7 0.3 -3
v 0.1 0.3 -3
v 0.4 0.3 -3
v 0.8 0.3 -3
v 0.9 0.3 -3
v -0.2 0.3 -3.1
v 0.1 0.3 -3.1
v 0.7 0.3 -3.1
v 0.8 0.3 -3.1
v 0.2 0.4 -1.1
v 0.3 0.4 -1.1
v 0.2 0.4 -1.6
v 0.3 0.4 -1.6
v 0.7 0.4 -1.7
v 0.8 0.4 -1.7
v 0.7 0.4 -2.2
v 0.8 0.4 -2.2

# faces
f 7/1/1 2/1/1 1/1/1
f 8/1/1 2/1/1 7/1/1
f 9/1/1 4/1/1 3/1/1
f 10/1/1 4/1/1 9/1/1
f 11/1/1 6/1/1 5/1/1
f 12/1/1 6/1/1 11/1/1
f 13/2/1 8/2/1 7/2/1
f 14/2/1 8/2/1 13/2/1
f 15/2/1 10/2/1 9/2/1
f 16/2/1 10/2/1 15/2/1
f 17/2/1 12/2/1 11/2/1
f 18/2/1 12/2/1 17/2/1
f 19/2/1 12/2/1 18/2/1
f 20/2/1 12/2/1 19/2/1
f 21/2/1 19/2/1 18/2/1
f 22/2/1 19/2/1 21/2/1
f 31/2/1 24/2/1 23/2/1
f 32/2/1 24/2/1 31/2/1
f 33/2/1 26/2/1 25/2/1
f 34/2/1 26/2/1 33/2/1
f 35/2/1 28/2/1 27/2/1
f 36/2/1 28/2/1 35/2/1
f 37/2/1 30/2/1 29/2/1
f 38/2/1 30/2/1 37/2/1
f 41/1/1 40/1/1 39/1/1
f 42/1/1 40/1/1 41/1/1
f 43/2/1 42/2/1 41/2/1
f 44/2/1 42/2/1 43/2/1
f 45/2/1 42/2/1 44/2/1
f 46/2/1 42/2/1 45/2/1
f 47/2/1 45/2/1 44/2/1
f 48/2/1 45/2/1 47/2/1
f 53/1/1 50/1/1 49/1/1
f 54/1/1 50/1/1 53/1/1
f 55/1/1 52/1/1 51/1/1
f 56/1/1 52/1/1 55/1/1
f 57/2/1 54/2/1 53/2/1
f 58/2/1 54/2/1 57/2/1
f 59/2/1 54/2/1 58/2/1
f 60/2/1 54/2/1 59/2/1
f 61/2/1 56/2/1 55/2/1
f 62/1/1 52/1/1 56/1/1
f 62/2/1 56/2/1 61/2/1
f 63/1/1 52/1/1 62/1/1
f 64/2/1 59/2/1 58/2/1
f 65/2/1 59/2/1 64/2/1
f 66/2/1 63/2/1 62/2/1
f 67/2/1 63/2/1 66/2/1
f 70/2/1 69/2/1 68/2/1
f 71/2/1 69/2/1 70/2/1
f 76/1/1 73/1/1 72/1/1
f 77/1/1 75/1/1 74/1/1
f 78/1/1 75/1/1 77/1/1
f 82/1/1 73/1/1 76/1/1
f 83/1/1 73/1/1 82/1/1
f 84/2/1 78/2/1 77/2/1
f 85/2/1 78/2/1 84/2/1
f 86/2/1 80/2/1 79/2/1
f 87/2/1 80/2/1 86/2/1
f 88/2/1 83/2/1 82/2/1
f 88/2/1 82/2/1 81/2/1
f 89/2/1 83/2/1 88/2/1
f 94/2/1 91/2/1 90/2/1
f 95/2/1 91/2/1 94/2/1
f 96/2/1 93/2/1 92/2/1
f 97/2/1 93/2/1 96/2/1
f 100/1/1 99/1/1 98/1/1
f 101/1/1 99/1/1 100/1/1
f 102/2/1 101/2/1 100/2/1
f 103/2/1 101/2/1 102/2/1
f 104/2/1 101/2/1 103/2/1
f 105/2/1 101/2/1 104/2/1
f 106/2/1 104/2/1 103/2/1
f 107/2/1 104/2/1 106/2/1
f 110/1/1 109/1/1 108/1/1
f 111/1/1 109/1/1 110/1/1
f 112/2/1 111/2/1 110/2/1
f 113/2/1 111/2/1 112/2/1
f 114/2/1 111/2/1 113/2/1
f 115/2/1 111/2/1 114/2/1
f 116/2/1 114/2/1 113/2/1
f 117/2/1 114/2/1 116/2/1
f 124/1/1 119/1/1 118/1/1
f 125/1/1 119/1/1 124/1/1
f 126/1/1 121/1/1 120/1/1
f 127/1/1 123/1/1 122/1/1
f 128/1/1 123/1/1 127/1/1
f 129/2/1 125/2/1 124/2/1
f 130/2/1 125/2/1 129/2/1
f 131/2/1 125/2/1 130/2/1
f 132/2/1 125/2/1 131/2/1
f 136/1/1 121/1/1 126/1/1
f 137/1/1 121/1/1 136/1/1
f 138/2/1 128/2/1 127/2/1
f 139/2/1 128/2/1 138/2/1
f 140/2/1 128/2/1 139/2/1
f 141/2/1 128/2/1 140/2/1
f 142/2/1 131/2/1 130/2/1
f 143/2/1 131/2/1 142/2/1
f 144/2/1 134/2/1 133/2/1
f 145/2/1 134/2/1 144/2/1
f 146/2/1 137/2/1 136/2/1
f 146/2/1 136/2/1 135/2/1
f 147/2/1 137/2/1 146/2/1
f 148/2/1 140/2/1 139/2/1
f 149/2/1 140/2/1 148/2/1
f 158/2/1 151/2/1 150/2/1
f 159/2/1 151/2/1 158/2/1
f 160/2/1 153/2/1 152/2/1
f 161/2/1 153/2/1 160/2/1
f 164/2/1 155/2/1 154/2/1
f 165/2/1 155/2/1 164/2/1
f 166/2/1 157/2/1 156/2/1
f 167/2/1 157/2/1 166/2/1
f 168/2/1 163/2/1 162/2/1
f 169/2/1 163/2/1 168/2/1
f 170/2/2 171/2/2 182/2/2
f 182/2/2 171/2/2 183/2/2
f 172/2/2 173/2/2 184/2/2
f 184/2/2 173/2/2 185/2/2
f 174/2/2 175/2/2 186/2/2
f 186/2/2 175/2/2 187/2/2
f 176/2/2 177/2/2 188/2/2
f 188/2/2 177/2/2 189/2/2
f 178/2/2 179/2/2 190/2/2
f 190/2/2 179/2/2 191/2/2
f 180/2/2 181/2/2 192/2/2
f 192/2/2 181/2/2 193/2/2
f 194/1/2 195/1/2 200/1/2
f 200/1/2 195/1/2 201/1/2
f 196/1/2 197/1/2 202/1/2
f 202/1/2 197/1/2 203/1/2
f 198/1/2 199/1/2 204/1/2
f 204/1/2 199/1/2 205/1/2
f 200/2/2 201/2/2 206/2/2
f 206/2/2 201/2/2 207/2/2
f 202/2/2 203/2/2 208/2/2
f 208/2/2 203/2/2 209/2/2
f 204/2/2 205/2/2 210/2/2
f 210/2/2 205/2/2 211/2/2
f 212/1/2 213/1/2 214/1/2
f 214/1/2 213/1/2 215/1/2
f 214/2/2 215/2/2 216/2/2
f 216/2/2 215/2/2 217/2/2
f 217/2/2 215/2/2 218/2/2
f 218/2/2 215/2/2 219/2/2
f 217/2/2 218/2/2 220/2/2
f 220/2/2 218/2/2 221/2/2
f 222/1/2 223/1/2 224/1/2
f 224/1/2 223/1/2 225/1/2
f 224/2/2 225/2/2 228/2/2
f 228/2/2 225/2/2 229/2/2
f 229/2/2 225/2/2 230/2/2
f 230/2/2 225/2/2 231/2/2
f 226/2/2 227/2/2 232/2/2
f 232/2/2 227/2/2 233/2/2
f 229/2/2 230/2/2 234/2/2
f 234/2/2 230/2/2 235/2/2
f 236/1/2 237/1/2 238/1/2
f 238/1/2 237/1/2 239/1/2
f 238/2/2 239/2/2 240/2/2
f 240/2/2 239/2/2 241/2/2
f 242/1/2 243/1/2 244/1/2
f 244/1/2 243/1/2 245/1/2
f 244/2/2 245/2/2 246/2/2
f 246/2/2 245/2/2 247/2/2
f 247/2/2 245/2/2 248/2/2
f 248/2/2 245/2/2 249/2/2
f 247/2/2 248/2/2 250/2/2
f 250/2/2 248/2/2 251/2/2
f 252/2/2 253/2/2 254/2/2
f 254/2/2 253/2/2 255/2/2
f 256/1/2 257/1/2 258/1/2
f 258/1/2 257/1/2 259/1/2
f 258/2/2 259/2/2 260/2/2
f 260/2/2 259/2/2 261/2/2
f 261/2/2 262/2/2 265/2/2
f 265/2/2 262/2/2 266/2/2
f 263/2/2 264/2/2 267/2/2
f 267/2/2 264/2/2 268/2/2
f 269/2/2 270/2/2 273/2/2
f 273/2/2 270/2/2 274/2/2
f 271/2/2 272/2/2 275/2/2
f 275/2/2 272/2/2 276/2/2
f 279/1/2 280/1/2 283/1/2
f 283/1/2 280/1/2 284/1/2
f 281/1/2 282/1/2 285/1/2
f 285/1/2 282/1/2 286/1/2
f 277/1/2 278/1/2 287/1/2
f 287/1/2 278/1/2 288/1/2
f 283/2/2 284/2/2 289/2/2
f 289/2/2 284/2/2 290/2/2
f 285/2/2 286/2/2 291/2/2
f 291/2/2 286/2/2 292/2/2
f 292/2/2 286/2/2 293/2/2
f 293/2/2 286/2/2 294/2/2
f 287/2/2 288/2/2 295/2/2
f 295/2/2 288/2/2 296/2/2
f 292/2/2 293/2/2 297/2/2
f 297/2/2 293/2/2 298/2/2
f 299/1/2 300/1/2 301/1/2
f 301/1/2 300/1/2 302/1/2
f 301/2/2 302/2/2 307/2/2
f 307/2/2 302/2/2 308/2/2
f 308/2/2 302/2/2 309/2/2
f 309/2/2 302/2/2 310/2/2
f 303/2/2 304/2/2 315/2/2
f 315/2/2 304/2/2 316/2/2
f 305/2/2 306/2/2 317/2/2
f 317/2/2 306/2/2 318/2/2
f 308/2/2 309/2/2 321/2/2
f 321/2/2 309/2/2 322/2/2
f 311/2/2 312/2/2 323/2/2
f 323/2/2 312/2/2 324/2/2
f 313/2/2 314/2/2 325/2/2
f 325/2/2 314/2/2 326/2/2
f 319/2/2 320/2/2 327/2/2
f 327/2/2 320/2/2 328/2/2
f 329/1/2 330/1/2 335/1/2
f 335/1/2 330/1/2 336/1/2
f 333/1/2 334/1/2 337/1/2
f 337/1/2 334/1/2 338/1/2
f 335/2/2 336/2/2 339/2/2
f 339/2/2 336/2/2 340/2/2
f 340/2/2 336/2/2 341/2/2
f 341/2/2 336/2/2 342/2/2
f 331/1/2 332/1/2 343/1/2
f 343/1/2 332/1/2 344/1/2
f 337/2/2 338/2/2 345/2/2
f 345/2/2 338/2/2 346/2/2
f 346/2/2 338/2/2 347/2/2
f 347/2/2 338/2/2 348/2/2
f 340/2/2 341/2/2 349/2/2
f 349/2/2 341/2/2 350/2/2
f 343/2/2 344/2/2 351/2/2
f 351/2/2 344/2/2 352/2/2
f 346/2/2 347/2/2 353/2/2
f 353/2/2 347/2/2 354/2/2
f 358/2/3 357/2/3 356/2/3
f 360/2/3 358/2/3 356/2/3
f 360/2/3 359/2/3 358/2/3
f 361/2/3 359/2/3 360/2/3
f 362/1/3 356/1/3 355/1/3
f 363/2/3 360/2/3 356/2/3
f 363/1/3 356/1/3 362/1/3
f 364/2/3 360/2/3 363/2/3
f 368/1/3 366/1/3 365/1/3
f 368/2/3 367/2/3 366/2/3
f 369/2/3 367/2/3 368/2/3
f 371/2/3 370/2/3 369/2/3
f 373/2/3 371/2/3 369/2/3
f 373/2/3 372/2/3 371/2/3
f 374/2/3 372/2/3 373/2/3
f 375/1/3 368/1/3 365/1/3
f 375/1/3 369/1/3 368/1/3
f 376/2/3 373/2/3 369/2/3
f 376/1/3 369/1/3 375/1/3
f 377/2/3 373/2/3 376/2/3
f 381/1/3 379/1/3 378/1/3
f 382/2/3 380/2/3 379/2/3
f 382/1/3 379/1/3 381/1/3
f 383/2/3 380/2/3 382/2/3
f 386/2/3 385/2/3 384/2/3
f 387/2/3 385/2/3 386/2/3
f 391/2/3 390/2/3 389/2/3
f 393/2/3 391/2/3 389/2/3
f 393/2/3 392/2/3 391/2/3
f 394/2/3 392/2/3 393/2/3
f 395/1/3 389/1/3 388/1/3
f 396/2/3 393/2/3 389/2/3
f 396/1/3 389/1/3 395/1/3
f 397/2/3 393/2/3 396/2/3
f 400/2/3 399/2/3 398/2/3
f 401/2/3 399/2/3 400/2/3
f 404/2/3 403/2/3 402/2/3
f 405/2/3 403/2/3 404/2/3
f 408/2/3 407/2/3 406/2/3
f 409/2/3 407/2/3 408/2/3
f 413/2/3 412/2/3 411/2/3
f 415/2/3 413/2/3 411/2/3
f 415/2/3 414/2/3 413/2/3
f 416/2/3 414/2/3 415/2/3
f 417/1/3 411/1/3 410/1/3
f 418/2/3 415/2/3 411/2/3
f 418/1/3 411/1/3 417/1/3
f 419/2/3 415/2/3 418/2/3
f 423/1/3 421/1/3 420/1/3
f 423/2/3 422/2/3 421/2/3
f 424/2/3 422/2/3 423/2/3
f 426/2/3 425/2/3 424/2/3
f 428/2/3 426/2/3 424/2/3
f 428/2/3 427/2/3 426/2/3
f 429/2/3 427/2/3 428/2/3
f 430/1/3 423/1/3 420/1/3
f 430/1/3 424/1/3 423/1/3
f 431/2/3 428/2/3 424/2/3
f 431/1/3 424/1/3 430/1/3
f 432/2/3 428/2/3 431/2/3
f 435/2/3 434/2/3 433/2/3
f 436/2/3 434/2/3 435/2/3
f 439/2/3 438/2/3 437/2/3
f 440/2/3 438/2/3 439/2/3
f 444/1/3 442/1/3 441/1/3
f 445/2/3 443/2/3 442/2/3
f 445/1/3 442/1/3 444/1/3
f 446/2/3 443/2/3 445/2/3
f 450/2/3 449/2/3 448/2/3
f 452/2/3 450/2/3 448/2/3
f 452/2/3 451/2/3 450/2/3
f 453/2/3 451/2/3 452/2/3
f 454/1/3 448/1/3 447/1/3
f 455/2/3 452/2/3 448/2/3
f 455/1/3 448/1/3 454/1/3
f 456/2/3 452/2/3 455/2/3
f 459/2/3 458/2/3 457/2/3
f 460/2/3 458/2/3 459/2/3
f 464/1/3 462/1/3 461/1/3
f 465/2/3 463/2/3 462/2/3
f 465/1/3 462/1/3 464/1/3
f 466/2/3 463/2/3 465/2/3
f 470/2/3 469/2/3 468/2/3
f 472/2/3 470/2/3 468/2/3
f 472/2/3 471/2/3 470/2/3
f 473/2/3 471/2/3 472/2/3
f 474/1/3 468/1/3 467/1/3
f 475/2/3 472/2/3 468/2/3
f 475/1/3 468/1/3 474/1/3
f 476/2/3 472/2/3 475/2/3
f 479/2/3 478/2/3 477/2/3
f 480/2/3 478/2/3 479/2/3
f 484/2/3 483/2/3 482/2/3
f 486/2/3 484/2/3 482/2/3
f 486/2/3 485/2/3 484/2/3
f 487/2/3 485/2/3 486/2/3
f 488/1/3 482/1/3 481/1/3
f 489/2/3 486/2/3 482/2/3
f 489/1/3 482/1/3 488/1/3
f 490/2/3 486/2/3 489/2/3
f 494/1/3 492/1/3 491/1/3
f 495/2/3 493/2/3 492/2/3
f 495/1/3 492/1/3 494/1/3
f 496/2/3 493/2/3 495/2/3
f 500/2/3 499/2/3 498/2/3
f 502/2/3 500/2/3 498/2/3
f 502/2/3 501/2/3 500/2/3
f 503/2/3 501/2/3 502/2/3
f 504/1/3 498/1/3 497/1/3
f 505/2/3 502/2/3 498/2/3
f 505/1/3 498/1/3 504/1/3
f 506/2/3 502/2/3 505/2/3
f 509/2/3 508/2/3 507/2/3
f 510/2/3 508/2/3 509/2/3
f 513/2/3 512/2/3 511/2/3
f 514/2/3 512/2/3 513/2/3
f 517/2/3 516/2/3 515/2/3
f 518/2/3 516/2/3 517/2/3
f 523/2/3 520/2/3 519/2/3
f 524/2/3 520/2/3 523/2/3
f 525/1/3 522/1/3 521/1/3
f 526/2/3 523/2/3 522/2/3
f 526/1/3 522/1/3 525/1/3
f 527/2/3 523/2/3 526/2/3
f 530/2/3 529/2/3 528/2/3
f 531/2/3 529/2/3 530/2/3
f 534/2/3 533/2/3 532/2/3
f 535/2/3 533/2/3 534/2/3
f 538/2/3 537/2/3 536/2/3
f 539/2/3 537/2/3 538/2/3
f 540/2/4 541/2/4 542/2/4
f 542/2/4 541/2/4 543/2/4
f 544/2/4 545/2/4 546/2/4
f 546/2/4 545/2/4 547/2/4
f 548/1/4 549/1/4 551/1/4
f 549/2/4 550/2/4 552/2/4
f 551/1/4 549/1/4 552/1/4
f 552/2/4 550/2/4 553/2/4
f 554/2/4 555/2/4 556/2/4
f 556/2/4 555/2/4 557/2/4
f 559/2/4 560/2/4 561/2/4
f 559/2/4 561/2/4 563/2/4
f 561/2/4 562/2/4 563/2/4
f 563/2/4 562/2/4 564/2/4
f 558/1/4 559/1/4 565/1/4
f 559/2/4 563/2/4 566/2/4
f 565/1/4 559/1/4 566/1/4
f 566/2/4 563/2/4 567/2/4
f 568/2/4 569/2/4 570/2/4
f 570/2/4 569/2/4 571/2/4
f 573/2/4 574/2/4 575/2/4
f 573/2/4 575/2/4 577/2/4
f 575/2/4 576/2/4 577/2/4
f 577/2/4 576/2/4 578/2/4
f 572/1/4 573/1/4 579/1/4
f 573/2/4 577/2/4 580/2/4
f 579/1/4 573/1/4 580/1/4
f 580/2/4 577/2/4 581/2/4
f 583/2/4 584/2/4 585/2/4
f 583/2/4 585/2/4 587/2/4
f 585/2/4 586/2/4 587/2/4
f 587/2/4 586/2/4 588/2/4
f 582/1/4 583/1/4 589/1/4
f 583/2/4 587/2/4 590/2/4
f 589/1/4 583/1/4 590/1/4
f 590/2/4 587/2/4 591/2/4
f 592/2/4 593/2/4 594/2/4
f 594/2/4 593/2/4 595/2/4
f 596/2/4 597/2/4 598/2/4
f 598/2/4 597/2/4 599/2/4
f 600/1/4 601/1/4 603/1/4
f 601/2/4 602/2/4 604/2/4
f 603/1/4 601/1/4 604/1/4
f 604/2/4 602/2/4 605/2/4
f 606/1/4 607/1/4 609/1/4
f 607/2/4 608/2/4 610/2/4
f 609/1/4 607/1/4 610/1/4
f 610/2/4 608/2/4 611/2/4
f 613/2/4 614/2/4 615/2/4
f 613/2/4 615/2/4 617/2/4
f 615/2/4 616/2/4 617/2/4
f 617/2/4 616/2/4 618/2/4
f 612/1/4 613/1/4 619/1/4
f 613/2/4 617/2/4 620/2/4
f 619/1/4 613/1/4 620/1/4
f 620/2/4 617/2/4 621/2/4
f 623/2/4 624/2/4 625/2/4
f 623/2/4 625/2/4 627/2/4
f 625/2/4 626/2/4 627/2/4
f 627/2/4 626/2/4 628/2/4
f 622/1/4 623/1/4 629/1/4
f 623/2/4 627/2/4 630/2/4
f 629/1/4 623/1/4 630/1/4
f 630/2/4 627/2/4 631/2/4
f 632/2/4 633/2/4 634/2/4
f 634/2/4 633/2/4 635/2/4
f 636/1/4 637/1/4 639/1/4
f 637/2/4 638/2/4 640/2/4
f 639/1/4 637/1/4 640/1/4
f 640/2/4 638/2/4 641/2/4
f 643/2/4 644/2/4 645/2/4
f 643/2/4 645/2/4 647/2/4
f 645/2/4 646/2/4 647/2/4
f 647/2/4 646/2/4 648/2/4
f 642/1/4 643/1/4 649/1/4
f 643/2/4 647/2/4 650/2/4
f 649/1/4 643/1/4 650/1/4
f 650/2/4 647/2/4 651/2/4
f 652/2/4 653/2/4 654/2/4
f 654/2/4 653/2/4 655/2/4
f 656/1/4 657/1/4 659/1/4
f 657/2/4 658/2/4 660/2/4
f 659/1/4 657/1/4 660/1/4
f 660/2/4 658/2/4 661/2/4
f 662/2/4 663/2/4 664/2/4
f 664/2/4 663/2/4 665/2/4
f 666/2/4 667/2/4 668/2/4
f 668/2/4 667/2/4 669/2/4
f 670/2/4 671/2/4 672/2/4
f 672/2/4 671/2/4 673/2/4
f 675/2/4 676/2/4 677/2/4
f 675/2/4 677/2/4 679/2/4
f 677/2/4 678/2/4 679/2/4
f 679/2/4 678/2/4 680/2/4
f 674/1/4 675/1/4 681/1/4
f 675/2/4 679/2/4 682/2/4
f 681/1/4 675/1/4 682/1/4
f 682/2/4 679/2/4 683/2/4
f 684/2/4 685/2/4 686/2/4
f 686/2/4 685/2/4 687/2/4
f 688/2/4 689/2/4 690/2/4
f 690/2/4 689/2/4 691/2/4
f 692/1/4 693/1/4 695/1/4
f 693/2/4 694/2/4 696/2/4
f 695/1/4 693/1/4 696/1/4
f 696/2/4 694/2/4 697/2/4
f 692/1/4 695/1/4 698/1/4
f 695/2/4 696/2/4 699/2/4
f 698/1/4 695/1/4 699/1/4
f 699/2/4 696/2/4 700/2/4
f 702/2/4 703/2/4 704/2/4
f 702/2/4 704/2/4 706/2/4
f 704/2/4 705/2/4 706/2/4
f 706/2/4 705/2/4 707/2/4
f 701/1/4 702/1/4 708/1/4
f 702/2/4 706/2/4 709/2/4
f 708/1/4 702/1/4 709/1/4
f 709/2/4 706/2/4 710/2/4
f 715/1/5 712/1/5 711/1/5
f 719/1/5 714/1/5 713/1/5
f 720/1/5 714/1/5 719/1/5
f 721/1/5 715/1/5 711/1/5
f 721/1/5 716/1/5 715/1/5
f 722/1/5 716/1/5 721/1/5
f 723/1/5 714/1/5 720/1/5
f 724/1/5 714/1/5 723/1/5
f 725/1/5 718/1/5 717/1/5
f 726/1/5 718/1/5 725/1/5
f 731/1/5 728/1/5 727/1/5
f 732/1/5 728/1/5 731/1/5
f 733/1/5 730/1/5 729/1/5
f 734/1/5 730/1/5 733/1/5
f 735/1/5 731/1/5 727/1/5
f 736/1/5 731/1/5 735/1/5
f 741/1/5 730/1/5 734/1/5
f 742/1/5 730/1/5 741/1/5
f 747/1/5 738/1/5 737/1/5
f 748/1/5 738/1/5 747/1/5
f 749/1/5 740/1/5 739/1/5
f 750/1/5 740/1/5 749/1/5
f 753/1/5 744/1/5 743/1/5
f 754/1/5 744/1/5 753/1/5
f 755/1/5 746/1/5 745/1/5
f 759/1/5 752/1/5 751/1/5
f 761/1/5 756/1/5 755/1/5
f 761/1/5 755/1/5 745/1/5
f 762/1/5 756/1/5 761/1/5
f 763/1/5 760/1/5 759/1/5
f 763/1/5 759/1/5 751/1/5
f 764/1/5 760/1/5 763/1/5
f 765/1/5 758/1/5 757/1/5
f 766/1/5 758/1/5 765/1/5
f 769/2/6 770/2/6 773/2/6
f 771/2/6 772/2/6 775/2/6
f 775/2/6 772/2/6 776/2/6
f 773/2/6 774/2/6 781/2/6
f 769/2/6 773/2/6 781/2/6
f 781/2/6 774/2/6 782/2/6
f 777/2/6 778/2/6 785/2/6
f 785/2/6 778/2/6 786/2/6
f 782/2/6 774/2/6 788/2/6
f 783/2/6 784/2/6 789/2/6
f 789/2/6 784/2/6 790/2/6
f 779/2/6 780/2/6 793/2/6
f 793/2/6 780/2/6 794/2/6
f 767/2/6 768/2/6 795/2/6
f 795/2/6 768/2/6 796/2/6
f 787/2/6 788/2/6 797/2/6
f 788/2/6 774/2/6 798/2/6
f 797/2/6 788/2/6 798/2/6
f 791/2/6 792/2/6 801/2/6
f 801/2/6 792/2/6 802/2/6
f 799/2/6 800/2/6 803/2/6
f 803/2/6 800/2/6 804/2/6
f 807/2/6 808/2/6 811/2/6
f 811/2/6 808/2/6 812/2/6
f 809/2/6 810/2/6 813/2/6
f 813/2/6 810/2/6 814/2/6
f 815/2/6 816/2/6 819/2/6
f 819/2/6 816/2/6 820/2/6
f 817/2/6 818/2/6 821/2/6
f 821/2/6 818/2/6 822/2/6
f 805/2/6 806/2/6 823/2/6
f 823/2/6 806/2/6 824/2/6
f 815/2/6 819/2/6 825/2/6
f 825/2/6 819/2/6 826/2/6
f 827/2/6 828/2/6 833/2/6
f 833/2/6 828/2/6 834/2/6
f 835/2/6 836/2/6 843/2/6
f 843/2/6 836/2/6 844/2/6
f 841/2/6 842/2/6 845/2/6
f 845/2/6 842/2/6 846/2/6
f 829/2/6 830/2/6 847/2/6
f 847/2/6 830/2/6 848/2/6
f 831/2/6 832/2/6 849/2/6
f 849/2/6 832/2/6 850/2/6
f 851/2/6 852/2/6 857/2/6
f 857/2/6 852/2/6 858/2/6
f 839/2/6 840/2/6 859/2/6
f 837/2/6 838/2/6 865/2/6
f 865/2/6 838/2/6 866/2/6
f 859/2/6 860/2/6 867/2/6
f 839/2/6 859/2/6 867/2/6
f 867/2/6 860/2/6 868/2/6
f 853/2/6 854/2/6 869/2/6
f 869/2/6 854/2/6 870/2/6
f 855/2/6 856/2/6 871/2/6
f 871/2/6 856/2/6 872/2/6
f 861/2/6 862/2/6 874/2/6
f 874/2/6 862/2/6 875/2/6
f 872/2/6 873/2/6 880/2/6
f 880/2/6 873/2/6 881/2/6
f 863/2/6 864/2/6 884/2/6
f 884/2/6 864/2/6 885/2/6
f 876/2/6 877/2/6 886/2/6
f 886/2/6 877/2/6 887/2/6
f 878/2/6 879/2/6 888/2/6
f 888/2/6 879/2/6 889/2/6
f 890/2/6 891/2/6 894/2/6
f 894/2/6 891/2/6 895/2/6
f 882/2/6 883/2/6 896/2/6
f 896/2/6 883/2/6 897/2/6
f 892/2/6 893/2/6 898/2/6
f 898/2/6 893/2/6 899/2/6
f 902/2/6 903/2/6 907/2/6
f 900/2/6 901/2/6 910/2/6
f 906/2/6 907/2/6 912/2/6
f 907/2/6 903/2/6 913/2/6
f 912/2/6 907/2/6 913/2/6
f 908/2/6 909/2/6 915/2/6
f 910/2/6 911/2/6 916/2/6
f 900/2/6 910/2/6 916/2/6
f 916/2/6 911/2/6 917/2/6
f 914/2/6 915/2/6 918/2/6
f 915/2/6 909/2/6 919/2/6
f 918/2/6 915/2/6 919/2/6
f 919/2/6 909/2/6 920/2/6
f 900/2/6 916/2/6 922/2/6
f 922/2/6 916/2/6 923/2/6
f 920/2/6 921/2/6 924/2/6
f 919/2/6 920/2/6 924/2/6
f 924/2/6 921/2/6 925/2/6
f 913/2/6 903/2/6 926/2/6
f 926/2/6 903/2/6 927/2/6
f 904/2/6 905/2/6 928/2/6
f 928/2/6 905/2/6 929/2/6
f 919/2/6 924/2/6 930/2/6
f 930/2/6 924/2/6 931/2/6
f 932/2/6 933/2/6 938/2/6
f 934/2/6 935/2/6 941/2/6
f 938/2/6 939/2/6 942/2/6
f 932/2/6 938/2/6 942/2/6
f 942/2/6 939/2/6 943/2/6
f 940/2/6 941/2/6 944/2/6
f 941/2/6 935/2/6 945/2/6
f 944/2/6 941/2/6 945/2/6
f 932/2/6 942/2/6 946/2/6
f 946/2/6 942/2/6 947/2/6
f 945/2/6 935/2/6 950/2/6
f 950/2/6 935/2/6 951/2/6
f 936/2/6 937/2/6 952/2/6
f 952/2/6 937/2/6 953/2/6
f 954/2/6 955/2/6 958/2/6
f 958/2/6 955/2/6 959/2/6
f 948/2/6 949/2/6 962/2/6
f 962/2/6 949/2/6 963/2/6
f 960/2/6 961/2/6 964/2/6
f 964/2/6 961/2/6 965/2/6
f 956/2/6 957/2/6 971/2/6
f 971/2/6 957/2/6 972/2/6
f 966/2/6 967/2/6 975/2/6
f 975/2/6 967/2/6 976/2/6
f 968/2/6 969/2/6 979/2/6
f 972/2/6 973/2/6 980/2/6
f 970/2/6 971/2/6 980/2/6
f 971/2/6 972/2/6 980/2/6
f 980/2/6 973/2/6 981/2/6
f 981/2/6 973/2/6 982/2/6
f 982/2/6 973/2/6 983/2/6
f 976/2/6 977/2/6 984/2/6
f 974/2/6 975/2/6 984/2/6
f 975/2/6 976/2/6 984/2/6
f 978/2/6 979/2/6 986/2/6
f 979/2/6 969/2/6 987/2/6
f 986/2/6 979/2/6 987/2/6
f 987/2/6 969/2/6 988/2/6
f 981/2/6 982/2/6 990/2/6
f 990/2/6 982/2/6 991/2/6
f 984/2/6 985/2/6 992/2/6
f 974/2/6 984/2/6 992/2/6
f 992/2/6 985/2/6 993/2/6
f 987/2/6 988/2/6 994/2/6
f 988/2/6 989/2/6 994/2/6
f 994/2/6 989/2/6 995/2/6
f 974/2/6 992/2/6 996/2/6
f 996/2/6 992/2/6 997/2/6
f 987/2/6 994/2/6 998/2/6
f 998/2/6 994/2/6 999/2/6
f 1000/2/6 1001/2/6 1002/2/6
f 1002/2/6 1001/2/6 1003/2/6
f 1004/2/6 1005/2/6 1006/2/6
f 1006/2/6 1005/2/6 1007/2/6
