# MagicaVoxel @ Ephtracy

# group
o 

# material
mtllib wall_connection.mtl
usemtl palette

# normals
vn -1 0 0
vn 1 0 0
vn 0 0 1
vn 0 0 -1
vn 0 -1 0
vn 0 1 0

# texcoords
vt 0.0371094 0.5
vt 0.373047 0.5

# verts
v -1 0 -1
v -1 0 -1.4
v -1 0 -1.5
v -1 0.1 -1
v -1 0.1 -1.4
v -1 0.2 -1.4
v -1 0.2 -1.5
v -0.9 0.1 -1.3
v -0.9 0.1 -1.4
v -0.9 0.2 -1.3
v -0.9 0.2 -1.4
v -0.8 0.1 -1.2
v -0.8 0.1 -1.3
v -0.8 0.2 -1.2
v -0.8 0.2 -1.3
v -0.7 0.1 -1.1
v -0.7 0.1 -1.2
v -0.7 0.2 -1.1
v -0.7 0.2 -1.2
v -0.6 0.1 -1
v -0.6 0.1 -1.1
v -0.6 0.2 -1
v -0.6 0.2 -1.1
v -0.9 0 -1.4
v -0.9 0 -1.5
v -0.9 0.2 -1.4
v -0.9 0.2 -1.5
v -0.8 0 -1.3
v -0.8 0 -1.4
v -0.8 0.2 -1.3
v -0.8 0.2 -1.4
v -0.7 0 -1.2
v -0.7 0 -1.3
v -0.7 0.2 -1.2
v -0.7 0.2 -1.3
v -0.6 0 -1.1
v -0.6 0 -1.2
v -0.6 0.2 -1.1
v -0.6 0.2 -1.2
v -0.5 0 -1
v -0.5 0 -1.1
v -0.5 0.2 -1
v -0.5 0.2 -1.1
v -1 0 -1
v -1 0.1 -1
v -0.6 0 -1
v -0.6 0.1 -1
v -0.6 0.2 -1
v -0.5 0 -1
v -0.5 0.2 -1
v -0.7 0.1 -1.1
v -0.7 0.2 -1.1
v -0.6 0.1 -1.1
v -0.6 0.2 -1.1
v -0.8 0.1 -1.2
v -0.8 0.2 -1.2
v -0.7 0.1 -1.2
v -0.7 0.2 -1.2
v -0.9 0.1 -1.3
v -0.9 0.2 -1.3
v -0.8 0.1 -1.3
v -0.8 0.2 -1.3
v -1 0.1 -1.4
v -1 0.2 -1.4
v -0.9 0.1 -1.4
v -0.9 0.2 -1.4
v -0.6 0 -1.1
v -0.6 0.2 -1.1
v -0.5 0 -1.1
v -0.5 0.2 -1.1
v -0.7 0 -1.2
v -0.7 0.2 -1.2
v -0.6 0 -1.2
v -0.6 0.2 -1.2
v -0.8 0 -1.3
v -0.8 0.2 -1.3
v -0.7 0 -1.3
v -0.7 0.2 -1.3
v -0.9 0 -1.4
v -0.9 0.2 -1.4
v -0.8 0 -1.4
v -0.8 0.2 -1.4
v -1 0 -1.5
v -1 0.2 -1.5
v -0.9 0 -1.5
v -0.9 0.2 -1.5
v -1 0 -1
v -0.6 0 -1
v -0.5 0 -1
v -0.7 0 -1.1
v -0.6 0 -1.1
v -0.5 0 -1.1
v -0.8 0 -1.2
v -0.7 0 -1.2
v -0.6 0 -1.2
v -0.9 0 -1.3
v -0.8 0 -1.3
v -0.7 0 -1.3
v -1 0 -1.4
v -0.9 0 -1.4
v -0.8 0 -1.4
v -1 0 -1.5
v -0.9 0 -1.5
v -1 0.1 -1
v -0.6 0.1 -1
v -0.7 0.1 -1.1
v -0.6 0.1 -1.1
v -0.8 0.1 -1.2
v -0.7 0.1 -1.2
v -0.9 0.1 -1.3
v -0.8 0.1 -1.3
v -1 0.1 -1.4
v -0.9 0.1 -1.4
v -0.6 0.2 -1
v -0.5 0.2 -1
v -0.7 0.2 -1.1
v -0.6 0.2 -1.1
v -0.5 0.2 -1.1
v -0.8 0.2 -1.2
v -0.7 0.2 -1.2
v -0.6 0.2 -1.2
v -0.9 0.2 -1.3
v -0.8 0.2 -1.3
v -0.7 0.2 -1.3
v -1 0.2 -1.4
v -0.9 0.2 -1.4
v -0.8 0.2 -1.4
v -1 0.2 -1.5
v -0.9 0.2 -1.5

# faces
f 4/1/1 2/1/1 1/1/1
f 5/2/1 3/2/1 2/2/1
f 5/1/1 2/1/1 4/1/1
f 6/2/1 3/2/1 5/2/1
f 7/2/1 3/2/1 6/2/1
f 10/2/1 9/2/1 8/2/1
f 11/2/1 9/2/1 10/2/1
f 14/2/1 13/2/1 12/2/1
f 15/2/1 13/2/1 14/2/1
f 18/2/1 17/2/1 16/2/1
f 19/2/1 17/2/1 18/2/1
f 22/2/1 21/2/1 20/2/1
f 23/2/1 21/2/1 22/2/1
f 24/2/2 25/2/2 26/2/2
f 26/2/2 25/2/2 27/2/2
f 28/2/2 29/2/2 30/2/2
f 30/2/2 29/2/2 31/2/2
f 32/2/2 33/2/2 34/2/2
f 34/2/2 33/2/2 35/2/2
f 36/2/2 37/2/2 38/2/2
f 38/2/2 37/2/2 39/2/2
f 40/2/2 41/2/2 42/2/2
f 42/2/2 41/2/2 43/2/2
f 46/1/3 45/1/3 44/1/3
f 47/1/3 45/1/3 46/1/3
f 49/2/3 47/2/3 46/2/3
f 49/2/3 48/2/3 47/2/3
f 50/2/3 48/2/3 49/2/3
f 53/2/3 52/2/3 51/2/3
f 54/2/3 52/2/3 53/2/3
f 57/2/3 56/2/3 55/2/3
f 58/2/3 56/2/3 57/2/3
f 61/2/3 60/2/3 59/2/3
f 62/2/3 60/2/3 61/2/3
f 65/2/3 64/2/3 63/2/3
f 66/2/3 64/2/3 65/2/3
f 67/2/4 68/2/4 69/2/4
f 69/2/4 68/2/4 70/2/4
f 71/2/4 72/2/4 73/2/4
f 73/2/4 72/2/4 74/2/4
f 75/2/4 76/2/4 77/2/4
f 77/2/4 76/2/4 78/2/4
f 79/2/4 80/2/4 81/2/4
f 81/2/4 80/2/4 82/2/4
f 83/2/4 84/2/4 85/2/4
f 85/2/4 84/2/4 86/2/4
f 90/1/5 88/1/5 87/1/5
f 91/2/5 89/2/5 88/2/5
f 91/1/5 88/1/5 90/1/5
f 92/2/5 89/2/5 91/2/5
f 93/1/5 90/1/5 87/1/5
f 94/2/5 91/2/5 90/2/5
f 94/1/5 90/1/5 93/1/5
f 95/2/5 91/2/5 94/2/5
f 96/1/5 93/1/5 87/1/5
f 97/2/5 94/2/5 93/2/5
f 97/1/5 93/1/5 96/1/5
f 98/2/5 94/2/5 97/2/5
f 99/1/5 96/1/5 87/1/5
f 100/2/5 97/2/5 96/2/5
f 100/1/5 96/1/5 99/1/5
f 101/2/5 97/2/5 100/2/5
f 102/2/5 100/2/5 99/2/5
f 103/2/5 100/2/5 102/2/5
f 104/1/6 105/1/6 106/1/6
f 106/1/6 105/1/6 107/1/6
f 104/1/6 106/1/6 108/1/6
f 108/1/6 106/1/6 109/1/6
f 104/1/6 108/1/6 110/1/6
f 110/1/6 108/1/6 111/1/6
f 104/1/6 110/1/6 112/1/6
f 112/1/6 110/1/6 113/1/6
f 114/2/6 115/2/6 117/2/6
f 117/2/6 115/2/6 118/2/6
f 116/2/6 117/2/6 120/2/6
f 120/2/6 117/2/6 121/2/6
f 119/2/6 120/2/6 123/2/6
f 123/2/6 120/2/6 124/2/6
f 122/2/6 123/2/6 126/2/6
f 126/2/6 123/2/6 127/2/6
f 125/2/6 126/2/6 128/2/6
f 128/2/6 126/2/6 129/2/6
